<?xml version="1.0" encoding="utf-8"?>
<!DOCTYPE svg PUBLIC "-//W3C//DTD SVG 20010904//EN" "http://www.w3.org/TR/2001/REC-SVG-20010904/DTD/svg10.dtd">
<svg version="1.0" xmlns="http://www.w3.org/2000/svg" width="530px" height="542px" viewBox="0 0 530 542" preserveAspectRatio="xMidYMid meet">
 <g fill="#000000">
  <path d="M0 271 l0 -271 265 0 265 0 0 271 0 271 -265 0 -265 0 0 -271z m112.3 242.9 c11.3 -4.3 18.1 -13.4 18.1 -24.1 -0.1 -4.9 -0.6 -6.6 -3.7 -11.2 -4.4 -6.6 -8.6 -9.9 -15.5 -12.1 -6.2 -2.1 -11.9 -1.1 -18.3 3.2 -6.4 4.3 -12.9 14.4 -12.9 20.3 0 5.8 6.3 17.2 11.4 20.5 2.5 1.7 12.3 5.4 14.3 5.5 0.6 0 3.6 -0.9 6.6 -2.1z m57.2 -0.6 c9.2 -4.6 10.5 -8.2 10.5 -29.5 0 -15.6 -0.1 -16.9 -1.7 -16.6 -1.6 0.3 -1.9 2.3 -2.3 19.3 -0.7 24.8 -1.1 25.5 -14.3 25.5 -7.9 0 -13 -1.7 -14.2 -4.8 -0.3 -0.9 -0.9 -10 -1.1 -20.2 -0.5 -19.9 -0.8 -22 -2.6 -20.2 -1.8 1.8 -1.3 34.3 0.6 38 2 3.9 8 9 11.4 9.8 1.5 0.3 3.2 0.7 3.7 0.9 1.6 0.6 6.7 -0.6 10 -2.2z m267 0.3 c8.6 -3.9 16.5 -15 16.5 -22.8 -0.1 -11 -14 -24.8 -25.2 -24.8 -8.1 0 -18.7 7.1 -23 15.5 -6.1 11.7 1.6 28 15.5 33.2 5.1 1.8 10.8 1.5 16.2 -1.1z m31.5 -16.3 l0 -16.3 3.9 0 c3.7 0 4.3 0.5 11.7 9.6 4.4 5.3 8.8 10.9 10 12.5 4.4 6.1 9.9 11.9 11.1 11.9 1.7 0 1.9 -46.5 0.2 -47.5 -2.1 -1.3 -2.4 0.8 -2.1 15.3 0.1 8 -0.1 15.4 -0.4 16.4 -0.4 1.3 -1.6 1.8 -4.4 1.8 -3.7 0 -4.3 -0.4 -10.7 -8.6 -15.8 -20 -20 -24.9 -21.4 -24.9 -1.2 0 -1.4 3.8 -1.7 23.4 -0.2 17.9 0.1 23.6 1 24.2 2.3 1.4 2.8 -1.5 2.8 -17.8z m-424.8 5.4 l0.3 -10.2 10.5 -0.5 c8.9 -0.4 10.5 -0.8 10.8 -2.2 0.3 -1.5 -0.9 -1.8 -10.5 -2 l-10.8 -0.3 -0.9 -6.8 c-0.6 -4.7 -0.6 -7.5 0.2 -9.2 l1.2 -2.5 15.1 0 c11.6 0 15 -0.3 14.7 -1.2 -0.4 -1 -4.7 -1.3 -17.4 -1.3 l-16.9 0 -0.3 23 c-0.1 12.6 0 23.6 0.3 24.3 0.4 1.1 0.8 1.2 2 0.2 1 -0.9 1.5 -4 1.7 -11.3z m152.6 11.1 c0.8 -0.8 1.2 -6.2 1.2 -17.6 l0 -16.3 3.7 0.3 c3.9 0.3 2.7 -1 20.7 22 6.8 8.7 10.8 12.8 11.8 12.2 1.3 -0.8 1 -46.1 -0.3 -47 -2.3 -1.4 -2.9 2.5 -2.9 18.4 l0 16.2 -3.4 0 c-3.7 0 -4.2 -0.6 -25.4 -28.2 -8.4 -10.9 -8.6 -10.6 -9 16.2 -0.1 12.3 0 23 0.2 23.7 0.7 1.6 1.9 1.6 3.4 0.1z m73.6 0 c5.9 -1.7 11.6 -5.7 15 -10.6 2.6 -3.7 3.1 -5.4 3.4 -11.5 0.2 -6.3 -0.1 -7.8 -2.5 -12.2 -4.9 -8.8 -13 -12.5 -27.1 -12.5 l-9.2 0 0 23.3 c0 12.9 0.3 23.7 0.7 24 1.1 1.1 15.3 0.8 19.7 -0.5z m30.8 -2.8 c1 -1.9 2.4 -3.7 3.1 -4.2 0.8 -0.4 6.7 -0.4 13.3 -0.1 l12 0.6 1.6 3.8 c0.9 2.2 2.1 3.9 2.7 3.9 1.2 0 1.5 -2.3 0.5 -3.2 -0.3 -0.3 -2.3 -5.7 -4.5 -11.9 -10.9 -31.5 -11.2 -32.4 -13.8 -32.4 -2.1 0 -2.7 0.9 -4.3 6 -1 3.3 -2.3 6.9 -2.7 8 -0.5 1.1 -3 7.9 -5.6 15 -2.5 7.2 -5 14 -5.6 15.3 -1.2 3 -1.1 3.4 0.4 3 0.6 -0.2 2 -1.9 2.9 -3.8z m58.6 -17.5 c0.1 -12.9 0.6 -21.3 1.3 -22.1 0.6 -0.8 3.9 -1.4 7.7 -1.6 3.8 -0.2 6.6 -0.7 6.5 -1.3 -0.2 -0.6 -7.1 -1.1 -17.4 -1.3 -13.5 -0.2 -17 0 -16.7 1 0.3 0.8 3 1.5 7.4 1.8 l6.9 0.5 0.3 21 c0.1 11.6 0.4 21.6 0.7 22.3 0.3 0.8 1.1 1.2 1.8 1 0.9 -0.4 1.3 -5.7 1.5 -21.3z m31.6 19.9 c0.3 -0.9 0.6 -11.1 0.6 -22.9 0 -16.6 -0.3 -21.5 -1.3 -22.4 -0.8 -0.6 -1.7 -0.8 -2 -0.4 -0.4 0.3 -0.7 11.1 -0.7 24 0 19.2 0.2 23.3 1.4 23.3 0.8 0 1.7 -0.7 2 -1.6z m-320.9 -72.8 c4.2 -1.9 13.5 -10.3 13.5 -12.1 0 -1.7 -3.2 0 -4.7 2.5 -5 8.5 -24 9.6 -32.7 2 -4.5 -4 -5.9 -8.9 -5.5 -19.3 0.4 -8.3 0.5 -8.7 3.9 -12.2 5.4 -5.6 7.8 -6.5 17.9 -6.5 l9.1 0 4.7 4.5 c2.5 2.5 5 4.5 5.5 4.5 3.2 0 -3.9 -8 -10.2 -11.4 -4.3 -2.3 -6.1 -2.8 -10.4 -2.4 -12.3 1 -22 10.3 -25 24 -1.5 6.6 5.6 18.9 13.8 24 8.5 5.2 13 5.8 20.1 2.4z m246.3 0.9 c4.7 -2 7.9 -5 10.3 -9.8 1.7 -3.3 1.9 -5.6 1.7 -21.5 -0.3 -14.9 -0.5 -17.7 -1.8 -17.7 -1.3 0 -1.6 3.1 -2 20.2 -0.5 19.4 -0.6 20.2 -2.8 22.6 -4.5 4.8 -20.4 4.8 -24.6 0 -2 -2.3 -2.1 -3.8 -2.6 -22.6 -0.5 -18.2 -0.7 -20.2 -2.2 -20.5 -1.7 -0.3 -1.8 1.1 -1.8 18.4 0 18.2 0.1 18.8 2.5 23.1 4.6 7.7 15 11.2 23.3 7.8z m-187.3 -0.9 c4.9 -2.1 12.7 -9.7 15.4 -15.2 2 -4 2.3 -5.6 1.8 -11 -1 -10.3 -7.9 -18.9 -18.3 -22.5 -5.2 -1.8 -6.5 -2 -11.1 -0.9 -12.8 2.8 -23.3 15.8 -22 27.2 1.9 16 20.4 28.1 34.2 22.4z m33.3 -16.1 l0.5 -15.6 3.5 0.3 3.6 0.3 5.1 15 c5.6 16.7 6 17.5 8 17.5 2.3 0 3.9 -3.4 9 -18.7 l4.8 -14.3 3.8 0 3.9 0 0 15.9 c0 9.7 0.4 16.2 1 16.6 1.6 1 1.8 -0.9 2.4 -25.7 l0.5 -23.8 -4.3 0 c-5.1 0 -4.2 -1.6 -11.7 21.3 l-5.1 15.7 -3.8 0 c-4.3 0 -3.7 1.1 -11.6 -22.3 l-4.9 -14.8 -4.5 0.3 -4.5 0.3 -0.3 23.4 c-0.2 16.8 0.1 23.7 0.9 24.8 2.4 2.8 3.2 -0.8 3.7 -16.2z m66 0.6 l0.3 -16.2 3.6 0.3 3.6 0.3 3.3 10 c1.9 5.5 4.2 12.5 5.2 15.4 2.1 6.3 4.4 8.4 6.5 6.1 1.1 -1.2 7.3 -17.5 11.2 -29.7 0.3 -0.8 2.1 -1.3 4.5 -1.3 l4 0 0 15.4 c0 10.3 0.4 15.7 1.1 16.2 2.4 1.4 2.9 -2.9 2.9 -25.8 l0 -23.8 -4.8 0 -4.8 0 -3.3 10.3 c-1.8 5.6 -4.5 14 -5.9 18.7 -2.7 8.4 -2.8 8.5 -6.2 8.8 -3.5 0.3 -3.5 0.3 -6.2 -7 -1.5 -4 -4.4 -12.6 -6.5 -19 l-3.8 -11.8 -4.2 0 -4.3 0 0 24.3 c0 13.4 0.3 24.7 0.7 25.1 2.2 2.2 2.8 -1.1 3.1 -16.3z m121 -0.9 l0.2 -17.2 4 0 c3.7 0 4.2 0.4 9.7 7.7 9.6 12.8 21.4 26.8 22.9 27.1 2.2 0.5 2.5 -3.1 2.2 -26.8 -0.3 -19.9 -0.5 -22.5 -1.9 -22.8 -1.5 -0.3 -1.8 1.8 -2.4 16.8 l-0.7 17.1 -4.1 -0.3 c-3.9 -0.3 -4.6 -0.9 -10.4 -8.3 -5.5 -7 -11.6 -14.4 -18.9 -23.3 -1.4 -1.7 -2.7 -2.3 -3.7 -1.9 -1.5 0.6 -1.7 3.2 -1.7 24.5 0 13.1 0.3 24.2 0.7 24.6 0.4 0.4 1.4 0.5 2.3 0.4 1.3 -0.3 1.5 -2.9 1.8 -17.6z m59.6 16.2 c0.3 -0.9 0.6 -11.9 0.6 -24.5 0 -19.8 -0.2 -23 -1.5 -23.6 -0.9 -0.3 -1.8 -0.3 -2.1 0 -0.4 0.4 -0.8 42.6 -0.5 48.5 0.1 1.7 2.8 1.5 3.5 -0.4z m34.6 -20.4 c0.3 -11.8 0.9 -22.1 1.3 -22.7 0.5 -0.9 3.3 -1.3 7.8 -1.3 6.3 0 6.9 -0.2 6.9 -2 0 -2 -0.5 -2 -17.7 -1.8 -15 0.3 -17.8 0.5 -17.8 1.8 0 1.1 1.5 1.6 6.5 1.8 8.3 0.4 9.2 1.2 8.9 8.1 -0.2 3.1 -0.2 12.9 -0.1 21.9 0.2 15 0.3 16.3 2 16 1.5 -0.3 1.8 -2.4 2.2 -21.8z m49.2 8.3 l0.3 -13.8 4.8 -7 c2.6 -3.8 6.1 -8.8 7.7 -11 1.5 -2.2 2.6 -4.2 2.3 -4.5 -0.5 -0.5 -2.4 1.6 -9.1 10.4 -3.9 5.1 -4.7 5.6 -8.2 5.6 -4.1 0 -5.8 -1.6 -12.3 -11.7 -1.5 -2.4 -3.4 -4.3 -4.2 -4.3 -2 0 -1.6 0.6 7.5 13 l7 9.5 0 13.8 c0 12.8 0.1 13.7 1.9 13.7 1.8 0 1.9 -1 2.3 -13.7z m-77.1 -59.1 c8.2 -2.3 14.8 -6.8 18.8 -12.8 1.7 -2.6 3.1 -5.1 3.1 -5.6 0 -0.4 -1.3 -0.8 -2.9 -0.8 -2.2 0 -3.5 0.9 -5.6 4 -7.8 11.2 -30.1 11.9 -40.3 1.3 -4.9 -5.2 -6.5 -9.1 -7 -17 -0.8 -12.9 2.6 -20.7 11.6 -26.4 4.3 -2.7 5.2 -2.9 15.2 -2.9 10.1 0 10.9 0.2 15.1 2.9 2.4 1.6 5.2 4.3 6.2 6 1.5 2.5 2.5 3.1 5.3 3.1 l3.5 0 -1.8 -3.1 c-3.7 -6.3 -8.5 -10.9 -14.6 -13.8 -8.4 -4 -13.3 -4.6 -20.4 -2.6 -15.9 4.6 -27.4 18.5 -27.6 33.6 -0.1 6 0.3 7.6 3.8 14.4 3.8 7.6 8.8 13 15 16.3 2.3 1.2 11.7 4.3 15.5 5.1 0.3 0.1 3.5 -0.7 7.1 -1.7z m-330.9 -3.1 c5 -2.4 11.6 -8.6 14.8 -13.8 l2 -3.3 -3.4 0 c-2.8 0 -3.9 0.7 -6.7 4.4 -4.2 5.4 -7.9 7.3 -16.2 8.2 -13.3 1.4 -23.5 -3.3 -28.6 -13.1 -2.3 -4.4 -2.6 -6.1 -2.5 -14.1 0.1 -8 0.4 -9.6 3 -14.4 8.6 -15.9 33.9 -17.5 45.4 -3 2.4 3.1 3.9 4 6.1 4 l3 0 -2.3 -4.1 c-5.3 -9.5 -15.2 -15.8 -26.2 -16.6 -8.9 -0.6 -15.6 1.8 -23.3 8.4 -11.7 9.9 -16.1 23.9 -11.4 36.3 3.9 10.1 11.6 18 21.7 22.1 6.7 2.6 18 2.2 24.6 -1z m77.3 -0.1 c6.2 -3 14.2 -11 17.5 -17.6 2.1 -4.2 2.5 -6.3 2.5 -13.9 0 -10.6 -1.8 -14.7 -9.6 -23.1 -5.9 -6.1 -14.6 -10.4 -22.8 -11.1 -11.3 -1 -24.2 6.7 -31.5 18.8 -3.5 5.6 -4 7.3 -4.4 14.2 -0.4 7.2 -0.2 8.2 2.9 14.5 4.1 8.5 11.6 16 18.9 18.9 7.5 3.1 19.2 2.8 26.5 -0.7z m73.3 2.1 c0.8 -0.5 1.2 -2.1 1 -3.7 l-0.3 -2.9 -15.7 -0.3 c-8.7 -0.1 -15.9 -0.4 -16 -0.5 -0.1 -0.1 -0.5 -13.5 -0.8 -29.7 l-0.5 -29.5 -2.3 -0.3 c-5.1 -0.8 -5.2 -0.4 -5.2 33.7 0 23.3 0.3 32 1.2 32.9 1.4 1.4 36.5 1.7 38.6 0.3z m37.8 -17.7 c3.4 -10 6.3 -18.5 6.6 -19 0.2 -0.5 1 -2.8 1.8 -5.1 1.2 -4 1.6 -4.3 5 -4.3 l3.6 0 7.3 21.8 c4 11.9 7.7 22.5 8.2 23.5 1.1 2 7.1 2.4 8.6 0.5 0.6 -0.7 5.6 -15.2 11.2 -32.2 5.7 -17 10.5 -31.5 10.8 -32.3 0.4 -1.1 -0.2 -1.4 -3.2 -1.1 -4.1 0.3 -3.6 -0.5 -7.9 13.8 -4.6 15 -9.8 30.7 -10.8 32.8 -1 1.9 -1.9 2.2 -4.7 2 -3.5 -0.3 -3.6 -0.5 -5.5 -7.3 -1.1 -3.8 -4.5 -14.6 -7.6 -24 -5.4 -16.4 -5.7 -17 -8.8 -17.9 -4.1 -1.1 -5.6 0.1 -7.5 6.2 -0.8 2.6 -3.6 11.2 -6.1 19.2 -7.7 24 -7.2 23 -11.5 23 l-3.8 0 -2.5 -7.7 c-1.4 -4.3 -3.5 -11.2 -4.8 -15.3 -6.6 -22.1 -7.5 -24.4 -10.6 -25.2 -1.6 -0.4 -3.2 -0.4 -3.5 0 -0.8 0.7 18.7 60.7 21 65 1 1.9 1.9 2.3 4.9 2 l3.7 -0.3 6.1 -18.1z m86.2 -15.2 l0.2 -33.3 -3.7 0.3 -3.8 0.3 -0.3 31.9 c-0.2 34.2 -0.1 35 4.7 34.4 l2.6 -0.3 0.3 -33.3z m103.2 18.8 l0.5 -14.5 18 0 18 0 0.5 14.5 0.5 14.5 3.5 0 3.5 0 0.3 -32.7 0.2 -32.8 -2.5 -0.6 c-5.2 -1.3 -5.5 -0.6 -5.5 14.6 l0 14 -18.5 0 -18.4 0 -0.3 -14.2 -0.3 -14.3 -3.5 0 -3.5 0 -0.3 32 c-0.1 17.6 0 32.6 0.3 33.3 0.3 0.8 1.7 1.2 3.7 1 l3.3 -0.3 0.5 -14.5z m-52.6 -103.2 c0.4 -12.3 0.6 -50.9 0.4 -85.8 l-0.3 -63.5 -25.9 -0.3 c-29.7 -0.3 -32.4 0.2 -40 7 -2.6 2.2 -5.6 6.1 -6.9 8.7 l-2.2 4.6 -0.3 74.5 c-0.1 40.9 0 75 0.2 75.7 0.4 1 8.5 1.3 37.5 1.3 l36.9 0 0.6 -22.2z m96.7 10.2 c0.4 -5.8 0.7 -52.4 0.8 -103.6 0.1 -84.8 0 -93.2 -1.5 -93.8 -0.8 -0.3 -12.4 -0.6 -25.7 -0.6 -19.3 0 -25.1 0.3 -28.7 1.6 -10.1 3.5 -17.5 12.1 -19.3 22.4 -0.9 5 -1.2 182.5 -0.3 183.9 0.5 0.8 10.3 1.1 37.4 0.9 l36.7 -0.3 0.6 -10.5z m-294.7 9.4 c1.4 -0.6 1.6 -12.7 1.6 -127 l0 -126.4 -26.8 0 -26.8 0 -5.2 2.6 c-2.8 1.4 -6.9 4.6 -9.1 7 -7.5 8.6 -7.1 0.8 -7.1 128.7 0 62.9 0.3 114.7 0.7 115 0.8 0.9 70.6 0.9 72.7 0.1z m99.6 -103.4 l0 -104.1 -26.7 0.3 -26.8 0.3 -5.6 2.7 c-6.6 3.3 -11.4 8.8 -14 16.3 -1.8 5.2 -1.9 9.6 -1.9 97 l0 91.5 37.5 0 37.5 0 0 -104z m-196.2 17.3 l-0.3 -85.8 -25 -0.3 c-27 -0.3 -29.9 0.1 -37 4.9 -5.5 3.7 -8 6.6 -10.7 12.4 l-2.3 5 -0.3 73.4 c-0.1 40.4 0 74.1 0.2 74.8 0.4 1 8.2 1.3 38.1 1.3 l37.5 0 -0.2 -85.7z"/>
  <path d="M92.6 509 c-6.3 -4 -8.5 -9 -8.6 -18.9 0 -10.1 2.2 -14.6 9 -18.4 4.8 -2.7 5.8 -2.9 14 -2.5 10.1 0.3 12.4 1.5 17.5 8.7 2.8 3.9 3 4.9 3 12.6 0 7.7 -0.3 8.7 -3.1 12.7 -4.6 6.6 -9.3 8.8 -19 8.8 -7.2 0 -8.5 -0.3 -12.8 -3z"/>
  <path d="M419.9 512.3 c-3.6 -0.6 -10.8 -6.9 -12.5 -11 -0.8 -1.8 -1.4 -6.5 -1.4 -10.5 0 -9.1 2.5 -13.9 9.5 -18.6 4.8 -3.2 5.4 -3.4 12.7 -3 6.6 0.3 8.2 0.7 12 3.3 6.4 4.6 8.8 9.5 8.8 18.1 0 8.5 -1.7 13 -6.4 17.2 -5.3 4.6 -12.6 6.1 -22.7 4.5z"/>
  <path d="M253 490.6 l0 -20.6 8.7 0 c9.7 0 14.8 1.8 19.7 6.9 2.6 2.7 2.9 3.8 3.3 11.8 0.5 10.3 -0.8 13.7 -7 18.7 -3.6 2.9 -4.4 3.1 -14.3 3.4 l-10.4 0.4 0 -20.6z"/>
  <path d="M307 497.2 c0 -2.6 1 -7.5 2.3 -10.7 2.2 -5.6 2.5 -6 5.9 -6.3 l3.5 -0.3 2.7 7.1 c1.4 3.9 2.6 8.9 2.6 11.1 l0 3.9 -8.5 0 -8.5 0 0 -4.8z"/>
  <path d="M107.5 435.7 c-2.6 -1.5 -5 -4 -6.8 -7.2 -2.6 -4.6 -2.7 -5.7 -2.4 -13.7 0.3 -8 0.6 -9.1 3.3 -12.5 3.8 -4.7 8.8 -7.3 15.6 -8 7.4 -0.7 13.2 1.1 18.3 5.8 5.4 5 6.8 9 6.3 18.4 -0.3 6.3 -0.8 8 -3.4 11.6 -4.6 6.3 -8.2 7.9 -18.4 7.9 -7 0 -9.2 -0.4 -12.5 -2.3z"/>
  <path d="M138 361.1 c-11.7 -3.8 -17.1 -11.5 -17.8 -25.2 -0.4 -7.9 -0.2 -8.9 2.6 -14.5 5.9 -11.7 20.6 -17.2 33.8 -12.7 7.1 2.4 11.5 5.6 14.9 11 2.8 4.5 3 5.4 3 14.8 0 10.8 -1.1 14.1 -6.4 19.8 -4.6 5.1 -9.7 7 -19.1 7.4 -4.7 0.1 -9.6 -0.1 -11 -0.6z"/>
  <path d="M362.2 267.5 c-8.8 -2.9 -16 -10.3 -18.3 -19 -1.6 -5.7 -0.7 -19.2 1.6 -23.9 2.5 -5.2 7.3 -9.8 13.1 -12.7 3.9 -1.8 6.6 -2.3 13.4 -2.4 11 0 16.6 2.1 22 8.2 3.5 4 4 5.2 4 9.4 l0 4.9 -6 0 c-5.2 0 -6.1 -0.3 -7.6 -2.5 -2.3 -3.5 -7.5 -6.5 -11.3 -6.5 -9.5 0 -18.5 10.2 -16.5 18.6 1.5 6.4 9.7 13.4 15.6 13.4 3.3 0 9.5 -3.3 11.9 -6.4 1.8 -2.3 2.8 -2.6 8 -2.6 l5.9 0 0 4.4 c0 5.8 -4.5 11.9 -11.5 15.5 -6 3.1 -17.4 3.9 -24.3 1.6z"/>
  <path d="M447 239.7 l0 -28.4 3.1 -0.7 c5.2 -1 36.9 -0.7 39 0.4 1.5 0.8 1.9 2.1 1.9 5.8 0 2.6 -0.4 5.2 -0.8 5.9 -0.5 0.9 -5.2 1.3 -15.2 1.5 l-14.5 0.3 0 3.5 0 3.5 10.5 0.5 10.5 0.5 0.3 6.2 0.3 6.2 -4.3 0.5 c-2.4 0.4 -7.2 0.7 -10.8 0.9 l-6.5 0.2 -0.5 10.5 -0.5 10.5 -6.2 0.3 -6.3 0.3 0 -28.4z"/>
  <path d="M259.4 266 c-11.2 -5.6 -16.2 -15.7 -15.1 -30.5 0.6 -8.4 2.3 -12.8 6.7 -17.9 4.5 -5.1 10 -7.7 18.8 -8.8 13.1 -1.6 21.3 1.3 27.9 10 2.6 3.4 3.3 5.3 3.3 8.8 l0 4.4 -6.8 0 c-6.4 0 -7 -0.2 -9 -3 -2.4 -3.1 -7.9 -6 -11.6 -6 -1.2 0 -4.4 1.4 -7 3 -5.6 3.6 -9.2 10.2 -8.1 15.1 0.8 3.6 5.7 9.4 9.6 11.5 5.8 3 13.7 0.7 17.5 -5.1 1.5 -2.3 2.2 -2.5 8.5 -2.5 l6.9 0 0 4.9 c0 4.6 -0.3 5.2 -5.8 10.9 -6.7 7 -9.9 8.2 -21.8 8.2 -7 0 -8.9 -0.4 -14 -3z"/>
 </g>
 <g fill="#ffffff">
  <path d="M422.5 519 c-9.8 -2 -15.9 -6.5 -20 -14.6 -2.6 -5.1 -3 -7 -2.9 -13.9 0 -9.2 1.8 -13.7 8.1 -19.7 17.9 -17.3 48.3 -4.7 48.3 20 0 17.4 -16.9 31.6 -33.5 28.2z m9.8 -10.1 c7.9 -2.2 13.7 -10 13.7 -18.3 -0.1 -8.7 -8.4 -17.5 -17.7 -18.3 -4.2 -0.4 -5.4 -0.1 -9.8 2.9 -8.4 5.6 -11.6 14.7 -8.1 23.1 1.7 4.1 8.9 10.4 12.5 11 4.7 0.7 5.6 0.7 9.4 -0.4z"/>
  <path d="M96.1 517 c-6.8 -2.5 -9.3 -4.1 -12.5 -8.2 -9.5 -12.5 -8.8 -27.3 1.8 -38.1 5.2 -5.3 10.3 -7.8 17.7 -8.4 11 -1 20.1 3.5 26.7 13.4 3.5 5.4 3.7 6 3.7 14.2 0 7.4 -0.4 9.3 -2.7 13.7 -3.3 6.3 -8.2 10.5 -15.5 13.3 -6.8 2.6 -12.2 2.6 -19.2 0.1z m18.4 -10.3 c9.7 -5.5 12.9 -17.4 7 -25.8 -4.5 -6.3 -7.6 -8.2 -14.4 -8.7 -15 -1.1 -24.4 12.7 -18.1 26.5 4.1 9.2 16.5 13.1 25.5 8z"/>
  <path d="M156.5 518.6 c-0.5 -0.2 -2.2 -0.7 -3.7 -1 -3.4 -0.8 -9.4 -5.9 -11.4 -9.8 -1.8 -3.4 -2.8 -28.2 -1.6 -38.3 0.7 -5.9 0.7 -6 4.1 -6.3 1.8 -0.2 3.8 0.1 4.4 0.7 0.7 0.7 1.2 7.7 1.3 19.4 0 10 0.4 19.2 0.8 20.4 0.9 3 5.9 5.3 11.3 5.3 10.1 0 11.3 -2.7 11.3 -25.7 0 -9.8 0.4 -18.4 0.9 -19.2 0.6 -0.9 2 -1.1 5 -0.6 l4.1 0.7 0 19.8 c0 24.6 -1 27.5 -10.9 32.5 -3.2 1.6 -13.4 3 -15.6 2.1z"/>
  <path d="M385.2 518.1 c-0.9 -0.6 -1.2 -7.2 -1 -27.2 l0.3 -26.4 3.3 -0.3 c6.2 -0.6 6.2 -0.5 6.2 26.7 0 13.5 -0.4 25.1 -0.8 25.7 -0.9 1.4 -6.5 2.5 -8 1.5z"/>
  <path d="M462.1 518.1 c-1.1 -0.7 -1.4 -5.5 -1.2 -26.8 0.1 -14.2 0.6 -26.2 1 -26.6 0.5 -0.5 2.6 -0.7 4.7 -0.5 4.1 0.3 3.9 0.1 23.7 25.2 3.7 4.7 7.2 8.6 7.7 8.6 1.3 0 1.2 0.4 1.4 -18 l0.1 -15.5 3.9 -0.3 c2.1 -0.2 4.2 0 4.7 0.5 0.5 0.5 0.9 12.5 1 26.7 0.1 27.9 0.1 27.6 -5.2 27.6 -2.5 0 -7.2 -4.6 -13.3 -12.9 -5.1 -6.9 -17.9 -22.1 -18.7 -22.1 -0.5 0 -0.9 7.2 -0.9 15.9 0 8.8 -0.3 16.6 -0.6 17.5 -0.7 1.8 -5.9 2.2 -8.3 0.7z"/>
  <path d="M36.5 516.7 c-0.3 -0.7 -0.4 -12.9 -0.3 -27.2 l0.3 -26 20 0 20 0 0.3 4.3 0.3 4.2 -15 0 c-17.2 0 -17.6 0.2 -16.3 8.1 l0.8 4.4 10.7 0.3 10.8 0.3 -0.3 4.7 -0.3 4.7 -10.5 0.5 -10.5 0.5 -0.3 9.9 c-0.1 5.5 -0.8 10.6 -1.4 11.3 -1.4 1.7 -7.7 1.7 -8.3 0z"/>
  <path d="M189.7 517.3 c-0.4 -0.3 -0.7 -12.3 -0.7 -26.5 l0 -25.8 2.7 -1.1 c4.4 -1.7 7 -0.3 12.5 7 2.9 3.8 9.1 11.7 13.8 17.7 l8.5 10.9 0.6 -17.5 c0.3 -9.6 0.6 -17.6 0.7 -17.8 0.1 -0.2 2.1 -0.2 4.5 0 l4.2 0.3 0 26.5 0 26.5 -3.6 0.3 c-3.3 0.3 -4.1 -0.2 -7.7 -4.5 -6.4 -7.6 -11.8 -14.2 -17.7 -22 -3 -3.9 -5.9 -7.5 -6.5 -7.8 -0.7 -0.4 -1 5 -1 15.7 0 11.4 -0.4 16.8 -1.2 17.6 -1.3 1.3 -8 1.7 -9.1 0.5z"/>
  <path d="M246.7 517.3 c-0.4 -0.3 -0.7 -12.5 -0.7 -27 l0 -26.3 5 -0.1 c2.8 -0.1 7.4 -0.3 10.3 -0.4 2.8 -0.1 7.7 0.4 10.7 1.3 12.6 3.5 18.8 11.3 19.4 24.4 0.7 14.2 -6 23.8 -19 27.6 -4.3 1.3 -24.6 1.7 -25.7 0.5z m28.1 -13 c5.7 -4.5 7.4 -8.6 6.8 -15.8 -0.5 -4.6 -1.2 -6.5 -3.3 -8.7 -4.2 -4.4 -10.1 -6.8 -16.6 -6.8 l-5.7 0 0 17.6 0 17.7 7.5 -0.5 c6.5 -0.4 8.1 -0.9 11.3 -3.5z"/>
  <path d="M292 516.2 c0 -1 1.5 -6.1 3.4 -11.3 1.9 -5.2 4.6 -12.8 6.1 -16.9 1.5 -4.1 3.1 -8.4 3.6 -9.5 0.4 -1.1 1.7 -4.7 2.7 -8 l1.9 -6 5.4 0 5.4 0 3.5 10 c2 5.5 5.3 15 7.4 21 2.1 6.1 4.5 12.4 5.2 14.1 0.8 1.8 1.5 4.2 1.6 5.5 0.3 2.2 -0.1 2.4 -4.5 2.7 -4.7 0.3 -4.8 0.3 -6.5 -3.7 l-1.7 -4 -9 -0.3 c-4.9 -0.2 -9.6 -0.1 -10.3 0.2 -0.7 0.4 -2 2.2 -3 4.1 -1.5 3.1 -2.2 3.4 -6.4 3.7 -4.1 0.3 -4.8 0 -4.8 -1.6z m29 -18.1 c0 -2.4 -5.4 -15.1 -6.1 -14.4 -1.1 1.2 -4.9 11.5 -4.9 13.6 0 1.4 0.9 1.7 5.5 1.7 3 0 5.5 -0.4 5.5 -0.9z"/>
  <path d="M352.5 516.8 c-0.3 -0.7 -0.6 -10.7 -0.7 -22.3 l-0.3 -21 -7 -0.5 -7 -0.5 -0.3 -4.3 -0.3 -4.2 20.3 0.2 20.3 0.3 0 4 0 4 -6.7 0.3 c-3.8 0.2 -7.1 0.8 -7.7 1.6 -0.7 0.8 -1.2 9.2 -1.3 22.2 l-0.3 20.9 -4.3 0.3 c-2.8 0.2 -4.4 -0.1 -4.7 -1z"/>
  <path d="M54.5 445.1 c-5 -1.3 -12.9 -6.8 -16.2 -11.4 -8.5 -11.8 -8 -25.9 1.3 -37.2 5 -6.1 11.2 -8.9 21 -9.3 8.7 -0.4 12.8 0.9 19.1 6.2 3.4 2.9 8.8 12.2 7.4 13 -0.5 0.3 -2.8 0.6 -5.2 0.7 -4 0.1 -4.9 -0.3 -9.2 -4.5 -4.6 -4.4 -4.9 -4.6 -10.8 -4.6 -6.8 0 -10 1.3 -14.8 6.4 -2.9 3 -3.5 4.5 -3.9 9.2 -0.3 3.2 0.1 7.2 0.8 9.5 2.3 6.9 10 11.9 18.4 11.9 4.4 0 10.9 -3.5 12.9 -7 1.8 -3 2.7 -3.4 8.2 -3 4.4 0.3 4.9 1.3 2.7 5.6 -6 11.6 -19 17.6 -31.7 14.5z"/>
  <path d="M301 445.1 c-5.6 -1.7 -9.1 -4.3 -11.6 -8.7 -2.7 -4.6 -2.7 -4.6 -2.8 -25.7 l0 -21.2 4.9 0 5 0 0.5 20 c0.6 22.6 1 24 7.7 25.5 5.4 1.3 10.8 0.2 13.5 -2.7 2.2 -2.4 2.3 -3.3 2.8 -22.6 l0.5 -20.2 4.5 0 4.5 0 0.6 4.5 c0.3 2.5 0.5 11.8 0.3 20.7 -0.3 17.4 -1.3 21.1 -6.6 26 -5 4.7 -16.1 6.7 -23.8 4.4z"/>
  <path d="M107.5 442.6 c-5.3 -2.4 -11.2 -8.2 -14.1 -13.8 -1 -1.9 -1.9 -6.5 -2.2 -10.9 -0.4 -6.7 -0.1 -8.4 2 -13.1 6.7 -14.5 22.4 -21.2 37.2 -15.9 16.8 5.9 24.5 27.2 15.3 41.8 -3.1 4.9 -10 11.1 -14.3 12.9 -5.5 2.3 -18 1.8 -23.9 -1z m21.4 -9.4 c7.6 -4.1 11.8 -14.5 9.2 -22.5 -1.6 -4.7 -8.9 -11.3 -14.1 -12.7 -8.9 -2.4 -20.6 4.5 -22.4 13.2 -1.7 8.7 2 17.6 8.9 21.5 5.1 2.9 13.5 3.1 18.4 0.5z"/>
  <path d="M155.1 443.6 c-0.8 -0.9 -1.1 -9.1 -0.9 -27.7 l0.3 -26.3 3 -0.8 c1.7 -0.4 5 -0.5 7.5 -0.2 l4.6 0.6 4.9 14.7 c6.1 18.2 7.6 22.1 8.5 22.1 0.4 0 3.1 -7.1 5.9 -15.7 7.7 -23.7 6.1 -21.3 14.6 -21.3 l7.3 0 -0.3 27.1 c-0.2 15.6 -0.7 27.5 -1.3 28.1 -0.5 0.5 -2.5 0.8 -4.3 0.6 l-3.4 -0.3 -0.3 -16.2 c-0.1 -9 -0.6 -16.3 -1.1 -16.3 -0.5 0 -3 6.4 -5.6 14.3 -6.1 18.3 -6.4 18.7 -12 18.7 -5.3 0 -4.9 0.7 -11 -17.6 -2.6 -7.6 -5.1 -14.3 -5.6 -14.9 -0.7 -0.7 -1.6 21.4 -1 26.1 0.1 0.7 -0.3 2.4 -0.9 3.8 -0.8 2.1 -1.6 2.6 -4.4 2.6 -1.8 0 -3.9 -0.6 -4.5 -1.4z"/>
  <path d="M221.7 444.4 c-0.4 -0.4 -0.7 -13.3 -0.7 -28.7 l0 -28 4.6 0.7 c2.6 0.3 5.9 0.6 7.3 0.6 2.5 0 2.8 0.7 7.1 13.8 2.4 7.5 5.4 16.2 6.6 19.2 l2.2 5.4 1.4 -3.4 c0.8 -1.9 2.2 -6.2 3.2 -9.5 0.9 -3.3 3.2 -10.4 4.9 -15.7 l3.1 -9.8 7.8 0 7.8 0 0 26.8 c0 14.7 -0.4 27.3 -0.9 28 -0.5 0.8 -2.3 1.2 -4.7 1 l-3.9 -0.3 -0.3 -15.7 c-0.1 -9.8 -0.6 -15.8 -1.3 -15.8 -0.5 0 -1.1 0.6 -1.4 1.3 -3 9.3 -10 28.5 -10.8 29.5 -0.5 0.6 -2.9 1.2 -5.2 1.2 -4.9 0 -5.6 -0.7 -7.8 -7.5 -4.2 -12.5 -7.8 -23.1 -8.5 -24.5 -0.4 -0.8 -0.9 5.9 -1.2 15 l-0.5 16.5 -4 0.3 c-2.3 0.2 -4.4 0 -4.8 -0.4z"/>
  <path d="M341.5 443.8 c-0.3 -0.7 -0.4 -13.2 -0.3 -27.8 l0.3 -26.5 4.6 -0.3 c5.2 -0.3 4.7 -0.8 21.7 21.2 7 9 10.9 13.2 11.6 12.5 0.4 -0.3 1.2 -17.5 1.6 -33.2 0 -0.4 2.1 -0.7 4.8 -0.5 l4.7 0.3 0.3 25.5 c0.1 14 0 26.5 -0.3 27.8 -0.5 1.8 -1.2 2.2 -4.8 2.2 -4.1 0 -4.4 -0.3 -11.8 -9.3 -4.1 -5 -10.4 -12.9 -13.8 -17.4 -3.4 -4.6 -6.7 -8.3 -7.2 -8.3 -0.4 0 -1 7.8 -1.1 17.3 l-0.3 17.2 -4.8 0.3 c-3.2 0.2 -4.9 -0.1 -5.2 -1z"/>
  <path d="M401.8 443.8 c-0.2 -0.7 -0.4 -13.2 -0.3 -27.8 l0 -26.5 5 0 5 0 0.3 25.5 c0.1 14 0 26.5 -0.3 27.8 -0.5 1.9 -1.2 2.2 -4.9 2.2 -2.6 0 -4.5 -0.5 -4.8 -1.2z"/>
  <path d="M435.9 439.3 c-0.4 -29.4 -0.7 -38.5 -1.5 -39.3 -0.5 -0.5 -3.8 -1 -7.4 -1.2 l-6.5 -0.3 0 -4.5 0 -4.5 20.8 -0.3 20.7 -0.2 0 5 0 5 -6.9 0 c-4.5 0 -7.3 0.4 -7.8 1.3 -0.4 0.6 -1 10.9 -1.3 22.7 l-0.5 21.5 -4.7 0.3 -4.8 0.3 -0.1 -5.8z"/>
  <path d="M485 431.3 l0 -13.8 -6.2 -8.5 c-9.4 -13 -12.8 -18.2 -12.2 -19.2 0.3 -0.4 3 -0.8 5.9 -0.8 l5.5 0 4.5 6.9 c5 7.6 6.9 9.6 8.4 8.7 0.5 -0.3 3.5 -4 6.6 -8.1 l5.6 -7.5 4.9 0 c7.5 0 7.5 0.6 0.1 10.5 -1.7 2.2 -5.2 7.2 -7.8 11 l-4.8 7 -0.2 11.5 c-0.2 6.3 -0.3 12.5 -0.3 13.8 0 2 -0.5 2.2 -5 2.2 l-5 0 0 -13.7z"/>
  <path d="M398.5 372.1 c-12.1 -3.5 -18.5 -8.7 -24.1 -19.7 -3.8 -7.4 -3.9 -8.1 -3.8 -17.3 0.1 -8.4 0.4 -10.3 2.9 -15.4 5.5 -11.1 13.6 -18 24.9 -21.2 10.7 -3.1 23.5 -0.7 32.3 6.1 4.2 3.2 10 11.8 10.9 16.2 l0.7 3.2 -7.1 0 c-6.8 0 -7.1 -0.1 -8.9 -3.1 -1 -1.7 -3.8 -4.4 -6.2 -6 -3.9 -2.6 -5.3 -2.9 -12.1 -2.9 -6.7 0 -8.2 0.4 -12.2 2.9 -12 7.6 -15.3 22.3 -7.5 33.8 8.9 13.1 28.9 14.3 37.2 2.3 3.3 -4.7 3.6 -4.8 10.8 -4.2 6.5 0.5 6.8 1.1 3.6 7.5 -5.1 9.9 -11.9 15.4 -22.5 18.1 -7.6 2 -11.1 1.9 -18.9 -0.3z"/>
  <path d="M140.5 372 c-20 -3 -33.8 -22.7 -30.5 -43.5 2 -12.7 12.1 -24.8 24.7 -29.5 4.8 -1.8 7.3 -2.1 14.3 -1.8 11.1 0.6 19 4 25.9 11.2 7.6 8.2 9.4 12.4 9.9 23.9 0.5 11.7 -0.6 16.2 -5.7 23.7 -8.6 12.5 -22.6 18.3 -38.6 16z m18.1 -15.8 c8.5 -4.4 12.8 -11.6 12.9 -21.7 0 -6.1 -0.4 -7.6 -3 -11.8 -3.4 -5.4 -7.8 -8.7 -15.1 -11.1 -4.4 -1.4 -5.9 -1.5 -10 -0.5 -8.3 2 -14.1 6.3 -17.6 13.2 -2.6 5.3 -3 6.9 -2.5 11.7 1 10.9 7.2 18.7 17.7 22.1 4 1.3 13.3 0.3 17.6 -1.9z"/>
  <path d="M56.6 370 c-10.1 -4 -17.8 -11.9 -21.7 -22 -2.2 -5.9 -2.6 -19.5 -0.6 -25 3.6 -10.4 12.8 -20.1 22.7 -24 7.5 -3 23.2 -2.5 29.8 0.9 8.6 4.4 18.2 15.9 18.2 21.9 0 2.1 -0.4 2.2 -6.4 2.2 -6.3 0 -6.5 -0.1 -9.6 -4 -3.5 -4.5 -9.7 -8.4 -14.8 -9.5 -4.4 -0.9 -12.1 1 -17.4 4.4 -9.5 6 -13 20.3 -7.6 30.7 7.8 15 29 17.6 38.7 4.8 l3.3 -4.4 6.4 0 c7.8 0 8.5 1 5.3 7.4 -2.9 5.9 -9.9 12.9 -15.8 15.8 -6.6 3.2 -23.4 3.7 -30.5 0.8z"/>
  <path d="M193.2 370.8 c-1.9 -1.9 -1.7 -70.1 0.2 -71.7 0.8 -0.7 3.7 -1.1 6.8 -0.9 l5.3 0.3 0.5 29.5 c0.3 16.2 0.7 29.6 0.8 29.7 0.1 0.1 7.3 0.4 16 0.5 l15.7 0.3 0.3 5.9 c0.2 4.1 -0.1 6.2 -1 6.7 -2.2 1.4 -43.2 1.1 -44.6 -0.3z"/>
  <path d="M254.7 369.3 c-1.8 -3.5 -22.7 -67 -22.7 -68.9 0 -2 4.6 -2.8 9.8 -1.8 l4.5 0.9 2.7 8.5 c1.5 4.7 3.8 11.9 5 16 4.3 14.4 7.3 23 8.1 23 1 0 3.3 -6.4 11.4 -32 2.5 -7.9 5.1 -15 5.7 -15.7 0.6 -0.7 3 -1.3 5.4 -1.3 8.5 0 8.3 -0.4 15.7 22.6 3.6 11.5 6.9 22.1 7.3 23.7 1.5 6.4 2.6 4.4 8.5 -13.8 6.1 -19.2 6.5 -20.6 8 -25.8 0.8 -2.7 2.1 -5.2 2.9 -5.6 0.8 -0.4 4.1 -0.5 7.3 -0.3 4.2 0.3 5.7 0.8 5.7 1.9 0 2 -22.1 68.5 -23.3 70.1 -0.6 0.7 -3.4 1.2 -7.3 1.2 -5 0 -6.5 -0.4 -7.3 -1.7 -0.5 -1 -4.2 -11.6 -8.2 -23.5 -4 -12 -7.6 -21.8 -7.9 -21.8 -0.4 0 -1.3 1.9 -2 4.3 -0.8 2.3 -1.6 4.6 -1.8 5.1 -0.3 0.5 -3.2 9 -6.6 19 l-6.1 18.1 -6.7 0.3 c-6.5 0.3 -6.8 0.2 -8.1 -2.5z"/>
  <path d="M349.1 370.7 c-0.8 -1.1 -1.1 -10.8 -0.9 -36.3 l0.3 -34.9 6.8 -0.3 6.7 -0.3 -0.2 36.3 -0.3 36.3 -5.6 0.3 c-3.9 0.2 -5.9 -0.1 -6.8 -1.1z"/>
  <path d="M451.5 370.8 c-0.3 -0.7 -0.4 -17.1 -0.3 -36.3 l0.3 -35 6.5 0 6.5 0 0.3 14.3 0.3 14.2 15.4 0 15.4 0 0.3 -14.2 0.3 -14.3 4.4 -0.3 c2.5 -0.2 5.5 -0.1 6.8 0.3 l2.3 0.5 -0.2 35.8 -0.3 35.7 -6.5 0 -6.5 0 -0.5 -14.5 -0.5 -14.5 -15 0 -15 0 -0.5 14.5 -0.5 14.5 -6.3 0.3 c-4.4 0.2 -6.4 -0.1 -6.7 -1z"/>
  <path d="M331.6 275.1 c-0.8 -1.3 -0.8 -153.3 0 -155.6 2.4 -6.8 4.9 -10.8 9 -14.3 7.8 -6.9 10 -7.3 43 -7 l28.9 0.3 0.2 87 c0 47.9 -0.1 87.8 -0.4 88.8 -0.4 1.6 -3.2 1.7 -40.3 1.7 -21.9 0 -40.1 -0.4 -40.4 -0.9z m52.1 -12.3 c4.8 -2.5 11.3 -9.6 11.3 -12.4 0 -2.8 -5.4 -1.6 -8.8 2 -3.1 3.3 -10.4 6.6 -14.6 6.6 -3.8 0 -12.3 -4.7 -15 -8.3 -5.1 -6.7 -4.5 -18.8 1.3 -25.1 3.6 -4 8 -5.6 15.2 -5.6 6.8 0 11.4 2.1 14.3 6.5 2.1 3.1 7.6 3.6 7.6 0.6 0 -2.9 -7.5 -10.7 -12.2 -12.6 -12.7 -5.1 -28.5 0.8 -34.2 12.9 -10.5 22.2 13.5 46.6 35.1 35.4z"/>
  <path d="M428.3 273.8 c-0.9 -1.5 -0.5 -184.5 0.4 -189.8 1.7 -10.2 9.2 -18.9 19.3 -22.4 3.6 -1.3 9.6 -1.6 31.7 -1.6 14.9 0 27.9 0.3 28.8 0.6 1.5 0.6 1.6 9.3 1.4 104.6 -0.1 57.2 -0.5 105.2 -0.8 106.7 l-0.7 2.6 -39.7 0.3 c-31 0.2 -39.7 -0.1 -40.4 -1z m28.5 -19.3 c0.1 -5.5 0.7 -10.4 1.1 -10.8 0.5 -0.5 3.8 -0.9 7.3 -0.8 3.4 0 8 -0.2 10.1 -0.5 3.6 -0.6 3.8 -0.8 3.5 -3.7 l-0.3 -3.2 -10.5 -0.5 -10.5 -0.5 0 -6.5 0 -6.5 14.7 -0.3 14.8 -0.3 0.6 -2.6 c1.2 -4.6 -1.2 -5.3 -17.2 -5.3 -7.8 0 -15.6 0.3 -17.3 0.6 l-3.1 0.7 0 25.4 0 25.4 3.3 -0.3 3.2 -0.3 0.3 -10z"/>
  <path d="M76 273 l-39.5 -0.5 0 -77.5 0 -77.5 2.3 -5 c3.6 -7.7 9.7 -13.3 18.2 -16.2 5 -1.8 59.4 -1.8 60.6 0 0.5 0.6 0.8 40.1 0.6 88.8 -0.2 68.5 -0.5 87.8 -1.5 88 -0.6 0.2 -19 0.2 -40.7 -0.1z"/>
  <path d="M135.7 273.3 c-0.4 -0.3 -0.7 -53.5 -0.7 -118 0 -131.2 -0.4 -123.1 7.1 -131.7 2.2 -2.4 6.3 -5.6 9.1 -7 l5.2 -2.6 29.8 0 29.8 0 0 129.4 c0 117.1 -0.2 129.4 -1.6 130 -2.1 0.8 -77.9 0.8 -78.7 -0.1z"/>
  <path d="M233 179.5 c0 -90.4 0.1 -94.8 1.9 -100 2.6 -7.5 7.4 -13 14 -16.3 l5.6 -2.7 29.8 -0.3 29.7 -0.3 0 107.1 0 107 -40.5 0 -40.5 0 0 -94.5z m49.5 85.4 c2.7 -0.8 5.7 -3 9.7 -7.1 7 -7.3 7.5 -9.8 1.9 -9.8 -3 0 -4.2 0.5 -5.5 2.5 -2.9 4.5 -7.4 6.5 -14.4 6.5 -6.9 0 -10.3 -1.3 -14.4 -5.7 -10.9 -11.5 -2.3 -31.3 13.8 -31.3 6.5 0 11.7 2.1 14.6 6 1.7 2.4 2.9 3 6 3 4.6 0 4.8 -1.3 0.9 -6.6 -5.8 -7.9 -11.2 -10.7 -20.9 -10.5 -14.3 0.2 -24.6 9.2 -26.7 23.3 -2.9 19.3 15.7 35 35 29.7z"/>
  <path d="M224.8 105.5 c-1 -1 0.4 -5.5 1.8 -5.5 1.8 0 2.6 1.7 1.9 4 -0.6 1.9 -2.5 2.6 -3.7 1.5z"/>
 </g>
</svg>