<?xml version="1.0" encoding="utf-8"?>
<!DOCTYPE svg PUBLIC "-//W3C//DTD SVG 20010904//EN" "http://www.w3.org/TR/2001/REC-SVG-20010904/DTD/svg10.dtd">
<svg version="1.0" xmlns="http://www.w3.org/2000/svg" width="553px" height="382px" viewBox="0 0 553 382" preserveAspectRatio="xMidYMid meet">
 <g fill="#fefefb">
  <path d="M0 298 c0 -81.2 0 -83 1.9 -83 1.7 0 2 0.9 2.4 7.8 0.8 14.4 4.8 24.9 11 29.6 3.5 2.5 13.6 2.8 18.3 0.4 1.6 -0.8 6.9 -3.4 11.9 -5.9 4.9 -2.4 12.4 -6.7 16.5 -9.4 l7.6 -5.1 -5.8 0.4 -5.8 0.4 0 -4.1 0 -4.1 -4 0 -4 0 0 -5.8 c0 -5.8 0.1 -5.9 4.9 -10 4.6 -3.9 5.4 -4.2 11 -4.2 l6.1 0 0 3.6 0 3.6 5.5 -3.1 c3.9 -2.2 6.8 -3.1 10 -3.1 l4.5 0 0 5 c0 4.7 -0.2 5.2 -4 7.8 -6.1 4.1 -17.1 12.5 -16.8 12.7 0.2 0.1 3.9 -0.2 8.3 -0.8 5.3 -0.7 8.8 -0.7 10.6 0 2.5 1 2.7 0.8 3.3 -1.8 0.5 -2.5 1 -2.9 4.1 -2.9 4.7 0 5.5 2.2 5.5 16.1 l0 10.9 -4.1 0 c-3 0 -4.8 0.6 -6.3 2.3 -1.2 1.2 -3.1 2.7 -4.2 3.4 -1.6 1 -0.7 1.2 5.5 1.2 5.5 0.1 7.9 -0.3 9.2 -1.5 2.3 -2 13.6 -3 17.8 -1.6 l3.1 1.1 0 -6.2 c0 -6 0.1 -6.3 4.7 -10.9 l4.7 -4.8 -4.6 0 c-2.8 0 -5.3 -0.6 -6.1 -1.5 -1.7 -1.6 -3.1 -14.6 -2.5 -23.5 l0.3 -5.5 5.9 -0.3 c4.9 -0.3 6.2 0 8.2 1.9 1.3 1.2 2.6 3.4 2.9 5 0.6 2.5 0.9 2.7 3.1 1.8 4.5 -1.6 7.5 -1 19.8 4.2 15.9 6.6 15.1 6.1 15.4 10 l0.3 3.4 36.7 -0.6 c44.6 -0.7 41.7 -1.5 40.9 11.1 -0.7 11.3 -1.1 12 -5.7 12 -3.1 0 -4.2 -0.6 -6.4 -3.4 -2.9 -3.9 -13.6 -9.5 -19.4 -10.3 -6.3 -0.8 -16.9 3.5 -22.1 9.1 -3.4 3.6 -8 3.5 -12.1 -0.3 -6.1 -5.5 -13.7 -8.5 -22.8 -8.9 -8.4 -0.4 -9.8 -0.1 -19 4.6 -4.8 2.5 -11.1 9.4 -12.7 13.8 -1 3 -1.9 4 -3.9 4.2 -2.8 0.4 -3.1 0.9 -1.8 3 0.7 1 1.5 1 3.6 0.2 1.5 -0.5 4 -1 5.6 -1 2.3 0 3 0.5 3.5 2.9 1.1 5.3 6.3 12 11.9 15.6 3 1.9 6.2 3.5 7.1 3.5 1.1 0 1.5 1 1.5 3.5 0 2.4 -0.5 3.5 -1.5 3.5 -0.8 0 -1.5 0.3 -1.5 0.8 0 0.4 -34 0.6 -75.5 0.4 -73 -0.3 -75.5 -0.3 -75.5 1.5 0 1.1 0.5 2.4 1.2 3.1 0.9 0.9 62.8 1.2 272.5 1.2 l271.3 0 -0.2 35.5 -0.3 35.6 -270.3 -0.1 c-187.4 0 -270.9 0.3 -272.2 1 -1.4 0.8 -2 2.1 -2 4.5 0 3.3 -0.2 3.5 -3.5 3.5 l-3.5 0 0 -83z m76 44 c0 -8.7 -0.4 -14 -1 -14 -0.6 0 -1 5.3 -1 14 0 8.7 0.4 14 1 14 0.6 0 1 -5.3 1 -14z m13.7 -4.7 c-0.2 -3.7 -0.3 -0.9 -0.3 6.2 0 7.2 0.1 10.2 0.3 6.8 0.2 -3.4 0.2 -9.3 0 -13z m43.5 5.5 c0.2 -6 0 -10.8 -0.4 -10.8 -0.3 0 -0.9 -1 -1.1 -2.2 -0.2 -1.3 -0.5 4.2 -0.5 12.2 -0.2 16.7 1.4 17.3 2 0.8z m49 -5 c-0.1 -10 -0.5 -18.4 -0.7 -18.7 -0.7 -0.7 -0.6 33.5 0.1 35.3 0.3 0.9 0.7 1.6 0.8 1.6 0 0 0 -8.2 -0.2 -18.2z m60.3 -0.9 l-0.7 -15.9 3.1 0 c2.4 0 3.1 -0.4 3.1 -2 0 -1.6 -0.7 -2 -3.5 -2 l-3.5 0 0 19.8 c0.1 14.7 0.3 19.2 1.2 17.8 0.7 -1.3 0.8 -6.8 0.3 -17.7z m30.5 -1 l0 -19 -3.7 0.3 c-4.6 0.4 -5.8 2.8 -1.4 2.8 l3.1 0 0 18.1 c0 11.7 0.3 17.8 1 17.4 0.6 -0.4 1 -8 1 -19.6z m29.5 -1.6 c-0.3 -1.8 -1 -3.5 -1.5 -3.8 -1.3 -0.8 -0.8 22.7 0.5 24.1 1.2 1.3 2 -15.1 1 -20.3z m60.8 -1 c0.5 -0.8 0.4 -1.3 -0.2 -1.3 -0.5 0 -1.2 -1 -1.4 -2.2 -0.2 -1.3 -0.4 4.2 -0.4 12.2 l0 14.5 0.6 -11 c0.3 -6 1 -11.6 1.4 -12.2z m19.7 8.7 c0 -8.7 -0.4 -14 -1 -14 -0.6 0 -1 5.3 -1 14 0 8.7 0.4 14 1 14 0.6 0 1 -5.3 1 -14z m29.3 4.3 c-0.2 -5.4 -0.7 -11.1 -1.2 -12.8 l-0.9 -3 -0.2 4 c-0.5 12.7 0.5 21.5 2.4 21.5 0 0 0 -4.4 -0.1 -9.7z m14.7 -9.8 c0 -12.3 -0.4 -19.5 -1 -19.5 -0.6 0 -1 7.2 -1 19.5 0 12.3 0.4 19.5 1 19.5 0.6 0 1 -7.2 1 -19.5z m-109.7 0.9 c-0.1 -9.7 -0.4 -17.9 -0.7 -18.2 -0.4 -0.3 -0.6 7.3 -0.6 17 0 14.4 0.3 18.8 1.4 18.8 0.1 0 0 -7.9 -0.1 -17.6z m79.7 12.9 c-0.1 -3.1 -0.3 -3.5 -1.1 -2 -0.6 0.9 -0.7 2.6 -0.4 3.7 1 3 1.5 2.4 1.5 -1.7z m-335.1 -7.8 c0 -3.3 -0.5 -7.3 -1.2 -8.8 -1 -2.5 -1.2 -1.3 -1.2 8.2 0 9.1 0.2 10.6 1.2 8.8 0.7 -1.2 1.2 -4.9 1.2 -8.2z m225 7.3 c0 -2.7 -0.2 -2.9 -0.8 -1.3 -0.5 1.1 -0.6 2.6 -0.4 3.3 0.8 2.1 1.3 1.3 1.2 -2z m197 0.2 c-0.6 -1.6 -0.9 -8.6 -0.7 -15.9 0.2 -8.7 0 -12.7 -0.7 -12 -1.6 1.6 -1.3 27.3 0.4 29.2 1.9 2.4 2.1 2.1 1 -1.3z m-469.4 -13.9 c0 -11 -0.3 -15.4 -1 -14.3 -1.7 3 -1 30.2 0.8 30.2 0.1 0 0.2 -7.2 0.2 -15.9z m17.5 11.4 c0 -1.7 -0.2 -1.7 -1 -0.5 -0.5 0.8 -1 2.4 -1 3.5 0 1.7 0.2 1.7 1 0.5 0.5 -0.8 1 -2.4 1 -3.5z m226 2.3 c0 -1.3 0.3 -3.3 0.6 -4.5 0.5 -2 0.2 -2.3 -2 -2.3 -2.8 0 -2.8 0.4 -0.9 7.3 0.6 2.5 2.3 2.1 2.3 -0.5z m75 -8 c0 -7 -0.3 -9.8 -1 -8.8 -1.7 2.6 -1.1 19 0.6 19 0.2 0 0.4 -4.6 0.4 -10.2z m168 5.9 c0 -1 -0.4 -1.5 -1 -1.2 -0.5 0.3 -1 1.8 -1 3.3 0 2.1 0.2 2.4 1 1.2 0.5 -0.8 1 -2.3 1 -3.3z m14.9 -5.9 c0 -9.8 -0.1 -10.1 -1.4 -6.8 -1.6 4.2 -1.9 11.6 -0.5 12.5 0.6 0.3 1 1.5 1 2.6 0 1 0.2 1.9 0.5 1.9 0.3 0 0.5 -4.6 0.4 -10.2z m14.9 0.7 c0 -3.3 -0.4 -7.1 -0.8 -8.5 -0.5 -1.6 -0.8 1.3 -0.8 8 0 6.7 0.3 9.8 0.8 8.5 0.5 -1.1 0.8 -4.7 0.8 -8z m-484.9 -0.2 c-0.1 -8.1 -0.2 -8.5 -1.1 -4.6 -0.9 3.7 -0.4 13.3 0.8 13.3 0.2 0 0.3 -3.9 0.3 -8.7z m106 -0.5 c-0.1 -7.8 -0.3 -8.6 -0.9 -4.8 -0.7 4.1 -0.2 14 0.6 14 0.2 0 0.3 -4.2 0.3 -9.2z m44.8 -4.5 c-0.2 -2.7 -0.3 -0.5 -0.3 4.7 0 5.2 0.1 7.4 0.3 4.8 0.2 -2.7 0.2 -6.9 0 -9.5z m-93 0.5 c-0.2 -2.4 -0.4 -0.5 -0.4 4.2 0 4.7 0.2 6.6 0.4 4.3 0.2 -2.4 0.2 -6.2 0 -8.5z m63 -2.5 c-0.3 -1 -0.5 -0.2 -0.5 1.7 0 1.9 0.2 2.7 0.5 1.8 0.2 -1 0.2 -2.6 0 -3.5z m46.3 1.8 c0 -1.7 -0.4 -3.3 -1 -3.6 -0.6 -0.4 -1 0.8 -1 2.9 0 2 0.5 3.6 1 3.6 0.6 0 1 -1.3 1 -2.9z m134.7 -1.8 c-0.3 -1 -0.5 -0.2 -0.5 1.7 0 1.9 0.2 2.7 0.5 1.8 0.2 -1 0.2 -2.6 0 -3.5z"/>
  <path d="M187.5 295 l-18 -0.5 -0.3 -3.6 c-0.3 -3.3 0 -3.7 3.8 -5.4 5.4 -2.4 12.7 -10.6 13.6 -15.1 0.6 -3.2 0.9 -3.4 4.4 -3.4 3.5 0 3.9 0.3 5 3.5 1.6 4.8 8.9 12.6 14.4 15.3 4.3 2.2 4.6 2.6 4.6 6.3 l0 3.9 -4.7 -0.2 c-2.7 -0.1 -12.9 -0.5 -22.8 -0.8z"/>
  <path d="M330.5 295 c-58.3 -0.3 -106.1 -0.6 -106.2 -0.8 -0.2 -0.1 -0.3 -1.7 -0.3 -3.6 0 -3.1 0.5 -3.7 5.4 -6.5 6.3 -3.5 11.1 -10 12.6 -16.9 1.8 -7.9 2 -8.2 7.5 -10.8 5.2 -2.3 6 -2.4 29.8 -2.4 l24.5 0 4 4.5 4 4.5 19.6 0 19.6 0 0 -3.9 c0 -3.3 -0.4 -4 -2.2 -4.3 -2.1 -0.3 -2.3 -0.9 -2.6 -8 l-0.3 -7.8 -7.4 0 -7.5 0 -0.6 -3.7 -0.6 -3.8 -5.1 0.3 c-4.6 0.3 -5.6 0 -8.4 -2.7 l-3.3 -3 0 4 0 3.9 -6.4 0 c-5.4 0 -6.4 0.3 -6.9 1.9 -0.4 1.7 -2 1.9 -15 2.6 -8 0.4 -15 0.4 -15.6 0 -0.6 -0.3 -1.1 -3.2 -1.1 -6.3 0.1 -4.9 0.6 -6.5 4 -11.7 4.8 -7.4 6.8 -9.5 9.2 -9.5 1.6 0 1.8 -0.7 1.2 -6.7 -0.8 -8.9 0.5 -12.3 4.5 -12.3 l3 0 -1.9 -4.2 c-1.2 -2.7 -2 -6.6 -2 -10.3 0 -4.7 -0.5 -6.8 -2.5 -9.7 -4.5 -6.7 -23.5 -17.5 -40 -22.8 -3.8 -1.2 -8.6 -2.8 -10.5 -3.5 -1.9 -0.7 -5.5 -1.6 -8 -2 -2.5 -0.4 -4.9 -1.1 -5.5 -1.5 -0.5 -0.4 -2.7 -1 -4.7 -1.4 l-3.8 -0.7 0 -42.8 c0 -47.7 -0.6 -44.1 7.1 -44.1 3.4 0 3.9 0.3 4.5 2.8 0.3 1.5 0.9 3.6 1.2 4.7 0.7 2.1 14.7 27.2 18.9 33.8 2.5 4 4.7 7.8 9.7 16.8 9.5 17.2 17.2 29.7 17.8 29.3 0.5 -0.3 1.6 -2.2 2.6 -4.2 2.4 -4.9 21.2 -39.4 22.2 -40.7 0.4 -0.5 2.3 -3.9 4.2 -7.5 2 -3.6 6.4 -11.7 9.9 -18 3.4 -6.3 7 -13 7.8 -14.7 1.4 -3.1 1.9 -3.3 6.3 -3.3 l4.8 0 0.2 71.2 c0.2 46.3 0.6 71.2 1.3 71.5 2.6 0.8 3.9 -5.5 4.5 -20.7 l0.5 -15.5 5.8 -0.3 5.7 -0.3 0 7.6 0 7.6 2.9 -2.1 c2.1 -1.4 3.1 -3.1 3.3 -5.3 0.3 -3.1 0.5 -3.2 6.5 -4.2 3.4 -0.5 6.5 -1.3 6.9 -1.7 0.4 -0.5 1.8 -0.8 3.1 -0.8 l2.3 0 0.1 -72.2 c0.1 -65.5 0.1 -75 -0.4 -75.4 -0.1 -0.1 -15.3 -0.4 -33.7 -0.7 l-33.5 -0.7 -2.2 4.8 c-1.2 2.6 -3.2 7.6 -4.4 11.2 -1.2 3.6 -2.5 7 -2.9 7.5 -0.4 0.6 -1.7 3.9 -3 7.5 -1.3 3.6 -2.9 7.6 -3.6 9 -1.5 2.8 -6.7 14.3 -9.5 20.8 -1.7 3.9 -2.1 4.2 -5.7 4.2 -3.9 0 -6.2 -1.4 -6.2 -3.8 0 -0.7 -0.8 -3.2 -1.9 -5.5 -2.7 -6.1 -7.5 -19.8 -10.7 -30.2 -1.4 -4.9 -3.9 -12.6 -5.4 -17 l-2.7 -8 -35.4 0.4 c-19.5 0.2 -35.5 0.5 -35.7 0.6 -0.2 0.1 -0.4 28.5 -0.5 63 l-0.2 62.7 -4 1.3 c-2.2 0.7 -6.2 1.6 -8.9 1.9 -2.8 0.3 -5.3 1.1 -5.6 1.7 -0.4 0.6 -2.7 0.9 -5.1 0.7 l-4.4 -0.3 -0.5 -9.7 -0.5 -9.7 -3 1.3 c-1.6 0.8 -5.1 2.3 -7.6 3.5 -2.5 1.2 -4.9 2.1 -5.3 2.1 -0.9 0 -9.1 3.5 -12.9 5.5 -1.6 0.8 -3.3 1.5 -3.8 1.5 -0.5 0 -3.7 1.3 -7.1 2.9 -3.5 1.6 -8.4 3.8 -11.1 4.9 -2.6 1.2 -4.7 2.5 -4.7 3.1 0 0.6 1.4 0.4 3.5 -0.5 2.2 -0.9 6.8 -1.4 12.7 -1.4 8.4 0 9.9 0.3 15.3 3 11.6 5.9 11.9 7.7 4.6 22 -1.8 3.4 -10.1 2.3 -10.1 -1.3 0 -2.1 -0.3 -2.2 -9 -1.9 -7.4 0.3 -9 0.1 -9 -1.1 0 -1.7 -3.4 -4.1 -7.2 -5.1 -2.5 -0.6 -2.8 -1.1 -2.8 -4.9 0 -3.1 -0.3 -3.8 -1 -2.7 -0.5 0.8 -1 2.6 -1 3.9 0 2.3 -0.1 2.4 -6.2 1.6 -3.5 -0.4 -8.9 -0.6 -12.1 -0.5 l-5.8 0.1 0.3 -59.8 c0.2 -32.9 0.7 -60.6 1.1 -61.5 1.2 -2.3 6.8 -3.8 14.4 -3.8 12.5 0 12.3 -0.5 12.3 36.1 l0 29.1 2.3 -0.6 c1.2 -0.4 4.5 -1.3 7.2 -2.1 2.8 -0.8 7.5 -2.1 10.5 -3.1 3 -0.9 8.2 -2.3 11.5 -3.2 3.3 -0.9 6.2 -1.9 6.5 -2.2 0.3 -0.4 1.9 -1 3.5 -1.4 1.7 -0.3 5.6 -1.4 8.7 -2.4 4.9 -1.5 5.7 -2.1 6.2 -4.6 0.9 -4.1 0.7 -20.5 -0.3 -31.8 -0.8 -8.5 -1.4 -10.6 -4.5 -16.2 -4.2 -7.5 -7 -10.1 -15.7 -14.4 -12 -5.8 -22.3 -7.9 -44.4 -8.9 -28.4 -1.3 -50.1 4.9 -61.5 17.4 -5.2 5.7 -10 14.1 -10 17.6 0 0.9 -0.4 1.7 -0.8 1.7 -1.3 0 -3.4 13.3 -3.9 23.8 -0.4 8.3 -0.6 9.2 -2.4 9.2 -1.8 0 -1.9 -1.1 -1.9 -37 l0 -37 276 0 276 0 0 147.5 0 147.5 -43 0.2 c-23.6 0.1 -44.7 0.2 -46.7 0.3 -3.7 0 -3.8 -0.1 -4.1 -4.1 -0.3 -3.5 0 -4.2 2.5 -5.4 7.7 -3.9 15.3 -12.8 15.3 -17.8 0 -2.9 3.2 -5.2 7.2 -5.2 2.1 0 4.6 -0.9 6.2 -2.1 l2.6 -2 -2 -3.9 c-1.1 -2.2 -2 -5.5 -2 -7.5 0 -3.4 0.1 -3.5 3.6 -3.5 2.1 0 6 1.3 9.3 3 12.5 6.5 22.9 9.2 27.2 6.9 11.1 -5.8 14.6 -19.2 14.5 -55.3 l-0.1 -19.9 -9.7 -4.1 c-5.4 -2.3 -11.4 -4.9 -13.5 -5.7 -2 -0.7 -10.6 -4.4 -19 -8 l-15.3 -6.7 0 24.9 0 24.9 -2.6 1.2 c-2.9 1.4 -12.2 -0.1 -15 -2.4 -3.8 -3 -7.7 -7.4 -8.5 -9.6 -0.5 -1.3 -0.9 -37.2 -0.9 -80.6 0 -64.9 0.2 -78.5 1.4 -80.1 1 -1.4 3 -2 8 -2.3 8.2 -0.5 13.2 0.4 15.7 2.9 1.8 1.8 1.9 3.6 1.9 36.2 l0 34.2 2.8 1.2 c1.5 0.6 4.5 1.5 6.7 1.9 2.2 0.4 4.2 1 4.5 1.4 0.4 0.6 6.1 2.2 17.5 5 2.2 0.6 4.9 1.4 6 1.9 1.7 0.8 10.8 3.6 18.3 5.6 l2.2 0.6 0 -16.3 c-0.1 -56 -3.2 -71.2 -17.7 -85.4 -4.4 -4.5 -15.2 -10.4 -18.8 -10.4 -1.1 0 -2.6 -0.5 -3.1 -1 -1.5 -1.5 -14.2 -3.1 -28.4 -3.7 -25.2 -1 -49.1 4.2 -60.5 13 -6.9 5.4 -11.2 12.5 -12.6 20.6 -1.4 8.1 -1.2 99.3 0.2 110 1.2 9 1.8 10.1 5.9 10.1 2.8 0 13 3.4 16.1 5.3 1.3 0.8 1.9 2.3 1.9 4.8 0 3.9 -1.2 4.9 -5.4 4.9 -1.3 0 -2.5 0.2 -2.8 0.6 -0.3 0.3 0.3 3.7 1.4 7.7 1.1 4 2.3 9.3 2.5 11.8 0.5 4.4 0.3 4.6 -3.6 7.2 -2.4 1.6 -4.1 3.5 -4.1 4.6 0 2.7 -19.7 14.1 -24.4 14.1 -3 0 -3.8 -0.5 -5.2 -3.2 -0.9 -1.8 -1.8 -3.5 -2 -3.7 -0.2 -0.2 -4.3 3.3 -9.1 7.8 -4.8 4.4 -9.5 8.1 -10.5 8.1 -1.6 0 -1.8 1 -1.8 8.4 0 5.8 -0.4 8.6 -1.2 8.9 -1.6 0.7 5.1 0.8 28.7 0.7 21.7 -0.1 21.7 -0.1 22.3 9.1 l0.4 6.4 6 -0.3 c7.2 -0.5 9.7 1.3 13.5 9.8 2.9 6.5 8 12.1 13.4 14.5 3.3 1.5 3.9 2.3 3.9 5 0 4.3 -1.6 5.5 -6.9 5.3 -2.6 -0.2 -52.3 -0.5 -110.6 -0.8z m-18.5 -81.2 c0 -1.6 -0.3 -1.9 -1.1 -1.1 -0.6 0.6 -0.8 1.6 -0.5 2.2 1.1 1.7 1.6 1.3 1.6 -1.1z m60.6 -22.4 c-0.3 -0.9 -0.6 -6.5 -0.6 -12.5 l0 -10.9 -3.5 0 -3.5 0 0 12.5 0 12.5 4.1 0 c3.3 0 4 -0.3 3.5 -1.6z"/>
  <path d="M154.2 275.2 c-5.8 -5.1 -5.6 -19.7 0.3 -23.6 1.6 -1.1 4.8 -1.6 9.6 -1.6 6.9 0 7.3 0.1 10.5 3.6 3.1 3.3 3.4 4.1 3.4 9.9 0 5.8 -0.3 6.6 -3.4 9.9 -3.2 3.5 -3.5 3.6 -10.8 3.6 -5.8 0 -8 -0.4 -9.6 -1.8z"/>
  <path d="M209.2 275.2 c-5.8 -5.1 -5.6 -19.7 0.3 -23.6 3.3 -2.2 15.2 -2.2 18.3 0 3.4 2.4 5.2 6.8 5.2 12.8 0 4.8 -0.4 5.9 -3.4 9 -3.2 3.5 -3.5 3.6 -10.8 3.6 -5.8 0 -8 -0.4 -9.6 -1.8z"/>
  <path d="M443.7 275.9 c-2.9 -1.7 -4.7 -6.5 -4.7 -12.4 0 -10.4 3.2 -13.4 14.1 -13.5 8 0 9.8 0.9 12.8 6.7 2.8 5.4 0.8 15.3 -3.9 19 -1.8 1.5 -15.8 1.7 -18.3 0.2z"/>
  <path d="M424 248.8 c0 -3.1 1 -7.6 2.3 -10.8 1.8 -4.4 3.2 -6.2 7.2 -8.9 l5 -3.3 12 0.5 c9.6 0.3 12.8 0.9 16.1 2.5 6 3.1 9.4 7.5 9.4 12.3 0 3.9 0 3.9 -3.9 3.9 -2.2 0 -4.2 -0.4 -4.5 -0.9 -0.9 -1.4 -10.1 -4.1 -14 -4.1 -5.4 0 -11.6 3.2 -17.1 8.9 -4.2 4.4 -5.5 5.1 -8.7 5.1 l-3.8 0 0 -5.2z"/>
  <path d="M104.8 225.3 c-1.9 -0.3 -2.9 -1.2 -3.2 -2.6 -0.5 -2.4 -2.9 -43.9 -3 -52.2 l-0.1 -5 7.1 -0.3 c8.2 -0.3 8.4 -0.2 8.4 9.8 0 3 0.7 12.3 1.5 20.5 0.9 8.3 1.5 18.4 1.3 22.5 l-0.3 7.5 -4.5 0.1 c-2.5 0.1 -5.7 -0.1 -7.2 -0.3z"/>
  <path d="M61.6 185.9 c-2.3 -1.8 -2.6 -2.7 -2.6 -8.7 0 -5.8 0.3 -6.9 2.7 -9.4 2.3 -2.4 3.4 -2.8 8.5 -2.8 4.5 0 6.6 0.5 8.8 2.2 2.8 2 3 2.6 3 9.1 0 5.8 -0.4 7.3 -2.2 9.3 -2 2 -3.3 2.4 -8.9 2.4 -5.2 0 -7.2 -0.4 -9.3 -2.1z"/>
 </g>
 <g fill="#f6e966">
  <path d="M4 376 c0 -3.9 0.4 -5.2 1.9 -6 1.4 -0.7 87.2 -1 274 -1 l272.1 0 0 6 0 6 -274 0 -274 0 0 -5z"/>
  <path d="M4.8 302.3 c-0.9 -1 -1.5 -3.5 -1.4 -5.8 l0.1 -4 72 -0.5 c39.6 -0.3 73.5 -0.1 75.4 0.3 3.7 0.9 6.4 -1 3.6 -2.6 -3.3 -1.8 -1 -2.4 9.4 -2.3 10.8 0.1 14.2 0.8 10.2 2.1 -5 1.6 0 2.3 15.2 2.3 8.9 0 17.7 0.3 19.5 0.7 4 0.9 4.4 -1.1 0.6 -2.6 -4.5 -1.7 -1.7 -2.4 9.7 -2.5 10.3 -0.2 13.1 0.5 9.2 2.1 -1.6 0.6 -1.5 0.8 0.5 1.6 2.6 1 213.7 1.3 215.4 0.3 0.7 -0.4 0.2 -1.2 -1.3 -2 -1.3 -0.7 -2.2 -1.4 -1.9 -1.5 0.3 -0.1 5.6 -0.3 11.8 -0.4 10.8 -0.2 13.1 0.4 9.6 2.3 -1 0.6 -1.4 1.4 -0.9 2.2 0.4 0.7 1 0.8 1.4 0.4 0.3 -0.5 20.5 -0.8 44.9 -0.6 l44.2 0.3 0 5.9 0 6 -272.8 0 c-258.7 0 -273 -0.1 -274.4 -1.7z"/>
  <path d="M414.6 253.4 c-0.9 -0.8 -1.6 -3.1 -1.6 -5 0 -3.1 0.3 -3.4 3 -3.4 1.7 0 3 -0.4 3 -1 0 -0.5 1.6 -1 3.5 -1 3.2 0 3.5 0.3 3.5 2.9 0 1.5 -0.5 4.2 -1.1 6 -1 2.7 -1.5 3.1 -4.9 3.1 -2.2 0 -4.5 -0.7 -5.4 -1.6z"/>
 </g>
 <g fill="#f7e313">
  <path d="M414.5 253 c-0.8 -1.6 -1.5 -4.9 -1.5 -7.3 l0 -4.4 -16.7 -0.6 c-9.1 -0.4 -21.5 -0.7 -27.5 -0.7 l-10.8 0 0 -6.3 0 -6.4 6.3 -5 c3.4 -2.9 8.2 -7.2 10.7 -9.7 5.9 -6.1 9.1 -6.3 12 -0.6 1.1 2.2 2.3 4 2.6 4 0.3 0 4.3 -2.2 9 -5 5.8 -3.4 9.6 -5 11.9 -5 3.4 0 3.5 -0.1 3.5 -3.8 0 -2.1 0.5 -4.3 1.2 -5 1.3 -1.3 18.9 -1.7 20.2 -0.5 0.6 0.6 6.2 2.3 17.9 5.3 2.1 0.6 4.5 1.4 5.5 1.9 0.9 0.5 5.6 2.8 10.4 5.1 9.4 4.6 9.7 5 13.8 16.7 1.3 3.9 2 8 1.8 11 l-0.3 4.8 -4 0.3 c-2.4 0.2 -4.3 -0.2 -5 -1 -1.7 -2.2 -8.8 -7.4 -13 -9.5 -12.6 -6.4 -27.3 -2.5 -33 8.7 -3.9 7.5 -6.5 13.6 -6.5 14.8 0 0.7 -1.5 1.2 -3.5 1.2 -2.8 0 -3.7 -0.5 -5 -3z m6.9 -2.6 c0.8 -2.2 0.6 -2.3 -2.4 -1.2 -2 0.7 -2.2 1.1 -1 1.8 2.1 1.4 2.7 1.2 3.4 -0.6z"/>
  <path d="M251.1 235.6 c-2.2 -2.3 -2.3 -2.3 -33.3 -3.1 -23.1 -0.5 -31.5 -1 -32.4 -2 -0.7 -0.7 -3.8 -1.6 -6.8 -1.9 -3.1 -0.4 -5.8 -1.2 -6.1 -1.7 -0.4 -0.5 -1.3 -0.9 -2.2 -0.9 -2 0 -25 -9.8 -36.3 -15.5 -4.7 -2.4 -9.6 -5.5 -11 -7 -2.4 -2.6 -2.5 -3.2 -2.5 -15.8 0.1 -11.1 0.4 -14.3 2.4 -20.2 3 -8.8 11.1 -24.6 13.1 -25.3 0.8 -0.3 5.6 -2.2 10.5 -4.3 8.2 -3.4 10.4 -3.9 23.5 -4.9 14.5 -1.2 37.9 -0.6 47 1 24 4.5 49.1 14.3 63.3 24.8 8.3 6 9.3 11.8 5.7 32.9 -2.9 16.6 -3 17.1 -11.2 30.8 -7.9 13.4 -10.3 15.5 -17.7 15.5 -2.7 0 -4.4 -0.7 -6 -2.4z"/>
 </g>
 <g fill="#040404">
  <path d="M15.8 359.3 c-3 -0.8 -5.7 -6.6 -6.6 -14.3 -1.1 -8.9 0.2 -24.4 2.2 -27.6 0.9 -1.2 3.7 -2.9 6.4 -3.8 4.4 -1.5 5.2 -1.5 9.6 0 5.2 1.8 7.6 5.3 7.6 11.4 0 2.8 -0.2 3 -4 3 -3.7 0 -4 -0.2 -4 -2.8 0 -1.6 -0.9 -3.7 -2 -4.7 -1.7 -1.6 -2.4 -1.6 -4.4 -0.6 -2.8 1.6 -3.6 5.1 -3.6 16.6 0 11.8 0.8 15.4 3.6 16.1 4.1 1 6.4 -0.4 6.4 -3.9 0 -4.6 1.2 -5.9 5.1 -5.5 3.3 0.3 3.4 0.3 3.1 4.8 -0.4 5 -3.6 10.6 -6.7 11.4 -2.3 0.7 -10.2 0.6 -12.7 -0.1z"/>
  <path d="M47.3 359 c-4.5 -1.8 -5.8 -5.6 -5.8 -16.5 0 -8.2 0.4 -10.6 2 -13.3 2.2 -3.7 4.1 -4.5 10.2 -4.4 8.8 0.2 11.3 4.2 11.3 17.7 0 9.7 -2.2 15.8 -6.2 16.9 -3.2 0.8 -8.9 0.6 -11.5 -0.4z m9.1 -10.3 c0.4 -2.6 0.5 -7.7 0.1 -11.2 -0.6 -5.8 -0.9 -6.5 -2.9 -6.5 -3.9 0 -4.6 1.9 -4.6 11.5 0 9.6 0.9 11.8 4.5 11.3 1.5 -0.2 2.2 -1.4 2.9 -5.1z"/>
  <path d="M105 358.8 c-4.1 -2.2 -5.4 -6.3 -5.3 -16.9 0.1 -13.9 2.1 -16.9 11.4 -16.9 7.4 0 9.9 2 9.9 8 0 3.9 -0.1 4 -3.4 4 -3 0 -3.5 -0.3 -3.8 -2.7 -0.3 -3.1 -3 -4.2 -5.3 -2.3 -1.1 0.9 -1.5 3.6 -1.5 10.6 0 8.4 0.2 9.4 2.1 10.4 2.7 1.5 4.9 -0.3 4.9 -4.1 0 -2.6 0.3 -2.9 3.5 -2.9 3.5 0 3.5 0 3.5 4.4 0 6.2 -2.3 8.8 -8.6 9.3 -2.9 0.2 -5.9 -0.1 -7.4 -0.9z"/>
  <path d="M153.3 359 c-3.2 -1.3 -5 -4.8 -5.8 -11.2 -0.9 -8.4 0.3 -17.3 3 -20.4 1.9 -2.2 3 -2.5 7.8 -2.5 9.2 0 10.8 1.6 12.1 12.4 l0.7 5.7 -8 0 -8.1 0 0 3.8 c0 2.7 0.7 4.5 2.3 6 2.3 2.2 2.4 2.2 4 0.4 0.9 -1 1.7 -2.6 1.7 -3.4 0 -1.8 3.1 -2.9 6 -2.1 2.3 0.6 2.3 0.6 1 5.5 -0.6 2.1 -2.1 4.4 -3.3 5.3 -2.3 1.6 -9.8 1.9 -13.4 0.5z m9.7 -22.9 c0 -3.6 -1.2 -5.1 -4 -5.1 -2.8 0 -4 1.5 -4 5.1 0 1.6 0.7 1.9 4 1.9 3.3 0 4 -0.3 4 -1.9z"/>
  <path d="M183 359.2 c-1.9 -0.2 -3.8 -0.9 -4.2 -1.5 -0.4 -0.7 -0.8 -6.9 -0.8 -13.9 0 -10.7 -0.2 -12.8 -1.5 -12.8 -1 0 -1.5 -1 -1.5 -3 0 -2 0.5 -3 1.5 -3 1.1 0 1.5 -1.2 1.5 -4.5 0 -4.5 0 -4.5 3.5 -4.5 3.5 0 3.5 0 3.5 4.5 0 3.8 0.3 4.5 2 4.5 1.5 0 2 0.7 2 2.9 0 2 -0.6 3 -2 3.4 -1.8 0.5 -2 1.3 -2 8.9 0 9.6 0.7 12.8 2.6 12.8 1.8 0 1.9 4.4 0.2 5.6 -0.7 0.5 -2.9 0.8 -4.8 0.6z"/>
  <path d="M195.9 357.1 c-2.9 -2.9 -2.9 -3 -2.9 -14.9 0 -11.3 0.1 -12.1 2.5 -14.6 1.4 -1.5 3.6 -2.6 5.2 -2.7 3.9 -0.2 8.5 0.1 10.3 0.7 2.7 0.7 5 6.3 5 11.9 l0 5.4 -7.7 0.3 -7.8 0.3 -0.3 3.1 c-0.4 4.2 2.9 8.3 5.5 6.8 1 -0.6 2.2 -2 2.8 -3.2 0.7 -1.6 1.9 -2.2 4.2 -2.2 3 0 3.3 0.3 3.3 2.9 0 1.8 -1.1 4 -2.9 6 -2.6 2.8 -3.5 3.1 -8.6 3.1 -4.9 0 -6 -0.4 -8.6 -2.9z m12.1 -21 c0 -3.4 -1.2 -5.1 -3.4 -5.1 -2.8 0 -4.6 1.8 -4.6 4.7 0 2 0.5 2.3 4 2.3 3.3 0 4 -0.3 4 -1.9z"/>
  <path d="M285 358 c-3.9 -3.9 -3.8 -11.7 0.2 -15.2 1.2 -1 4.4 -3.1 7 -4.5 3.6 -1.9 4.8 -3.2 4.8 -4.9 0 -1.3 -0.4 -2.5 -0.9 -2.8 -1.5 -1 -6.1 1.2 -6.1 2.9 0 1.1 -1.1 1.5 -4 1.5 -3.9 0 -4 -0.1 -3.4 -2.7 0.3 -1.6 1.7 -3.8 3.1 -5 2 -1.9 3.6 -2.3 9.2 -2.3 10.2 0 10.5 0.6 10.9 19.1 l0.3 14.9 -3.4 0 c-2 0 -3.7 -0.5 -3.9 -1.2 -0.3 -0.8 -1.1 -0.7 -2.8 0.5 -3.3 2.3 -8.5 2.2 -11 -0.3z m10.8 -4.8 c1.6 -1.1 2.9 -11.2 1.4 -11.2 -0.6 0 -2.4 1.2 -4.1 2.6 -3.5 2.9 -4.1 6.7 -1.3 8.3 2.1 1.3 2.4 1.3 4 0.3z"/>
  <path d="M333.4 358.9 c-4.1 -2.1 -5.5 -6.2 -5.5 -16.8 -0.1 -14.3 1.8 -17.1 11.4 -17.1 3.4 0 6.7 0.4 7.3 0.8 2.9 2 4.4 5.9 4.4 11.4 l0 5.8 -7.6 0 -7.5 0 0.3 4.6 c0.2 3.1 0.9 5.1 2.1 5.8 2.2 1.4 5.1 -0.3 5.5 -3.3 0.3 -1.7 1 -2.1 3.8 -2.1 3.2 0 3.4 0.2 3.4 3.4 0 5 -4.6 8.6 -10.8 8.5 -2.6 0 -5.6 -0.5 -6.8 -1z m10.3 -22.5 c0.9 -2.3 -0.9 -4.8 -3.7 -5.2 -2.6 -0.4 -4 1.2 -4 4.6 0 1.9 0.5 2.2 3.5 2.2 2.4 0 3.8 -0.5 4.2 -1.6z"/>
  <path d="M394.5 357.5 c-2 -1.9 -2.5 -3.5 -2.5 -7.1 0 -4.1 0.5 -5.1 3.6 -8 1.9 -1.9 4.1 -3.4 4.8 -3.4 2.2 0 6.6 -4 6.6 -6 0 -1 -1 -2.2 -2.2 -2.6 -1.7 -0.5 -2.7 0 -4.3 2 -2.5 3.2 -8.5 3.8 -8.5 0.8 0 -1.8 2.6 -6.1 4.4 -7.4 1.4 -1 13.8 -1 15.3 0 2.5 1.6 3.9 9 4 21 l0.2 12.2 -3.4 0 c-1.9 0 -3.7 -0.5 -4 -1 -0.4 -0.7 -1.4 -0.5 -2.8 0.5 -3.3 2.3 -8.4 1.9 -11.2 -1z m11.4 -4.9 c0.7 -0.8 1.1 -3.5 0.9 -6.2 l-0.3 -4.7 -3.2 2.7 c-2.3 1.9 -3.3 3.6 -3.3 5.6 0 3.8 3.6 5.4 5.9 2.6z"/>
  <path d="M438.7 357.9 c-1.8 -1.6 -2.8 -3.6 -2.9 -5.9 -0.3 -3.3 -0.1 -3.5 2.8 -3.8 2.7 -0.3 3.3 0.1 4.2 2.8 1.3 3.7 3.6 4.7 5.7 2.7 1.6 -1.6 2.1 -4.7 0.7 -4.7 -1.5 0 -11.3 -9.3 -12.7 -12.1 -1.8 -3.3 -1.2 -6.8 1.6 -9.8 1.6 -1.6 3.2 -2.1 7.5 -2.1 6.7 0 8.7 1 10.4 4.9 1.6 3.9 0.7 6.1 -2.5 6.1 -1.8 0 -2.8 -0.7 -3.5 -2.5 -0.7 -1.9 -1.7 -2.5 -3.9 -2.5 -6.1 0 -5.4 1.3 6.8 12.2 3.4 3.2 4.1 4.4 4.1 7.5 -0.1 6.1 -2.7 8.6 -9.7 9.1 -5.2 0.4 -6.3 0.1 -8.6 -1.9z"/>
  <path d="M484.5 358.9 c-1.1 -0.6 -2.9 -2.2 -4 -3.7 -1.8 -2.4 -2 -4.3 -2 -18.9 0 -15.7 0.1 -16.2 2.4 -18.7 1.3 -1.4 3.4 -2.8 4.5 -3.1 1.2 -0.4 3.1 -1.1 4.3 -1.7 1.7 -0.9 3.3 -0.7 7 0.9 4.4 1.7 5 2.4 6.6 7.2 0.9 2.9 1.5 5.7 1.2 6.2 -0.4 0.5 -2.4 0.9 -4.6 0.9 -3.6 0 -3.9 -0.2 -3.9 -2.8 0 -3.3 -3.2 -6.7 -5.5 -5.8 -2.9 1.1 -4.5 7.1 -4.4 16.8 0.1 11.4 1.5 16.2 5.1 16.6 3.1 0.4 4.5 -1.3 5 -5.8 0.3 -3.4 0.5 -3.5 4.3 -3.5 l4 0 -0.2 4.2 c-0.2 5.3 -2.7 10.1 -5.9 11.3 -3.2 1.3 -11.3 1.2 -13.9 -0.1z"/>
  <path d="M514.6 357.7 c-1.4 -1.5 -2.6 -3.5 -2.6 -4.6 0 -1.1 -0.4 -2.3 -1 -2.6 -1.5 -0.9 -1.2 -13.7 0.5 -18.5 2 -5.8 3.9 -6.9 11.1 -7 5.2 0 6.4 0.4 8.4 2.5 2.1 2.2 2.4 3.8 2.8 11.5 0.8 16.1 -1.3 20.1 -10.8 20.8 -5.3 0.4 -6.1 0.2 -8.4 -2.1z m10.3 -5.1 c0.8 -0.9 1.1 -4.8 0.9 -11.2 l-0.3 -9.9 -3 0 -3 0 -0.3 9.9 c-0.1 5.5 0 10.6 0.2 11.3 0.7 1.7 4 1.7 5.5 -0.1z"/>
  <path d="M71 342 l0 -17 4 0 c3 0 4 0.4 4 1.6 0 1.4 0.1 1.4 1.6 0 0.9 -0.9 3.2 -1.6 5.4 -1.6 6.6 0 7 1.1 7 18.6 l0 15.4 -3.5 0 -3.5 0 0 -13.4 c0 -12.7 -0.1 -13.5 -2 -14.1 -4.3 -1.4 -5 0.8 -5 14.6 l0 12.9 -4 0 -4 0 0 -17z"/>
  <path d="M128 342 l0 -17 3.5 0 c2.8 0 3.5 0.4 3.5 2 0 2.6 1.6 2.6 3 -0.1 0.7 -1.3 1.9 -1.9 3.3 -1.7 1.8 0.2 2.2 1 2.2 3.8 0 3 -0.5 3.7 -3.2 4.9 -3.8 1.7 -4.3 3.2 -4.3 13.8 0 10.4 -0.4 11.3 -4.6 11.3 l-3.4 0 0 -17z"/>
  <path d="M238 336.5 l0 -22.5 6.4 0 6.4 0 0.7 4.8 c0.3 2.6 1.3 7 2 9.7 0.8 2.8 1.5 6.3 1.7 7.9 0.5 5.3 2.4 3.9 3.6 -2.6 0.6 -3.5 1.7 -9.2 2.4 -12.8 l1.4 -6.5 6.7 -0.3 6.7 -0.3 -0.2 22.3 -0.3 22.3 -3.7 0.3 -3.8 0.3 0 -18.1 c0 -11.1 -0.4 -17.9 -0.9 -17.5 -0.6 0.3 -1.3 2.7 -1.6 5.3 -0.4 2.6 -1.3 7 -2 9.7 -0.7 2.8 -1.6 7.3 -2 10 -0.9 7 -2.6 10.5 -5 10.5 -2.2 0 -3.7 -3.8 -5.4 -13.5 -1.8 -10.3 -4.4 -21.5 -5 -21.5 -0.3 0 -0.5 6.8 -0.3 15.2 0.4 18.9 0.2 19.8 -4.3 19.8 l-3.5 0 0 -22.5z"/>
  <path d="M314.2 357.8 c-0.8 -0.8 -1.2 -5.4 -1.2 -14 0 -10.7 -0.2 -12.8 -1.5 -12.8 -1 0 -1.5 -1 -1.5 -3 0 -2 0.5 -3 1.5 -3 1.1 0 1.5 -1.2 1.5 -4.5 0 -4.5 0 -4.5 3.5 -4.5 3.4 0 3.5 0.1 3.5 4.1 0 3.2 0.4 4.2 2 4.6 1.4 0.4 2 1.4 2 3.3 0 1.9 -0.6 2.9 -2 3.3 -1.8 0.5 -2 1.4 -2 9.5 0 9.9 0.5 12.2 2.6 12.2 0.9 0 1.4 1.1 1.4 3 0 2.9 -0.2 3 -4.3 3 -2.4 0 -4.8 -0.5 -5.5 -1.2z"/>
  <path d="M358 342 l0 -17 3.5 0 c2.9 0 3.5 0.4 3.5 2.2 l0 2.1 2.3 -2.1 c1.3 -1.2 3.1 -2.2 4.1 -2.2 1.4 0 1.7 0.8 1.4 4.2 -0.3 3.6 -0.7 4.3 -2.8 4.8 -3.8 0.9 -5 4.4 -5 15.3 l0 9.7 -3.5 0 -3.5 0 0 -17z"/>
  <path d="M378 342 l0 -17 4 0 4 0 0 17 0 17 -4 0 -4 0 0 -17z"/>
  <path d="M422 336.5 l0 -22.5 4 0 4 0 0 22.5 0 22.5 -4 0 -4 0 0 -22.5z"/>
  <path d="M540 355.6 c0 -3.6 2 -4.9 6 -3.9 1.5 0.4 2 1.4 2 3.9 0 3.3 -0.1 3.4 -4 3.4 -3.9 0 -4 -0.1 -4 -3.4z"/>
  <path d="M378 317.6 c0 -3.5 0.1 -3.6 4.1 -3.6 3.9 0 4 0.1 3.7 3.3 -0.3 2.9 -0.6 3.2 -4 3.5 -3.7 0.3 -3.8 0.3 -3.8 -3.2z"/>
  <path d="M156.5 290.3 c-7.4 -1.9 -17.4 -12.1 -19 -19.3 l-0.6 -2.9 -4.1 1.5 c-5.6 1.9 -7.5 1.1 -8.8 -3.7 -0.9 -3.3 -1.8 -4.3 -4.8 -5.6 -4.1 -1.7 -10.7 -1.1 -13.3 1.3 -1.3 1.1 -3.9 1.4 -12 1.2 l-10.4 -0.3 -0.3 -3 c-0.3 -2.7 0.2 -3.3 3.3 -4.8 3.9 -1.9 3.8 -1.4 3.5 -11.7 -0.2 -8.6 -1.4 -10.3 -6.7 -9.5 -1.8 0.3 -4.9 0.7 -6.8 1 -1.9 0.3 -7 2.9 -11.2 5.8 -12.2 8.1 -28.3 15.8 -37 17.7 -4.2 1 -6.2 0.9 -10.5 -0.4 -10.3 -3 -14.9 -12.1 -16.8 -33.1 -1.1 -11.7 -1.1 -146.7 0 -161 0.9 -12.8 3 -25.5 4.2 -25.5 0.4 0 0.8 -0.8 0.8 -1.7 0 -3.5 4.8 -11.9 10 -17.6 11.8 -12.9 32.4 -18.5 64.5 -17.4 24.5 0.8 34.8 2.8 47.4 8.9 8.7 4.3 11.5 6.9 15.7 14.4 3.1 5.6 3.7 7.7 4.5 16.2 1 11.2 1.2 33.6 0.3 37.8 -0.5 2.5 -1.4 3.1 -6.2 4.7 -3.1 0.9 -7.2 2 -8.9 2.3 -1.8 0.4 -3.3 1 -3.3 1.4 0 0.5 -1.9 1.1 -4.2 1.5 -2.4 0.4 -5.9 1.3 -7.8 2 -1.9 0.7 -6.9 2.2 -11 3.4 -4.1 1.2 -9.5 2.8 -12 3.6 -2.5 0.7 -5.5 1.6 -6.7 2 l-2.3 0.6 0 -30.1 c0 -36 -0.2 -37 -9.3 -37 -4.9 0 -10.4 1.8 -11.4 3.8 -0.4 0.9 -0.9 27.1 -1.1 58.2 l-0.3 56.5 5.8 0 c3.2 0 7.3 0.4 9.1 0.8 3 0.8 3.2 0.7 3.2 -1.6 0 -1.3 0.9 -3.6 2 -5 1.1 -1.4 2 -3.3 2 -4.2 0 -1 1.8 -2.4 4.8 -3.7 2.6 -1.1 7.5 -3.3 11 -4.9 3.4 -1.6 6.6 -2.9 7.1 -2.9 0.5 0 2.2 -0.7 3.8 -1.5 4.3 -2.2 12.1 -5.5 13.2 -5.5 0.5 0 2.2 -0.7 3.8 -1.5 1.5 -0.8 5.1 -2.4 7.8 -3.5 2.8 -1.1 6.2 -2.7 7.7 -3.4 3.4 -1.8 3.5 -1.4 3.1 10.7 -0.2 8.2 0 9.9 1.3 10.4 0.9 0.3 1.9 0.1 2.3 -0.5 0.4 -0.7 2.9 -1.5 5.7 -1.8 2.7 -0.3 6.7 -1.2 8.9 -1.9 l4 -1.3 0.1 -62.6 c0.1 -34.5 0.3 -62.8 0.5 -63 0.2 -0.2 17.7 -0.5 38.8 -0.7 l38.4 -0.4 2.7 8 c1.5 4.4 4 12.1 5.4 17 3.2 10.4 8 24.1 10.7 30.2 1.1 2.3 1.9 4.8 1.9 5.5 0 1.5 1.9 3.8 3.2 3.8 0.5 0 1.7 -1.9 2.7 -4.2 2.8 -6.5 8 -18 9.5 -20.8 0.7 -1.4 2.3 -5.4 3.6 -9 1.3 -3.6 2.6 -6.9 3 -7.5 0.4 -0.5 1.7 -3.9 2.9 -7.5 1.2 -3.6 3.2 -8.7 4.4 -11.3 l2.2 -4.8 36.5 0.7 c20.1 0.4 36.6 0.8 36.8 0.9 0.2 0.2 0.3 33.7 0.3 74.4 -0.1 58.3 0.2 74.3 1.2 74.6 0.6 0.2 6.4 0.6 12.8 1 l11.6 0.6 -0.9 -5.8 c-1.2 -7.6 -1.6 -92.7 -0.6 -106.8 1.1 -14.6 4.1 -20.9 13.3 -28.1 11.8 -9.3 34.6 -14 63.4 -13.1 16.6 0.5 29.8 2 31.5 3.7 0.5 0.5 2 1 3.1 1 1.2 0 5 1.4 8.4 3.1 14.4 7.2 23.6 21.5 26.3 40.9 1 7.6 2.3 72.2 1.5 74.4 -0.5 1.3 -1.2 1.3 -4.9 0.2 -2.4 -0.8 -7.7 -2.4 -11.8 -3.6 -4.1 -1.2 -8.4 -2.6 -9.5 -3.1 -1.1 -0.5 -3.8 -1.3 -6 -1.9 -11.4 -2.8 -17.1 -4.4 -17.5 -5 -0.3 -0.4 -2.3 -1 -4.5 -1.4 -2.2 -0.4 -5.2 -1.3 -6.7 -1.9 l-2.8 -1.2 0 -34.2 c0 -32.6 -0.1 -34.4 -1.9 -36.2 -3.8 -3.8 -15.2 -4 -17.8 -0.4 -1 1.3 -1.3 18.2 -1.3 76.9 0 41.6 0.4 76.3 0.9 77.6 0.8 2.2 4.8 6.7 8.3 9.5 2.5 1.9 8.3 3.1 10.1 2.1 1.5 -0.8 1.7 -3.7 1.7 -26.3 0 -22.1 0.2 -25.5 1.5 -25.5 0.8 0 9.5 3.4 19.3 7.6 9.7 4.2 18.8 8 20.2 8.6 1.4 0.6 7 2.9 12.5 5.3 l10 4.2 0.3 20.9 c0.4 34.3 -2.1 48.5 -9.9 56.5 -5 5.1 -9.4 6.2 -17.8 4.4 -7.5 -1.6 -12 -3.3 -20.4 -7.7 -3.2 -1.6 -6.1 -2.8 -6.3 -2.5 -0.3 0.3 0.4 2.3 1.5 4.6 1.2 2.2 2.1 5.4 2.1 7 0 3.9 -4 7.1 -9 7.1 -3.9 0 -7 2.3 -7 5.4 0 2.9 -4.9 10.4 -8.8 13.4 -6 4.6 -10.4 6.2 -17.4 6.2 -11.2 0 -20.4 -6.1 -24.9 -16.5 -2.8 -6.6 -6.6 -10.5 -9.9 -10.5 -3.3 0 -6 2.8 -6 6.3 0 5.5 -2 5.8 -31.9 5.5 -29 -0.3 -29.6 -0.4 -30.6 -5.6 -0.2 -1.2 -0.7 -2.7 -1 -3.2 -0.4 -0.6 -8.3 -1 -20.2 -1 l-19.5 0 -4 -4.5 -4 -4.5 -21.5 0 c-20.6 0 -21.6 0.1 -26.8 2.4 -5.5 2.6 -5.7 2.9 -7.5 10.9 -1.6 7.4 -6.6 13.6 -14.1 17.6 -6 3.1 -6.9 3.3 -13.9 2.9 -5.9 -0.4 -8.4 -1 -11.6 -3 -5.2 -3.3 -11 -10.1 -12.4 -14.4 -1.5 -4.3 -2.6 -4.3 -3.4 0 -0.9 4.7 -8 12.4 -14.1 15.2 -4.9 2.3 -13.5 3.1 -19 1.7z m15.1 -19.9 c2.5 -2.6 3.4 -4.5 3.4 -6.9 0 -2.4 -0.9 -4.3 -3.4 -6.9 -2.8 -3 -4 -3.6 -7.5 -3.6 -5.3 0 -8.7 2.2 -10.1 6.6 -1.5 4.4 -0.5 8.8 2.6 11.9 1.9 1.9 3.5 2.5 7.1 2.5 3.9 0 5 -0.5 7.9 -3.6z m55 0 c3.7 -3.9 4.2 -6.9 1.9 -11.4 -2.1 -4 -5.3 -6 -9.8 -6 -4.9 0 -8.3 2.3 -9.7 6.6 -1.5 4.4 -0.5 8.8 2.6 11.9 1.9 1.9 3.5 2.5 7.1 2.5 3.9 0 5 -0.5 7.9 -3.6z m232.4 2.3 c4.4 -3.5 6 -8.9 3.9 -13 -2.6 -5 -5.1 -6.7 -9.8 -6.7 -6.6 0.1 -11.1 4.3 -11.1 10.5 0 3.2 2.4 8.1 4.7 9.4 2.5 1.4 10.5 1.3 12.3 -0.2z m-51.9 -3.8 c0.6 -1.3 1 -5.2 0.7 -9.6 -0.4 -8.7 -1.7 -10.3 -8.2 -10.3 -6.2 0 -6.7 0.7 -6.5 8.9 0.2 7.7 -0.1 8.7 -2.6 7.8 -1.2 -0.5 -1.5 -2.4 -1.5 -8.7 l0 -8 -6.9 0 c-10.2 0 -10.1 -0.1 -10.1 9.1 0 7.2 -0.2 7.9 -2 7.9 -1.7 0 -1.9 -0.8 -2.2 -8.2 l-0.3 -8.3 -5.8 0 c-4 0 -6.1 0.5 -6.7 1.5 -1.1 1.7 -1.4 18.3 -0.3 19.3 0.3 0.4 12 0.7 25.9 0.7 24.8 0 25.4 0 26.5 -2.1z m-276.8 -12.9 c0.8 -3.6 8.2 -11.8 12.9 -14.2 9.6 -4.8 10.3 -5 22 -4.6 10.1 0.3 11.9 0.6 17 3.2 3.1 1.5 7 4.1 8.8 5.7 l3.2 3 3.8 -3.5 c7 -6.3 14.5 -9 23.9 -8.4 8.3 0.5 18.6 5.2 23 10.6 3.7 4.5 4.6 3.6 5.6 -5.1 0.7 -5.6 0.5 -6.2 -1.6 -7.9 -2 -1.6 -3.6 -1.8 -9.9 -1.3 -4.1 0.2 -22.9 0.6 -41.7 0.7 -18.7 0.2 -33.9 0.6 -33.7 0.9 0.2 0.3 -1.8 0.2 -4.4 -0.2 -2.6 -0.4 -5.5 -0.3 -6.4 0.2 -0.9 0.5 -4.2 0.9 -7.2 0.9 -5.4 0 -5.7 0.1 -12.1 6.1 -6.4 6.1 -6.5 6.3 -6.5 11.4 0 7.2 2.1 8.8 3.3 2.5z m292.3 -9.8 c2.6 -8.8 7.5 -15.6 13.7 -18.9 2.4 -1.3 5.7 -1.8 13.7 -1.8 9.2 0 11.1 0.3 15 2.4 4.8 2.5 11.8 7.7 13.6 10 1.3 1.7 3.4 0.6 3.4 -1.7 0 -2 -3.4 -12 -5.6 -16.8 -1.2 -2.5 -3.4 -4.1 -10.2 -7.4 -4.8 -2.3 -9.5 -4.6 -10.4 -5.1 -1 -0.5 -3.4 -1.3 -5.5 -1.9 -11.7 -3 -17.3 -4.7 -17.9 -5.3 -0.4 -0.4 -4 -0.7 -7.9 -0.7 l-7.2 0 -0.6 24.7 c-0.6 21.3 -0.5 25 0.8 27 2.1 3.2 3.2 2.2 5.1 -4.5z m-67.6 -2.6 l3 -2.5 0 -24.5 c0 -23.9 0.1 -24.6 2 -24.6 1.9 0 2 -0.7 2 -13.6 l0 -13.6 19.4 0.7 c10.7 0.3 20.7 1 22.2 1.4 2.6 0.7 3.1 1.5 5.7 11.2 1.5 5.7 2.9 12 3 13.9 l0.2 3.5 -25.7 0.3 -25.8 0.2 0 14.6 0 14.6 5.8 -5 c3.1 -2.8 7.9 -7.3 10.7 -10.1 2.7 -2.8 5.2 -5.1 5.6 -5.1 0.4 0 1.9 2.5 3.3 5.5 1.4 3 2.8 5.5 3.1 5.5 0.3 0 5.3 -2.7 11 -6.1 7.4 -4.3 10.5 -6.7 10.5 -8 0 -1.1 1.7 -3 4.1 -4.6 3.2 -2.1 3.9 -3.1 3.4 -4.7 -2.6 -8.6 -4.6 -17.3 -4.3 -19.5 0.2 -2.1 0.9 -2.7 4.1 -3.2 2 -0.3 4 -0.9 4.4 -1.3 2.2 -2.1 -11.3 -7 -24.2 -8.7 -11.9 -1.5 -27.3 -2.2 -29.3 -1.3 -1 0.4 -4.4 1.3 -7.7 1.8 -5.8 1.1 -6 1.2 -6.3 4.3 -0.2 2.2 -1.2 3.9 -3.3 5.3 l-2.9 2.1 0 39.3 c0 21.6 0.3 39.6 0.7 40 0.4 0.4 1.1 -0.6 1.5 -2.2 0.5 -1.7 2.2 -4.2 3.8 -5.6z m78.5 2.3 c6.3 -6.5 11.7 -8.9 20.1 -8.9 6.3 0 15.9 2.3 17 4.1 0.3 0.5 0.9 0.9 1.5 0.9 3.2 0 -2.9 -7.3 -8.5 -10.1 -2.9 -1.5 -6.8 -2.2 -13.1 -2.6 -8.7 -0.5 -9.1 -0.4 -13.8 2.6 -3.5 2.3 -5.4 4.4 -6.8 7.7 -2.4 5.3 -3.6 11.4 -2.3 11.4 0.5 0 3.2 -2.3 5.9 -5.1z m-333.5 -3.8 c0 -8.8 -1.5 -14.6 -3 -12.1 -2.1 3.3 -0.7 20 1.6 20 1.1 0 1.4 -1.9 1.4 -7.9z m310.4 -7.8 c0.7 -4.8 0.8 -25.3 0 -25.3 -0.9 0 -19.8 11.4 -20.5 12.4 -1.1 1.5 -2.8 -0.3 -5.5 -5.6 l-2.5 -5 -5.2 4.9 c-2.8 2.6 -7.5 7 -10.4 9.7 -4.3 4.1 -5.3 5.5 -5.3 8.2 l0 3.4 16.8 0.3 c9.2 0.1 20.1 0.4 24.3 0.5 l7.6 0.2 0.7 -3.7z m-114.6 0.2 c0.6 -0.3 1.2 -1.3 1.2 -2.3 0 -2.3 -11.7 -18.2 -13.4 -18.2 -1.8 0 -4.2 2.6 -8.6 9.5 -3.7 5.6 -5 10.2 -3.3 11.9 0.7 0.7 21.5 -0.1 24.1 -0.9z m47.9 -16.7 c-0.4 -9.9 -0.7 -27.8 -0.7 -39.5 l0 -21.4 -2.7 0.3 -2.8 0.3 -0.5 15.6 c-0.3 9.2 -1 16.2 -1.6 17 -1.3 1.6 -2.8 39.9 -1.8 43.7 0.6 1.9 1.3 2.2 5.7 2.2 l5 0 -0.6 -18.2z m-82.5 15.6 c2.5 -1.2 5 -4.4 10.6 -13.9 7.8 -13.2 8.9 -16.4 11.8 -34.1 2.9 -18.3 0.8 -22.1 -17.4 -31.7 -26.3 -13.8 -60.1 -20.3 -93 -17.7 -13.4 1 -15.5 1.5 -23.7 4.9 -4.9 2.1 -9.7 4 -10.5 4.3 -2 0.7 -10.2 16.5 -13.1 25.3 -1.8 5.4 -2.3 9.3 -2.3 17.2 -0.1 9.5 0.1 10.3 2.4 12.8 3 3.3 23.7 13.7 37.5 18.9 5.5 2.1 10.7 4.2 11.7 4.7 0.9 0.4 3.9 1.1 6.8 1.5 2.8 0.4 5.7 1.2 6.4 1.9 0.9 0.9 9.7 1.4 32.2 1.9 l30.9 0.7 2.5 2.5 c2.9 2.8 3 2.9 7.2 0.8z m-126.1 -2 c2.1 -2.6 -0.2 -17.8 -3.2 -21 -3.2 -3.4 -8.2 -3.1 -8.7 0.6 -0.8 5 1 19 2.5 20.5 1.9 2 7.7 1.9 9.4 -0.1z m37.7 -1.5 c-0.4 -2.6 0.1 -2.3 -15.2 -8.7 -14.5 -6.1 -16.1 -6 -16.1 1.6 0.1 4.1 0.5 5.4 2.5 7.1 2.2 1.8 3.9 2 15.8 2.1 13.1 0 13.3 0 13 -2.1z m137.2 -3 c0 -2.3 -1 -6.2 -2.2 -8.6 -2.2 -4.3 -2.3 -4.4 -6.3 -3.8 -8.8 1.4 -8.9 1.6 -4.3 8.3 5.3 7.7 5.9 8.2 9.5 8.2 3.2 0 3.3 -0.1 3.3 -4.1z m-236 -3.1 c3.8 -2.9 8.7 -6.5 11 -8 4 -2.7 5.5 -6.8 2.6 -6.8 -2.4 0 -17.2 8.4 -22 12.5 -3.1 2.6 -4.6 4.7 -4.6 6.3 0 2.2 0.3 2.4 3.1 1.8 1.6 -0.3 6.1 -2.9 9.9 -5.8z m253.3 3.7 c1.1 -1 1.5 -4.2 1.6 -12 l0.2 -10.5 -4.4 0 c-6.2 0 -9.7 3.8 -9.7 10.4 0 5.4 1.2 8.2 4.9 11.3 3 2.6 5.4 2.9 7.4 0.8z m-213.5 -7.8 c0.3 -2.5 0.1 -2.7 -3.5 -2.7 -2.1 0 -4.4 0.4 -5.1 0.8 -2 1.3 -0.3 4 2.6 4.4 4.7 0.6 5.7 0.2 6 -2.5z m-50.4 -2.8 c6.4 -5.9 7.3 -8.9 2.5 -8.9 -4.4 0 -12.9 7.3 -12.9 11.2 0 4.5 3.8 3.7 10.4 -2.3z m49 -4.5 c0.9 -0.3 1.6 -1.5 1.6 -2.5 0 -1.6 -0.8 -1.9 -5 -1.9 -4.3 0 -5 0.3 -5 1.9 0 1.4 0.8 2.1 2.8 2.4 1.5 0.2 3 0.5 3.4 0.6 0.3 0 1.3 -0.2 2.2 -0.5z m195.9 -3 c0.9 -0.3 1.7 -1.4 1.7 -2.5 0 -4.2 -8.4 -9.1 -18.8 -10.9 -4 -0.7 -4.4 -0.5 -5.3 1.8 -1.2 3.1 -0.2 9.1 2 11.5 1.4 1.7 2.6 1.8 10.1 1.2 4.7 -0.3 9.3 -0.9 10.3 -1.1z m-196.9 -7 c0.9 -0.3 1.6 -1.5 1.6 -2.5 0 -1.6 -0.8 -1.9 -5 -1.9 -4.2 0 -5 0.3 -5 1.8 0 1 0.3 2.2 0.7 2.5 0.8 0.9 5.6 0.9 7.7 0.1z m213.5 -3.1 c3.9 -2.3 4.6 -4 2.1 -5.3 -2 -1 -2 -2.5 -2 -72 0 -67.6 -0.1 -71 -1.8 -71 -1 0 -2.4 1.4 -3.3 3.2 -0.8 1.8 -4.4 8.5 -7.8 14.8 -3.5 6.3 -7.6 13.8 -9.1 16.5 -1.5 2.8 -5.9 10.6 -9.7 17.5 -3.8 6.9 -9.2 16.6 -11.8 21.5 -2.7 5 -5.7 10.4 -6.7 12 -0.9 1.7 -2.2 4.2 -2.8 5.8 -0.7 1.5 -1.5 2.7 -1.8 2.7 -0.6 0 -14.1 -22.9 -22.1 -37.2 -3.2 -5.7 -5.5 -9.8 -8.8 -15.3 -9.6 -16 -18.5 -32.5 -19.3 -35.8 -1 -4.7 -1.3 -5.1 -3.9 -4.2 -2.1 0.6 -2.1 1 -2.1 40.5 l0 39.9 3.8 0.7 c2 0.4 4.2 1 4.7 1.4 0.6 0.4 2.8 1 5 1.4 9.4 1.6 29.6 9 40.5 14.8 16.4 8.7 22.9 16.2 21.6 25.1 -1 7.8 5.5 18.6 11.4 18.7 0.8 0 3.5 1.4 6 3 5.4 3.5 13 4 17.9 1.3z m-213.1 -9 c0.3 -2.1 -0.1 -2.3 -4.2 -2.3 -3.9 0 -4.6 0.3 -4.6 1.9 0 2.3 1.5 3.1 5.5 2.8 2.3 -0.2 3.1 -0.7 3.3 -2.4z m294.2 0 c0 -2 -3.8 -13.2 -6.1 -17.8 l-1.4 -3 -11.8 -0.3 -11.7 -0.3 0 8.8 c0 4.8 0.3 9.8 0.6 11 0.7 2.5 2.7 2.8 19.7 3.1 9.6 0.2 10.7 0 10.7 -1.5z m-329.2 -7.7 c3.4 -3.7 3.1 -9.6 -0.8 -12.4 -4 -3 -7.8 -2.8 -11.2 0.5 -3.8 3.7 -3.9 9.3 -0.2 12.2 3.7 2.9 9.2 2.8 12.2 -0.3z m34.2 -2.1 c0 -2.3 -0.4 -2.5 -4.5 -2.5 -3.7 0 -4.5 0.3 -4.5 1.8 0 2.7 0.9 3.2 5.2 3.2 3.4 0 3.8 -0.3 3.8 -2.5z m-0.8 -8.1 c0.3 -0.3 0.4 -1.4 0.1 -2.5 -0.4 -1.5 -1.4 -1.9 -4.4 -1.9 -4 0 -5.4 1.1 -4.5 3.5 0.5 1.5 7.6 2.2 8.8 0.9z m12.8 -9.8 c0 -0.6 0.9 -2.8 2 -4.8 l1.9 -3.7 -2.5 -2 c-1.5 -1.1 -5.1 -3.2 -8.2 -4.7 -10 -4.7 -25 -2.2 -26 4.4 -0.3 1.6 0.3 2.3 2.5 2.8 3.8 1 7.3 3.3 7.3 5 0 2.3 9.2 1.8 12.3 -0.6 4 -3.2 5.7 -2.6 5.7 1.9 0 2.2 0.5 4.1 1.3 4.4 1.4 0.5 3.7 -1.1 3.7 -2.7z"/>
 </g>
</svg>