<?xml version="1.0" encoding="UTF-8"?>
<!DOCTYPE svg PUBLIC "-//W3C//DTD SVG 1.1//EN" "http://www.w3.org/Graphics/SVG/1.1/DTD/svg11.dtd">
<svg version="1.1" xmlns="http://www.w3.org/2000/svg" xmlns:xlink="http://www.w3.org/1999/xlink" x="0" y="0" width="199.582" height="62.298" viewBox="0, 0, 199.582, 62.298">
  <g id="Layer_1">
    <g>
      <path d="M82.57,58.107 C82.945,58.96 83.8,59.369 84.795,59.369 C86.703,59.369 88.963,58.07 89.908,55.566 C90.848,53.082 89.608,52.21 88.272,51.357 C87.568,50.875 86.535,50.486 87.063,49.095 C87.439,48.093 88.412,47.574 89.172,47.574 C90.523,47.574 90.938,48.817 90.678,50.244 L91.346,50.244 L92.512,46.907 L91.846,46.907 L91.369,47.629 C91.009,46.944 90.225,46.721 89.385,46.721 C87.586,46.721 85.664,47.945 84.803,50.226 C84.033,52.265 84.814,53.193 85.938,53.916 C86.814,54.472 88.129,54.936 87.477,56.661 C87.043,57.81 85.908,58.515 85.008,58.515 C83.285,58.515 83.16,56.957 83.362,55.269 L82.741,55.269 L81.285,59.126 L81.967,59.126 z" fill="#0A0B09"/>
      <path d="M93.736,47.555 C95.242,47.555 94.881,48.39 94.299,49.929 L92.617,54.379 C91.16,58.236 92.517,59.369 95.233,59.369 C98.074,59.369 100.162,57.699 101.432,54.342 L102.74,50.875 C103.016,50.152 103.399,48.964 103.925,48.316 C104.361,47.779 104.891,47.648 105.392,47.555 L105.645,46.888 C105.016,46.907 104.365,46.944 103.74,46.962 C103.156,46.944 102.579,46.907 101.998,46.888 L101.745,47.555 C102.189,47.611 102.586,47.796 102.652,48.316 C102.73,48.89 102.217,50.207 101.965,50.875 L100.508,54.732 C99.66,56.976 98.188,58.162 96.248,58.162 C94.027,58.162 94.096,56.753 94.984,54.398 L96.674,49.929 C97.248,48.408 97.575,47.5 99.061,47.555 L99.313,46.888 C98.344,46.907 97.366,46.944 96.398,46.962 C95.598,46.944 94.789,46.907 93.99,46.888 z" fill="#0A0B09"/>
      <path d="M107.65,52.693 L109.178,48.65 C109.528,47.722 109.491,47.779 110.314,47.742 C111.616,47.742 111.887,48.668 111.313,50.189 C110.555,52.191 109.513,52.693 107.976,52.693 z M103.967,56.16 C103.391,57.681 103.094,58.552 101.625,58.497 L101.373,59.164 C102.279,59.145 103.115,59.108 103.961,59.089 C104.899,59.108 105.833,59.145 106.773,59.164 L107.025,58.497 C105.422,58.552 105.717,57.81 106.34,56.16 L107.328,53.545 L108.725,53.545 C110.447,53.545 112.908,52.785 113.867,50.244 C114.91,47.481 112.856,46.925 111.023,46.888 C110.209,46.907 109.373,46.944 108.558,46.962 C107.734,46.925 106.91,46.888 106.01,46.888 L105.758,47.555 C107.27,47.5 106.895,48.408 106.32,49.929 z" fill="#0A0B09"/>
      <path d="M117.27,52.693 L118.796,48.65 C119.147,47.722 119.111,47.779 119.932,47.742 C121.234,47.742 121.506,48.668 120.932,50.189 C120.174,52.191 119.131,52.693 117.596,52.693 z M113.584,56.16 C113.01,57.681 112.711,58.552 111.242,58.497 L110.99,59.164 C111.897,59.145 112.734,59.108 113.579,59.089 C114.52,59.108 115.451,59.145 116.391,59.164 L116.643,58.497 C115.039,58.552 115.336,57.81 115.959,56.16 L116.946,53.545 L118.344,53.545 C120.066,53.545 122.525,52.785 123.484,50.244 C124.529,47.481 122.475,46.925 120.642,46.888 C119.828,46.907 118.991,46.944 118.178,46.962 C117.352,46.925 116.528,46.888 115.629,46.888 L115.377,47.555 C116.888,47.5 116.513,48.408 115.939,49.929 z" fill="#0A0B09"/>
      <path d="M120.688,59.164 C121.578,59.145 122.461,59.108 123.352,59.089 C124.277,59.108 127.087,59.145 129.889,59.164 L131.336,55.623 L130.67,55.623 C129.441,57.718 128.457,58.31 126.703,58.31 C124.811,58.31 125.275,57.162 125.983,55.289 L128.023,49.892 C128.598,48.371 128.91,47.5 130.381,47.555 L130.633,46.888 C129.679,46.907 128.701,46.944 127.748,46.962 C126.933,46.944 126.141,46.907 125.324,46.888 L125.071,47.555 C126.582,47.5 126.223,48.371 125.648,49.892 L123.279,56.16 C122.705,57.681 122.408,58.552 120.939,58.497 z" fill="#0A0B09"/>
      <path d="M132.914,56.16 C132.34,57.681 132.057,58.552 130.571,58.497 L130.32,59.164 C131.18,59.145 132.049,59.108 132.91,59.089 C133.818,59.108 134.719,59.145 135.611,59.164 L135.865,58.497 C134.375,58.534 134.688,57.755 135.262,56.234 L137.643,49.929 C138.217,48.408 138.5,47.537 139.998,47.555 L140.25,46.888 C139.344,46.907 138.399,46.944 137.476,46.962 C136.629,46.944 135.804,46.907 134.957,46.888 L134.707,47.555 C136.225,47.518 135.85,48.39 135.27,49.929 z" fill="#0A0B09"/>
      <path d="M136.216,59.164 C137.107,59.145 137.99,59.108 138.881,59.089 C141.016,59.108 143.143,59.145 145.277,59.164 C145.453,58.664 145.604,58.181 145.775,57.681 C146.058,56.976 146.35,56.291 146.631,55.584 L146.01,55.584 C144.83,57.681 143.91,58.31 142.156,58.31 C140.324,58.31 140.791,57.199 141.449,55.455 L142.27,53.287 C143.697,53.287 143.988,53.583 143.638,55.289 L144.259,55.289 C144.531,54.529 144.795,53.75 145.066,52.989 C145.404,52.136 145.758,51.283 146.096,50.43 L145.475,50.43 C144.762,52.154 143.85,52.433 142.592,52.433 L143.888,49.001 C143.943,48.854 144.252,48.038 144.333,47.945 C144.504,47.742 145.498,47.742 145.683,47.742 C147.174,47.742 147.841,48.316 147.41,50.152 L148.078,50.152 L149.188,46.888 C147.287,46.907 145.365,46.944 143.463,46.962 C142.586,46.944 141.731,46.907 140.854,46.888 L140.601,47.555 C142.111,47.5 141.752,48.371 141.178,49.892 L138.809,56.16 C138.234,57.681 137.936,58.552 136.467,58.497 z" fill="#0A0B09"/>
      <path d="M147.412,58.107 C147.788,58.96 148.643,59.369 149.637,59.369 C151.545,59.369 153.804,58.07 154.75,55.566 C155.689,53.082 154.451,52.21 153.113,51.357 C152.41,50.875 151.379,50.486 151.902,49.095 C152.283,48.093 153.254,47.574 154.016,47.574 C155.365,47.574 155.779,48.817 155.52,50.244 L156.186,50.244 L157.356,46.907 L156.688,46.907 L156.213,47.629 C155.851,46.944 155.066,46.721 154.229,46.721 C152.428,46.721 150.508,47.945 149.645,50.226 C148.873,52.265 149.656,53.193 150.781,53.916 C151.656,54.472 152.971,54.936 152.32,56.661 C151.884,57.81 150.75,58.515 149.851,58.515 C148.127,58.515 148.002,56.957 148.205,55.269 L147.584,55.269 L146.127,59.126 L146.811,59.126 z" fill="#0A0B09"/>
      <path d="M153.738,62.298 C155.311,61.63 156.986,60.314 157.674,58.497 C158.079,57.42 158.087,56.252 157.047,56.252 C156.272,56.252 155.566,56.846 155.223,57.755 C154.936,58.515 155.15,59.256 155.804,59.256 C156.082,59.256 156.346,59.052 156.642,58.886 C156.005,60.407 154.959,61 153.701,61.779 z" fill="#0A0B09"/>
      <path d="M165.172,56.16 C164.598,57.681 164.316,58.552 162.832,58.497 L162.579,59.164 C163.439,59.145 164.307,59.108 165.168,59.089 C166.076,59.108 166.977,59.145 167.87,59.164 L168.123,58.497 C166.635,58.534 166.945,57.755 167.52,56.234 L169.902,49.929 C170.476,48.408 170.759,47.537 172.258,47.555 L172.51,46.888 C171.604,46.907 170.656,46.944 169.734,46.962 C168.888,46.944 168.064,46.907 167.217,46.888 L166.965,47.555 C168.484,47.518 168.108,48.39 167.527,49.929 z" fill="#0A0B09"/>
      <path d="M177.656,59.423 L178.417,59.423 L181.787,50.504 C182.02,49.892 182.446,48.761 182.881,48.223 C183.288,47.722 183.813,47.648 184.283,47.555 L184.535,46.888 C183.906,46.907 183.272,46.944 182.645,46.962 C182.061,46.944 181.484,46.907 180.902,46.888 L180.65,47.555 C182.096,47.629 181.586,48.984 181.053,50.392 L179.189,55.326 L176.246,46.888 C175.65,46.907 175.063,46.944 174.465,46.962 C173.976,46.944 173.508,46.907 173.02,46.888 L172.767,47.555 C173.586,47.648 173.662,47.982 173.844,48.817 L171.025,56.271 C170.528,57.587 170.148,58.347 168.804,58.497 L168.553,59.164 C169.149,59.145 169.754,59.108 170.35,59.089 C170.963,59.108 171.586,59.145 172.199,59.164 L172.451,58.497 C170.99,58.422 171.537,56.976 172.068,55.566 L174.232,49.836 z" fill="#0A0B09"/>
      <path d="M189.998,59.071 L190.619,59.071 L192.193,54.899 L191.574,54.899 C190.558,56.846 188.996,58.478 187.225,58.441 C184.772,58.404 185.1,55.603 186.059,53.063 C186.949,50.708 188.804,47.648 191.209,47.648 C192.807,47.648 193.325,48.947 192.979,50.726 L193.662,50.726 L194.994,46.833 L194.325,46.833 L193.693,47.89 C193.125,47.055 192.32,46.721 191.201,46.721 C188.037,46.721 184.734,49.465 183.299,53.267 C181.889,56.994 183.149,59.369 186.223,59.369 C187.432,59.369 188.83,58.998 190.108,57.996 z" fill="#0A0B09"/>
      <path d="M193.322,59.256 C194.037,59.256 194.846,58.552 195.162,57.718 C195.477,56.883 195.141,56.252 194.457,56.252 C193.759,56.252 192.955,56.902 192.641,57.736 C192.325,58.571 192.625,59.256 193.322,59.256" fill="#0A0B09"/>
      <path d="M176.836,20.952 C176.836,21.692 176.244,22.285 175.504,22.433 C174.317,22.137 173.429,20.656 171.801,21.396 C169.875,22.137 168.098,23.766 168.098,26.136 C168.986,26.877 170.32,26.136 170.912,27.173 C171.504,28.21 170.32,28.802 169.727,29.395 C167.949,29.987 167.505,28.21 166.024,28.358 C163.505,29.987 161.283,32.505 161.729,35.764 C162.172,37.69 163.525,38.734 165.432,39.467 C170.068,41.253 174.317,39.912 177.429,36.949 C178.91,35.171 181.428,32.801 180.244,30.135 C179.058,28.802 176.984,29.247 175.504,29.395 C174.615,29.839 173.429,30.58 173.134,31.617 C173.727,32.505 177.281,31.172 175.799,33.69 C175.059,34.431 173.578,35.171 172.395,34.431 C171.801,33.986 171.801,32.951 172.098,32.209 C173.578,29.839 175.799,27.617 178.91,27.321 C182.762,27.321 187.799,28.654 190.02,24.803 C190.316,24.21 190.908,23.174 190.316,22.433 C188.982,21.1 185.133,26.136 185.873,22.137 C187.058,21.248 188.391,20.359 190.02,20.804 C190.76,21.248 191.5,21.989 191.352,22.877 C191.057,25.544 188.836,27.766 186.762,28.951 C185.133,29.543 183.354,29.839 181.576,29.987 C181.873,36.06 176.244,39.763 171.357,41.837 C168.245,42.43 163.653,43.022 160.988,40.949 C159.803,39.912 158.914,38.283 159.357,36.504 C159.951,32.654 162.616,29.691 165.875,27.766 C167.505,27.173 166.616,25.1 167.801,24.063 C169.432,21.989 172.098,20.063 174.91,19.767 C175.652,19.916 176.688,20.063 176.836,20.952" fill="#0A0B09"/>
      <path d="M82.416,36.162 C82.792,37.015 83.647,37.423 84.641,37.423 C86.549,37.423 88.808,36.125 89.754,33.623 C90.693,31.137 89.455,30.266 88.117,29.413 C87.414,28.931 86.383,28.541 86.908,27.15 C87.287,26.149 88.258,25.63 89.02,25.63 C90.369,25.63 90.783,26.872 90.523,28.3 L91.191,28.3 L92.358,24.962 L91.691,24.962 L91.217,25.686 C90.856,25 90.07,24.777 89.232,24.777 C87.432,24.777 85.512,26 84.649,28.281 C83.877,30.321 84.66,31.249 85.785,31.972 C86.66,32.529 87.975,32.992 87.324,34.716 C86.889,35.866 85.754,36.571 84.856,36.571 C83.131,36.571 83.006,35.013 83.209,33.326 L82.588,33.326 L81.131,37.182 L81.814,37.182 z" fill="#0A0B09"/>
      <path d="M96.924,32.213 L101.55,26.909 C102.135,26.223 102.619,25.686 103.344,25.611 L103.598,24.943 C102.986,24.962 102.351,25 101.737,25.018 C101.217,25 100.719,24.962 100.199,24.943 L99.945,25.611 C100.49,25.611 101.031,25.741 100.729,26.539 C100.547,27.021 99.836,27.874 99.466,28.318 L96.848,31.304 L96.565,27.948 C96.535,27.614 96.447,26.779 96.588,26.409 C96.856,25.704 97.619,25.648 98.053,25.611 L98.305,24.943 C97.413,24.962 96.516,25 95.623,25.018 C94.856,25 94.078,24.962 93.308,24.943 L93.057,25.611 C93.778,25.833 93.778,26.038 93.883,26.872 L94.41,32.583 L93.792,34.215 C93.16,35.81 92.936,36.571 91.406,36.552 L91.153,37.219 C91.982,37.201 92.834,37.164 93.664,37.145 C94.635,37.164 95.583,37.201 96.554,37.219 L96.807,36.552 C95.232,36.608 95.565,35.81 96.167,34.215 z" fill="#0A0B09"/>
      <path d="M100.41,36.162 C100.785,37.015 101.641,37.423 102.634,37.423 C104.542,37.423 106.803,36.125 107.748,33.623 C108.688,31.137 107.447,30.266 106.111,29.413 C105.408,28.931 104.375,28.541 104.902,27.15 C105.279,26.149 106.252,25.63 107.012,25.63 C108.362,25.63 108.777,26.872 108.518,28.3 L109.186,28.3 L110.352,24.962 L109.686,24.962 L109.209,25.686 C108.85,25 108.064,24.777 107.225,24.777 C105.425,24.777 103.504,26 102.643,28.281 C101.873,30.321 102.653,31.249 103.777,31.972 C104.653,32.529 105.969,32.992 105.316,34.716 C104.883,35.866 103.746,36.571 102.848,36.571 C101.125,36.571 101,35.013 101.201,33.326 L100.582,33.326 L99.123,37.182 L99.808,37.182 z" fill="#0A0B09"/>
      <path d="M121.777,24.943 L111.783,24.943 L110.358,28.467 L111.025,28.467 C111.883,26.854 112.885,25.723 114.351,25.871 C115.293,25.963 115.274,25.889 114.77,27.225 L112.127,34.215 C111.506,35.866 111.24,36.608 109.678,36.552 L109.426,37.219 C110.35,37.201 111.277,37.164 112.2,37.145 C113.108,37.164 114.012,37.201 114.92,37.219 L115.172,36.552 C113.568,36.608 113.879,35.866 114.502,34.215 L117.145,27.225 C117.666,25.76 117.578,25.871 118.587,25.871 C119.938,25.871 120.307,26.909 119.873,28.467 L120.539,28.467 z" fill="#0A0B09"/>
      <path d="M117.754,37.219 C118.647,37.201 119.528,37.164 120.42,37.145 C122.555,37.164 124.683,37.201 126.818,37.219 C126.991,36.718 127.142,36.236 127.316,35.736 C127.598,35.031 127.888,34.345 128.17,33.64 L127.549,33.64 C126.369,35.736 125.447,36.367 123.693,36.367 C121.862,36.367 122.33,35.253 122.988,33.51 L123.809,31.341 C125.236,31.341 125.527,31.638 125.179,33.344 L125.799,33.344 C126.07,32.583 126.333,31.804 126.606,31.044 C126.943,30.191 127.296,29.339 127.634,28.486 L127.013,28.486 C126.299,30.21 125.388,30.488 124.131,30.488 L125.426,27.058 C125.483,26.909 125.791,26.093 125.873,26 C126.042,25.797 127.037,25.797 127.223,25.797 C128.713,25.797 129.381,26.372 128.949,28.207 L129.616,28.207 L130.727,24.943 C128.825,24.962 126.902,25 125.002,25.018 C124.125,25 123.27,24.962 122.392,24.943 L122.141,25.611 C123.65,25.555 123.291,26.427 122.716,27.948 L120.348,34.215 C119.773,35.736 119.476,36.608 118.008,36.552 z" fill="#0A0B09"/>
      <path d="M132.881,37.219 L133.627,37.219 L140.219,27.948 L140.25,27.948 L138.035,33.808 C137.859,34.271 137.561,35.068 137.254,35.587 C136.804,36.367 136.188,36.441 135.555,36.552 L135.303,37.219 C136.163,37.201 137,37.164 137.814,37.145 C138.737,37.164 139.641,37.201 140.564,37.219 L140.816,36.552 C140.27,36.441 139.707,36.367 139.846,35.587 C139.934,35.068 140.234,34.271 140.41,33.808 L142.608,27.985 C143.2,26.464 143.481,25.555 144.965,25.611 L145.217,24.943 C144.496,24.962 143.861,25 143.234,25.018 C142.65,25 142.074,24.962 141.492,24.943 L135.428,33.603 L135.656,24.943 C135,24.962 134.35,25 133.689,25.018 C133.138,25 132.578,24.962 132.025,24.943 L131.773,25.611 C132.313,25.667 132.875,25.778 132.91,26.427 L130.119,33.808 C129.945,34.271 129.645,35.068 129.34,35.587 C128.889,36.367 128.272,36.441 127.641,36.552 L127.388,37.219 C127.984,37.201 128.574,37.164 129.17,37.145 C129.815,37.164 130.438,37.201 131.082,37.219 L131.333,36.552 C130.889,36.497 130.41,36.367 130.373,35.81 C130.336,35.291 130.783,34.104 131.008,33.51 L133.16,27.818 L133.191,27.818 z" fill="#0A0B09"/>
      <path d="M142.606,36.162 C142.982,37.015 143.836,37.423 144.83,37.423 C146.738,37.423 148.998,36.125 149.943,33.623 C150.883,31.137 149.645,30.266 148.307,29.413 C147.604,28.931 146.571,28.541 147.098,27.15 C147.476,26.149 148.447,25.63 149.208,25.63 C150.558,25.63 150.973,26.872 150.713,28.3 L151.38,28.3 L152.549,24.962 L151.881,24.962 L151.406,25.686 C151.045,25 150.259,24.777 149.422,24.777 C147.621,24.777 145.7,26 144.838,28.281 C144.066,30.321 144.851,31.249 145.975,31.972 C146.851,32.529 148.164,32.992 147.513,34.716 C147.078,35.866 145.943,36.571 145.045,36.571 C143.32,36.571 143.195,35.013 143.399,33.326 L142.777,33.326 L141.32,37.182 L142.004,37.182 z" fill="#0A0B09"/>
      <path d="M88.914,15.127 L89.535,15.127 L91.111,10.955 L90.49,10.955 C89.477,12.901 87.913,14.534 86.143,14.497 C83.689,14.459 84.017,11.659 84.977,9.119 C85.866,6.764 87.721,3.704 90.127,3.704 C91.726,3.704 92.242,5.002 91.897,6.782 L92.58,6.782 L93.912,2.888 L93.244,2.888 L92.611,3.945 C92.043,3.11 91.238,2.777 90.12,2.777 C86.953,2.777 83.652,5.521 82.215,9.323 C80.807,13.05 82.068,15.424 85.141,15.424 C86.352,15.424 87.748,15.053 89.027,14.052 z" fill="#0A0B09"/>
      <path d="M100.938,3.63 C103.516,3.63 102.888,6.727 101.949,9.211 C100.982,11.771 99.35,14.57 96.805,14.57 C94.307,14.57 94.975,11.363 95.871,8.989 C96.768,6.615 98.455,3.63 100.938,3.63 M96.482,15.424 C99.617,15.424 103.184,13.05 104.676,9.1 C106.168,5.15 104.441,2.777 101.307,2.777 C98.188,2.777 94.645,5.132 93.145,9.1 C91.666,13.013 93.362,15.424 96.482,15.424" fill="#0A0B09"/>
      <path d="M113.971,3.63 C116.547,3.63 115.92,6.727 114.982,9.211 C114.016,11.771 112.383,14.57 109.836,14.57 C107.338,14.57 108.008,11.363 108.904,8.989 C109.801,6.615 111.488,3.63 113.971,3.63 M109.516,15.424 C112.649,15.424 116.216,13.05 117.708,9.1 C119.2,5.15 117.475,2.777 114.34,2.777 C111.221,2.777 107.678,5.132 106.178,9.1 C104.699,13.013 106.397,15.424 109.516,15.424" fill="#0A0B09"/>
      <path d="M125.402,9.1 C126.767,8.859 128.322,7.82 128.946,6.17 C129.438,4.872 129.287,3.871 128.461,3.389 C127.91,3.037 126.799,2.981 126.068,2.943 C125.225,2.962 124.37,3 123.525,3.018 C122.648,3 121.793,2.962 120.916,2.943 L120.663,3.611 C122.174,3.555 121.814,4.427 121.238,5.948 L118.873,12.216 C118.296,13.736 118,14.607 116.529,14.552 L116.277,15.219 C117.17,15.201 118.053,15.164 118.943,15.146 C119.82,15.164 120.708,15.201 121.586,15.219 L121.838,14.552 C120.328,14.607 120.671,13.736 121.245,12.216 L122.171,9.768 C122.248,9.768 122.35,9.75 122.426,9.75 C122.875,9.712 123.191,10.639 123.381,11.492 L124.178,15.219 C124.695,15.201 125.223,15.164 125.742,15.146 C126.246,15.164 126.745,15.201 127.25,15.219 L127.502,14.552 C127.108,14.441 126.926,14.311 126.754,13.903 C126.564,13.421 126.454,12.809 126.33,12.271 z M122.5,8.896 L123.699,5.725 C123.796,5.466 124.273,4.205 124.397,4 C124.527,3.778 125.047,3.796 125.219,3.796 C126.678,3.796 126.932,4.687 126.293,6.375 C125.6,8.21 124.579,8.896 123.09,8.896 z" fill="#0A0B09"/>
      <path d="M127.277,15.219 C128.123,15.201 128.991,15.164 129.836,15.146 C130.65,15.164 131.461,15.201 132.274,15.219 C133.705,15.257 135.315,14.979 136.865,13.792 C138.379,12.624 139.41,11.084 140.053,9.378 C140.775,7.468 140.887,5.781 140.143,4.501 C139.418,3.296 138.141,2.943 136.619,2.943 L131.916,2.943 L131.664,3.611 C133.176,3.555 132.815,4.427 132.24,5.948 L129.873,12.216 C129.299,13.736 129,14.607 127.529,14.552 z M135.195,4.408 C135.237,4.297 135.336,4.038 135.426,3.963 C135.584,3.833 135.986,3.796 136.111,3.796 C137.229,3.796 138.164,4.149 138.246,5.41 C138.309,6.522 137.881,8.024 137.41,9.267 C136.563,11.511 135.252,14.367 132.846,14.367 C132.287,14.367 131.889,14.107 131.933,13.458 C131.959,12.976 132.449,11.678 132.66,11.121 z" fill="#0A0B09"/>
      <path d="M141.354,12.216 C140.779,13.736 140.498,14.607 139.013,14.552 L138.762,15.219 C139.621,15.201 140.488,15.164 141.35,15.146 C142.258,15.164 143.16,15.201 144.053,15.219 L144.304,14.552 C142.816,14.589 143.127,13.81 143.7,12.29 L146.082,5.985 C146.656,4.464 146.939,3.593 148.439,3.611 L148.691,2.943 C147.783,2.962 146.838,3 145.916,3.018 C145.068,3 144.245,2.962 143.399,2.943 L143.147,3.611 C144.666,3.574 144.291,4.445 143.708,5.985 z" fill="#0A0B09"/>
      <path d="M153.838,15.479 L154.598,15.479 L157.969,6.56 C158.2,5.948 158.627,4.817 159.063,4.279 C159.471,3.778 159.994,3.704 160.463,3.611 L160.716,2.943 C160.09,2.962 159.453,3 158.825,3.018 C158.242,3 157.668,2.962 157.084,2.943 L156.832,3.611 C158.277,3.686 157.767,5.039 157.234,6.449 L155.37,11.381 L152.428,2.943 C151.832,2.962 151.244,3 150.647,3.018 C150.156,3 149.689,2.962 149.2,2.943 L148.947,3.611 C149.767,3.704 149.844,4.038 150.024,4.872 L147.207,12.327 C146.709,13.643 146.328,14.404 144.984,14.552 L144.732,15.219 C145.33,15.201 145.934,15.164 146.529,15.146 C147.145,15.164 147.767,15.201 148.381,15.219 L148.633,14.552 C147.171,14.478 147.717,13.031 148.25,11.622 L150.414,5.892 z" fill="#0A0B09"/>
      <path d="M160.954,10.509 L164.025,6.244 L163.779,10.509 z M160.311,11.437 L163.738,11.437 L163.666,12.494 C163.653,12.772 163.611,13.421 163.5,13.718 C163.197,14.515 162.389,14.478 161.895,14.552 L161.643,15.219 C162.457,15.201 163.293,15.164 164.107,15.146 C165.031,15.164 165.947,15.201 166.873,15.219 L167.125,14.552 C166.773,14.497 166.404,14.404 166.237,14.107 C166.066,13.736 166.107,12.809 166.127,12.308 L166.529,2.777 L165.785,2.777 L159.377,11.604 C158.539,12.753 157.417,14.534 156.137,14.552 L155.884,15.219 C156.482,15.201 157.086,15.164 157.682,15.146 C158.328,15.164 158.965,15.201 159.608,15.219 L159.861,14.552 C159.309,14.497 158.615,14.441 158.959,13.532 C159.148,13.031 159.606,12.438 159.92,11.975 z" fill="#0A0B09"/>
      <path d="M180.615,2.943 L170.619,2.943 L169.195,6.467 L169.862,6.467 C170.723,4.854 171.723,3.723 173.188,3.871 C174.13,3.963 174.111,3.889 173.607,5.225 L170.966,12.216 C170.344,13.866 170.078,14.607 168.516,14.552 L168.264,15.219 C169.186,15.201 170.115,15.164 171.039,15.146 C171.947,15.164 172.85,15.201 173.758,15.219 L174.01,14.552 C172.406,14.607 172.717,13.866 173.341,12.216 L175.982,5.225 C176.504,3.76 176.416,3.871 177.425,3.871 C178.774,3.871 179.143,4.909 178.709,6.467 L179.377,6.467 z" fill="#0A0B09"/>
      <path d="M176.592,15.219 C177.483,15.201 178.367,15.164 179.259,15.146 C181.395,15.164 183.522,15.201 185.656,15.219 C185.828,14.719 185.981,14.237 186.153,13.736 C186.436,13.031 186.727,12.345 187.008,11.641 L186.387,11.641 C185.207,13.736 184.285,14.367 182.533,14.367 C180.701,14.367 181.167,13.254 181.828,11.511 L182.647,9.341 C184.074,9.341 184.365,9.638 184.016,11.344 L184.637,11.344 C184.908,10.583 185.171,9.805 185.443,9.044 C185.781,8.192 186.134,7.339 186.473,6.485 L185.852,6.485 C185.138,8.21 184.225,8.488 182.969,8.488 L184.266,5.058 C184.32,4.909 184.629,4.093 184.711,4 C184.881,3.796 185.873,3.796 186.061,3.796 C187.55,3.796 188.217,4.372 187.788,6.207 L188.455,6.207 L189.564,2.943 C187.663,2.962 185.74,3 183.841,3.018 C182.963,3 182.107,2.962 181.23,2.943 L180.977,3.611 C182.488,3.555 182.129,4.427 181.555,5.948 L179.186,12.216 C178.611,13.736 178.313,14.607 176.844,14.552 z" fill="#0A0B09"/>
      <path d="M186.209,15.219 C187.055,15.201 187.924,15.164 188.768,15.146 C189.584,15.164 190.392,15.201 191.208,15.219 C192.637,15.257 194.246,14.979 195.799,13.792 C197.311,12.624 198.341,11.084 198.986,9.378 C199.708,7.468 199.817,5.781 199.074,4.501 C198.35,3.296 197.071,2.943 195.55,2.943 L190.85,2.943 L190.596,3.611 C192.107,3.555 191.746,4.427 191.172,5.948 L188.804,12.216 C188.23,13.736 187.932,14.607 186.462,14.552 z M194.127,4.408 C194.171,4.297 194.268,4.038 194.357,3.963 C194.516,3.833 194.918,3.796 195.042,3.796 C196.16,3.796 197.098,4.149 197.18,5.41 C197.24,6.522 196.813,8.024 196.342,9.267 C195.495,11.511 194.183,14.367 191.777,14.367 C191.219,14.367 190.82,14.107 190.865,13.458 C190.891,12.976 191.381,11.678 191.592,11.121 z" fill="#0A0B09"/>
      <path d="M64.35,0.097 C64.638,0.384 64.541,0.864 64.445,1.151 L38.17,1.343 C36.922,1.727 35.675,2.302 34.62,3.549 L11.125,43.541 C10.74,44.691 10.932,46.226 11.796,46.993 C12.275,47.472 13.138,48.335 13.522,47.376 C21.098,34.142 28.482,21.579 36.348,8.248 C38.744,5.755 41.62,3.741 45.361,3.645 L70.199,3.645 C70.583,3.837 70.487,4.316 70.392,4.604 C64.35,4.892 58.02,4.508 51.979,4.796 C48.143,5.467 47.375,9.399 45.361,12.084 L29.057,39.896 C27.715,42.582 25.797,45.17 24.455,47.952 C25.893,48.24 27.524,48.047 28.867,47.952 L50.061,11.797 C51.979,9.303 55.049,7.865 58.212,7.289 C64.063,7.193 70.104,7.193 76.049,7.289 C76.241,7.481 76.241,7.865 76.147,8.152 C71.447,8.824 65.502,6.714 62.145,10.262 L59.268,14.961 L42.389,44.116 C41.524,45.458 40.856,46.706 40.375,48.047 L44.379,47.879 C44.666,48.072 44.594,48.911 44.498,49.103 L39.416,49.39 C36.731,54.761 32.895,60.324 26.373,60.899 L8.152,60.899 C7.863,60.803 7.768,60.324 7.863,60.035 C11.604,59.843 15.633,60.035 19.371,59.843 C24.263,58.693 25.221,53.035 27.908,49.486 L27.811,49.294 C26.469,49.103 24.84,49.006 23.495,49.39 C21.482,53.226 17.454,56.103 13.042,56.391 L0,56.295 L0,55.432 C3.645,55.144 8.248,56.199 10.262,52.939 L12.275,49.486 C11.604,48.719 10.357,49.103 9.59,48.624 C5.945,47.088 3.453,44.116 3.453,39.896 C3.356,38.074 3.932,36.541 4.699,35.101 L22.441,5.275 C24.934,2.014 28.867,0.097 33.182,0 z" fill="#0A0B09"/>
    </g>
  </g>
</svg>
