<?xml version="1.0" encoding="UTF-8"?>
<!DOCTYPE svg PUBLIC "-//W3C//DTD SVG 1.1//EN" "http://www.w3.org/Graphics/SVG/1.1/DTD/svg11.dtd">
<svg version="1.1" xmlns="http://www.w3.org/2000/svg" xmlns:xlink="http://www.w3.org/1999/xlink" x="0" y="0" width="900" height="250" viewBox="0, 0, 900, 250">
  <g id="Layer_1">
    <g>
      <path d="M324.179,198.724 C322.929,195.524 303.629,141.724 303.629,141.574 C303.629,141.424 306.729,141.424 310.529,141.474 L317.379,141.624 L323.929,161.124 C327.529,171.874 330.679,180.624 330.879,180.624 C331.129,180.624 334.229,171.774 337.829,161.024 L344.379,141.374 L350.729,141.374 L357.029,141.374 L363.629,161.124 C367.229,171.974 370.379,180.874 370.529,180.874 C370.729,180.874 373.829,172.024 377.429,161.274 L383.979,141.624 L390.779,141.474 C394.529,141.424 397.629,141.524 397.629,141.774 C397.629,142.024 396.279,146.024 394.579,150.674 C392.929,155.324 390.479,162.174 389.129,165.874 C387.829,169.574 384.729,178.274 382.229,185.124 C379.779,192.024 377.579,198.124 377.379,198.774 C377.079,199.824 376.879,199.874 370.479,199.874 L363.879,199.824 L357.479,180.374 C353.929,169.624 350.879,160.874 350.629,160.874 C350.379,160.874 349.979,161.624 349.729,162.524 C349.479,163.374 346.629,172.174 343.379,182.024 L337.429,199.874 L331.029,199.874 C324.729,199.874 324.579,199.824 324.179,198.724 z" fill="#6B6C6B"/>
      <path d="M398.829,198.024 C399.229,196.974 403.529,186.774 408.379,175.374 C413.279,163.974 418.379,151.924 419.729,148.624 C421.079,145.324 422.579,142.274 423.079,141.874 C423.729,141.274 425.129,141.174 429.679,141.274 L435.479,141.424 L447.529,169.774 C454.129,185.374 459.729,198.524 459.929,199.024 C460.229,199.824 459.779,199.874 453.429,199.774 L446.579,199.624 L444.029,193.224 L441.479,186.874 L428.929,186.974 L416.429,187.124 L413.879,193.374 L411.329,199.624 L404.729,199.774 L398.179,199.924 L398.829,198.024 z M436.279,175.024 C436.679,174.374 429.479,157.324 428.929,157.524 C428.429,157.674 421.729,173.624 421.679,174.774 C421.629,175.224 423.379,175.374 428.829,175.374 C432.829,175.374 436.179,175.224 436.279,175.024 z" fill="#6B6C6B"/>
      <path d="M474.629,170.874 C474.629,146.374 474.729,141.874 475.329,141.524 C475.729,141.324 478.679,141.174 481.829,141.274 L487.629,141.424 L487.629,153.974 L487.629,166.524 L488.679,165.574 C489.279,165.074 494.579,159.424 500.429,153.074 C506.329,146.674 511.429,141.374 511.779,141.324 C512.079,141.224 515.629,141.224 519.629,141.374 L526.879,141.624 L515.379,153.574 C509.079,160.124 503.879,165.874 503.929,166.324 C503.929,166.774 509.179,174.174 515.579,182.774 C521.979,191.374 527.329,198.774 527.479,199.174 C527.729,199.774 526.629,199.874 520.079,199.774 L512.429,199.624 L503.679,187.524 C498.829,180.824 494.679,175.424 494.379,175.524 C494.129,175.574 492.479,177.124 490.779,178.924 L487.629,182.224 L487.629,191.024 L487.629,199.874 L481.129,199.874 L474.629,199.874 L474.629,170.874 z" fill="#6B6C6B"/>
      <path d="M542.629,170.674 C542.629,154.574 542.779,141.374 543.029,141.274 C543.229,141.174 553.129,141.174 565.029,141.274 L586.679,141.424 L586.529,147.024 L586.379,152.624 L571.029,152.774 L555.629,152.874 L555.629,158.624 L555.629,164.374 L569.079,164.374 C580.879,164.374 582.579,164.474 582.829,165.174 C583.179,166.124 583.229,174.524 582.879,175.474 C582.679,175.974 579.929,176.124 569.129,176.074 L555.629,176.024 L555.629,182.224 L555.629,188.374 L571.379,188.374 L587.129,188.374 L587.129,194.124 L587.129,199.874 L564.879,199.874 L542.629,199.874 L542.629,170.674 z" fill="#6B6C6B"/>
      <path d="M605.129,171.174 C605.129,155.374 605.229,142.174 605.379,141.774 C605.579,141.224 609.729,141.124 627.779,141.224 L649.879,141.324 L650.029,147.074 L650.179,152.874 L634.129,152.874 L618.129,152.874 L618.129,159.124 L618.129,165.374 L631.879,165.374 L645.629,165.374 L645.629,171.374 L645.629,177.374 L631.879,177.374 L618.129,177.374 L618.129,188.624 L618.129,199.874 L611.629,199.874 L605.129,199.874 L605.129,171.174 z" fill="#6B6C6B"/>
      <path d="M667.629,170.624 C667.629,147.574 667.779,141.374 668.279,141.374 C672.979,141.274 678.629,141.274 679.529,141.324 L680.629,141.374 L680.629,170.624 L680.629,199.874 L674.129,199.874 L667.629,199.874 L667.629,170.624 z" fill="#6B6C6B"/>
      <path d="M699.629,170.374 L699.629,140.874 L721.529,140.974 L743.379,141.124 L743.379,146.774 L743.379,152.424 L728.129,152.524 L712.879,152.624 L712.729,158.524 L712.579,164.374 L726.079,164.374 C733.479,164.374 739.679,164.524 739.779,164.774 C739.929,164.974 739.879,167.574 739.679,170.574 L739.379,176.074 L726.029,176.024 L712.629,176.024 L712.629,182.224 L712.629,188.374 L728.379,188.374 L744.129,188.374 L744.129,194.124 L744.129,199.874 L721.879,199.874 L699.629,199.874 L699.629,170.374 z" fill="#6B6C6B"/>
      <path d="M763.479,199.524 C763.079,199.174 762.979,142.824 763.379,141.774 C763.629,141.224 768.679,141.024 775.729,141.374 C775.929,141.374 776.179,151.874 776.229,164.774 L776.379,188.124 L791.029,188.274 L805.679,188.374 L805.529,194.024 L805.379,199.624 L784.579,199.774 C773.179,199.824 763.679,199.724 763.479,199.524 z" fill="#6B6C6B"/>
      <path d="M821.229,170.624 L821.379,141.324 L834.879,141.324 C847.129,141.274 848.779,141.374 852.629,142.374 C863.179,145.074 870.879,152.074 873.879,161.674 C875.929,168.174 875.179,177.474 872.029,183.874 C869.779,188.524 864.079,194.124 859.129,196.574 C853.379,199.374 849.629,199.874 834.329,199.874 L821.129,199.874 L821.229,170.624 z M847.679,187.874 C857.579,185.974 863.129,177.224 861.129,166.624 C860.379,162.674 857.679,158.224 854.829,156.274 C850.929,153.574 849.379,153.224 841.529,152.974 L834.129,152.774 L834.129,170.574 L834.129,188.374 L839.579,188.374 C842.529,188.374 846.179,188.124 847.679,187.874 z" fill="#6B6C6B"/>
      <path d="M329.779,120.324 C319.379,118.574 310.429,110.724 306.829,100.124 C304.929,94.574 304.879,86.974 306.779,81.224 C309.979,71.424 318.229,63.724 328.379,61.124 C332.379,60.074 339.979,60.074 344.379,61.074 C348.679,62.124 354.229,64.724 356.829,67.024 L358.829,68.724 L355.579,72.624 C353.829,74.724 352.029,76.974 351.579,77.524 C350.729,78.574 350.729,78.574 348.929,76.974 C343.179,71.974 335.079,70.824 328.379,74.124 C319.929,78.224 316.429,89.974 320.929,99.224 C322.579,102.674 326.829,106.524 330.529,107.874 C336.529,110.174 344.329,108.474 349.329,103.874 L351.629,101.774 L355.629,105.674 C357.829,107.824 359.629,109.874 359.629,110.174 C359.629,111.324 353.929,115.924 350.379,117.674 C344.529,120.574 336.979,121.524 329.779,120.324 z" fill="#6B6C6B"/>
      <path d="M393.179,120.124 C384.429,118.174 378.929,112.824 376.279,103.824 C375.629,101.624 375.429,97.574 375.279,82.224 C375.129,71.774 375.179,62.774 375.329,62.224 C375.579,61.174 375.779,61.124 381.829,61.274 L388.079,61.424 L388.229,80.274 C388.379,97.324 388.479,99.324 389.329,101.374 C391.329,106.224 395.229,108.824 400.379,108.874 C406.229,108.874 409.779,106.924 411.979,102.424 L413.379,99.624 L413.529,80.524 L413.679,61.424 L418.529,61.274 C421.179,61.174 424.129,61.174 425.029,61.274 L426.679,61.424 L426.479,81.274 C426.329,97.474 426.129,101.624 425.529,103.724 C423.079,111.774 417.729,117.474 410.629,119.624 C406.729,120.774 397.229,121.074 393.179,120.124 z" fill="#6B6C6B"/>
      <path d="M458.379,120.124 C453.479,119.224 448.629,117.274 444.579,114.574 C442.679,113.324 441.029,112.074 440.829,111.824 C440.679,111.574 441.879,109.774 443.479,107.824 C445.079,105.874 446.729,103.824 447.179,103.274 C447.929,102.274 448.029,102.324 451.379,104.574 C453.279,105.824 456.079,107.324 457.579,107.924 C461.029,109.224 466.679,109.674 469.479,108.924 C472.079,108.224 474.129,105.924 474.129,103.724 C474.079,100.474 471.379,98.774 462.679,96.374 C448.879,92.624 444.729,89.424 443.079,81.174 C441.779,74.774 444.679,67.574 450.029,63.974 C453.879,61.374 456.279,60.724 462.679,60.474 C467.529,60.324 469.129,60.474 472.429,61.374 C476.779,62.574 481.629,64.724 483.779,66.474 L485.179,67.624 L482.079,72.274 C480.379,74.774 478.779,76.874 478.529,76.874 C478.229,76.874 475.979,75.874 473.479,74.624 C465.829,70.824 460.329,70.574 457.029,73.874 C454.479,76.424 455.529,80.024 459.379,81.874 C460.629,82.474 464.679,83.824 468.379,84.924 C479.029,87.974 483.129,90.424 485.479,95.274 C486.729,97.774 486.879,98.674 486.829,102.624 C486.779,106.424 486.579,107.624 485.379,110.274 C481.629,118.624 471.079,122.474 458.379,120.124 z" fill="#6B6C6B"/>
      <path d="M830.279,120.174 C825.079,118.474 820.529,114.424 818.229,109.474 C816.329,105.274 816.329,99.824 818.329,95.524 C819.629,92.674 824.729,86.924 825.979,86.874 C826.179,86.874 826.779,86.524 827.329,86.124 C828.229,85.474 828.179,85.324 826.529,83.024 C823.079,78.224 822.329,74.024 824.079,69.424 C825.479,65.674 827.379,63.574 830.879,61.824 C840.929,56.924 852.629,63.774 852.629,74.624 C852.629,78.574 851.379,81.574 848.279,84.874 C846.529,86.774 845.679,88.074 845.929,88.474 C846.129,88.824 847.679,90.674 849.329,92.574 L852.329,95.974 L855.379,92.624 L858.379,89.274 L862.279,93.324 C864.379,95.524 866.129,97.624 866.129,97.924 C866.129,98.224 864.779,99.924 863.129,101.724 C861.479,103.524 860.129,105.224 860.129,105.474 C860.129,105.724 862.879,109.024 866.229,112.774 L872.379,119.624 L864.879,119.774 C856.479,119.924 857.579,120.324 853.829,115.624 L852.279,113.674 L849.829,115.774 C845.879,119.074 842.179,120.524 836.879,120.724 C833.979,120.824 831.629,120.624 830.279,120.174 z M839.879,109.374 C840.979,108.824 842.679,107.624 843.579,106.724 L845.179,105.024 L840.579,99.424 C838.079,96.374 835.729,93.874 835.379,93.874 C834.329,93.874 830.529,96.974 829.279,98.824 C826.979,102.224 828.179,106.624 832.079,109.224 C834.229,110.674 837.129,110.724 839.879,109.374 z M840.329,78.724 C841.279,77.824 842.229,76.474 842.379,75.724 C842.879,73.824 841.829,71.574 840.079,70.874 C836.129,69.224 832.579,73.374 834.979,76.874 C836.129,78.624 837.729,80.374 838.179,80.374 C838.379,80.374 839.329,79.624 840.329,78.724 z" fill="#6B6C6B"/>
      <path d="M504.629,119.524 C504.629,119.274 504.629,106.424 504.629,90.874 C504.629,75.324 504.629,62.274 504.629,61.874 C504.629,61.224 505.579,61.124 510.479,61.224 C513.729,61.274 516.679,61.324 517.029,61.324 C517.479,61.374 517.629,64.024 517.629,72.874 L517.629,84.374 L529.379,84.374 L541.129,84.374 L541.229,72.824 L541.379,61.324 L547.629,61.274 L553.879,61.274 L554.029,90.574 L554.129,119.874 L547.629,119.874 L541.129,119.874 L541.029,108.274 L540.879,96.624 L529.279,96.474 L517.629,96.374 L517.629,108.124 L517.629,119.874 L511.129,119.874 C507.579,119.874 504.629,119.724 504.629,119.524 z" fill="#6B6C6B"/>
      <path d="M575.529,119.524 C575.429,119.274 575.429,106.074 575.529,90.124 L575.629,61.124 L582.529,61.274 L589.379,61.424 L596.279,72.524 C604.629,85.974 604.529,85.874 605.129,84.874 C605.379,84.474 608.779,78.974 612.729,72.674 L619.879,61.224 L623.879,61.224 C626.079,61.224 629.179,61.274 630.779,61.274 L633.629,61.374 L633.629,90.624 L633.629,119.924 L627.579,119.774 L621.579,119.624 L621.629,100.974 C621.629,87.674 621.529,82.374 621.129,82.624 C620.829,82.824 616.979,88.374 612.579,94.974 L604.529,107.024 L596.479,94.724 C592.029,87.974 588.229,82.424 588.029,82.424 C587.779,82.374 587.629,90.824 587.629,101.124 L587.629,119.874 L581.679,119.874 C578.379,119.874 575.629,119.724 575.529,119.524 z" fill="#6B6C6B"/>
      <path d="M648.629,119.474 C648.629,118.974 649.929,115.874 661.729,88.124 C667.279,75.174 671.979,64.024 672.229,63.224 C672.529,62.474 673.129,61.674 673.579,61.474 C674.029,61.274 676.929,61.224 680.079,61.374 L685.779,61.624 L693.929,80.874 C698.479,91.474 703.929,104.324 706.129,109.474 C708.329,114.574 710.129,119.024 710.129,119.324 C710.129,119.674 707.929,119.874 703.529,119.874 L696.879,119.874 L694.379,113.474 L691.829,107.124 L679.329,106.974 L666.779,106.874 L664.129,113.374 L661.479,119.874 L655.079,119.874 C651.529,119.874 648.629,119.724 648.629,119.474 z M686.629,94.874 C686.629,94.624 685.729,92.174 684.629,89.524 C683.479,86.824 681.879,82.874 681.029,80.724 C680.179,78.574 679.329,77.024 679.079,77.224 C678.729,77.624 672.329,92.774 671.779,94.524 C671.529,95.324 672.079,95.374 679.079,95.374 C683.729,95.374 686.629,95.174 686.629,94.874 z" fill="#6B6C6B"/>
      <path d="M725.229,90.574 L725.379,61.274 L731.079,61.324 C734.529,61.324 736.979,61.524 737.329,61.874 C737.629,62.174 743.629,70.224 750.629,79.724 C757.629,89.274 763.679,97.124 764.029,97.274 C764.479,97.424 764.629,93.624 764.629,79.274 L764.629,61.124 L770.729,61.174 L776.879,61.224 L777.029,90.574 L777.129,119.874 L771.229,119.874 L765.329,119.874 L752.079,102.274 C744.829,92.624 738.629,84.624 738.329,84.524 C737.729,84.324 737.729,84.674 737.679,107.774 L737.629,119.874 L731.379,119.874 L725.129,119.874 L725.229,90.574 z" fill="#6B6C6B"/>
    </g>
    <g>
      <path d="M134.479,199.874 L129.579,199.624 L129.629,118.374 C129.629,54.224 129.779,37.024 130.279,36.574 C132.529,34.574 139.579,29.524 139.829,29.724 C140.279,30.174 140.179,199.774 139.779,199.974 C139.529,200.074 137.179,200.024 134.479,199.874 z" fill="#EA1C2C"/>
      <path d="M25.079,199.674 C24.979,199.574 24.929,187.974 25.029,173.974 L25.129,148.474 L29.929,144.924 C32.529,142.924 34.929,141.224 35.279,141.074 C35.779,140.924 35.879,147.074 35.879,170.224 L35.879,199.624 L30.579,199.774 C27.679,199.824 25.229,199.824 25.079,199.674 z" fill="#EA1C2C"/>
      <path d="M46.129,199.024 C46.079,197.474 46.079,134.174 46.129,133.324 C46.129,132.874 47.779,131.324 49.779,129.824 C51.729,128.374 54.129,126.624 55.029,125.974 L56.629,124.774 L56.629,162.324 L56.629,199.874 L51.379,199.874 C46.729,199.874 46.129,199.774 46.129,199.024 z" fill="#EA1C2C"/>
      <path d="M66.629,158.774 C66.629,136.124 66.829,117.374 67.029,117.124 C67.579,116.274 76.679,109.374 77.179,109.374 C77.429,109.374 77.629,129.174 77.629,154.624 L77.629,199.874 L72.129,199.874 L66.629,199.874 L66.629,158.774 z" fill="#EA1C2C"/>
      <path d="M87.729,134.274 L87.879,68.624 L92.629,65.024 C95.229,63.024 97.679,61.374 98.029,61.374 C98.479,61.374 98.629,75.574 98.629,130.624 L98.629,199.874 L93.129,199.874 L87.629,199.874 L87.729,134.274 z" fill="#EA1C2C"/>
      <path d="M108.629,126.424 L108.629,52.924 L113.679,49.124 C116.479,47.024 118.829,45.424 118.979,45.524 C119.079,45.674 119.179,80.374 119.179,122.674 L119.129,199.624 L113.879,199.774 L108.629,199.924 L108.629,126.424 z" fill="#EA1C2C"/>
      <path d="M150.129,110.824 C150.129,56.324 150.329,21.874 150.579,21.974 C150.829,22.024 158.229,27.524 166.929,34.124 C175.679,40.724 187.279,49.474 192.729,53.574 L202.629,61.024 L202.629,130.424 L202.629,199.874 L176.379,199.874 L150.129,199.874 L150.129,110.824 z" fill="#EA1C2C"/>
      <path d="M212.629,150.874 C212.629,123.924 212.779,101.874 212.979,101.874 C213.279,101.874 236.629,119.424 258.979,136.374 L265.229,141.124 L265.229,170.374 L265.279,199.624 L238.979,199.774 L212.629,199.874 L212.629,150.874 z" fill="#EA1C2C"/>
    </g>
  </g>
</svg>
