<svg height="371" preserveAspectRatio="xMidYMid meet" viewBox="0 0 1084 371" width="1084" xmlns="http://www.w3.org/2000/svg"><g fill="#fff"><path d="m0 185.5v-185.5h542 542v185.5 185.5h-542-542zm682.55 154.2c-.95-1.25-1.05-2-1.05-10 0-7.4-.1-8.7-.75-8.7s-.75 1.15-.75 7.45c0 7.75.35 9.5 2.1 11.45 1.45 1.5 1.7 1.4.45-.2zm-271.05-13.9c0-12.6-.1-14.75-.75-15s-.75 1.5-.75 13.9c0 7.85-.15 14.55-.3 15-.2.6 0 .8.75.8 1.05 0 1.05-.1 1.05-14.7zm73 4.95c0-8.35-.1-9.75-.75-9.75s-.75 1.4-.75 9.75.1 9.75.75 9.75.75-1.4.75-9.75zm13.5-6c0-13.65-.1-15.75-.75-15.75s-.75 2.1-.75 15.75.1 15.75.75 15.75.75-2.1.75-15.75zm15.5 6c0-8.35-.1-9.75-.75-9.75s-.75 1.4-.75 9.75.1 9.75.75 9.75.75-1.4.75-9.75zm32 0c0-8.35-.1-9.75-.75-9.75s-.75 1.4-.75 9.75.1 9.75.75 9.75.75-1.4.75-9.75zm66.2 8.15c-.8-.9-1.5-1.75-1.55-1.85-.1-.1-.15.6-.15 1.6 0 1.75.1 1.85 1.6 1.85h1.6zm55.3-14.15c0-13.65-.1-15.75-.75-15.75s-.75 2.1-.75 15.75.1 15.75.75 15.75.75-2.1.75-15.75zm29 6c0-8.35-.1-9.75-.75-9.75s-.75 1.35-.75 8.95c0 4.95.15 9.3.3 9.75.9 2.3 1.2-.15 1.2-8.95zm32.5 0c0-8.35-.1-9.75-.75-9.75s-.75 1.4-.75 9.75.1 9.75.75 9.75.75-1.4.75-9.75zm41 1.9c0-8.2-.3-11.65-1.05-11.65-.25 0-.45 4.4-.45 9.75 0 8.35.1 9.75.75 9.75s.75-1.2.75-7.85zm14.5.6c0-7.25-.5-10.1-2-11-.45-.3-.45-.15-.05.65.35.65.55 4.25.55 9.3 0 7.05.1 8.3.75 8.3s.75-1.15.75-7.25zm-256.9-6.85c-.1-10.1-.3-13.4-.7-13-.85.85-.85 24 0 25.5.35.6.7 1.1.75 1.1s.05-6.1-.05-13.6zm-80.2-1.05c-.6-2-.65-1.8-.8 4.05-.1 3.95.1 6.9.5 8.25.6 2 .65 1.8.8-4.05.1-3.95-.1-6.9-.5-8.25zm263.1.8c0-9.4-.15-13.2-.55-12.8-.8.8-1.2 21.35-.5 24.05.35 1.15.7 2.1.8 2.1.15 0 .25-6 .25-13.35zm-275.4 11c-.25-2.85-.4-3-1.05-1.7-.55.95-.55 1.4 0 2.35.9 1.7 1.3 1.5 1.05-.65zm24.1-2.25c-.4-1.45-.7-4-.75-5.65l-.05-3-.7 2.25c-.8 2.4-.45 4.55 1.1 7.65 1.05 2 1.15 1.7.4-1.25zm98.75-.4c-.3-1.25-.45-3.9-.35-5.95.15-3.55.15-3.65-.5-2-1 2.35-.95 6.3.05 8.65 1.1 2.5 1.45 2.15.8-.7zm80.8-3.7c0-5.85-.3-6.3-1.25-2.2-.5 1.9-.45 2.85.2 5.1.45 1.55.9 2.8.95 2.8s.1-2.55.1-5.7zm102-.35c0-5.2-.05-5.4-.7-3.85-.85 1.95-.9 6.05-.1 8.05.3.75.6 1.35.65 1.35.1 0 .15-2.5.15-5.55zm-84.45 1.9c.35-2.3-.1-5.9-.95-7.05-.5-.65-.55.3-.45 4.8.15 5.55.7 6.4 1.4 2.25zm101.95-2.1c0-1.95-.3-4-.7-4.65-.35-.65-.65-1.1-.7-1-.05.05-.05 2.65.05 5.65.15 4.5.3 5.3.75 4.5.35-.55.6-2.55.6-4.5zm-128.85.55c-.2-.8-.95-2.1-1.7-2.85-1.3-1.35-1.95-1.7-8.95-4.5-5.1-2.1-6.25-3.3-6.3-6.65l-.05-2.55-.65 1.75c-1.2 3.15.25 6.1 3.85 7.9 1.2.6 3.9 1.8 6.1 2.65 5.15 2.1 7.3 3.95 7.35 6.4.05 1.6.1 1.65.4.55.2-.7.2-1.9-.05-2.7zm-36.4 2.2c-.55-1.05-3.05-2.5-6.1-3.45-1-.35-2.65-1.15-3.65-1.8l-1.75-1.2.8 1.2c.8 1.2 3 2.4 7.3 3.95 1.25.45 2.6 1.2 2.9 1.6.9 1 1.15.85.5-.3zm213.7-.25c-.45-.7-.85-1.25-.9-1.25-.7 0-8.7-3.7-9.45-4.35-1-.9-1-.9-.15.45.9 1.35 2.95 2.5 7.4 4.1 1.25.45 2.6 1.2 2.9 1.6 1 1.15 1.1.8.2-.55zm-234.25-5.35c0-.65-.2-1.6-.45-2.15-.35-.75-.45-.5-.45 1.15-.05 1.15.2 2.1.45 2.1.3 0 .5-.5.45-1.1zm-136.45-3.7c0-.4-.2-.7-.45-.7-.55 0-1.1 1.3-.7 1.7.45.45 1.15-.15 1.15-1zm36.5 0c0-.8-.8-.95-1.25-.2-.4.65.2 1.6.8 1.25.25-.2.45-.65.45-1.05zm-43.7-12.45c-.15-.4-.7-.75-1.25-.75-1 0-1 .05.1 1.15s1.7.95 1.15-.4zm199.2.25c0-.55-.35-1-.75-1-.65 0-.65.15-.15 1 .35.55.7 1 .75 1 .1 0 .15-.45.15-1zm-142.7-1.05c.5-.85-.65-1.8-1.35-1.1-.6.6-.2 1.65.55 1.65.25 0 .6-.25.8-.55zm29 0c.5-.85-.65-1.8-1.35-1.1-.6.6-.2 1.65.55 1.65.25 0 .6-.25.8-.55zm32 0c.5-.85-.65-1.8-1.35-1.1-.6.6-.2 1.65.55 1.65.25 0 .6-.25.8-.55zm183 0c.15-.3.1-.75-.1-.95-.6-.6-1.9.25-1.5.95.45.7 1.15.7 1.6 0zm-604.4-76.95c.1-10.85 0-22.95-.15-26.85l-.35-7.1-3.7 2.8-3.7 2.75v24.25 24.2l3.9-.15 3.85-.15zm20.6-14.75c0-19.1-.15-34.75-.3-34.75-.75 0-7.15 5.2-7.3 5.9-.1.4-.1 14.9 0 32.2l.1 31.4h3.75 3.75zm21-8c0-23.5-.1-42.75-.25-42.75-.35 0-6.9 5.1-7.35 5.75-.2.25-.4 18.35-.4 40.15v39.6h4 4zm21-24.3v-67.05l-1.85 1.35c-1.05.8-2.85 2.2-4 3.1l-2.15 1.7v64 63.95h4 4zm20.6-7.3c.1-40.95.05-74.55-.1-74.75s-1.9.9-3.85 2.4l-3.65 2.75v72 71.95h3.75 3.75zm20.9-8.4v-82.75l-3.75 2.8-3.75 2.8v79.95 79.95h3.75 3.75zm62.5 14.8v-67.95l-5.6-4.2c-3.1-2.3-14.05-10.5-24.25-18.25-10.25-7.75-18.85-14.2-19.15-14.4-.35-.2-.5 28.05-.5 86.2v86.55h24.75 24.75zm62.6 67.6c.1-.25.1-12.8 0-28l-.15-27.55-9.85-7.45c-25.15-19.05-38.4-29-38.95-29.35-.5-.3-.65 9.1-.65 46.15v46.55h24.7c13.6 0 24.8-.15 24.9-.35zm78.15-17.5c3.25-9.85 6.1-18.65 6.35-19.5.4-1.5.6-1.65 2.4-1.65h1.95l6.4 19.5 6.4 19.45 5.1.05c4.85 0 5.1-.05 5.4-1.1.2-.65 2.45-7 5-14.15 2.6-7.15 6.65-18.4 9-25s4.5-12.5 4.75-13.15c.9-2.05.7-2.15-4.35-2l-4.8.15-6.55 19.65-6.55 19.6h-1.85-1.8l-6.6-19.75-6.6-19.75h-4.8-4.85l-6.55 19.65-6.55 19.6h-1.9-1.9l-6.55-19.5-6.55-19.5-4.95-.15c-4.55-.15-4.9-.05-4.6.75.2.5 4.55 12.45 9.6 26.6 5.1 14.1 9.45 26.2 9.7 26.85.45 1.15.65 1.2 5.4 1.2h4.9l5.95-17.85zm70.5 11.35 2.55-6.25 14-.15 14.05-.1 2.55 6.35 2.55 6.4 4.75.15 4.75.15-2.75-6.4c-1.5-3.5-6.8-16.05-11.8-27.8l-9.1-21.4-4.75.15c-4.5.15-4.8.2-5.4 1.4-.35.7-4.6 10.6-9.45 22s-9.9 23.3-11.2 26.4l-2.45 5.65 4.6-.15 4.55-.15zm73.75-2.35.05-8.9 3.2-3.35c2.9-3.05 3.45-3.4 5.1-3.4 1.9 0 1.9.05 10.7 12.15l8.75 12.1 5.1.15c2.8.05 5.1 0 5.1-.15s-4.95-6.95-11-15.1c-9.95-13.4-11-15.05-11-16.8 0-1.9.45-2.45 10.3-12.65l10.3-10.7h-4.95-5l-11.5 12.4c-10.6 11.45-11.55 12.35-13.3 12.5l-1.85.15v-12.55-12.55l-4.85.15-4.9.15-.15 27.65-.1 27.6h5 5zm99.5 4.6v-4.25h-15.75-15.75v-7.75-7.75l13.65-.1 13.6-.15.15-3c.1-1.6.05-3.45-.15-4.1l-.25-1.15h-13.5-13.5v-7.25-7.25l15.4-.1 15.35-.15.15-4.1.15-4.15h-20.55-20.5v27.75 27.75h20.75 20.75zm31-7v-11.25h13.75 13.75v-4.5-4.5h-13.75-13.75v-7.75-7.75h16 16v-4.25-4.25l-20.85.1-20.9.15-.15 27.65-.1 27.6h5 5zm62.5-16.5v-27.75h-5-5v27.75 27.75h5 5zm63.5 23.5v-4.25h-15.75-15.75v-7.75-7.75h13.5 13.5v-4.25-4.25h-13.5-13.55l.15-7.35.15-7.4 15.4-.15 15.4-.1-.15-4.15-.15-4.1-20.35-.15-20.4-.1v28 28h20.75 20.75zm61.4-.1.15-4.15-14.65-.1-14.65-.15-.15-23.4-.1-23.4-4.9.15-4.85.15-.15 27c-.05 14.85 0 27.3.15 27.65.15.5 4.35.6 19.6.5l19.4-.15zm45.95 3.6c5.95-1.1 10.65-3.7 15.2-8.2 4.35-4.4 6.55-8.3 7.75-14.05 2.3-11-3.65-23.1-14.05-28.6-6.35-3.3-9.95-3.9-23.95-3.9h-12.3v27.75 27.75h11.7c8.25 0 12.85-.2 15.65-.75zm-508.1-79c4.4-.95 9.8-3.55 12.95-6.35l2.4-2.15-2.8-2.65-2.85-2.6-1.85 1.45c-3.55 2.85-6.3 3.75-12.35 3.95-4.7.15-5.9.05-8.35-.9-3.7-1.35-7.95-5.2-9.6-8.65-2.95-6-2.8-15.15.3-20.95 3.3-6.15 8.35-9 16.4-9.05 5.5-.05 7.7.45 11.65 2.85l2.85 1.75 2.55-3.05c1.35-1.65 2.4-3.25 2.35-3.5-.35-.95-6.2-4.2-9.7-5.35-4.7-1.6-11.4-1.95-15.7-.85-16.65 4.15-26.85 21-21.8 36.05 4.9 14.5 19.15 23 33.55 20zm67.25-.55c7.1-2.05 12.5-7.8 14.9-15.85.6-2.1.8-6.2.95-20.95l.25-18.4h-5.05-5l-.15 19.15-.15 19.1-1.4 2.8c-1.45 3-3.9 5.1-6.9 5.95s-10.45.6-12.7-.45c-2.55-1.2-4.85-3.65-6.05-6.55-.85-2.05-.95-4.05-1.1-21.15l-.15-18.9-4.85.15-4.85.15v17.75c0 13.35.15 18.45.7 20.5 2.95 11.95 11.95 18.45 24.55 17.75 2.35-.1 5.5-.6 7-1.05zm59.9.8c1.7-.3 4.35-1 5.85-1.55 8.35-3.15 12.75-13.1 9.05-20.6-2.3-4.75-6.45-7.25-17.05-10.3-11.3-3.25-12.75-4.4-12.75-9.8 0-2.45.2-3 1.4-4.25 3.45-3.4 11-3.3 18.55.25 2 .95 3.75 1.75 3.8 1.75.1 0 1.15-1.45 2.4-3.2l2.2-3.15-2.55-1.55c-1.4-.85-4.35-2.15-6.55-2.95-3.35-1.15-4.85-1.35-9.25-1.4-6.15 0-8.4.55-12.35 3.25-3.5 2.35-6 5.9-6.95 9.85-.6 2.5-.6 3.3.05 5.85 1.85 7.2 6.05 10.2 19.15 13.8 9.9 2.65 11.55 3.95 11.6 8.85 0 5.4-2.5 7.15-10.25 7.15-5.2 0-9.15-1.05-13.5-3.55l-3.5-2-2.35 2.65c-1.3 1.45-2.3 2.9-2.25 3.15.3.95 5.65 4.2 9.1 5.55 3.35 1.25 9.15 2.55 11.75 2.65.7 0 2.65-.2 4.4-.45zm373.85-1.2c1.65-.75 4.05-2.25 5.35-3.35 3.55-3 5.1-2.8 8.1 1.05l2.35 3h4.8 4.8l-.95-1.1c-.5-.65-2.7-3.1-4.8-5.45-3.45-3.85-3.9-4.55-3.9-6.3 0-1.65.4-2.4 2.55-4.85l2.6-2.85-2.7-2.75-2.7-2.75-2.15 2.55c-1.8 2.05-2.45 2.5-3.85 2.5-1.45 0-2.1-.5-4.95-3.75-4.35-5-4.4-6.15-.6-10.25 2.6-2.85 4.3-6.3 4.3-8.75 0-4.5-4.65-10.35-9.45-11.9-3.85-1.2-5.95-1.05-9.45.7-3.55 1.75-5.7 4.35-6.95 8.3-.75 2.45-.75 2.7.1 5 .5 1.3 1.65 3.45 2.55 4.7 1.15 1.55 1.7 2.9 1.7 4.05 0 1.45-.3 1.85-1.85 2.8-5 2.8-9.35 9.55-9.35 14.35.05 3.25 1.95 7.45 4.75 10.5 5.5 6 12.7 7.65 19.7 4.55zm-326.75-11.05v-11.75l13.15.1 13.1.15.15 11.65.1 11.6h5 5v-27.75-27.75h-5-5v11.5 11.5h-13.25-13.25v-11.5-11.5h-5-5v27.75 27.75h5 5zm70-7v-18.75l1.9.05h1.85l7.2 11c3.95 6 7.35 10.95 7.5 10.95s3.55-4.9 7.55-10.9c7.15-10.7 7.3-10.85 9.15-11l1.85-.15v18.75 18.8h4.5 4.5v-27.75-27.75h-5.45-5.45l-7.45 12c-7.4 11.95-7.4 12-9.15 12-2 0-1.7.45-11.3-15.1l-5.45-8.9h-5.35-5.4v27.75 27.75h4.5 4.5zm76.5 12.25 2.65-6.5 14.05.1 14 .15 2.55 6.35 2.5 6.4h4.7c3.75 0 4.6-.15 4.4-.7-.15-.35-1.75-4.15-3.55-8.35-1.8-4.25-6.95-16.35-11.5-26.95l-8.15-19.25-4.85-.15-4.85-.15-.75 1.9c-.45 1.05-5.25 12.35-10.7 25.15s-10.4 24.45-10.95 25.9l-1.05 2.6h4.45 4.4zm73.5-11.3v-17.75l2.1.15 2.1.15 13.15 17.5 13.15 17.5 4.5.15 4.5.15v-27.8-27.75h-4.75-4.75v18.05 18l-2.1-.15-2.1-.15-13.05-17.75-13.1-17.75-4.55-.15-4.6-.15v27.8 27.75h4.75 4.75z"/><path d="m510.05 229.9c0-1.45 1.1-4.8 3.4-10.4l3.35-8.25 2-.15 1.95-.15 3.65 8.85c2.45 5.9 3.6 9.4 3.5 10.4l-.15 1.55-8.85.15-8.9.1z"/><path d="m922.5 225.7v-19.3l8.9.2c7 .15 9.25.35 10.85 1.05 7.85 3.45 11.25 10.05 10.6 20.45-.35 5.3-1.7 8.65-4.8 11.75-4.1 4.1-8 5.15-18.6 5.15h-6.95z"/><path d="m920.45 165.85c-2.95-2-3.95-4-3.95-8.1 0-4.2.9-5.9 4.4-8.6 1.7-1.3 2.65-1.65 4.35-1.65 2.1 0 2.15.05 6.7 5.55 5.5 6.65 5.75 7.75 2.5 10.7-2.8 2.5-4.8 3.25-8.85 3.25-2.75 0-3.8-.25-5.15-1.15z"/><path d="m925.15 135.9c-2.15-2.45-2.65-3.6-2.65-6.4.05-4.05 1.55-5.5 5.7-5.5 2.8 0 4.55.75 5.25 2.35.8 1.7.7 5.45-.2 7.15-1.7 3.3-6.1 4.6-8.1 2.4z"/><path d="m760.15 149.65c.1-1.4 1.65-5.8 3.7-10.65l3.5-8.25 1.75-.15 1.75-.15 1.55 3.9c.85 2.15 2.45 6.1 3.6 8.8 1.2 2.9 2 5.65 2 6.85v2h-9.05-9.05z"/></g><g fill="#6b6c6b"><path d="m608.8 343.15c-.5-.55-.35-10.65.2-10.65.25 0 1.35 1.2 2.4 2.65 3.45 4.55 5.4 5.85 8.95 5.85 3.9 0 6.65-2.7 6.65-6.6 0-2.8-2.5-4.65-10.4-7.65-4.7-1.75-6.9-3.85-7.4-7-.75-5.15 2.1-9.6 7.15-11.05 2.45-.7 3.35-.75 6.2-.2 2.45.4 3.65.45 4.4.05 1.95-1.05 2.1-.75 1.95 4.1-.2 5.4-.75 5.85-2.8 2.1-2.3-4.25-6.55-5.85-10-3.75-1.8 1.1-2.6 2.7-2.6 5.2 0 2.35 1.65 3.85 6.25 5.75 7.2 2.9 7.8 3.2 9.25 4.85 3.05 3.5 2.3 10.1-1.55 13.4-2.85 2.4-5.9 3-11.55 2.25-3.8-.5-4.5-.5-5.6.2-.65.45-1.3.65-1.5.5z"/><path d="m462.15 342.45c-4.15-1.25-7.45-7.3-7-12.65.6-6.85 5.1-11.6 10.8-11.5 3.2.05 5.45 1.05 7.05 3.05 1.7 2.2.65 5.65-1.75 5.65-1.2 0-2.75-1.4-2.75-2.55 0-.4.35-1.3.7-2.05.7-1.3.65-1.45-.25-1.95-.55-.25-1.9-.55-3-.6-1.75-.05-2.3.2-3.7 1.7-1.1 1.2-1.85 2.7-2.2 4.4-.7 3.4-.7 4.25.2 7.8 1.55 6 5.9 7.9 10.9 4.75 3-1.9 3.6-1.9 2.6 0-1.7 3.35-7.4 5.25-11.6 3.95z"/><path d="m527.55 342.6c-.65-.2-1.7-1-2.25-1.75-.95-1.3-1.05-2.2-1.2-10.4l-.2-8.95h-1.95c-2.6 0-2.45-.8.3-2l2.25-.95v-3.25c0-3.1.05-3.3 1.5-4.05.8-.4 1.7-.75 2-.75s.5 1.6.5 4.25v4.25l1.65.05c.85.05 1.8.05 2.05 0 .9-.2 3.3.55 3.3 1 0 .25-.75.45-1.6.45-.9 0-2.5.15-3.5.3l-1.9.35v8.2c0 11.15 1.1 13.2 5.2 9.65 2.85-2.5 2.95-.25.15 2.4-1.35 1.25-4.25 1.8-6.3 1.2z"/><path d="m560.75 342.1c-4.85-1.65-7.5-7.45-6.4-13.9.65-3.8 2.1-6.3 4.75-8.2 5.45-3.95 12.95-1.1 14.35 5.5 1.05 4.85 1.55 4.5-6.9 4.5-4.15 0-7.6.2-7.75.45-.2.25-.05 1.65.25 3.05.95 4.5 4.7 7.45 8.5 6.65.8-.15 2.45-1.15 3.65-2.2 2.4-2.15 3.4-1.85 2 .5-1.15 1.95-3.05 3.3-5.5 4-2.6.75-4 .65-6.95-.35zm8.2-14.05c1.25-.8.2-5-1.7-6.9-.9-.9-2-1.65-2.45-1.65-1.5 0-3.75 1.5-4.55 2.95-.85 1.75-1.75 5.4-1.35 5.8.45.45 9.3.25 10.05-.2z"/><path d="m578.85 342.65c-.35-.65-.1-7.1.3-7.5.25-.2 1.55.9 2.9 2.45 2.5 2.9 5.05 4.25 6.9 3.65 1.5-.45 2.6-2.05 2.65-3.8.05-2.05-1.55-3.55-5.2-4.7-5.75-1.9-7.8-4.3-7.2-8.4.7-4.55 4.9-6.95 10.05-5.8 2.15.5 2.85.45 3.5-.05.6-.5.8-.5 1 .15.5 1.2.05 6-.55 6.2-.35.1-1.1-.6-1.7-1.65-1.25-2-3.7-3.7-5.3-3.7-1.85 0-3.7 1.85-3.7 3.75 0 2.05 1.35 3.25 5.35 4.75 4.55 1.7 5.7 2.45 6.5 4.4.95 2.25.55 5.6-.85 7.6-1.95 2.7-7.35 3.7-10.65 1.95-.6-.35-1.2-.25-1.95.3-1.25.85-1.75.95-2.05.4z"/><path d="m642.45 342.35c-3.6-1.35-5.65-3.55-6.75-7.2-1.55-5.2-.35-10.7 3.1-14 2.85-2.75 5.35-3.45 9.6-2.75 3.55.6 5.9 2.1 7.65 4.9 1.35 2.2 1.9 8.25 1 11.5-.75 2.8-3.05 5.85-5.2 6.85-2.45 1.2-7.2 1.55-9.4.7zm7.7-2.25c1.75-1.55 2.5-3.75 2.75-8.1.25-5.2-.4-8-2.55-10.3-3.1-3.35-7.35-2.4-9.6 2.05-2 4.05-1 13.5 1.7 15.95 2.1 1.9 5.85 2.1 7.7.4z"/><path d="m682.05 342.4c-.65-.35-1.7-1.3-2.25-2.05-.95-1.3-1.05-2.2-1.2-10.1l-.15-8.65-1.8-.45c-2.8-.65-2.7-1.65.2-1.65 1.3 0 3.25-.15 4.3-.3l1.85-.35v9.05c0 8.75.05 9.1 1.15 10.4 1 1.1 1.6 1.35 3.45 1.35 1.25 0 3-.25 3.85-.65l1.55-.6v-8.45-8.4l-1.75-.35c-1.9-.35-2.75-1.1-1.65-1.4.35-.1 2.3-.35 4.25-.5l3.65-.3.1 10.35.15 10.35 1.65.4c2.8.75 1.6 1.65-2.3 1.8-2 .1-3.6-.05-3.6-.25s-.2-.7-.4-1.05c-.35-.5-.95-.35-2.7.65-2.75 1.55-6.65 2.05-8.35 1.15z"/><path d="m710.55 342.6c-.65-.2-1.7-1-2.25-1.75-.95-1.3-1.05-2.2-1.2-10.4l-.2-8.95h-1.95c-2.6 0-2.45-.8.3-2l2.25-.95v-3.25c0-3.1.05-3.3 1.5-4.05.8-.4 1.7-.75 2-.75s.5 1.6.5 4.25c0 4.7-.35 4.25 3.5 4.5.7.05 1.75.1 2.4.15 2.15.2 1.1 1.1-1.25 1.1-4.95 0-4.65-.55-4.65 9 0 4.65.15 8.8.3 9.25.8 2.05 4.05 1.85 5.65-.35.85-1.25 1.9-.45 1.15.9-1.5 2.8-5 4.2-8.05 3.3z"/><path d="m744.4 342.25c-4.2-1.35-6.65-4.85-7.2-10.1-.95-8.95 5.25-15.25 13.4-13.75 3.4.65 5.75 2.2 7.5 4.95 1 1.65 1.15 2.5 1.15 6.9 0 4.6-.1 5.2-1.4 7.4-.75 1.3-2.25 2.9-3.25 3.6-2.4 1.55-6.95 2-10.2 1zm7.85-2.25c1.9-1.75 2.9-6 2.65-10.7-.35-5.35-1.6-7.85-4.4-9-2.95-1.2-3.9-1-6 1.1-1.45 1.45-2 2.5-2.5 4.8-.75 3.75-.3 8.55 1.15 11.4 1.9 3.75 6.4 4.95 9.1 2.4z"/><path d="m792.85 342.65c-.35-.6-.05-7.15.35-7.55.2-.2.95.35 1.65 1.15 3.6 4.35 4.85 5.25 7.35 5.25 1.7 0 3.3-2 3.3-4.1 0-2.2-1.35-3.45-5.15-4.7-5.6-1.8-7.7-4.15-7.15-8 .35-2.75 1.1-4 3.2-5.3 1.65-1 2-1.05 8.5-.75.75 0 1.7-.05 2.1-.2.6-.15.75.4.75 3 0 3.8-.7 4.35-2.25 1.75-1.25-2-3.7-3.7-5.3-3.7-1.85 0-3.7 1.85-3.7 3.7 0 2.15.95 2.95 6.05 5.05 2.3 1 4.6 2.25 5.05 2.9 1.95 2.5 1.55 7.25-.85 9.65-2.1 2.1-6.05 2.55-9.9 1.1-1.1-.45-1.55-.35-2.3.3-.95.9-1.4 1-1.7.45z"/><path d="m403.25 341.55c-.35-.65 1.35-1.55 3-1.55.9 0 1.4-.35 1.75-1.3.75-2 .65-26.45-.1-27.1-.35-.25-1.6-.65-2.75-.85-2.1-.35-2.8-.95-1.5-1.3.3-.1 6.35-.2 13.35-.2h12.75l.15 4.9c.1 4 0 4.85-.6 4.85-.4 0-1-.85-1.35-1.85-1.45-4.6-3.6-5.95-10.35-6.45l-4.6-.35v6.85 6.85l3.35-.15 3.35-.15 1.3-2.2c2.2-3.8 2.5-3.35 2.5 3.65 0 3.45-.2 6.35-.5 6.55-.25.15-.95-.85-1.55-2.25-1.3-3.05-2.05-3.5-5.7-3.5h-2.8l.15 6.85.15 6.9 2.65.4c1.65.3 2.6.65 2.45 1-.25.75-14.65 1.1-15.1.4z"/><path d="m435.15 341.65c-2-.4-3.65-2.6-3.65-4.85 0-3.9 2.35-5.6 10.9-7.8 2-.5 2.1-.6 2.1-2.45 0-3.4-.85-4.95-3.05-5.6-3.1-.95-4.45-.1-4.45 2.75 0 1.75-.25 2.4-1 2.8-1.4.75-2.95.15-3.5-1.3-1.2-3.05 2.65-5.9 8-5.9 3.65-.05 5.65.75 7.2 2.85.95 1.25 1.05 2.25 1.2 9.15s.3 7.75 1.1 8.2c.55.3 1.15.5 1.35.45s.7-.05 1.1 0c1.35.1-.45 1.45-2.4 1.8-2.65.45-4.5-.4-4.85-2.2l-.3-1.5-1.85 1.5c-2.6 2.05-4.9 2.7-7.9 2.1zm7.75-3.75c1.55-.95 1.6-1.1 1.6-4.45v-3.45l-1.35.3c-.8.15-2.65.9-4.15 1.6-2.55 1.25-2.75 1.5-2.9 3.2-.15 1.5.1 2.15 1.15 3.2 1.45 1.45 2.8 1.35 5.65-.4z"/><path d="m478.9 341.65c-1.45-.35-1-1.1.85-1.45l1.75-.3-.1-9.1-.15-9.05-1.6-.5c-2.4-.7-2.1-1.75.5-1.75 1.15 0 2.95-.15 3.95-.3l1.9-.35.1 10.4.15 10.4 1.5.5c1.95.65 2.1.8 1.25 1.35-.75.5-8.45.6-10.1.15z"/><path d="m492 341.55c-.85-.6-.7-.75 1.25-1.4l1.5-.5v-14.95-14.95l-1.75-.55c-2.8-.95-2.05-1.45 2.35-1.6l4.15-.15.1 16.15.15 16.1 1.65.5c.9.25 1.55.7 1.45 1-.25.7-9.8 1-10.85.35z"/><path d="m507.25 341.5c-.45-.7-.35-.75 1.5-1.35l1.5-.5.15-8.85.1-8.85-1.75-.75c-2.2-.9-2.25-1.7-.05-1.7.9 0 2.7-.15 3.95-.3l2.35-.35.1 10.45.15 10.45 1.65.5c2.95.85 1.4 1.5-4.05 1.65-3.45.1-5.4-.05-5.6-.4z"/><path d="m539.65 341.7c-1.15-.5-.7-1.15 1-1.6l1.6-.4.15-8.9.1-8.85-1.75-.75c-2.2-.9-2.25-1.7-.05-1.7.9 0 2.7-.15 3.95-.3l2.35-.35.1 10.45.15 10.45 1.65.5c2.9.85 1.45 1.5-3.7 1.6-2.7.05-5.25-.05-5.55-.15z"/><path d="m661 341.55c-.85-.6-.7-.75 1.25-1.4l1.5-.5v-14.95-14.95l-1.75-.55c-2.8-.95-2.05-1.45 2.35-1.6l4.15-.15.1 16.15.15 16.1 1.65.5c.9.25 1.55.7 1.45 1-.25.7-9.8 1-10.85.35z"/><path d="m722.9 341.65c-1.45-.35-1.05-1 .85-1.35l1.75-.35-.1-9.1-.15-9.1-1.6-.5c-2.4-.7-2.1-1.75.5-1.75 1.15 0 2.95-.15 3.95-.3l1.9-.35.1 10.45.15 10.45 1.5.45c2 .65 2.1.8 1.25 1.3-.75.5-8.45.6-10.1.15z"/><path d="m763.35 341.7c-.7-.7-.3-1.2 1.3-1.6l1.6-.4.15-8.9.1-8.85-1.75-.75c-2.1-.85-2.3-1.7-.3-1.7.75 0 2.45-.15 3.75-.3 2.3-.35 2.3-.35 2.3 1.15 0 .8.15 1.6.3 1.8.15.15 1.55-.4 3.1-1.3 4.7-2.65 8.75-2.1 10.75 1.4.35.6.7 4.4.85 9.25l.25 8.25 1.65.5c3 .9 1.45 1.5-3.9 1.5-5.4 0-6.95-.65-4-1.65l1.5-.55v-7c0-7.7-.4-9.25-2.5-9.95-1.45-.55-4.6-.1-6.35.85-1.1.55-1.15.8-1.15 8.2 0 7.95.2 8.85 2.15 8.85.5 0 .85.25.75.65-.25.65-9.9 1.15-10.55.55z"/><path d="m482 312c-1.3-1.3-1.25-2.75.05-4.05 1.9-1.9 5.3-.05 4.7 2.55-.6 2.5-3 3.25-4.75 1.5z"/><path d="m511 312c-1.3-1.3-1.25-2.75.05-4.05 1.7-1.7 4.95-.3 4.95 2.15 0 1.2-1.75 2.9-3 2.9-.55 0-1.45-.45-2-1z"/><path d="m543 312c-1.3-1.3-1.25-2.75.05-4.05 1.7-1.7 4.95-.3 4.95 2.15 0 1.2-1.75 2.9-3 2.9-.55 0-1.45-.45-2-1z"/><path d="m725.95 311.95c-1.9-1.9-.05-5.25 2.55-4.65 1.7.35 2.6 1.65 2.25 3.2-.6 2.5-3 3.25-4.8 1.45z"/><path d="m414.05 253.85c-1.25-3.2-20.55-57-20.55-57.15s3.1-.15 6.9-.1l6.85.15 6.55 19.5c3.6 10.75 6.75 19.5 6.95 19.5.25 0 3.35-8.85 6.95-19.6l6.55-19.65h6.35 6.3l6.6 19.75c3.6 10.85 6.75 19.75 6.9 19.75.2 0 3.3-8.85 6.9-19.6l6.55-19.65 6.8-.15c3.75-.05 6.85.05 6.85.3s-1.35 4.25-3.05 8.9c-1.65 4.65-4.1 11.5-5.45 15.2-1.3 3.7-4.4 12.4-6.9 19.25-2.45 6.9-4.65 13-4.85 13.65-.3 1.05-.5 1.1-6.9 1.1l-6.6-.05-6.4-19.45c-3.55-10.75-6.6-19.5-6.85-19.5s-.65.75-.9 1.65c-.25.85-3.1 9.65-6.35 19.5l-5.95 17.85h-6.4c-6.3 0-6.45-.05-6.85-1.15z"/><path d="m488.7 253.15c.4-1.05 4.7-11.25 9.55-22.65 4.9-11.4 10-23.45 11.35-26.75s2.85-6.35 3.35-6.75c.65-.6 2.05-.7 6.6-.6l5.8.15 12.05 28.35c6.6 15.6 12.2 28.75 12.4 29.25.3.8-.15.85-6.5.75l-6.85-.15-2.55-6.4-2.55-6.35-12.55.1-12.5.15-2.55 6.25-2.55 6.25-6.6.15-6.55.15zm37.45-23c.4-.65-6.8-17.7-7.35-17.5-.5.15-7.2 16.1-7.25 17.25-.05.45 1.7.6 7.15.6 4 0 7.35-.15 7.45-.35z"/><path d="m564.5 226c0-24.5.1-29 .7-29.35.4-.2 3.35-.35 6.5-.25l5.8.15v12.55 12.55l1.05-.95c.6-.5 5.9-6.15 11.75-12.5 5.9-6.4 11-11.7 11.35-11.75.3-.1 3.85-.1 7.85.05l7.25.25-11.5 11.95c-6.3 6.55-11.5 12.3-11.45 12.75 0 .45 5.25 7.85 11.65 16.45s11.75 16 11.9 16.4c.25.6-.85.7-7.4.6l-7.65-.15-8.75-12.1c-4.85-6.7-9-12.1-9.3-12-.25.05-1.9 1.6-3.6 3.4l-3.15 3.3v8.8 8.85h-6.5-6.5z"/><path d="m632.5 225.8c0-16.1.15-29.3.4-29.4.2-.1 10.1-.1 22 0l21.65.15-.15 5.6-.15 5.6-15.35.15-15.4.1v5.75 5.75h13.45c11.8 0 13.5.1 13.75.8.35.95.4 9.35.05 10.3-.2.5-2.95.65-13.75.6l-13.5-.05v6.2 6.15h15.75 15.75v5.75 5.75h-22.25-22.25z"/><path d="m695 226.3c0-15.8.1-29 .25-29.4.2-.55 4.35-.65 22.4-.55l22.1.1.15 5.75.15 5.8h-16.05-16v6.25 6.25h13.75 13.75v6 6h-13.75-13.75v11.25 11.25h-6.5-6.5z"/><path d="m757.5 225.75c0-23.05.15-29.25.65-29.25 4.7-.1 10.35-.1 11.25-.05l1.1.05v29.25 29.25h-6.5-6.5z"/><path d="m789.5 225.5v-29.5l21.9.1 21.85.15v5.65 5.65l-15.25.1-15.25.1-.15 5.9-.15 5.85h13.5c7.4 0 13.6.15 13.7.4.15.2.1 2.8-.1 5.8l-.3 5.5-13.35-.05h-13.4v6.2 6.15h15.75 15.75v5.75 5.75h-22.25-22.25z"/><path d="m853.35 254.65c-.4-.35-.5-56.7-.1-57.75.25-.55 5.3-.75 12.35-.4.2 0 .45 10.5.5 23.4l.15 23.35 14.65.15 14.65.1-.15 5.65-.15 5.6-20.8.15c-11.4.05-20.9-.05-21.1-.25z"/><path d="m911.1 225.75.15-29.3h13.5c12.25-.05 13.9.05 17.75 1.05 10.55 2.7 18.25 9.7 21.25 19.3 2.05 6.5 1.3 15.8-1.85 22.2-2.25 4.65-7.95 10.25-12.9 12.7-5.75 2.8-9.5 3.3-24.8 3.3h-13.2zm26.45 17.25c9.9-1.9 15.45-10.65 13.45-21.25-.75-3.95-3.45-8.4-6.3-10.35-3.9-2.7-5.45-3.05-13.3-3.3l-7.4-.2v17.8 17.8h5.45c2.95 0 6.6-.25 8.1-.5z"/><path d="m419.65 175.45c-10.4-1.75-19.35-9.6-22.95-20.2-1.9-5.55-1.95-13.15-.05-18.9 3.2-9.8 11.45-17.5 21.6-20.1 4-1.05 11.6-1.05 16-.05 4.3 1.05 9.85 3.65 12.45 5.95l2 1.7-3.25 3.9c-1.75 2.1-3.55 4.35-4 4.9-.85 1.05-.85 1.05-2.65-.55-5.75-5-13.85-6.15-20.55-2.85-8.45 4.1-11.95 15.85-7.45 25.1 1.65 3.45 5.9 7.3 9.6 8.65 6 2.3 13.8.6 18.8-4l2.3-2.1 4 3.9c2.2 2.15 4 4.2 4 4.5 0 1.15-5.7 5.75-9.25 7.5-5.85 2.9-13.4 3.85-20.6 2.65z"/><path d="m483.05 175.25c-8.75-1.95-14.25-7.3-16.9-16.3-.65-2.2-.85-6.25-1-21.6-.15-10.45-.1-19.45.05-20 .25-1.05.45-1.1 6.5-.95l6.25.15.15 18.85c.15 17.05.25 19.05 1.1 21.1 2 4.85 5.9 7.45 11.05 7.5 5.85 0 9.4-1.95 11.6-6.45l1.4-2.8.15-19.1.15-19.1 4.85-.15c2.65-.1 5.6-.1 6.5 0l1.65.15-.2 19.85c-.15 16.2-.35 20.35-.95 22.45-2.45 8.05-7.8 13.75-14.9 15.9-3.9 1.15-13.4 1.45-17.45.5z"/><path d="m548.25 175.25c-4.9-.9-9.75-2.85-13.8-5.55-1.9-1.25-3.55-2.5-3.75-2.75-.15-.25 1.05-2.05 2.65-4s3.25-4 3.7-4.55c.75-1 .85-.95 4.2 1.3 1.9 1.25 4.7 2.75 6.2 3.35 3.45 1.3 9.1 1.75 11.9 1 2.6-.7 4.65-3 4.65-5.2-.05-3.25-2.75-4.95-11.45-7.35-13.8-3.75-17.95-6.95-19.6-15.2-1.3-6.4 1.6-13.6 6.95-17.2 3.85-2.6 6.25-3.25 12.65-3.5 4.85-.15 6.45 0 9.75.9 4.35 1.2 9.2 3.35 11.35 5.1l1.4 1.15-3.1 4.65c-1.7 2.5-3.3 4.6-3.55 4.6-.3 0-2.55-1-5.05-2.25-7.65-3.8-13.15-4.05-16.45-.75-2.55 2.55-1.5 6.15 2.35 8 1.25.6 5.3 1.95 9 3.05 10.65 3.05 14.75 5.5 17.1 10.35 1.25 2.5 1.4 3.4 1.35 7.35-.05 3.8-.25 5-1.45 7.65-3.75 8.35-14.3 12.2-27 9.85z"/><path d="m920.15 175.3c-5.2-1.7-9.75-5.75-12.05-10.7-1.9-4.2-1.9-9.65.1-13.95 1.3-2.85 6.4-8.6 7.65-8.65.2 0 .8-.35 1.35-.75.9-.65.85-.8-.8-3.1-3.45-4.8-4.2-9-2.45-13.6 1.4-3.75 3.3-5.85 6.8-7.6 10.05-4.9 21.75 1.95 21.75 12.8 0 3.95-1.25 6.95-4.35 10.25-1.75 1.9-2.6 3.2-2.35 3.6.2.35 1.75 2.2 3.4 4.1l3 3.4 3.05-3.35 3-3.35 3.9 4.05c2.1 2.2 3.85 4.3 3.85 4.6s-1.35 2-3 3.8-3 3.5-3 3.75 2.75 3.55 6.1 7.3l6.15 6.85-7.5.15c-8.4.15-7.3.55-11.05-4.15l-1.55-1.95-2.45 2.1c-3.95 3.3-7.65 4.75-12.95 4.95-2.9.1-5.25-.1-6.6-.55zm9.6-10.8c1.1-.55 2.8-1.75 3.7-2.65l1.6-1.7-4.6-5.6c-2.5-3.05-4.85-5.55-5.2-5.55-1.05 0-4.85 3.1-6.1 4.95-2.3 3.4-1.1 7.8 2.8 10.4 2.15 1.45 5.05 1.5 7.8.15zm.45-30.65c.95-.9 1.9-2.25 2.05-3 .5-1.9-.55-4.15-2.3-4.85-3.95-1.65-7.5 2.5-5.1 6 1.15 1.75 2.75 3.5 3.2 3.5.2 0 1.15-.75 2.15-1.65z"/><path d="m594.5 174.65c0-.25 0-13.1 0-28.65s0-28.6 0-29c0-.65.95-.75 5.85-.65 3.25.05 6.2.1 6.55.1.45.05.6 2.7.6 11.55v11.5h11.75 11.75l.1-11.55.15-11.5 6.25-.05h6.25l.15 29.3.1 29.3h-6.5-6.5l-.1-11.6-.15-11.65-11.6-.15-11.65-.1v11.75 11.75h-6.5c-3.55 0-6.5-.15-6.5-.35z"/><path d="m665.4 174.65c-.1-.25-.1-13.45 0-29.4l.1-29 6.9.15 6.85.15 6.9 11.1c8.35 13.45 8.25 13.35 8.85 12.35.25-.4 3.65-5.9 7.6-12.2l7.15-11.45h4c2.2 0 5.3.05 6.9.05l2.85.1v29.25 29.3l-6.05-.15-6-.15.05-18.65c0-13.3-.1-18.6-.5-18.35-.3.2-4.15 5.75-8.55 12.35l-8.05 12.05-8.05-12.3c-4.45-6.75-8.25-12.3-8.45-12.3-.25-.05-.4 8.4-.4 18.7v18.75h-5.95c-3.3 0-6.05-.15-6.15-.35z"/><path d="m738.5 174.6c0-.5 1.3-3.6 13.1-31.35 5.55-12.95 10.25-24.1 10.5-24.9.3-.75.9-1.55 1.35-1.75s3.35-.25 6.5-.1l5.7.25 8.15 19.25c4.55 10.6 10 23.45 12.2 28.6 2.2 5.1 4 9.55 4 9.85 0 .35-2.2.55-6.6.55h-6.65l-2.5-6.4-2.55-6.35-12.5-.15-12.55-.1-2.65 6.5-2.65 6.5h-6.4c-3.55 0-6.45-.15-6.45-.4zm38-24.6c0-.25-.9-2.7-2-5.35-1.15-2.7-2.75-6.65-3.6-8.8s-1.7-3.7-1.95-3.5c-.35.4-6.75 15.55-7.3 17.3-.25.8.3.85 7.3.85 4.65 0 7.55-.2 7.55-.5z"/><path d="m815.1 145.7.15-29.3 5.7.05c3.45 0 5.9.2 6.25.55.3.3 6.3 8.35 13.3 17.85 7 9.55 13.05 17.4 13.4 17.55.45.15.6-3.65.6-18v-18.15l6.1.05 6.15.05.15 29.35.1 29.3h-5.9-5.9l-13.25-17.6c-7.25-9.65-13.45-17.65-13.75-17.75-.6-.2-.6.15-.65 23.25l-.05 12.1h-6.25-6.25z"/></g><g fill="#ea1c2c"><path d="m224.35 255-4.9-.25.05-81.25c0-64.15.15-81.35.65-81.8 2.25-2 9.3-7.05 9.55-6.85.45.45.35 170.05-.05 170.25-.25.1-2.6.05-5.3-.1z"/><path d="m114.95 254.8c-.1-.1-.15-11.7-.05-25.7l.1-25.5 4.8-3.55c2.6-2 5-3.7 5.35-3.85.5-.15.6 6 .6 29.15v29.4l-5.3.15c-2.9.05-5.35.05-5.5-.1z"/><path d="m136 254.15c-.05-1.55-.05-64.85 0-65.7 0-.45 1.65-2 3.65-3.5 1.95-1.45 4.35-3.2 5.25-3.85l1.6-1.2v37.55 37.55h-5.25c-4.65 0-5.25-.1-5.25-.85z"/><path d="m156.5 213.9c0-22.65.2-41.4.4-41.65.55-.85 9.65-7.75 10.15-7.75.25 0 .45 19.8.45 45.25v45.25h-5.5-5.5z"/><path d="m177.6 189.4.15-65.65 4.75-3.6c2.6-2 5.05-3.65 5.4-3.65.45 0 .6 14.2.6 69.25v69.25h-5.5-5.5z"/><path d="m198.5 181.55v-73.5l5.05-3.8c2.8-2.1 5.15-3.7 5.3-3.6.1.15.2 34.85.2 77.15l-.05 76.95-5.25.15-5.25.15z"/><path d="m240 165.95c0-54.5.2-88.95.45-88.85.25.05 7.65 5.55 16.35 12.15 8.75 6.6 20.35 15.35 25.8 19.45l9.9 7.45v69.4 69.45h-26.25-26.25z"/><path d="m302.5 206c0-26.95.15-49 .35-49 .3 0 23.65 17.55 46 34.5l6.25 4.75v29.25l.05 29.25-26.3.15-26.35.1z"/></g></svg>