<?xml version="1.0" encoding="utf-8"?>
<!DOCTYPE svg PUBLIC "-//W3C//DTD SVG 20010904//EN" "http://www.w3.org/TR/2001/REC-SVG-20010904/DTD/svg10.dtd">
<svg version="1.0" xmlns="http://www.w3.org/2000/svg" width="1084px" height="371px" viewBox="0 0 1084 371" preserveAspectRatio="xMidYMid meet">
 <g fill="#ffffff">
  <path d="M0 185.50 l0 -185.50 542 0 542 0 0 185.50 0 185.50 -542 0 -542 0 0 -185.50z m682.55 154.20 c-0.95 -1.25 -1.05 -2 -1.05 -10 0 -7.40 -0.10 -8.70 -0.75 -8.70 -0.65 0 -0.75 1.15 -0.75 7.45 0 7.75 0.35 9.50 2.10 11.45 1.45 1.50 1.70 1.40 0.45 -0.20z m-271.05 -13.90 c0 -12.60 -0.10 -14.75 -0.75 -15 -0.65 -0.25 -0.75 1.50 -0.75 13.90 0 7.85 -0.15 14.55 -0.30 15 -0.20 0.60 0 0.80 0.75 0.80 1.05 0 1.05 -0.10 1.05 -14.70z m73 4.95 c0 -8.35 -0.10 -9.75 -0.75 -9.75 -0.65 0 -0.75 1.40 -0.75 9.75 0 8.35 0.10 9.75 0.75 9.75 0.65 0 0.75 -1.40 0.75 -9.75z m13.50 -6 c0 -13.65 -0.10 -15.75 -0.75 -15.75 -0.65 0 -0.75 2.10 -0.75 15.75 0 13.65 0.10 15.75 0.75 15.75 0.65 0 0.75 -2.10 0.75 -15.75z m15.50 6 c0 -8.35 -0.10 -9.75 -0.75 -9.75 -0.65 0 -0.75 1.40 -0.75 9.75 0 8.35 0.10 9.75 0.75 9.75 0.65 0 0.75 -1.40 0.75 -9.75z m32 0 c0 -8.35 -0.10 -9.75 -0.75 -9.75 -0.65 0 -0.75 1.40 -0.75 9.75 0 8.35 0.10 9.75 0.75 9.75 0.65 0 0.75 -1.40 0.75 -9.75z m66.20 8.15 c-0.80 -0.90 -1.50 -1.75 -1.55 -1.85 -0.10 -0.10 -0.15 0.60 -0.15 1.60 0 1.75 0.10 1.85 1.60 1.85 l1.60 0 -1.50 -1.60z m55.30 -14.15 c0 -13.65 -0.10 -15.75 -0.75 -15.75 -0.65 0 -0.75 2.10 -0.75 15.75 0 13.65 0.10 15.75 0.75 15.75 0.65 0 0.75 -2.10 0.75 -15.75z m29 6 c0 -8.35 -0.10 -9.75 -0.75 -9.75 -0.65 0 -0.75 1.35 -0.75 8.95 0 4.95 0.15 9.30 0.30 9.75 0.90 2.30 1.20 -0.15 1.20 -8.95z m32.50 0 c0 -8.35 -0.10 -9.75 -0.75 -9.75 -0.65 0 -0.75 1.40 -0.75 9.75 0 8.35 0.10 9.75 0.75 9.75 0.65 0 0.75 -1.40 0.75 -9.75z m41 1.90 c0 -8.20 -0.30 -11.65 -1.05 -11.65 -0.25 0 -0.45 4.40 -0.45 9.75 0 8.35 0.10 9.75 0.75 9.75 0.65 0 0.75 -1.20 0.75 -7.85z m14.50 0.60 c0 -7.25 -0.50 -10.10 -2 -11 -0.45 -0.30 -0.45 -0.15 -0.05 0.65 0.35 0.65 0.55 4.25 0.55 9.30 0 7.05 0.10 8.30 0.75 8.30 0.65 0 0.75 -1.15 0.75 -7.25z m-256.90 -6.85 c-0.10 -10.10 -0.30 -13.40 -0.70 -13 -0.85 0.85 -0.85 24 0 25.50 0.35 0.60 0.70 1.10 0.75 1.10 0.05 0 0.05 -6.10 -0.05 -13.60z m-80.20 -1.05 c-0.60 -2 -0.65 -1.80 -0.80 4.05 -0.10 3.95 0.10 6.90 0.50 8.25 0.60 2 0.65 1.80 0.80 -4.05 0.10 -3.95 -0.10 -6.90 -0.50 -8.25z m263.10 0.80 c0 -9.40 -0.15 -13.20 -0.55 -12.80 -0.80 0.80 -1.20 21.35 -0.50 24.05 0.35 1.15 0.70 2.10 0.80 2.10 0.15 0 0.25 -6 0.25 -13.35z m-275.40 11 c-0.25 -2.85 -0.40 -3 -1.05 -1.70 -0.55 0.95 -0.55 1.40 0 2.35 0.90 1.70 1.30 1.50 1.05 -0.65z m24.10 -2.25 c-0.40 -1.45 -0.70 -4 -0.75 -5.65 l-0.05 -3 -0.70 2.25 c-0.80 2.40 -0.45 4.55 1.10 7.65 1.05 2 1.15 1.70 0.40 -1.25z m98.75 -0.40 c-0.30 -1.25 -0.45 -3.90 -0.35 -5.95 0.15 -3.55 0.15 -3.65 -0.50 -2 -1 2.35 -0.95 6.30 0.05 8.65 1.10 2.50 1.45 2.15 0.80 -0.70z m80.80 -3.70 c0 -5.85 -0.30 -6.30 -1.25 -2.20 -0.50 1.90 -0.45 2.85 0.20 5.10 0.45 1.55 0.90 2.80 0.95 2.80 0.05 0 0.10 -2.55 0.10 -5.70z m102 -0.35 c0 -5.20 -0.05 -5.40 -0.70 -3.85 -0.85 1.95 -0.90 6.05 -0.10 8.05 0.30 0.75 0.60 1.35 0.65 1.35 0.10 0 0.15 -2.50 0.15 -5.55z m-84.45 1.90 c0.35 -2.30 -0.10 -5.90 -0.95 -7.05 -0.50 -0.65 -0.55 0.30 -0.45 4.80 0.15 5.55 0.70 6.40 1.40 2.25z m101.95 -2.10 c0 -1.95 -0.30 -4 -0.70 -4.65 -0.35 -0.65 -0.65 -1.10 -0.70 -1 -0.05 0.05 -0.05 2.65 0.05 5.65 0.15 4.50 0.30 5.30 0.75 4.50 0.35 -0.55 0.60 -2.55 0.60 -4.50z m-128.85 0.55 c-0.20 -0.80 -0.95 -2.10 -1.70 -2.85 -1.30 -1.35 -1.95 -1.70 -8.95 -4.50 -5.10 -2.10 -6.25 -3.30 -6.30 -6.65 l-0.05 -2.55 -0.65 1.75 c-1.20 3.15 0.25 6.10 3.85 7.90 1.20 0.60 3.90 1.80 6.10 2.65 5.15 2.10 7.30 3.95 7.35 6.40 0.05 1.60 0.10 1.65 0.40 0.55 0.20 -0.70 0.20 -1.90 -0.05 -2.70z m-36.40 2.20 c-0.55 -1.05 -3.05 -2.50 -6.10 -3.45 -1 -0.35 -2.65 -1.15 -3.65 -1.80 l-1.75 -1.20 0.80 1.20 c0.80 1.20 3 2.40 7.30 3.95 1.25 0.45 2.60 1.20 2.90 1.60 0.90 1 1.15 0.85 0.50 -0.30z m213.70 -0.25 c-0.45 -0.70 -0.85 -1.25 -0.90 -1.25 -0.70 0 -8.70 -3.70 -9.45 -4.35 -1 -0.90 -1 -0.90 -0.15 0.45 0.90 1.35 2.95 2.50 7.40 4.10 1.25 0.45 2.60 1.20 2.90 1.60 1 1.15 1.10 0.80 0.20 -0.55z m-234.25 -5.35 c0 -0.65 -0.20 -1.60 -0.45 -2.15 -0.35 -0.75 -0.45 -0.50 -0.45 1.15 -0.05 1.15 0.20 2.10 0.45 2.10 0.30 0 0.50 -0.50 0.45 -1.10z m-136.45 -3.70 c0 -0.40 -0.20 -0.70 -0.45 -0.70 -0.55 0 -1.10 1.30 -0.70 1.70 0.45 0.45 1.15 -0.15 1.15 -1z m36.50 0 c0 -0.80 -0.80 -0.95 -1.25 -0.20 -0.40 0.65 0.20 1.60 0.80 1.25 0.25 -0.20 0.45 -0.65 0.45 -1.05z m-43.70 -12.45 c-0.15 -0.40 -0.70 -0.75 -1.25 -0.75 -1 0 -1 0.05 0.10 1.15 1.10 1.10 1.70 0.95 1.15 -0.40z m199.20 0.25 c0 -0.55 -0.35 -1 -0.75 -1 -0.65 0 -0.65 0.15 -0.15 1 0.35 0.55 0.70 1 0.75 1 0.10 0 0.15 -0.45 0.15 -1z m-142.70 -1.05 c0.50 -0.85 -0.65 -1.80 -1.35 -1.10 -0.60 0.60 -0.20 1.65 0.55 1.65 0.25 0 0.60 -0.25 0.80 -0.55z m29 0 c0.50 -0.85 -0.65 -1.80 -1.35 -1.10 -0.60 0.60 -0.20 1.65 0.55 1.65 0.25 0 0.60 -0.25 0.80 -0.55z m32 0 c0.50 -0.85 -0.65 -1.80 -1.35 -1.10 -0.60 0.60 -0.20 1.65 0.55 1.65 0.25 0 0.60 -0.25 0.80 -0.55z m183 0 c0.15 -0.30 0.10 -0.75 -0.10 -0.95 -0.60 -0.60 -1.90 0.25 -1.50 0.95 0.45 0.70 1.15 0.70 1.60 0z m-604.40 -76.95 c0.10 -10.85 0 -22.95 -0.15 -26.85 l-0.35 -7.10 -3.70 2.80 -3.70 2.75 0 24.25 0 24.20 3.90 -0.15 3.85 -0.15 0.15 -19.75z m20.60 -14.75 c0 -19.10 -0.15 -34.75 -0.30 -34.75 -0.75 0 -7.15 5.20 -7.30 5.90 -0.10 0.40 -0.10 14.90 0 32.20 l0.10 31.40 3.75 0 3.75 0 0 -34.75z m21 -8 c0 -23.50 -0.10 -42.75 -0.25 -42.75 -0.35 0 -6.90 5.10 -7.35 5.75 -0.20 0.25 -0.40 18.35 -0.40 40.15 l0 39.60 4 0 4 0 0 -42.75z m21 -24.30 l0 -67.05 -1.85 1.35 c-1.05 0.80 -2.85 2.20 -4 3.10 l-2.15 1.70 0 64 0 63.95 4 0 4 0 0 -67.05z m20.60 -7.30 c0.10 -40.95 0.05 -74.55 -0.10 -74.75 -0.15 -0.20 -1.90 0.90 -3.85 2.40 l-3.65 2.75 0 72 0 71.95 3.75 0 3.75 0 0.10 -74.35z m20.90 -8.40 l0 -82.75 -3.75 2.80 -3.75 2.80 0 79.95 0 79.95 3.75 0 3.75 0 0 -82.75z m62.50 14.80 l0 -67.95 -5.60 -4.20 c-3.10 -2.30 -14.05 -10.50 -24.25 -18.25 -10.25 -7.75 -18.85 -14.20 -19.15 -14.40 -0.35 -0.20 -0.50 28.05 -0.50 86.20 l0 86.55 24.75 0 24.75 0 0 -67.95z m62.60 67.60 c0.10 -0.25 0.10 -12.80 0 -28 l-0.15 -27.55 -9.85 -7.45 c-25.15 -19.05 -38.40 -29 -38.95 -29.35 -0.50 -0.30 -0.65 9.10 -0.65 46.15 l0 46.55 24.70 0 c13.60 0 24.80 -0.15 24.90 -0.35z m78.15 -17.50 c3.25 -9.85 6.10 -18.65 6.35 -19.50 0.40 -1.50 0.60 -1.65 2.40 -1.65 l1.95 0 6.40 19.50 6.40 19.45 5.10 0.05 c4.85 0 5.10 -0.05 5.40 -1.10 0.20 -0.65 2.45 -7 5 -14.15 2.60 -7.15 6.65 -18.40 9 -25 2.35 -6.60 4.50 -12.50 4.75 -13.15 0.90 -2.05 0.70 -2.15 -4.35 -2 l-4.80 0.15 -6.55 19.65 -6.55 19.60 -1.85 0 -1.80 0 -6.60 -19.75 -6.60 -19.75 -4.80 0 -4.85 0 -6.55 19.65 -6.55 19.60 -1.90 0 -1.90 0 -6.55 -19.50 -6.55 -19.50 -4.95 -0.15 c-4.55 -0.15 -4.90 -0.05 -4.60 0.75 0.20 0.50 4.55 12.45 9.60 26.60 5.10 14.10 9.45 26.20 9.70 26.85 0.45 1.15 0.65 1.20 5.40 1.20 l4.90 0 5.95 -17.85z m70.50 11.35 l2.55 -6.25 14 -0.15 14.05 -0.10 2.55 6.35 2.55 6.40 4.75 0.15 4.75 0.15 -2.75 -6.40 c-1.50 -3.50 -6.80 -16.05 -11.80 -27.80 l-9.10 -21.40 -4.75 0.15 c-4.50 0.15 -4.80 0.20 -5.40 1.40 -0.35 0.70 -4.60 10.60 -9.45 22 -4.85 11.40 -9.90 23.30 -11.20 26.40 l-2.45 5.65 4.60 -0.15 4.55 -0.15 2.55 -6.25z m73.75 -2.35 l0.05 -8.90 3.20 -3.35 c2.90 -3.05 3.45 -3.40 5.10 -3.40 1.90 0 1.90 0.05 10.70 12.15 l8.75 12.10 5.10 0.15 c2.80 0.05 5.10 0 5.10 -0.15 0 -0.15 -4.95 -6.95 -11 -15.10 -9.95 -13.40 -11 -15.05 -11 -16.80 0 -1.90 0.45 -2.45 10.30 -12.65 l10.30 -10.70 -4.95 0 -5 0 -11.50 12.40 c-10.60 11.45 -11.55 12.35 -13.30 12.50 l-1.85 0.15 0 -12.55 0 -12.55 -4.85 0.15 -4.90 0.15 -0.15 27.65 -0.10 27.60 5 0 5 0 0 -8.85z m99.50 4.60 l0 -4.25 -15.75 0 -15.75 0 0 -7.75 0 -7.75 13.65 -0.10 13.60 -0.15 0.15 -3 c0.10 -1.60 0.05 -3.45 -0.15 -4.10 l-0.25 -1.15 -13.50 0 -13.50 0 0 -7.25 0 -7.25 15.40 -0.10 15.35 -0.15 0.15 -4.10 0.15 -4.15 -20.55 0 -20.50 0 0 27.75 0 27.75 20.75 0 20.75 0 0 -4.25z m31 -7 l0 -11.25 13.75 0 13.75 0 0 -4.50 0 -4.50 -13.75 0 -13.75 0 0 -7.75 0 -7.75 16 0 16 0 0 -4.25 0 -4.25 -20.85 0.10 -20.90 0.15 -0.15 27.65 -0.10 27.60 5 0 5 0 0 -11.25z m62.50 -16.50 l0 -27.75 -5 0 -5 0 0 27.75 0 27.75 5 0 5 0 0 -27.75z m63.50 23.50 l0 -4.25 -15.75 0 -15.75 0 0 -7.75 0 -7.75 13.50 0 13.50 0 0 -4.25 0 -4.25 -13.50 0 -13.55 0 0.15 -7.35 0.15 -7.40 15.40 -0.15 15.40 -0.10 -0.15 -4.15 -0.15 -4.10 -20.35 -0.15 -20.40 -0.10 0 28 0 28 20.75 0 20.75 0 0 -4.25z m61.40 -0.10 l0.15 -4.15 -14.65 -0.10 -14.65 -0.15 -0.15 -23.40 -0.10 -23.40 -4.90 0.15 -4.85 0.15 -0.15 27 c-0.05 14.85 0 27.30 0.15 27.65 0.15 0.50 4.35 0.60 19.60 0.50 l19.40 -0.15 0.15 -4.10z m45.95 3.60 c5.95 -1.10 10.65 -3.70 15.20 -8.20 4.35 -4.40 6.55 -8.30 7.75 -14.05 2.30 -11 -3.65 -23.10 -14.05 -28.60 -6.35 -3.30 -9.95 -3.90 -23.95 -3.90 l-12.30 0 0 27.75 0 27.75 11.70 0 c8.25 0 12.85 -0.20 15.65 -0.75z m-508.10 -79 c4.40 -0.95 9.80 -3.55 12.95 -6.35 l2.40 -2.15 -2.80 -2.65 -2.85 -2.60 -1.85 1.45 c-3.55 2.85 -6.30 3.75 -12.35 3.95 -4.70 0.15 -5.90 0.05 -8.35 -0.90 -3.70 -1.35 -7.95 -5.20 -9.60 -8.65 -2.95 -6 -2.80 -15.15 0.30 -20.95 3.30 -6.15 8.35 -9 16.40 -9.05 5.50 -0.05 7.70 0.45 11.65 2.85 l2.85 1.75 2.55 -3.05 c1.35 -1.65 2.40 -3.25 2.35 -3.50 -0.35 -0.95 -6.20 -4.20 -9.70 -5.35 -4.70 -1.60 -11.40 -1.95 -15.70 -0.85 -16.65 4.15 -26.85 21 -21.80 36.05 4.90 14.50 19.15 23 33.55 20z m67.25 -0.55 c7.10 -2.05 12.50 -7.80 14.90 -15.85 0.60 -2.10 0.80 -6.20 0.95 -20.95 l0.25 -18.40 -5.05 0 -5 0 -0.15 19.15 -0.15 19.10 -1.40 2.80 c-1.45 3 -3.90 5.10 -6.90 5.95 -3 0.85 -10.45 0.60 -12.70 -0.45 -2.55 -1.20 -4.85 -3.65 -6.05 -6.55 -0.85 -2.05 -0.95 -4.05 -1.10 -21.15 l-0.15 -18.90 -4.85 0.15 -4.85 0.15 0 17.75 c0 13.35 0.15 18.45 0.70 20.50 2.95 11.95 11.95 18.45 24.55 17.75 2.35 -0.10 5.50 -0.60 7 -1.05z m59.90 0.80 c1.70 -0.30 4.35 -1 5.85 -1.55 8.35 -3.15 12.75 -13.10 9.05 -20.60 -2.30 -4.75 -6.45 -7.25 -17.05 -10.30 -11.30 -3.25 -12.75 -4.40 -12.75 -9.80 0 -2.45 0.20 -3 1.40 -4.25 3.45 -3.40 11 -3.30 18.55 0.25 2 0.95 3.75 1.75 3.80 1.75 0.10 0 1.15 -1.45 2.40 -3.20 l2.20 -3.15 -2.55 -1.55 c-1.40 -0.85 -4.35 -2.15 -6.55 -2.95 -3.35 -1.15 -4.85 -1.35 -9.25 -1.40 -6.15 0 -8.40 0.55 -12.35 3.25 -3.50 2.35 -6 5.90 -6.95 9.85 -0.60 2.50 -0.60 3.30 0.05 5.85 1.85 7.20 6.05 10.20 19.15 13.80 9.90 2.65 11.55 3.95 11.60 8.85 0 5.40 -2.50 7.15 -10.25 7.15 -5.20 0 -9.15 -1.05 -13.50 -3.55 l-3.50 -2 -2.35 2.65 c-1.30 1.45 -2.30 2.90 -2.25 3.15 0.30 0.95 5.65 4.20 9.10 5.55 3.35 1.25 9.15 2.55 11.75 2.65 0.70 0 2.65 -0.20 4.40 -0.45z m373.85 -1.20 c1.65 -0.75 4.05 -2.25 5.35 -3.35 3.55 -3 5.10 -2.80 8.10 1.05 l2.35 3 4.80 0 4.80 0 -0.95 -1.10 c-0.50 -0.65 -2.70 -3.10 -4.80 -5.45 -3.45 -3.85 -3.90 -4.55 -3.90 -6.30 0 -1.65 0.40 -2.40 2.55 -4.85 l2.60 -2.85 -2.70 -2.75 -2.70 -2.75 -2.15 2.55 c-1.80 2.05 -2.45 2.50 -3.85 2.50 -1.45 0 -2.10 -0.50 -4.95 -3.75 -4.35 -5 -4.40 -6.15 -0.60 -10.25 2.60 -2.85 4.30 -6.30 4.30 -8.75 0 -4.50 -4.65 -10.35 -9.45 -11.90 -3.85 -1.20 -5.95 -1.05 -9.45 0.70 -3.55 1.75 -5.70 4.35 -6.95 8.30 -0.75 2.45 -0.75 2.70 0.10 5 0.50 1.30 1.65 3.45 2.55 4.70 1.15 1.55 1.70 2.90 1.70 4.05 0 1.45 -0.30 1.85 -1.85 2.80 -5 2.80 -9.35 9.55 -9.35 14.35 0.05 3.25 1.95 7.45 4.75 10.50 5.50 6 12.70 7.65 19.70 4.55z m-326.75 -11.05 l0 -11.75 13.15 0.10 13.10 0.15 0.15 11.65 0.10 11.60 5 0 5 0 0 -27.75 0 -27.75 -5 0 -5 0 0 11.50 0 11.50 -13.25 0 -13.25 0 0 -11.50 0 -11.50 -5 0 -5 0 0 27.75 0 27.75 5 0 5 0 0 -11.75z m70 -7 l0 -18.75 1.90 0.05 1.85 0 7.20 11 c3.95 6 7.35 10.95 7.50 10.95 0.15 0 3.55 -4.90 7.55 -10.90 7.15 -10.70 7.30 -10.85 9.15 -11 l1.85 -0.15 0 18.75 0 18.80 4.50 0 4.50 0 0 -27.75 0 -27.75 -5.45 0 -5.45 0 -7.45 12 c-7.40 11.95 -7.40 12 -9.15 12 -2 0 -1.70 0.45 -11.30 -15.10 l-5.45 -8.90 -5.35 0 -5.40 0 0 27.75 0 27.75 4.50 0 4.50 0 0 -18.75z m76.50 12.25 l2.65 -6.50 14.05 0.10 14 0.15 2.55 6.35 2.50 6.40 4.70 0 c3.75 0 4.60 -0.15 4.40 -0.70 -0.15 -0.35 -1.75 -4.15 -3.55 -8.35 -1.80 -4.25 -6.95 -16.35 -11.50 -26.95 l-8.15 -19.25 -4.85 -0.15 -4.85 -0.15 -0.75 1.90 c-0.45 1.05 -5.25 12.35 -10.70 25.15 -5.45 12.80 -10.40 24.45 -10.95 25.90 l-1.05 2.60 4.45 0 4.40 0 2.65 -6.50z m73.50 -11.30 l0 -17.75 2.10 0.15 2.10 0.15 13.15 17.50 13.15 17.50 4.50 0.15 4.50 0.15 0 -27.80 0 -27.75 -4.75 0 -4.75 0 0 18.05 0 18 -2.10 -0.15 -2.10 -0.15 -13.05 -17.75 -13.10 -17.75 -4.55 -0.15 -4.60 -0.15 0 27.80 0 27.75 4.75 0 4.75 0 0 -17.80z"/>
  <path d="M510.05 229.90 c0 -1.45 1.10 -4.80 3.40 -10.40 l3.35 -8.25 2 -0.15 1.95 -0.15 3.65 8.85 c2.45 5.90 3.60 9.40 3.50 10.40 l-0.15 1.55 -8.85 0.15 -8.90 0.10 0.05 -2.10z"/>
  <path d="M922.50 225.70 l0 -19.30 8.90 0.20 c7 0.15 9.25 0.35 10.85 1.05 7.85 3.45 11.25 10.05 10.60 20.45 -0.35 5.30 -1.70 8.65 -4.80 11.75 -4.10 4.10 -8 5.15 -18.60 5.15 l-6.95 0 0 -19.30z"/>
  <path d="M920.45 165.85 c-2.95 -2 -3.95 -4 -3.95 -8.10 0 -4.20 0.90 -5.90 4.40 -8.60 1.70 -1.30 2.65 -1.65 4.35 -1.65 2.10 0 2.15 0.05 6.70 5.55 5.50 6.65 5.75 7.75 2.50 10.70 -2.80 2.50 -4.80 3.25 -8.85 3.25 -2.75 0 -3.80 -0.25 -5.15 -1.15z"/>
  <path d="M925.15 135.90 c-2.15 -2.45 -2.65 -3.60 -2.65 -6.40 0.05 -4.05 1.55 -5.50 5.70 -5.50 2.80 0 4.55 0.75 5.25 2.35 0.80 1.70 0.70 5.45 -0.20 7.15 -1.70 3.30 -6.10 4.60 -8.10 2.40z"/>
  <path d="M760.15 149.65 c0.10 -1.40 1.65 -5.80 3.70 -10.65 l3.50 -8.25 1.75 -0.15 1.75 -0.15 1.55 3.90 c0.85 2.15 2.45 6.10 3.60 8.80 1.20 2.90 2 5.65 2 6.85 l0 2 -9.05 0 -9.05 0 0.25 -2.35z"/>
 </g>
 <g fill="#6b6c6b">
  <path d="M608.80 343.15 c-0.50 -0.55 -0.35 -10.65 0.20 -10.65 0.25 0 1.35 1.20 2.40 2.65 3.45 4.55 5.40 5.85 8.95 5.85 3.90 0 6.65 -2.70 6.65 -6.60 0 -2.80 -2.50 -4.65 -10.40 -7.65 -4.70 -1.75 -6.90 -3.85 -7.40 -7 -0.75 -5.15 2.10 -9.60 7.15 -11.05 2.45 -0.70 3.35 -0.75 6.20 -0.20 2.45 0.40 3.65 0.45 4.40 0.05 1.95 -1.05 2.10 -0.75 1.95 4.10 -0.20 5.40 -0.75 5.85 -2.80 2.10 -2.30 -4.25 -6.55 -5.85 -10 -3.75 -1.80 1.10 -2.60 2.70 -2.60 5.20 0 2.35 1.65 3.85 6.25 5.75 7.20 2.90 7.80 3.20 9.25 4.85 3.05 3.50 2.30 10.10 -1.55 13.40 -2.85 2.40 -5.90 3 -11.55 2.25 -3.80 -0.50 -4.50 -0.50 -5.60 0.20 -0.65 0.45 -1.30 0.65 -1.50 0.50z"/>
  <path d="M462.15 342.45 c-4.15 -1.25 -7.45 -7.30 -7 -12.65 0.60 -6.85 5.10 -11.60 10.80 -11.50 3.20 0.05 5.45 1.05 7.05 3.05 1.70 2.20 0.65 5.65 -1.75 5.65 -1.20 0 -2.75 -1.40 -2.75 -2.55 0 -0.40 0.35 -1.30 0.70 -2.05 0.70 -1.30 0.65 -1.45 -0.25 -1.95 -0.55 -0.25 -1.90 -0.55 -3 -0.60 -1.75 -0.05 -2.30 0.20 -3.70 1.70 -1.10 1.20 -1.85 2.70 -2.20 4.40 -0.70 3.40 -0.70 4.25 0.20 7.80 1.55 6 5.90 7.90 10.90 4.75 3 -1.90 3.60 -1.90 2.60 0 -1.70 3.35 -7.40 5.25 -11.60 3.95z"/>
  <path d="M527.55 342.60 c-0.65 -0.20 -1.70 -1 -2.25 -1.75 -0.95 -1.30 -1.05 -2.20 -1.20 -10.40 l-0.20 -8.95 -1.95 0 c-2.60 0 -2.45 -0.80 0.30 -2 l2.25 -0.95 0 -3.25 c0 -3.10 0.05 -3.30 1.50 -4.05 0.80 -0.40 1.70 -0.75 2 -0.75 0.30 0 0.50 1.60 0.50 4.25 l0 4.25 1.65 0.05 c0.85 0.05 1.80 0.05 2.05 0 0.90 -0.20 3.30 0.55 3.30 1 0 0.25 -0.75 0.45 -1.60 0.45 -0.90 0 -2.50 0.15 -3.50 0.30 l-1.90 0.35 0 8.20 c0 11.15 1.10 13.20 5.20 9.65 2.85 -2.50 2.95 -0.25 0.15 2.40 -1.35 1.25 -4.25 1.80 -6.30 1.20z"/>
  <path d="M560.75 342.10 c-4.85 -1.65 -7.50 -7.45 -6.40 -13.90 0.65 -3.80 2.10 -6.30 4.75 -8.20 5.45 -3.95 12.95 -1.10 14.35 5.50 1.05 4.85 1.55 4.50 -6.90 4.50 -4.15 0 -7.60 0.20 -7.75 0.45 -0.20 0.25 -0.05 1.65 0.25 3.05 0.95 4.50 4.70 7.45 8.50 6.65 0.80 -0.15 2.45 -1.15 3.65 -2.20 2.40 -2.15 3.40 -1.85 2 0.50 -1.15 1.95 -3.05 3.30 -5.50 4 -2.60 0.75 -4 0.65 -6.95 -0.35z m8.20 -14.05 c1.25 -0.80 0.20 -5 -1.70 -6.90 -0.90 -0.90 -2 -1.65 -2.45 -1.65 -1.50 0 -3.75 1.50 -4.55 2.95 -0.85 1.75 -1.75 5.40 -1.35 5.80 0.45 0.45 9.30 0.25 10.05 -0.20z"/>
  <path d="M578.85 342.65 c-0.35 -0.65 -0.10 -7.10 0.30 -7.50 0.25 -0.20 1.55 0.90 2.90 2.45 2.50 2.90 5.05 4.25 6.90 3.65 1.50 -0.45 2.60 -2.05 2.65 -3.80 0.05 -2.05 -1.55 -3.55 -5.20 -4.70 -5.75 -1.90 -7.80 -4.30 -7.20 -8.40 0.70 -4.55 4.90 -6.95 10.05 -5.80 2.15 0.50 2.85 0.45 3.50 -0.05 0.60 -0.50 0.80 -0.50 1 0.15 0.50 1.20 0.05 6 -0.55 6.20 -0.35 0.10 -1.10 -0.60 -1.70 -1.65 -1.25 -2 -3.70 -3.70 -5.30 -3.70 -1.85 0 -3.70 1.85 -3.70 3.75 0 2.05 1.35 3.25 5.35 4.75 4.55 1.70 5.70 2.45 6.50 4.40 0.95 2.25 0.55 5.60 -0.85 7.60 -1.95 2.70 -7.35 3.70 -10.65 1.95 -0.60 -0.35 -1.20 -0.25 -1.95 0.30 -1.25 0.85 -1.75 0.95 -2.05 0.40z"/>
  <path d="M642.45 342.35 c-3.60 -1.35 -5.65 -3.55 -6.75 -7.20 -1.55 -5.20 -0.35 -10.70 3.10 -14 2.85 -2.75 5.35 -3.45 9.60 -2.75 3.55 0.60 5.90 2.10 7.65 4.90 1.35 2.20 1.90 8.25 1 11.50 -0.75 2.80 -3.05 5.85 -5.20 6.85 -2.45 1.20 -7.20 1.55 -9.40 0.70z m7.70 -2.25 c1.75 -1.55 2.50 -3.75 2.75 -8.10 0.25 -5.20 -0.40 -8 -2.55 -10.30 -3.10 -3.35 -7.35 -2.40 -9.60 2.05 -2 4.05 -1 13.50 1.70 15.95 2.10 1.90 5.85 2.10 7.70 0.40z"/>
  <path d="M682.05 342.40 c-0.65 -0.35 -1.70 -1.30 -2.25 -2.05 -0.95 -1.30 -1.05 -2.20 -1.20 -10.10 l-0.15 -8.65 -1.80 -0.45 c-2.80 -0.65 -2.70 -1.65 0.20 -1.65 1.30 0 3.25 -0.15 4.30 -0.30 l1.85 -0.35 0 9.05 c0 8.75 0.05 9.10 1.15 10.40 1 1.10 1.60 1.35 3.45 1.35 1.25 0 3 -0.25 3.85 -0.65 l1.55 -0.60 0 -8.45 0 -8.40 -1.75 -0.35 c-1.90 -0.35 -2.75 -1.10 -1.65 -1.40 0.35 -0.10 2.30 -0.35 4.25 -0.50 l3.65 -0.30 0.10 10.35 0.15 10.35 1.65 0.40 c2.80 0.75 1.60 1.65 -2.30 1.80 -2 0.10 -3.60 -0.05 -3.60 -0.25 0 -0.20 -0.20 -0.70 -0.40 -1.05 -0.35 -0.50 -0.95 -0.35 -2.70 0.65 -2.75 1.55 -6.65 2.05 -8.35 1.15z"/>
  <path d="M710.55 342.60 c-0.65 -0.20 -1.70 -1 -2.25 -1.75 -0.95 -1.30 -1.05 -2.20 -1.20 -10.40 l-0.20 -8.95 -1.95 0 c-2.60 0 -2.45 -0.80 0.30 -2 l2.25 -0.95 0 -3.25 c0 -3.10 0.05 -3.30 1.50 -4.05 0.80 -0.40 1.70 -0.75 2 -0.75 0.30 0 0.50 1.60 0.50 4.25 0 4.70 -0.35 4.25 3.50 4.50 0.70 0.05 1.75 0.10 2.40 0.15 2.15 0.20 1.10 1.10 -1.25 1.10 -4.95 0 -4.65 -0.55 -4.65 9 0 4.65 0.15 8.80 0.30 9.25 0.80 2.05 4.05 1.85 5.65 -0.35 0.85 -1.25 1.90 -0.45 1.15 0.90 -1.50 2.80 -5 4.20 -8.05 3.30z"/>
  <path d="M744.40 342.25 c-4.20 -1.35 -6.65 -4.85 -7.20 -10.10 -0.95 -8.95 5.25 -15.25 13.40 -13.75 3.40 0.65 5.75 2.20 7.50 4.95 1 1.65 1.15 2.50 1.15 6.90 0 4.60 -0.10 5.20 -1.40 7.40 -0.75 1.30 -2.25 2.90 -3.25 3.60 -2.40 1.55 -6.95 2 -10.20 1z m7.85 -2.25 c1.90 -1.75 2.90 -6 2.65 -10.70 -0.35 -5.35 -1.60 -7.85 -4.40 -9 -2.95 -1.20 -3.90 -1 -6 1.10 -1.45 1.45 -2 2.50 -2.50 4.80 -0.75 3.75 -0.30 8.55 1.15 11.40 1.90 3.75 6.40 4.95 9.10 2.40z"/>
  <path d="M792.85 342.65 c-0.35 -0.60 -0.05 -7.15 0.35 -7.55 0.20 -0.20 0.95 0.35 1.65 1.15 3.60 4.35 4.85 5.25 7.35 5.25 1.70 0 3.30 -2 3.30 -4.10 0 -2.20 -1.35 -3.45 -5.15 -4.70 -5.60 -1.80 -7.70 -4.15 -7.15 -8 0.35 -2.75 1.10 -4 3.20 -5.30 1.65 -1 2 -1.05 8.50 -0.75 0.75 0 1.70 -0.05 2.10 -0.20 0.60 -0.15 0.75 0.40 0.75 3 0 3.80 -0.70 4.35 -2.25 1.75 -1.25 -2 -3.70 -3.70 -5.30 -3.70 -1.85 0 -3.70 1.85 -3.70 3.70 0 2.15 0.95 2.95 6.05 5.05 2.30 1 4.60 2.25 5.05 2.90 1.95 2.50 1.55 7.25 -0.85 9.65 -2.10 2.10 -6.05 2.55 -9.90 1.10 -1.10 -0.45 -1.55 -0.35 -2.30 0.30 -0.95 0.90 -1.40 1 -1.70 0.45z"/>
  <path d="M403.25 341.55 c-0.35 -0.65 1.35 -1.55 3 -1.55 0.90 0 1.40 -0.35 1.75 -1.30 0.75 -2 0.65 -26.45 -0.10 -27.10 -0.35 -0.25 -1.60 -0.65 -2.75 -0.85 -2.10 -0.35 -2.80 -0.95 -1.50 -1.30 0.30 -0.10 6.35 -0.20 13.35 -0.20 l12.75 0 0.15 4.90 c0.10 4 0 4.85 -0.60 4.85 -0.40 0 -1 -0.85 -1.35 -1.85 -1.45 -4.60 -3.60 -5.95 -10.35 -6.45 l-4.60 -0.35 0 6.85 0 6.85 3.35 -0.15 3.35 -0.15 1.30 -2.20 c2.20 -3.80 2.50 -3.35 2.50 3.65 0 3.45 -0.20 6.35 -0.50 6.55 -0.25 0.15 -0.95 -0.85 -1.55 -2.25 -1.30 -3.05 -2.05 -3.50 -5.70 -3.50 l-2.80 0 0.15 6.85 0.15 6.90 2.65 0.40 c1.65 0.30 2.60 0.65 2.45 1 -0.25 0.75 -14.65 1.10 -15.10 0.40z"/>
  <path d="M435.15 341.65 c-2 -0.40 -3.65 -2.60 -3.65 -4.85 0 -3.90 2.35 -5.60 10.90 -7.80 2 -0.50 2.10 -0.60 2.10 -2.45 0 -3.40 -0.85 -4.95 -3.05 -5.60 -3.10 -0.95 -4.45 -0.10 -4.45 2.75 0 1.75 -0.25 2.40 -1 2.80 -1.40 0.75 -2.95 0.15 -3.50 -1.30 -1.20 -3.05 2.65 -5.90 8 -5.90 3.65 -0.05 5.65 0.75 7.20 2.85 0.95 1.25 1.05 2.25 1.20 9.15 0.15 6.90 0.30 7.75 1.10 8.20 0.55 0.30 1.15 0.50 1.35 0.45 0.20 -0.05 0.70 -0.05 1.10 0 1.35 0.10 -0.45 1.45 -2.40 1.80 -2.65 0.45 -4.50 -0.40 -4.85 -2.20 l-0.30 -1.50 -1.85 1.50 c-2.60 2.05 -4.90 2.70 -7.90 2.10z m7.75 -3.75 c1.55 -0.95 1.60 -1.10 1.60 -4.45 l0 -3.45 -1.35 0.30 c-0.80 0.15 -2.65 0.90 -4.15 1.60 -2.55 1.25 -2.75 1.50 -2.90 3.20 -0.15 1.50 0.10 2.15 1.15 3.20 1.45 1.45 2.80 1.35 5.65 -0.40z"/>
  <path d="M478.90 341.65 c-1.45 -0.35 -1 -1.10 0.85 -1.45 l1.75 -0.30 -0.10 -9.10 -0.15 -9.05 -1.60 -0.50 c-2.40 -0.70 -2.10 -1.75 0.50 -1.75 1.15 0 2.95 -0.15 3.95 -0.30 l1.90 -0.35 0.10 10.40 0.15 10.40 1.50 0.50 c1.95 0.65 2.10 0.80 1.25 1.35 -0.75 0.50 -8.45 0.60 -10.10 0.15z"/>
  <path d="M492 341.55 c-0.85 -0.60 -0.70 -0.75 1.25 -1.40 l1.50 -0.50 0 -14.95 0 -14.95 -1.75 -0.55 c-2.80 -0.95 -2.05 -1.45 2.35 -1.60 l4.15 -0.15 0.10 16.15 0.15 16.10 1.65 0.50 c0.90 0.25 1.55 0.70 1.45 1 -0.25 0.70 -9.80 1 -10.85 0.35z"/>
  <path d="M507.25 341.50 c-0.45 -0.70 -0.35 -0.75 1.50 -1.35 l1.50 -0.50 0.15 -8.85 0.10 -8.85 -1.75 -0.75 c-2.20 -0.90 -2.25 -1.70 -0.05 -1.70 0.90 0 2.70 -0.15 3.95 -0.30 l2.35 -0.35 0.10 10.45 0.15 10.45 1.65 0.50 c2.95 0.85 1.40 1.50 -4.05 1.65 -3.45 0.10 -5.40 -0.05 -5.60 -0.40z"/>
  <path d="M539.65 341.70 c-1.15 -0.50 -0.70 -1.15 1 -1.60 l1.60 -0.40 0.15 -8.90 0.10 -8.85 -1.75 -0.75 c-2.20 -0.90 -2.25 -1.70 -0.05 -1.70 0.90 0 2.70 -0.15 3.95 -0.30 l2.35 -0.35 0.10 10.45 0.15 10.45 1.65 0.50 c2.90 0.85 1.45 1.50 -3.70 1.60 -2.70 0.05 -5.25 -0.05 -5.55 -0.15z"/>
  <path d="M661 341.55 c-0.85 -0.60 -0.70 -0.75 1.25 -1.40 l1.50 -0.50 0 -14.95 0 -14.95 -1.75 -0.55 c-2.80 -0.95 -2.05 -1.45 2.35 -1.60 l4.15 -0.15 0.10 16.15 0.15 16.10 1.65 0.50 c0.90 0.25 1.55 0.70 1.45 1 -0.25 0.70 -9.80 1 -10.85 0.35z"/>
  <path d="M722.90 341.65 c-1.45 -0.35 -1.05 -1 0.85 -1.35 l1.75 -0.35 -0.10 -9.10 -0.15 -9.10 -1.60 -0.50 c-2.40 -0.70 -2.10 -1.75 0.50 -1.75 1.15 0 2.95 -0.15 3.95 -0.30 l1.90 -0.35 0.10 10.45 0.15 10.45 1.50 0.45 c2 0.65 2.10 0.80 1.25 1.30 -0.75 0.50 -8.45 0.60 -10.10 0.15z"/>
  <path d="M763.35 341.70 c-0.70 -0.70 -0.30 -1.20 1.30 -1.60 l1.60 -0.40 0.15 -8.90 0.10 -8.85 -1.75 -0.75 c-2.10 -0.85 -2.30 -1.70 -0.30 -1.70 0.75 0 2.45 -0.15 3.75 -0.30 2.30 -0.35 2.30 -0.35 2.30 1.15 0 0.80 0.15 1.60 0.30 1.80 0.15 0.15 1.55 -0.40 3.10 -1.30 4.70 -2.65 8.75 -2.10 10.75 1.40 0.35 0.60 0.70 4.40 0.85 9.25 l0.25 8.25 1.65 0.50 c3 0.90 1.45 1.50 -3.90 1.50 -5.40 0 -6.95 -0.65 -4 -1.65 l1.50 -0.55 0 -7 c0 -7.70 -0.40 -9.25 -2.50 -9.95 -1.45 -0.55 -4.60 -0.10 -6.35 0.85 -1.10 0.55 -1.15 0.80 -1.15 8.20 0 7.95 0.20 8.85 2.15 8.85 0.50 0 0.85 0.25 0.75 0.65 -0.25 0.65 -9.90 1.15 -10.55 0.55z"/>
  <path d="M482 312 c-1.30 -1.30 -1.25 -2.75 0.05 -4.05 1.90 -1.90 5.30 -0.05 4.70 2.55 -0.60 2.50 -3 3.25 -4.75 1.50z"/>
  <path d="M511 312 c-1.30 -1.30 -1.25 -2.75 0.05 -4.05 1.70 -1.70 4.95 -0.30 4.95 2.15 0 1.20 -1.75 2.90 -3 2.90 -0.55 0 -1.45 -0.45 -2 -1z"/>
  <path d="M543 312 c-1.30 -1.30 -1.25 -2.75 0.05 -4.05 1.70 -1.70 4.95 -0.30 4.95 2.15 0 1.20 -1.75 2.90 -3 2.90 -0.55 0 -1.45 -0.45 -2 -1z"/>
  <path d="M725.95 311.95 c-1.90 -1.90 -0.05 -5.25 2.55 -4.65 1.70 0.35 2.60 1.65 2.25 3.20 -0.60 2.50 -3 3.25 -4.80 1.45z"/>
  <path d="M414.05 253.85 c-1.25 -3.20 -20.55 -57 -20.55 -57.15 0 -0.15 3.10 -0.15 6.90 -0.10 l6.85 0.15 6.55 19.50 c3.60 10.75 6.75 19.50 6.95 19.50 0.25 0 3.35 -8.85 6.95 -19.60 l6.55 -19.65 6.35 0 6.30 0 6.60 19.75 c3.60 10.85 6.75 19.75 6.90 19.75 0.20 0 3.30 -8.85 6.90 -19.60 l6.55 -19.65 6.80 -0.15 c3.75 -0.05 6.85 0.05 6.85 0.30 0 0.25 -1.35 4.25 -3.05 8.90 -1.65 4.65 -4.10 11.50 -5.45 15.20 -1.30 3.70 -4.40 12.40 -6.90 19.25 -2.45 6.90 -4.65 13 -4.85 13.65 -0.30 1.05 -0.50 1.10 -6.90 1.10 l-6.60 -0.05 -6.40 -19.45 c-3.55 -10.75 -6.60 -19.50 -6.85 -19.50 -0.25 0 -0.65 0.75 -0.90 1.65 -0.25 0.85 -3.10 9.65 -6.35 19.50 l-5.95 17.85 -6.40 0 c-6.30 0 -6.45 -0.05 -6.85 -1.15z"/>
  <path d="M488.70 253.15 c0.40 -1.05 4.70 -11.25 9.55 -22.65 4.90 -11.40 10 -23.45 11.35 -26.75 1.35 -3.30 2.85 -6.35 3.35 -6.75 0.65 -0.60 2.05 -0.70 6.60 -0.60 l5.80 0.15 12.05 28.35 c6.60 15.60 12.20 28.75 12.40 29.25 0.30 0.80 -0.15 0.85 -6.50 0.75 l-6.85 -0.15 -2.55 -6.40 -2.55 -6.35 -12.55 0.10 -12.50 0.15 -2.55 6.25 -2.55 6.25 -6.60 0.15 -6.55 0.15 0.65 -1.90z m37.45 -23 c0.40 -0.65 -6.80 -17.70 -7.35 -17.50 -0.50 0.15 -7.20 16.10 -7.25 17.25 -0.05 0.45 1.70 0.60 7.15 0.60 4 0 7.35 -0.15 7.45 -0.35z"/>
  <path d="M564.50 226 c0 -24.50 0.10 -29 0.70 -29.35 0.40 -0.20 3.35 -0.35 6.50 -0.25 l5.80 0.15 0 12.55 0 12.55 1.05 -0.95 c0.60 -0.50 5.90 -6.15 11.75 -12.50 5.90 -6.40 11 -11.70 11.35 -11.75 0.30 -0.10 3.85 -0.10 7.85 0.05 l7.25 0.25 -11.50 11.95 c-6.30 6.55 -11.50 12.30 -11.45 12.75 0 0.45 5.25 7.85 11.65 16.45 6.40 8.60 11.75 16 11.90 16.40 0.25 0.60 -0.85 0.70 -7.40 0.60 l-7.65 -0.15 -8.75 -12.10 c-4.85 -6.70 -9 -12.10 -9.30 -12 -0.25 0.05 -1.90 1.60 -3.60 3.40 l-3.15 3.30 0 8.80 0 8.85 -6.50 0 -6.50 0 0 -29z"/>
  <path d="M632.50 225.80 c0 -16.10 0.15 -29.30 0.40 -29.40 0.20 -0.10 10.10 -0.10 22 0 l21.65 0.15 -0.15 5.60 -0.15 5.60 -15.35 0.15 -15.40 0.10 0 5.75 0 5.75 13.45 0 c11.80 0 13.50 0.10 13.75 0.80 0.35 0.95 0.40 9.35 0.05 10.30 -0.20 0.50 -2.95 0.65 -13.75 0.60 l-13.50 -0.05 0 6.20 0 6.15 15.75 0 15.75 0 0 5.75 0 5.75 -22.25 0 -22.25 0 0 -29.20z"/>
  <path d="M695 226.30 c0 -15.80 0.10 -29 0.25 -29.40 0.20 -0.55 4.35 -0.65 22.40 -0.55 l22.10 0.10 0.15 5.75 0.15 5.80 -16.05 0 -16 0 0 6.25 0 6.25 13.75 0 13.75 0 0 6 0 6 -13.75 0 -13.75 0 0 11.25 0 11.25 -6.50 0 -6.50 0 0 -28.70z"/>
  <path d="M757.50 225.75 c0 -23.05 0.15 -29.25 0.65 -29.25 4.70 -0.10 10.35 -0.10 11.25 -0.05 l1.10 0.05 0 29.25 0 29.25 -6.50 0 -6.50 0 0 -29.25z"/>
  <path d="M789.50 225.50 l0 -29.50 21.90 0.10 21.85 0.15 0 5.65 0 5.65 -15.25 0.10 -15.25 0.10 -0.15 5.90 -0.15 5.85 13.50 0 c7.40 0 13.60 0.15 13.70 0.40 0.15 0.20 0.10 2.80 -0.10 5.80 l-0.30 5.50 -13.35 -0.05 -13.40 0 0 6.20 0 6.15 15.75 0 15.75 0 0 5.75 0 5.75 -22.25 0 -22.25 0 0 -29.50z"/>
  <path d="M853.35 254.65 c-0.40 -0.35 -0.50 -56.70 -0.10 -57.75 0.25 -0.55 5.30 -0.75 12.35 -0.40 0.20 0 0.45 10.50 0.50 23.40 l0.15 23.35 14.65 0.15 14.65 0.10 -0.15 5.65 -0.15 5.60 -20.80 0.15 c-11.40 0.05 -20.90 -0.05 -21.10 -0.25z"/>
  <path d="M911.10 225.75 l0.15 -29.30 13.50 0 c12.25 -0.05 13.90 0.05 17.75 1.05 10.55 2.70 18.25 9.70 21.25 19.30 2.05 6.50 1.30 15.80 -1.85 22.20 -2.25 4.65 -7.95 10.25 -12.90 12.70 -5.75 2.80 -9.50 3.30 -24.80 3.30 l-13.20 0 0.10 -29.25z m26.45 17.25 c9.90 -1.90 15.45 -10.65 13.45 -21.25 -0.75 -3.95 -3.45 -8.40 -6.30 -10.35 -3.90 -2.70 -5.45 -3.05 -13.30 -3.30 l-7.40 -0.20 0 17.80 0 17.80 5.45 0 c2.95 0 6.60 -0.25 8.10 -0.50z"/>
  <path d="M419.65 175.45 c-10.40 -1.75 -19.35 -9.60 -22.95 -20.20 -1.90 -5.55 -1.95 -13.15 -0.05 -18.90 3.20 -9.80 11.45 -17.50 21.60 -20.10 4 -1.05 11.60 -1.05 16 -0.05 4.30 1.05 9.85 3.65 12.45 5.95 l2 1.70 -3.25 3.90 c-1.75 2.10 -3.55 4.35 -4 4.90 -0.85 1.05 -0.85 1.05 -2.65 -0.55 -5.75 -5 -13.85 -6.15 -20.55 -2.85 -8.45 4.10 -11.95 15.85 -7.45 25.10 1.65 3.45 5.90 7.30 9.60 8.65 6 2.30 13.80 0.60 18.80 -4 l2.30 -2.10 4 3.90 c2.20 2.15 4 4.20 4 4.50 0 1.15 -5.70 5.75 -9.25 7.50 -5.85 2.90 -13.40 3.85 -20.60 2.65z"/>
  <path d="M483.05 175.25 c-8.75 -1.95 -14.25 -7.30 -16.90 -16.30 -0.65 -2.20 -0.85 -6.25 -1 -21.60 -0.15 -10.45 -0.10 -19.45 0.05 -20 0.25 -1.05 0.45 -1.10 6.50 -0.95 l6.25 0.15 0.15 18.85 c0.15 17.05 0.25 19.05 1.10 21.10 2 4.85 5.90 7.45 11.05 7.50 5.85 0 9.40 -1.95 11.60 -6.45 l1.40 -2.80 0.15 -19.10 0.15 -19.10 4.85 -0.15 c2.65 -0.10 5.60 -0.10 6.50 0 l1.65 0.15 -0.20 19.85 c-0.15 16.20 -0.35 20.35 -0.95 22.45 -2.45 8.05 -7.80 13.75 -14.90 15.90 -3.90 1.15 -13.40 1.45 -17.45 0.50z"/>
  <path d="M548.25 175.25 c-4.90 -0.90 -9.75 -2.85 -13.80 -5.55 -1.90 -1.25 -3.55 -2.50 -3.75 -2.75 -0.15 -0.25 1.05 -2.05 2.65 -4 1.60 -1.95 3.25 -4 3.70 -4.55 0.75 -1 0.85 -0.95 4.20 1.30 1.90 1.25 4.70 2.75 6.20 3.35 3.45 1.30 9.10 1.75 11.90 1 2.60 -0.70 4.65 -3 4.65 -5.20 -0.05 -3.25 -2.75 -4.95 -11.45 -7.35 -13.80 -3.75 -17.95 -6.95 -19.60 -15.20 -1.30 -6.40 1.60 -13.60 6.95 -17.20 3.85 -2.60 6.25 -3.25 12.65 -3.50 4.85 -0.15 6.45 0 9.75 0.90 4.35 1.20 9.20 3.35 11.35 5.10 l1.40 1.15 -3.10 4.65 c-1.70 2.50 -3.30 4.60 -3.55 4.60 -0.30 0 -2.55 -1 -5.05 -2.25 -7.65 -3.80 -13.15 -4.05 -16.45 -0.75 -2.55 2.55 -1.50 6.15 2.35 8 1.25 0.60 5.30 1.95 9 3.05 10.65 3.05 14.75 5.50 17.10 10.35 1.25 2.50 1.40 3.40 1.35 7.35 -0.05 3.80 -0.25 5 -1.45 7.65 -3.75 8.35 -14.30 12.20 -27 9.85z"/>
  <path d="M920.15 175.30 c-5.20 -1.70 -9.75 -5.75 -12.05 -10.70 -1.90 -4.20 -1.90 -9.65 0.10 -13.95 1.30 -2.85 6.40 -8.60 7.65 -8.65 0.20 0 0.80 -0.35 1.35 -0.75 0.90 -0.65 0.85 -0.80 -0.80 -3.10 -3.45 -4.80 -4.20 -9 -2.45 -13.60 1.40 -3.75 3.30 -5.85 6.80 -7.60 10.05 -4.90 21.75 1.95 21.75 12.80 0 3.95 -1.25 6.95 -4.35 10.25 -1.75 1.90 -2.60 3.20 -2.35 3.60 0.20 0.35 1.75 2.20 3.40 4.10 l3 3.40 3.05 -3.35 3 -3.35 3.90 4.05 c2.10 2.20 3.85 4.30 3.85 4.60 0 0.30 -1.35 2 -3 3.80 -1.65 1.80 -3 3.50 -3 3.75 0 0.25 2.75 3.55 6.10 7.30 l6.15 6.85 -7.50 0.15 c-8.40 0.15 -7.30 0.55 -11.05 -4.15 l-1.55 -1.95 -2.45 2.10 c-3.95 3.30 -7.65 4.75 -12.95 4.95 -2.90 0.10 -5.25 -0.10 -6.60 -0.55z m9.60 -10.80 c1.10 -0.55 2.80 -1.75 3.70 -2.65 l1.60 -1.70 -4.60 -5.60 c-2.50 -3.05 -4.85 -5.55 -5.20 -5.55 -1.05 0 -4.85 3.10 -6.10 4.95 -2.30 3.40 -1.10 7.80 2.80 10.40 2.15 1.45 5.05 1.50 7.80 0.15z m0.45 -30.65 c0.95 -0.90 1.90 -2.25 2.05 -3 0.50 -1.90 -0.55 -4.15 -2.30 -4.85 -3.95 -1.65 -7.50 2.50 -5.10 6 1.15 1.75 2.75 3.50 3.20 3.50 0.20 0 1.15 -0.75 2.15 -1.65z"/>
  <path d="M594.50 174.65 c0 -0.25 0 -13.10 0 -28.65 0 -15.55 0 -28.60 0 -29 0 -0.65 0.95 -0.75 5.85 -0.65 3.25 0.05 6.20 0.10 6.55 0.10 0.45 0.05 0.60 2.70 0.60 11.55 l0 11.50 11.75 0 11.75 0 0.10 -11.55 0.15 -11.50 6.25 -0.05 6.25 0 0.15 29.30 0.10 29.30 -6.50 0 -6.50 0 -0.10 -11.60 -0.15 -11.65 -11.60 -0.15 -11.65 -0.10 0 11.75 0 11.75 -6.50 0 c-3.55 0 -6.50 -0.15 -6.50 -0.35z"/>
  <path d="M665.40 174.65 c-0.10 -0.25 -0.10 -13.45 0 -29.40 l0.10 -29 6.90 0.15 6.85 0.15 6.90 11.10 c8.35 13.45 8.25 13.35 8.85 12.35 0.25 -0.40 3.65 -5.90 7.60 -12.20 l7.15 -11.45 4 0 c2.20 0 5.30 0.05 6.90 0.05 l2.85 0.10 0 29.25 0 29.30 -6.05 -0.15 -6 -0.15 0.05 -18.65 c0 -13.30 -0.10 -18.60 -0.50 -18.35 -0.30 0.20 -4.15 5.75 -8.55 12.35 l-8.05 12.05 -8.05 -12.30 c-4.45 -6.75 -8.25 -12.30 -8.45 -12.30 -0.25 -0.05 -0.40 8.40 -0.40 18.70 l0 18.75 -5.95 0 c-3.30 0 -6.05 -0.15 -6.15 -0.35z"/>
  <path d="M738.50 174.60 c0 -0.50 1.30 -3.60 13.10 -31.35 5.55 -12.95 10.25 -24.10 10.50 -24.90 0.30 -0.75 0.90 -1.55 1.35 -1.75 0.45 -0.20 3.35 -0.25 6.50 -0.10 l5.70 0.25 8.15 19.25 c4.55 10.60 10 23.45 12.20 28.60 2.20 5.10 4 9.55 4 9.85 0 0.35 -2.20 0.55 -6.60 0.55 l-6.65 0 -2.50 -6.40 -2.55 -6.35 -12.50 -0.15 -12.55 -0.10 -2.65 6.50 -2.65 6.50 -6.40 0 c-3.55 0 -6.45 -0.15 -6.45 -0.40z m38 -24.60 c0 -0.25 -0.90 -2.70 -2 -5.35 -1.15 -2.70 -2.75 -6.65 -3.60 -8.80 -0.85 -2.15 -1.70 -3.70 -1.95 -3.50 -0.35 0.40 -6.75 15.55 -7.30 17.30 -0.25 0.80 0.30 0.85 7.30 0.85 4.65 0 7.55 -0.20 7.55 -0.50z"/>
  <path d="M815.10 145.70 l0.15 -29.30 5.70 0.05 c3.45 0 5.90 0.20 6.25 0.55 0.30 0.30 6.30 8.35 13.30 17.85 7 9.55 13.05 17.40 13.40 17.55 0.45 0.15 0.60 -3.65 0.60 -18 l0 -18.15 6.10 0.05 6.15 0.05 0.15 29.35 0.10 29.30 -5.90 0 -5.90 0 -13.25 -17.60 c-7.25 -9.65 -13.45 -17.65 -13.75 -17.75 -0.60 -0.20 -0.60 0.15 -0.65 23.25 l-0.05 12.10 -6.25 0 -6.25 0 0.10 -29.30z"/>
 </g>
 <g fill="#ea1c2c">
  <path d="M224.35 255 l-4.90 -0.25 0.05 -81.25 c0 -64.15 0.15 -81.35 0.65 -81.80 2.25 -2 9.30 -7.05 9.55 -6.85 0.45 0.45 0.35 170.05 -0.05 170.25 -0.25 0.10 -2.60 0.05 -5.30 -0.10z"/>
  <path d="M114.95 254.80 c-0.10 -0.10 -0.15 -11.70 -0.05 -25.70 l0.10 -25.50 4.80 -3.55 c2.60 -2 5 -3.70 5.35 -3.85 0.50 -0.15 0.60 6 0.60 29.15 l0 29.40 -5.30 0.15 c-2.90 0.05 -5.35 0.05 -5.50 -0.10z"/>
  <path d="M136 254.15 c-0.05 -1.55 -0.05 -64.85 0 -65.70 0 -0.45 1.65 -2 3.65 -3.50 1.95 -1.45 4.35 -3.20 5.25 -3.85 l1.60 -1.20 0 37.55 0 37.55 -5.25 0 c-4.65 0 -5.25 -0.10 -5.25 -0.85z"/>
  <path d="M156.50 213.90 c0 -22.65 0.20 -41.40 0.40 -41.65 0.55 -0.85 9.65 -7.75 10.15 -7.75 0.25 0 0.45 19.80 0.45 45.25 l0 45.25 -5.50 0 -5.50 0 0 -41.10z"/>
  <path d="M177.60 189.40 l0.15 -65.65 4.75 -3.60 c2.60 -2 5.05 -3.65 5.40 -3.65 0.45 0 0.60 14.20 0.60 69.25 l0 69.25 -5.50 0 -5.50 0 0.10 -65.60z"/>
  <path d="M198.50 181.55 l0 -73.50 5.05 -3.80 c2.80 -2.10 5.15 -3.70 5.30 -3.60 0.10 0.15 0.20 34.85 0.20 77.15 l-0.05 76.95 -5.25 0.15 -5.25 0.15 0 -73.50z"/>
  <path d="M240 165.95 c0 -54.50 0.20 -88.95 0.45 -88.85 0.25 0.05 7.65 5.55 16.35 12.15 8.75 6.60 20.35 15.35 25.80 19.45 l9.90 7.45 0 69.40 0 69.45 -26.25 0 -26.25 0 0 -89.05z"/>
  <path d="M302.50 206 c0 -26.95 0.15 -49 0.35 -49 0.30 0 23.65 17.55 46 34.50 l6.25 4.75 0 29.25 0.05 29.25 -26.30 0.15 -26.35 0.10 0 -49z"/>
 </g>
</svg>