<?xml version="1.0" encoding="UTF-8"?>
<!DOCTYPE svg PUBLIC "-//W3C//DTD SVG 1.1//EN" "http://www.w3.org/Graphics/SVG/1.1/DTD/svg11.dtd">
<svg version="1.1" xmlns="http://www.w3.org/2000/svg" xmlns:xlink="http://www.w3.org/1999/xlink" x="0" y="0" width="1084" height="371" viewBox="0, 0, 1084, 371">
  <g id="Layer_1">
    <g>
      <path d="M610.929,318.5 C610.429,317.951 610.579,307.85 611.129,307.85 C611.379,307.85 612.479,309.051 613.529,310.5 C616.979,315.051 618.929,316.35 622.479,316.35 C626.379,316.35 629.129,313.65 629.129,309.75 C629.129,306.951 626.629,305.1 618.729,302.1 C614.029,300.35 611.829,298.25 611.329,295.1 C610.579,289.951 613.429,285.5 618.479,284.051 C620.929,283.35 621.829,283.301 624.679,283.85 C627.129,284.25 628.329,284.301 629.079,283.9 C631.029,282.85 631.179,283.15 631.029,288 C630.829,293.4 630.279,293.85 628.229,290.1 C625.929,285.85 621.679,284.25 618.229,286.35 C616.429,287.451 615.629,289.051 615.629,291.551 C615.629,293.9 617.279,295.4 621.879,297.301 C629.079,300.201 629.679,300.5 631.129,302.15 C634.179,305.65 633.429,312.25 629.579,315.551 C626.729,317.951 623.679,318.551 618.029,317.801 C614.229,317.301 613.529,317.301 612.429,318 C611.779,318.451 611.129,318.65 610.929,318.5 z" fill="#6B6C6B"/>
      <path d="M464.279,317.8 C460.129,316.55 456.829,310.5 457.279,305.15 C457.879,298.3 462.379,293.55 468.079,293.65 C471.279,293.7 473.529,294.7 475.129,296.7 C476.829,298.9 475.779,302.35 473.379,302.35 C472.179,302.35 470.629,300.95 470.629,299.8 C470.629,299.4 470.979,298.5 471.329,297.75 C472.029,296.45 471.979,296.3 471.079,295.8 C470.529,295.55 469.179,295.25 468.079,295.2 C466.329,295.15 465.779,295.4 464.379,296.9 C463.279,298.1 462.529,299.6 462.179,301.3 C461.479,304.7 461.479,305.55 462.379,309.1 C463.929,315.1 468.279,317 473.279,313.85 C476.279,311.95 476.879,311.95 475.879,313.85 C474.179,317.2 468.479,319.1 464.279,317.8 z" fill="#6B6C6B"/>
      <path d="M529.679,317.95 C529.029,317.75 527.979,316.95 527.429,316.2 C526.479,314.9 526.379,314 526.229,305.8 L526.029,296.85 L524.079,296.85 C521.479,296.85 521.629,296.05 524.379,294.85 L526.629,293.9 L526.629,290.65 C526.629,287.55 526.679,287.35 528.129,286.6 C528.929,286.2 529.829,285.85 530.129,285.85 C530.429,285.85 530.629,287.45 530.629,290.1 L530.629,294.35 L532.279,294.4 C533.129,294.45 534.079,294.45 534.329,294.4 C535.229,294.2 537.629,294.95 537.629,295.4 C537.629,295.65 536.879,295.85 536.029,295.85 C535.129,295.85 533.529,296 532.529,296.15 L530.629,296.5 L530.629,304.7 C530.629,315.85 531.729,317.9 535.829,314.35 C538.679,311.85 538.779,314.1 535.979,316.75 C534.629,318 531.729,318.55 529.679,317.95 z" fill="#6B6C6B"/>
      <path d="M562.879,317.451 C558.029,315.8 555.379,310 556.479,303.55 C557.129,299.75 558.579,297.25 561.229,295.35 C566.679,291.4 574.179,294.25 575.579,300.85 C576.629,305.701 577.129,305.35 568.679,305.35 C564.529,305.35 561.079,305.55 560.929,305.8 C560.729,306.05 560.879,307.451 561.179,308.85 C562.129,313.35 565.879,316.3 569.679,315.5 C570.479,315.35 572.129,314.35 573.329,313.3 C575.729,311.15 576.729,311.451 575.329,313.8 C574.179,315.75 572.279,317.1 569.829,317.8 C567.229,318.55 565.829,318.451 562.879,317.451 z M571.079,303.4 C572.329,302.6 571.279,298.4 569.379,296.5 C568.479,295.6 567.379,294.85 566.929,294.85 C565.429,294.85 563.179,296.35 562.379,297.8 C561.529,299.55 560.629,303.201 561.029,303.6 C561.479,304.05 570.329,303.85 571.079,303.4 z" fill="#6B6C6B"/>
      <path d="M580.979,318 C580.629,317.35 580.879,310.901 581.279,310.5 C581.529,310.301 582.829,311.401 584.179,312.951 C586.679,315.85 589.229,317.201 591.079,316.6 C592.579,316.151 593.679,314.551 593.729,312.801 C593.779,310.75 592.179,309.25 588.529,308.1 C582.779,306.201 580.729,303.801 581.329,299.701 C582.029,295.151 586.229,292.75 591.379,293.901 C593.529,294.401 594.229,294.35 594.879,293.85 C595.479,293.35 595.679,293.35 595.879,294 C596.379,295.201 595.929,300 595.329,300.201 C594.979,300.301 594.229,299.6 593.629,298.551 C592.379,296.551 589.929,294.85 588.329,294.85 C586.479,294.85 584.629,296.701 584.629,298.6 C584.629,300.651 585.979,301.85 589.979,303.35 C594.529,305.051 595.679,305.801 596.479,307.75 C597.429,310 597.029,313.35 595.629,315.35 C593.679,318.051 588.279,319.051 584.979,317.301 C584.379,316.951 583.779,317.051 583.029,317.6 C581.779,318.451 581.279,318.551 580.979,318 z" fill="#6B6C6B"/>
      <path d="M644.579,317.7 C640.979,316.35 638.929,314.15 637.829,310.5 C636.279,305.3 637.479,299.8 640.929,296.5 C643.779,293.75 646.279,293.05 650.529,293.75 C654.079,294.35 656.429,295.85 658.179,298.65 C659.529,300.85 660.079,306.9 659.179,310.15 C658.429,312.95 656.129,316 653.979,317 C651.529,318.2 646.779,318.55 644.579,317.7 z M652.279,315.45 C654.029,313.9 654.779,311.7 655.029,307.35 C655.279,302.15 654.629,299.35 652.479,297.05 C649.379,293.7 645.129,294.65 642.879,299.1 C640.879,303.15 641.879,312.6 644.579,315.05 C646.679,316.95 650.429,317.15 652.279,315.45 z" fill="#6B6C6B"/>
      <path d="M684.179,317.75 C683.529,317.4 682.479,316.45 681.929,315.7 C680.979,314.4 680.879,313.5 680.729,305.6 L680.579,296.95 L678.779,296.5 C675.979,295.85 676.079,294.85 678.979,294.85 C680.279,294.85 682.229,294.7 683.279,294.55 L685.129,294.2 L685.129,303.25 C685.129,312 685.179,312.35 686.279,313.65 C687.279,314.75 687.879,315 689.729,315 C690.979,315 692.729,314.75 693.579,314.35 L695.129,313.75 L695.129,305.3 L695.129,296.9 L693.379,296.55 C691.479,296.2 690.629,295.45 691.729,295.15 C692.079,295.05 694.029,294.8 695.979,294.65 L699.629,294.35 L699.729,304.7 L699.879,315.05 L701.529,315.45 C704.329,316.2 703.129,317.1 699.229,317.25 C697.229,317.35 695.629,317.2 695.629,317 C695.629,316.8 695.429,316.3 695.229,315.95 C694.879,315.45 694.279,315.6 692.529,316.6 C689.779,318.15 685.879,318.65 684.179,317.75 z" fill="#6B6C6B"/>
      <path d="M712.679,317.951 C712.029,317.75 710.979,316.951 710.429,316.201 C709.479,314.9 709.379,314 709.229,305.8 L709.029,296.85 L707.079,296.85 C704.479,296.85 704.629,296.05 707.379,294.85 L709.629,293.9 L709.629,290.65 C709.629,287.55 709.679,287.35 711.129,286.6 C711.929,286.201 712.829,285.85 713.129,285.85 C713.429,285.85 713.629,287.451 713.629,290.1 C713.629,294.8 713.279,294.35 717.129,294.6 C717.829,294.65 718.879,294.701 719.529,294.75 C721.679,294.951 720.629,295.85 718.279,295.85 C713.329,295.85 713.629,295.3 713.629,304.85 C713.629,309.5 713.779,313.65 713.929,314.1 C714.729,316.15 717.979,315.951 719.579,313.75 C720.429,312.5 721.479,313.3 720.729,314.65 C719.229,317.451 715.729,318.85 712.679,317.951 z" fill="#6B6C6B"/>
      <path d="M746.529,317.6 C742.329,316.25 739.879,312.75 739.329,307.5 C738.379,298.55 744.579,292.25 752.729,293.75 C756.129,294.4 758.479,295.95 760.229,298.7 C761.229,300.35 761.379,301.2 761.379,305.6 C761.379,310.2 761.279,310.8 759.979,313 C759.229,314.3 757.729,315.9 756.729,316.6 C754.329,318.15 749.779,318.6 746.529,317.6 z M754.379,315.35 C756.279,313.6 757.279,309.35 757.029,304.65 C756.679,299.3 755.429,296.8 752.629,295.65 C749.679,294.45 748.729,294.65 746.629,296.75 C745.179,298.2 744.629,299.25 744.129,301.55 C743.379,305.3 743.829,310.1 745.279,312.95 C747.179,316.7 751.679,317.9 754.379,315.35 z" fill="#6B6C6B"/>
      <path d="M794.979,318 C794.629,317.4 794.929,310.85 795.329,310.45 C795.529,310.25 796.279,310.8 796.979,311.6 C800.579,315.95 801.829,316.85 804.329,316.85 C806.029,316.85 807.629,314.85 807.629,312.75 C807.629,310.55 806.279,309.3 802.479,308.05 C796.879,306.25 794.779,303.9 795.329,300.05 C795.679,297.3 796.429,296.05 798.529,294.75 C800.179,293.75 800.529,293.7 807.029,294 C807.779,294 808.729,293.95 809.129,293.8 C809.729,293.65 809.879,294.2 809.879,296.8 C809.879,300.6 809.179,301.15 807.629,298.55 C806.379,296.55 803.929,294.85 802.329,294.85 C800.479,294.85 798.629,296.7 798.629,298.55 C798.629,300.7 799.579,301.5 804.679,303.6 C806.979,304.6 809.279,305.85 809.729,306.5 C811.679,309 811.279,313.75 808.879,316.15 C806.779,318.25 802.829,318.7 798.979,317.25 C797.879,316.8 797.429,316.9 796.679,317.55 C795.729,318.45 795.279,318.55 794.979,318 z" fill="#6B6C6B"/>
      <path d="M405.379,316.9 C405.029,316.25 406.729,315.35 408.379,315.35 C409.279,315.35 409.779,315 410.129,314.05 C410.879,312.05 410.779,287.6 410.029,286.951 C409.679,286.701 408.429,286.3 407.279,286.1 C405.179,285.75 404.479,285.15 405.779,284.8 C406.079,284.701 412.129,284.6 419.129,284.6 L431.879,284.6 L432.029,289.5 C432.129,293.5 432.029,294.35 431.429,294.35 C431.029,294.35 430.429,293.5 430.079,292.5 C428.629,287.9 426.479,286.55 419.729,286.05 L415.129,285.701 L415.129,292.55 L415.129,299.4 L418.479,299.25 L421.829,299.1 L423.129,296.9 C425.329,293.1 425.629,293.55 425.629,300.55 C425.629,304 425.429,306.9 425.129,307.1 C424.879,307.25 424.179,306.25 423.579,304.85 C422.279,301.8 421.529,301.35 417.879,301.35 L415.079,301.35 L415.229,308.201 L415.379,315.1 L418.029,315.5 C419.679,315.8 420.629,316.15 420.479,316.5 C420.229,317.25 405.829,317.6 405.379,316.9 z" fill="#6B6C6B"/>
      <path d="M437.279,317 C435.279,316.6 433.629,314.4 433.629,312.15 C433.629,308.25 435.979,306.55 444.529,304.35 C446.529,303.85 446.629,303.75 446.629,301.9 C446.629,298.5 445.779,296.951 443.579,296.3 C440.479,295.35 439.129,296.201 439.129,299.05 C439.129,300.8 438.879,301.451 438.129,301.85 C436.729,302.6 435.179,302 434.629,300.55 C433.429,297.5 437.279,294.65 442.629,294.65 C446.279,294.6 448.279,295.4 449.829,297.5 C450.779,298.75 450.879,299.75 451.029,306.65 C451.179,313.55 451.329,314.4 452.129,314.85 C452.679,315.15 453.279,315.35 453.479,315.3 C453.679,315.25 454.179,315.25 454.579,315.3 C455.929,315.4 454.129,316.75 452.179,317.1 C449.529,317.55 447.679,316.701 447.329,314.9 L447.029,313.4 L445.179,314.9 C442.579,316.951 440.279,317.6 437.279,317 z M445.029,313.25 C446.579,312.3 446.629,312.15 446.629,308.8 L446.629,305.35 L445.279,305.65 C444.479,305.8 442.629,306.55 441.129,307.25 C438.579,308.5 438.379,308.75 438.229,310.451 C438.079,311.951 438.329,312.6 439.379,313.65 C440.829,315.1 442.179,315 445.029,313.25 z" fill="#6B6C6B"/>
      <path d="M481.029,317 C479.579,316.65 480.029,315.9 481.879,315.55 L483.629,315.25 L483.529,306.15 L483.379,297.1 L481.779,296.6 C479.379,295.9 479.679,294.85 482.279,294.85 C483.429,294.85 485.229,294.7 486.229,294.55 L488.129,294.2 L488.229,304.6 L488.379,315 L489.879,315.5 C491.829,316.15 491.979,316.3 491.129,316.85 C490.379,317.35 482.679,317.45 481.029,317 z" fill="#6B6C6B"/>
      <path d="M494.129,316.9 C493.279,316.3 493.429,316.15 495.379,315.5 L496.879,315 L496.879,300.05 L496.879,285.1 L495.129,284.55 C492.329,283.6 493.079,283.1 497.479,282.95 L501.629,282.8 L501.729,298.95 L501.879,315.05 L503.529,315.55 C504.429,315.8 505.079,316.25 504.979,316.55 C504.729,317.25 495.179,317.55 494.129,316.9 z" fill="#6B6C6B"/>
      <path d="M509.379,316.85 C508.929,316.151 509.029,316.1 510.879,315.5 L512.379,315 L512.529,306.151 L512.629,297.301 L510.879,296.551 C508.679,295.651 508.629,294.85 510.829,294.85 C511.729,294.85 513.529,294.701 514.779,294.551 L517.129,294.201 L517.229,304.651 L517.379,315.1 L519.029,315.6 C521.979,316.451 520.429,317.1 514.979,317.25 C511.529,317.35 509.579,317.201 509.379,316.85 z" fill="#6B6C6B"/>
      <path d="M541.779,317.05 C540.629,316.55 541.079,315.9 542.779,315.451 L544.379,315.05 L544.529,306.15 L544.629,297.3 L542.879,296.55 C540.679,295.65 540.629,294.85 542.829,294.85 C543.729,294.85 545.529,294.701 546.779,294.55 L549.129,294.201 L549.229,304.65 L549.379,315.1 L551.029,315.6 C553.929,316.451 552.479,317.1 547.329,317.201 C544.629,317.25 542.079,317.15 541.779,317.05 z" fill="#6B6C6B"/>
      <path d="M663.129,316.9 C662.279,316.3 662.429,316.15 664.379,315.5 L665.879,315 L665.879,300.05 L665.879,285.1 L664.129,284.55 C661.329,283.6 662.079,283.1 666.479,282.95 L670.629,282.8 L670.729,298.95 L670.879,315.05 L672.529,315.55 C673.429,315.8 674.079,316.25 673.979,316.55 C673.729,317.25 664.179,317.55 663.129,316.9 z" fill="#6B6C6B"/>
      <path d="M725.029,317 C723.579,316.65 723.979,316 725.879,315.65 L727.629,315.3 L727.529,306.2 L727.379,297.1 L725.779,296.6 C723.379,295.9 723.679,294.85 726.279,294.85 C727.429,294.85 729.229,294.7 730.229,294.55 L732.129,294.2 L732.229,304.65 L732.379,315.1 L733.879,315.55 C735.879,316.2 735.979,316.35 735.129,316.85 C734.379,317.35 726.679,317.45 725.029,317 z" fill="#6B6C6B"/>
      <path d="M765.479,317.05 C764.779,316.35 765.179,315.85 766.779,315.451 L768.379,315.05 L768.529,306.15 L768.629,297.3 L766.879,296.55 C764.779,295.701 764.579,294.85 766.579,294.85 C767.329,294.85 769.029,294.701 770.329,294.55 C772.629,294.201 772.629,294.201 772.629,295.701 C772.629,296.5 772.779,297.3 772.929,297.5 C773.079,297.65 774.479,297.1 776.029,296.201 C780.729,293.55 784.779,294.1 786.779,297.6 C787.129,298.201 787.479,302 787.629,306.85 L787.879,315.1 L789.529,315.6 C792.529,316.5 790.979,317.1 785.629,317.1 C780.229,317.1 778.679,316.451 781.629,315.451 L783.129,314.9 L783.129,307.9 C783.129,300.201 782.729,298.65 780.629,297.951 C779.179,297.4 776.029,297.85 774.279,298.8 C773.179,299.35 773.129,299.6 773.129,307 C773.129,314.951 773.329,315.85 775.279,315.85 C775.779,315.85 776.129,316.1 776.029,316.5 C775.779,317.15 766.129,317.65 765.479,317.05 z" fill="#6B6C6B"/>
      <path d="M484.129,287.35 C482.829,286.051 482.879,284.6 484.179,283.301 C486.079,281.4 489.479,283.25 488.879,285.85 C488.279,288.35 485.879,289.1 484.129,287.35 z" fill="#6B6C6B"/>
      <path d="M513.129,287.35 C511.829,286.05 511.879,284.6 513.179,283.3 C514.879,281.6 518.129,283 518.129,285.451 C518.129,286.65 516.379,288.35 515.129,288.35 C514.579,288.35 513.679,287.9 513.129,287.35 z" fill="#6B6C6B"/>
      <path d="M545.129,287.35 C543.829,286.05 543.879,284.6 545.179,283.3 C546.879,281.6 550.129,283 550.129,285.451 C550.129,286.65 548.379,288.35 547.129,288.35 C546.579,288.35 545.679,287.9 545.129,287.35 z" fill="#6B6C6B"/>
      <path d="M728.079,287.3 C726.179,285.4 728.029,282.05 730.629,282.65 C732.329,283 733.229,284.3 732.879,285.85 C732.279,288.35 729.879,289.1 728.079,287.3 z" fill="#6B6C6B"/>
      <path d="M416.179,229.2 C414.929,226 395.629,172.2 395.629,172.05 C395.629,171.9 398.729,171.9 402.529,171.95 L409.379,172.1 L415.929,191.6 C419.529,202.35 422.679,211.1 422.879,211.1 C423.129,211.1 426.229,202.25 429.829,191.5 L436.379,171.85 L442.729,171.85 L449.029,171.85 L455.629,191.6 C459.229,202.45 462.379,211.35 462.529,211.35 C462.729,211.35 465.829,202.5 469.429,191.75 L475.979,172.1 L482.779,171.95 C486.529,171.9 489.629,172 489.629,172.25 C489.629,172.5 488.279,176.5 486.579,181.15 C484.929,185.8 482.479,192.65 481.129,196.35 C479.829,200.05 476.729,208.75 474.229,215.6 C471.779,222.5 469.579,228.6 469.379,229.25 C469.079,230.3 468.879,230.35 462.479,230.35 L455.879,230.3 L449.479,210.85 C445.929,200.1 442.879,191.35 442.629,191.35 C442.379,191.35 441.979,192.1 441.729,193 C441.479,193.85 438.629,202.65 435.379,212.5 L429.429,230.35 L423.029,230.35 C416.729,230.35 416.579,230.3 416.179,229.2 z" fill="#6B6C6B"/>
      <path d="M490.829,228.5 C491.229,227.45 495.529,217.25 500.379,205.85 C505.279,194.45 510.379,182.4 511.729,179.1 C513.079,175.8 514.579,172.75 515.079,172.35 C515.729,171.75 517.129,171.65 521.679,171.75 L527.479,171.9 L539.529,200.25 C546.129,215.85 551.729,229 551.929,229.5 C552.229,230.3 551.779,230.35 545.429,230.25 L538.579,230.1 L536.029,223.7 L533.479,217.35 L520.929,217.45 L508.429,217.6 L505.879,223.85 L503.329,230.1 L496.729,230.25 L490.179,230.4 L490.829,228.5 z M528.279,205.5 C528.679,204.85 521.479,187.8 520.929,188 C520.429,188.15 513.729,204.1 513.679,205.25 C513.629,205.7 515.379,205.85 520.829,205.85 C524.829,205.85 528.179,205.7 528.279,205.5 z" fill="#6B6C6B"/>
      <path d="M566.629,201.35 C566.629,176.85 566.729,172.35 567.329,172 C567.729,171.8 570.679,171.65 573.829,171.75 L579.629,171.9 L579.629,184.451 L579.629,197 L580.679,196.05 C581.279,195.55 586.579,189.9 592.429,183.55 C598.329,177.15 603.429,171.85 603.779,171.8 C604.079,171.701 607.629,171.701 611.629,171.85 L618.879,172.1 L607.379,184.05 C601.079,190.6 595.879,196.35 595.929,196.8 C595.929,197.25 601.179,204.65 607.579,213.25 C613.979,221.85 619.329,229.25 619.479,229.65 C619.729,230.25 618.629,230.35 612.079,230.25 L604.429,230.1 L595.679,218 C590.829,211.3 586.679,205.9 586.379,206 C586.129,206.05 584.479,207.6 582.779,209.4 L579.629,212.701 L579.629,221.5 L579.629,230.35 L573.129,230.35 L566.629,230.35 L566.629,201.35 z" fill="#6B6C6B"/>
      <path d="M634.629,201.15 C634.629,185.05 634.779,171.85 635.029,171.75 C635.229,171.65 645.129,171.65 657.029,171.75 L678.679,171.9 L678.529,177.5 L678.379,183.1 L663.029,183.25 L647.629,183.35 L647.629,189.1 L647.629,194.85 L661.079,194.85 C672.879,194.85 674.579,194.951 674.829,195.65 C675.179,196.6 675.229,205 674.879,205.951 C674.679,206.451 671.929,206.6 661.129,206.55 L647.629,206.5 L647.629,212.701 L647.629,218.85 L663.379,218.85 L679.129,218.85 L679.129,224.6 L679.129,230.35 L656.879,230.35 L634.629,230.35 L634.629,201.15 z" fill="#6B6C6B"/>
      <path d="M697.129,201.65 C697.129,185.85 697.229,172.65 697.379,172.25 C697.579,171.7 701.729,171.6 719.779,171.7 L741.879,171.8 L742.029,177.55 L742.179,183.35 L726.129,183.35 L710.129,183.35 L710.129,189.6 L710.129,195.85 L723.879,195.85 L737.629,195.85 L737.629,201.85 L737.629,207.85 L723.879,207.85 L710.129,207.85 L710.129,219.1 L710.129,230.35 L703.629,230.35 L697.129,230.35 L697.129,201.65 z" fill="#6B6C6B"/>
      <path d="M759.629,201.1 C759.629,178.05 759.779,171.85 760.279,171.85 C764.979,171.75 770.629,171.75 771.529,171.8 L772.629,171.85 L772.629,201.1 L772.629,230.35 L766.129,230.35 L759.629,230.35 L759.629,201.1 z" fill="#6B6C6B"/>
      <path d="M791.629,200.85 L791.629,171.35 L813.529,171.45 L835.379,171.6 L835.379,177.25 L835.379,182.9 L820.129,183 L804.879,183.1 L804.729,189 L804.579,194.85 L818.079,194.85 C825.479,194.85 831.679,195 831.779,195.25 C831.929,195.45 831.879,198.05 831.679,201.05 L831.379,206.55 L818.029,206.5 L804.629,206.5 L804.629,212.7 L804.629,218.85 L820.379,218.85 L836.129,218.85 L836.129,224.6 L836.129,230.35 L813.879,230.35 L791.629,230.35 L791.629,200.85 z" fill="#6B6C6B"/>
      <path d="M855.479,230 C855.079,229.65 854.979,173.3 855.379,172.25 C855.629,171.7 860.679,171.5 867.729,171.85 C867.929,171.85 868.179,182.35 868.229,195.25 L868.379,218.6 L883.029,218.75 L897.679,218.85 L897.529,224.5 L897.379,230.1 L876.579,230.25 C865.179,230.3 855.679,230.2 855.479,230 z" fill="#6B6C6B"/>
      <path d="M913.229,201.1 L913.379,171.8 L926.879,171.8 C939.129,171.75 940.779,171.85 944.629,172.85 C955.179,175.55 962.879,182.55 965.879,192.15 C967.929,198.65 967.179,207.95 964.029,214.35 C961.779,219 956.079,224.6 951.129,227.05 C945.379,229.85 941.629,230.35 926.329,230.35 L913.129,230.35 L913.229,201.1 z M939.679,218.35 C949.579,216.45 955.129,207.7 953.129,197.1 C952.379,193.15 949.679,188.7 946.829,186.75 C942.929,184.05 941.379,183.7 933.529,183.45 L926.129,183.25 L926.129,201.05 L926.129,218.85 L931.579,218.85 C934.529,218.85 938.179,218.6 939.679,218.35 z" fill="#6B6C6B"/>
      <path d="M421.779,150.8 C411.379,149.05 402.429,141.2 398.829,130.6 C396.929,125.05 396.879,117.45 398.779,111.7 C401.979,101.9 410.229,94.2 420.379,91.6 C424.379,90.55 431.979,90.55 436.379,91.55 C440.679,92.6 446.229,95.2 448.829,97.5 L450.829,99.2 L447.579,103.1 C445.829,105.2 444.029,107.45 443.579,108 C442.729,109.05 442.729,109.05 440.929,107.45 C435.179,102.45 427.079,101.3 420.379,104.6 C411.929,108.7 408.429,120.45 412.929,129.7 C414.579,133.15 418.829,137 422.529,138.35 C428.529,140.65 436.329,138.95 441.329,134.35 L443.629,132.25 L447.629,136.15 C449.829,138.3 451.629,140.35 451.629,140.65 C451.629,141.8 445.929,146.4 442.379,148.15 C436.529,151.05 428.979,152 421.779,150.8 z" fill="#6B6C6B"/>
      <path d="M485.179,150.6 C476.429,148.65 470.929,143.3 468.279,134.3 C467.629,132.1 467.429,128.05 467.279,112.7 C467.129,102.25 467.179,93.25 467.329,92.7 C467.579,91.65 467.779,91.6 473.829,91.75 L480.079,91.9 L480.229,110.75 C480.379,127.8 480.479,129.8 481.329,131.85 C483.329,136.7 487.229,139.3 492.379,139.35 C498.229,139.35 501.779,137.4 503.979,132.9 L505.379,130.1 L505.529,111 L505.679,91.9 L510.529,91.75 C513.179,91.65 516.129,91.65 517.029,91.75 L518.679,91.9 L518.479,111.75 C518.329,127.95 518.129,132.1 517.529,134.2 C515.079,142.25 509.729,147.95 502.629,150.1 C498.729,151.25 489.229,151.55 485.179,150.6 z" fill="#6B6C6B"/>
      <path d="M550.379,150.6 C545.479,149.701 540.629,147.75 536.579,145.05 C534.679,143.8 533.029,142.55 532.829,142.3 C532.679,142.05 533.879,140.25 535.479,138.3 C537.079,136.35 538.729,134.3 539.179,133.75 C539.929,132.75 540.029,132.8 543.379,135.05 C545.279,136.3 548.079,137.8 549.579,138.4 C553.029,139.701 558.679,140.15 561.479,139.4 C564.079,138.701 566.129,136.4 566.129,134.201 C566.079,130.951 563.379,129.25 554.679,126.85 C540.879,123.1 536.729,119.9 535.079,111.65 C533.779,105.25 536.679,98.05 542.029,94.45 C545.879,91.85 548.279,91.2 554.679,90.95 C559.529,90.8 561.129,90.95 564.429,91.85 C568.779,93.05 573.629,95.2 575.779,96.95 L577.179,98.1 L574.079,102.75 C572.379,105.25 570.779,107.35 570.529,107.35 C570.229,107.35 567.979,106.35 565.479,105.1 C557.829,101.3 552.329,101.05 549.029,104.35 C546.479,106.9 547.529,110.5 551.379,112.35 C552.629,112.95 556.679,114.3 560.379,115.4 C571.029,118.45 575.129,120.9 577.479,125.75 C578.729,128.25 578.879,129.15 578.829,133.1 C578.779,136.9 578.579,138.1 577.379,140.75 C573.629,149.1 563.079,152.951 550.379,150.6 z" fill="#6B6C6B"/>
      <path d="M922.279,150.65 C917.079,148.95 912.529,144.9 910.229,139.95 C908.329,135.75 908.329,130.3 910.329,126 C911.629,123.15 916.729,117.4 917.979,117.35 C918.179,117.35 918.779,117 919.329,116.6 C920.229,115.95 920.179,115.8 918.529,113.5 C915.079,108.7 914.329,104.5 916.079,99.9 C917.479,96.15 919.379,94.05 922.879,92.3 C932.929,87.4 944.629,94.25 944.629,105.1 C944.629,109.05 943.379,112.05 940.279,115.35 C938.529,117.25 937.679,118.55 937.929,118.95 C938.129,119.3 939.679,121.15 941.329,123.05 L944.329,126.45 L947.379,123.1 L950.379,119.75 L954.279,123.8 C956.379,126 958.129,128.1 958.129,128.4 C958.129,128.7 956.779,130.4 955.129,132.2 C953.479,134 952.129,135.7 952.129,135.95 C952.129,136.2 954.879,139.5 958.229,143.25 L964.379,150.1 L956.879,150.25 C948.479,150.4 949.579,150.8 945.829,146.1 L944.279,144.15 L941.829,146.25 C937.879,149.55 934.179,151 928.879,151.2 C925.979,151.3 923.629,151.1 922.279,150.65 z M931.879,139.85 C932.979,139.3 934.679,138.1 935.579,137.2 L937.179,135.5 L932.579,129.9 C930.079,126.85 927.729,124.35 927.379,124.35 C926.329,124.35 922.529,127.45 921.279,129.3 C918.979,132.7 920.179,137.1 924.079,139.7 C926.229,141.15 929.129,141.2 931.879,139.85 z M932.329,109.2 C933.279,108.3 934.229,106.95 934.379,106.2 C934.879,104.3 933.829,102.05 932.079,101.35 C928.129,99.7 924.579,103.85 926.979,107.35 C928.129,109.1 929.729,110.85 930.179,110.85 C930.379,110.85 931.329,110.1 932.329,109.2 z" fill="#6B6C6B"/>
      <path d="M596.629,150 C596.629,149.75 596.629,136.9 596.629,121.35 C596.629,105.8 596.629,92.75 596.629,92.35 C596.629,91.7 597.579,91.6 602.479,91.7 C605.729,91.75 608.679,91.8 609.029,91.8 C609.479,91.85 609.629,94.5 609.629,103.35 L609.629,114.85 L621.379,114.85 L633.129,114.85 L633.229,103.3 L633.379,91.8 L639.629,91.75 L645.879,91.75 L646.029,121.05 L646.129,150.35 L639.629,150.35 L633.129,150.35 L633.029,138.75 L632.879,127.1 L621.279,126.95 L609.629,126.85 L609.629,138.6 L609.629,150.35 L603.129,150.35 C599.579,150.35 596.629,150.2 596.629,150 z" fill="#6B6C6B"/>
      <path d="M667.529,150 C667.429,149.75 667.429,136.55 667.529,120.6 L667.629,91.6 L674.529,91.75 L681.379,91.9 L688.279,103 C696.629,116.45 696.529,116.35 697.129,115.35 C697.379,114.95 700.779,109.45 704.729,103.15 L711.879,91.7 L715.879,91.7 C718.079,91.7 721.179,91.75 722.779,91.75 L725.629,91.85 L725.629,121.1 L725.629,150.4 L719.579,150.25 L713.579,150.1 L713.629,131.451 C713.629,118.15 713.529,112.85 713.129,113.1 C712.829,113.3 708.979,118.85 704.579,125.45 L696.529,137.5 L688.479,125.2 C684.029,118.45 680.229,112.9 680.029,112.9 C679.779,112.85 679.629,121.3 679.629,131.6 L679.629,150.35 L673.679,150.35 C670.379,150.35 667.629,150.201 667.529,150 z" fill="#6B6C6B"/>
      <path d="M740.629,149.95 C740.629,149.45 741.929,146.35 753.729,118.6 C759.279,105.65 763.979,94.5 764.229,93.7 C764.529,92.95 765.129,92.15 765.579,91.95 C766.029,91.75 768.929,91.7 772.079,91.85 L777.779,92.1 L785.929,111.35 C790.479,121.95 795.929,134.8 798.129,139.95 C800.329,145.05 802.129,149.5 802.129,149.8 C802.129,150.15 799.929,150.35 795.529,150.35 L788.879,150.35 L786.379,143.95 L783.829,137.6 L771.329,137.45 L758.779,137.35 L756.129,143.85 L753.479,150.35 L747.079,150.35 C743.529,150.35 740.629,150.2 740.629,149.95 z M778.629,125.35 C778.629,125.1 777.729,122.65 776.629,120 C775.479,117.3 773.879,113.35 773.029,111.2 C772.179,109.05 771.329,107.5 771.079,107.7 C770.729,108.1 764.329,123.25 763.779,125 C763.529,125.8 764.079,125.85 771.079,125.85 C775.729,125.85 778.629,125.65 778.629,125.35 z" fill="#6B6C6B"/>
      <path d="M817.229,121.05 L817.379,91.75 L823.079,91.8 C826.529,91.8 828.979,92 829.329,92.35 C829.629,92.65 835.629,100.7 842.629,110.2 C849.629,119.75 855.679,127.6 856.029,127.75 C856.479,127.9 856.629,124.1 856.629,109.75 L856.629,91.6 L862.729,91.65 L868.879,91.7 L869.029,121.05 L869.129,150.35 L863.229,150.35 L857.329,150.35 L844.079,132.75 C836.829,123.1 830.629,115.1 830.329,115 C829.729,114.8 829.729,115.15 829.679,138.25 L829.629,150.35 L823.379,150.35 L817.129,150.35 L817.229,121.05 z" fill="#6B6C6B"/>
    </g>
    <g>
      <path d="M226.479,230.35 L221.579,230.1 L221.629,148.85 C221.629,84.7 221.779,67.5 222.279,67.05 C224.529,65.05 231.579,60 231.829,60.2 C232.279,60.65 232.179,230.25 231.779,230.45 C231.529,230.55 229.179,230.5 226.479,230.35 z" fill="#EA1C2C"/>
      <path d="M117.079,230.15 C116.979,230.05 116.929,218.45 117.029,204.45 L117.129,178.95 L121.929,175.4 C124.529,173.4 126.929,171.7 127.279,171.55 C127.779,171.4 127.879,177.55 127.879,200.7 L127.879,230.1 L122.579,230.25 C119.679,230.3 117.229,230.3 117.079,230.15 z" fill="#EA1C2C"/>
      <path d="M138.129,229.5 C138.079,227.951 138.079,164.65 138.129,163.8 C138.129,163.35 139.779,161.8 141.779,160.3 C143.729,158.85 146.129,157.1 147.029,156.451 L148.629,155.25 L148.629,192.8 L148.629,230.35 L143.379,230.35 C138.729,230.35 138.129,230.25 138.129,229.5 z" fill="#EA1C2C"/>
      <path d="M158.629,189.25 C158.629,166.6 158.829,147.85 159.029,147.6 C159.579,146.75 168.679,139.85 169.179,139.85 C169.429,139.85 169.629,159.65 169.629,185.1 L169.629,230.35 L164.129,230.35 L158.629,230.35 L158.629,189.25 z" fill="#EA1C2C"/>
      <path d="M179.729,164.75 L179.879,99.1 L184.629,95.5 C187.229,93.5 189.679,91.85 190.029,91.85 C190.479,91.85 190.629,106.05 190.629,161.1 L190.629,230.35 L185.129,230.35 L179.629,230.35 L179.729,164.75 z" fill="#EA1C2C"/>
      <path d="M200.629,156.9 L200.629,83.4 L205.679,79.6 C208.479,77.5 210.829,75.9 210.979,76 C211.079,76.15 211.179,110.85 211.179,153.15 L211.129,230.1 L205.879,230.25 L200.629,230.4 L200.629,156.9 z" fill="#EA1C2C"/>
      <path d="M242.129,141.3 C242.129,86.8 242.329,52.35 242.579,52.45 C242.829,52.5 250.229,58 258.929,64.6 C267.679,71.2 279.279,79.95 284.729,84.05 L294.629,91.5 L294.629,160.9 L294.629,230.35 L268.379,230.35 L242.129,230.35 L242.129,141.3 z" fill="#EA1C2C"/>
      <path d="M304.629,181.35 C304.629,154.4 304.779,132.35 304.979,132.35 C305.279,132.35 328.629,149.9 350.979,166.85 L357.229,171.6 L357.229,200.85 L357.279,230.1 L330.979,230.25 L304.629,230.35 L304.629,181.35 z" fill="#EA1C2C"/>
    </g>
  </g>
</svg>
