<?xml version="1.0" encoding="utf-8"?>
<!DOCTYPE svg PUBLIC "-//W3C//DTD SVG 20010904//EN" "http://www.w3.org/TR/2001/REC-SVG-20010904/DTD/svg10.dtd">
<svg version="1.0" xmlns="http://www.w3.org/2000/svg" width="1499px" height="686px" viewBox="0 0 1499 686" preserveAspectRatio="xMidYMid meet">
 <g fill="#fefefe">
  <path d="M0 492 c0 -188.3 0.1 -194 1.9 -194 1.5 0 1.9 1.1 2.5 7.3 1.2 13.2 5.4 29.6 10.1 39.2 8.5 17.5 20.1 27.7 36.2 31.9 10.8 2.8 23.4 1.4 42.3 -4.6 12 -3.8 15.9 -5.8 33.1 -16.9 10.7 -6.8 14.8 -8.9 17.5 -8.9 3.4 0 3.4 0 3.4 4.5 0 2.4 -0.7 9.2 -1.6 15.1 -1.3 8.6 -1.3 10.8 -0.3 11.5 1 0.6 1.1 2.5 0.3 8.8 -0.8 7.1 -0.7 7.8 0.6 6.7 0.8 -0.7 7.6 -6.1 15 -12.1 7.4 -6 18.1 -14.8 23.6 -19.7 11.9 -10.2 41.4 -37.7 41.4 -38.5 0 -0.2 2.2 -16.8 5 -36.6 2.7 -19.9 6.1 -45.2 7.5 -56.2 1.5 -11 2.7 -20 2.8 -20.1 0.1 -0.1 3.5 -1.8 7.6 -3.9 9.8 -4.9 23.8 -18.5 35.4 -34.3 4.8 -6.6 8.7 -12.2 8.7 -12.4 0 -0.3 -2.2 -0.3 -5 0 l-5 0.5 0 -3.5 c0 -2.6 1.4 -5.4 5.5 -11.2 3 -4.2 5.2 -7.6 4.8 -7.6 -1.1 0 -31.3 9 -54.3 16.2 -35.6 11.1 -62.8 21.3 -103.9 39.1 l-14.4 6.2 -14.6 18.8 c-17.3 22.3 -17.1 22 -13.6 20.7 1.5 -0.6 4.2 -1 6.1 -1 3.2 0 3.4 0.2 3.4 3.2 0 2.4 -1.5 5.2 -6 11 -3.3 4.2 -6 7.9 -6 8.2 0 0.2 8.7 -2.4 19.3 -6 27.5 -9.2 41.9 -13.4 46.1 -13.4 3.6 0 3.6 0 3.6 4.3 0 3 -2.6 35.9 -3 37.4 -0.1 0.6 -15.7 6.4 -20.5 7.6 -13.2 3.3 -27.9 3 -35.8 -0.8 -8.1 -3.8 -17.7 -15 -17.7 -20.7 0 -1.7 -0.5 -2.8 -1.4 -2.8 -4.1 0 -9.4 -29.9 -8.2 -47 1.5 -21.1 7.2 -48.8 13.7 -65.5 10.5 -27.3 29.6 -51.3 48 -60.4 9.8 -4.8 17.1 -6.4 25.4 -5.5 16.4 1.7 24.2 15.2 26.1 45.5 0.4 5.4 1 9.9 1.3 9.9 0.3 0 4.7 0.7 9.6 1.4 5 0.8 9 1.3 9.1 1.2 8 -11.8 25.4 -36.7 32.8 -47.1 l9.9 -14 -1.2 -5.6 c-1.4 -7.1 -1.4 -11.4 0.1 -13.8 0.9 -1.5 0.9 -3.2 -0.1 -7.8 -4.1 -18.3 -16.1 -29.8 -35.3 -33.7 -10.2 -2.1 -16.5 -2 -28.9 0.5 -40.2 7.9 -90.7 35.7 -114.7 62.9 -34.9 39.7 -54 81.6 -62.2 136.2 -1.1 7.3 -2 15.9 -2 19.1 0 5 -0.2 5.7 -2 5.7 -2 0 -2 -0.7 -2 -123.5 l0 -123.5 749.5 0 749.5 0 0 343 0 343 -749.5 0 -749.5 0 0 -194z m105 185.1 c10.7 -3.6 25.1 -11.5 35.5 -19.3 6.6 -5 7.1 -5.7 8.6 -11.3 1.5 -5.8 1.7 -6 5.1 -6.3 3.4 -0.3 3.5 -0.3 4.7 5.3 4.4 19.7 20.3 34.5 37 34.5 20.4 0 51.7 -21.3 62 -42.1 5.7 -11.7 7.9 -21.3 9.2 -40.8 0.6 -9.1 1.4 -16.9 1.7 -17.2 1.5 -1.3 15.9 -5.9 18.5 -5.9 l2.7 0 0 10.8 c-0.1 5.9 -0.7 21.7 -1.6 35.2 -0.8 13.5 -1.7 31.5 -2 40 l-0.6 15.5 4 2.7 3.9 2.7 18.3 -6.5 c10.1 -3.5 18.5 -6.5 18.6 -6.7 0.1 -0.1 1.1 -18.8 2.1 -41.6 2.1 -46 1.7 -44.1 9.1 -44.1 l3.5 0 -0.9 18.8 c-0.5 10.3 -0.9 26.8 -0.9 36.7 0 15.1 0.3 18.9 1.9 23.5 3.7 10.6 7.8 15.1 16.1 17.6 3.9 1.1 4.1 1.1 10.5 -3.4 9 -6.3 20.8 -15.2 31.6 -23.9 7.3 -5.8 9.9 -7.3 12.6 -7.3 3.1 0 3.4 0.3 5.2 5.3 2.9 8.4 9.2 18.2 14.8 23.1 16.3 14.3 34.6 10.6 56.8 -11.4 7.7 -7.6 10.4 -11 13.3 -17 5 -10.2 6.7 -17.7 6.7 -29 0 -11.2 -1.9 -19.5 -6 -26.2 -3.6 -5.8 -3.7 -9.2 -0.8 -17.5 2.1 -6 2.3 -6.3 5.4 -6.3 2.8 0 3.4 0.5 4.4 3.4 1 3 1.5 3.4 5.7 4 2.5 0.3 7.7 0.6 11.4 0.6 l6.9 0 -0.7 10.3 c-0.5 5.6 -0.8 20.1 -0.8 32.2 0.1 19.3 0.4 23 2.3 30.2 3 11.7 7.9 23.3 11 26.6 3.3 3.5 9.3 6.7 12.4 6.7 4.6 0 33.9 -20 46.5 -31.7 l5.2 -4.8 0.9 -16.1 c0.6 -8.9 0.8 -17.3 0.5 -18.7 -0.5 -2.5 -0.6 -2.5 -11 4.4 -8.9 5.9 -11.1 6.9 -14.8 6.9 -4.1 0 -4.4 -0.2 -5.7 -3.7 -1.4 -4 -1.7 -34.5 -0.4 -39.6 0.5 -2.3 1.3 -2.7 6.5 -3.3 5 -0.5 6.5 -1.2 9.2 -4 2.4 -2.5 4.2 -3.4 6.5 -3.4 3.7 0 4.4 1.2 4.4 7.7 0 3.7 0.3 4.4 1.6 3.9 0.9 -0.3 5.3 -0.9 10 -1.2 l8.4 -0.7 -0.6 11.4 c-1.2 25.5 -3.6 63.1 -4.8 73.4 -0.6 6.1 -1 13.4 -0.8 16.3 0.4 4.9 0.6 5.2 3 5.2 8.8 0 26.5 -6.4 37.4 -13.3 l5.6 -3.6 0.6 -7.3 c0.3 -4 1 -17 1.6 -28.8 1.7 -33.8 2.9 -52.1 3.5 -53.1 0.4 -0.5 2.4 -0.9 4.5 -0.9 3.5 0 4.4 0.7 11.4 8.2 4.2 4.5 7.8 7.9 8 7.7 0.2 -0.3 2.8 -8.6 8.2 -27.1 0.4 -1.3 1.6 -1.8 4 -1.8 3 0 3.4 0.3 3.4 2.8 0 1.9 1 3.5 3.7 5.6 3.1 2.6 4.4 2.9 9.1 2.7 l5.4 -0.3 -0.5 10.4 c-0.2 5.7 -1 19.5 -1.8 30.7 -1 16.2 -1 22.4 0 30.2 1.4 11.5 4.5 23.1 7.3 27.7 2.2 3.5 9.3 8.2 12.5 8.2 2.4 0 15 -8 24.3 -15.6 8.6 -6.9 12.4 -7.4 13.5 -1.6 1.3 7.4 4.1 12 9.1 15.2 2.6 1.6 5.6 3 6.7 3 2.6 0 18.5 -9.5 27.7 -16.5 4.1 -3.1 11.4 -9.6 16.3 -14.3 l8.7 -8.7 0 -6.7 0 -6.8 3.5 0 c3.2 0 3.5 0.3 3.5 2.9 0 5.7 2.9 18.1 6.1 25.8 4.3 10.3 13.6 20.1 21.8 22.8 11.7 3.8 21.1 1.4 37.5 -9.5 9 -6.1 26.5 -20.7 32.3 -27.1 1.9 -2.2 2.2 -4.2 3.3 -21.7 0.6 -10.7 1 -19.5 0.8 -19.7 -0.2 -0.2 -4.5 2.9 -9.6 6.9 -17.3 13.8 -27 18.9 -35.4 18.4 -4.7 -0.3 -5.5 -0.7 -7.5 -3.7 -4.7 -7 -6.9 -21.4 -5.8 -38.4 l0.7 -11.8 3.7 0.3 3.6 0.3 1 12.2 1 12.2 10.5 -8.5 c5.8 -4.7 13.7 -11.6 17.5 -15.5 6.1 -6 7.5 -6.9 10.7 -6.9 3.2 0 3.7 0.4 4.3 2.9 0.6 2.7 0.9 2.9 7.3 3.5 3.7 0.3 8.9 0.6 11.5 0.6 l4.8 0 -0.7 14.3 c-2.2 39.2 -1 52.6 6.3 72.7 3.9 10.7 8.2 15.8 15.6 18.3 l4.2 1.4 8.5 -5.2 c13.5 -8.2 27.8 -18.7 38.3 -28.1 l3.7 -3.4 1.2 -18.5 c0.6 -10.2 0.9 -18.8 0.5 -19.1 -0.3 -0.3 -5.2 2.6 -10.8 6.6 -9.6 6.5 -10.7 7.1 -14.9 6.8 -4.3 -0.3 -4.6 -0.5 -5.9 -4.3 -1.7 -4.5 -2 -21.5 -0.7 -33.7 l0.8 -7.8 5.7 0 c5.7 0 5.7 0 10.5 -5.5 4 -4.7 5.2 -5.5 8.2 -5.5 l3.4 0 0 8 0 7.9 6.6 -2.9 c3.6 -1.7 8 -3 9.6 -3 l3.1 0 -0.6 13.8 c-0.4 7.5 -1.2 22.3 -1.8 32.7 -2.4 40.2 1 54.9 13.9 60.7 l4.4 2 8.1 -4.8 c15.6 -8.9 40.3 -26.6 44.7 -31.9 0.7 -0.8 2.7 -1.5 4.5 -1.5 2.9 0 3.3 0.4 3.9 3.3 1.2 6.5 7.5 17.7 12.8 23 8.1 8.1 13.3 10.2 24.8 10.2 8.5 0 10.3 -0.4 17.1 -3.3 10.2 -4.4 21 -11.6 30.3 -20.3 15.7 -14.7 22 -31.4 23.5 -62.3 l0.6 -13.9 8.5 -2.9 c4.6 -1.5 9.7 -2.8 11.2 -2.8 2.6 0 2.8 0.3 2.8 4.3 0 5.3 -1.6 34.4 -3.5 63.2 -0.9 12.1 -1.5 24.5 -1.5 27.7 0 5.3 0.2 5.8 3.9 8.7 l3.8 3.1 18.4 -6.4 c13.2 -4.6 18.5 -6.9 19 -8.2 0.4 -1.1 0.8 -5.5 0.8 -9.9 0.1 -4.4 0.8 -22.4 1.7 -40 1.7 -35.4 1.5 -34.4 8.7 -34.5 3 0 3.7 0.4 3.7 1.9 0 1 -0.7 13.3 -1.6 27.2 -2.3 35.8 -1.1 48.2 5.4 58.5 2.7 4.5 5.7 6.6 12.1 8.9 3.9 1.3 4 1.3 9.3 -2.4 11 -7.7 24.7 -18.1 35.3 -26.8 l11 -9 -0.1 -6.9 c-0.1 -8.5 -5.1 -29.7 -6.8 -28.7 -0.6 0.4 -3.9 2.9 -7.2 5.5 -4.8 3.7 -7 4.8 -9.8 4.8 l-3.6 0 0 -11.7 c0 -6.5 0.5 -17.4 1 -24.3 0.5 -6.9 1.2 -20.9 1.6 -31.1 l0.7 -18.6 -4.3 -4.7 c-8.5 -9.3 -13.7 -8.5 -33 4.6 -8.5 5.8 -12.3 7.8 -14.7 7.8 -3.2 0 -3.3 -0.1 -3.3 -4.1 0 -3.6 -0.6 -4.7 -5.5 -9.6 -5 -5 -5.9 -5.5 -8.7 -4.9 -4.2 0.8 -31.1 14.3 -41.8 20.9 l-8.5 5.3 -0.3 5.7 -0.3 5.7 -3.7 0 c-3.7 0 -3.7 -0.1 -5.5 -6.1 -3.9 -13.4 -12.3 -23.9 -22.9 -28.9 -11.7 -5.6 -18.6 -5 -34.6 2.8 -18.4 8.9 -34.7 23.1 -40.7 35.6 -4.8 10 -8.4 24.7 -9.2 37.4 l-0.6 10.3 -10.8 5.5 c-7.8 3.8 -12 5.4 -14.9 5.4 -4 0 -4 0 -4 -3.7 0 -2.1 0.7 -11 1.5 -19.8 0.8 -8.8 1.8 -26.8 2.2 -40 l0.6 -24.1 -3.1 -3.6 c-4.3 -4.8 -4.1 -7.8 0.9 -15.5 3.8 -5.7 4.2 -7 4.3 -13.1 0.1 -6 -0.2 -7.3 -3.5 -12.7 -2 -3.3 -6.2 -11 -9.3 -17.2 -3.1 -6.2 -6.1 -11.5 -6.5 -11.7 -0.9 -0.6 -24 22.7 -28.6 28.7 -2.4 3.2 -2.8 4.8 -2.9 10 -0.1 5.5 0.4 7.1 4.2 14.2 2.4 4.4 4.8 8.4 5.3 9 0.5 0.5 0.9 2.8 0.9 5.1 0 3.2 -0.4 4.4 -1.7 4.8 -1 0.3 -6.3 3.1 -11.8 6.1 -12 6.7 -16.5 7.3 -18.5 2.5 l-1.2 -3 -10.6 0 -10.5 0 0.7 -8.7 c0.3 -4.9 1.3 -15.3 2.1 -23.3 1.7 -16.7 1.9 -25 0.6 -25 -0.5 0 -9.4 3.7 -19.7 8.3 -10.4 4.6 -20.3 8.9 -22 9.6 -2.9 1.1 -3.3 1.8 -3.8 6.4 -0.9 7.4 -2.6 27.7 -2.6 30.8 0 2.5 -0.4 2.7 -5.4 3.1 -4.8 0.4 -6.2 1.1 -14.4 7.6 -6.5 5.1 -10 7.2 -12 7.2 -2.6 0 -2.9 -0.5 -4.9 -7.2 -2.8 -9.5 -7.3 -16.1 -13.9 -20.5 -9.1 -6.1 -16.9 -5.4 -31.4 2.5 -9.4 5.1 -16.5 10.5 -25.1 19.1 -6 6 -8.1 8.9 -9.8 13.6 -3 7.8 -5.8 21.1 -6.6 30.5 -1 12.2 -0.5 11.4 -13 19.5 -8.7 5.7 -12.4 7.5 -15 7.5 -3.1 0 -3.5 -0.3 -4.1 -3.6 -0.8 -4.3 0.1 -20 2.7 -50.4 1.1 -12.4 2.2 -27.3 2.6 -33.2 l0.6 -10.8 -2.9 0 c-10 0 -24.8 4.2 -36.6 10.2 l-7.7 4 -0.5 5.1 c-0.3 2.9 -1 14.7 -1.6 26.2 -1.5 29.6 -3.1 48.8 -4.3 50.3 -1.3 1.7 -7.6 1.6 -8.3 -0.3 -0.7 -1.7 0.9 -23.2 3.7 -49.5 1 -10.2 1.9 -21.9 1.9 -26.1 0 -6.8 -0.3 -8 -3 -11.7 -3.1 -4.3 -7.5 -7.2 -10.9 -7.2 -3.2 0 -16.1 5.4 -32.8 13.5 -8.9 4.4 -16.4 7.5 -18.2 7.5 -3.1 0 -3.1 0 -3.1 -5.3 0 -5.2 0 -5.3 -5.1 -8.5 -10.9 -7.2 -19.6 -7.9 -27.5 -2.3 -5.3 3.7 -10.2 4.1 -13 1 -4.4 -4.9 -6.3 -5.1 -15 -1.5 -10.4 4.3 -19 8.7 -28.7 14.7 -10 6.2 -12.9 6.4 -15.7 0.9 l-2 -4 -10 0 -10 0 0 -3.8 c0 -2.1 0.7 -11.9 1.6 -21.7 1.5 -17.6 2 -30.3 1.1 -31.1 -0.2 -0.2 -10.5 4 -22.8 9.3 l-22.4 9.8 -1.6 19 c-0.9 10.5 -1.7 19.1 -1.8 19.1 -0.1 0.1 -2.4 0.4 -5.1 0.6 -4 0.4 -6.1 1.4 -10.9 5.2 -4.1 3.1 -6.9 4.6 -8.9 4.6 -2.7 0 -3.3 -0.6 -6 -6.5 -6.5 -13.8 -18.7 -22.3 -30.4 -21.2 -11.7 1 -21.6 8 -33.1 23.2 -11.8 15.7 -15.2 26.5 -14.3 45.5 0.4 6.9 0.9 15 1.2 18 l0.5 5.5 -6.6 7.8 c-5.7 6.6 -7.1 7.7 -9.9 7.7 l-3.2 0 -2.3 -9.7 c-1.3 -5.4 -2.6 -10.1 -2.8 -10.6 -0.2 -0.4 -3.6 1.8 -7.5 4.8 -5.3 4.2 -7.8 5.5 -10.4 5.5 -2.7 0 -3.5 -0.5 -4 -2.5 -0.3 -1.4 0.1 -15.4 1 -31.2 0.9 -15.9 1.6 -34.1 1.6 -40.6 0 -13.7 -0.9 -15.8 -8.6 -20.3 -6.9 -4 -12 -2.3 -30 10.2 -7.2 5 -10 6.4 -12.8 6.4 -3.6 0 -3.6 0 -3.6 -4.4 0 -3.9 -0.5 -5 -4.4 -9 -2.5 -2.5 -5.6 -4.8 -6.9 -5.2 -5 -1.2 -51.9 23.5 -53.1 28 -0.3 1.2 -0.6 4.2 -0.6 6.9 0 4.7 0 4.7 -3.3 4.7 -3.3 0 -3.4 -0.2 -4.6 -5.5 -4 -17.9 -18.7 -33 -34.2 -35.1 -16.6 -2.3 -54.9 21.8 -64.4 40.6 -2.2 4.4 -6.7 18.1 -8 24.7 -0.3 1.7 -1.2 9.2 -1.8 16.5 l-1.2 13.2 -12 7.2 c-6.6 3.9 -16.1 8.7 -21.1 10.7 -8.3 3.4 -10 3.7 -18.5 3.7 -11.2 0 -15.6 -1.7 -21.3 -8 -7.4 -8.2 -11.3 -20.4 -13.7 -42.1 -2.1 -19.4 1.7 -44.2 9.2 -59.7 3.4 -7 4.8 -8.8 8.7 -11.3 5.8 -3.7 13.5 -4.1 17.6 -0.8 5.8 4.5 9.5 17.7 10 35.3 l0.2 10 8.7 2.7 c4.8 1.5 8.7 2.4 8.7 2 0 -1.2 12.5 -21.4 17.3 -28.1 4.5 -6.1 4.7 -6.7 4.7 -13 0 -13.3 -5.1 -26.3 -13.9 -35.1 -13.3 -13.3 -35.2 -17.2 -58.6 -10.4 -12.9 3.7 -22.8 10 -33.6 21.3 -7.7 8 -9.7 10.9 -14.4 20.5 -6.4 13.2 -8.6 19.6 -11.6 33.7 -2 9.1 -2.3 13.5 -2.3 33.5 -0.1 25.6 0.7 31.7 6 48.5 4 12.5 8.9 21.2 16.7 29.6 7.3 7.9 14.4 12.6 23.8 15.9 6.7 2.3 8.6 2.5 18.9 2.2 9.7 -0.3 13 -0.9 21 -3.6z m1385.5 -75.8 c-4.7 -6.2 -4.7 -10.1 -0.1 -13.7 1.9 -1.4 3.9 -2.6 4.5 -2.6 0.6 0 1.1 -0.7 1.1 -1.5 0 -0.8 -0.4 -1.5 -1 -1.5 -0.5 0 -1 -2.2 -1 -4.8 0 -4 -0.5 -5.3 -2.8 -7.5 -2.5 -2.4 -3.6 -2.7 -9.5 -2.7 l-6.7 0 0 -3.4 c0 -3 0.4 -3.5 4.4 -5 5.2 -2 11.8 -8.7 13.7 -13.9 0.7 -2.1 1.7 -3.7 2.1 -3.7 0.4 0 0.8 -2.5 0.8 -5.5 0 -3 -0.4 -5.5 -0.9 -5.5 -0.5 0 -1.1 -1.2 -1.4 -2.8 -1.1 -5.3 -4.9 -14.3 -7.3 -17.1 -1.5 -1.9 -2.4 -4.1 -2.3 -6.2 0 -2.9 0.8 -4 5 -7.2 2.7 -2 4.9 -4.4 4.9 -5.2 0 -0.8 -2.8 -4.4 -6.2 -8 l-6.3 -6.6 -4.7 3.3 c-2.6 1.8 -4.8 3.6 -4.8 3.9 0 0.4 1.8 2.9 4 5.7 3 3.7 4 5.9 4 8.6 0 2.9 -0.4 3.6 -2 3.6 -1.1 0 -2 0.1 -2 0.3 0 0.1 0.9 3.1 2 6.5 2.4 7.6 2.7 19 0.5 23.1 -2.1 4.1 -6.6 5.6 -17.1 5.6 -11 0 -12.4 -0.8 -12.4 -7.3 0 -6.1 2 -8.2 7.7 -8.2 3.6 0 4.5 -0.4 5.2 -2.2 0.8 -2 -0.1 -3.3 -6.2 -9.5 -6.8 -6.8 -7.3 -7.1 -9.7 -5.8 -10.8 5.6 -12.2 24.4 -2.9 38.1 3.4 5.1 11.9 12.8 15.9 14.6 2.4 1 3 1.9 3 4.5 l0 3.3 -6.1 0 c-6 0 -6.1 -0.1 -12 -5.7 l-5.9 -5.6 0 12.7 0 12.7 3.5 4.7 c3 3.8 3.5 5.3 3.3 8.6 -0.3 3.4 -0.8 4.4 -3.8 6.1 l-3.5 2 0.3 29 0.3 29 5.3 7.3 5.3 7.3 0.7 -3.2 c0.3 -1.7 0.6 -4.5 0.6 -6.2 l0 -3 9.8 0.7 c22.4 1.5 21 1 27.7 8.7 l6 6.8 0.3 -35.5 0.2 -35.5 -3.5 -4.6z m-832.1 -167.8 c1.4 -1.3 3.1 -3.6 3.6 -5 0.9 -2.3 1.5 -2.5 6.7 -2.5 14 0 34.5 -6.8 43.9 -14.5 5.8 -4.7 9.2 -4.6 18 0.5 18.2 10.7 39.7 11.8 58.3 3 3.5 -1.7 7.6 -3.9 9.1 -5 4.4 -3.1 9.2 -2.6 14.7 1.7 10.8 8.2 29.4 14.3 44.1 14.3 4.8 0 6.2 0.3 6.2 1.5 0 2.4 6 8.5 8.4 8.5 1.1 0 4.6 -1.3 7.6 -2.9 7.5 -3.9 22.2 -9.3 38.2 -14 17.2 -5 63.7 -16.1 67.6 -16.1 1.7 0 12.4 3.1 23.9 7 22.6 7.5 42 12.7 60.8 16.2 17.4 3.2 43.3 3.2 55.7 0 28.5 -7.5 46.9 -23 49.6 -41.9 l0.7 -4.6 54.4 0.2 54.4 0.2 3.8 -3.7 3.9 -3.8 0 -13 0 -13 -3.2 -3.3 -3.2 -3.3 -62.9 0 -62.9 0 -3.4 -2.9 c-9.2 -8.2 -20.6 -11.9 -30.6 -10.1 -12.6 2.3 -24.6 11.5 -27.1 20.7 -1 3.9 -1.4 4.3 -4.3 4.3 -1.8 0 -5.5 -1.2 -8.4 -2.7 -5.1 -2.7 -5.2 -2.7 -14.8 -1.5 -5.4 0.7 -11.3 1.2 -13.3 1.2 l-3.6 0 -0.6 -5.5 c-0.8 -8.3 -6.4 -14.5 -12.9 -14.5 -3.6 0 -44.3 8.5 -57.2 11.9 -6.3 1.7 -12.6 3.1 -13.9 3.1 -1.4 0 -9.6 -2 -18.3 -4.6 -28.3 -8.1 -54.1 -12.4 -74.3 -12.4 -25.6 0 -46.8 4.6 -61.5 13.5 -7.1 4.3 -10.6 4.4 -15.5 0.6 -5 -4 -12.4 -7.5 -21.1 -10.2 -17.3 -5.3 -37.3 -1.7 -53.3 9.7 -5.9 4.2 -9.3 4.3 -15.1 0.3 -14.6 -9.8 -38.2 -14.5 -67.6 -13.6 -24.4 0.8 -36 3 -79.7 14.9 -8.1 2.2 -8.3 2.2 -14.5 0.5 -11.1 -3.2 -44.7 -10.6 -55.8 -12.3 -10.5 -1.7 -10.8 -1.7 -14.1 0.2 -4.1 2.4 -7.9 9.4 -7.9 14.6 0 3.6 -0.2 3.8 -3.2 3.8 -1.8 0 -7.9 -0.5 -13.5 -1.2 -10.1 -1.1 -10.2 -1.1 -15.3 1.5 -2.9 1.5 -6.5 2.7 -8 2.7 -2.4 0 -3 -0.6 -4.1 -3.7 -5 -15.7 -25.4 -25.6 -41.6 -20.5 -7 2.2 -15.8 7.5 -17.4 10.3 -0.9 1.8 -3.4 1.9 -64.6 1.9 l-63.7 0 -3.3 3.2 -3.3 3.2 0 13 0 13 3.7 3.8 3.7 3.8 54.7 0 54.6 0 0.6 4.5 c2.6 19 22.9 35.4 52.2 42.1 10.5 2.5 34.4 2.4 50 0 16.4 -2.6 40.4 -8.9 63.8 -16.7 11.4 -3.8 22.1 -6.9 23.9 -6.9 6.9 0 60.8 13.4 81.8 20.3 7.4 2.4 17.1 6.3 21.5 8.5 9.4 4.8 11.3 5 14.9 1.7z m764.6 -57.6 c8.3 -1 25.4 -4.9 39.7 -9.1 5.4 -1.5 7.3 -2.6 7.7 -4.2 0.4 -1.1 0.9 -12.6 1.3 -25.4 l0.6 -23.3 -8.4 0.8 c-21.8 2.1 -41.8 0 -52.8 -5.4 -6.6 -3.2 -16.4 -12.8 -21 -20.6 -4 -6.8 -9.3 -21.8 -11.7 -33.2 -3.1 -14.9 -1.5 -46.1 2.9 -56.8 1.5 -3.4 1.9 -3.7 5.5 -3.7 2.7 0 4.5 0.7 5.9 2.3 5.7 6.2 10.4 22.1 12.4 41.8 0.7 6.8 1.3 12.5 1.4 12.6 0.5 0.8 25.1 -5.2 35.6 -8.6 l12.6 -4.1 -0.2 -16.8 c-0.4 -23.8 -4.5 -38.9 -14.9 -54.7 -13.3 -19.9 -30.3 -28.7 -55.6 -28.8 -16.9 0 -40.4 6.1 -51.1 13.3 -8.9 5.9 -15.9 21.5 -20.2 45.2 -2 11.1 -2.2 15.4 -2.2 45.3 0 36.4 0.7 42.9 6.4 60.3 10 30.4 26.1 50.9 50.4 63.7 17.9 9.5 33.8 12.2 55.7 9.4z m-217 -76.5 c21 -3.4 37.5 -8.6 61.7 -19.4 10.4 -4.7 14.3 -6.9 14.7 -8.4 0.7 -2.5 0.8 -49.6 0.2 -49.6 -0.3 0 -6.9 1.6 -14.7 3.5 -20 4.9 -30.5 6.3 -32.4 4.5 -3.5 -3.6 -4.9 -13.7 -4.9 -37.5 -0.1 -22.5 0.5 -30 4 -50.3 l1.7 -9.3 10.3 -7 c5.7 -3.8 10.4 -7.3 10.4 -7.8 0 -0.4 -2 -2.2 -4.5 -4 -3.8 -2.7 -4.5 -3.7 -4.5 -6.6 0 -3 0.6 -3.9 5.1 -6.9 l5.1 -3.4 -10.9 -7.6 c-29.7 -20.7 -63 -34.7 -90.3 -37.9 -7 -0.9 -45.1 10 -70.5 20 -23.8 9.4 -29.1 12.1 -31.8 16.2 -7 10.6 -11.2 22.8 -15.2 44.6 -3.9 21.4 -4.7 33.1 -4.3 60.5 l0.3 25.5 3.2 9.2 c4.2 12.1 7.7 18.7 16.3 31.7 6.6 9.9 7.6 10.9 12.8 13.2 10.6 4.7 15.7 5.7 21.5 4.4 9.6 -2.3 37.1 -11.7 47.6 -16.4 9.4 -4.2 17.1 -5.9 17.1 -3.8 0 0.5 0.9 6 2.1 12.3 1.9 10.9 2.2 11.6 6.2 15.8 2.3 2.4 7.8 7.2 12.2 10.8 l8 6.5 7 -0.6 c3.8 -0.4 11.3 -1.4 16.5 -2.2z m-595.5 -49.9 c10.6 -2.9 29.2 -9.1 42.6 -14.2 l9.6 -3.7 1.7 -11 c2.6 -17.5 5.4 -43.1 7.6 -69.1 1.1 -13.2 2.6 -28.9 3.3 -35 l1.2 -11 8.5 -4.2 c11.8 -5.8 25.8 -10.3 31.9 -10.3 l5.1 0 0 5.9 c0 3.3 -0.4 9.3 -1 13.3 -0.5 4 -1.7 16.5 -2.5 27.8 -0.8 11.3 -1.9 24.6 -2.5 29.5 -1.4 13.3 -3 45.6 -3.3 65.3 l-0.3 17.3 5.1 -0.6 c11.9 -1.5 30.8 -4.8 41.5 -7.1 10.2 -2.3 35 -9 35.7 -9.7 0.2 -0.3 1.7 -15.4 3.3 -34.2 1.4 -15.7 9.1 -94 9.3 -94.1 0.1 -0.1 5.6 -2 12.2 -4.4 9.6 -3.3 13.9 -4.3 21.4 -4.7 l9.4 -0.6 -0.7 12.4 c-0.3 6.8 -1.7 23.9 -3.1 37.9 -2.9 30.1 -3.3 56.8 -1 67 2.4 10.2 6.3 19.4 11.6 27.5 5.3 8.2 5.3 8.2 19.3 12.2 l8.9 2.6 20.4 -8.2 c22.8 -9.2 50.1 -21.2 73.1 -32.1 l15.2 -7.3 -0.4 -23.9 c-0.3 -13.1 -0.7 -24.2 -1 -24.7 -0.3 -0.5 -4.7 0.4 -9.6 2 -17.7 5.7 -35.9 10 -40.8 9.7 -4.6 -0.3 -4.8 -0.5 -7.2 -5.3 -2.1 -4.2 -2.5 -6.7 -2.8 -16 -0.4 -10.9 2 -46.3 3.8 -58 0.6 -3.3 1.3 -18.6 1.6 -34 l0.6 -28 -3.6 -4.2 c-2.3 -2.7 -6.5 -5.6 -11.1 -7.9 -6.5 -3.2 -8.1 -3.6 -12.2 -3.1 -7.6 0.9 -41.3 11 -59.3 17.7 -25.4 9.5 -33 12 -37.2 12 l-3.8 0 0 -13.4 0 -13.4 -4.9 -3.6 c-2.7 -2 -7.5 -4.8 -10.7 -6.2 -5.8 -2.5 -5.8 -2.5 -11.8 -0.9 -19.1 5.3 -68.1 24.5 -90.5 35.4 -3.6 1.7 -7.7 3.1 -9.2 3.1 -2.3 0 -2.8 -0.5 -3.4 -3.6 -0.3 -2 -0.3 -9.1 0.1 -15.8 l0.6 -12.2 -11.1 -4.3 -11.2 -4.3 -18.2 6.2 c-30.9 10.5 -64.7 23.6 -88.9 34.3 l-5.7 2.5 0.3 23.7 c0.2 12.9 0.5 23.7 0.7 23.9 0.2 0.3 5.8 -0.9 12.4 -2.5 6.6 -1.6 16.4 -3.2 21.8 -3.6 l9.7 -0.6 0 8.5 c0 10.8 -4 66.6 -8.4 116.8 -0.8 8.5 -1.4 21.9 -1.4 29.6 l0 14.1 10.1 -2.4 c5.6 -1.3 14.3 -3.5 19.2 -4.8z m-251.5 -41.5 c28.1 -5.6 77.3 -14.5 94.5 -17.1 4.4 -0.6 8.6 -1.5 9.3 -1.9 1 -0.5 31.2 -70.9 31.2 -72.7 0 -0.1 -1.3 -0.3 -3 -0.3 -2.6 0 -3 -0.3 -3 -2.9 0 -1.6 1.4 -6.1 3.1 -10.1 1.7 -4 2.9 -7.3 2.7 -7.5 -1.5 -1.5 -139.1 22.2 -140.8 24.2 -0.4 0.5 -6.9 17 -14.5 36.8 -7.6 19.8 -14 36.6 -14.2 37.3 -0.3 0.8 0.4 1.2 2.1 1.2 2.3 0 2.6 0.4 2.6 3.8 0 2.1 -1.1 6.7 -2.5 10.1 l-2.4 6.3 2.7 -0.7 c1.5 -0.4 16 -3.3 32.2 -6.5z"/>
  <path d="M206.9 631.6 c-3.8 -8.7 -5.4 -19.2 -5.4 -35.6 0.1 -15.6 1.3 -24.4 4.2 -31.2 1.4 -3.3 2 -3.8 4.9 -3.8 2.4 0 3.8 0.7 4.8 2.3 4.8 7.5 7.5 31.1 5.7 50.2 -0.7 6.9 -1.9 14.7 -2.7 17.5 -1.5 4.9 -1.5 5 -5.5 5 -3.8 0 -4.1 -0.3 -6 -4.4z"/>
  <path d="M1204.2 631.2 c-6.6 -15.2 -7 -55 -0.7 -67.1 1.3 -2.5 2.2 -3.1 4.9 -3.1 3 0 3.6 0.5 5.4 4.3 3.8 8 4.7 15.1 4.6 36.7 -0.1 16.9 -0.5 21.7 -2 27 l-1.9 6.5 -4.1 0.3 c-4.1 0.3 -4.1 0.2 -6.2 -4.6z"/>
  <path d="M1464 640.3 c-1.9 -0.1 -5.9 -0.6 -8.8 -0.9 l-5.3 -0.6 0.3 -9.6 0.3 -9.7 15.3 0.1 c12.2 0 15.6 0.3 16.3 1.5 1 1.4 0.5 13.2 -0.7 17.7 -0.6 2 -1.2 2.2 -7.3 2 -3.6 0 -8.2 -0.3 -10.1 -0.5z"/>
  <path d="M751.8 379.3 c-3.3 -1.3 -3.8 -1.9 -3.8 -4.8 0 -2.7 0.6 -3.5 3.4 -4.9 4.5 -2.1 19.3 -2.2 24.2 -0.1 3.3 1.3 3.5 1.7 3.2 5.2 -0.3 3.3 -0.7 3.9 -3.8 5 -5.1 1.7 -18.7 1.5 -23.2 -0.4z"/>
  <path d="M1123.3 199.8 c-5.1 -5.5 -10.3 -23.4 -10.3 -35.7 0 -7.4 2.3 -26.7 4.1 -34.6 1.8 -7.8 5.5 -14.4 8.5 -15.1 5 -1.3 13.2 0.4 22 4.5 l8.7 4.1 -0.6 9.8 c-0.4 5.3 -1.3 18.7 -2.2 29.7 -0.8 11 -1.5 23 -1.5 26.7 l0 6.6 -8 2.7 c-4.3 1.4 -10.3 2.9 -13.2 3.2 -4.7 0.4 -5.6 0.2 -7.5 -1.9z"/>
 </g>
 <g fill="#000000">
  <path d="M1487.5 676.3 l-9 -10 -7.5 -0.7 c-4.1 -0.4 -9.8 -0.9 -12.6 -1.2 l-5.1 -0.6 -0.7 7.4 c-0.4 4.1 -1.1 8 -1.5 8.7 -0.9 1.4 -4.4 -2.2 -11.4 -12 l-4.5 -6.4 -0.4 -32.1 -0.3 -32.1 3.4 -1.9 c1.9 -1.1 3.6 -2.4 3.8 -3 0.2 -0.6 -1.2 -3.1 -3.2 -5.7 l-3.5 -4.6 0 -18.8 0 -18.8 8.4 8.4 c7 7 8.9 8.4 12.2 8.7 l3.9 0.5 -3.3 -1.7 c-4.6 -2.4 -12.7 -9.8 -16.1 -14.8 -1.5 -2.2 -3.6 -6.5 -4.5 -9.4 -2.1 -6.3 -2.4 -18.9 -0.5 -25 1.5 -5.1 6.3 -9.7 11.6 -11.1 l3.7 -1 7.8 7.7 c8.1 8 9 10 6.8 15.6 -0.8 2.2 -1.5 2.6 -5.3 2.6 -4.6 0 -7.7 2.1 -7.7 5.2 0 2.8 3 4.1 9.3 4.2 17.1 0.3 19.7 -8.6 9.9 -33.1 l-2.1 -5.2 3.5 1.5 c2 0.8 3.9 1.3 4.1 1 0.3 -0.3 -2 -3.7 -5.1 -7.6 -6.7 -8.2 -6.8 -7.6 3.5 -14.6 l7 -4.8 6 6 c3.3 3.2 7.2 7.8 8.6 10.1 l2.5 4.3 -2.1 2.8 c-1.1 1.6 -3.7 4.2 -5.8 5.7 -2.1 1.6 -4 3 -4.2 3.2 -0.3 0.2 0.5 1.3 1.6 2.6 8.3 9 12 31.5 6.9 42.2 -2.6 5.6 -9.2 12.1 -13.3 13.1 -2.5 0.7 -2.5 0.8 -0.8 1.5 1.1 0.4 3.8 0.8 6.1 0.8 3.1 0.1 4.7 0.8 6.7 2.9 2.4 2.5 2.8 3.8 3.3 12 0.4 5.1 0.2 9.2 -0.2 9.2 -0.5 0 -2.4 1.3 -4.2 2.8 l-3.3 2.7 3.5 4.7 3.6 4.7 -0.2 41.7 -0.3 41.7 -9 -10z m-3.5 -26.1 l0 -3.9 -14.7 -0.6 c-8.2 -0.4 -17.4 -1 -20.5 -1.3 l-5.8 -0.7 0 3.7 0 3.6 9.3 0.1 c7.1 0.1 25.1 1.7 31 2.8 0.4 0 0.7 -1.6 0.7 -3.7z m-5.6 -14.9 c1.4 -7.1 1.6 -9.9 0.7 -11.2 -0.7 -1 -3.9 -1.4 -13.2 -1.5 l-12.4 -0.1 -0.3 6.7 -0.3 6.6 5.3 0.6 c19.1 2.1 19.5 2.1 20.2 -1.1z m-29.6 -27.3 c0.6 0 1.2 -1.1 1.2 -2.4 0 -1.3 0.8 -3 1.9 -3.7 1 -0.8 8.6 -6.7 17 -13.2 12 -9.5 15.1 -12.4 15.1 -14.3 0 -2 -0.5 -2.4 -3 -2.4 -2.3 0 -3 0.5 -3 1.9 0 2.1 -21.1 20.4 -30.2 26.4 -3.9 2.5 -4.8 3.6 -4.8 6 0 2.6 0.3 2.9 2.3 2.3 1.2 -0.3 2.8 -0.6 3.5 -0.6z m22.9 -59.2 c5.1 -2.2 8.3 -4.9 10.3 -8.8 2.9 -5.7 2.5 -6.6 -1.3 -2.7 -1.8 2 -5 4 -7.2 4.6 -5.1 1.4 -18.5 1.4 -22.2 0 l-2.8 -1 3.1 3.1 c5.2 5.2 14.1 7.4 20.1 4.8z m-23.5 -38 c-0.9 -0.9 -1.5 -0.9 -2.4 0 -0.9 0.9 -0.7 1.2 1.2 1.2 1.9 0 2.1 -0.3 1.2 -1.2z m33.8 -24.7 c0 -1.2 -2 -2.5 -2.7 -1.8 -0.7 0.7 0.6 2.7 1.8 2.7 0.5 0 0.9 -0.4 0.9 -0.9z"/>
  <path d="M73.5 683.9 c-13.5 -1.4 -25 -7.4 -35.2 -18.3 -7.8 -8.4 -12.7 -17.1 -16.7 -29.6 -5.5 -17.2 -6.1 -22.7 -6.1 -51.5 0.1 -23.2 0.3 -27.1 2.4 -36.5 3 -14.1 5.2 -20.5 11.6 -33.7 4.7 -9.6 6.7 -12.5 14.4 -20.5 15.5 -16.3 31.3 -23.4 53.6 -24.5 20.1 -1 34.3 3.4 44.6 13.6 9.3 9.4 13.6 21 14 37.6 l0.2 9.6 -4.9 6.7 c-3.9 5.5 -9.2 13.9 -18.1 29.1 -0.7 1.1 -2.9 0.7 -11.8 -2.1 l-11 -3.4 -0.2 -10 c-0.4 -17.5 -4.1 -30.7 -9.9 -35.3 -3.6 -2.8 -6.1 -2.6 -11.6 0.8 -8.5 5.4 -15.4 23.7 -17.8 46.9 -1.6 16 1.4 37.6 7 49.8 8.1 17.8 20.9 22.5 40.4 14.7 5 -2 14.5 -6.8 21.1 -10.7 l12 -7.2 1.2 -13.2 c1.4 -15.5 1.6 -16.9 5 -28.2 3.3 -11.1 6.1 -16.4 11.9 -22.9 11.3 -12.5 35 -27.4 48 -30.1 13.4 -2.8 26 0.7 35.7 9.9 6.4 6 10.3 12.9 13.4 23.1 l2.2 7.5 0.1 -5 c0 -2.7 0.3 -5.9 0.6 -7.1 0.9 -3.3 30.2 -19.7 49.5 -27.8 l6.6 -2.8 4.9 3.5 c6.7 4.9 9.4 8.7 9.4 13.7 0 2.2 0.3 4 0.6 4 0.3 0 4.7 -2.9 9.8 -6.4 10.8 -7.5 17.4 -11.1 23.7 -12.7 4.3 -1.2 5 -1.1 10.2 1.5 3.1 1.5 6.9 4.4 8.6 6.5 l3 3.7 -0.4 15 c-0.3 8.2 -0.7 18.5 -1 22.9 -0.2 4.4 -0.7 13.6 -1 20.5 -0.3 6.9 -0.8 15.2 -1 18.5 -0.6 9.4 0 9.5 10.1 1.6 4.9 -3.8 9.3 -7 9.9 -7.1 0.5 -0.1 2.4 5.4 4 12.1 l3.1 12.2 6.8 -7.9 c5.6 -6.6 6.6 -8.3 6.1 -10.4 -0.4 -1.4 -0.9 -9.5 -1.2 -18.1 -0.4 -12.4 -0.2 -16.9 1.1 -22 2.4 -9.2 6.4 -17.3 13.3 -26.4 12.7 -16.8 21.8 -22.6 36.3 -23.3 7.9 -0.4 9.3 -0.2 14.9 2.3 7.6 3.4 14.2 10.3 18.3 19 l3 6.5 5.9 -4.7 c4.8 -3.7 6.9 -4.7 10.9 -5.1 2.7 -0.2 5 -0.5 5.1 -0.6 0.1 0 0.9 -8.6 1.8 -19.1 l1.6 -18.9 14.5 -6.4 c8 -3.5 19.5 -8.6 25.7 -11.3 6.1 -2.7 11.5 -4.9 11.8 -4.9 0.6 0 -0.1 21.8 -1 30 -0.6 5.7 -2.5 27.1 -2.5 28.8 0 0.9 2.7 1.2 10 1.2 l10 0 2 4 2 3.9 8.2 -5.1 c9.5 -5.9 25.8 -13.9 34.2 -16.8 5.4 -1.8 6 -1.8 8.9 -0.4 1.8 0.9 4.4 2.7 5.8 4.1 l2.7 2.5 4.2 -3.1 c10.3 -7.4 23.6 -5.8 37.6 4.6 3 2.3 3.1 2.5 2.2 6.4 -0.6 2.2 -0.9 4.2 -0.7 4.4 0.3 0.2 6.6 -2.7 14.1 -6.4 20.2 -10.2 34.1 -15.4 38.7 -14.6 5.3 0.9 9.6 3.8 12.7 8.5 3.5 5.2 3.7 10.9 1.2 34.5 -3 29.5 -4.7 52 -3.9 52.8 2.6 2.6 4 -9.2 6.1 -50.8 0.6 -11.5 1.3 -23.3 1.6 -26.2 l0.5 -5.1 7.7 -4 c12.7 -6.5 24.3 -9.6 39.7 -10.4 l5.9 -0.3 0 7 c0 6.3 -0.7 15.4 -1.9 27 -3.1 28.8 -4.9 62.5 -3.4 64 0.4 0.3 5.9 -2.8 12.3 -6.9 12.6 -8.2 12.1 -7.4 13.1 -19.6 0.8 -9.4 3.6 -22.7 6.6 -30.5 5.1 -13.8 31.7 -34.3 50.7 -39.1 15.7 -3.9 30 5.8 35.4 24.2 l2.1 7.2 9 -7.1 c8.1 -6.4 9.5 -7.1 14.3 -7.5 4.9 -0.4 5.4 -0.7 5.4 -2.8 0 -2.8 2 -27 2.5 -30.4 0.2 -1.4 0.4 -3.2 0.4 -4.1 0.1 -1.1 2.4 -2.6 6.4 -4.2 3.4 -1.4 14.9 -6.4 25.6 -11.1 10.6 -4.8 19.6 -8.6 20 -8.6 1.3 0 -0.5 29.4 -3.4 55.8 l-0.5 4.2 10.4 0 10.4 0 1.2 3 c0.7 1.7 1.5 3 1.9 3 0.4 0 5.2 -2.5 10.6 -5.5 5.5 -3 10.8 -5.8 11.8 -6.1 2.3 -0.7 2.2 -1.6 -1.2 -7.1 -1.5 -2.7 -4.5 -7.9 -6.4 -11.6 -3.5 -6.4 -3.6 -7 -2.1 -9.2 1.4 -2.1 1.4 -2.6 -0.1 -5.5 l-1.6 -3.1 7.5 -8.7 c8.1 -9.5 30.3 -31.9 30.9 -31.2 0.2 0.3 3.2 6.1 6.7 13 7.1 14.2 10.2 19.7 14.2 25.7 2.8 4.1 2.8 4.4 1.3 7.3 -1.4 2.7 -1.4 3.3 -0.1 5.2 1.3 1.9 1.3 2.5 -0.9 6.7 -1.3 2.5 -3.7 6.6 -5.4 9 l-3 4.5 3 3.3 c1.6 1.9 2.9 3.9 2.9 4.6 0.7 16.3 -0.4 44 -2.6 69.1 -0.8 9.3 -1.2 17.2 -0.9 17.5 0.3 0.3 5.7 -2 11.9 -5.1 l11.3 -5.6 0.6 -10.4 c1.3 -21.4 8.4 -40.5 18.8 -50.9 8.6 -8.6 20.3 -17 31.1 -22.1 11.4 -5.6 18 -7.2 26.8 -6.6 17.1 1.3 31.2 13.8 36.7 32.7 1 3.4 2.1 6.1 2.5 6.1 0.4 0 0.8 -2.6 1 -5.7 l0.3 -5.7 7.5 -4.7 c10 -6.2 28.5 -15.7 39.2 -20.3 l8.8 -3.7 4.5 3.1 c6.2 4.3 9.9 9.2 10.5 14 l0.5 4.1 9.5 -6.6 c10.6 -7.4 16.5 -10.7 22.6 -12.5 6 -1.8 12.9 0.7 18.3 6.5 l4.1 4.5 0 11.2 c0 6.2 -0.5 18.5 -1 27.3 -1.7 29.1 -2.3 47.5 -1.5 47.5 0.4 0 4.7 -3.1 9.4 -6.8 4.7 -3.7 9.1 -7.1 9.7 -7.5 1.8 -1 10 32.8 8.5 34.7 -0.8 1 -0.8 2.1 -0.1 4 0.5 1.5 1 3.4 1 4.2 0 2.2 -31.2 27.2 -50.1 40.2 l-4.7 3.2 -5.3 -1.6 c-8 -2.4 -12.2 -5 -15.1 -9.7 -6.3 -10.2 -7.7 -22.9 -5.9 -56.9 0.7 -12.8 1.4 -25 1.6 -27 0.4 -4 0 -4.5 -2.6 -2.5 -1.7 1.3 -2.1 5.6 -3.4 37.2 -0.3 7.2 -0.8 15.7 -1 19 -0.2 3.3 -0.5 10.8 -0.6 16.7 -0.1 6.7 -0.6 11.1 -1.3 11.6 -2.5 2 -40.6 14.3 -41.8 13.6 -0.7 -0.4 -3 -2 -5 -3.7 l-3.8 -2.9 0 -9.1 c0 -5.1 0.4 -15.3 1 -22.7 1.2 -16.6 1.8 -26.9 2.5 -42.5 0.3 -6.6 0.8 -15.2 1.1 -19.2 l0.5 -7.2 -8.3 2.8 -8.3 2.8 -0.6 13.9 c-1.5 30.9 -7.8 47.6 -23.5 62.3 -35.1 32.8 -71.9 32.8 -87.3 0.1 -1.7 -3.6 -3.4 -7.9 -3.7 -9.7 l-0.6 -3.2 -7.1 6.1 c-9.9 8.3 -21.7 16.6 -35.4 24.8 -12.8 7.7 -15.7 8.4 -22.8 5.1 -5.7 -2.6 -9 -6.6 -11.6 -14.1 -2.2 -6 -2.3 -8.2 -2.4 -29 0 -12.4 0.3 -27.4 0.7 -33.5 0.4 -6 1.1 -15.4 1.4 -20.8 l0.7 -9.8 -7.9 3.7 c-12.4 5.7 -11.4 6.1 -11.4 -4.7 l-0.1 -9.4 -5.2 5.8 c-5.2 5.7 -5.3 5.7 -10.9 5.7 l-5.6 0 -0.8 7.8 c-1.7 17.7 -0.2 31.2 3.6 32 0.9 0.1 7.8 -4 15.3 -9.2 l13.7 -9.5 0 10.2 c0 5.6 -0.5 16.6 -1 24.5 l-1.1 14.3 -3.7 3.3 c-10.7 9.7 -24.8 20 -39.1 28.7 l-9.5 5.7 -5 -1.5 c-10.9 -3.2 -14.2 -6.6 -18.9 -19.3 -6.4 -17.5 -7.2 -22.8 -7.1 -49 0 -12.9 0.3 -26.8 0.7 -30.7 l0.7 -7.3 -7.3 -0.1 c-3.9 -0.1 -7.6 -0.2 -8.2 -0.4 -0.5 -0.1 -2.4 -0.3 -4.2 -0.3 -2.6 -0.2 -3.2 -0.7 -3.8 -3.2 -0.4 -1.6 -1 -3 -1.4 -3 -0.3 0 -3.3 2.7 -6.6 6.1 -6.2 6.3 -34.3 29.5 -34.9 28.8 -0.2 -0.2 -0.7 -6.5 -1 -13.9 -0.4 -7.4 -1.1 -13.9 -1.5 -14.3 -0.5 -0.5 -1.2 3.8 -1.5 9.5 -1.3 18.9 3.5 36.7 10.2 37.6 2.7 0.4 13.1 -4.3 19.9 -8.9 4 -2.7 19.8 -15 26.7 -20.8 1.8 -1.6 1.9 -1.2 1.3 15.9 -0.4 9.6 -1 21.2 -1.3 25.8 l-0.7 8.2 -7.1 6.8 c-15.8 15 -32.7 27.2 -43.4 31.3 -7.4 2.8 -19.5 3.1 -27 0.5 -6.1 -2.1 -15 -9.7 -18.7 -16 -4 -6.8 -7.3 -16.9 -8.9 -26.8 l-1.4 -9.3 -0.1 7 -0.1 7 -8.7 8.7 c-10.7 10.4 -20.8 18.3 -33 25.4 -7.7 4.6 -9.9 5.4 -14 5.4 -9.6 0 -16.8 -7 -18.8 -18.2 l-0.7 -3.8 -5.7 4.6 c-6.6 5.3 -18.3 13.5 -22.6 15.6 -6.2 3.2 -17.2 -0.7 -21.3 -7.4 -4.6 -7.6 -8.2 -26.6 -8.2 -43.3 0.1 -10.1 0.5 -17.2 2.6 -45.8 l0.7 -9.8 -5.1 0.7 c-4.7 0.6 -5.3 0.4 -9.1 -2.7 -3 -2.5 -4.1 -4.1 -4.1 -6.3 0 -1.6 -0.2 -2.7 -0.5 -2.4 -0.3 0.2 -2.6 7.4 -5.1 15.9 -2.5 8.5 -4.7 16.1 -5 16.9 -0.4 1 -3.7 -1.9 -10.8 -9.4 -5.8 -6.3 -10.7 -10.7 -11.3 -10.3 -1.6 1 -2.1 7.6 -4.8 64.7 -0.3 5.8 -0.8 13.8 -1.1 17.8 l-0.6 7.3 -5.6 3.6 c-12 7.7 -25.8 12.3 -41.5 13.9 -5.5 0.5 -6.6 0.4 -6.3 -0.7 1 -2.8 1.4 -8.9 0.6 -8.9 -0.5 0 -0.6 -0.8 -0.4 -1.7 0.9 -3.9 3.4 -29.5 3.9 -40.3 0.4 -6.3 0.8 -12 1 -12.7 0.2 -0.6 0.7 -9.8 1 -20.5 0.4 -10.6 0.8 -19.9 1 -20.5 0.3 -0.7 -0.1 -1.3 -0.8 -1.3 -1.4 0 -13 1.8 -17.1 2.6 l-2.9 0.6 0.7 -5 c0.3 -2.7 0.3 -5.7 0 -6.6 -0.6 -1.5 -1.3 -1.1 -4.8 2.3 -3.7 3.5 -4.6 4 -9 3.9 -2.8 0 -5.2 0.6 -5.6 1.2 -1.1 1.8 -2.3 25.2 -1.5 29.2 1.3 6.5 2.7 9.8 4.1 9.8 0.8 0 7.8 -4.3 15.5 -9.5 l14.1 -9.6 -0.6 15.3 c-0.3 8.3 -0.9 19.4 -1.2 24.6 l-0.7 9.4 -8.4 7.2 c-10.7 9 -22.3 17.3 -34.1 24.3 -8.4 5.1 -9.6 5.5 -13.3 4.9 -9.7 -1.6 -15.4 -6.7 -19.9 -17.8 -6.2 -15.7 -7.2 -21.3 -7.7 -45.3 -0.2 -12.1 0 -26.8 0.4 -32.7 l0.9 -10.8 -6.7 0 c-3.6 0 -8.7 -0.3 -11.2 -0.6 -4 -0.6 -4.7 -1 -5.9 -4.2 l-1.3 -3.5 -2.3 6.5 -2.3 6.6 3 4.9 c4.5 7.4 6.1 14.8 6.1 29.3 0 22.4 -4.7 34 -20 49 -5.3 5.2 -12.1 11 -15.1 12.8 -17.8 10.5 -34.7 10 -47.7 -1.4 -5.5 -4.8 -11.8 -14.5 -14.8 -22.9 -0.9 -2.7 -1.9 -5.2 -2 -5.4 -0.2 -0.2 -4.5 3 -9.6 7.1 -12 9.6 -24.6 19.1 -33.3 25 l-7 4.8 -6.1 -1.9 c-10.3 -3.1 -14 -6.7 -17.8 -17.6 -2.6 -7.1 -3.1 -27.9 -1.6 -55.8 0.7 -12.5 1 -23 0.8 -23.2 -0.3 -0.3 -1.2 0.1 -2.1 0.8 -2 1.4 -2.2 3.5 -3.7 37.2 -1.3 30.5 -2.1 46.9 -2.4 47.2 -0.4 0.5 -40 14.3 -40.8 14.3 -0.5 0 -3 -1.6 -5.7 -3.6 l-4.9 -3.7 0.4 -13.1 c0.2 -7.2 0.6 -14.4 0.8 -16.1 0.3 -1.6 0.8 -9.1 1.2 -16.5 0.3 -7.4 0.8 -14.2 0.9 -15 0.2 -0.8 0.6 -10.2 1 -20.7 l0.7 -19.2 -7.5 2.7 c-4.2 1.5 -7.8 3 -8 3.2 -0.3 0.3 -0.8 5.8 -1.1 12.3 -1.7 31.7 -7.1 47.3 -21.3 61.4 -22.5 22.3 -48.4 31.5 -68 24.1 -11.3 -4.2 -22.2 -18.1 -25.4 -32.3 -0.7 -3 -1.5 -5.2 -1.8 -4.9 -0.3 0.3 -1.3 3.1 -2.1 6.2 -1.4 5.3 -2 6.1 -8.5 11 -23.5 17.8 -46.9 25.5 -70 23.1z m22.8 -26.8 c9.4 -2.4 20 -7.4 29.2 -13.6 3.9 -2.6 6.1 -4.4 5 -4 -18.5 6.7 -18.4 6.7 -29.4 6.3 -13.1 -0.5 -19.6 -3.1 -27.2 -11 -12.3 -12.9 -18.3 -35.2 -18.2 -68.3 0 -19.1 1.3 -29.7 4.9 -42.3 7.2 -24.9 18.1 -36.2 34.9 -36.2 15.4 0.1 23.3 8.4 27.6 29.4 1 5 1.9 11.6 1.9 14.6 0.1 4.7 0.3 5.2 1.3 3.6 0.7 -1.1 4.1 -6.3 7.6 -11.5 3.5 -5.3 6.4 -10.4 6.3 -11.4 -0.5 -8.3 -8.7 -19.9 -17.1 -24.1 -17.7 -9 -45.9 -4 -62.9 10.9 -15.3 13.6 -25.9 36.3 -29.3 63.1 -1.8 14.4 -0.7 36.4 2.5 48.9 6.3 24.5 20.9 42.3 38.2 46.4 6.6 1.5 16.7 1.2 24.7 -0.8z m370.8 -1.4 c3 -1.4 6.5 -3.5 7.9 -4.5 l2.4 -2 -4 1 c-5.6 1.5 -12.5 0.2 -17.2 -3.2 -4.3 -3.1 -11.5 -15.9 -12.8 -22.6 -0.3 -1.9 -1 -3.4 -1.4 -3.2 -1.3 0.5 -10 11.1 -10 12.2 0 2.5 6.1 13.7 9.4 17.4 7.7 8.5 15.2 9.9 25.7 4.9z m-255.9 -1.9 c10.5 -5 19 -10.9 26.8 -18.7 10.7 -10.8 15.1 -22 17.1 -43.4 2.5 -26.7 -3.8 -49.7 -15.8 -58 -8.2 -5.7 -13.8 -6 -24.5 -1.3 -18.1 7.9 -36.5 23.8 -40.7 35.2 -9 23.9 -9.3 53.4 -0.8 73.6 2.1 5.1 9.4 12.7 14.2 15 6.2 2.9 14.3 2.1 23.7 -2.4z m705.1 0.3 c6.8 -3.4 19.6 -12.8 28.7 -21 l5.5 -4.9 -9.2 4.5 c-8.6 4.3 -9.7 4.6 -17.5 4.7 -7.5 0.1 -8.9 -0.2 -12.4 -2.5 -4.8 -3.2 -9.7 -11.8 -11.9 -21 -3.3 -13.6 -3 -43.1 0.7 -59.4 1.4 -6.4 4.3 -12.1 6.7 -13.5 3.3 -1.7 13.6 -1.3 15.3 0.8 2.7 3.1 4.6 7.7 6.1 14.8 l1.4 6.9 6.9 -6.7 6.8 -6.6 -1.8 -5.7 c-2.2 -7 -7.5 -13.2 -12.1 -14.1 -7.6 -1.4 -23.2 7.2 -36.8 20.4 -7.1 7 -7.9 8.2 -10.1 15.1 -3.8 11.9 -5 22.2 -5 40.6 0 18.6 1.3 26.6 6 35.9 3 6 8.7 12.3 12.9 14.2 4.7 2.2 12.5 1.2 19.8 -2.5z m193.7 -5.9 c8.8 -5.7 23.5 -16.5 24.5 -18.1 0.3 -0.5 -1.9 -0.1 -5 1 -9.5 3.3 -14.4 2.3 -16.5 -3.3 -2 -5.8 -2.3 -22.4 -0.6 -39.8 0.9 -9.1 1.9 -25.1 2.3 -35.5 0.7 -23.5 1 -22.9 -10.3 -18.5 -8.3 3.3 -29.2 13.5 -30.8 15.1 -0.6 0.5 1.7 0.9 6 0.9 10.7 0 10.9 0.3 10.9 20.4 0 8.8 -0.6 27.9 -1.4 42.2 -1.6 28.6 -0.9 37.8 3.1 42.9 l2 2.5 3.6 -2.1 c2.1 -1.3 7.5 -4.7 12.2 -7.7z m96.3 6.8 c8.4 -3.2 22.2 -12.7 29.5 -20.3 7.3 -7.6 12.4 -17.5 14.9 -28.7 2.4 -11 2.4 -40.2 0 -49 -3.7 -13.5 -10 -22.2 -18.9 -26 -7 -3 -12.6 -2.3 -22.9 2.9 -17.3 8.8 -31.1 20.5 -35.8 30.5 -10.3 21.6 -11.4 55.9 -2.5 76.3 2.7 6.3 10.5 14.4 15.4 16 5 1.7 13.5 1 20.3 -1.7z m-825.8 -10.9 c12.7 -9.5 23.5 -18.4 23.5 -19.3 0 -0.5 -1.7 0.3 -3.7 1.7 -3 2 -5 2.5 -10 2.5 -7.1 0 -9.6 -1.7 -11.3 -7.9 -1.3 -4.9 -1.1 -38.8 0.4 -65.6 1.2 -20.5 1.2 -22.1 -0.5 -23.9 -1.6 -1.8 -1.8 -1.8 -6.5 0.8 -2.7 1.5 -13.2 8.5 -23.4 15.6 -14.6 10.3 -19.2 13 -21.8 13 l-3.3 0 0.7 -14.4 c0.5 -10.7 0.4 -14.5 -0.5 -15 -0.7 -0.5 -5 1 -9.8 3.3 -10 4.8 -28.3 15 -28.3 15.7 0 0.3 1.4 0.3 3.1 -0.1 4.8 -1.1 9.7 0.3 11.6 3.1 1.3 2.1 1.6 5.2 1.5 17.7 -0.1 15.9 -1.5 46.5 -3.3 70.1 -0.6 7.6 -0.8 14.1 -0.5 14.3 0.6 0.6 18.4 -5.4 20.2 -6.8 0.7 -0.6 1.3 -7.4 1.7 -17.6 0.3 -9.3 1.1 -26.9 1.7 -39.3 l1.1 -22.5 4.9 -4.5 c6.3 -5.8 16.7 -12 20.2 -12 9.5 0 10.4 3.4 8.9 31.5 -2.4 43.7 -2.5 55.5 -0.8 61.6 0.9 3.1 2.8 6.8 4.2 8.3 l2.5 2.7 5.7 -4.2 c3.2 -2.4 8.5 -6.3 11.8 -8.8z m275.9 5.5 c4.2 -2.4 4.6 -3 4.6 -6.4 0 -4.7 1.6 -35.5 3.1 -61.9 1.2 -19.9 1.3 -20.3 4 -23.6 6.6 -8 16.5 -8.8 25.6 -2.2 2.2 1.6 2.2 1.6 5.3 -8.7 1.7 -5.7 3.3 -10.9 3.5 -11.6 0.6 -1.6 -7.1 -5.3 -9.4 -4.5 -2.3 0.8 -9.4 7.8 -15.8 15.6 -4.9 5.9 -5.9 6.7 -9 6.7 l-3.5 0 0.2 -6.7 c0.4 -9.2 0.2 -10.6 -1.3 -12.7 -1.3 -1.8 -1.9 -1.6 -11.1 2.7 -9.5 4.5 -26.6 14.4 -26.6 15.3 0 0.3 3.1 0.2 6.9 -0.2 6.8 -0.6 6.9 -0.6 8.7 2.2 1.7 2.5 1.9 4.8 1.7 20.9 -0.1 16.3 -2.3 56.8 -3.9 75.3 l-0.7 7.3 6.5 -2.4 c3.6 -1.3 8.6 -3.6 11.2 -5.1z m156 3.9 c10.1 -6.1 18.1 -12.2 26.3 -20 7.5 -7.3 7.6 -7.5 3.5 -5.5 -3.1 1.5 -5.8 2 -9.5 1.8 -4.9 -0.3 -5.3 -0.5 -7 -4 -2.6 -5.3 -3.9 -20.2 -3.2 -35.8 0.6 -13.9 3 -45.4 4.1 -54.7 0.3 -2.9 0.4 -5.3 0.2 -5.3 -1.5 0 -12.2 3.6 -16.9 5.7 l-5.6 2.4 -0.7 14.7 c-0.7 14.7 -3.1 47.5 -4.3 58.6 -0.5 5.3 -1.1 6.4 -4.9 10.2 -5.4 5.4 -11.2 8.4 -16.4 8.4 -5.8 0 -8.5 -3.2 -10.6 -12.8 -2.1 -9.3 -1.7 -19.2 2.2 -57.6 3.2 -31.8 3.3 -31.1 -6.1 -27.2 -9.4 3.8 -25.6 11.5 -30.5 14.4 l-4.5 2.7 7.4 0.6 c12.3 0.9 13 3.5 10.7 35.4 -2.7 37.4 -2.8 40.9 -1.7 48.5 1.3 9.7 4.8 21 6.7 21.7 1.8 0.7 13.1 -7.5 28.4 -20.6 9.4 -8 12.5 -10.1 14.9 -10.1 3.4 0 3.6 0.3 4.6 10.5 1.1 10.2 4.4 21.5 6.3 21.5 0.5 0 3.4 -1.6 6.6 -3.5z m504.8 -15.6 c0.4 -6.3 1.4 -24.4 2.2 -40.4 l1.4 -29 3.4 -2.8 c13.4 -11.3 22.8 -15 27.8 -10.9 2.2 1.8 2.5 2.9 2.8 9.9 0.2 4.4 -0.3 22.6 -1.2 40.4 -1.7 32.5 -1.4 39.5 1.5 45.2 1.7 3.3 4 5.7 5.5 5.7 1.6 0 30.9 -21.9 37.4 -27.9 l4.5 -4.2 -4.6 2.5 c-6.3 3.6 -14.9 3.7 -18.3 0.3 -5 -5 -5.6 -19.1 -3.1 -63.7 0.8 -14 1.5 -26.7 1.5 -28.2 0 -3.5 -3.1 -5.4 -6.2 -3.7 -3.4 1.7 -18.6 12 -32 21.6 -8.8 6.3 -12.4 8.3 -14.9 8.3 l-3.2 0 0.6 -13.9 c0.5 -11.4 0.4 -14.1 -0.8 -15.1 -1.1 -0.9 -4.2 0.3 -15.6 6 -7.8 3.9 -16.2 8.5 -18.8 10.1 l-4.6 2.9 4.5 -0.6 c2.5 -0.2 5.9 -0.1 7.5 0.4 5 1.4 5.8 5.6 5.1 27.2 -0.6 21.6 -3.4 71.1 -4.1 75.6 l-0.5 3.1 10.7 -3.7 10.8 -3.7 0.7 -11.4z m-746.9 14.6 c7.1 -4.3 26.9 -18.8 28.8 -21.2 1.3 -1.5 1.2 -1.6 -0.6 -0.8 -1.1 0.5 -4.9 1.1 -8.3 1.3 -5.6 0.3 -6.7 0.1 -8.9 -2 -8.5 -7.9 -10.8 -24.2 -8.2 -59.3 1.5 -21.3 0.4 -19.1 10.6 -19.8 6.9 -0.5 9.1 -1.1 10.7 -2.7 l2 -2 -10.3 0 -10.4 0 0.6 -14.7 c0.4 -8.2 1.1 -19.5 1.7 -25.2 0.6 -5.7 1 -10.5 0.8 -10.6 -0.2 -0.2 -4.9 1.8 -10.6 4.3 -7.5 3.4 -10.4 5.2 -10.6 6.7 -0.7 3.3 -2.6 29.6 -2.6 34.2 0 4.8 0.1 4.8 -10.8 5.7 -3.4 0.3 -7.4 1.4 -8.9 2.3 -2.7 1.8 -2.7 1.8 7.2 2.3 l10 0.5 0 7.5 c0 4.1 -0.6 14.8 -1.4 23.8 -1.8 21.1 -1 43 1.8 52.7 3.6 12.6 7.7 20.5 10.5 20.5 0.6 0 3.7 -1.6 6.9 -3.5z m453 -4.5 c10.3 -7 24.7 -17.9 24.7 -18.6 0 -0.2 -1.6 0.4 -3.5 1.2 -1.9 0.7 -6.1 1.4 -9.4 1.4 -5.6 0 -6.1 -0.2 -8.9 -3.6 -3.9 -4.7 -6.8 -13.9 -7.7 -24.1 -0.7 -7.2 0.6 -36.7 2.1 -48.9 l0.5 -4.2 8.4 -0.3 c7.1 -0.3 8.8 -0.7 10.7 -2.6 l2.2 -2.3 -10.2 0 -10.2 0 0 -7.7 c0 -4.3 0.7 -14.5 1.5 -22.8 0.8 -8.2 1.5 -16.2 1.5 -17.7 l0 -2.6 -10.4 4.6 -10.4 4.6 -0.6 5.1 c-0.3 2.7 -1.1 11.7 -1.7 20 -0.6 8.2 -1.5 15.3 -2.1 15.6 -0.5 0.3 -4.3 0.9 -8.5 1.3 -5.1 0.4 -8.2 1.2 -9.9 2.5 l-2.4 1.9 9.9 0.4 c5.5 0.1 10.2 0.6 10.6 0.9 0.3 0.4 -0.1 8.1 -0.9 17 -3.9 41.8 -3.1 57.8 3.5 75.2 3.4 8.9 5.3 11.7 7.9 11.7 0.9 0 6.9 -3.6 13.3 -8z m-530.6 -14.3 c4.6 -6.2 8.3 -16.7 8.3 -23.8 0 -13 -6.1 -21 -22.7 -29.4 -16.1 -8.2 -21.2 -15.2 -20.1 -28 0.3 -3 0.4 -5.5 0.2 -5.5 -1.1 0 -9 14.3 -10.6 19.2 -2.5 8.1 -2.1 19.4 1 25.4 3 5.9 10.5 12.2 21.2 17.9 6.5 3.5 9.9 6 11.6 8.5 4.5 6.8 4.1 21.1 -0.9 27.7 -1.1 1.6 0.3 0.6 3.2 -2.2 2.9 -2.7 6.8 -7.2 8.8 -9.8z m5.7 -85.1 l2.7 -7 -2.8 -4 c-7.4 -10.6 -19.3 -11.2 -30.3 -1.7 l-3.5 3 6.3 0.1 c9.7 0 17.5 5.2 22 14.6 0.9 1.9 1.9 3.1 2.2 2.7 0.4 -0.5 1.9 -3.9 3.4 -7.7z m613.1 -48.5 l5.2 -7.3 -4.3 -7.7 c-2.4 -4.2 -4.7 -8.2 -5.1 -9 -0.6 -1 -2.8 0.8 -8.1 6.7 l-7.3 8.1 1.7 3.3 c0.9 1.8 3.5 6.1 5.7 9.6 4.6 7.4 4.4 7.4 12.2 -3.7z"/>
  <path d="M205 647.2 c-3.8 -2 -9.3 -10.2 -11 -16.2 -3.3 -11.6 -4.5 -22.1 -4.4 -40.5 0.2 -29.4 3.9 -44.5 12.4 -50.3 3 -2 4.4 -2.3 9.7 -2 5.3 0.3 6.8 0.9 9.4 3.3 4.5 4.3 7.4 10.7 9.9 22 2 8.6 2.3 12.8 2.3 31 0 39.9 -5.4 54.5 -20.3 54.5 -2.5 0 -6.1 -0.8 -8 -1.8z m10.4 -19.4 c4.2 -14.5 3.9 -41 -0.4 -55.1 -2.7 -8.6 -4.2 -9.8 -6.3 -4.9 -6 14.1 -5.4 45.8 1.3 60.8 1 2.4 2.4 4.4 2.9 4.4 0.6 0 1.7 -2.4 2.5 -5.2z"/>
  <path d="M1204 647.9 c-6.2 -2.5 -10.8 -10 -14.1 -23.1 -3 -12 -3.8 -45 -1.5 -59.8 1.8 -11.8 5.8 -21.2 10.3 -24.5 3.9 -2.8 12.8 -3.2 17.3 -0.7 4.9 2.7 9.5 10.7 12.1 21.6 2.1 8.2 2.3 11.5 2.3 33.6 0 18.8 -0.4 26.3 -1.7 32.2 -3.2 15.2 -8.6 21.9 -17.6 21.7 -2.5 0 -5.7 -0.5 -7.1 -1z m9.4 -22 c2.6 -9.2 2.8 -38.2 0.3 -48.9 -0.9 -4.1 -2.6 -8.8 -3.6 -10.4 l-1.9 -2.9 -1.7 3.2 c-4.4 8.5 -5.8 31.4 -3 47.6 1.7 9.6 5.2 18.8 6.9 18.2 0.6 -0.2 1.9 -3.3 3 -6.8z"/>
  <path d="M649 438.6 c-1.9 -0.7 -7.3 -3.2 -12 -5.4 -13.6 -6.5 -56 -18.6 -89.8 -25.7 l-7.2 -1.5 -20.8 6.9 c-23 7.7 -47 14 -63.7 16.7 -15.7 2.6 -45 2.6 -56 0 -29.3 -6.7 -49.6 -23.1 -52.2 -42.1 l-0.6 -4.5 -54.6 0 -54.7 0 -3.7 -3.8 -3.7 -3.8 0 -16 0 -16 3.3 -3.2 3.3 -3.2 63.7 0 c57.9 0 63.8 -0.1 64.4 -1.6 1 -2.8 11.9 -9.1 18.7 -10.9 19.4 -5.3 41.3 4.5 46.5 20.7 l1.2 3.6 4.7 -2.4 c5.4 -2.8 10.3 -3.5 16.5 -2.4 2.3 0.4 6.8 1.1 10 1.5 l5.7 0.6 0 -3.8 c0 -2.1 1 -5.9 2.3 -8.3 2.8 -5.6 9.3 -9.3 14.7 -8.5 19.2 3 52.6 10 63.8 13.4 l6.3 1.9 10.2 -2.9 c35.1 -10.1 50.9 -12.9 77.7 -13.6 32.8 -0.9 55.6 3.5 70.5 13.6 l4.5 3.1 4.8 -3.4 c6.4 -4.6 11.4 -7 20.2 -9.7 10.7 -3.4 28.3 -3.4 39 0 8.8 2.7 16.1 6.3 21.1 10.2 l3.7 2.9 5.8 -3.5 c15.1 -9.1 33.5 -13.1 61.9 -13.4 24.8 -0.3 48.7 3.4 79.6 12.3 l15.7 4.5 8.8 -2.5 c10.1 -2.8 41.3 -9.5 55.2 -11.9 8.8 -1.5 9.4 -1.5 13.6 0.3 5.7 2.6 8.6 6.8 9.3 13.8 l0.6 5.6 4.1 -0.6 c2.3 -0.4 8.4 -0.9 13.6 -1.2 8.9 -0.6 9.8 -0.4 14.4 2 2.7 1.5 4.9 2.5 5 2.4 0.2 -0.2 0.8 -2.1 1.4 -4.4 3.9 -13.6 25 -23.8 42.4 -20.6 7.5 1.4 14.9 4.9 20.5 9.7 l4.1 3.5 62.9 0 62.9 0 3.2 3.3 3.2 3.3 0 16 0 16 -3.8 3.7 -3.8 3.7 -54.4 0 -54.4 -0.1 -0.3 2.8 c-2 15.8 -15.5 30.7 -35.2 38.7 -14.6 5.9 -21.9 7.1 -44.1 7.1 -17 -0.1 -22.6 -0.4 -32.5 -2.3 -18.9 -3.6 -38.3 -8.7 -60.8 -16.2 l-20.9 -7 -25.6 6.1 c-39.9 9.5 -63.6 16.9 -77.7 24.3 -8 4.1 -13.2 4.2 -17.5 0.1 -1.7 -1.6 -3.3 -4 -3.6 -5.2 -0.6 -2.1 -1.2 -2.3 -6.8 -2.3 -14.6 0 -33.2 -6.2 -44 -14.5 -4.8 -3.7 -5 -3.7 -7.5 -2.1 -12.5 8 -24.7 11.6 -39.6 11.6 -15.2 0 -26.2 -3.3 -40.2 -12.1 -1.8 -1.1 -2.6 -0.8 -6.5 2.4 -9.6 7.9 -29.9 14.7 -44 14.7 -5.5 0 -5.8 0.1 -7.3 3.4 -2.9 6 -9.3 8.6 -15.5 6.2z m-5.8 -31.6 l-0.4 -4 4.3 0 c2.4 0 6.9 0.7 9.9 1.5 11.5 3.1 28 1 40.7 -5.2 6.3 -3.1 15.7 -11.6 17.3 -15.7 0.8 -2.1 1.6 -2.6 4.2 -2.6 2.7 0 4.1 1 8.1 5.5 8.2 9.4 26.5 16.4 39 14.9 13.2 -1.5 24.4 -6.9 32.1 -15.5 6.1 -6.8 9.1 -6.8 13.5 0 7.4 11.5 21.9 18.7 40.1 19.8 7.8 0.5 11.1 0.2 17.9 -1.6 4.7 -1.1 9.6 -2.1 10.9 -2.1 2.3 0 2.4 0.3 2 4.4 l-0.5 4.3 4 -1.5 c2.2 -0.9 3.5 -1.8 2.8 -2 -0.6 -0.2 -1.1 -1.8 -1.1 -3.5 0 -2.6 0.8 -3.8 4.3 -6.2 4.1 -2.9 4.1 -3 1.6 -3.3 -2.3 -0.3 -2.8 -0.9 -3.3 -4.5 -0.9 -5.2 -8.1 -12.6 -14.2 -14.5 -11 -3.3 -23.4 1.2 -28 10.1 -1.1 2.1 -2.2 2.7 -4.8 2.7 -4 0 -13.6 -6 -18.3 -11.4 -3 -3.3 -3.3 -4.3 -3.3 -9.7 0 -5.5 0.3 -6.4 3.1 -9 4.1 -3.8 11.1 -5.8 24.2 -6.9 18.3 -1.5 39.7 1.3 69.2 9.1 6.6 1.7 13 3.4 14.3 3.7 1.7 0.3 2.2 1.1 2.2 3.8 0 3.1 -0.5 3.6 -5.2 6 -6.9 3.5 -17.8 9.8 -20.3 11.9 -1.1 0.9 0.5 0.2 3.5 -1.5 11.2 -6.4 28.6 -14.3 32.5 -14.7 2.7 -0.3 6.7 0.5 12.5 2.5 8.3 2.8 8.5 2.9 8.8 6.4 0.3 3.4 0.3 3.5 -5.5 5.1 -9.1 2.5 -41.4 13.9 -40.9 14.4 0.2 0.3 3.7 -0.5 7.8 -1.6 19.6 -5.5 55.5 -13.2 59.3 -12.8 2.2 0.3 12.6 3.4 23.1 7.1 30.2 10.4 54.9 16.3 78.9 18.6 30.3 2.9 61.3 -8.4 70.8 -25.8 2.9 -5.4 3.4 -9.6 2.2 -17.9 l-0.8 -5.3 59.2 0 59.1 0 0 -4.5 0 -4.5 -63.6 0 -63.6 0 -4.7 -4.9 c-5.4 -5.8 -13.3 -8.7 -20.6 -7.7 -6.2 1 -14.4 6.3 -16.8 11 -2 3.9 -2 3.9 -0.1 7.5 2.7 5 9.1 9.5 15.6 10.9 5.1 1.2 6.1 1.1 11.4 -0.8 7.9 -2.9 13.4 -3.6 14.5 -1.9 0.5 0.8 0.9 3.7 0.9 6.5 0 12.6 -10.5 18.1 -36.5 19.1 -22.3 0.9 -43.1 -1.9 -68 -9 -7.9 -2.2 -8 -2.3 -8.3 -5.7 l-0.3 -3.5 22.3 -2.8 c12.2 -1.5 22.6 -3.1 23.1 -3.6 0.4 -0.4 -0.4 -2.2 -1.8 -4 -1.9 -2.2 -3.5 -3.1 -5.7 -3.1 -3.8 0 -25 3.3 -45.4 7 -8.9 1.7 -18.2 3 -20.8 3 -2.6 0 -9.5 -1.6 -15.6 -3.6 l-11 -3.5 0 -3.3 0 -3.3 10.3 -2.8 c5.6 -1.5 18.5 -4.4 28.7 -6.5 11.1 -2.3 17.8 -4.1 16.8 -4.5 -2.2 -0.9 -28 4.3 -51.1 10.2 -12.1 3.1 -19.1 4.4 -22 4.1 -2.3 -0.3 -10.5 -2.3 -18.2 -4.6 -32.3 -9.6 -53.2 -12.7 -79.5 -11.9 -14.4 0.4 -19.2 0.9 -27.5 3.1 -13.6 3.5 -23.2 8.4 -28.8 14.6 -5.9 6.6 -9.2 6.8 -13.5 1 -7.5 -10.3 -23.7 -18 -37.7 -18 -5.8 0 -17.8 3.1 -23.8 6.1 -4.7 2.5 -14.4 11.3 -15.2 14 -0.5 1.4 -1.6 1.9 -4.6 1.9 -2.1 0 -3.9 -0.4 -3.9 -0.9 0 -2.1 -9.7 -10.2 -15.7 -13 -13.7 -6.6 -29.2 -9.3 -52 -9.2 -22.3 0.1 -42.7 3.7 -73.8 12.7 -8.2 2.4 -16.2 4.4 -17.7 4.4 -1.5 0 -9.6 -1.8 -18.1 -4 -24.8 -6.5 -53.7 -12 -53.7 -10.4 0 0.5 6.5 2.2 14.4 3.7 12.1 2.3 33.6 7.4 39.9 9.3 1.2 0.4 1.7 1.6 1.7 3.9 l0 3.4 -11.2 3.6 c-6.1 1.9 -12.9 3.5 -15 3.5 -2.1 0 -9.8 -1.1 -17.1 -2.4 -20 -3.7 -45 -7.6 -49 -7.6 -2.7 0 -4.1 0.7 -6.2 3.1 -1.4 1.8 -2.2 3.5 -1.8 4 0.4 0.4 10.8 2 23.1 3.5 l22.3 2.8 -0.3 3.5 c-0.3 3.5 -0.4 3.6 -8.3 5.8 -35.1 10.1 -73.4 12.2 -92.2 5.2 -9.7 -3.7 -13.3 -9.6 -11.9 -19.4 0.7 -4.1 1 -4.5 3.6 -4.5 1.6 0 4.8 1 7.1 2.2 5.3 2.7 12.6 3.4 18.7 1.7 5.4 -1.5 14.2 -9.5 14.2 -12.9 0 -7.4 -11.5 -16 -21.5 -16 -7.1 0 -17.4 5.6 -19.7 10.6 l-1.1 2.4 -60.6 0 c-33.3 0 -62.3 0.3 -64.3 0.6 -3.6 0.6 -3.8 0.8 -3.8 4.5 l0 3.9 59.1 0 59.1 0 -0.7 8.4 c-0.7 7.6 -0.5 9 1.5 13.1 3.5 7.3 11.2 14.1 21.5 19 14.4 6.9 20.1 8 41 8 26.3 -0.1 45.7 -4.1 87.3 -18 12.3 -4.1 23.7 -7.5 25.3 -7.5 3.9 0 21.9 3.9 45.9 10 10.7 2.7 20.6 5.2 22 5.5 4.5 1 -12.5 -5.2 -30.4 -11.1 l-17.6 -5.9 0 -3.5 0 -3.6 8.3 -2.7 c4.6 -1.5 9.9 -2.7 11.9 -2.7 2.5 0 8.7 2.6 20.4 8.4 9.3 4.7 15.7 7.6 14.4 6.6 -1.4 -1.1 -7.3 -4.4 -13.2 -7.5 -10.3 -5.4 -10.8 -5.8 -10.8 -8.9 l0 -3.2 13.8 -3.7 c31.4 -8.4 49.7 -11 70.2 -9.7 23.4 1.4 31.8 6.7 29.5 18.6 -1.2 6.9 -15.1 18.4 -22.1 18.4 -2.3 0 -3.3 -0.7 -4.8 -3.5 -2.4 -4.4 -8.3 -8.4 -14.6 -10.1 -12.1 -3.1 -27 5.8 -27 16.2 0 3.9 -0.3 4.4 -2.2 4.4 -2.1 0.1 -2.1 0.2 1 2.8 2.4 2 3.2 3.5 3.2 6 0 1.8 -0.5 3.2 -1.2 3.3 -0.7 0 0.7 0.9 3.2 1.9 2.5 1 4.5 1.9 4.5 1.9 0 0.1 -0.1 -1.7 -0.3 -3.9z"/>
  <path d="M751.3 391.5 c-6.8 -1.9 -12.7 -5.8 -15.6 -10.4 -1.7 -2.8 -2.2 -5.1 -2.2 -10.7 0 -9.7 2.8 -14 12.2 -18.6 6.4 -3.1 7.3 -3.3 17.8 -3.3 11.9 0 16.9 1.3 23.3 6.2 5.5 4.2 7.2 7.9 7.2 15.9 0 8.5 -2 12.2 -9.3 17.1 -7.8 5.2 -22 6.8 -33.4 3.8z m19.9 -14.5 c5.2 -1.5 5.6 -2.8 1.4 -4.5 -4.8 -2 -13.9 -1.9 -18.4 0.2 l-3.6 1.7 4 1.8 c4.4 2 11.1 2.3 16.6 0.8z"/>
  <path d="M140 400.8 c0 -1.2 1.3 -10.4 2.5 -17.5 0.5 -2.7 0.3 -3.2 -1 -2.7 -1.9 0.8 -1.9 1.7 0.6 -15.9 1.2 -8.1 1.9 -15 1.6 -15.3 -0.2 -0.3 -6.8 3.6 -14.5 8.5 -17.3 11.1 -21.2 13.1 -33.2 16.9 -30.2 9.7 -52.1 8 -67.9 -5.2 -15.1 -12.6 -23.6 -32.7 -27.2 -64.6 -1.8 -16.4 -0.6 -68.9 2 -85.8 8.7 -55.5 27.4 -96.5 62.3 -136.2 24 -27.2 74.5 -55 114.7 -62.9 30.9 -6.2 56.8 2.2 66.1 21.5 4.5 9.1 6.6 23.4 3.9 26.1 -0.9 0.9 -0.9 2.3 0 5.7 0.6 2.5 1.1 6.5 1.1 9 0 4.2 -1 5.9 -13.3 23.3 -7.3 10.3 -17 24.2 -21.5 30.9 l-8.3 12 -12.1 -1.8 c-6.7 -1 -12.3 -2 -12.5 -2.2 -0.2 -0.1 -0.6 -4.7 -0.9 -10.2 -0.9 -15.8 -3.8 -27.3 -8.8 -35.2 -10.1 -16 -35 -11.1 -56.1 11 -20.2 21.2 -32.2 47.3 -38.9 84.8 -4.2 23.2 -4.1 36.2 0.1 55.5 2.9 13 2.7 13 12 0.7 4.5 -5.9 8 -10.8 7.9 -11 -0.2 -0.1 -4.7 1.3 -10 3.2 -5.3 1.9 -9.6 3.2 -9.6 2.8 0 -0.4 8.7 -11.9 19.3 -25.6 l19.2 -24.9 13.5 -5.9 c21.4 -9.4 53.1 -22.1 70 -28.1 21.7 -7.7 67.6 -21.9 95.8 -29.6 l7.3 -2 -3.4 4.7 c-9.4 12.9 -14.7 20.5 -14.4 20.8 0.1 0.2 4 -0.8 8.7 -2.1 4.6 -1.4 8.5 -2.4 8.6 -2.2 0.1 0.1 -5.4 7.9 -12.2 17.2 -15.4 21.3 -28.6 34.6 -39.5 40 -4.1 2.1 -7.5 3.8 -7.6 3.9 -0.1 0.1 -1.3 9.1 -2.8 20.1 -1.4 11 -4.8 36.3 -7.5 56.2 -2.8 19.8 -5 36.4 -5 36.6 0 0.8 -29.4 28.2 -41.4 38.6 -11.8 10.2 -46.2 38.1 -47 38.1 -0.3 0 -0.6 -0.6 -0.6 -1.2z m-57.7 -58.7 c14.4 -3.9 21 -7.3 48.4 -24.8 22 -14 27.9 -17.3 30.8 -17.3 3.4 0 3.5 0.1 3.5 3.9 0 2.2 -0.7 9.3 -1.6 15.8 -2.5 19.6 -3.2 24.8 -2.9 25.1 0.5 0.6 30.9 -26.2 42.2 -37.3 l12.3 -12 2 -15 c1.2 -8.2 4.1 -30.1 6.5 -48.5 2.5 -18.4 5 -37.5 5.6 -42.4 l1.2 -8.8 9.4 -4.6 c6.6 -3.2 11.6 -6.5 16.4 -11 3.8 -3.6 6.8 -6.6 6.6 -6.8 -0.5 -0.6 -45.4 13.8 -60.7 19.4 -18.4 6.8 -35.1 13.5 -56.3 22.7 -15.1 6.6 -18.2 8.3 -20.8 11.6 l-3 3.8 4.8 -1.5 c17.3 -5.3 26.2 -7.4 32.1 -7.4 5.6 0 6.7 0.3 9.2 2.8 3.4 3.4 4.5 10.8 3.6 23.4 -0.3 4.6 -1.3 18.4 -2.2 30.8 -1 14.3 -2.1 23.3 -2.9 24.6 -1.6 2.5 -18.5 9.7 -29.3 12.4 -10.8 2.8 -28.6 2.7 -37.5 0 -27 -8.4 -41.2 -42.1 -39.4 -94 1.2 -34.8 8.3 -67 20.2 -91.5 15.7 -32.4 38.4 -54.5 61.7 -60 9.3 -2.2 21.5 -1.9 28.2 0.6 14.6 5.4 24.2 22.6 26.2 47 0.6 6.3 1 7.9 2.2 7.7 0.8 -0.2 9.5 -11.7 19.3 -25.7 19.5 -27.7 18.8 -26.2 14.7 -34.6 -7.9 -15.9 -26.7 -21.1 -53.3 -14.6 -30.8 7.6 -59 21.5 -85.7 42.3 -31.3 24.5 -59 70.4 -70.8 117.5 -11.5 46.2 -10.4 99.6 2.7 124.6 6.1 11.6 13.4 18.5 24.1 22.8 6.2 2.5 21.3 2 32.5 -1z m50.2 -55.8 c3.3 -0.8 9.2 -2.8 13.2 -4.4 8.1 -3.4 7.7 -2.4 8.8 -19.4 0.3 -4.9 0.8 -11.4 1.1 -14.2 0.3 -2.9 0.3 -5.3 -0.1 -5.3 -2.1 0 -69.2 21.6 -70.4 22.6 -0.2 0.2 0.2 1.8 1 3.5 1.8 4.4 11.5 14.1 16.3 16.3 7.6 3.6 18.1 3.9 30.1 0.9z"/>
  <path d="M1387.7 378.3 c-8.4 -1.7 -14.9 -4.2 -24.5 -9.4 -23.3 -12.5 -39.5 -33.2 -49.3 -63.1 -5.8 -17.7 -6.4 -23.7 -6.4 -63.3 0 -33 0.2 -37 2.2 -48.3 4.3 -23.7 11.3 -39.3 20.2 -45.2 5.2 -3.5 18.8 -8.5 30.6 -11.3 12.8 -2.9 34.8 -2.9 45.8 0.1 21.2 5.8 36.9 21.3 45.2 44.6 4.8 13.4 8.8 38 6.3 38.8 -0.6 0.2 -0.5 3.9 0 9.8 0.6 5.2 0.8 9.8 0.6 10.2 -0.9 1.4 -26.2 9 -37.4 11.3 -19.9 4 -18 4 -18.1 -0.3 -0.1 -2 -0.3 -4.6 -0.4 -5.8 -0.1 -1.2 -0.5 -5.4 -0.9 -9.4 -1.5 -14.8 -6.8 -31.2 -11.9 -36.7 -2.8 -3.1 -3.5 -2.9 -5.4 1.4 -4.2 10.3 -5.7 36.6 -2.8 50.8 2.3 11.2 7.6 26.4 11.6 33.2 4.6 7.8 14.4 17.4 21 20.6 13.1 6.5 30.9 7.7 56.9 4.1 l4.6 -0.6 -0.2 14.8 c-0.1 12.3 -0.5 20.5 -1.8 41.8 -0.1 0.5 -1.9 1.5 -4.1 2.3 -8.3 2.9 -35.3 9.2 -43.9 10.3 -11.5 1.4 -29.3 1.1 -37.9 -0.7z m42.5 -36.3 c9.5 -1.8 27.7 -6.4 28.3 -7.2 0.1 -0.2 0.5 -2 0.8 -4.2 l0.6 -3.8 -5.8 0.6 c-6.9 0.8 -27.2 -0.9 -35.6 -3 -20.6 -5 -37.1 -21.8 -46 -46.6 -6 -17 -7.7 -28.3 -7.7 -53.3 -0.1 -47.4 6.7 -65.7 23.6 -63.1 13.9 2.3 22.6 16.6 27 44.6 1 5.7 1.9 10.6 2 10.8 0.5 0.4 11.5 -2.4 19.3 -4.9 7.2 -2.3 7 -1.4 2.6 -16.9 -5 -17.6 -16.3 -33 -28.7 -39 -16.7 -8.2 -39.1 -7.6 -62.3 1.6 -3.7 1.5 -8 3.6 -9.6 4.6 -5.2 3.7 -10.3 16.3 -13.9 34.2 -1.9 9.6 -2.3 14.4 -2.3 34.6 0 15.1 0.5 26 1.3 30.5 5.1 27.7 18.8 52.4 36.4 65.8 10.2 7.7 24.3 14.4 33.8 16 7.5 1.3 26.6 0.6 36.2 -1.3z"/>
  <path d="M1171.5 298.7 c-4.4 -3.5 -9.9 -8.4 -12.2 -10.8 -4.1 -4.2 -4.3 -4.8 -6.3 -16.4 -1.2 -6.6 -2.3 -12.1 -2.4 -12.3 -0.2 -0.1 -4.9 1.8 -10.6 4.4 -11.5 5 -35 13.1 -47.8 16.4 l-8.3 2.1 -6.9 -2.1 c-15.3 -4.6 -17.1 -5.8 -24.9 -17.6 -10.6 -15.7 -15.4 -26 -18.8 -40.3 -2.1 -9.1 -2.1 -54.4 0.2 -72.5 3 -24.3 8 -45.8 13.1 -55.9 5.4 -10.5 7.1 -12.3 15.2 -16 22.6 -10.3 53.2 -20.8 78.1 -26.9 12 -2.9 12.7 -2.9 22.3 -1.8 18.8 2.2 43.7 11.2 67.4 24.6 8.7 4.9 26.5 16.7 32.8 21.7 l2.8 2.3 -7.1 4.7 c-3.9 2.6 -7.1 4.9 -7.1 5.1 0 0.3 3.2 2.8 7.1 5.6 l7 5.1 -3.8 2.8 c-2.1 1.5 -7.9 5.5 -12.9 8.9 l-9.1 6.1 -1.7 9.3 c-3.3 19.4 -4.1 27.9 -4 47.3 0 20.3 1.5 31.1 4.7 34.2 1.4 1.4 12.1 -0.5 32.4 -5.6 6.7 -1.7 12.9 -3.1 13.8 -3.1 1.4 0 1.5 3 1.3 29.1 l-0.3 29.2 -13 5.9 c-31 14 -56.1 20.8 -83 22.5 l-10 0.6 -8 -6.6z m32 -31.7 c21.1 -3.4 35 -7.7 58 -17.8 l9 -3.9 0.3 -4.3 c0.3 -3.5 0.1 -4.2 -1.2 -3.7 -4.6 1.8 -23.8 4.7 -30.8 4.7 -7.7 0 -8.1 -0.1 -11.3 -3.3 -6.6 -6.6 -9.5 -23.5 -9.5 -55.6 0 -21.1 1.4 -41.2 4.1 -58.1 3 -19 3.1 -19.4 9.4 -23.7 3 -2.1 5.4 -4 5.5 -4.3 0 -0.3 -4.7 -3.4 -10.4 -6.8 -20.9 -12.6 -44.7 -22.3 -62.8 -25.7 -8.6 -1.6 -8.7 -1.6 -19.5 1.1 -22.7 5.5 -53.7 16.2 -73.4 25.2 -6.4 3 -6.7 3.3 -10.2 10.4 -7.8 15.8 -13.6 47.6 -13.9 76.3 -0.1 11.8 0.3 16.4 1.7 21.5 3.3 11.8 9.5 24.1 18.7 36.7 3.3 4.5 4.5 5.4 10.3 7.3 5.9 2 7.1 2.1 11.8 0.9 15.1 -3.5 49.7 -16.9 62.4 -24.1 3.6 -2 6.3 -2.8 8.5 -2.6 l3.3 0.3 1.1 9.1 c0.6 4.9 1.9 13.4 2.9 18.8 l1.8 9.8 8.1 6.9 c9.3 8 8.6 7.8 26.1 4.9z"/>
  <path d="M1120 211.8 c-7.3 -3.8 -13 -14.1 -16.8 -30.3 -1.3 -5.4 -1.6 -12 -1.6 -29.5 0.2 -39.2 5.3 -60.3 16.4 -67.8 3.2 -2.2 4.3 -2.3 13.5 -2 8.7 0.3 11.1 0.8 17.8 3.7 4.4 1.9 11 5.4 14.8 7.9 6.7 4.5 6.9 4.8 6.9 8.7 0 2.2 -0.5 7.2 -1.1 11 -1.5 10.7 -4.7 47.7 -6 70 -0.6 11 -1.3 20.3 -1.5 20.6 -0.9 1.5 -25.5 8.9 -31.4 9.4 -5.6 0.6 -7.1 0.3 -11 -1.7z m21.1 -16.4 l7.6 -2.5 0.7 -14.7 c0.6 -15 1 -19.7 2.6 -38.1 0.6 -5.8 1 -11.3 1 -12.3 0 -3.3 -19.5 -11.6 -24.5 -10.4 -5.8 1.5 -10.8 19.5 -12 43.1 -0.6 12.5 4.2 30.3 9.7 36.2 2.4 2.6 3 2.5 14.9 -1.3z"/>
  <path d="M577.5 252.8 c0.4 -4.5 0.8 -9.3 1.1 -10.5 0.2 -1.2 -0.1 -2.3 -0.6 -2.5 -0.7 -0.2 -0.6 -6 0.5 -17.8 4.6 -51.8 9.5 -117.1 9.5 -125.8 l0 -5.5 -6.9 0.7 c-3.9 0.4 -13.7 2.4 -21.9 4.4 l-14.9 3.7 -0.7 -12 c-0.3 -6.6 -0.6 -19.1 -0.6 -27.8 l0.1 -15.8 5.7 -2.6 c24.8 -11 58.3 -23.9 90.5 -34.8 l19.8 -6.8 12.5 4.8 12.5 4.8 -0.1 13.6 c-0.1 7.5 -0.1 14.6 -0.1 15.8 0.1 2.1 0.2 2.1 6.4 -0.9 22.4 -10.9 65.8 -27.9 90.1 -35.3 l9 -2.7 6.7 2.7 c3.7 1.4 9.2 4.4 12.3 6.6 l5.6 4 0 13.6 0 13.5 2.8 -0.7 c1.5 -0.4 9.5 -3.1 17.7 -6.2 40.2 -14.8 69.1 -23.4 78.7 -23.6 7.7 -0.1 19.1 5.4 24.4 11.8 l3.7 4.3 -0.2 21.9 c-0.1 19.3 -1.4 45.1 -2.6 49.3 -0.2 0.8 -0.6 4.9 -0.9 9 -0.4 4.1 -1.1 12.7 -1.6 19 -1.9 22.8 -0.8 34.3 3.9 40.2 l1.9 2.3 13.2 -3.3 c7.2 -1.8 18.9 -5.2 26 -7.4 7.2 -2.3 13.3 -3.8 13.7 -3.4 1 0.9 3.3 33.7 2.6 35 -0.7 1 -0.5 12.3 0.3 17.4 l0.5 3.3 -16.4 7.8 c-23 11.1 -47.5 21.9 -73.2 32.3 l-22 8.9 -8 -2 c-17.6 -4.4 -18.4 -4.9 -24.1 -13.3 -5.6 -8.2 -9.4 -17.4 -11.9 -28.2 -2.4 -10.5 -2 -41.5 1 -72.7 1.3 -14 2.7 -29.6 3.1 -34.8 l0.7 -9.4 -6.7 0.7 c-4.8 0.5 -28.3 7.4 -30.3 9 -0.1 0.1 -3.9 38 -6.8 68.6 -0.3 3 -0.8 7.3 -1 9.5 -0.2 2.2 -0.9 9.9 -1.5 17 -0.6 7.2 -1.2 14.6 -1.5 16.5 -0.2 1.9 -0.7 6.5 -1 10.1 l-0.6 6.7 -10.7 3.1 c-16.2 4.6 -25.3 6.8 -40.7 9.6 -16.9 3 -36.4 5.4 -37 4.5 -0.5 -0.8 0.2 -39.8 1 -54.5 0.6 -9.9 2.6 -35.1 4 -49.5 0.3 -3 1 -11.8 1.5 -19.5 0.6 -7.7 1.6 -18.6 2.2 -24.2 0.6 -5.7 0.8 -10.6 0.4 -11 -1.8 -1.8 -32.8 9.4 -37.5 13.5 -2 1.8 -3.3 11.9 -6.7 52.7 -1.7 20.4 -4.6 46.7 -7 63.1 l-1.7 11 -9.6 3.7 c-22.9 8.8 -53.9 17.8 -75.9 22.2 l-3.3 0.7 0.6 -8.4z m32.9 -36.3 c14.6 -4.1 40.8 -13.3 41.7 -14.7 0.4 -0.6 0.9 -3.5 1.3 -6.6 0.3 -3.2 1.5 -13.1 2.5 -22.2 1.1 -9.1 2.9 -27.5 4.1 -41 1.9 -23 4.8 -51.1 5.5 -53.6 0.5 -1.8 13.8 -8.8 25.5 -13.4 12.4 -5 21.1 -7 30.1 -7 8.1 0 11.3 2.1 13 8.3 1.6 5.8 1.4 21.8 -0.5 36.7 -0.8 6.9 -2 19 -2.6 27 -0.6 8 -2 24.4 -3 36.5 -1.1 12.1 -2.2 28.2 -2.6 35.8 l-0.7 13.7 2.9 -0.5 c21.2 -3.4 51.9 -10.4 55.2 -12.4 0.7 -0.4 2 -9.2 3.2 -23.2 4.7 -51.1 10.2 -103.5 10.9 -104.2 1.2 -1.2 23.4 -9.4 30.4 -11.3 3.5 -1 10.4 -1.7 15.9 -1.8 11.1 -0.1 13.8 1.1 17.3 8 1.8 3.4 2 5.7 1.9 18.4 -0.1 8 -1.4 27.3 -2.9 43 -3.5 36 -4.1 49.8 -2.5 57 1.6 7.2 6.1 17.9 10 23.5 2.7 4 3.8 4.7 10.3 6.6 l7.2 2.1 15.5 -6.2 c21.8 -8.8 46.9 -19.8 72.3 -31.7 9.1 -4.3 9.7 -4.8 9.7 -7.6 0 -2.3 -0.4 -2.8 -1.7 -2.4 -28.4 8.4 -41.2 10.3 -47.1 7.3 -3.9 -2 -8.7 -9.2 -10.7 -16 -4.2 -14 -3.9 -39.6 1 -88.3 1.4 -13.6 2.5 -29 2.5 -34.3 0 -8.7 -0.2 -9.8 -2.2 -11.7 -3 -2.7 -8.2 -5.3 -10.7 -5.3 -4.6 0 -35.1 8.9 -53.2 15.6 -40 14.7 -56.7 20.4 -59.7 20.4 l-3.5 0 0.7 -5.7 c0.3 -3.2 0.9 -12.1 1.2 -19.8 l0.6 -14 -5.1 -2.8 -5 -2.8 -15.3 5.2 c-28.7 9.6 -61 23 -86.2 35.6 -10 5 -13.6 6.3 -16.5 6.1 l-3.6 -0.3 0.3 -13 c0.1 -7.1 0.5 -16.7 0.8 -21.1 l0.6 -8.2 -5.4 -2 -5.3 -2 -17.5 6 c-22.4 7.7 -41.8 15 -64.7 24.5 -16.7 6.9 -18.3 7.7 -18.3 10 0 2.2 0.3 2.4 2.8 1.9 8.5 -1.8 22.5 -3.6 27.5 -3.6 14.7 0 17 6.8 14.8 44 -1.2 20.2 -5 71 -7.6 100.5 -1.9 22.1 -1.9 21.8 0.3 21.1 0.9 -0.3 7.5 -2.1 14.6 -4.1z"/>
  <path d="M320.1 214.8 c4.1 -10.5 5.9 -15.3 5.9 -16.2 0 -0.5 -1.8 -0.6 -4 -0.2 l-4 0.6 1.9 -4.7 c1 -2.7 8.1 -21 15.6 -40.8 7.6 -19.8 14.1 -36.3 14.5 -36.8 1.9 -2.2 148 -27 149.7 -25.4 0.2 0.2 -1.7 5.2 -4.1 11.1 l-4.5 10.7 4.4 -0.7 c2.5 -0.3 4.5 -0.4 4.5 -0.2 0 1.8 -33.2 79.3 -34.2 79.8 -0.7 0.4 -4.9 1.3 -9.3 1.9 -26.7 4 -96.9 17.1 -124.2 23.2 -7.3 1.6 -13.5 2.9 -13.8 2.9 -0.2 0 0.5 -2.4 1.6 -5.2z m57.9 -43.3 c15.7 -3 39.3 -7.3 52.5 -9.5 13.2 -2.2 24.5 -4.6 25.1 -5.3 1.5 -1.6 19.7 -45.8 19.1 -46.3 -0.8 -0.9 -77.3 11.8 -104.7 17.4 l-8.5 1.7 -9.2 24 c-5.1 13.1 -9.3 24.1 -9.3 24.3 0 0.3 1.5 0.2 3.3 -0.2 1.7 -0.4 16 -3.1 31.7 -6.1z"/>
 </g>
 <g fill="#fe0000">
  <path d="M1484.8 665 c-1 -1.3 -1.8 -3.6 -1.8 -5.1 0 -2.2 -0.5 -2.8 -3.2 -3.2 -7.3 -1.3 -26.6 -2.8 -31.3 -2.5 l-5 0.3 -0.3 3.8 c-0.3 3.2 -0.6 3.6 -1.8 2.6 -1.1 -0.9 -1.4 -4.3 -1.4 -15.6 0 -12.2 0.2 -14.4 1.4 -13.4 0.7 0.6 1.6 2.9 2 5 l0.6 3.8 7.7 0.7 c4.3 0.4 13.1 1 19.6 1.3 l11.7 0.6 0.1 -2.9 c0 -1.6 0.4 -3.8 0.8 -4.9 0.8 -1.9 0.8 -1.9 2 0.3 0.8 1.4 1.1 7 0.9 16.9 -0.3 14.4 -0.3 14.7 -2 12.3z"/>
  <path d="M68.6 660.9 c-12 -2.8 -24.6 -14 -31.6 -28.1 -6.6 -13.6 -9.1 -25.2 -9.7 -46 -0.8 -27.6 2.3 -45.8 11.2 -64.5 10.2 -21.5 26.8 -35.6 47 -39.8 8.4 -1.8 23.4 -1.9 30.7 -0.4 12.6 2.7 22.2 11.1 25.8 22.6 2.9 9.3 2.6 11 -2.6 18.4 -2.5 3.5 -6.3 9.4 -8.5 13.1 -3.5 6 -4.2 6.6 -6.2 5.9 -2 -0.7 -2.3 -1.8 -2.9 -9.2 -1.7 -21.6 -7.9 -35.3 -18.3 -40 -10.6 -4.9 -24.2 1.3 -31.9 14.3 -15.8 27.1 -17.4 83.2 -3.1 112.3 7 14.4 18.1 22.4 32.2 23.3 6.2 0.4 8.8 0 16 -2.3 4.7 -1.6 12.3 -4.7 16.9 -7.1 4.7 -2.4 8.4 -3.7 8.4 -3.1 0 0.7 -0.5 2.9 -1 4.9 -0.9 3.2 -2.4 4.7 -10.8 10.2 -18 12 -31.6 16.7 -48.1 16.5 -5.3 -0.1 -11.3 -0.5 -13.5 -1z"/>
  <path d="M446.3 659.9 c-5.8 -2.9 -11 -8.9 -14.8 -17.3 -5.2 -11.2 -5.4 -10 4 -20.9 4.8 -5.6 8.7 -9.3 8.9 -8.5 0.2 0.7 1.1 4.2 2 7.8 2.4 9.5 8.4 19.9 13.3 23.4 10.6 7.4 21.8 0 21.6 -14.1 -0.1 -8.1 -3.1 -11.8 -14.3 -17.8 -10.6 -5.6 -18.2 -12 -21.2 -17.9 -3.1 -5.9 -3.7 -21.3 -1.3 -30.4 3.4 -12.3 18.9 -32.2 28.4 -36.5 6.3 -2.8 15.2 -2.8 20.9 0.2 4.2 2.2 9.8 8.7 10.7 12.5 0.3 1.2 -1.6 7.6 -4.3 14.4 l-4.9 12.3 -3.4 -6.6 c-6.1 -11.9 -13.5 -18.5 -20.9 -18.5 -3.5 0 -8.9 4.6 -9.1 7.7 -0.5 6.4 -0.4 8.2 0.5 11.3 1.6 5.3 8.1 11 18.9 16.5 17.5 8.9 22.9 16.4 22.9 32.3 0 16.5 -7.7 30 -24.6 43 -11.6 8.9 -24.2 11.6 -33.3 7.1z"/>
  <path d="M896.7 660.5 c-9.1 -2.3 -16.7 -12.5 -20.4 -27.2 -1.3 -5.3 -1.7 -11.3 -1.7 -26.8 -0.1 -21.5 1.1 -31.1 5 -43.6 2.2 -6.9 3 -8.1 10.1 -15.1 9.7 -9.3 21.5 -17.2 30 -19.8 7.8 -2.4 9 -2.4 13.5 -0.5 6.7 2.7 11.4 10.4 13.3 21.6 0.6 3.5 0.4 3.8 -8.6 12.2 -5.1 4.8 -9.6 8.7 -10.1 8.7 -0.4 0 -1 -1.7 -1.3 -3.7 -2.7 -16.5 -6.1 -23.3 -11.7 -23.3 -4.2 0 -6.5 1.6 -8.7 5.8 -2.4 4.9 -3.1 7.8 -4.6 19.7 -1.6 12.8 -1.2 33 0.9 41.9 2.2 9.4 7.1 18.2 11.8 21.3 7.8 5.2 20.4 2 36.5 -9.2 3.5 -2.5 6.6 -4.5 6.8 -4.5 0.9 0 0.5 5.8 -0.4 8.3 -1.3 3.3 -18.5 18.5 -28.9 25.4 -13.4 8.9 -21.8 11.3 -31.5 8.8z"/>
  <path d="M1090.1 659.2 c-4.5 -4.5 -5.5 -12.6 -4.7 -38.1 0.4 -11.9 0.9 -23.2 1.3 -25.1 0.3 -1.9 0.6 -11.4 0.7 -21.1 0.1 -16.4 0 -17.8 -1.9 -19.9 -1.7 -1.9 -2.7 -2.1 -8 -1.7 -3.3 0.2 -6.8 0.7 -7.7 1.2 -1.5 0.6 -1.8 0.1 -1.8 -3.2 0 -3.9 0.1 -4 8.6 -8.7 8.6 -4.7 25.4 -12.2 32.6 -14.5 7.2 -2.3 9.7 1.1 9.2 12.4 -0.1 3.9 -0.5 13.1 -0.9 20.5 -0.3 7.4 -1.3 20.9 -2.1 30 -2.2 22.7 -0.9 35.6 3.7 38 2 1.1 8.3 -0.7 16.1 -4.6 2.6 -1.3 5 -2.4 5.4 -2.4 0.4 0 0.4 2 0.2 4.5 -0.6 5 -1.3 5.7 -16.2 16.7 -10.1 7.5 -28.4 18.8 -30.4 18.8 -0.8 0 -2.6 -1.2 -4.1 -2.8z"/>
  <path d="M1292.5 650.7 c0.3 -6.2 0.8 -12.3 1 -13.7 0.2 -1.4 0.6 -9.5 1 -18 0.4 -8.5 0.8 -16.6 1 -18 0.2 -1.4 0.6 -10.8 0.9 -21 0.8 -25.8 -0.4 -28.3 -11.9 -25.3 -6.6 1.7 -6.5 1.7 -6.5 -1.7 0 -2 0.9 -3.9 2.5 -5.4 2.5 -2.3 23.6 -13.6 35 -18.8 l6 -2.7 2.4 2.2 c2.3 2.2 2.3 2.4 1.7 16 l-0.7 13.9 6.3 -4.6 c15.7 -11.4 31.8 -22.2 37.1 -24.9 5.7 -3 5.8 -3 9.3 -1.3 l3.6 1.7 -0.7 18.1 c-0.4 9.9 -0.8 19.3 -1 20.7 -0.2 1.4 -0.7 11.4 -1 22.1 -0.8 22 0.1 29.7 4.1 33.6 3.4 3.5 7.1 3 14.4 -1.7 6.8 -4.4 7.3 -4.3 8.5 1.8 0.5 2.9 0.2 3.7 -2.6 6.1 -6 5 -24.4 19.2 -32.7 25.2 -7.5 5.3 -8.6 5.8 -11 4.9 -4 -1.5 -5.9 -3.7 -7.9 -8.8 -2.1 -5.4 -2.4 -20.8 -0.8 -49.6 0.6 -9.9 1 -23.3 1 -29.8 0 -11.2 -0.1 -12 -2.3 -13.7 -1.9 -1.5 -2.8 -1.7 -5 -0.9 -2.8 1.1 -17.5 11.4 -19.3 13.5 -1.1 1.4 -2.4 19.9 -3.5 48.9 -0.4 10.5 -1 22.1 -1.3 25.9 l-0.6 6.8 -13.9 4.9 -13.8 4.8 0.7 -11.2z"/>
  <path d="M184.5 659.2 c-4.8 -2.3 -12.1 -9.9 -14.2 -15 -8.7 -20.8 -8.4 -55.2 0.8 -79.6 4.3 -11.6 23.7 -28.2 41.7 -35.7 6.8 -2.8 8.4 -3.1 15.2 -2.7 8.5 0.5 12.4 2.2 17.8 7.6 8.3 8.4 12.1 21.1 12.7 43.2 0.8 30.2 -4.2 47.7 -17.5 61.1 -7.8 7.7 -16.3 13.7 -26.8 18.7 -6.8 3.3 -8.7 3.7 -16.7 4 -7.1 0.2 -9.8 -0.1 -13 -1.6z m35 -15.8 c6.9 -4.5 10.6 -21.2 10.6 -48.4 0.1 -20.4 -2 -34 -6.6 -43 -9.7 -18.9 -24.6 -12 -29.1 13.5 -2.2 12.2 -2.2 38 -0.1 50 2.3 12.5 3.2 15.2 6.9 21.4 5.2 8.6 11.6 10.9 18.3 6.5z"/>
  <path d="M295.6 643.8 c0.7 -9.5 1.5 -24.2 1.9 -32.8 0.4 -8.5 0.9 -17.1 1.1 -19 0.8 -8.7 0.4 -33.1 -0.6 -35 -2 -3.8 -4.6 -4.1 -14.2 -1.5 -2.7 0.7 -2.8 0.6 -2.8 -3.2 l0 -4 10.9 -6.2 c6 -3.4 15.8 -8.4 21.6 -11.2 l10.7 -5 2.4 2.1 c2.1 2.1 2.3 2.8 1.8 11.4 -0.2 5 -0.6 11.3 -0.9 14 l-0.5 4.9 2.2 -1.6 c1.3 -0.8 9.7 -6.7 18.8 -13.1 15.5 -10.9 26.7 -17.6 29.5 -17.6 0.7 0 2.4 0.9 3.9 2.1 l2.7 2.1 -0.6 12.6 c-0.4 7 -0.8 14.3 -1 16.2 -1.2 10.5 -1.7 54.8 -0.6 58.5 2.6 9.5 7.9 10.8 17.8 4.4 3.5 -2.3 6.5 -4 6.7 -3.8 0.2 0.2 0.8 2.3 1.3 4.6 l1.1 4.2 -5.2 4.5 c-2.9 2.5 -12.8 10.1 -21.9 17 -16 12 -16.8 12.4 -19.9 11.5 -8.9 -2.5 -11.3 -14.1 -9.4 -45.9 0.3 -6.3 1.1 -19.8 1.7 -30 1.1 -20.4 0.4 -25.6 -3.7 -27.1 -2.7 -1 -12.3 4.5 -19.4 11.1 l-4.9 4.5 -1.1 22.5 c-0.6 12.4 -1.3 29.9 -1.7 39 -0.3 10.2 -1 16.9 -1.7 17.6 -1.1 1.2 -23.8 9.4 -25.9 9.4 -1 0 -1 -3.7 -0.1 -17.2z"/>
  <path d="M560.9 659.2 c-4.1 -2 -7.7 -8.9 -11 -20.7 -2.9 -10.5 -3.7 -35.2 -1.8 -58.5 1.8 -22.2 1.8 -25.5 -0.1 -25.6 -0.8 0 -6.8 -0.2 -13.3 -0.2 -6.5 -0.1 -11.6 -0.6 -11.3 -1.1 0.3 -0.4 3 -2.7 5.9 -5 4.7 -3.5 6.2 -4.2 11.8 -4.7 11.3 -1 10.6 -0.4 10.8 -8.6 0.1 -3.9 0.4 -7.4 0.5 -7.7 0.2 -0.3 0.7 -5.5 1 -11.6 0.4 -6 0.9 -11.7 1.2 -12.6 0.3 -1.2 27.3 -14.3 28 -13.5 0.1 0 -0.4 6.6 -1.1 14.6 -0.8 8 -1.7 20.1 -2.1 26.8 l-0.7 12.1 12.7 0.3 12.6 0.3 -4.5 5.1 -4.5 5.2 -8.2 0.1 c-4.5 0.1 -8.4 0.4 -8.7 0.7 -0.7 0.6 -1.6 11.6 -2.7 32.4 -1 19.7 1.6 32.3 8.3 39.3 4.1 4.2 8.2 3.6 18.6 -2.6 2.6 -1.6 5 -2.7 5.3 -2.4 0.3 0.3 0.2 2.5 -0.1 5 -0.6 4 -1.4 5.1 -6.8 9.5 -12.2 9.7 -24.4 18.2 -35.8 24.8 -0.3 0.2 -2.1 -0.5 -4 -1.4z"/>
  <path d="M635 660.3 c0 -0.5 0.5 -5.3 1 -10.8 2.1 -20.2 4.6 -67.2 4.4 -81.3 -0.2 -9.5 -2 -14.9 -4.8 -13.9 -0.7 0.3 -4.2 0.8 -7.7 1.2 l-6.5 0.7 0.4 -3.7 c0.4 -3.3 1.2 -4.2 6.6 -7.7 8 -5.1 29.2 -15.6 33.3 -16.4 4.9 -1 6.8 2.8 6.8 13.4 l0 8.3 4 -4.8 c2.2 -2.6 6.7 -7.6 10 -11.1 7.4 -7.7 11.1 -8.7 19.3 -5.2 2.9 1.2 5.2 2.7 5.2 3.2 0 0.6 -2.1 8.1 -4.7 16.8 l-4.7 15.8 -5 -4.4 c-6.8 -5.9 -10.4 -7.1 -15.1 -4.8 -2 0.9 -4.8 3.2 -6.4 5.1 -2.7 3.2 -2.9 4.1 -3.5 16.1 -0.4 7 -0.9 16.1 -1.1 20.2 -0.5 7.7 -0.9 16.5 -2.1 39.8 l-0.7 13.3 -5.1 3 c-4.9 2.8 -19.1 7.9 -22.2 7.9 -0.7 0 -1.4 -0.3 -1.4 -0.7z"/>
  <path d="M802.6 659.7 c-2.2 -1.6 -5.3 -12.5 -6.2 -22 -0.3 -3.9 -0.9 -7.7 -1.3 -8.3 -0.4 -0.7 -5.1 2.7 -12.1 8.7 -14.7 12.7 -27.6 21.9 -30.6 21.9 -3.8 0 -5.9 -3.1 -8.4 -12.1 -2 -7 -2.4 -10.9 -2.4 -23.4 -0.1 -14.2 1.1 -39.3 2 -40.6 0.2 -0.4 0.5 -6 0.6 -12.5 0.3 -16.5 -1.1 -18.4 -13.1 -18.4 l-5.8 0 0 -3.5 0 -3.6 14.1 -6.9 c14.4 -7 28.6 -13 31 -13 0.7 0 2.2 1 3.3 2.3 l2.1 2.2 -2.3 23 c-4.6 45.7 -4.9 52.8 -2.9 61.6 3.1 13.1 7.2 14.5 18.2 6.1 6.5 -4.9 7 -6.4 8.6 -25.3 0.9 -9.6 1.8 -23.1 2.2 -30 0.4 -6.9 0.8 -13.7 0.9 -15 0.1 -1.3 0.3 -5.4 0.4 -9 l0.1 -6.6 6 -2.7 c5.9 -2.7 22.7 -7.3 23.4 -6.5 0.1 0.2 -0.1 4 -0.5 8.4 -0.4 4.4 -1.1 12.3 -1.5 17.5 -0.3 5.2 -0.8 9.7 -0.9 10 -0.8 1.3 -2 30.5 -1.7 40.9 0.3 16.2 2.8 24.1 7.5 24.1 1.2 0 5.5 -1.8 9.5 -4 4 -2.2 7.5 -4 7.7 -4 0.3 0 0.3 2.1 0.2 4.6 -0.2 4.4 -0.6 5 -8.5 12.5 -8.8 8.3 -16.4 14.1 -27.4 20.8 -7.2 4.4 -9.4 4.9 -12.2 2.8z"/>
  <path d="M1007.5 659.6 c-4 -1.7 -4.7 -2.8 -8.4 -12.3 -5.3 -13.9 -6.4 -23.7 -5.7 -47.7 0.4 -11.5 0.8 -21.2 1 -21.5 0.2 -0.3 0.7 -5.3 1.1 -11.1 0.4 -5.8 0.9 -10.8 1.1 -11.2 0.3 -0.5 -0.1 -0.8 -0.8 -0.9 -0.7 0 -2.2 -0.2 -3.3 -0.4 -1.1 -0.2 -6.4 -0.5 -11.8 -0.6 -5.3 -0.1 -9.9 -0.4 -10.2 -0.8 -0.7 -1.2 10.1 -9 13.1 -9.5 1.6 -0.2 4.9 -0.5 7.4 -0.5 2.5 -0.1 5 -0.5 5.6 -0.9 0.6 -0.4 1.4 -4.7 1.8 -9.7 1.5 -20.7 2.6 -30.9 3.4 -31.3 0.4 -0.1 6.6 -2.9 13.7 -6.1 7.2 -3.2 13.1 -5.7 13.3 -5.6 0.3 0.3 -1.2 19.6 -2.3 29 -0.2 2.2 -0.7 8.6 -1.1 14.3 l-0.6 10.2 13.3 0 13.3 0 -5.3 5.4 -5.3 5.3 -8.1 0.2 c-4.5 0.1 -8.2 0.3 -8.3 0.4 -1.1 1 -2.9 30.7 -2.7 44 0.2 16.9 6.3 30.7 13.6 30.7 3.5 0 10.2 -2.8 14.7 -6 1.5 -1.1 3.1 -2 3.4 -2 0.3 0 0.6 2 0.6 4.5 0 4.4 -0.2 4.6 -7.6 10.7 -8.4 7 -26.9 19.9 -32.4 22.8 -3 1.5 -4 1.6 -6.5 0.6z"/>
  <path d="M1183 659.7 c-4.9 -1.6 -12.7 -9.7 -15.5 -16.1 -9.1 -20.6 -7.9 -60.3 2.6 -82.2 4.8 -10.1 18.5 -21.7 36.1 -30.6 15.1 -7.7 28.9 -6.2 37.8 3.9 4.7 5.4 7.3 10.6 9.7 19.3 2.5 9.1 2.5 43.9 0 55 -2.6 11.3 -7.7 21.1 -14.9 28.7 -7.3 7.5 -21.1 17.1 -29.5 20.4 -6.7 2.6 -20.6 3.5 -26.3 1.6z m33 -15.9 c8.3 -5.6 11.3 -18.9 11.4 -48.8 0 -18.9 -0.3 -22.6 -2.3 -30.6 -4.9 -20 -15.2 -28.3 -24.5 -19.7 -7.7 7.1 -11.1 23.8 -10.3 50.8 0.9 29.2 6.3 45.2 16.7 49.4 3.8 1.5 5.4 1.3 9 -1.1z"/>
  <path d="M1484.1 620.9 c-0.6 -1.8 -1.1 -4 -1.1 -4.9 0 -1.4 -1.6 -2 -8.2 -3 -9 -1.5 -29.2 -1.9 -30.4 -0.8 -0.4 0.4 -0.9 3.1 -1.2 5.9 -0.4 4.7 -0.6 5 -1.8 3.4 -1 -1.3 -1.4 -5 -1.4 -11.5 l0 -9.7 4.8 -3 c4.7 -3.1 30.2 -24 30.2 -24.9 0 -0.2 -6.9 -0.4 -15.4 -0.4 l-15.5 0 -0.6 5.5 c-0.6 4.6 -1 5.3 -2.1 4.4 -1 -0.9 -1.4 -4.1 -1.4 -12.6 0 -11.9 0.8 -13.4 3.6 -6.8 1.4 3.5 2.9 3.9 20.9 5.2 4.4 0.3 8.9 0.6 10 0.8 1.1 0.2 4.4 0.4 7.3 0.4 l5.2 0.1 0 5.4 0 5.4 -15.1 11.9 c-8.4 6.5 -16 12.4 -17 13.2 -1.1 0.7 -1.9 1.7 -1.9 2.2 0 0.5 6.8 0.9 15 0.9 l15 0 0.1 -3.7 c0 -2.1 0.4 -4.7 0.8 -5.8 1.7 -4.3 3.1 2.1 3.1 13.9 0 11.7 -0.9 14.2 -2.9 8.5z"/>
  <path d="M1455.5 551.5 c-6.1 -2.2 -13 -10 -15 -17 -2.4 -8.2 -1.7 -21 1.3 -25.3 3.5 -4.9 5.8 -5 10.3 -0.6 2.1 2 3.6 4 3.4 4.4 -0.3 0.4 -2.5 1.3 -4.9 1.9 -8.2 2 -11.1 10 -6.3 17.2 6.1 9.3 25.5 10.7 33.3 2.4 5.3 -5.7 6 -12.5 2.5 -24.4 -0.6 -1.9 -0.8 -3.7 -0.5 -4 1.9 -1.9 7 12 8 21.4 1.6 15.5 -6.8 25.5 -21.6 25.4 -3.6 0 -8.3 -0.6 -10.5 -1.4z"/>
  <path d="M1099.3 511.4 c-2.2 -3.2 -5.9 -9.2 -8.2 -13.2 l-4.3 -7.3 2.5 -3.2 c1.4 -1.8 6 -7 10.3 -11.5 l7.9 -8.4 5.1 9.4 c2.8 5.1 6 10.7 7 12.5 l1.9 3.2 -5.7 8.3 c-3.2 4.6 -7.3 10.1 -9.1 12.2 l-3.4 4 -4 -6z"/>
  <path d="M1476.2 488.5 l-3.2 -4.5 4.2 -3 4.3 -3.1 2.7 3.3 c1.5 1.8 2.8 4 2.8 5 0 1.5 -5.3 6.8 -6.8 6.8 -0.4 -0.1 -2.2 -2.1 -4 -4.5z"/>
  <path d="M645.9 416.5 c-14.9 -7.7 -58.9 -20.4 -99.7 -29 l-7.3 -1.5 -18.9 6.5 c-55.3 18.8 -92.6 24 -121.7 17 -16.6 -4 -32.2 -14.5 -37.3 -25 -2.3 -4.8 -3.1 -13.3 -1.7 -18.7 l0.7 -2.8 -59 0 -59.1 0 0.3 -7.2 0.3 -7.3 64 -0.3 c49.3 -0.2 64.1 -0.5 64.4 -1.5 0.2 -0.7 2.1 -2.8 4.2 -4.8 9 -8.7 27.1 -9.3 37.7 -1.2 3.6 2.7 7.2 9.4 6.7 12.2 -0.2 0.9 -0.4 2.6 -0.4 3.9 -0.1 3.6 -8.8 11.6 -14.1 13.1 -9.5 2.6 -20.2 1.6 -26.5 -2.5 -2.4 -1.5 -2.5 -1.5 -2.6 0.2 0 1.1 -0.2 2.6 -0.4 3.5 -1 5.5 6.2 11.5 17.5 14.6 7.8 2.1 32.1 2.3 46.9 0.4 9.6 -1.2 39.9 -8.5 41.3 -9.9 0.5 -0.5 -9.1 -2.1 -21.3 -3.6 -12.2 -1.5 -22.6 -2.9 -23.1 -3.2 -0.4 -0.3 -0.8 -2 -0.8 -3.9 0 -4.1 3.9 -9.1 7.9 -10 3 -0.6 25.3 2.6 53.4 7.6 l16.7 3.1 11.7 -3.7 c7.7 -2.4 11.2 -4 10.3 -4.5 -2.5 -1.2 -22.2 -6 -39.4 -9.4 l-16.1 -3.3 -0.3 -3 c-0.5 -5.1 1.4 -5.8 12 -3.8 17.7 3.1 33.4 6.6 48.4 10.5 l15.2 3.9 15 -4.4 c37.8 -11 65.9 -14.7 93.7 -12.4 26.5 2.3 44.4 9.4 52.9 20.9 1.4 1.9 1.9 2.2 2.4 1 0.3 -0.8 2.7 -3.8 5.3 -6.6 19.6 -20.7 61.7 -18.7 78.1 3.6 l3 4 4.3 -4.8 c10.9 -12.1 33.5 -18.4 65.5 -18.4 26.8 0.1 48.9 3.9 83.4 14.4 l9.8 3 15.7 -4.1 c15.5 -4 31.5 -7.5 48.4 -10.6 10.1 -1.9 11.7 -1.3 11.7 4 l0 3.2 -7.2 1.2 c-9.8 1.6 -36.9 7.7 -44.3 9.9 l-6 1.9 11.8 3.8 11.8 3.8 20.7 -3.7 c27.8 -4.9 38.9 -6.6 45.7 -6.9 5.3 -0.2 5.9 0 8.6 3.1 3.2 3.5 4.1 9.8 1.5 10.8 -0.7 0.3 -11.1 1.7 -23.1 3.3 -12.1 1.5 -21.4 3.1 -20.8 3.4 2.2 1.3 31.7 8.5 40.3 9.8 11.5 1.8 38.8 1.8 46.6 0.1 11.4 -2.6 19.4 -8.6 19.4 -14.6 0 -4.3 -1.3 -4.8 -6.2 -2.6 -13.1 5.8 -29.4 2 -35.9 -8.3 -2.6 -4.1 -2.2 -12.1 0.8 -16.3 5.6 -7.8 20 -11.4 31.9 -7.9 4.7 1.3 6.9 2.7 10.5 6.6 l4.7 4.9 63.6 0 63.6 0 0 7.5 0 7.5 -58.9 0 -58.9 0 1 3.7 c0.6 2.1 0.7 6.2 0.4 9.2 -2.2 18.2 -21.7 31.6 -52 35.7 -26.9 3.7 -66.8 -3.5 -114.8 -20.7 l-13.7 -4.9 -23.8 5.5 c-42.4 9.9 -66.5 17.1 -82.1 24.7 -4.6 2.2 -8.5 3.8 -8.7 3.6 -0.3 -0.3 1.2 -3.1 3.3 -6.4 2.1 -3.2 4.1 -6.4 4.4 -7 0.4 -0.6 -2.1 -0.3 -6 0.7 -9.5 2.4 -18.6 3 -26.7 1.8 -18.1 -2.7 -30.8 -9.4 -37.6 -19.9 l-3.2 -4.9 -4.3 4.8 c-8.4 9.4 -20.2 14.7 -34.9 15.7 -16.2 1.2 -33.2 -5 -42.4 -15.3 l-5 -5.6 -1.1 2.7 c-1.6 4.2 -10.9 12.8 -17.3 15.9 -13.3 6.5 -33.2 8.7 -46.7 5.2 -3.4 -0.9 -6.6 -1.5 -7 -1.3 -0.5 0.2 0.9 3 3.1 6.3 5.8 8.8 5.6 9 -4.2 4z m-14.4 -15.1 c-6 -5 -25.3 -16.4 -38.7 -22.9 l-13.7 -6.7 -8.5 2.8 c-4.7 1.6 -8.6 3.1 -8.6 3.4 0 0.3 9.8 3.8 21.8 7.8 11.9 4 27.8 9.7 35.2 12.7 7.4 2.9 14 5.3 14.5 5.4 0.6 0 -0.3 -1.1 -2 -2.5z m276.1 -3.5 c8.7 -3.3 25.1 -9.1 36.4 -12.9 11.2 -3.8 19.8 -7.1 19 -7.4 -0.8 -0.3 -4.8 -1.7 -8.9 -3.1 l-7.4 -2.5 -10 4.5 c-12 5.4 -29.8 15.6 -39.3 22.5 -3.8 2.8 -6.6 5 -6.3 5 0.3 0 7.8 -2.7 16.5 -6.1z m-275.7 -7.6 c-0.5 -5 0.4 -7.6 3.6 -11.2 4.2 -4.6 8.6 -6.9 16.3 -8.3 10.8 -2 23.6 2.9 27.7 10.7 l1.9 3.4 4.6 -2.6 c8.8 -5 15.6 -13.3 14.2 -17.2 -4 -11.5 -34.2 -14.6 -69.7 -7.2 -9.4 2 -36.6 9 -37.4 9.7 -0.1 0.1 3.7 2.3 8.6 4.7 9.2 4.7 26 15.4 28.3 18.2 1.6 2 2.2 1.9 1.9 -0.2z m290.5 -17.4 c9.7 -5.1 9.9 -5.3 7 -6.1 -40.8 -11.7 -70.9 -15.5 -89 -11.3 -19.4 4.5 -20.5 14.3 -2.9 25.7 5.4 3.6 6.1 3.8 7 2.2 6.2 -10.7 20.2 -15.4 33.9 -11.4 7 1.9 14.3 9 15.2 14.7 l0.6 4.1 9.2 -6.3 c5 -3.4 13.6 -8.7 19 -11.6z m-145.8 14.6 c15.2 -6.3 19.1 -19.9 8.2 -29 -5.8 -4.9 -11.5 -6.8 -20.8 -6.9 -7.8 -0.1 -9.2 0.2 -15.3 3.2 -18.5 9.1 -15.4 27.8 5.6 33.7 6.3 1.8 16.8 1.3 22.3 -1z"/>
  <path d="M155.5 352.8 c0.4 -1.2 2.5 -16.9 5.6 -41.2 0.5 -4.3 0.8 -8 0.5 -8.3 -0.2 -0.2 -12.7 7.4 -27.8 17 -32.4 20.6 -41.7 24.7 -63.3 27.6 -32.3 4.4 -51.8 -15.7 -57 -58.6 -0.3 -2.6 -0.8 -6.4 -1.1 -8.3 -0.6 -4.1 -0.6 -38.5 0 -41.5 0.2 -1.1 0.7 -5.6 1.1 -10 2.6 -29 13.4 -65.3 27.1 -91 22.3 -41.9 50.1 -68.9 91.9 -89.5 50.8 -24.9 91.3 -25.5 103.3 -1.4 1.1 2.2 2.4 6.3 3 9 l0.9 5.1 -17.9 25.4 c-9.9 14 -18.2 26 -18.7 26.7 -0.5 0.9 -1.9 1.1 -4.8 0.6 l-4 -0.6 -0.7 -7.8 c-3.5 -42 -28.3 -59.3 -61.4 -42.6 -19 9.6 -35.9 28.7 -48.7 55.1 -22 45.4 -26.9 117 -10.4 151 15 31 40.7 38.3 78.8 22.4 5.5 -2.3 10.5 -4.7 11.1 -5.4 1.4 -1.7 1.7 -3.2 2.5 -15 0.4 -5.5 0.9 -10.7 1 -11.6 0.7 -3.6 2 -29.8 1.8 -36.3 -0.2 -7.7 -2.1 -11.4 -6.7 -13 -3.5 -1.3 -10.2 0.1 -31.7 6.8 -9.5 3 -17.5 5.3 -17.7 5.1 -0.2 -0.2 2.6 -4.2 6.2 -8.8 l6.6 -8.5 17.7 -7.7 c37.8 -16.5 69.2 -27.9 112.2 -41 10.1 -3 18.6 -5.4 18.8 -5.1 0.7 0.7 -7.5 10.2 -14.4 16.7 -5 4.6 -9.9 7.9 -16.6 11.1 l-9.4 4.6 -1.2 8.8 c-0.6 4.9 -3.1 24 -5.6 42.4 -2.4 18.4 -5.4 40.3 -6.5 48.5 l-2.1 15 -6.7 6.8 c-12 12.3 -53.5 48.7 -55.4 48.7 -0.4 0 -0.5 -0.6 -0.3 -1.2z"/>
  <path d="M1397.8 346.8 c-26.9 -2 -52.5 -20.8 -65.8 -48.3 -8.1 -16.7 -11.5 -30.3 -12.9 -51.5 -2.1 -31.8 2.2 -62.9 11.2 -80.7 3.1 -6 5.7 -8 15 -11.7 23.8 -9.4 51 -10.1 68.3 -1.6 8.6 4.2 18 14.4 23.3 25.2 4.2 8.4 9.1 25.4 9.1 31.3 0 3.2 -0.3 3.4 -6.2 5.4 -6.4 2.1 -22.4 6.1 -24.4 6.1 -0.7 0 -1.8 -4.6 -2.8 -11.1 -3.4 -21.7 -9.9 -36.9 -18.3 -42 -9.8 -6.1 -16.5 -3.1 -21.2 9.5 -5.4 14.6 -7.1 56.1 -3.1 77 7.1 36.7 25.5 60.7 51.5 67 8.3 2.1 25.5 3.4 34.3 2.7 l7.2 -0.6 -0.1 6.1 c-0.1 3.4 -0.5 6.7 -0.9 7.3 -0.9 1.5 -15.5 5.6 -29 8.1 -12.1 2.2 -22.8 2.8 -35.2 1.8z"/>
  <path d="M1176.6 266.9 c-3.9 -3.1 -7.8 -6.5 -8.8 -7.5 -1.6 -1.9 -5 -18.4 -6.3 -31.4 -0.4 -3.6 -0.9 -6.9 -1.2 -7.3 -0.2 -0.4 -2.8 0.6 -5.6 2.2 -13 7.2 -43 18.8 -62.6 24.1 l-8 2.2 -8.1 -2.7 c-7.4 -2.5 -8.4 -3.1 -11.8 -7.8 -9.1 -12.5 -15.3 -24.7 -18.8 -36.7 -1.5 -5.3 -1.8 -9.8 -1.7 -23.5 0.1 -30.8 5.9 -63.8 14 -80.3 3.5 -7.1 3.8 -7.4 10.2 -10.4 25.7 -11.8 75.9 -27.8 87.2 -27.8 12.1 0 35.1 7.1 55.4 17 13.8 6.8 33.5 18.4 33.5 19.9 0 0.4 -3.2 2.9 -7 5.6 -3.9 2.6 -7.5 5.5 -8 6.5 -0.9 1.7 -4.4 20.3 -5.4 29 -2.6 22.2 -3.3 52.2 -1.5 71 1.2 12.9 4.2 22.5 8.4 26.7 2.9 2.9 3.9 3.3 8.7 3.3 4.4 0 15.2 -1.9 32.1 -5.7 l2.8 -0.6 -0.3 7.8 -0.3 7.8 -9 3.9 c-27.1 11.9 -48.2 17.6 -72.8 19.7 l-8.1 0.7 -7 -5.7z m-29.6 -61.3 l12.5 -4.1 0.6 -7.5 c0.3 -4.1 0.9 -14 1.3 -22 0.4 -8 0.9 -15.8 1.1 -17.5 0.2 -1.6 0.7 -6.4 1 -10.5 0.9 -11.7 2.4 -25.8 3.6 -34.4 1 -7.5 0.9 -7.9 -1.2 -9.5 -6 -4.4 -15 -9.4 -22 -12.1 -22.1 -8.5 -31.9 -0.1 -37.1 31.5 -2.6 16.1 -3 48.7 -0.6 59 3.7 16.1 9.5 26.6 16.6 30.2 5.4 2.7 7.8 2.4 24.2 -3.1z"/>
  <path d="M590.4 219.9 c0.7 -5.6 3 -32.4 4.6 -53.9 0.5 -6.9 1.2 -15 1.4 -18 0.3 -3 0.8 -9.3 1.1 -14 0.3 -4.7 0.8 -10.5 1 -13 1 -11.8 2 -33.5 1.9 -42.5 -0.1 -12 -1.8 -16.8 -7.1 -19.3 -3.1 -1.5 -4.3 -1.5 -15.7 0.2 -6.8 0.9 -14.7 2.3 -17.5 3.1 l-5.1 1.3 0 -6.3 0 -6.3 18.3 -7.5 c23.5 -9.8 42.6 -16.9 66.4 -25 l19.2 -6.6 6.6 2.6 6.7 2.6 -0.7 18.1 c-0.3 9.9 -0.8 19.3 -1.1 20.8 -0.3 1.4 -0.1 2.9 0.5 3.2 0.5 0.4 6.8 -2.2 13.8 -5.8 25.8 -12.9 58 -26.1 87.7 -36.1 l16.9 -5.6 5.4 2.6 c2.9 1.5 5.9 3.3 6.7 4 1.4 1.5 1.3 10.9 -0.3 30 -0.4 5 -0.7 9.1 -0.6 9.2 0.1 0.3 29.7 -10.3 56.5 -20.1 23.8 -8.8 54.2 -17.1 58.7 -16 4.1 1 8.4 3.3 11.4 6.1 2.6 2.4 2.6 2.5 2.2 14.6 -0.2 6.7 -1.5 23.5 -2.8 37.2 -5.7 59.6 -5.2 77.3 2.8 90.6 1.8 2.9 4.7 6.2 6.6 7.3 3 1.7 4 1.8 10.5 0.8 5.8 -0.9 31.8 -7.8 37.2 -9.9 1.1 -0.4 1.4 0.9 1.4 6.4 l0 7 -9.7 4.6 c-25.5 11.9 -48 21.8 -72.6 31.8 l-17.2 7 -8.5 -2.2 c-10.1 -2.7 -12.4 -4.8 -17.4 -15.3 -7.4 -15.6 -8.6 -28 -5.2 -56.4 1.9 -15.6 4.8 -52.4 4.9 -62.2 0.2 -12.7 -1.2 -17.5 -6.5 -21.3 -3.3 -2.5 -13.6 -2.6 -22.5 -0.3 -6.9 1.8 -29.2 10.1 -30.4 11.3 -0.4 0.4 -2.4 16.8 -4.3 36.3 -3.9 39 -3.9 38.7 -6.1 64.5 -0.9 9.9 -1.8 19.1 -2 20.5 -0.2 1.4 -0.4 3.3 -0.4 4.2 -0.1 1.2 -2.1 2.3 -7.2 3.8 -10.2 3.1 -26.4 6.6 -40.4 8.9 -17.7 3 -18 3 -17.9 0.6 0.1 -1.1 0.4 -9.6 0.8 -19 0.4 -9.3 0.9 -17.9 1.1 -19 0.2 -1.1 0.6 -5.1 0.9 -9 0.3 -3.8 1 -12.2 1.6 -18.5 0.5 -6.3 1.4 -17.8 2 -25.5 0.6 -7.7 1.8 -19.6 2.6 -26.5 3.4 -28.2 0.9 -39 -9.1 -39 -9.6 0 -33.1 8 -46.5 15.8 l-6.5 3.8 -1.1 10 c-0.6 5.4 -1.4 12.8 -1.8 16.4 -0.4 3.6 -0.9 8.1 -1.1 10 -0.2 1.9 -0.7 7.1 -1 11.5 -1 14.8 -1.6 20.9 -4 42.5 -2.8 25.1 -4 33.9 -4.6 34.4 -2.7 2.3 -50.4 17.2 -61.3 19.2 l-3.9 0.7 0.7 -5.4z"/>
  <path d="M337.1 182.3 c0 -0.5 4.9 -13.2 10.7 -28.3 l10.7 -27.5 11.5 -2.3 c34.2 -6.7 109.5 -19 110.5 -18 0.7 0.7 -20.2 51.7 -21.9 53.5 -0.6 0.7 -10.8 2.9 -22.6 4.8 -23.1 3.9 -73.9 13.4 -88.5 16.5 -10 2.2 -10.5 2.3 -10.4 1.3z"/>
 </g>
</svg>