<?xml version="1.0" encoding="UTF-8"?>
<!-- Generated by Pixelmator Pro 3.6.16 -->
<svg width="3113" height="2280" viewBox="0 0 3113 2280" xmlns="http://www.w3.org/2000/svg">
    <path id="Path" fill="#1c2846" stroke="none" d="M 1949.436523 843.302979 C 1980.868408 783.389282 2004.292236 719.096558 2013.458252 656.220459 C 2018.945557 618.572388 2022.112061 580.58667 2023.836914 542.367798 C 2029.378418 419.419678 2019.453857 293.97583 2019.453857 168.957031 C 2019.453857 168.957031 2019.453857 168.957031 2019.453857 168.957031 L 2019.453857 168.957031 L 1536.631836 0.611084 L 1015.803223 171.198486 L 1015.803223 171.202637 C 1015.803223 171.202637 1015.803223 171.202637 1015.803223 171.202637 C 1015.803223 242.52417 1013.532471 313.595703 1012.807495 384.308838 C 1012.082642 455.022095 1012.89917 525.372803 1019.069824 595.248535 C 1023.227905 642.350342 1031.79834 691.197876 1045.418457 738.137329 C 1047.805908 746.370239 1050.318237 754.553101 1053.022217 762.64856 C 1053.213867 763.21936 1053.384766 763.798584 1053.580566 764.373535 C 1064.66748 797.213501 1078.41687 828.724487 1095.095215 857.564697 C 1095.253418 857.835571 1095.420166 858.102173 1095.574341 858.377197 C 1098.33667 863.139526 1101.132446 867.880859 1103.969727 872.584839 C 1105.569702 875.243042 1107.211304 877.86377 1108.836182 880.501099 C 1110.227783 882.759399 1111.602661 885.03418 1113.006836 887.275757 C 1115.327515 890.971436 1117.689941 894.629639 1120.052246 898.28772 C 1120.768921 899.391846 1121.468872 900.516846 1122.189697 901.620972 C 1125.127075 906.120728 1128.101929 910.587158 1131.105957 915.028564 C 1131.243408 915.228638 1131.376709 915.432739 1131.510132 915.63269 C 1220.522339 1047.05957 1339.216431 1152.512695 1478.709595 1232.679688 L 1478.663818 1232.679688 L 1479.672119 1233.237915 C 1485.734375 1236.712769 1491.825684 1240.158447 1497.967041 1243.541626 C 1497.975342 1243.545776 1497.979492 1243.549927 1497.987915 1243.554077 C 1497.987915 1243.554077 1497.992065 1243.554077 1497.992065 1243.554077 C 1498.708618 1243.949951 1499.512817 1244.287354 1500.283569 1244.645752 L 1542.927368 1268.25293 C 1542.927368 1268.25293 1580.417114 1237.97522 1580.662964 1237.762695 C 1620.448486 1203.339478 1661.333984 1169.57019 1701.298706 1134.980225 L 1703.665283 1132.98877 L 1703.569458 1132.98877 C 1758.645874 1085.228516 1811.855835 1035.80603 1857.69104 980.658691 C 1858.38269 979.82959 1859.061768 978.996338 1859.745117 978.167114 C 1864.624023 972.246582 1869.44873 966.280273 1874.148438 960.226318 C 1874.165283 960.205566 1874.181885 960.188843 1874.194336 960.168091 C 1896.897461 930.919434 1918.383789 898.887695 1937.495361 865.185181 C 1938.882813 862.735352 1940.249512 860.2771 1941.611816 857.814697 C 1944.265869 853.006592 1946.882568 848.173584 1949.436523 843.302979"/>
    <path id="path1" fill="#fffffe" stroke="none" d="M 1533.396118 1175.866211 C 1339.226563 1059.938599 1178.813599 924.274414 1109.246094 713.193115 C 1083.718262 635.734375 1095.750977 545.442993 1093.430298 460.930542 C 1091.322021 384.067627 1092.984497 307.100586 1092.984497 225.287842 C 1238.802246 178.019531 1381.403564 131.79248 1533.396118 82.52002 Z"/>
    <path id="path2" fill="#0d0f0d" stroke="none" d="M 7.415741 1967.038574 L 3112.367432 1967.038574 L 3112.367432 1920.02417 L 7.415741 1920.02417 Z"/>
    <path id="path3" fill="#1a1919" stroke="none" d="M 1045.948486 1701.839844 L 1010.675171 1604.373901 L 1009.766846 1604.373901 L 972.985352 1701.839844 Z M 967.431519 1502.545532 L 1051.173218 1502.545532 L 1173.600464 1818.192505 L 1093.921021 1818.192505 L 1077.530273 1768.549072 L 941.94519 1768.549072 L 925.558472 1818.192505 L 847.745728 1818.192505 Z"/>
    <path id="path4" fill="#1a1919" stroke="none" d="M 2527.019043 1701.839844 L 2491.745605 1604.373901 L 2490.837402 1604.373901 L 2454.055908 1701.839844 Z M 2448.501953 1502.545532 L 2532.243652 1502.545532 L 2654.670898 1818.192505 L 2574.991699 1818.192505 L 2558.60083 1768.549072 L 2423.015625 1768.549072 L 2406.62915 1818.192505 L 2328.816162 1818.192505 Z"/>
    <path id="path5" fill="#1a1919" stroke="none" d="M 1777.228271 1744.602051 L 1829.475708 1744.602051 C 1846.545776 1744.602051 1860.986694 1742.414551 1872.765381 1738.07312 C 1884.539795 1733.731689 1894.105957 1727.765381 1901.438965 1720.174072 C 1908.776123 1712.549316 1914.071533 1703.666504 1917.321533 1693.487793 C 1920.550537 1683.280029 1922.179443 1672.376343 1922.179443 1660.672852 C 1922.179443 1649.006592 1920.550537 1638.069702 1917.321533 1627.891113 C 1914.071533 1617.716553 1908.776123 1608.83374 1901.438965 1601.208984 C 1894.105957 1593.617676 1884.456299 1587.651367 1872.515381 1583.309814 C 1860.549194 1578.968506 1846.045776 1576.781006 1828.97583 1576.781006 L 1777.228271 1576.781006 Z M 1705.981812 1502.542969 L 1828.634155 1502.542969 C 1852.628784 1502.542969 1874.548584 1505.509521 1894.401611 1511.438477 C 1914.254883 1517.36731 1931.291504 1526.691895 1945.503418 1539.42041 C 1959.731934 1552.144775 1970.689697 1568.523193 1978.393311 1588.513794 C 1986.097168 1608.504517 1989.951172 1632.544922 1989.951172 1660.672852 C 1989.951172 1688.833862 1986.097168 1712.87439 1978.393311 1732.869141 C 1970.689697 1752.859863 1959.731934 1769.238281 1945.503418 1781.962646 C 1931.291504 1794.687012 1914.254883 1804.015747 1894.401611 1809.94458 C 1874.548584 1815.873535 1852.628784 1818.835815 1828.634155 1818.835815 L 1705.981812 1818.835815 Z"/>
    <path id="path6" fill="#1a1919" stroke="none" d="M 2129.015625 1502.544678 L 2203.445313 1502.544678 L 2203.445313 1818.19165 L 2129.015625 1818.19165 Z"/>
    <path id="path7" fill="#1a1919" stroke="none" d="M 2779.621094 1502.544312 L 2846.592773 1502.544312 L 2995.289795 1678.69397 L 2996.248047 1678.69397 L 2996.248047 1502.544312 L 3068.702637 1502.544312 L 3068.702637 1818.191284 L 3007.76001 1818.191284 L 2855.675781 1638.066772 L 2854.717529 1638.066772 L 2854.717529 1818.191284 L 2779.621094 1818.191284 Z"/>
    <path id="path8" fill="#1a1919" stroke="none" d="M 249.753815 1636.413574 L 242.924988 1636.413574 L 163.391388 1636.413574 L 163.391388 1697.893799 L 242.924988 1697.893799 L 242.924988 1700.056274 C 228.059052 1729.046509 198.21051 1749.091309 163.391388 1749.091309 C 113.848022 1749.091309 73.687485 1708.930786 73.687485 1659.387451 C 73.687485 1609.843994 113.848022 1569.683472 163.391388 1569.683472 C 191.127533 1569.683472 215.576324 1582.503662 231.929688 1602.319336 L 292.847534 1561.713135 C 263.136505 1522.406616 216.459625 1496.624512 163.391388 1496.624512 C 73.499985 1496.624512 0.628571 1569.495972 0.628571 1659.387451 C 0.628571 1749.278809 73.499985 1822.150269 163.391388 1822.150269 C 192.439972 1822.150269 219.31781 1813.913086 242.924988 1800.576294 L 242.924988 1814.167236 L 311.359131 1814.167236 L 311.359131 1726.438232 L 311.359131 1636.413574 Z"/>
    <path id="path9" fill="#1a1919" stroke="none" d="M 651.728638 1502.544312 L 651.728638 1567.536865 L 651.728638 1643.641602 L 651.728638 1673.260986 C 651.728638 1688.247681 653.861877 1702.084473 646.245605 1715.879639 C 639.004272 1728.999756 624.692505 1738.674316 610.947327 1744.036621 C 582.419556 1755.165283 545.454712 1745.419922 524.855713 1722.870972 C 516.060303 1713.238037 513.672913 1701.676147 513.068787 1689.664307 L 513.068787 1662.523926 L 513.068787 1606.38501 L 513.068787 1502.544312 L 438.784973 1502.544312 L 438.784973 1696.593018 C 438.784973 1716.946289 443.247253 1737.370239 452.192627 1751.594482 C 462.658752 1768.2771 473.095764 1782.917969 489.711609 1793.91748 C 516.66864 1811.770752 551.021118 1817.820435 582.927856 1817.820435 C 599.21875 1817.820435 615.976257 1815.778809 633.221252 1811.762451 C 686.414429 1799.375488 727.554077 1752.26123 727.554077 1696.593018 L 727.554077 1502.544312 Z"/>
    <path id="path10" fill="#1a1919" stroke="none" d="M 1371.385376 1570.612549 L 1449.931519 1570.612549 C 1463.734985 1570.900146 1474.834473 1574.366577 1483.188232 1581.037109 C 1491.53772 1587.678467 1495.716797 1598.394531 1495.716797 1613.185547 C 1495.716797 1627.943115 1491.53772 1638.655029 1483.188232 1645.292236 C 1474.834473 1651.966919 1463.734985 1655.433472 1449.931519 1655.720947 L 1371.385376 1655.720947 Z M 1480.467529 1818.192139 L 1574.666992 1818.192139 L 1503.008057 1720.896973 C 1568.05481 1701.2854 1587.328857 1610.473145 1559.238647 1555.709229 C 1553.801392 1545.109619 1546.476685 1535.439331 1537.297974 1527.798096 C 1517.065674 1510.948853 1489.375366 1502.545166 1454.206299 1502.545166 L 1297.701416 1502.545166 L 1297.701416 1818.192139 L 1371.385376 1818.192139 L 1371.385376 1733.058838 L 1426.561768 1733.058838 Z"/>
    <path id="path11" fill="#1a1919" stroke="none" d="M 69.050629 2115.540039 C 80.962524 2115.540039 93.032776 2113.594238 93.032776 2135.630615 C 93.032776 2152.646484 88.09552 2156.992188 81.43335 2157.933838 L 69.050629 2157.933838 Z M 127.785248 2204.060547 C 127.556091 2201.210693 127.160278 2198.385986 126.485291 2195.635986 C 123.681274 2184.228271 115.61499 2176.716064 101.786499 2173.470459 C 119.039825 2168.25 127.664398 2158.250488 127.664398 2143.476074 L 127.664398 2120.644043 C 127.664398 2108.965332 123.310455 2100.428223 114.594208 2095.028564 C 105.877991 2089.632813 95.63681 2086.933105 83.866577 2086.933105 L 32.239929 2086.933105 L 32.239929 2277.26123 L 74.046219 2277.26123 L 74.046219 2194.077881 C 82.720795 2194.077881 87.053894 2197.306885 87.053894 2203.764893 C 87.053894 2204.123047 86.653931 2245.437744 87.053894 2251.18335 L 87.053894 2277.527832 L 93.157776 2277.527832 L 127.681061 2277.527832 L 127.681061 2246.679443 C 127.681061 2237.800537 127.981049 2228.926025 128.022736 2220.047363 C 128.043549 2214.797607 128.206055 2209.381104 127.785248 2204.060547"/>
    <path id="path12" fill="#1a1919" stroke="none" d="M 239.155182 2246.734863 L 239.155182 2117.062012 C 239.155182 2113.258057 236.896942 2111.358154 232.384674 2111.358154 C 227.697418 2111.358154 225.351685 2113.258057 225.351685 2117.062012 L 225.351685 2246.734863 C 225.351685 2250.538818 227.697418 2252.442871 232.384674 2252.442871 C 236.896942 2252.442871 239.155182 2250.538818 239.155182 2246.734863 M 184.603699 2244.743164 L 184.603699 2122.240967 C 184.603699 2097.554688 200.598755 2085.209473 232.584656 2085.209473 C 264.128937 2085.209473 279.903168 2097.462891 279.903168 2121.974121 L 279.903168 2244.476563 C 279.903168 2255.538574 275.499237 2264.054688 266.716309 2270.029541 C 257.925079 2276 246.454834 2278.987305 232.318024 2278.987305 C 200.511261 2278.987305 184.603699 2267.571289 184.603699 2244.743164"/>
    <path id="path13" fill="#1a1919" stroke="none" d="M 390.59314 2246.734863 L 390.59314 2117.062012 C 390.59314 2113.258057 388.3349 2111.358154 383.822632 2111.358154 C 379.135376 2111.358154 376.789673 2113.258057 376.789673 2117.062012 L 376.789673 2246.734863 C 376.789673 2250.538818 379.135376 2252.442871 383.822632 2252.442871 C 388.3349 2252.442871 390.59314 2250.538818 390.59314 2246.734863 M 336.041687 2244.743164 L 336.041687 2122.240967 C 336.041687 2097.554688 352.036743 2085.209473 384.022644 2085.209473 C 415.566895 2085.209473 431.341125 2097.462891 431.341125 2121.974121 L 431.341125 2244.476563 C 431.341125 2255.538574 426.937195 2264.054688 418.154297 2270.029541 C 409.363037 2276 397.892761 2278.987305 383.755981 2278.987305 C 351.949219 2278.987305 336.041687 2267.571289 336.041687 2244.743164"/>
    <path id="path14" fill="#1a1919" stroke="none" d="M 574.276611 2119.640137 L 533.199463 2119.640137 L 533.199463 2154.900879 L 570.426819 2154.900879 L 570.426819 2185.945313 L 533.199463 2185.945313 L 533.199463 2277.261719 L 492.122314 2277.261719 L 492.122314 2086.933594 L 574.276611 2086.933594 Z"/>
    <path id="path15" fill="#1a1919" stroke="none" d="M 656.958801 2277.260742 L 624.572876 2277.260742 L 624.572876 2086.936768 L 656.958801 2086.936768 Z"/>
    <path id="path16" fill="#1a1919" stroke="none" d="M 1835.873779 2201.077393 L 1873.834473 2201.077393 L 1873.834473 2244.741943 C 1873.834473 2249.079346 1876.463379 2251.24585 1881.729736 2251.24585 C 1886.817139 2251.24585 1889.362793 2249.079346 1889.362793 2244.741943 L 1889.362793 2222.180664 C 1889.362793 2215.281006 1884.758789 2207.181396 1875.559326 2197.890137 C 1857.772705 2180.636719 1846.714844 2169.045654 1842.377563 2163.116699 C 1838.040283 2157.192139 1835.873779 2150.688232 1835.873779 2143.609375 L 1835.873779 2122.239746 C 1835.873779 2097.553467 1851.997925 2085.208252 1884.250488 2085.208252 C 1913.140869 2085.208252 1927.585938 2096.445068 1927.585938 2118.923096 L 1927.585938 2151.838135 L 1889.625244 2151.838135 L 1889.625244 2116.79834 C 1889.625244 2112.994385 1887.504639 2111.090332 1883.267334 2111.090332 C 1878.300781 2111.090332 1875.821777 2114.760742 1875.821777 2122.106445 L 1876.621826 2134.45166 C 1876.621826 2141.530273 1881.321533 2149.759277 1890.720947 2159.137939 C 1908.195313 2175.85791 1919.311279 2187.540527 1924.048584 2194.177734 C 1928.80249 2200.810791 1931.169189 2208.331299 1931.169189 2216.739258 L 1931.169189 2241.025391 C 1931.169189 2266.33252 1914.999023 2278.986084 1882.658936 2278.986084 C 1851.468872 2278.986084 1835.873779 2267.482422 1835.873779 2244.479492 Z"/>
    <path id="path17" fill="#1a1919" stroke="none" d="M 2063.525146 2121.129639 L 2040.163818 2121.129639 L 2040.163818 2277.259521 L 1998.357422 2277.259521 L 1998.357422 2121.129639 L 1975.000244 2121.129639 L 1975.000244 2086.935547 L 2063.525146 2086.935547 Z"/>
    <path id="path18" fill="#1a1919" stroke="none" d="M 2654.673096 2121.129639 L 2631.311768 2121.129639 L 2631.311768 2277.259521 L 2589.505371 2277.259521 L 2589.505371 2121.129639 L 2566.148193 2121.129639 L 2566.148193 2086.935547 L 2654.673096 2086.935547 Z"/>
    <path id="path19" fill="#1a1919" stroke="none" d="M 2742.723145 2277.260742 L 2700.916504 2277.260742 L 2700.916504 2086.936768 L 2742.723145 2086.936768 Z"/>
    <path id="path20" fill="#1a1919" stroke="none" d="M 2856.301514 2246.734863 L 2856.301514 2117.062012 C 2856.301514 2113.258057 2854.043213 2111.358154 2849.531006 2111.358154 C 2844.84375 2111.358154 2842.498047 2113.258057 2842.498047 2117.062012 L 2842.498047 2246.734863 C 2842.498047 2250.538818 2844.84375 2252.442871 2849.531006 2252.442871 C 2854.043213 2252.442871 2856.301514 2250.538818 2856.301514 2246.734863 M 2801.75 2244.743164 L 2801.75 2122.240967 C 2801.75 2097.554688 2817.745117 2085.209473 2849.730957 2085.209473 C 2881.275391 2085.209473 2897.049561 2097.462891 2897.049561 2121.974121 L 2897.049561 2244.476563 C 2897.049561 2255.538574 2892.645508 2264.054688 2883.862549 2270.029541 C 2875.071533 2276 2863.601074 2278.987305 2849.464355 2278.987305 C 2817.657471 2278.987305 2801.75 2267.571289 2801.75 2244.743164"/>
    <path id="path21" fill="#1a1919" stroke="none" d="M 787.24823 2086.934814 L 787.24823 2182.09668 L 758.445496 2086.934814 L 723.397217 2086.934814 L 723.397217 2277.258789 L 758.303833 2277.258789 L 758.303833 2192.70459 L 783.269287 2277.258789 L 784.040039 2277.258789 L 795.28949 2277.258789 L 822.154846 2277.258789 L 822.154846 2086.934814 Z"/>
    <path id="path22" fill="#1a1919" stroke="none" d="M 3018.846436 2086.934814 L 3018.846436 2182.09668 L 2990.043701 2086.934814 L 2954.995361 2086.934814 L 2954.995361 2277.258789 L 2989.9021 2277.258789 L 2989.9021 2192.70459 L 3014.867432 2277.258789 L 3015.638184 2277.258789 L 3026.887695 2277.258789 L 3053.753174 2277.258789 L 3053.753174 2086.934814 Z"/>
    <path id="path23" fill="#1a1919" stroke="none" d="M 1736.693604 2086.934814 L 1736.693604 2182.09668 L 1707.890869 2086.934814 L 1672.842651 2086.934814 L 1672.842651 2277.258789 L 1707.749268 2277.258789 L 1707.749268 2192.70459 L 1732.714722 2277.258789 L 1733.485474 2277.258789 L 1744.734863 2277.258789 L 1771.60022 2277.258789 L 1771.60022 2086.934814 Z"/>
    <path id="path24" fill="#1a1919" stroke="none" d="M 913.400391 2244.479004 C 913.400391 2245.270752 913.921143 2245.670654 914.187866 2246.258057 C 913.746216 2245.029053 913.429565 2243.733398 913.400391 2242.358398 Z"/>
    <path id="path25" fill="#1a1919" stroke="none" d="M 915.031982 2247.986816 C 914.965332 2247.865967 914.865234 2247.770264 914.798584 2247.645264 C 914.902832 2247.736816 914.915283 2247.903564 915.031982 2247.986816"/>
    <path id="path26" fill="#1a1919" stroke="none" d="M 938.137451 2244.39624 L 938.137451 2242.113037 C 938.137451 2243.100342 937.791626 2243.971191 937.574951 2244.887695 C 937.675049 2244.712891 938.137451 2244.58374 938.137451 2244.39624"/>
    <path id="path27" fill="#1a1919" stroke="none" d="M 973.330811 2154.226318 L 973.330811 2118.919922 C 973.330811 2096.445801 958.377319 2085.208984 928.470459 2085.208984 C 896.967896 2085.208984 876.531372 2097.554199 876.531372 2122.240479 L 876.531372 2246.467773 C 876.531372 2257.792236 884.960083 2266.045898 892.434692 2271.220703 C 899.913574 2276.395508 908.650635 2278.987061 918.645996 2278.987061 C 925.353882 2278.987061 933.274414 2279.386963 939.707397 2277.04126 C 943.273926 2275.737061 945.88623 2273.387207 948.152832 2270.37915 C 948.886108 2269.395752 953.835938 2262.437744 953.198364 2261.441895 C 956.473267 2266.533447 959.239746 2271.970703 962.189575 2277.261963 L 971.051758 2277.261963 L 971.051758 2171.483887 L 929.645386 2171.400635 L 929.645386 2195.536865 L 938.136597 2195.536865 L 938.136597 2242.11377 L 938.136597 2244.396973 C 938.136597 2244.584473 937.674194 2244.713623 937.574219 2244.888672 C 936.286743 2250.35498 931.603638 2254.509033 925.745605 2254.509033 C 921.06665 2254.509033 917.141846 2251.813232 915.033569 2247.988525 C 914.916992 2247.900879 914.900269 2247.738525 914.800293 2247.642578 C 914.567017 2247.188477 914.362793 2246.746826 914.187866 2246.259277 C 913.921143 2245.671875 913.400391 2245.271973 913.400391 2244.480225 L 913.400391 2242.355469 C 913.400391 2242.271973 913.350342 2242.197021 913.350342 2242.11377 C 913.350342 2242.030518 913.400391 2241.955566 913.400391 2241.87207 L 913.400391 2125.494629 C 913.400391 2125.373779 913.350342 2124.969482 913.350342 2124.807129 C 913.350342 2118.778076 919.637573 2113.890869 925.666382 2113.890869 C 931.695313 2113.890869 938.111694 2118.778076 938.111694 2124.807129 C 938.111694 2124.936279 938.299194 2125.356934 938.299194 2125.494629 L 938.299194 2154.226318 Z"/>
    <path id="path28" fill="#1a1919" stroke="none" d="M 913.400391 2242.356689 L 913.400391 2241.873291 C 913.39624 2241.956787 913.350342 2242.027588 913.350342 2242.11499 C 913.350342 2242.198242 913.39624 2242.273438 913.400391 2242.356689"/>
    <path id="path29" fill="#1a1919" stroke="none" d="M 914.799927 2247.644287 C 914.429077 2247.306885 914.399902 2246.715332 914.187378 2246.260986 C 914.362427 2246.748535 914.566528 2247.190186 914.799927 2247.644287"/>
    <path id="path30" fill="#1a1919" stroke="none" d="M 1417.711426 2182.269287 C 1417.711426 2183.060791 1418.232178 2183.460938 1418.498901 2184.04834 C 1418.057251 2182.819092 1417.740601 2181.523438 1417.711426 2180.148438 Z"/>
    <path id="path31" fill="#1a1919" stroke="none" d="M 1418.221802 2182.269287 C 1418.155151 2182.148438 1418.055176 2182.05249 1417.988525 2181.92749 C 1418.092651 2182.019287 1418.105103 2182.185791 1418.221802 2182.269287"/>
    <path id="path32" fill="#1a1919" stroke="none" d="M 1424.673096 2121.619141 C 1424.63147 2121.606689 1424.63147 2121.581787 1424.589844 2121.569336 C 1424.614868 2121.585938 1424.644043 2121.602539 1424.673096 2121.619141"/>
    <path id="path33" fill="#1a1919" stroke="none" d="M 1418.026367 2248.101807 C 1415.030762 2248.101807 1412.19751 2246.847656 1410.001831 2244.8479 C 1407.156128 2242.252197 1405.585327 2239.144043 1405.681152 2235.23584 C 1405.681152 2235.23584 1405.681152 2131.178467 1405.631226 2130.478516 C 1405.631226 2124.345459 1411.918335 2119.366455 1417.947266 2119.366455 C 1420.259644 2119.366455 1422.534546 2120.278809 1424.588623 2121.566406 C 1424.630249 2121.578857 1424.634399 2121.60791 1424.671875 2121.620605 C 1427.925903 2123.695313 1430.463257 2127.003662 1430.579956 2131.178467 L 1430.579956 2152.848145 L 1430.509155 2161.868652 L 1467.9198 2161.868652 L 1467.9198 2118.920654 C 1467.9198 2096.446777 1452.228882 2085.209717 1420.847046 2085.209717 C 1385.811279 2085.209717 1368.291382 2097.550781 1368.291382 2122.237061 L 1368.291382 2244.743652 C 1368.291382 2267.571777 1385.811279 2278.983643 1420.847046 2278.983643 C 1432.975708 2278.983643 1443.854248 2276.262939 1453.483032 2270.825684 C 1463.107544 2265.380127 1467.9198 2258.147217 1467.9198 2249.122559 L 1467.9198 2195.487793 L 1430.246582 2195.487793 L 1429.85498 2238.310547 C 1428.567505 2243.872803 1423.884399 2248.101807 1418.026367 2248.101807"/>
    <path id="path34" fill="#1a1919" stroke="none" d="M 2477.480957 2121.619141 C 2477.439209 2121.606689 2477.439209 2121.581787 2477.397705 2121.569336 C 2477.422607 2121.585938 2477.451904 2121.602539 2477.480957 2121.619141"/>
    <path id="path35" fill="#1a1919" stroke="none" d="M 2470.83374 2248.101807 C 2467.838135 2248.101807 2465.004883 2246.847656 2462.809082 2244.8479 C 2459.963623 2242.252197 2458.392822 2239.144043 2458.488525 2235.23584 C 2458.488525 2235.23584 2458.488525 2131.178467 2458.438477 2130.478516 C 2458.438477 2124.345459 2464.72583 2119.366455 2470.754639 2119.366455 C 2473.067139 2119.366455 2475.341797 2120.278809 2477.395996 2121.566406 C 2477.437744 2121.578857 2477.441895 2121.60791 2477.479248 2121.620605 C 2480.733398 2123.695313 2483.270752 2127.003662 2483.387451 2131.178467 L 2483.387451 2152.848145 L 2483.316406 2161.868652 L 2520.727295 2161.868652 L 2520.727295 2118.920654 C 2520.727295 2096.446777 2505.036377 2085.209717 2473.654541 2085.209717 C 2438.618652 2085.209717 2421.098633 2097.550781 2421.098633 2122.237061 L 2421.098633 2244.743652 C 2421.098633 2267.571777 2438.618652 2278.983643 2473.654541 2278.983643 C 2485.782959 2278.983643 2496.661621 2276.262939 2506.290283 2270.825684 C 2515.914795 2265.380127 2520.727295 2258.147217 2520.727295 2249.122559 L 2520.727295 2195.487793 L 2483.053955 2195.487793 L 2482.662354 2238.310547 C 2481.375 2243.872803 2476.691895 2248.101807 2470.83374 2248.101807"/>
    <path id="path36" fill="#1a1919" stroke="none" d="M 1418.130493 2182.340332 L 1418.130493 2181.857178 C 1418.130493 2181.94043 1418.080566 2182.01123 1418.080566 2182.098877 C 1418.080566 2182.182129 1418.130493 2182.25708 1418.130493 2182.340332"/>
    <path id="path37" fill="#1a1919" stroke="none" d="M 1418.411377 2182.790527 C 1418.040527 2182.452881 1418.011353 2181.861328 1417.79895 2181.407227 C 1417.973877 2181.894531 1418.178101 2182.336182 1418.411377 2182.790527"/>
    <path id="path38" fill="#1a1919" stroke="none" d="M 1573.422119 2246.734863 L 1573.422119 2117.062012 C 1573.422119 2113.258057 1571.163818 2111.358154 1566.651611 2111.358154 C 1561.964355 2111.358154 1559.618652 2113.258057 1559.618652 2117.062012 L 1559.618652 2246.734863 C 1559.618652 2250.538818 1561.964355 2252.442871 1566.651611 2252.442871 C 1571.163818 2252.442871 1573.422119 2250.538818 1573.422119 2246.734863 M 1518.870605 2244.743164 L 1518.870605 2122.240967 C 1518.870605 2097.554688 1534.865601 2085.209473 1566.851563 2085.209473 C 1598.395874 2085.209473 1614.170044 2097.462891 1614.170044 2121.974121 L 1614.170044 2244.476563 C 1614.170044 2255.538574 1609.766113 2264.054688 1600.983276 2270.029541 C 1592.192017 2276 1580.72168 2278.987305 1566.584961 2278.987305 C 1534.778198 2278.987305 1518.870605 2267.571289 1518.870605 2244.743164"/>
    <path id="path39" fill="#1a1919" stroke="none" d="M 2330.435791 2086.934814 L 2330.435791 2229.202637 C 2330.435791 2238.389893 2322.986084 2245.839355 2313.794922 2245.839355 C 2304.60791 2245.839355 2297.158203 2238.389893 2297.158203 2229.202637 L 2297.158203 2086.934814 L 2265.018066 2086.934814 L 2265.018066 2244.743652 C 2265.018066 2256.776367 2269.86377 2265.492676 2279.554932 2270.888184 C 2289.241943 2276.287842 2300.678711 2278.983643 2313.861572 2278.983643 C 2328.11084 2278.983643 2339.789307 2275.979492 2348.901367 2269.958984 C 2358.017578 2263.942627 2362.571533 2255.451416 2362.571533 2244.477051 L 2362.571533 2086.934814 Z"/>
    <path id="path40" fill="#1a1919" stroke="none" d="M 1176.804443 2149.918213 L 1183.416626 2142.622803 C 1188.295654 2137.177246 1190.745483 2131.765137 1190.745483 2126.415283 C 1190.745483 2121.907227 1189.562256 2118.049072 1187.21228 2114.874268 C 1184.862427 2111.695313 1181.683472 2110.074463 1177.679443 2110.074463 C 1173.787964 2110.074463 1170.74231 2111.503418 1168.521606 2114.291016 C 1166.317505 2117.111572 1165.213379 2120.353027 1165.213379 2124.015381 C 1165.213379 2128.390137 1167.079956 2133.67749 1170.792236 2139.868896 Z M 1167.22583 2188.203857 C 1161.584473 2192.324463 1157.36792 2197.249268 1154.580566 2203.019775 C 1151.809937 2208.82373 1150.414185 2214.723389 1150.414185 2220.752441 C 1150.414185 2228.372803 1152.134888 2234.597412 1155.584717 2239.393066 C 1159.038696 2244.226074 1163.676025 2246.625977 1169.49231 2246.625977 C 1173.321289 2246.625977 1177.000366 2245.521973 1180.550171 2243.351318 C 1184.099976 2241.17627 1187.95813 2237.580566 1192.137085 2232.555908 Z M 1243.442871 2249.996826 L 1228.643677 2277.261963 C 1221.38147 2272.170654 1214.411011 2265.137695 1207.732178 2256.154785 C 1202.561523 2262.866943 1197.06604 2267.795898 1191.262085 2271.003906 C 1185.462402 2274.178955 1178.53772 2275.770508 1170.529785 2275.770508 C 1154.613892 2275.770508 1142.651978 2269.31665 1134.644043 2256.413086 C 1128.419434 2246.463623 1125.32373 2234.984863 1125.32373 2222.019043 C 1125.32373 2210.186279 1127.752686 2199.58252 1132.631714 2190.149658 C 1137.51062 2180.75 1144.80603 2172.546387 1154.501465 2165.609131 C 1150.13916 2158.151123 1146.864258 2151.051514 1144.660278 2144.310303 C 1142.456177 2137.564697 1141.356201 2131.181641 1141.356201 2125.148682 C 1141.356201 2114.02832 1144.435303 2104.595459 1150.626587 2096.850098 C 1156.817993 2089.100586 1165.621704 2085.208984 1177.062866 2085.208984 C 1188.104004 2085.208984 1196.724365 2089.296387 1202.932373 2097.400146 C 1209.157104 2105.537109 1212.252808 2115.45752 1212.252808 2127.161133 C 1212.252808 2134.61499 1210.715332 2141.7146 1207.652954 2148.393311 C 1204.569824 2155.105469 1198.345093 2162.692627 1188.995605 2171.121338 L 1206.778076 2204.932373 C 1208.865479 2199.553467 1210.665283 2192.582764 1212.173584 2183.958252 L 1234.301636 2191.220459 C 1232.093506 2202.536621 1230.18103 2210.802734 1228.543579 2216.019287 C 1226.922852 2221.273193 1225.189575 2225.647949 1223.327271 2229.151855 C 1226.047974 2232.847656 1229.581055 2236.897461 1233.910034 2241.276367 C 1238.239014 2245.684326 1241.413818 2248.601074 1243.442871 2249.996826"/>
    <path id="path41" fill="#1a1919" stroke="none" d="M 2163.455566 2158.399658 L 2151.072754 2158.399658 L 2151.072754 2116.005859 C 2162.984863 2116.005859 2175.054932 2114.060059 2175.054932 2136.092285 C 2175.054932 2153.112305 2170.117676 2157.458008 2163.455566 2158.399658 M 2209.803223 2204.063965 C 2209.578369 2201.209961 2209.182617 2198.38501 2208.507568 2195.635254 C 2205.703613 2184.231689 2197.637207 2176.715332 2183.808838 2173.469727 C 2201.062012 2168.249023 2209.686523 2158.249512 2209.686523 2143.475342 L 2209.686523 2120.647217 C 2209.686523 2108.964355 2205.332764 2100.42749 2196.616455 2095.031738 C 2187.900146 2089.63208 2177.658936 2086.936523 2165.888672 2086.936523 L 2114.262207 2086.936523 L 2114.262207 2277.260254 L 2156.068359 2277.260254 L 2156.068359 2194.076904 C 2164.73877 2194.076904 2169.076172 2197.305908 2169.076172 2203.768066 C 2169.076172 2204.122314 2168.67627 2245.437012 2169.076172 2251.182373 L 2169.076172 2277.5271 L 2175.179932 2277.5271 L 2209.699219 2277.5271 L 2209.699219 2246.678467 C 2209.699219 2237.799805 2210.003174 2228.925293 2210.044922 2220.046631 C 2210.065674 2214.801025 2210.228271 2209.380371 2209.803223 2204.063965"/>
</svg>
