<?xml version="1.0" encoding="UTF-8"?>
<!-- Generated by Pixelmator Pro 3.6.15 -->
<svg width="3475" height="2544" viewBox="0 0 3475 2544" xmlns="http://www.w3.org/2000/svg">
    <path id="Path" fill="#1c2846" stroke="none" d="M 2130.436523 975.302979 C 2161.868408 915.389282 2185.292236 851.096558 2194.458252 788.220459 C 2199.945557 750.572388 2203.112061 712.58667 2204.836914 674.367798 C 2210.378418 551.419678 2200.453857 425.97583 2200.453857 300.957031 C 2200.453857 300.957031 2200.453857 300.957031 2200.453857 300.957031 L 2200.453857 300.957031 L 1717.631836 132.611084 L 1196.803223 303.198486 L 1196.803223 303.202637 C 1196.803223 303.202637 1196.803223 303.202637 1196.803223 303.202637 C 1196.803223 374.52417 1194.532471 445.595703 1193.807495 516.308838 C 1193.082642 587.022095 1193.89917 657.372803 1200.069824 727.248535 C 1204.227905 774.350342 1212.79834 823.197876 1226.418457 870.137329 C 1228.805908 878.370239 1231.318237 886.553101 1234.022217 894.64856 C 1234.213867 895.21936 1234.384766 895.798584 1234.580566 896.373535 C 1245.66748 929.213501 1259.41687 960.724487 1276.095215 989.564697 C 1276.253418 989.835571 1276.420166 990.102173 1276.574341 990.377197 C 1279.33667 995.139526 1282.132446 999.880859 1284.969727 1004.584839 C 1286.569702 1007.243042 1288.211304 1009.86377 1289.836182 1012.501099 C 1291.227783 1014.759399 1292.602661 1017.03418 1294.006836 1019.275757 C 1296.327515 1022.971436 1298.689941 1026.629639 1301.052246 1030.28772 C 1301.768921 1031.391846 1302.468872 1032.516846 1303.189697 1033.620972 C 1306.127075 1038.120728 1309.101929 1042.587158 1312.105957 1047.028564 C 1312.243408 1047.228638 1312.376709 1047.432739 1312.510132 1047.63269 C 1401.522339 1179.05957 1520.216431 1284.512695 1659.709595 1364.679688 L 1659.663818 1364.679688 L 1660.672119 1365.237915 C 1666.734375 1368.712769 1672.825684 1372.158447 1678.967041 1375.541626 C 1678.975342 1375.545776 1678.979492 1375.549927 1678.987915 1375.554077 C 1678.987915 1375.554077 1678.992065 1375.554077 1678.992065 1375.554077 C 1679.708618 1375.949951 1680.512817 1376.287354 1681.283569 1376.645752 L 1723.927368 1400.25293 C 1723.927368 1400.25293 1761.417114 1369.97522 1761.662964 1369.762695 C 1801.448486 1335.339478 1842.333984 1301.57019 1882.298706 1266.980225 L 1884.665283 1264.98877 L 1884.569458 1264.98877 C 1939.645874 1217.228516 1992.855835 1167.80603 2038.69104 1112.658691 C 2039.38269 1111.82959 2040.061768 1110.996338 2040.745117 1110.167114 C 2045.624023 1104.246582 2050.44873 1098.280273 2055.148438 1092.226318 C 2055.165283 1092.205566 2055.181885 1092.188843 2055.194336 1092.168091 C 2077.897461 1062.919434 2099.383789 1030.887695 2118.495361 997.185181 C 2119.882813 994.735352 2121.249512 992.2771 2122.611816 989.814697 C 2125.265869 985.006592 2127.882568 980.173584 2130.436523 975.302979"/>
    <path id="path1" fill="#fffffe" stroke="none" d="M 1714.396118 1307.866211 C 1520.226563 1191.938599 1359.813599 1056.274414 1290.246094 845.193115 C 1264.718262 767.734375 1276.750977 677.442993 1274.430298 592.930542 C 1272.322021 516.067627 1273.984497 439.100586 1273.984497 357.287842 C 1419.802246 310.019531 1562.403564 263.79248 1714.396118 214.52002 Z"/>
    <path id="path2" fill="#0d0f0d" stroke="none" d="M 188.415741 2099.038574 L 3293.367432 2099.038574 L 3293.367432 2052.02417 L 188.415741 2052.02417 Z"/>
    <path id="path3" fill="#1a1919" stroke="none" d="M 1226.948486 1833.839844 L 1191.675171 1736.373901 L 1190.766846 1736.373901 L 1153.985352 1833.839844 Z M 1148.431519 1634.545532 L 1232.173218 1634.545532 L 1354.600464 1950.192505 L 1274.921021 1950.192505 L 1258.530273 1900.549072 L 1122.94519 1900.549072 L 1106.558472 1950.192505 L 1028.745728 1950.192505 Z"/>
    <path id="path4" fill="#1a1919" stroke="none" d="M 2708.019043 1833.839844 L 2672.745605 1736.373901 L 2671.837402 1736.373901 L 2635.055908 1833.839844 Z M 2629.501953 1634.545532 L 2713.243652 1634.545532 L 2835.670898 1950.192505 L 2755.991699 1950.192505 L 2739.60083 1900.549072 L 2604.015625 1900.549072 L 2587.62915 1950.192505 L 2509.816162 1950.192505 Z"/>
    <path id="path5" fill="#1a1919" stroke="none" d="M 1958.228271 1876.602051 L 2010.475708 1876.602051 C 2027.545776 1876.602051 2041.986694 1874.414551 2053.765381 1870.07312 C 2065.539795 1865.731689 2075.105957 1859.765381 2082.438965 1852.174072 C 2089.776123 1844.549316 2095.071533 1835.666504 2098.321533 1825.487793 C 2101.550537 1815.280029 2103.179443 1804.376343 2103.179443 1792.672852 C 2103.179443 1781.006592 2101.550537 1770.069702 2098.321533 1759.891113 C 2095.071533 1749.716553 2089.776123 1740.83374 2082.438965 1733.208984 C 2075.105957 1725.617676 2065.456299 1719.651367 2053.515381 1715.309814 C 2041.549194 1710.968506 2027.045776 1708.781006 2009.97583 1708.781006 L 1958.228271 1708.781006 Z M 1886.981812 1634.542969 L 2009.634155 1634.542969 C 2033.628784 1634.542969 2055.548584 1637.509521 2075.401611 1643.438477 C 2095.254883 1649.36731 2112.291504 1658.691895 2126.503418 1671.42041 C 2140.731934 1684.144775 2151.689697 1700.523193 2159.393311 1720.513794 C 2167.097168 1740.504517 2170.951172 1764.544922 2170.951172 1792.672852 C 2170.951172 1820.833862 2167.097168 1844.87439 2159.393311 1864.869141 C 2151.689697 1884.859863 2140.731934 1901.238281 2126.503418 1913.962646 C 2112.291504 1926.687012 2095.254883 1936.015747 2075.401611 1941.94458 C 2055.548584 1947.873535 2033.628784 1950.835815 2009.634155 1950.835815 L 1886.981812 1950.835815 Z"/>
    <path id="path6" fill="#1a1919" stroke="none" d="M 2310.015625 1634.544678 L 2384.445313 1634.544678 L 2384.445313 1950.19165 L 2310.015625 1950.19165 Z"/>
    <path id="path7" fill="#1a1919" stroke="none" d="M 2960.621094 1634.544312 L 3027.592773 1634.544312 L 3176.289795 1810.69397 L 3177.248047 1810.69397 L 3177.248047 1634.544312 L 3249.702637 1634.544312 L 3249.702637 1950.191284 L 3188.76001 1950.191284 L 3036.675781 1770.066772 L 3035.717529 1770.066772 L 3035.717529 1950.191284 L 2960.621094 1950.191284 Z"/>
    <path id="path8" fill="#1a1919" stroke="none" d="M 430.753815 1768.413574 L 423.924988 1768.413574 L 344.391388 1768.413574 L 344.391388 1829.893799 L 423.924988 1829.893799 L 423.924988 1832.056274 C 409.059052 1861.046509 379.21051 1881.091309 344.391388 1881.091309 C 294.848022 1881.091309 254.687485 1840.930786 254.687485 1791.387451 C 254.687485 1741.843994 294.848022 1701.683472 344.391388 1701.683472 C 372.127533 1701.683472 396.576324 1714.503662 412.929688 1734.319336 L 473.847534 1693.713135 C 444.136505 1654.406616 397.459625 1628.624512 344.391388 1628.624512 C 254.499985 1628.624512 181.628571 1701.495972 181.628571 1791.387451 C 181.628571 1881.278809 254.499985 1954.150269 344.391388 1954.150269 C 373.439972 1954.150269 400.31781 1945.913086 423.924988 1932.576294 L 423.924988 1946.167236 L 492.359131 1946.167236 L 492.359131 1858.438232 L 492.359131 1768.413574 Z"/>
    <path id="path9" fill="#1a1919" stroke="none" d="M 832.728638 1634.544312 L 832.728638 1699.536865 L 832.728638 1775.641602 L 832.728638 1805.260986 C 832.728638 1820.247681 834.861877 1834.084473 827.245605 1847.879639 C 820.004272 1860.999756 805.692505 1870.674316 791.947327 1876.036621 C 763.419556 1887.165283 726.454712 1877.419922 705.855713 1854.870972 C 697.060303 1845.238037 694.672913 1833.676147 694.068787 1821.664307 L 694.068787 1794.523926 L 694.068787 1738.38501 L 694.068787 1634.544312 L 619.784973 1634.544312 L 619.784973 1828.593018 C 619.784973 1848.946289 624.247253 1869.370239 633.192627 1883.594482 C 643.658752 1900.2771 654.095764 1914.917969 670.711609 1925.91748 C 697.66864 1943.770752 732.021118 1949.820435 763.927856 1949.820435 C 780.21875 1949.820435 796.976257 1947.778809 814.221252 1943.762451 C 867.414429 1931.375488 908.554077 1884.26123 908.554077 1828.593018 L 908.554077 1634.544312 Z"/>
    <path id="path10" fill="#1a1919" stroke="none" d="M 1552.385376 1702.612549 L 1630.931519 1702.612549 C 1644.734985 1702.900146 1655.834473 1706.366577 1664.188232 1713.037109 C 1672.53772 1719.678467 1676.716797 1730.394531 1676.716797 1745.185547 C 1676.716797 1759.943115 1672.53772 1770.655029 1664.188232 1777.292236 C 1655.834473 1783.966919 1644.734985 1787.433472 1630.931519 1787.720947 L 1552.385376 1787.720947 Z M 1661.467529 1950.192139 L 1755.666992 1950.192139 L 1684.008057 1852.896973 C 1749.05481 1833.2854 1768.328857 1742.473145 1740.238647 1687.709229 C 1734.801392 1677.109619 1727.476685 1667.439331 1718.297974 1659.798096 C 1698.065674 1642.948853 1670.375366 1634.545166 1635.206299 1634.545166 L 1478.701416 1634.545166 L 1478.701416 1950.192139 L 1552.385376 1950.192139 L 1552.385376 1865.058838 L 1607.561768 1865.058838 Z"/>
    <path id="path11" fill="#1a1919" stroke="none" d="M 250.050629 2247.540039 C 261.962524 2247.540039 274.032776 2245.594238 274.032776 2267.630615 C 274.032776 2284.646484 269.09552 2288.992188 262.43335 2289.933838 L 250.050629 2289.933838 Z M 308.785248 2336.060547 C 308.556091 2333.210693 308.160278 2330.385986 307.485291 2327.635986 C 304.681274 2316.228271 296.61499 2308.716064 282.786499 2305.470459 C 300.039825 2300.25 308.664398 2290.250488 308.664398 2275.476074 L 308.664398 2252.644043 C 308.664398 2240.965332 304.310455 2232.428223 295.594208 2227.028564 C 286.877991 2221.632813 276.63681 2218.933105 264.866577 2218.933105 L 213.239929 2218.933105 L 213.239929 2409.26123 L 255.046219 2409.26123 L 255.046219 2326.077881 C 263.720795 2326.077881 268.053894 2329.306885 268.053894 2335.764893 C 268.053894 2336.123047 267.653931 2377.437744 268.053894 2383.18335 L 268.053894 2409.527832 L 274.157776 2409.527832 L 308.681061 2409.527832 L 308.681061 2378.679443 C 308.681061 2369.800537 308.981049 2360.926025 309.022736 2352.047363 C 309.043549 2346.797607 309.206055 2341.381104 308.785248 2336.060547"/>
    <path id="path12" fill="#1a1919" stroke="none" d="M 420.155182 2378.734863 L 420.155182 2249.062012 C 420.155182 2245.258057 417.896942 2243.358154 413.384674 2243.358154 C 408.697418 2243.358154 406.351685 2245.258057 406.351685 2249.062012 L 406.351685 2378.734863 C 406.351685 2382.538818 408.697418 2384.442871 413.384674 2384.442871 C 417.896942 2384.442871 420.155182 2382.538818 420.155182 2378.734863 M 365.603699 2376.743164 L 365.603699 2254.240967 C 365.603699 2229.554688 381.598755 2217.209473 413.584656 2217.209473 C 445.128937 2217.209473 460.903168 2229.462891 460.903168 2253.974121 L 460.903168 2376.476563 C 460.903168 2387.538574 456.499237 2396.054688 447.716309 2402.029541 C 438.925079 2408 427.454834 2410.987305 413.318024 2410.987305 C 381.511261 2410.987305 365.603699 2399.571289 365.603699 2376.743164"/>
    <path id="path13" fill="#1a1919" stroke="none" d="M 571.59314 2378.734863 L 571.59314 2249.062012 C 571.59314 2245.258057 569.3349 2243.358154 564.822632 2243.358154 C 560.135376 2243.358154 557.789673 2245.258057 557.789673 2249.062012 L 557.789673 2378.734863 C 557.789673 2382.538818 560.135376 2384.442871 564.822632 2384.442871 C 569.3349 2384.442871 571.59314 2382.538818 571.59314 2378.734863 M 517.041687 2376.743164 L 517.041687 2254.240967 C 517.041687 2229.554688 533.036743 2217.209473 565.022644 2217.209473 C 596.566895 2217.209473 612.341125 2229.462891 612.341125 2253.974121 L 612.341125 2376.476563 C 612.341125 2387.538574 607.937195 2396.054688 599.154297 2402.029541 C 590.363037 2408 578.892761 2410.987305 564.755981 2410.987305 C 532.949219 2410.987305 517.041687 2399.571289 517.041687 2376.743164"/>
    <path id="path14" fill="#1a1919" stroke="none" d="M 755.276611 2251.640137 L 714.199463 2251.640137 L 714.199463 2286.900879 L 751.426819 2286.900879 L 751.426819 2317.945313 L 714.199463 2317.945313 L 714.199463 2409.261719 L 673.122314 2409.261719 L 673.122314 2218.933594 L 755.276611 2218.933594 Z"/>
    <path id="path15" fill="#1a1919" stroke="none" d="M 837.958801 2409.260742 L 805.572876 2409.260742 L 805.572876 2218.936768 L 837.958801 2218.936768 Z"/>
    <path id="path16" fill="#1a1919" stroke="none" d="M 2016.873779 2333.077393 L 2054.834473 2333.077393 L 2054.834473 2376.741943 C 2054.834473 2381.079346 2057.463379 2383.24585 2062.729736 2383.24585 C 2067.817139 2383.24585 2070.362793 2381.079346 2070.362793 2376.741943 L 2070.362793 2354.180664 C 2070.362793 2347.281006 2065.758789 2339.181396 2056.559326 2329.890137 C 2038.772705 2312.636719 2027.714844 2301.045654 2023.377563 2295.116699 C 2019.040283 2289.192139 2016.873779 2282.688232 2016.873779 2275.609375 L 2016.873779 2254.239746 C 2016.873779 2229.553467 2032.997925 2217.208252 2065.250488 2217.208252 C 2094.140869 2217.208252 2108.585938 2228.445068 2108.585938 2250.923096 L 2108.585938 2283.838135 L 2070.625244 2283.838135 L 2070.625244 2248.79834 C 2070.625244 2244.994385 2068.504639 2243.090332 2064.267334 2243.090332 C 2059.300781 2243.090332 2056.821777 2246.760742 2056.821777 2254.106445 L 2057.621826 2266.45166 C 2057.621826 2273.530273 2062.321533 2281.759277 2071.720947 2291.137939 C 2089.195313 2307.85791 2100.311279 2319.540527 2105.048584 2326.177734 C 2109.80249 2332.810791 2112.169189 2340.331299 2112.169189 2348.739258 L 2112.169189 2373.025391 C 2112.169189 2398.33252 2095.999023 2410.986084 2063.658936 2410.986084 C 2032.468872 2410.986084 2016.873779 2399.482422 2016.873779 2376.479492 Z"/>
    <path id="path17" fill="#1a1919" stroke="none" d="M 2244.525146 2253.129639 L 2221.163818 2253.129639 L 2221.163818 2409.259521 L 2179.357422 2409.259521 L 2179.357422 2253.129639 L 2156.000244 2253.129639 L 2156.000244 2218.935547 L 2244.525146 2218.935547 Z"/>
    <path id="path18" fill="#1a1919" stroke="none" d="M 2835.673096 2253.129639 L 2812.311768 2253.129639 L 2812.311768 2409.259521 L 2770.505371 2409.259521 L 2770.505371 2253.129639 L 2747.148193 2253.129639 L 2747.148193 2218.935547 L 2835.673096 2218.935547 Z"/>
    <path id="path19" fill="#1a1919" stroke="none" d="M 2923.723145 2409.260742 L 2881.916504 2409.260742 L 2881.916504 2218.936768 L 2923.723145 2218.936768 Z"/>
    <path id="path20" fill="#1a1919" stroke="none" d="M 3037.301514 2378.734863 L 3037.301514 2249.062012 C 3037.301514 2245.258057 3035.043213 2243.358154 3030.531006 2243.358154 C 3025.84375 2243.358154 3023.498047 2245.258057 3023.498047 2249.062012 L 3023.498047 2378.734863 C 3023.498047 2382.538818 3025.84375 2384.442871 3030.531006 2384.442871 C 3035.043213 2384.442871 3037.301514 2382.538818 3037.301514 2378.734863 M 2982.75 2376.743164 L 2982.75 2254.240967 C 2982.75 2229.554688 2998.745117 2217.209473 3030.730957 2217.209473 C 3062.275391 2217.209473 3078.049561 2229.462891 3078.049561 2253.974121 L 3078.049561 2376.476563 C 3078.049561 2387.538574 3073.645508 2396.054688 3064.862549 2402.029541 C 3056.071533 2408 3044.601074 2410.987305 3030.464355 2410.987305 C 2998.657471 2410.987305 2982.75 2399.571289 2982.75 2376.743164"/>
    <path id="path21" fill="#1a1919" stroke="none" d="M 968.24823 2218.934814 L 968.24823 2314.09668 L 939.445496 2218.934814 L 904.397217 2218.934814 L 904.397217 2409.258789 L 939.303833 2409.258789 L 939.303833 2324.70459 L 964.269287 2409.258789 L 965.040039 2409.258789 L 976.28949 2409.258789 L 1003.154846 2409.258789 L 1003.154846 2218.934814 Z"/>
    <path id="path22" fill="#1a1919" stroke="none" d="M 3199.846436 2218.934814 L 3199.846436 2314.09668 L 3171.043701 2218.934814 L 3135.995361 2218.934814 L 3135.995361 2409.258789 L 3170.9021 2409.258789 L 3170.9021 2324.70459 L 3195.867432 2409.258789 L 3196.638184 2409.258789 L 3207.887695 2409.258789 L 3234.753174 2409.258789 L 3234.753174 2218.934814 Z"/>
    <path id="path23" fill="#1a1919" stroke="none" d="M 1917.693604 2218.934814 L 1917.693604 2314.09668 L 1888.890869 2218.934814 L 1853.842651 2218.934814 L 1853.842651 2409.258789 L 1888.749268 2409.258789 L 1888.749268 2324.70459 L 1913.714722 2409.258789 L 1914.485474 2409.258789 L 1925.734863 2409.258789 L 1952.60022 2409.258789 L 1952.60022 2218.934814 Z"/>
    <path id="path24" fill="#1a1919" stroke="none" d="M 1094.400391 2376.479004 C 1094.400391 2377.270752 1094.921143 2377.670654 1095.187866 2378.258057 C 1094.746216 2377.029053 1094.429565 2375.733398 1094.400391 2374.358398 Z"/>
    <path id="path25" fill="#1a1919" stroke="none" d="M 1096.031982 2379.986816 C 1095.965332 2379.865967 1095.865234 2379.770264 1095.798584 2379.645264 C 1095.902832 2379.736816 1095.915283 2379.903564 1096.031982 2379.986816"/>
    <path id="path26" fill="#1a1919" stroke="none" d="M 1119.137451 2376.39624 L 1119.137451 2374.113037 C 1119.137451 2375.100342 1118.791626 2375.971191 1118.574951 2376.887695 C 1118.675049 2376.712891 1119.137451 2376.58374 1119.137451 2376.39624"/>
    <path id="path27" fill="#1a1919" stroke="none" d="M 1154.330811 2286.226318 L 1154.330811 2250.919922 C 1154.330811 2228.445801 1139.377319 2217.208984 1109.470459 2217.208984 C 1077.967896 2217.208984 1057.531372 2229.554199 1057.531372 2254.240479 L 1057.531372 2378.467773 C 1057.531372 2389.792236 1065.960083 2398.045898 1073.434692 2403.220703 C 1080.913574 2408.395508 1089.650635 2410.987061 1099.645996 2410.987061 C 1106.353882 2410.987061 1114.274414 2411.386963 1120.707397 2409.04126 C 1124.273926 2407.737061 1126.88623 2405.387207 1129.152832 2402.37915 C 1129.886108 2401.395752 1134.835938 2394.437744 1134.198364 2393.441895 C 1137.473267 2398.533447 1140.239746 2403.970703 1143.189575 2409.261963 L 1152.051758 2409.261963 L 1152.051758 2303.483887 L 1110.645386 2303.400635 L 1110.645386 2327.536865 L 1119.136597 2327.536865 L 1119.136597 2374.11377 L 1119.136597 2376.396973 C 1119.136597 2376.584473 1118.674194 2376.713623 1118.574219 2376.888672 C 1117.286743 2382.35498 1112.603638 2386.509033 1106.745605 2386.509033 C 1102.06665 2386.509033 1098.141846 2383.813232 1096.033569 2379.988525 C 1095.916992 2379.900879 1095.900269 2379.738525 1095.800293 2379.642578 C 1095.567017 2379.188477 1095.362793 2378.746826 1095.187866 2378.259277 C 1094.921143 2377.671875 1094.400391 2377.271973 1094.400391 2376.480225 L 1094.400391 2374.355469 C 1094.400391 2374.271973 1094.350342 2374.197021 1094.350342 2374.11377 C 1094.350342 2374.030518 1094.400391 2373.955566 1094.400391 2373.87207 L 1094.400391 2257.494629 C 1094.400391 2257.373779 1094.350342 2256.969482 1094.350342 2256.807129 C 1094.350342 2250.778076 1100.637573 2245.890869 1106.666382 2245.890869 C 1112.695313 2245.890869 1119.111694 2250.778076 1119.111694 2256.807129 C 1119.111694 2256.936279 1119.299194 2257.356934 1119.299194 2257.494629 L 1119.299194 2286.226318 Z"/>
    <path id="path28" fill="#1a1919" stroke="none" d="M 1094.400391 2374.356689 L 1094.400391 2373.873291 C 1094.39624 2373.956787 1094.350342 2374.027588 1094.350342 2374.11499 C 1094.350342 2374.198242 1094.39624 2374.273438 1094.400391 2374.356689"/>
    <path id="path29" fill="#1a1919" stroke="none" d="M 1095.799927 2379.644287 C 1095.429077 2379.306885 1095.399902 2378.715332 1095.187378 2378.260986 C 1095.362427 2378.748535 1095.566528 2379.190186 1095.799927 2379.644287"/>
    <path id="path30" fill="#1a1919" stroke="none" d="M 1598.711426 2314.269287 C 1598.711426 2315.060791 1599.232178 2315.460938 1599.498901 2316.04834 C 1599.057251 2314.819092 1598.740601 2313.523438 1598.711426 2312.148438 Z"/>
    <path id="path31" fill="#1a1919" stroke="none" d="M 1599.221802 2314.269287 C 1599.155151 2314.148438 1599.055176 2314.05249 1598.988525 2313.92749 C 1599.092651 2314.019287 1599.105103 2314.185791 1599.221802 2314.269287"/>
    <path id="path32" fill="#1a1919" stroke="none" d="M 1605.673096 2253.619141 C 1605.63147 2253.606689 1605.63147 2253.581787 1605.589844 2253.569336 C 1605.614868 2253.585938 1605.644043 2253.602539 1605.673096 2253.619141"/>
    <path id="path33" fill="#1a1919" stroke="none" d="M 1599.026367 2380.101807 C 1596.030762 2380.101807 1593.19751 2378.847656 1591.001831 2376.8479 C 1588.156128 2374.252197 1586.585327 2371.144043 1586.681152 2367.23584 C 1586.681152 2367.23584 1586.681152 2263.178467 1586.631226 2262.478516 C 1586.631226 2256.345459 1592.918335 2251.366455 1598.947266 2251.366455 C 1601.259644 2251.366455 1603.534546 2252.278809 1605.588623 2253.566406 C 1605.630249 2253.578857 1605.634399 2253.60791 1605.671875 2253.620605 C 1608.925903 2255.695313 1611.463257 2259.003662 1611.579956 2263.178467 L 1611.579956 2284.848145 L 1611.509155 2293.868652 L 1648.9198 2293.868652 L 1648.9198 2250.920654 C 1648.9198 2228.446777 1633.228882 2217.209717 1601.847046 2217.209717 C 1566.811279 2217.209717 1549.291382 2229.550781 1549.291382 2254.237061 L 1549.291382 2376.743652 C 1549.291382 2399.571777 1566.811279 2410.983643 1601.847046 2410.983643 C 1613.975708 2410.983643 1624.854248 2408.262939 1634.483032 2402.825684 C 1644.107544 2397.380127 1648.9198 2390.147217 1648.9198 2381.122559 L 1648.9198 2327.487793 L 1611.246582 2327.487793 L 1610.85498 2370.310547 C 1609.567505 2375.872803 1604.884399 2380.101807 1599.026367 2380.101807"/>
    <path id="path34" fill="#1a1919" stroke="none" d="M 2658.480957 2253.619141 C 2658.439209 2253.606689 2658.439209 2253.581787 2658.397705 2253.569336 C 2658.422607 2253.585938 2658.451904 2253.602539 2658.480957 2253.619141"/>
    <path id="path35" fill="#1a1919" stroke="none" d="M 2651.83374 2380.101807 C 2648.838135 2380.101807 2646.004883 2378.847656 2643.809082 2376.8479 C 2640.963623 2374.252197 2639.392822 2371.144043 2639.488525 2367.23584 C 2639.488525 2367.23584 2639.488525 2263.178467 2639.438477 2262.478516 C 2639.438477 2256.345459 2645.72583 2251.366455 2651.754639 2251.366455 C 2654.067139 2251.366455 2656.341797 2252.278809 2658.395996 2253.566406 C 2658.437744 2253.578857 2658.441895 2253.60791 2658.479248 2253.620605 C 2661.733398 2255.695313 2664.270752 2259.003662 2664.387451 2263.178467 L 2664.387451 2284.848145 L 2664.316406 2293.868652 L 2701.727295 2293.868652 L 2701.727295 2250.920654 C 2701.727295 2228.446777 2686.036377 2217.209717 2654.654541 2217.209717 C 2619.618652 2217.209717 2602.098633 2229.550781 2602.098633 2254.237061 L 2602.098633 2376.743652 C 2602.098633 2399.571777 2619.618652 2410.983643 2654.654541 2410.983643 C 2666.782959 2410.983643 2677.661621 2408.262939 2687.290283 2402.825684 C 2696.914795 2397.380127 2701.727295 2390.147217 2701.727295 2381.122559 L 2701.727295 2327.487793 L 2664.053955 2327.487793 L 2663.662354 2370.310547 C 2662.375 2375.872803 2657.691895 2380.101807 2651.83374 2380.101807"/>
    <path id="path36" fill="#1a1919" stroke="none" d="M 1599.130493 2314.340332 L 1599.130493 2313.857178 C 1599.130493 2313.94043 1599.080566 2314.01123 1599.080566 2314.098877 C 1599.080566 2314.182129 1599.130493 2314.25708 1599.130493 2314.340332"/>
    <path id="path37" fill="#1a1919" stroke="none" d="M 1599.411377 2314.790527 C 1599.040527 2314.452881 1599.011353 2313.861328 1598.79895 2313.407227 C 1598.973877 2313.894531 1599.178101 2314.336182 1599.411377 2314.790527"/>
    <path id="path38" fill="#1a1919" stroke="none" d="M 1754.422119 2378.734863 L 1754.422119 2249.062012 C 1754.422119 2245.258057 1752.163818 2243.358154 1747.651611 2243.358154 C 1742.964355 2243.358154 1740.618652 2245.258057 1740.618652 2249.062012 L 1740.618652 2378.734863 C 1740.618652 2382.538818 1742.964355 2384.442871 1747.651611 2384.442871 C 1752.163818 2384.442871 1754.422119 2382.538818 1754.422119 2378.734863 M 1699.870605 2376.743164 L 1699.870605 2254.240967 C 1699.870605 2229.554688 1715.865601 2217.209473 1747.851563 2217.209473 C 1779.395874 2217.209473 1795.170044 2229.462891 1795.170044 2253.974121 L 1795.170044 2376.476563 C 1795.170044 2387.538574 1790.766113 2396.054688 1781.983276 2402.029541 C 1773.192017 2408 1761.72168 2410.987305 1747.584961 2410.987305 C 1715.778198 2410.987305 1699.870605 2399.571289 1699.870605 2376.743164"/>
    <path id="path39" fill="#1a1919" stroke="none" d="M 2511.435791 2218.934814 L 2511.435791 2361.202637 C 2511.435791 2370.389893 2503.986084 2377.839355 2494.794922 2377.839355 C 2485.60791 2377.839355 2478.158203 2370.389893 2478.158203 2361.202637 L 2478.158203 2218.934814 L 2446.018066 2218.934814 L 2446.018066 2376.743652 C 2446.018066 2388.776367 2450.86377 2397.492676 2460.554932 2402.888184 C 2470.241943 2408.287842 2481.678711 2410.983643 2494.861572 2410.983643 C 2509.11084 2410.983643 2520.789307 2407.979492 2529.901367 2401.958984 C 2539.017578 2395.942627 2543.571533 2387.451416 2543.571533 2376.477051 L 2543.571533 2218.934814 Z"/>
    <path id="path40" fill="#1a1919" stroke="none" d="M 1357.804443 2281.918213 L 1364.416626 2274.622803 C 1369.295654 2269.177246 1371.745483 2263.765137 1371.745483 2258.415283 C 1371.745483 2253.907227 1370.562256 2250.049072 1368.21228 2246.874268 C 1365.862427 2243.695313 1362.683472 2242.074463 1358.679443 2242.074463 C 1354.787964 2242.074463 1351.74231 2243.503418 1349.521606 2246.291016 C 1347.317505 2249.111572 1346.213379 2252.353027 1346.213379 2256.015381 C 1346.213379 2260.390137 1348.079956 2265.67749 1351.792236 2271.868896 Z M 1348.22583 2320.203857 C 1342.584473 2324.324463 1338.36792 2329.249268 1335.580566 2335.019775 C 1332.809937 2340.82373 1331.414185 2346.723389 1331.414185 2352.752441 C 1331.414185 2360.372803 1333.134888 2366.597412 1336.584717 2371.393066 C 1340.038696 2376.226074 1344.676025 2378.625977 1350.49231 2378.625977 C 1354.321289 2378.625977 1358.000366 2377.521973 1361.550171 2375.351318 C 1365.099976 2373.17627 1368.95813 2369.580566 1373.137085 2364.555908 Z M 1424.442871 2381.996826 L 1409.643677 2409.261963 C 1402.38147 2404.170654 1395.411011 2397.137695 1388.732178 2388.154785 C 1383.561523 2394.866943 1378.06604 2399.795898 1372.262085 2403.003906 C 1366.462402 2406.178955 1359.53772 2407.770508 1351.529785 2407.770508 C 1335.613892 2407.770508 1323.651978 2401.31665 1315.644043 2388.413086 C 1309.419434 2378.463623 1306.32373 2366.984863 1306.32373 2354.019043 C 1306.32373 2342.186279 1308.752686 2331.58252 1313.631714 2322.149658 C 1318.51062 2312.75 1325.80603 2304.546387 1335.501465 2297.609131 C 1331.13916 2290.151123 1327.864258 2283.051514 1325.660278 2276.310303 C 1323.456177 2269.564697 1322.356201 2263.181641 1322.356201 2257.148682 C 1322.356201 2246.02832 1325.435303 2236.595459 1331.626587 2228.850098 C 1337.817993 2221.100586 1346.621704 2217.208984 1358.062866 2217.208984 C 1369.104004 2217.208984 1377.724365 2221.296387 1383.932373 2229.400146 C 1390.157104 2237.537109 1393.252808 2247.45752 1393.252808 2259.161133 C 1393.252808 2266.61499 1391.715332 2273.7146 1388.652954 2280.393311 C 1385.569824 2287.105469 1379.345093 2294.692627 1369.995605 2303.121338 L 1387.778076 2336.932373 C 1389.865479 2331.553467 1391.665283 2324.582764 1393.173584 2315.958252 L 1415.301636 2323.220459 C 1413.093506 2334.536621 1411.18103 2342.802734 1409.543579 2348.019287 C 1407.922852 2353.273193 1406.189575 2357.647949 1404.327271 2361.151855 C 1407.047974 2364.847656 1410.581055 2368.897461 1414.910034 2373.276367 C 1419.239014 2377.684326 1422.413818 2380.601074 1424.442871 2381.996826"/>
    <path id="path41" fill="#1a1919" stroke="none" d="M 2344.455566 2290.399658 L 2332.072754 2290.399658 L 2332.072754 2248.005859 C 2343.984863 2248.005859 2356.054932 2246.060059 2356.054932 2268.092285 C 2356.054932 2285.112305 2351.117676 2289.458008 2344.455566 2290.399658 M 2390.803223 2336.063965 C 2390.578369 2333.209961 2390.182617 2330.38501 2389.507568 2327.635254 C 2386.703613 2316.231689 2378.637207 2308.715332 2364.808838 2305.469727 C 2382.062012 2300.249023 2390.686523 2290.249512 2390.686523 2275.475342 L 2390.686523 2252.647217 C 2390.686523 2240.964355 2386.332764 2232.42749 2377.616455 2227.031738 C 2368.900146 2221.63208 2358.658936 2218.936523 2346.888672 2218.936523 L 2295.262207 2218.936523 L 2295.262207 2409.260254 L 2337.068359 2409.260254 L 2337.068359 2326.076904 C 2345.73877 2326.076904 2350.076172 2329.305908 2350.076172 2335.768066 C 2350.076172 2336.122314 2349.67627 2377.437012 2350.076172 2383.182373 L 2350.076172 2409.5271 L 2356.179932 2409.5271 L 2390.699219 2409.5271 L 2390.699219 2378.678467 C 2390.699219 2369.799805 2391.003174 2360.925293 2391.044922 2352.046631 C 2391.065674 2346.801025 2391.228271 2341.380371 2390.803223 2336.063965"/>
</svg>
