<svg height="373" preserveAspectRatio="xMidYMid meet" viewBox="0 0 944 373" width="944" xmlns="http://www.w3.org/2000/svg"><g fill="#fff"><path d="m95 186.5v-186.5h100.5c99.8 0 100.5 0 100.5 2 0 1.6-.7 2-3.4 2-4.9 0-22.4 3.5-32.9 6.5-32.4 9.4-66.7 31.8-88.6 57.8-48.5 57.6-57.9 133.5-24.8 199.3 25.5 50.7 74.7 88.2 129.7 99 5.2 1 9.7 2.2 9.8 2.6.2.5 2.1.8 4.3.8 2.8 0 3.9.4 3.9 1.5 0 1.3-11.7 1.5-99.5 1.5h-99.5z"/><path d="m331 371.5c0-1.1 1.1-1.5 4-1.5 2.2 0 4-.4 4-.8s3.9-1.4 8.8-2.1c17.6-2.5 40.9-9.6 57.7-17.5 46.8-22.1 86.6-65.3 115.1-125.1 17.5-36.8 30.2-75.3 48.4-147 12.7-49.9 16.7-62.6 23.2-72.7l3-4.8h62.9c69.9 0 66.6-.4 59 6.5-11.8 10.7-22.5 46.5-34.6 115.9-2.4 13.8-8 47.8-12.5 75.6-9.5 58.7-14.4 85.7-19.9 110-7.2 32.1-14.8 53-22 61.3l-3.3 3.7h-146.9c-129.9 0-146.9-.2-146.9-1.5zm276-23.2c12-14.6 23.2-57.4 37-142.3 2.8-16.8 5.5-33.4 6.1-37 1-6 .7-9.3-4.1-40.5-6.7-44.5-11.4-70.4-15-84.4-3-11.3-7.5-22.1-9.6-22.8-1.5-.5-6.1 4.3-9.1 9.5-4.6 7.8-10.3 26.2-20.4 65.7-10.6 41.2-16.6 63-22.3 80.9l-3.5 10.9 5.5 36.6c11.4 76.8 17 105.7 23.5 120.8 4 9.3 5.9 9.7 11.9 2.6z"/><path d="m711 372c0-.6 2.2-3.2 4.9-5.9 2.8-2.8 6-6.9 7.2-9.3 4.2-8.1 9.7-24.4 13.7-40.3 7.5-29.4 10.6-46.6 30.7-169.5 13.8-84.4 24.5-126.7 36.4-142.7l3.1-4.3h68.5 68.5v186.5 186.5l-24.7-.2-24.8-.3-.7-10c-3-40-11.2-120.7-16.9-165.5-13.2-104.8-27.4-166-41.1-177.5-3.4-2.9-5-2.4-9.2 2.6-4.5 5.3-7.7 11.6-11.8 23.2-8.9 25.2-16.1 59.3-27.8 130.7l-3.2 19.6 3.6 25.9c7.6 55.2 16.6 134.1 16.6 146.1v5.4h-46.5c-30.7 0-46.5-.3-46.5-1z"/><path d="m290 270.6c-17.4-3.9-32-12.3-44.1-25.4-9.8-10.6-15.5-21.2-19.6-36.3-2.5-9-2.5-35.8 0-44.8 4.2-15.5 10-26.1 20.2-36.9 16.7-17.8 34.7-25.8 60-26.9 10.7-.4 14.8-.1 23 1.6 12.7 2.6 27.2 9.6 37 17.8l7 5.9 35.3-31.4 35.4-31.5-5.4-5.4c-11.5-11.9-32.2-26.9-47.7-34.8-18-9.1-50.5-18.5-63.8-18.5-2.6 0-3.3-.4-3.3-2 0-2 .7-2 92.5-2s92.5 0 92.5 2c0 1.1-.6 2-1.4 2-2.2 0-9.2 8.3-12.5 14.7-4.4 8.8-9.2 23.2-19.2 57.7-15.4 53.1-25.8 82.6-37.6 106-26.2 52.3-59.2 80.5-103 88.1-10.3 1.8-37.3 1.8-45.3.1z"/></g><g fill="#8bc042"><path d="m801.6 371.8c-.2-.7-.9-7.1-1.6-14.3-2.8-31.8-11.6-106.1-17.3-145.4l-2.4-16.4 3.8-23.1c11.6-71.6 18.7-104.8 27.8-130.4 8.4-24.1 18-33.2 26.9-25.7 13.7 11.5 27.9 72.7 41.1 177.5 5.6 44 13.9 126 16.6 163 .3 4.1.8 9.4 1.1 11.8l.5 4.2h-48.1c-37.6 0-48.1-.3-48.4-1.2z"/><path d="m595.7 355.3c-5.7-6.4-12.7-34.7-20.1-81.3-5.2-33-12.6-83.4-12.6-86 0-1.2 2-8.6 4.5-16.4 6.2-19.9 10-33.7 21.4-78.1 13-51 18-65.1 25.7-72.8 3.3-3.3 6.5-4.3 9.2-2.8 4.9 2.6 10.8 21.4 16.2 51.5 4.1 22.9 14.1 88.2 14.2 92.6 0 3.5-3.1 23.5-9.7 62.5-13.2 77.2-23.9 115.5-36 128.1-3.4 3.6-4.8 4.4-7.7 4.4-2.1 0-4.1-.7-5.1-1.7z"/></g><g><path d="m0 186.5v-186.5h49 49v186.5 186.5h-49-49z"/><path d="m285.8 371.9c-75.2-10.3-137.2-64.9-156.1-137.4-4.7-17.9-6-28.5-6-48.5.1-20.5 1.8-33.4 7.1-51.5 13.4-46.2 43.1-84.1 85.6-109.3 18-10.7 36.9-17.8 60.1-22.4 9.4-1.9 14.3-2.3 33-2.3 14.1 0 24.7.5 29.5 1.3 34.4 6.2 62.6 18.8 87.9 39.3 12.1 9.7 24 21.7 22.5 22.7-.5.4-17.2 15.1-37 32.7-19.7 17.6-36.7 32.6-37.7 33.4-1.5 1.2-2.3.7-7.3-3.8-17.4-15.9-39-24-60.9-22.7-22.6 1.2-41.2 10-57 26.8-10.2 10.8-16 21.5-20.2 36.9-2.4 8.8-2.4 30 0 38.8 6.9 25.5 22.7 44.6 45.8 55.5 11.4 5.4 17.8 6.8 33.4 7.3 54 1.8 95.9-27.6 126.8-89.3 11.8-23.4 22.2-52.9 37.6-106 14.1-48.7 19-61 27.2-69l4-3.9 50.7-.2c27.9-.1 50 .1 49.2.3-6.2 2.2-9.9 6.9-14.8 19.5-4.1 10.2-7.6 22.5-17.2 60.4-14.4 56.8-23.5 86.8-35.6 117.3-16.1 40.7-34.8 73.2-56.7 98.8-35.3 41.3-75.2 64.1-128.2 73.6-12.6 2.2-54.1 3.3-65.7 1.7z"/><path d="m619.5 371.2c10.2-6.3 18.6-26.4 27.6-66.2 5.5-24.3 10.4-51.3 19.9-110 4.5-27.8 10.1-61.8 12.5-75.6 12.1-69.4 22.8-105.2 34.6-115.9l3.9-3.5 49.8.1c32.1 0 48.6.4 46.5 1-14.4 4.2-27.4 48.5-43.8 148.9-20.3 124.4-23.3 140.6-31 170.5-7.1 27.9-14.4 44.5-21.8 49.7l-3.2 2.3-49 .3c-48.2.2-49 .2-46-1.6z"/><path d="m914.1 38.7c-2.4-1.2-5.7-4.2-7.5-6.6-2.8-3.9-3.1-5-3.1-11.5 0-6.1.4-7.8 2.5-10.9 9.2-13.6 29.6-12.6 36.1 1.8 3.5 7.7 2.1 17.2-3.5 23.3-5.7 6.4-16.7 8.1-24.5 3.9zm18.1-2.3c5-2.6 8.2-8 8.6-14.9.4-5.4.1-6.8-2.2-10.3-7.2-11.4-24.8-10.7-30.5 1.1-2.7 5.5-2.7 10.9 0 16.4 4.3 8.9 14.9 12.3 24.1 7.7z"/><path d="m916 20.6v-11.6h6c4.7 0 6.4.4 8 2 2.4 2.4 2.6 5.3.4 7.5-1.1 1-1.3 1.9-.6 2.8.5.7 1.3 3.4 1.6 6 .7 4.4.6 4.8-1.1 4.5-1.2-.2-2-1.5-2.3-3.8-.8-5-1.7-6-5-6-2.7 0-2.9.3-3.2 4.7-.2 3.6-.7 4.9-2 5.1-1.6.3-1.8-.7-1.8-11.2zm11.8-5c.5-2.3-1.4-3.6-5-3.6-2.5 0-2.8.4-2.8 3.1 0 2.9.2 3 3.7 2.7 2.8-.2 3.9-.8 4.1-2.2z"/></g></svg>