<?xml version="1.0" encoding="utf-8"?>
<!DOCTYPE svg PUBLIC "-//W3C//DTD SVG 20010904//EN" "http://www.w3.org/TR/2001/REC-SVG-20010904/DTD/svg10.dtd">
<svg version="1.0" xmlns="http://www.w3.org/2000/svg" width="944px" height="373px" viewBox="0 0 944 373" preserveAspectRatio="xMidYMid meet">
 <g fill="#ffffff">
  <path d="M95 186.5 l0 -186.5 100.5 0 c99.8 0 100.5 0 100.5 2 0 1.6 -0.7 2 -3.4 2 -4.9 0 -22.4 3.5 -32.9 6.5 -32.4 9.4 -66.7 31.8 -88.6 57.8 -48.5 57.6 -57.9 133.5 -24.8 199.3 25.5 50.7 74.7 88.2 129.7 99 5.2 1 9.7 2.2 9.8 2.6 0.2 0.5 2.1 0.8 4.3 0.8 2.8 0 3.9 0.4 3.9 1.5 0 1.3 -11.7 1.5 -99.5 1.5 l-99.5 0 0 -186.5z"/>
  <path d="M331 371.5 c0 -1.1 1.1 -1.5 4 -1.5 2.2 0 4 -0.4 4 -0.8 0 -0.4 3.9 -1.4 8.8 -2.1 17.6 -2.5 40.9 -9.6 57.7 -17.5 46.8 -22.1 86.6 -65.3 115.1 -125.1 17.5 -36.8 30.2 -75.3 48.4 -147 12.7 -49.9 16.7 -62.6 23.2 -72.7 l3 -4.8 62.9 0 c69.9 0 66.6 -0.4 59 6.5 -11.8 10.7 -22.5 46.5 -34.6 115.9 -2.4 13.8 -8 47.8 -12.5 75.6 -9.5 58.7 -14.4 85.7 -19.9 110 -7.2 32.1 -14.8 53 -22 61.3 l-3.3 3.7 -146.9 0 c-129.9 0 -146.9 -0.2 -146.9 -1.5z m276 -23.2 c12 -14.6 23.2 -57.4 37 -142.3 2.8 -16.8 5.5 -33.4 6.1 -37 1 -6 0.7 -9.3 -4.1 -40.5 -6.7 -44.5 -11.4 -70.4 -15 -84.4 -3 -11.3 -7.5 -22.1 -9.6 -22.8 -1.5 -0.5 -6.1 4.3 -9.1 9.5 -4.6 7.8 -10.3 26.2 -20.4 65.7 -10.6 41.2 -16.6 63 -22.3 80.9 l-3.5 10.9 5.5 36.6 c11.4 76.8 17 105.7 23.5 120.8 4 9.3 5.9 9.7 11.9 2.6z"/>
  <path d="M711 372 c0 -0.6 2.2 -3.2 4.9 -5.9 2.8 -2.8 6 -6.9 7.2 -9.3 4.2 -8.1 9.7 -24.4 13.7 -40.3 7.5 -29.4 10.6 -46.6 30.7 -169.5 13.8 -84.4 24.5 -126.7 36.4 -142.7 l3.1 -4.3 68.5 0 68.5 0 0 186.5 0 186.5 -24.7 -0.2 -24.8 -0.3 -0.7 -10 c-3 -40 -11.2 -120.7 -16.9 -165.5 -13.2 -104.8 -27.4 -166 -41.1 -177.5 -3.4 -2.9 -5 -2.4 -9.2 2.6 -4.5 5.3 -7.7 11.6 -11.8 23.2 -8.9 25.2 -16.1 59.3 -27.8 130.7 l-3.2 19.6 3.6 25.9 c7.6 55.2 16.6 134.1 16.6 146.1 l0 5.4 -46.5 0 c-30.7 0 -46.5 -0.3 -46.5 -1z"/>
  <path d="M290 270.6 c-17.4 -3.9 -32 -12.3 -44.1 -25.4 -9.8 -10.6 -15.5 -21.2 -19.6 -36.3 -2.5 -9 -2.5 -35.8 0 -44.8 4.2 -15.5 10 -26.1 20.2 -36.9 16.7 -17.8 34.7 -25.8 60 -26.9 10.7 -0.4 14.8 -0.1 23 1.6 12.7 2.6 27.2 9.6 37 17.8 l7 5.9 35.3 -31.4 35.4 -31.5 -5.4 -5.4 c-11.5 -11.9 -32.2 -26.9 -47.7 -34.8 -18 -9.1 -50.5 -18.5 -63.8 -18.5 -2.6 0 -3.3 -0.4 -3.3 -2 0 -2 0.7 -2 92.5 -2 91.8 0 92.5 0 92.5 2 0 1.1 -0.6 2 -1.4 2 -2.2 0 -9.2 8.3 -12.5 14.7 -4.4 8.8 -9.2 23.2 -19.2 57.7 -15.4 53.1 -25.8 82.6 -37.6 106 -26.2 52.3 -59.2 80.5 -103 88.1 -10.3 1.8 -37.3 1.8 -45.3 0.1z"/>
 </g>
 <g fill="#8bc042">
  <path d="M801.6 371.8 c-0.2 -0.7 -0.9 -7.1 -1.6 -14.3 -2.8 -31.8 -11.6 -106.1 -17.3 -145.4 l-2.4 -16.4 3.8 -23.1 c11.6 -71.6 18.7 -104.8 27.8 -130.4 8.4 -24.1 18 -33.2 26.9 -25.7 13.7 11.5 27.9 72.7 41.1 177.5 5.6 44 13.9 126 16.6 163 0.3 4.1 0.8 9.4 1.1 11.8 l0.5 4.2 -48.1 0 c-37.6 0 -48.1 -0.3 -48.4 -1.2z"/>
  <path d="M595.7 355.3 c-5.7 -6.4 -12.7 -34.7 -20.1 -81.3 -5.2 -33 -12.6 -83.4 -12.6 -86 0 -1.2 2 -8.6 4.5 -16.4 6.2 -19.9 10 -33.7 21.4 -78.1 13 -51 18 -65.1 25.7 -72.8 3.3 -3.3 6.5 -4.3 9.2 -2.8 4.9 2.6 10.8 21.4 16.2 51.5 4.1 22.9 14.1 88.2 14.2 92.6 0 3.5 -3.1 23.5 -9.7 62.5 -13.2 77.2 -23.9 115.5 -36 128.1 -3.4 3.6 -4.8 4.4 -7.7 4.4 -2.1 0 -4.1 -0.7 -5.1 -1.7z"/>
 </g>
 <g fill="#000000">
  <path d="M0 186.5 l0 -186.5 49 0 49 0 0 186.5 0 186.5 -49 0 -49 0 0 -186.5z"/>
  <path d="M285.8 371.9 c-75.2 -10.3 -137.2 -64.9 -156.1 -137.4 -4.7 -17.9 -6 -28.5 -6 -48.5 0.1 -20.5 1.8 -33.4 7.1 -51.5 13.4 -46.2 43.1 -84.1 85.6 -109.3 18 -10.7 36.9 -17.8 60.1 -22.4 9.4 -1.9 14.3 -2.3 33 -2.3 14.1 0 24.7 0.5 29.5 1.3 34.4 6.2 62.6 18.8 87.9 39.3 12.1 9.7 24 21.7 22.5 22.7 -0.5 0.4 -17.2 15.1 -37 32.7 -19.7 17.6 -36.7 32.6 -37.7 33.4 -1.5 1.2 -2.3 0.7 -7.3 -3.8 -17.4 -15.9 -39 -24 -60.9 -22.7 -22.6 1.2 -41.2 10 -57 26.8 -10.2 10.8 -16 21.5 -20.2 36.9 -2.4 8.8 -2.4 30 0 38.8 6.9 25.5 22.7 44.6 45.8 55.5 11.4 5.4 17.8 6.8 33.4 7.3 54 1.8 95.9 -27.6 126.8 -89.3 11.8 -23.4 22.2 -52.9 37.6 -106 14.1 -48.7 19 -61 27.2 -69 l4 -3.9 50.7 -0.2 c27.9 -0.1 50 0.1 49.2 0.3 -6.2 2.2 -9.9 6.9 -14.8 19.5 -4.1 10.2 -7.6 22.5 -17.2 60.4 -14.4 56.8 -23.5 86.8 -35.6 117.3 -16.1 40.7 -34.8 73.2 -56.7 98.8 -35.3 41.3 -75.2 64.1 -128.2 73.6 -12.6 2.2 -54.1 3.3 -65.7 1.7z"/>
  <path d="M619.5 371.2 c10.2 -6.3 18.6 -26.4 27.6 -66.2 5.5 -24.3 10.4 -51.3 19.9 -110 4.5 -27.8 10.1 -61.8 12.5 -75.6 12.1 -69.4 22.8 -105.2 34.6 -115.9 l3.9 -3.5 49.8 0.1 c32.1 0 48.6 0.4 46.5 1 -14.4 4.2 -27.4 48.5 -43.8 148.9 -20.3 124.4 -23.3 140.6 -31 170.5 -7.1 27.9 -14.4 44.5 -21.8 49.7 l-3.2 2.3 -49 0.3 c-48.2 0.2 -49 0.2 -46 -1.6z"/>
  <path d="M914.1 38.7 c-2.4 -1.2 -5.7 -4.2 -7.5 -6.6 -2.8 -3.9 -3.1 -5 -3.1 -11.5 0 -6.1 0.4 -7.8 2.5 -10.9 9.2 -13.6 29.6 -12.6 36.1 1.8 3.5 7.7 2.1 17.2 -3.5 23.3 -5.7 6.4 -16.7 8.1 -24.5 3.9z m18.1 -2.3 c5 -2.6 8.2 -8 8.6 -14.9 0.4 -5.4 0.1 -6.8 -2.2 -10.3 -7.2 -11.4 -24.8 -10.7 -30.5 1.1 -2.7 5.5 -2.7 10.9 0 16.4 4.3 8.9 14.9 12.3 24.1 7.7z"/>
  <path d="M916 20.6 l0 -11.6 6 0 c4.7 0 6.4 0.4 8 2 2.4 2.4 2.6 5.3 0.4 7.5 -1.1 1 -1.3 1.9 -0.6 2.8 0.5 0.7 1.3 3.4 1.6 6 0.7 4.4 0.6 4.8 -1.1 4.5 -1.2 -0.2 -2 -1.5 -2.3 -3.8 -0.8 -5 -1.7 -6 -5 -6 -2.7 0 -2.9 0.3 -3.2 4.7 -0.2 3.6 -0.7 4.9 -2 5.1 -1.6 0.3 -1.8 -0.7 -1.8 -11.2z m11.8 -5 c0.5 -2.3 -1.4 -3.6 -5 -3.6 -2.5 0 -2.8 0.4 -2.8 3.1 0 2.9 0.2 3 3.7 2.7 2.8 -0.2 3.9 -0.8 4.1 -2.2z"/>
 </g>
</svg>