<?xml version="1.0" encoding="utf-8"?>
<!DOCTYPE svg PUBLIC "-//W3C//DTD SVG 1.0//EN" "http://www.w3.org/TR/2001/REC-SVG-20010904/DTD/svg10.dtd">
<svg version="1.0" xmlns="http://www.w3.org/2000/svg" width="2184px" height="380px" viewBox="0 0 2184 380" preserveAspectRatio="xMidYMid meet">
 <g fill="#ffffff">
  <path d="M0 291 c0 -85.1 0.1 -89 1.8 -89 1.5 0 2 1.5 3.1 10.2 8.8 70.7 60.1 132.6 128.6 155.2 10.9 3.5 27.9 7.6 32.3 7.6 1.2 0 2.2 0.5 2.2 1 0 0.6 1.8 1 4 1 2.9 0 4 0.4 4 1.5 0 1.3 -10.4 1.5 -88 1.5 l-88 0 0 -89z"/>
  <path d="M204 378.5 c0 -1.1 1.1 -1.5 4 -1.5 2.2 0 4 -0.4 4 -1 0 -0.5 1.2 -1 2.8 -1 1.5 0 7.5 -1.1 13.4 -2.4 57 -13 104.2 -50.4 129.7 -102.9 15.1 -31.3 21.5 -65.1 18 -96.5 -6.1 -56.8 -37.2 -107.5 -85 -138.9 -12.4 -8.1 -31.4 -17.3 -45.2 -21.8 -12 -3.9 -35.1 -8.5 -42.8 -8.5 -4.2 0 -4.9 -0.3 -4.9 -2 0 -2 0.7 -2 993 -2 l993 0 0 190 0 190 -990 0 c-879.3 0 -990 -0.2 -990 -1.5z m962 -16.3 c2 -1.6 2.9 -5.6 8.1 -37.3 3.3 -19.5 6.1 -36.4 6.4 -37.6 0.4 -1.8 1.2 -2.3 3.6 -2.3 2.3 0 4.5 1.3 8.7 5.1 6.5 5.7 16.7 11.1 26.2 13.6 9 2.5 32 2.5 40.8 0 17.1 -4.7 29.9 -11.7 42.2 -23.4 23.2 -22 36.1 -54.1 34.7 -86.3 -0.8 -17.6 -5.2 -30.4 -15.4 -44.8 -8.4 -11.8 -23.3 -21.6 -40 -26.4 -11 -3.1 -27.7 -3.1 -38.8 0.1 -8.6 2.4 -19.6 7.6 -25.9 12.2 -2.6 1.9 -5.2 2.9 -7.4 2.9 l-3.5 0 0.6 -5.5 c0.8 -8.3 0.3 -8.5 -22.4 -8.5 -16.3 0 -18.9 0.2 -20.8 1.8 -1.9 1.5 -4.4 14.6 -22.7 118.2 l-20.5 116.5 2.2 1.7 c1.9 1.6 4.5 1.8 21.9 1.8 17.6 0 20 -0.2 22 -1.8z m52 -1.3 c0 -1 6.2 -1.2 35.3 -1.1 7.6 0 11.7 -0.3 11.7 -1 0 -0.8 3.4 -0.9 11 -0.4 8.3 0.5 11 0.4 11 -0.5 0 -0.9 2.7 -1 11 -0.5 8 0.5 11 0.4 11 -0.4 0 -0.8 2.1 -1 6.8 -0.8 6.7 0.5 142.4 -5.4 340.2 -14.7 17.3 -0.8 56.3 -2.6 86.5 -4 68.5 -3.2 92.4 -4.3 123.5 -6 20.8 -1 -27.3 -1.2 -318.7 -1.4 -188.8 0 -343.3 0 -343.3 0.2 0 0.1 -0.9 6.5 -2 14.2 -1.1 7.7 -2 14.5 -2 15.2 0 0.8 2.4 1.3 7.3 1.6 3.9 0.1 8 0.4 9 0.5 0.9 0.1 1.7 -0.3 1.7 -0.9z m-670.9 -54.4 c25.4 -3.8 45.9 -18.4 58.8 -41.8 9 -16.4 11.7 -27.9 29.7 -129.6 l15.6 -88.5 -2.2 -1.8 c-2 -1.6 -4.5 -1.8 -23 -1.8 -18.5 0 -21 0.2 -23 1.8 -2 1.6 -3.7 10.1 -18.1 91.7 -8.8 49.4 -16.6 92.6 -17.6 95.9 -3.5 13.1 -10.1 22.9 -17.7 26.6 -5.6 2.7 -19.2 3.7 -25.6 2 -6.5 -1.7 -12.5 -8.2 -14.5 -15.7 -2.5 -9 -3.2 -10.3 -5.7 -10.2 -4.9 0.1 -41.1 11.4 -42.2 13.1 -1.5 2.5 0.6 11.4 4.9 20.3 8.5 17.7 24.8 30.9 44.4 36 14 3.6 22.6 4.1 36.2 2z m882.2 -1.1 c23.6 -4.4 41.3 -12.9 54.9 -26.4 24.1 -24 29.6 -62 13.1 -89.9 -4.7 -7.8 -14.9 -17.6 -25.8 -24.6 -10.4 -6.7 -16.8 -9.9 -33 -16.5 -22.2 -9 -29 -13.2 -32.5 -20.6 -2 -3.9 -2.2 -5.7 -1.8 -14.2 0.5 -11.6 2.3 -15.8 9.8 -22.5 16.5 -14.8 53.7 -13.8 68.1 1.9 1.5 1.6 3.4 4.1 4.4 5.7 0.9 1.5 2.3 2.7 3 2.7 1.4 0 34.8 -26.4 35.3 -27.9 0.2 -0.5 -3.2 -4.5 -7.5 -8.8 -11.4 -11.4 -25.7 -19.2 -45.1 -24.5 -6.2 -1.8 -10.5 -2.2 -22.7 -2.2 -13.2 0 -16.3 0.3 -25.9 2.8 -13.5 3.5 -24.1 7.9 -33.6 14 -23.7 15.4 -37.2 38.6 -37.3 64.1 0 26.6 14.3 47.6 41.8 61.2 3.3 1.7 13 5.8 21.5 9.2 31.8 12.7 40.2 22.9 37.3 45.1 -1.7 12.9 -8.4 21.1 -21.3 26.2 -4.5 1.7 -8.2 2.2 -20.1 2.6 -9 0.2 -16.7 0 -20.2 -0.8 -7.9 -1.6 -18.1 -6.9 -24.8 -12.9 l-5.6 -5 -2.2 7.2 c-3.2 10 -9 22 -14.3 29.8 l-4.6 6.6 5.3 3.2 c12.4 7.5 31 13.8 47.7 16 9 1.2 25.3 0.5 36.1 -1.5z m-713.7 -0.9 c8.9 -1.7 19.7 -6.5 26.7 -11.8 3 -2.4 5.8 -3.7 7.7 -3.7 2.8 0 3 0.2 3 3.8 0 2.1 0.7 4.8 1.6 6 1.5 2.1 2 2.2 21.3 2.2 17.6 0 20 -0.2 21.4 -1.7 1 -1.2 2.1 -6.2 3.1 -14.3 0.9 -6.9 2.5 -17.2 3.6 -23 5.6 -30.3 23 -131.2 23 -133.4 0 -4.2 -2.4 -4.7 -24.1 -4.4 l-20.2 0.3 -1.8 2.5 c-1.2 1.8 -4.3 17 -10.4 51.5 -4.8 27 -9.5 51.4 -10.5 54.3 -4.2 12 -12.7 22.4 -21.9 26.9 -5 2.5 -6.9 2.8 -17.1 3.1 -10.4 0.3 -11.9 0.1 -15.9 -2 -7.4 -3.8 -8.6 -7.4 -8.6 -24.8 0 -13.7 0.5 -17.1 8.4 -61.5 l8.3 -46.9 -2.2 -1.8 c-2 -1.6 -4.5 -1.8 -22 -1.8 -17.4 0 -20 0.2 -21.8 1.8 -1.8 1.5 -3.5 9.6 -12.2 58.7 -6.8 38.9 -10 59.4 -10 64.5 0.1 22.4 11.1 40.6 30.1 49.9 13.8 6.7 26 8.4 40.5 5.6z m883 -1 c10.2 -1.8 17 -4.5 17.7 -7.1 0.3 -1.1 1.1 -8.4 1.7 -16.3 1.1 -12.5 1 -14.5 -0.3 -15.8 -1.2 -1.2 -4.5 -1.6 -16.1 -1.7 -18.4 -0.1 -18.1 0 -18 -12.9 0.1 -6.9 1.9 -18.7 7.3 -46.6 3.9 -20.6 7.1 -37.6 7.1 -37.8 0 -0.1 7.8 -0.3 17.3 -0.3 12.5 0 17.8 -0.4 19.1 -1.3 1.3 -0.9 2.5 -5.8 4.8 -18.5 4 -22.7 5.2 -21.2 -16.9 -21.2 l-16.3 0 0 -3.2 c-0.1 -1.8 1.4 -12.2 3.2 -23.1 l3.3 -19.9 -2.4 -1.9 c-2.1 -1.7 -4.1 -1.9 -20.8 -1.9 -14.5 0 -19 0.3 -21.3 1.5 -1.7 0.9 -3 1.7 -3 1.8 0 0.6 -7.1 41.6 -7.6 44 l-0.6 2.7 -12.8 0 c-10.7 0 -13.1 0.3 -14.9 1.8 -1.7 1.4 -2.7 4.8 -5.1 18.6 -3.8 21.7 -4.5 20.6 12.7 20.6 l12.3 0 0 4.1 c0 2.3 -3.2 21.3 -7 42.3 -3.9 20.9 -7.4 41.5 -7.7 45.6 -1 12.8 3 24.1 11.5 33.2 7.2 7.7 15.8 11.8 28.7 13.7 9.2 1.3 14.5 1.2 24.1 -0.4z m114.1 -2.1 c4.8 -1.4 11.6 -4.1 15.1 -6 3.7 -2 7.7 -3.4 9.7 -3.4 3.1 0 3.5 0.3 3.5 2.7 0 1.4 0.7 3.5 1.7 4.5 1.4 1.6 3.5 1.8 20.8 1.8 22.8 0 21.9 0.4 22.9 -11.5 1.2 -14.6 2.6 -23.6 10.2 -65.7 4.8 -26.9 7.4 -44.2 7.4 -49 0 -14.3 -4.5 -25.3 -14.5 -35.4 -20.5 -20.7 -58.5 -25.6 -96.2 -12.3 -13.5 4.8 -30.7 14.1 -31.9 17.2 -0.5 1.4 14.6 28.6 16.9 30.5 0.9 0.8 2.7 0.1 6.6 -2.3 7.1 -4.5 18.2 -9.1 26.8 -11.1 5 -1.2 10.3 -1.5 20.3 -1.2 11.9 0.3 14 0.6 17.6 2.7 2.3 1.3 4.7 3.5 5.4 4.9 1.5 3.4 2.4 15.3 1.2 16.9 -0.5 0.9 -6 1.6 -16.3 2.3 -19.8 1.3 -29 2.5 -41.4 5.5 -18.2 4.3 -31.5 10.3 -43.1 19.6 -28.4 22.6 -29.2 63.1 -1.6 82.1 15 10.3 38.3 13.2 58.9 7.2z m306.9 2.1 c4.8 -0.9 10.7 -2.4 13 -3.4 4.9 -2.2 4.9 -2.2 6.5 -21 0.9 -11.5 0.9 -13.6 -0.4 -14.9 -1.2 -1.1 -4.6 -1.5 -16.2 -1.6 -14.1 -0.1 -14.7 -0.2 -16.6 -2.5 -1.4 -1.7 -1.9 -3.9 -1.9 -8.6 0 -5 7.6 -48.9 14.1 -81.2 l1 -5.3 17.2 0 c9.5 0 17.7 -0.4 18.3 -0.8 2.2 -1.4 3.2 -4.9 5.9 -20.5 3.6 -21 4.7 -19.7 -17.2 -19.7 l-16.3 0 0 -3.7 c0 -2.1 1.4 -12.5 3.2 -23.1 l3.3 -19.4 -2.4 -1.9 c-2.3 -1.9 -3.8 -2 -22.2 -1.7 -16.3 0.2 -20.1 0.6 -21.4 1.9 -1 1 -2.9 9.5 -5.5 24.5 -2.2 12.6 -4 23 -4 23.2 0 0.1 -11.1 0.2 -24.7 0.2 -36.1 0.1 -45.1 1.6 -55.6 9.6 -3.8 2.9 -6.7 4.4 -8.7 4.4 -3 0 -3 -0.1 -3 -5.4 0 -8.4 -0.6 -8.6 -23.1 -8.6 l-18.8 0 -2 2.6 c-1.2 1.5 -2.1 4.1 -2.2 5.8 0 5.2 -3.1 23.4 -15.9 95.4 -9.2 51.6 -12.1 69.8 -11.3 71 0.9 1.5 3.8 1.7 22.6 2 21.5 0.2 21.6 0.2 23.1 -2 0.8 -1.3 5.1 -23.4 9.5 -49.3 4.5 -25.8 8.9 -49.5 9.7 -52.5 3.2 -11.1 8.5 -18.9 16.7 -24.3 9.6 -6.4 12.8 -6.9 46 -7.4 l29.7 -0.5 0 4.1 c0 2.2 -3.2 21.2 -7 42.2 -3.9 20.9 -7.3 41.5 -7.7 45.7 -1 14.1 3.7 26.3 13.9 35.7 11.2 10.4 30.1 14.5 50.4 11z m-1143.2 -3.8 c1.3 -1 3.7 -12.3 11 -53.5 8.6 -47.8 9.7 -52.8 12.9 -59.7 4.3 -8.9 11.5 -17 18.9 -21.1 4.7 -2.5 6.5 -2.9 15.9 -3.2 9.2 -0.4 11.1 -0.1 14.6 1.7 6.3 3.2 8.6 7.8 9.1 18.2 0.4 7.6 -0.7 15.3 -8.9 61.8 -7 40.1 -9.1 53.6 -8.3 54.9 1 1.5 3.7 1.7 22.6 2 19.5 0.2 21.6 0.1 23.1 -1.5 1 -1.2 3.9 -15.5 9.2 -45.3 10.3 -59 10.1 -58.4 14.6 -67.7 4.9 -10.2 11.6 -17.3 20.1 -21.3 5.7 -2.7 7.3 -3 16.3 -3 11.2 0 16.6 1.8 20.3 6.5 6.5 8.3 5.8 20.4 -4.8 80.8 -6.2 35.6 -8.1 48.3 -7.3 49.5 0.9 1.5 3.7 1.7 22.6 2 21.5 0.2 21.6 0.2 23.1 -2 1.9 -3 21.6 -114.8 21.6 -122.5 0 -7.4 -3.1 -20 -6.8 -27.3 -3.2 -6.5 -12.8 -16.6 -19.5 -20.4 -26.1 -15.2 -59.6 -10.7 -82.7 11 -8.9 8.4 -11.1 8.6 -16.7 1.1 -15.4 -20.3 -46.9 -27.1 -70.8 -15.3 -3.8 1.9 -8.9 5.1 -11.2 7 -3.1 2.7 -5 3.6 -7.8 3.6 -3.6 0 -3.7 0 -3.4 -3.9 0.2 -2.8 -0.2 -4.6 -1.5 -6 -1.8 -2 -3 -2.1 -20.6 -2.1 -23.3 0 -22.8 -0.2 -24.1 12 -1.3 11.3 -2 15.6 -15.8 94 -10.8 61.3 -11.7 67.7 -10.3 69.3 1.3 1.5 3.7 1.7 22.2 1.7 15.1 0 21.1 -0.3 22.4 -1.3z m410.3 -210.3 l39.3 -0.6 1 -4.1 c1.5 -5.8 5.3 -15.7 6.1 -15.7 0.4 0 1 -1.1 1.3 -2.5 0.4 -1.4 1.1 -2.5 1.6 -2.5 0.6 0 1 -0.7 1 -1.5 0 -0.8 0.5 -1.5 1 -1.5 0.6 0 1 -0.7 1 -1.5 0 -0.7 0.8 -1.8 1.7 -2.4 1 -0.5 1.5 -1.3 1.1 -1.7 -0.6 -0.5 -88.1 4.6 -129.8 7.6 -7.4 0.6 -20.7 1.5 -29.5 2 -8.8 0.6 -32.9 2.1 -53.5 3.5 -20.6 1.3 -45.4 2.9 -55 3.5 -9.6 0.6 -38.2 2.4 -63.5 4 -48.1 3.1 -107.1 6.9 -155.5 9.9 -23.8 1.6 -61.9 4 -67.5 4.5 -7.8 0.5 455.1 -0.3 499.2 -1z m838.3 -35.9 l0 -14.4 5.8 -0.4 c3.1 -0.2 0.1 -0.3 -6.8 -0.3 -6.9 0 -9.9 0.1 -6.7 0.3 l5.7 0.4 0 14.4 c0 9 0.4 14.5 1 14.5 0.6 0 1 -5.5 1 -14.5z m26.5 -10.5 c1.9 0 2.3 -0.4 1.8 -1.7 -0.8 -2.1 -2.3 -3.3 -4 -3.3 -1 0 -1.2 3.6 -1.1 15.3 l0.2 15.2 0.3 -12.7 0.4 -12.8 2.4 0z m29.5 10.6 c0 -13.9 -0.1 -14.5 -2.1 -15.1 -1.4 -0.5 -2.5 -0.2 -3 0.6 -1.5 2.3 -1 3.9 1.1 3.9 1.9 0 2 0.7 2 12.5 0 7.7 0.4 12.5 1 12.5 0.6 0 1 -5.5 1 -14.4z m-15.4 8.7 c-0.2 -0.3 -1.1 -0.3 -1.9 -0.1 -1.1 0.2 -1.2 0.9 -0.5 2.8 l1 2.5 0.9 -2.4 c0.5 -1.3 0.7 -2.6 0.5 -2.8z"/>
  <path d="M1218.9 263.7 c-10 -2.8 -16.6 -8.3 -21.7 -18.1 -2.4 -4.6 -2.7 -6.3 -3 -18.5 -0.5 -16.7 0.7 -23 6.4 -34.9 10.9 -22.5 31.2 -33.4 56.4 -30.3 13.6 1.7 21.4 7.3 26.9 19.1 2.3 4.9 2.6 6.9 2.9 19.7 0.3 11.8 0 15.5 -1.7 22.4 -4.9 19.3 -16.6 33.3 -32.8 39.1 -7.3 2.6 -26.3 3.5 -33.4 1.5z"/>
  <path d="M1692.5 266.1 c-4.4 -1.1 -7.1 -2.8 -9.4 -5.7 -1.7 -2.2 -2.1 -4.1 -2.1 -11 0 -7.9 0.2 -8.5 3.2 -11.9 7.4 -8.5 21.3 -12.4 47.7 -13.2 l18.4 -0.6 -0.6 6.2 c-1.2 13.5 -10.4 26.4 -23.5 32.8 -7.1 3.5 -7.9 3.7 -19 4 -6.5 0.1 -13 -0.1 -14.7 -0.6z"/>
  <path d="M174.5 372.4 c-1.6 -0.2 -7.1 -0.9 -12.2 -1.5 -27.6 -3.2 -58.5 -15.9 -82.4 -33.9 -36.7 -27.6 -61.1 -66.6 -69.4 -111 -4.1 -21.7 -3.8 -52.8 0.6 -74.4 4.7 -23.3 15.9 -49.3 29.7 -68.6 8.6 -12.2 30 -33.6 42.2 -42.2 11.7 -8.3 36.2 -20.7 49.1 -24.7 21.6 -6.8 27.7 -7.6 57.9 -7.6 24.9 0 28.5 0.3 38 2.3 22.6 4.9 44.6 14 63 26 33.2 21.5 60.4 56.7 72.5 93.7 10 30.5 12 67 5.4 99 -15.8 77.1 -80.7 135 -159.7 142.5 -10.1 0.9 -28 1.1 -34.7 0.4z m39.9 -22 c13.1 -2.1 27.5 -6.4 40.7 -12.3 33 -14.8 54.8 -39.2 63.4 -71.3 7.1 -26.5 5.2 -55.1 -5 -76.6 -6 -12.7 -13.4 -22 -33.6 -42.8 -23.6 -24 -25.3 -26.7 -25.4 -39.4 0 -7.7 0.3 -9 3.1 -14 4.5 -7.9 9.8 -11 20.2 -11.7 10.7 -0.8 20.8 1.6 32.7 7.6 5.1 2.5 9 4.1 8.7 3.5 -0.4 -0.7 -3.8 -4.9 -7.7 -9.4 -15.9 -18.7 -39.6 -35.3 -63.7 -44.9 -14.8 -5.8 -37.1 -6.5 -56.2 -1.6 -30.8 7.8 -45 26.6 -38.7 51 5.2 19.6 14.8 34.2 45.1 68.5 23.8 26.9 34.7 41.5 42.5 57 7.9 15.6 10.5 26.9 10.5 45 0 18.6 -2.6 29.3 -11.3 46.5 -9.1 18 -21.4 32.5 -35.9 42.2 l-7.7 5.1 4.2 -0.5 c2.3 -0.2 8.7 -1.1 14.1 -1.9z m-50.4 -18.4 c19.9 -5.6 36.6 -19.9 47.7 -40.7 12.7 -23.9 12.9 -40 0.5 -63.5 -6 -11.6 -15.1 -23.6 -35.4 -46.6 -31.5 -35.9 -40.2 -48 -48.3 -67.6 -4.8 -11.6 -6.5 -21.3 -6.5 -36.7 0 -15 1.5 -22.2 6.4 -31.5 l3.2 -6.2 -6.3 2.9 c-35.5 15.9 -56.7 41.9 -56.7 69.4 0.1 10.1 2.9 21.2 9.5 36.9 9.8 23.2 20 40.4 40.3 67.5 5.9 7.8 12.1 17.1 13.9 20.5 2.8 5.5 3.1 7 3.2 15.1 0 7.6 -0.4 9.8 -2.5 14 -3.9 7.7 -9.8 13.1 -16.6 15.1 -7.7 2.2 -23.2 1.5 -32.4 -1.6 -8.8 -2.9 -22.9 -10 -32.8 -16.5 l-8.2 -5.3 4.5 8.6 c10.6 20 30 42.3 47.7 54.8 18.1 12.8 46.9 17.5 68.8 11.4z m-51.5 -65.8 c3.7 -2.2 8.8 -10.3 8.8 -14 0 -4.3 -3.5 -10.5 -14 -24.7 -20.6 -28.1 -30.7 -44.9 -40.8 -67.9 -8.4 -19.4 -10.6 -27.6 -11.4 -43.6 l-0.6 -13.5 -2.9 4.5 c-4.5 6.9 -12.1 23.5 -15.6 33.7 -6.5 19.6 -9.5 41.8 -7.9 59.5 1 11.4 3.5 26.3 5 29 1.3 2.5 14.4 12.8 25.4 20.1 14 9.2 28.7 16 41 19.1 3.2 0.8 9.7 -0.4 13 -2.2z m231.6 -26.4 c3.8 -11.4 6.6 -24.6 8 -38.2 1.8 -18 -1.3 -40.8 -8.2 -61.1 -3 -8.9 -3.2 -9.1 -11.6 -16.5 -13.4 -11.8 -19 -15.7 -30.8 -21.5 -17.3 -8.4 -23.4 -8.8 -29.8 -1.9 -3.6 3.9 -4.2 7.5 -2.1 12.1 1 2.1 10 12.2 20.4 22.8 10.3 10.5 21.3 22.6 24.6 27 12.6 17 18.4 32.3 20.5 53.6 1.1 11.3 0.7 36 -0.6 44.4 -0.7 4.4 6.1 -10.3 9.6 -20.7z"/>
  <path d="M0 89 l0 -89 91 0 c87.9 0 91 0.1 91 1.9 0 1.6 -1.1 1.9 -8.7 2.5 -18.1 1.4 -42.1 8.1 -60.8 17 -39.2 18.7 -68.8 47.4 -88.5 85.6 -9.8 19.3 -16.6 40.9 -19.2 61.1 -1 8.4 -1.5 9.9 -3 9.9 -1.7 0 -1.8 -3.9 -1.8 -89z"/>
 </g>
 <g fill="#babcbc">
  <path d="M1196.5 360.8 c0.4 -2.9 0.9 -7.5 1.2 -10.3 0.3 -2.7 0.7 -6.6 1 -8.5 0.3 -1.9 0.6 -4.6 0.8 -6 0.2 -1.4 0.6 -4 1 -5.7 l0.8 -3.3 61.8 0 61.9 0 0 13.5 0 13.4 8.3 0.3 c7.5 0.3 8.2 0.5 8.5 2.4 0.3 2 -0.2 2.2 -8.7 2.9 -5 0.4 -11.7 0.4 -15.1 0 -4.5 -0.5 -6 -0.4 -6 0.6 0 0.9 -2.5 1.1 -11 0.6 -7.9 -0.5 -11 -0.3 -11 0.5 0 0.8 -3.1 0.9 -11 0.5 -7.3 -0.4 -11 -0.3 -11 0.4 0 0.6 -4.5 1 -12.2 1 -30.2 -0.1 -34.8 0.1 -34.8 1 0 0.7 -3.7 0.8 -11 0.4 -7.9 -0.6 -11 -0.4 -11 0.4 0 0.6 -0.7 1.1 -1.6 1.1 -1.4 0 -1.6 -0.8 -0.9 -5.2z"/>
  <path d="M1345.2 356.3 l0.3 -2.8 9 0 c8.4 0 9 0.1 9.3 2.1 0.3 1.9 -0.3 2.2 -6.5 2.7 -12 1.2 -12.5 1.1 -12.1 -2z"/>
  <path d="M1367 355.6 c0 -2.7 1.7 -3.6 6.3 -3.6 5 0 7.7 1.1 7.7 3 0 1.8 -4.1 3 -10.7 3 -2.8 0 -3.3 -0.4 -3.3 -2.4z"/>
  <path d="M1389 354.6 c0 -1.8 0.7 -2.5 3.1 -3 7.6 -1.5 14.9 -0.3 14.9 2.4 0 1.4 -1.2 1.8 -6.7 2.3 -10.9 1.1 -11.3 1 -11.3 -1.7z"/>
  <path d="M1411 353.8 c0 -2.1 0.6 -2.7 3.1 -3.2 3.9 -0.8 8.7 -0.8 11.7 0 3.1 0.9 3 4.4 -0.2 4.4 -1.2 0 -5.1 0.3 -8.5 0.6 -6 0.7 -6.1 0.7 -6.1 -1.8z"/>
  <path d="M1436 352.5 c0 -2.3 0.4 -2.5 4.5 -2.5 3.7 0 4.5 0.3 4.5 1.9 0 1.3 -1 2 -3.1 2.5 -5.1 1 -5.9 0.8 -5.9 -1.9z"/>
  <path d="M1458 351.5 c0 -2.3 0.4 -2.5 4.5 -2.5 3.7 0 4.5 0.3 4.5 1.9 0 1.3 -1 2 -3.1 2.5 -5.1 1 -5.9 0.8 -5.9 -1.9z"/>
  <path d="M2020.4 326.5 c3 -1.6 5.6 -1.4 5.6 0.5 0 0.5 -1.9 1 -4.2 1 l-4.3 0 2.9 -1.5z"/>
  <path d="M0.6 205.8 c-1.1 -4.2 -0.7 -5.8 1.4 -5.8 1.7 0 2 0.7 2 4 0 4.5 -2.3 5.7 -3.4 1.8z"/>
  <path d="M0 178.3 c0 -3.4 1.2 -6.3 2.6 -6.3 1 0 1.4 1.3 1.4 4 0 3.3 -0.3 4 -2 4 -1.2 0 -2 -0.7 -2 -1.7z"/>
  <path d="M1163 91.5 l0 -2.5 21.5 0 c20.4 0 21.5 0.1 21.5 1.9 0 2.7 -3.4 3.1 -24.6 3.1 l-18.4 0 0 -2.5z"/>
  <path d="M1212 90.6 l0 -2.6 20 0 20 0 0 -13.5 0 -13.5 -3.5 0 c-2.4 0 -3.5 -0.5 -3.5 -1.5 0 -0.8 0.7 -1.5 1.5 -1.5 0.8 0 1.5 -0.4 1.5 -0.9 0 -0.5 3.9 -0.9 8.8 -0.9 4.8 0 11.7 0 15.4 0 3.7 0 7.3 -0.4 8 -0.9 0.7 -0.4 4.5 -0.8 8.3 -0.9 7.2 -0.1 20.4 -0.9 33.5 -1.9 4.1 -0.4 9.8 -0.6 12.5 -0.6 2.8 0 7.4 -0.4 10.4 -0.9 3.4 -0.6 5.9 -0.6 7 0 0.9 0.5 1.1 1 0.4 1 -1.7 0 -7.4 5.1 -6.8 6 0.3 0.5 -0.3 1.4 -1.4 2 -1.2 0.6 -1.8 1.6 -1.5 2.5 0.4 0.9 0 1.5 -1 1.5 -1 0 -1.3 0.6 -1 1.5 0.4 1 0 1.5 -1.1 1.5 -0.9 0 -1.3 0.5 -1 1 0.3 0.6 0.2 1 -0.4 1 -0.6 0 -0.8 0.7 -0.5 1.5 0.4 0.9 0 1.5 -1 1.5 -1 0 -1.3 0.6 -1 1.5 0.4 0.8 0.1 1.5 -0.6 1.5 -0.6 0 -0.8 0.5 -0.5 1 0.3 0.6 0.1 1 -0.5 1 -0.6 0 -0.8 0.5 -0.5 1 0.3 0.6 0.1 1 -0.5 1 -0.7 0 -1 0.7 -0.6 1.5 0.3 0.8 0.1 1.5 -0.5 1.5 -0.6 0 -0.8 0.9 -0.4 2 0.4 1.1 0.2 2 -0.4 2 -0.6 0 -0.8 0.7 -0.5 1.5 1.6 4.1 0.4 4.1 -60.4 4.9 l-58.2 0.7 0 -2.5z"/>
  <path d="M1166 64.5 c0 -0.8 0.7 -1.5 1.5 -1.5 0.8 0 1.5 -0.4 1.5 -1 0 -1.1 3.3 -1.3 6.8 -0.4 2.5 0.7 2.9 2.9 0.6 3.8 -0.9 0.3 -3.6 0.6 -6 0.6 -3.2 0 -4.4 -0.4 -4.4 -1.5z"/>
  <path d="M1182 63.6 c0 -0.9 0.6 -1.6 1.4 -1.6 0.8 0 1.6 -0.5 1.8 -1.1 0.3 -0.8 1.7 -1 4.2 -0.5 2.8 0.5 3.6 1.1 3.4 2.4 -0.4 2.4 -10.8 3.1 -10.8 0.8z"/>
  <path d="M1202 62.6 c0 -1.3 2.8 -2.6 5.8 -2.6 0.6 0 1.2 0.9 1.2 2 0 1.6 -0.7 2 -3.5 2 -2.3 0 -3.5 -0.5 -3.5 -1.4z"/>
  <path d="M1213 61.5 c0 -0.8 0.6 -1.5 1.4 -1.5 0.8 0 1.6 -0.5 1.8 -1.1 0.3 -0.8 1.9 -1 5.1 -0.5 3.7 0.6 4.7 1.1 4.7 2.7 0 1.7 -0.7 1.9 -6.5 1.9 -5.1 0 -6.5 -0.3 -6.5 -1.5z"/>
  <path d="M1229 60.5 c0 -0.8 0.6 -1.5 1.4 -1.5 0.8 0 1.6 -0.5 1.8 -1.1 0.3 -0.8 2 -0.9 5.6 -0.4 4.2 0.5 5.2 1.1 5.2 2.6 0 1.7 -0.8 1.9 -7 1.9 -5.6 0 -7 -0.3 -7 -1.5z"/>
  <path d="M2181 53.5 c0 -1.9 0.4 -3.5 0.9 -3.5 1.3 0 2.3 3.4 1.5 5.4 -1.1 2.8 -2.4 1.8 -2.4 -1.9z"/>
 </g>
 <g fill="#b0b1b2">
  <path d="M1317.3 358.4 c-0.9 -0.9 -1.3 -5.7 -1.3 -16.4 l0 -15 57 0 57 0 0 14.1 0 14.2 -3.7 -0.8 c-5.5 -1.2 -11.4 -0.9 -12.3 0.5 -0.6 0.9 -2.4 1.1 -6.6 0.5 -8.8 -1.1 -14.5 -0.9 -15.4 0.5 -0.8 1.2 -12.4 1 -17.7 -0.3 -1.3 -0.3 -2.9 0 -3.7 0.9 -1.7 1.6 -9.2 1.9 -10.1 0.4 -1 -1.7 -11.5 -1.2 -12.1 0.5 -0.7 1.7 -8.9 2.1 -9.9 0.5 -0.3 -0.5 -3.3 -1 -6.6 -1 -4.6 0 -5.9 0.3 -5.9 1.5 0 0.8 -0.9 1.5 -2 1.5 -1.1 0 -2 -0.6 -2 -1.2 0 -0.9 -0.4 -0.8 -1 0.2 -0.9 1.3 -1 1.3 -1 0 0 -1 -0.3 -1.1 -0.8 -0.4 -0.5 0.9 -1 0.8 -1.9 -0.2z"/>
  <path d="M1431 352 l0 -3 6.5 0 c6.3 0 6.5 0.1 6.5 2.5 0 2.2 -0.3 2.5 -2.5 1.9 -1.5 -0.4 -2.5 -0.2 -2.5 0.5 0 0.6 -1.7 1.1 -4 1.1 -3.8 0 -4 -0.2 -4 -3z"/>
  <path d="M1452.2 351.3 c0.3 -2.7 0.5 -2.8 7.1 -3.1 6.6 -0.3 6.7 -0.3 6.7 2.3 0 2.2 -0.3 2.5 -2.5 1.9 -1.5 -0.4 -2.5 -0.2 -2.5 0.5 0 0.6 -1.9 1.1 -4.6 1.1 -4.4 0 -4.5 -0.1 -4.2 -2.7z"/>
  <path d="M1475 350 c0 -2.9 0.1 -3 4.9 -3 6.1 0 8.1 0.7 8.1 3 0 1.9 -3.6 3 -9.6 3 -3.1 0 -3.4 -0.3 -3.4 -3z"/>
  <path d="M1497 349.5 c0 -2.4 0.3 -2.5 6 -2.5 5.2 0 6 0.2 6 1.9 0 2.1 -2.6 3.1 -8.2 3.1 -3.4 0 -3.8 -0.3 -3.8 -2.5z"/>
  <path d="M1519 348.5 c0 -2.4 0.3 -2.5 6 -2.5 5.2 0 6 0.3 6 1.9 0 1.9 -3.4 3.1 -9.1 3.1 -2.4 0 -2.9 -0.4 -2.9 -2.5z"/>
  <path d="M1543 347.5 c0 -2.3 0.4 -2.5 4.5 -2.5 4.1 0 4.5 0.2 4.5 2.5 0 2.3 -0.4 2.5 -4.5 2.5 -4.1 0 -4.5 -0.2 -4.5 -2.5z"/>
  <path d="M1565 346.5 c0 -2.3 0.4 -2.5 4.5 -2.5 4.1 0 4.5 0.2 4.5 2.5 0 2.3 -0.4 2.5 -4.5 2.5 -4.1 0 -4.5 -0.2 -4.5 -2.5z"/>
  <path d="M1080 91.5 l0 -2.5 12.3 -0.1 c6.7 -0.1 25.5 -0.5 41.7 -0.8 l29.5 -0.6 0.3 -10.2 0.3 -10.3 -4.6 0 c-3.3 0 -4.5 -0.4 -4.5 -1.5 0 -2 1.4 -2.2 54.3 -5.2 l47.7 -2.8 0 16.7 0 16.8 -21 0 c-11.8 0 -21 0.4 -21 0.9 0 0.5 -10.2 0.7 -24.5 0.3 -18.1 -0.4 -24.5 -0.2 -24.5 0.6 0 0.9 -11.2 1.2 -43 1.2 l-43 0 0 -2.5z"/>
  <path d="M1124 67.6 c0 -0.7 1 -1.6 2.3 -2 4.1 -1.1 5.7 -0.7 5.7 1.4 0 1.7 -0.7 2 -4 2 -2.7 0 -4 -0.4 -4 -1.4z"/>
  <path d="M1139 66.6 c0 -1.5 3 -2.6 7.3 -2.6 2 0 2.7 0.5 2.7 2 0 1.7 -0.7 2 -5 2 -3.6 0 -5 -0.4 -5 -1.4z"/>
 </g>
 <g fill="#a4a6a7">
  <path d="M1427 341 l0 -14 53 0 53 0 0 6.9 c0 3.7 0.3 9 0.7 11.6 l0.6 4.7 -6.1 -0.7 c-4.7 -0.5 -6.2 -0.4 -6.2 0.6 0 0.9 -2.6 1.1 -11 0.6 -7.1 -0.4 -11 -0.2 -11 0.4 0 1.1 -12.9 0.7 -18.7 -0.6 -2.7 -0.6 -3.3 -0.4 -3.3 0.9 0 1.3 -1.2 1.6 -6.9 1.6 -3.9 0 -7.3 -0.4 -7.6 -1 -1 -1.6 -7.5 -1.2 -8.1 0.5 -0.5 1.1 -2.2 1.5 -6.9 1.5 -3.5 0 -6.7 -0.4 -7 -1 -1 -1.7 -7.5 -1.2 -7.5 0.5 0 1 -1.1 1.5 -3.5 1.5 l-3.5 0 0 -14z"/>
  <path d="M1538 347 l0 -3 6.5 0 6.5 0 0 3 c0 1.7 -0.4 3 -1 3 -0.5 0 -1 -0.4 -1 -1 0 -0.5 -0.7 -1 -1.5 -1 -0.8 0 -1.5 0.5 -1.5 1 0 0.6 -1.8 1 -4 1 -3.8 0 -4 -0.2 -4 -3z"/>
  <path d="M1560 346 l0 -3 6.5 0 6.5 0 0 3 c0 1.7 -0.4 3 -1 3 -0.5 0 -1 -0.4 -1 -1 0 -0.5 -0.7 -1 -1.5 -1 -0.8 0 -1.5 0.5 -1.5 1 0 0.6 -1.8 1 -4 1 -3.8 0 -4 -0.2 -4 -3z"/>
  <path d="M1582.2 345.3 c0.2 -2.3 0.9 -2.9 3.2 -3.1 1.6 -0.2 4.4 -0.1 6.3 0.3 2.7 0.5 3.3 1.1 3.3 3 0 2.4 -0.3 2.5 -6.6 2.5 l-6.5 0 0.3 -2.7z"/>
  <path d="M1604.2 344.3 c0.2 -2.3 0.9 -2.9 3.2 -3.1 1.6 -0.2 4.4 -0.1 6.3 0.3 2.7 0.5 3.3 1.1 3.3 3 0 2.4 -0.3 2.5 -6.6 2.5 l-6.5 0 0.3 -2.7z"/>
  <path d="M1626 343.5 c0 -2.4 0.3 -2.5 6 -2.5 5.2 0 6 0.2 6 1.9 0 2.1 -2.6 3.1 -8.2 3.1 -3.4 0 -3.8 -0.3 -3.8 -2.5z"/>
  <path d="M1650 342.5 c0 -2.3 0.3 -2.5 5 -2.5 4.2 0 5 0.3 5 1.9 0 2 -2.5 3.1 -7.2 3.1 -2.3 0 -2.8 -0.4 -2.8 -2.5z"/>
  <path d="M1672 341.5 c0 -2.3 0.4 -2.5 4.5 -2.5 3.7 0 4.5 0.3 4.5 1.9 0 1.9 -2.5 3.1 -6.7 3.1 -1.8 0 -2.3 -0.6 -2.3 -2.5z"/>
  <path d="M0 179.8 c0 -3 1.3 -5.8 2.6 -5.8 0.9 0 1.4 1.2 1.4 3.5 0 2.8 -0.4 3.5 -2 3.5 -1.1 0 -2 -0.6 -2 -1.2z"/>
  <path d="M1057 91 l0 -3 11 0 11 0 0.1 -3.7 c0.1 -2.1 0 -5.3 -0.1 -7.2 -0.1 -1.9 0.4 -3.7 1.2 -4.2 0.9 -0.6 0.7 -0.9 -0.9 -0.9 -3.6 0 -2.8 -2.8 1 -3.4 5 -0.9 86.1 -5.4 86.7 -4.9 0.2 0.2 0.5 6.3 0.5 13.4 0.1 12.3 -0.1 13 -2 13.4 -1.1 0.2 -20 0.6 -42 1 -24.1 0.3 -40.1 1 -40.3 1.5 -0.2 0.6 -5.9 1 -13.3 1 l-12.9 0 0 -3z"/>
  <path d="M1014.2 74.3 c0.2 -1.3 1.4 -1.9 4.1 -2.1 3.2 -0.3 3.7 0 3.7 1.7 0 1.8 -0.6 2.1 -4.1 2.1 -3.3 0 -4 -0.3 -3.7 -1.7z"/>
  <path d="M1027 73.6 c0 -1.6 3 -2.6 7.8 -2.6 2.5 0 3.2 0.4 3.2 2 0 1.8 -0.7 2 -5.5 2 -4 0 -5.5 -0.4 -5.5 -1.4z"/>
  <path d="M1043 72.6 c0 -1.6 3 -2.6 8.3 -2.6 3 0 3.7 0.4 3.7 2 0 1.8 -0.7 2 -6 2 -4.4 0 -6 -0.4 -6 -1.4z"/>
  <path d="M1061.2 71.3 c0.2 -1.4 1.5 -1.9 5.1 -2.1 4.2 -0.3 4.7 -0.1 4.7 1.7 0 1.8 -0.6 2.1 -5.1 2.1 -4.3 0 -5 -0.3 -4.7 -1.7z"/>
 </g>
 <g fill="#979a9b">
  <path d="M1531 348.5 c0 -0.8 -0.4 -1.6 -1 -1.6 -0.5 -0.1 -1.6 -0.2 -2.2 -0.3 -1.6 -0.1 -1.8 -14.8 -0.3 -17 0.9 -1.1 1.1 0.5 1 7 -0.1 4.7 0.1 8.7 0.5 8.9 0.3 0.2 0.5 -3.1 0.5 -7.3 -0.1 -4.2 0.1 -8.5 0.3 -9.4 0.4 -1.7 4.4 -1.8 65.8 -1.8 l65.4 0 0 5.5 c0 3 0.5 5.5 1 5.5 0.6 0 1 1.4 1 3.1 l0 3.2 -5 -0.7 c-3.6 -0.5 -5 -0.3 -5 0.5 0 0.9 -3.1 1.1 -11.9 0.6 -6.6 -0.3 -12.1 -0.2 -12.3 0.2 -0.4 1.1 -14.8 2.2 -14.8 1.2 0 -1.7 -5.4 -2.3 -6.5 -0.8 -1.1 1.5 -15.5 3.2 -15.5 1.8 0 -1.7 -5.4 -2.3 -6.5 -0.8 -1.5 2.1 -14.1 3.1 -14.9 1.2 -0.7 -2 -7.6 -2.1 -7.6 -0.1 0 2 -13.2 3 -14.3 1 -1.1 -2 -7.7 -1.9 -7.7 0.1 0 1.1 -1.2 1.5 -5 1.5 -3.8 0 -5 -0.4 -5 -1.5z"/>
  <path d="M1667 341 l0 -3 6.5 0 c6.3 0 6.5 0.1 6.5 2.5 0 2.2 -0.3 2.5 -2.5 1.9 -1.5 -0.4 -2.5 -0.2 -2.5 0.5 0 0.6 -1.7 1.1 -4 1.1 -3.8 0 -4 -0.2 -4 -3z"/>
  <path d="M1689.2 340.3 c0.3 -2.5 0.8 -2.8 4.2 -3.1 6.1 -0.5 8.6 0.4 8.6 3.3 0 2.4 -0.2 2.5 -6.6 2.5 l-6.5 0 0.3 -2.7z"/>
  <path d="M1711.2 339.3 c0.3 -2.5 0.8 -2.8 4.2 -3.1 6.1 -0.5 8.6 0.4 8.6 3.3 0 2.4 -0.2 2.5 -6.6 2.5 l-6.5 0 0.3 -2.7z"/>
  <path d="M1733 338.5 c0 -2.4 0.3 -2.5 6 -2.5 5.7 0 6 0.1 6 2.5 0 2.4 -0.3 2.5 -6 2.5 -5.7 0 -6 -0.1 -6 -2.5z"/>
  <path d="M1755 337.5 c0 -2.4 0.3 -2.5 6 -2.5 5.7 0 6 0.1 6 2.5 0 2.4 -0.3 2.5 -6 2.5 -5.7 0 -6 -0.1 -6 -2.5z"/>
  <path d="M976 91 c0 -1.6 0.5 -3 1 -3 0.6 0 1 -2 1 -4.5 l0 -4.5 -5 0 c-3.7 0 -5 -0.4 -5 -1.5 0 -2 1.5 -2.2 24 -3.5 10.7 -0.6 22 -1.3 25 -1.5 3 -0.2 11.1 -0.7 18 -1.1 6.9 -0.3 13.9 -0.8 15.5 -0.9 1.7 -0.2 9.9 -0.6 18.3 -1 l15.2 -0.7 0 3.6 c0 2.2 -0.5 3.6 -1.2 3.6 -0.8 0 -0.9 0.3 -0.3 0.8 1.6 1.1 1.8 6.4 0.3 7.3 -0.7 0.5 -0.8 0.9 -0.3 0.9 0.6 0 1.2 1.4 1.3 3 l0.2 3 -12 0 c-10 0 -12 0.2 -12 1.5 0 1.3 -5.3 1.5 -42 1.5 l-42 0 0 -3z"/>
  <path d="M1085.1 79.4 c0 -5.9 0.2 -10.5 0.4 -10.2 0.7 0.7 0.9 19.7 0.3 20.4 -0.3 0.2 -0.6 -4.3 -0.7 -10.2z"/>
  <path d="M921 80 c0 -1.6 0.7 -2 3.5 -2 2.8 0 3.5 0.4 3.5 2 0 1.6 -0.7 2 -3.5 2 -2.8 0 -3.5 -0.4 -3.5 -2z"/>
  <path d="M936 79 c0 -1.7 0.7 -2 4 -2 3.3 0 4 0.3 4 2 0 1.7 -0.7 2 -4 2 -3.3 0 -4 -0.3 -4 -2z"/>
  <path d="M952 78 c0 -1.7 0.7 -2 4.5 -2 3.8 0 4.5 0.3 4.5 2 0 1.7 -0.7 2 -4.5 2 -3.8 0 -4.5 -0.3 -4.5 -2z"/>
 </g>
 <g fill="#8a8c8e">
  <path d="M173.3 379.3 c-2.2 -0.8 -1.4 -2.3 1.2 -2.3 1.6 0 2.5 0.6 2.5 1.5 0 1.5 -1.4 1.8 -3.7 0.8z"/>
  <path d="M1660 342.4 c0 -0.8 -0.4 -1.2 -1 -0.9 -0.5 0.3 -1 -0.3 -1 -1.4 0 -1.7 -0.7 -2.1 -3.2 -2.2 l-3.3 -0.2 3.5 -0.7 3.5 -0.7 -3.2 -0.2 c-2.8 -0.1 -3.3 -0.5 -3.3 -2.6 0 -2.1 0.5 -2.5 3.3 -2.6 l3.2 -0.2 -3.5 -0.7 -3.5 -0.7 3.3 -0.2 c1.7 0 3.2 -0.5 3.2 -1.1 0 -0.7 19.8 -1 57.5 -1 l57.5 0 0 5.9 0 5.8 -4.2 0.7 c-2.7 0.4 -4.4 0.3 -4.6 -0.4 -0.4 -1.2 -5.9 -1.4 -6.4 -0.2 -0.5 1.3 -15.8 2.4 -15.8 1.2 0 -0.6 -1.3 -1 -3 -1 -1.6 0 -3 0.4 -3 0.9 0 0.4 -3.2 1.1 -7.2 1.3 -5.3 0.4 -7.5 0.2 -8.6 -0.8 -1.7 -1.8 -4.9 -1.8 -5.9 0 -1.2 2 -14.1 2.9 -16 1.1 -1.9 -1.9 -5.2 -1.9 -5.9 0 -0.5 1.1 -2.3 1.5 -7.4 1.5 -3.8 0 -7.2 -0.4 -7.5 -1 -1 -1.7 -7.5 -1.2 -7.5 0.5 0 1.1 -1.2 1.5 -5 1.5 -3.9 0 -5 -0.4 -5 -1.6z m-2 -8.9 c0 -1 -0.9 -1.5 -2.7 -1.4 -1.6 0 -2.2 0.3 -1.4 0.6 1.1 0.5 1.1 0.7 0 1.4 -1 0.6 -0.6 0.9 1.4 0.9 1.7 0 2.7 -0.5 2.7 -1.5z"/>
  <path d="M1775.2 336.3 c0.3 -2.5 0.7 -2.8 4.3 -2.8 3.6 0 4 0.3 4.3 2.8 0.3 2.6 0.2 2.7 -4.3 2.7 -4.5 0 -4.6 -0.1 -4.3 -2.7z"/>
  <path d="M1818 334.5 c0 -2.3 0.4 -2.5 4.5 -2.5 4.1 0 4.5 0.2 4.5 2.5 0 2.3 -0.4 2.5 -4.5 2.5 -4.1 0 -4.5 -0.2 -4.5 -2.5z"/>
  <path d="M2014.8 327.3 c1.2 -0.2 3.2 -0.2 4.5 0 1.2 0.2 0.2 0.4 -2.3 0.4 -2.5 0 -3.5 -0.2 -2.2 -0.4z"/>
  <path d="M0.6 203.8 c-1 -3.8 -0.7 -4.8 1.4 -4.8 1.6 0 2 0.7 2 3.5 0 4 -2.4 4.9 -3.4 1.3z"/>
  <path d="M690.3 93.3 c0.9 -0.2 2.5 -0.2 3.5 0 0.9 0.3 0.1 0.5 -1.8 0.5 -1.9 0 -2.7 -0.2 -1.7 -0.5z"/>
  <path d="M887 87.6 l0 -6.4 4.8 -0.6 c5 -0.6 14.1 -1.2 30.7 -2.2 5.5 -0.3 12.5 -0.7 15.5 -0.9 5.3 -0.4 21.3 -1.3 35.1 -1.9 3.7 -0.2 8 -0.1 9.5 0.2 l2.9 0.6 -2.5 0.7 c-2.4 0.7 -2.4 0.7 -0.2 0.8 1.7 0.1 2.2 0.7 2.2 2.6 0 1.9 -0.5 2.5 -2.2 2.6 -2.2 0.1 -2.2 0.1 0.2 0.9 2.4 0.8 2.4 0.8 0.3 0.9 -1.3 0.1 -2.3 0.7 -2.3 1.6 0 0.9 1 1.5 2.3 1.6 2.1 0.1 2.1 0.1 -0.3 0.8 l-2.5 0.8 2.5 0.5 c2.3 0.5 2.3 0.5 0.3 0.7 -1.4 0 -2.3 0.8 -2.4 1.9 0 1.4 -0.2 1.4 -0.9 -0.3 -0.7 -1.7 -0.9 -1.7 -0.9 -0.2 -0.1 1.6 -3 1.7 -46.1 1.7 l-46 0 0 -6.4z m96.1 -6.3 c-1.1 -0.5 -1.1 -0.7 0 -1.4 1.1 -0.7 1 -0.9 -0.3 -0.9 -1 0 -1.8 0.7 -1.8 1.5 0 0.8 0.8 1.5 1.8 1.4 1.2 0 1.3 -0.2 0.3 -0.6z"/>
 </g>
 <g fill="#7e8182">
  <path d="M174.3 379.3 c-2.4 -0.9 -1.3 -2.3 1.7 -2.3 2 0 3 0.5 3 1.5 0 1.5 -2.2 1.9 -4.7 0.8z"/>
  <path d="M201 378.5 c0 -1 1.1 -1.5 3.5 -1.5 3.6 0 4.7 1.3 1.9 2.4 -2.8 1.1 -5.4 0.6 -5.4 -0.9z"/>
  <path d="M1765.1 338.7 c0.9 -0.9 1.6 -1.1 2 -0.5 0.4 0.7 0.9 0.6 1.2 -0.1 0.3 -0.7 0.5 -0.7 0.3 0.1 -0.1 0.7 -1.3 1.5 -2.5 1.6 -2 0.3 -2.1 0.2 -1 -1.1z"/>
  <path d="M1770 333 l0 -6 49.9 0 c54.4 0 51.1 -0.4 51.1 5.6 0 2.3 -0.2 2.4 -7.3 2.4 -4 0 -14.4 0.5 -23.2 1.1 -11.3 0.7 -16.1 0.7 -16.3 0 -0.4 -1.3 -2.9 -1.5 -3.4 -0.2 -0.1 0.5 -9 1.4 -19.7 2 -18.1 1.1 -19.4 1 -20.7 -0.6 -1.2 -1.7 -1.3 -1.7 -1.9 0 -0.5 1.2 -1.8 1.7 -4.6 1.7 l-3.9 0 0 -6z"/>
  <path d="M1904 330.5 c0 -2.3 0.4 -2.5 4.5 -2.5 4.1 0 4.5 0.2 4.5 2.5 0 2.3 -0.4 2.5 -4.5 2.5 -4.1 0 -4.5 -0.2 -4.5 -2.5z"/>
  <path d="M0.6 202.8 c-1.2 -4.5 -0.7 -6.8 1.4 -6.8 1.7 0 2 0.7 2 4.5 0 4.9 -2.3 6.4 -3.4 2.3z"/>
  <path d="M0 182.3 c0 -4.3 1.1 -7.3 2.6 -7.3 1 0 1.4 1.4 1.4 5 0 4.3 -0.3 5 -2 5 -1.5 0 -2 -0.7 -2 -2.7z"/>
  <path d="M807 90.6 c0 -1.9 0.5 -3.8 1 -4.1 1.3 -0.8 33.8 -3.2 70.3 -5.2 l11.7 -0.6 0 6.6 0 6.7 -41.5 0 -41.5 0 0 -3.4z"/>
  <path d="M178.2 2.3 c0.2 -1.3 1.4 -1.9 4.1 -2.1 3.2 -0.3 3.7 0 3.7 1.7 0 1.8 -0.6 2.1 -4.1 2.1 -3.3 0 -4 -0.3 -3.7 -1.7z"/>
  <path d="M194 1.9 c0 -1.7 0.5 -2 3.7 -1.7 2.7 0.2 3.9 0.8 4.1 2.1 0.3 1.4 -0.4 1.7 -3.7 1.7 -3.5 0 -4.1 -0.3 -4.1 -2.1z"/>
 </g>
 <g fill="#727677">
  <path d="M176.3 379.3 c-2.2 -0.8 -1.4 -2.3 1.2 -2.3 1.6 0 2.5 0.6 2.5 1.5 0 1.5 -1.4 1.8 -3.7 0.8z"/>
  <path d="M200 378.5 c0 -0.9 0.9 -1.5 2.5 -1.5 2.8 0 3.4 1.5 0.9 2.4 -2.5 1 -3.4 0.7 -3.4 -0.9z"/>
  <path d="M1867.2 331 l-0.2 -4 74.7 0.1 c76.3 0.2 82.6 0.8 30.8 2.9 -15.4 0.7 -35.6 1.5 -45 1.9 -9.3 0.4 -17.1 0.4 -17.3 -0.1 -0.5 -1.1 -3.2 -1 -3.2 0.1 0 0.5 -6.6 1.2 -14.7 1.5 -8.2 0.3 -17 0.8 -19.8 1.1 l-5 0.5 -0.3 -4z"/>
  <path d="M0.6 199.8 c-1 -3.8 -0.7 -4.8 1.4 -4.8 1.6 0 2 0.7 2 3.5 0 4 -2.4 4.9 -3.4 1.3z"/>
  <path d="M693.1 93.5 c0.5 -0.4 8 -1 56.9 -4 13.5 -0.9 31 -2 39 -2.5 21.8 -1.4 22.9 -1.4 22.7 1 -0.1 1.1 -0.4 2 -0.8 2 -0.4 0 -0.5 0.9 -0.2 2 0.5 2 0 2 -58.8 2 -32.6 0 -59 -0.2 -58.8 -0.5z"/>
  <path d="M180 2.3 c0 -1.3 0.9 -1.9 3.5 -2 2.9 -0.3 3.5 0 3.5 1.7 0 1.6 -0.7 2 -3.5 2 -2.7 0 -3.5 -0.4 -3.5 -1.7z"/>
  <path d="M193 2 c0 -1.7 0.6 -2 3.5 -1.7 2.6 0.1 3.5 0.7 3.5 2 0 1.3 -0.8 1.7 -3.5 1.7 -2.8 0 -3.5 -0.4 -3.5 -2z"/>
 </g>
 <g fill="#0047bb">
  <path d="M188.2 352.2 c21.4 -11 37 -26.9 48.5 -49.7 8.3 -16.3 11.3 -28 11.3 -43.5 0 -30.2 -12 -52.7 -53 -99 -30.6 -34.6 -40.1 -49.1 -45.1 -69 -5.8 -22.8 2.2 -40.8 22.5 -50.8 20.8 -10.3 57.8 -12.2 78.4 -4.1 34.4 13.6 64.4 39.5 82.8 71.4 l2.8 5 -4.9 -4.1 c-18.7 -15.3 -40.5 -24.6 -53.9 -23 -11.5 1.5 -19.9 11 -19.9 22.5 0 9.5 3.1 14 25.2 36.5 20.8 21.3 27.9 30.4 34 43.9 4.8 10.4 6.8 17.7 8.1 29.7 6 57.7 -17.5 101.1 -66.9 123.1 -20.6 9.2 -40.2 13.7 -63.6 14.5 l-14 0.5 7.7 -3.9z"/>
  <path d="M125.5 336.5 c-22.1 -4.2 -33.7 -10.7 -52.5 -29.6 -15 -15.1 -26.9 -32.4 -33.9 -49.4 -5.1 -12.4 -5.2 -12.3 3.3 -6.1 36.4 27 66.8 34.6 80.9 20.3 9.6 -9.7 11.7 -21 5.9 -32.3 -1.7 -3.4 -7.9 -12.7 -13.8 -20.5 -20.3 -27.1 -30.5 -44.3 -40.3 -67.5 -7.3 -17.5 -9.5 -26.6 -9.5 -39.9 -0.1 -19.7 5.7 -33.1 20.8 -48.1 14.5 -14.3 31.9 -24.3 54.9 -31.4 2.7 -0.8 2.6 -0.7 -1.6 4 -5.4 6 -11 16.5 -13.1 24.6 -2.1 8 -2.1 24.2 0 34.2 1.7 8.1 6.4 20.5 11 28.8 7.7 13.8 17 25.9 42.2 54.6 27.2 30.9 36.9 45.4 42.4 62.8 3.4 11.2 3.2 26.5 -0.6 37.5 -9.9 28.9 -29.8 49.4 -54.6 56.5 -10 2.9 -30.2 3.6 -41.5 1.5z"/>
  <path d="M1394 310.4 c-22.2 -2.8 -45.6 -11.1 -56.5 -19.8 l-3 -2.4 3.3 -4.4 c9.1 -12.1 16.6 -27.9 20.1 -42 0.9 -3.8 1.9 -6.8 2.2 -6.8 0.3 0 1.9 2 3.6 4.4 6.2 8.8 19.7 17.3 31.2 19.7 8.5 1.7 27.3 0.7 34.1 -2 15.8 -6 24.2 -20.3 21 -35.5 -2.5 -12 -12.4 -19.8 -37.8 -30 -26.3 -10.6 -36.2 -16.5 -46.2 -27.3 -11.4 -12.5 -16.4 -26.4 -16.4 -45.8 0.1 -18.2 4.1 -31.3 13.8 -44.8 12.6 -17.6 31.6 -29.7 57.2 -36.3 10 -2.6 12.4 -2.9 28.9 -2.8 15.3 0 19.2 0.3 25.7 2.1 19 5.3 33.6 13.2 44.5 24 7.7 7.6 9.7 11 8.5 14.3 -0.4 1.2 -8.6 8.4 -18.2 16 -18.8 15 -21.3 16.2 -25 11.7 -6.9 -8.3 -8.8 -10.2 -12 -12.1 -17 -10.6 -42.3 -9.2 -56 3.1 -6.6 5.9 -9.2 11.1 -9.8 19.5 -0.6 8.6 1.9 14.3 8.6 19.1 6.1 4.4 9.9 6.3 25.7 12.7 16.2 6.6 22.6 9.8 33 16.5 23.4 15 34 32.6 35.2 58 0.9 19.3 -3 35.6 -11.9 49.2 -17.1 26.2 -47.2 40.6 -87.3 41.8 -7.1 0.2 -14.6 0.1 -16.5 -0.1z"/>
  <path d="M1571.5 306.9 c-7.5 -1.1 -14.8 -3.5 -20 -6.4 -5.7 -3.2 -13.1 -11.5 -16 -17.8 -6.4 -13.8 -6 -23.7 3.4 -74.3 3.9 -21 7.1 -38.6 7.1 -39.3 0 -0.8 -3.8 -1.1 -12.3 -1.1 -17.9 0 -17.5 0.8 -12.7 -26.5 2.4 -13.9 3.4 -17.3 5.1 -18.7 1.8 -1.5 4.2 -1.8 14.9 -1.8 l12.8 0 0.6 -2.8 c0.5 -2.3 7.6 -43.3 7.6 -43.9 0 -0.1 1.3 -0.9 3 -1.8 2.3 -1.2 7.1 -1.5 24.5 -1.5 21.6 0 21.6 0 24 2.5 1.4 1.3 2.5 3 2.5 3.7 0 0.7 -1.6 10.5 -3.5 21.7 -1.9 11.2 -3.5 20.8 -3.5 21.2 0 0.5 7.5 1 16.6 1.1 22.8 0.4 21.7 -1.2 17 24.8 -2.6 14.4 -4 19.8 -5.3 20.7 -1.2 0.9 -6.6 1.3 -19 1.3 -9.5 0 -17.3 0.2 -17.3 0.3 0 0.2 -3.2 17.2 -7.1 37.8 -7.6 40.3 -8.5 48.7 -5.6 51.6 2.2 2.2 15.9 3.1 23.4 1.5 5.2 -1.2 8.7 0.1 10 3.5 0.9 2.2 -1.6 35.3 -2.8 37.4 -3 5.6 -29.4 9.4 -47.4 6.8z"/>
  <path d="M1674.8 306.5 c-32.3 -6.1 -48.9 -29.6 -43.6 -61.2 3.4 -19.7 14 -33.8 33.8 -44.6 17.7 -9.7 38.1 -14.5 71.9 -16.7 10.3 -0.7 15.8 -1.4 16.3 -2.3 0.9 -1.3 0.3 -6.8 -1.3 -10.8 -0.6 -1.4 -2.9 -3.6 -5.2 -4.9 -6.1 -3.5 -22.2 -4 -33.5 -1.2 -7.9 2 -19.8 7.3 -29.3 12.9 -4.4 2.6 -4.7 2.7 -7.1 1.1 -3.2 -2.1 -19.8 -30.8 -19.8 -34.2 0 -3.2 4.7 -7 15.8 -12.8 18.9 -10 38.9 -15 60.2 -15.2 27 -0.2 45.9 6.1 59.5 19.8 10.6 10.8 14.5 21 14.5 38.4 0 8.5 -1.3 17.9 -7.4 52 -7.6 42.1 -9 51.1 -10.2 65.7 -1 12.1 0.3 11.5 -25.9 11.5 -20.2 0 -22.3 -0.2 -23.8 -1.8 -1 -1 -1.7 -3.1 -1.7 -4.5 0 -1.5 -0.2 -2.7 -0.5 -2.7 -0.2 0 -3.3 1.5 -6.7 3.4 -14.7 8.1 -38.3 11.5 -56 8.1z m48.6 -46.9 c11.5 -5.6 20.6 -17.3 23.1 -29.5 l0.7 -3.4 -15.3 0.6 c-23.4 0.9 -37.7 5.1 -44.7 13.2 -2.7 3 -3.2 4.3 -3.2 8.9 0 10.7 6.7 14.8 23.3 14.2 7.7 -0.3 9.7 -0.8 16.1 -4z"/>
  <path d="M1990.5 306.5 c-16.2 -3 -27.4 -10.5 -33.4 -22.6 -7.2 -14.3 -6.8 -23.9 2.8 -75.7 3.9 -21 7.1 -38.7 7.1 -39.3 0 -0.8 -7.4 -1 -26.7 -0.6 -29.9 0.5 -33.7 1.2 -43 7.4 -8.2 5.4 -13.5 13.2 -16.7 24.3 -0.8 3 -5.2 26.7 -9.7 52.5 -4.4 25.9 -8.7 48 -9.5 49.3 -1.4 2.2 -1.6 2.2 -25.9 2.2 l-24.5 0 -1.6 -2.5 c-1.6 -2.4 -1 -5.9 11.2 -74.3 13.2 -74.3 16.3 -92.5 16.3 -97.8 0.1 -1.7 1 -4.3 2.2 -5.8 l2 -2.6 21.9 0 c19.9 0 22 0.2 24.1 1.9 2 1.6 2.3 2.7 2.1 7 l-0.2 5.1 5.7 -4.4 c10.5 -8 19.5 -9.5 55.6 -9.6 13.6 0 24.7 -0.1 24.7 -0.2 0 -0.2 1.8 -10.6 4 -23.2 2.6 -15 4.5 -23.5 5.5 -24.5 1.3 -1.3 5.4 -1.7 24.1 -1.9 24.1 -0.3 26.4 0.1 27.9 4.7 0.3 1.1 -1 11.2 -3 22.4 -1.9 11.2 -3.5 20.9 -3.5 21.5 0 0.8 5.1 1.2 16.6 1.4 16.5 0.3 16.7 0.3 18.5 2.8 1.9 2.5 1.8 2.8 -1.1 19.5 -3.7 21 -3.7 21 -5.6 22.9 -1.3 1.3 -4.5 1.6 -18.9 1.6 l-17.4 0 -1 5.3 c-4.7 23.4 -14.1 75.6 -14.1 78.2 0 1.8 0.9 4.3 1.9 5.6 1.8 2.2 2.6 2.4 12.3 2.4 5.6 0 11.8 -0.3 13.5 -0.7 2.6 -0.6 3.8 -0.3 6 1.6 l2.7 2.3 -1.2 17.2 c-0.7 9.5 -1.7 18.2 -2.2 19.5 -2.4 6.5 -30.8 10.6 -49.5 7.1z"/>
 </g>
 <g fill="#3f3f3f">
  <path d="M177.3 379.3 c-2.7 -1 -1.1 -2.3 2.7 -2.3 2.9 0 4 0.4 4 1.5 0 1.5 -3.9 2 -6.7 0.8z"/>
  <path d="M196 378.5 c0 -1.1 1.1 -1.5 4 -1.5 4 0 5.3 1.3 2.4 2.4 -2.9 1.1 -6.4 0.7 -6.4 -0.9z"/>
  <path d="M0.6 198.8 c-0.7 -3 -0.7 -14.6 0 -17.5 0.4 -1.3 1.3 -2.3 2 -2.3 1.1 0 1.4 2.3 1.4 11 0 8.7 -0.3 11 -1.4 11 -0.7 0 -1.6 -1 -2 -2.2z"/>
  <path d="M181 2.6 c0 -1.7 3.1 -2.6 9 -2.6 5.9 0 9 0.9 9 2.6 0 1.1 -2 1.4 -9 1.4 -7 0 -9 -0.3 -9 -1.4z"/>
 </g>
 <g fill="#000000">
  <path d="M172 379 c-42.6 -3 -88.1 -25 -119 -57.7 -26.9 -28.4 -44.6 -64 -50.5 -101.6 -2.5 -16.2 -1.8 -53.1 1.4 -67.7 12.7 -58.1 49.3 -105.4 102.1 -132 12 -6 24 -10.4 38.2 -13.9 17.6 -4.4 24.8 -5.2 46.8 -5.2 16.6 0 21.5 0.4 33.2 2.5 75.3 14 134.6 71.2 151.2 145.7 9.3 42.2 4.4 84.6 -14.5 123.6 -19 39.1 -50.4 70.4 -89.2 88.8 -31.5 15 -61.2 20.2 -99.7 17.5z m34.2 -10 c106.9 -10.2 181.2 -110.1 159.8 -215 -9.4 -46 -38.4 -88.5 -78 -114.2 -18.4 -12 -40.5 -21.1 -63 -26 -9.3 -2 -13.3 -2.2 -35 -2.2 -26.9 0 -33.9 0.9 -54.9 7.5 -12.9 4 -37.4 16.4 -49.1 24.7 -12.2 8.6 -33.6 30 -42.2 42.2 -42.6 60.1 -44.2 141.4 -4 202.4 20.2 30.6 50.8 55.6 84 68.7 13.2 5.1 29.8 9.5 41.5 10.8 5.1 0.6 10.6 1.3 12.2 1.5 6.5 0.7 18.5 0.6 28.7 -0.4z"/>
  <path d="M322.5 288.5 c8.9 -22.5 12 -44.5 9.6 -69.4 -2.1 -21.3 -7.9 -36.6 -20.5 -53.6 -3.2 -4.4 -13.9 -16.1 -23.6 -26 -9.7 -9.9 -18.6 -19.3 -19.7 -21 -5 -7.3 -4.6 -15.7 0.9 -21.4 7 -7.2 17.7 -6.4 35.5 2.4 11.6 5.8 17.4 9.9 30.6 21.5 8.4 7.4 8.6 7.6 11.6 16.5 15.9 46.5 9.9 98.2 -16.2 140 -5.7 9.1 -9.5 14.2 -8.2 11z"/>
  <path d="M96.5 271.4 c-12.7 -3.2 -27 -9.9 -41 -19.1 -11 -7.3 -24.1 -17.6 -25.4 -20.1 -0.5 -1 -1.7 -5.6 -2.5 -10.2 -6.8 -35.7 -2.3 -70.9 13.4 -103.8 4.6 -9.5 12.7 -22.8 18.3 -29.7 l2.5 -2.9 -2 7.4 c-1.6 6.2 -1.9 9.8 -1.5 20.5 0.6 15.4 2.7 23.4 11.2 43.1 10.1 23 20.2 39.8 40.8 67.9 12.2 16.6 14.2 20.4 14.2 27.6 0 4.4 -0.6 6.5 -3 10.4 -4 6.5 -8 8.7 -16.3 9.1 -3.7 0.1 -7.6 0.1 -8.7 -0.2z"/>
  <path d="M1119 365.2 c-1.5 -1.2 -2.3 -2.9 -2.2 -4.8 0 -1.6 9.3 -55.3 20.6 -119.4 18.3 -103.6 20.8 -116.7 22.7 -118.3 1.9 -1.5 4.6 -1.7 23.8 -1.7 26.1 0 26.6 0.2 25.9 8.6 -0.5 5.7 -0.5 5.7 4.7 1.8 5.3 -3.9 16.8 -9.2 25 -11.6 11.5 -3.2 33.5 -3.3 44.8 0 16.8 4.8 31.6 14.6 40 26.4 10.8 15.3 14.7 27.1 15.4 47.4 1.3 35.9 -10.7 67 -34.7 89.7 -12.3 11.7 -25 18.7 -42.2 23.5 -9 2.4 -37.6 2.4 -46.8 -0.1 -9.5 -2.5 -19.7 -7.9 -26.2 -13.7 -5.5 -4.9 -5.8 -5 -6.3 -2.8 -0.3 1.3 -3.1 18.2 -6.4 37.7 -5.2 31.7 -6.1 35.7 -8.1 37.3 -2 1.6 -4.5 1.8 -25 1.8 -20.6 0 -23 -0.2 -25 -1.8z m130.3 -106 c11.7 -4.2 21.6 -13.2 28.1 -25.7 7.2 -13.9 8.9 -37.9 3.5 -49.5 -5.3 -11.3 -13.5 -17.4 -25.5 -18.9 -22 -2.6 -41.4 8.6 -51.8 30.1 -5.5 11.5 -7 18.6 -6.4 32 0.3 8.7 0.8 11.1 3.1 15.4 5 9.7 11.6 15.3 21.6 18.1 6.4 1.8 20.2 1 27.4 -1.5z"/>
  <path d="M519.8 309.9 c-14.7 -2.1 -26.4 -6.7 -36.5 -14.2 -12.5 -9.3 -21.9 -24.1 -25.1 -39.6 -2.4 -11.9 -3 -11.4 23.6 -19.1 14.9 -4.2 22.9 -6 24.7 -5.6 2.8 0.7 3.6 2.1 6 10.9 3.1 11.5 12.5 17.6 24.4 16.2 13.8 -1.6 22.4 -10.8 27.4 -29.1 1 -3.3 8.8 -46.5 17.6 -95.9 14.4 -81.6 16.1 -90.1 18.1 -91.7 2 -1.6 4.6 -1.8 26 -1.8 21.7 0 24 0.2 26.1 1.9 1.7 1.3 2.3 2.8 2.2 5.2 -0.3 6.6 -31.4 179.6 -34.4 190.7 -6.6 25.2 -13.6 38 -27.7 51.4 -12.4 11.6 -25.1 17.8 -42.1 20.3 -10.4 1.6 -21.3 1.7 -30.3 0.4z"/>
  <path d="M687.5 307.4 c-22.5 -4.6 -39 -20.4 -44.1 -42 -3.2 -13.8 -2.4 -21.2 8.6 -83.5 8.7 -49.4 10.4 -57.6 12.2 -59.1 1.8 -1.6 4.6 -1.8 24.8 -1.8 20.6 0 23 0.2 25.1 1.8 1.4 1.2 2.2 2.9 2.2 4.8 0 1.6 -3.8 24 -8.4 49.9 -7.2 40.5 -8.3 48.6 -8.4 58.5 0 14.1 1.6 18.2 8.6 21.8 6.3 3.3 19.1 2.8 27.1 -1.1 9.1 -4.5 17.6 -14.9 21.8 -26.9 1 -2.9 5.7 -27.3 10.5 -54.3 6.1 -34.6 9.2 -49.7 10.4 -51.5 l1.8 -2.5 23.2 -0.3 c24.4 -0.3 26.6 0.1 27.7 4.1 0.4 2 -9.4 60.8 -22.1 131.2 -1.9 10.5 -4.1 24.6 -5 31.5 -1.1 8 -2.2 13.1 -3.2 14.3 -1.4 1.5 -4 1.7 -24.4 1.7 -22.4 0 -22.8 0 -24.3 -2.2 -0.9 -1.2 -1.6 -3.9 -1.6 -6 l0 -3.8 -4.7 3.7 c-14.9 11.4 -37.3 15.9 -57.8 11.7z"/>
  <path d="M828.7 302.2 c-1 -1 -1.7 -2.8 -1.7 -4 0 -1.2 5.4 -33.1 12.1 -70.9 14 -79.9 14.5 -83 15.8 -94.3 1.4 -12.4 0.4 -12 27 -12 l21.8 0 2.2 2.4 c1.8 1.9 2.2 3.3 1.9 6 -0.2 2 -0.2 3.6 0 3.6 0.2 0 2.3 -1.6 4.5 -3.6 10.5 -8.9 27.8 -14.1 43.2 -12.9 20.9 1.6 35 8.3 44.8 21.2 l3.9 5.3 6.8 -6.4 c3.8 -3.5 9.6 -8.1 13.1 -10.1 27.5 -16.1 65.7 -12.9 85.8 7.4 7.5 7.5 11.2 14.2 14.1 25.5 3.6 14.3 3.1 19.8 -8.1 83 -5.6 31.4 -10.7 58.1 -11.5 59.4 -1.4 2.2 -1.6 2.2 -25.9 2.2 l-24.5 0 -1.6 -2.5 c-1.6 -2.4 -1.2 -4.9 7.1 -52.3 9 -51.5 10.5 -63.8 8.6 -70.8 -2.4 -9.1 -9 -13.3 -20.6 -13.4 -13.9 0 -26 8.8 -33.4 24.3 -4.5 9.3 -4.3 8.7 -14.6 67.7 -5.2 29.5 -8.2 44.1 -9.2 45.3 -1.5 1.5 -4 1.7 -25.9 1.7 l-24.4 0 -1.6 -2.5 c-1.6 -2.5 -1.3 -4.9 8.1 -58.2 10.6 -60.2 10.9 -63.7 6.5 -70.8 -3.5 -5.6 -8.9 -7.8 -18 -7.3 -5.9 0.3 -8.7 1.1 -12.8 3.3 -7.4 4 -14.6 12.1 -18.9 21 -3.2 6.9 -4.3 11.9 -12.9 59.7 -7.3 41.2 -9.7 52.5 -11 53.5 -1.3 1 -7.9 1.3 -25.4 1.3 -21.7 0 -23.8 -0.2 -25.3 -1.8z"/>
  <path d="M2120 56.5 l0 -14.4 -5.7 -0.3 c-5.7 -0.3 -5.8 -0.3 -5.8 -3.3 l0 -3 15.3 -0.3 15.2 -0.3 0 3.6 0 3.5 -5.5 0 -5.5 0 0 14.5 0 14.5 -4 0 -4 0 0 -14.5z"/>
  <path d="M2145 53 l0 -18 4.3 0 c2.3 0 4.7 0.4 5.3 0.8 0.6 0.4 2.8 5.8 5 12 2.1 6.1 4.1 11.2 4.4 11.2 0.4 0 1.2 -1.7 1.9 -3.7 0.8 -2.1 2.7 -7.5 4.3 -12.1 l3 -8.3 4.7 0.3 4.6 0.3 0.3 17.8 0.2 17.7 -3.5 0 -3.5 0 -0.1 -12.7 -0.1 -12.8 -4.2 12.5 c-4.1 12.1 -4.3 12.5 -7.3 12.8 -3.3 0.3 -3 1 -10.2 -19.8 l-2 -5.5 0 12.8 -0.1 12.7 -3.5 0 -3.5 0 0 -18z"/>
 </g>
</svg>