<?xml version="1.0" encoding="UTF-8"?>
<!-- Generated by Pixelmator Pro 3.7.1 -->
<svg width="1195" height="610" viewBox="0 0 1195 610" xmlns="http://www.w3.org/2000/svg">
    <path id="Path-copy-29" fill="#1a1919" fill-rule="evenodd" stroke="none" d="M 1193.152954 505.713867 C 1193.152954 563.013672 1146.702881 609.459473 1089.407104 609.459473 L 103.811279 609.459473 C 46.51123 609.459473 0.06543 563.013672 0.06543 505.713867 L 0.06543 104.876221 C 0.06543 47.576172 46.51123 1.126221 103.811279 1.126221 L 1089.407104 1.126221 C 1146.702881 1.126221 1193.152954 47.576172 1193.152954 104.876221 Z"/>
    <path id="Path-copy-28" fill="#fffffe" stroke="none" d="M 337.859192 466.299072 L 339.546692 473.257568 C 334.771667 480.84082 330.655029 487.02417 327.188354 491.803223 C 323.717529 496.58667 320.179993 500.990723 316.567505 505.02417 C 312.950806 509.057617 309.871643 512.065918 307.321655 514.036621 C 304.775818 516.011719 302.484192 517.257568 300.450806 517.77832 C 295.60498 519.02417 291.192505 518.190918 287.213318 515.27417 C 283.238342 512.370117 280.53833 507.986572 279.117493 502.136719 C 277.488342 495.411621 277.196655 488.411621 278.250854 481.140869 C 279.304993 473.870117 281.438354 466.08667 284.646667 457.803223 C 287.85498 449.515869 292.09668 440.053223 297.380005 429.411621 C 301.317505 421.549072 303.188354 417.21167 302.992493 416.40332 C 302.875854 415.932617 302.617493 415.570068 302.209167 415.315918 C 301.796692 415.070068 301.400818 414.990723 301.005005 415.09082 C 299.759155 415.411621 296.613342 419.21582 291.563354 426.507568 C 286.513306 433.803223 280.28833 444.219971 272.892517 457.757568 C 265.492493 471.303223 257.800842 487.128418 249.813354 505.249268 C 249.35083 506.219971 247.934143 509.499268 245.563354 515.070068 C 243.192505 520.64502 241.459167 524.320068 240.363342 526.103271 C 239.259155 527.882568 238.188354 528.90332 237.138306 529.174072 C 235.304993 529.64917 233.255005 528.14917 230.992493 524.699219 C 228.72583 521.240723 227.071655 517.361572 226.025818 513.053223 C 225.388306 510.432617 225.53833 507.39502 226.47583 503.940918 C 227.41333 500.482422 229.72998 494.128418 233.429993 484.857422 C 237.130005 475.58252 240.16333 467.786621 242.525818 461.46582 C 244.888306 455.14502 247.334167 447.59082 249.867493 438.799072 C 251.655029 432.695068 252.900818 427.882568 253.613342 424.34082 C 254.317505 420.799072 254.375854 417.820068 253.79248 415.39917 C 253.28418 413.311768 252.442505 412.419922 251.263306 412.724121 C 248.771667 413.365723 244.91748 417.978271 239.692505 426.561768 C 234.47168 435.15332 228.429993 447.469971 221.571655 463.515869 C 214.713318 479.553223 207.925842 497.83252 201.209167 518.34082 C 199.075867 525.320068 197.509155 530.044922 196.509155 532.515869 C 195.505005 534.982422 194.088318 536.453369 192.255005 536.919922 C 189.959167 537.511719 187.205017 535.553223 183.992493 531.053223 C 180.779968 526.561768 178.796692 522.761719 178.046692 519.669922 C 177.800842 518.661621 177.921692 517.449219 178.41333 516.036621 C 184.192505 501.986572 188.859192 490.107422 192.421692 480.407471 C 195.984192 470.70752 199.025818 461.59082 201.546692 453.053223 C 204.067505 444.515869 205.72998 437.58667 206.525818 432.27417 C 207.321655 426.96582 207.388306 422.928223 206.72168 420.165771 C 206.017517 417.27417 204.388306 416.161621 201.834167 416.815918 C 199.734131 417.349121 196.500854 419.64502 192.125854 423.690918 C 187.750854 427.740723 182.29248 433.140869 175.750854 439.886719 C 169.209167 446.636719 163.921692 451.865723 159.880005 455.58252 C 155.838318 459.290771 152.675842 461.445068 150.384155 462.036621 C 148.217529 462.58667 146.838318 461.620117 146.234131 459.132568 C 145.892517 457.71582 145.563354 454.357422 145.246643 449.040771 C 144.934204 443.728271 145.013306 439.90332 145.492493 437.565918 C 146.209167 434.52417 148.871643 430.061768 153.459167 424.169922 C 158.046692 418.27832 160.638306 415.257568 161.22998 415.103271 C 161.755005 414.969971 162.075806 415.140869 162.188354 415.607422 C 162.250854 415.874268 162.088318 416.353271 161.692505 417.02002 C 159.546692 419.928223 157.992493 422.257568 157.021667 424.003418 C 156.054993 425.753418 155.609131 427.511719 155.688354 429.27832 C 165.888367 418.807617 175.246643 410.424072 183.775818 404.132568 C 192.304993 397.84082 198.404968 394.224121 202.075806 393.282471 C 203.90918 392.811768 205.950806 393.628418 208.200806 395.732422 C 210.450867 397.84082 212.554993 400.407471 214.509155 403.436768 C 216.463318 406.474121 217.550842 408.46167 217.78418 409.40332 C 218.613342 412.83667 218.746643 417.107422 218.175842 422.219971 C 217.609192 427.328369 216.617493 433.349121 215.200806 440.286621 C 213.78833 447.21582 212.046692 455.882568 209.97583 466.27002 C 212.28833 460.890869 214.517517 455.890869 216.66748 451.27417 C 218.817505 446.64917 220.97583 442.128418 223.138306 437.71582 C 225.304993 433.303223 227.509155 428.844971 229.759155 424.34082 C 232.79248 418.20752 236.400818 412.15332 240.592529 406.190918 C 244.78418 400.228271 248.834167 395.182617 252.742493 391.078369 C 256.650818 386.96582 259.421692 384.699219 261.063354 384.27832 C 263.35498 383.695068 265.717529 384.46582 268.146667 386.59082 C 270.575806 388.719971 272.150818 391.265869 272.871643 394.224121 C 273.34668 396.178223 273.005005 400.228271 271.85498 406.378418 C 270.700806 412.532471 268.775818 420.52417 266.084167 430.361572 C 263.388367 440.190918 259.763306 452.911621 255.196655 468.511719 C 260.688354 458.45752 266.421692 448.099121 272.392517 437.424072 C 278.363342 426.749268 282.830017 418.924072 285.800842 413.953369 C 288.767517 408.974121 291.309143 405.107422 293.421692 402.353271 C 296.342529 398.603271 299.22583 394.632568 302.067505 390.440918 C 304.91333 386.249268 307.150818 382.940918 308.796692 380.52417 C 310.434143 378.099121 311.950806 376.178223 313.342529 374.745117 C 314.738342 373.315918 316.121643 372.424072 317.496643 372.074219 C 319.200806 371.636719 321.834167 373.107422 325.405029 376.478271 C 328.97168 379.853271 330.896667 382.111572 331.171692 383.253418 C 331.517517 384.661621 331.150818 386.540771 330.088318 388.886719 C 329.021667 391.236572 326.709167 395.686768 323.146667 402.240723 C 316.617493 414.344971 311.29248 426.224121 307.16333 437.886719 C 303.03418 449.557617 300.28418 459.945068 298.90918 469.044922 C 297.53418 478.14502 297.425842 485.08667 298.584167 489.861572 C 299.304993 492.820068 300.363342 494.83667 301.771667 495.90332 C 303.179993 496.974121 305.030029 497.21167 307.321655 496.628418 C 309.41748 496.08667 311.271667 495.182617 312.875854 493.915771 C 314.484192 492.64917 316.200806 490.990723 318.04248 488.949219 C 319.875854 486.911621 321.617493 484.96167 323.255005 483.111572 C 325.59668 480.728271 327.867493 478.240723 330.050842 475.640869 C 332.238342 473.040771 333.934143 470.999268 335.142517 469.515869 C 336.34668 468.02417 337.250854 466.95752 337.859192 466.299072"/>
    <path id="Path-copy-27" fill="#fffffe" stroke="none" d="M 365.414551 411.770508 C 363.772949 412.191162 362.064575 411.949463 360.28125 411.049561 C 358.497925 410.149658 357.364624 408.72876 356.893799 406.774658 C 356.172974 403.812012 356.752075 400.17041 358.622925 395.833008 C 360.489624 391.491211 362.9021 388.941162 365.8479 388.195313 C 367.814575 387.687012 369.602051 387.895508 371.2146 388.799561 C 372.827026 389.712158 373.922974 391.341309 374.493774 393.695313 C 375.193726 396.587158 374.622925 400.128662 372.789551 404.307861 C 370.952026 408.495361 368.489624 410.98291 365.414551 411.770508 M 383.0354 455.153809 L 384.827026 462.520508 C 380.510376 472.553711 376.118774 480.41626 371.647949 486.091309 C 367.189575 491.774658 363.018799 495.112061 359.15625 496.099609 C 353.7771 497.474609 349.081238 495.612061 345.060425 490.495361 C 341.03125 485.382813 338.189575 479.391357 336.522888 472.532959 C 335.889587 469.912109 335.539612 467.341309 335.485413 464.820313 C 335.427063 462.299561 335.577087 460.17041 335.922913 458.437012 C 336.268738 456.708008 337.022888 453.945313 338.185425 450.141357 C 343.885437 432.899658 350.5979 423.282959 358.327026 421.303711 C 362.327026 420.278809 364.710449 421.341309 365.477051 424.507813 C 365.997925 426.657959 365.522949 430.35791 364.043701 435.591309 C 362.564575 440.828857 361.039551 444.678711 359.485474 447.149658 C 355.1604 454.257813 352.393799 459.145508 351.193726 461.812012 C 349.997925 464.47876 349.743774 467.216309 350.431274 470.04126 C 351.014587 472.466309 352.389526 474.257813 354.552124 475.41626 C 356.710449 476.578857 359.202026 476.799561 362.018799 476.074463 C 365.0979 475.287109 368.206299 473.257813 371.3479 469.991211 C 374.485474 466.724609 378.381226 461.774658 383.0354 455.153809"/>
    <path id="Path-copy-26" fill="#fffffe" stroke="none" d="M 400.163696 447.662842 C 405.48877 443.796143 409.826294 439.57959 413.172119 435.004639 C 416.509644 430.433838 418.797119 426.296143 420.022095 422.587891 C 421.24707 418.883789 421.67627 416.296143 421.317871 414.808838 C 420.942871 413.26709 420.063721 412.666992 418.688721 413.01709 C 417.513794 413.321289 415.784546 414.587891 413.505371 416.812988 C 411.226196 419.037842 409.030396 421.746338 406.913696 424.925537 C 404.80127 428.117188 403.067871 431.666992 401.726196 435.587891 C 400.376221 439.500488 399.859619 443.525391 400.163696 447.662842 M 400.772095 454.471191 L 401.380371 456.992188 C 402.347046 460.95459 404.047119 463.808838 406.484619 465.546143 C 408.92627 467.275391 411.68457 467.746338 414.763794 466.95874 C 417.972046 466.133789 421.11792 464.508789 424.18042 462.07959 C 427.24292 459.650391 430.167969 456.725342 432.955444 453.296143 C 435.74292 449.875488 439.067871 445.375488 442.938721 439.808838 L 444.43457 445.962891 C 439.24707 457.008789 434.005371 465.796143 428.701294 472.337891 C 423.397095 478.871338 417.405396 483.000488 410.722046 484.70874 C 404.888794 486.20459 399.709595 485.067139 395.172119 481.296143 C 390.638794 477.533691 387.397095 471.613037 385.43457 463.541992 C 383.722046 456.479492 383.776245 449.658691 385.588745 443.092041 C 387.401245 436.51709 391.172119 429.100342 396.897095 420.850342 C 400.813721 415.200439 404.959595 410.64209 409.338745 407.162842 C 413.709595 403.683838 417.830444 401.45459 421.697144 400.462891 C 424.780396 399.671143 427.392944 399.76709 429.542969 400.754639 C 431.697144 401.742188 433.126221 403.679688 433.830444 406.567139 C 434.855469 410.808838 434.338745 415.421143 432.280396 420.412842 C 430.217896 425.404541 426.530396 430.779541 421.213745 436.533691 C 415.892944 442.291992 409.080444 448.27124 400.772095 454.471191"/>
    <path id="Path-copy-25" fill="#fffffe" stroke="none" d="M 474.331665 418.376221 L 468.98999 404.097168 C 466.069214 409.851318 459.581665 421.12207 449.531616 437.909668 C 453.67334 437.776367 456.644165 438.263672 458.444214 439.376221 C 460.248291 440.48877 462.969116 442.822021 466.619141 446.388672 C 470.61499 443.36792 473.419189 439.917969 475.019165 436.038818 C 476.61499 432.167969 476.731689 427.401367 475.36084 421.755371 C 475.198364 421.084473 475.031616 420.484619 474.869141 419.947021 C 474.706665 419.422119 474.527466 418.896973 474.331665 418.376221 M 441.419189 443.201172 L 440.831665 440.776367 C 453.294189 418.155518 461.819214 402.36377 466.394165 393.405518 C 465.823364 384.759521 468.294189 379.74292 473.79834 378.326172 C 475.17749 377.976318 476.744141 378.001221 478.519165 378.405518 L 479.569214 380.172119 C 479.502441 381.047119 479.652466 382.226318 480.010864 383.701172 C 480.319214 384.976318 481.369141 387.230469 483.165039 390.451172 C 484.952515 393.672119 486.394165 396.388672 487.48584 398.609619 C 488.581665 400.834473 489.494141 403.417969 490.210815 406.376221 C 491.285889 410.817871 491.339966 415.322021 490.36084 419.892822 C 489.381714 424.468018 487.473389 429.097168 484.652466 433.788818 C 481.823364 438.480469 477.931641 443.526367 472.981689 448.93457 C 475.439941 448.74292 477.352539 448.459473 478.731689 448.109619 C 481.415039 447.417969 484.148315 445.98877 486.92334 443.813721 C 489.698364 441.638672 492.431641 438.976318 495.11084 435.822021 C 497.790039 432.672119 500.844116 428.692871 504.273315 423.884521 L 505.910889 430.646973 C 499.564941 441.201172 493.606689 449.49707 488.044189 455.526367 C 482.477539 461.55957 477.306641 465.188721 472.523315 466.413818 C 466.36499 467.99292 460.010864 466.759521 453.464966 462.722168 C 449.602539 460.288818 446.931641 457.68042 445.460815 454.917969 C 443.98999 452.151367 442.644165 448.24707 441.419189 443.201172"/>
    <path id="Path-copy-24" fill="#fffffe" stroke="none" d="M 604.373291 329.771729 L 605.377441 333.90918 C 613.494141 326.04248 619.415039 318.41748 623.156616 311.030029 C 626.898315 303.642578 628.331665 298.171631 627.464966 294.60498 C 626.73584 291.575928 624.894165 290.442383 621.944214 291.196777 C 619.260864 291.888428 616.248291 294.388428 612.910889 298.709229 C 609.573364 303.025879 607.010864 308.03833 605.23584 313.742432 C 603.456665 319.450928 603.165039 324.796631 604.373291 329.771729 M 598.42749 363.334229 C 594.406616 368.009277 590.998291 372.809082 588.194214 377.742432 C 585.390015 382.679932 583.344116 387.29248 582.056641 391.584229 C 580.760864 395.879883 580.42749 399.271729 581.027466 401.759277 C 582.23584 406.738281 585.031616 408.65918 589.42334 407.53418 C 592.631714 406.713379 596.723389 404.509277 601.698364 400.90918 C 606.67334 397.317383 611.402466 392.72998 615.898315 387.150879 C 611.348389 381.030029 605.523315 373.088379 598.42749 363.334229 M 601.044189 432.205078 C 596.394165 433.396729 591.54834 433.067383 586.502441 431.217529 C 581.460815 429.363281 576.998291 426.150879 573.102539 421.575928 C 569.206665 417.004883 566.473389 411.484131 564.910889 405.030029 C 562.819214 396.425781 564.11499 387.767578 568.785889 379.071777 C 573.464966 370.375732 581.194214 361.000732 591.973389 350.950928 C 590.294189 346.879883 589.23999 343.97168 588.814941 342.22168 C 587.165039 335.429932 587.006714 328.684082 588.339966 321.984131 C 589.67334 315.28418 592.056641 309.263428 595.48999 303.91748 C 598.92334 298.575928 602.86084 294.138428 607.294189 290.609131 C 611.723389 287.080078 616.198364 284.734131 620.723389 283.575928 C 625.960815 282.234131 630.506714 282.450928 634.344116 284.217529 C 638.181641 285.984131 640.602539 288.91748 641.594116 293.021729 C 642.915039 298.463379 642.73999 303.692383 641.064941 308.692383 C 639.394165 313.696777 636.852539 318.434082 633.452515 322.91333 C 630.05249 327.396729 625.744141 332.384277 620.544189 337.900879 C 615.339966 343.41333 612.206665 346.838379 611.140015 348.184082 C 615.290039 356.121582 620.573364 363.97998 626.98999 371.767578 C 631.890015 366.155029 635.61499 361.29248 638.165039 357.171631 C 640.714966 353.059082 642.80249 349.325928 644.42749 345.97998 C 646.04834 342.638428 647.252441 340.863281 648.040039 340.65918 C 648.631714 340.509277 649.30249 341.125732 650.05249 342.500732 C 650.810791 343.879883 651.394165 345.442383 651.819214 347.192383 C 652.810791 351.296631 653.031616 355.34668 652.469116 359.34668 C 651.915039 363.35083 650.744141 367.509277 648.977539 371.813232 C 647.202515 376.129883 644.848389 380.842529 641.910889 385.946777 L 650.160889 391.554932 C 650.619141 390.863281 651.152466 389.905029 651.760864 388.675781 C 652.36499 387.446777 652.852539 386.59668 653.223389 386.10498 C 653.594116 385.621582 654.035889 385.304932 654.560791 385.171631 C 655.219116 385.004883 655.794189 385.146729 656.281616 385.588379 C 656.777466 386.03418 657.098389 386.59668 657.265015 387.267578 C 657.931641 390.025879 657.152466 395.138428 654.931641 402.59668 C 652.702515 410.063232 650.348389 414.117432 647.856689 414.754883 C 646.54834 415.092529 645.131714 414.85498 643.619141 414.067383 C 642.106689 413.275879 640.165039 411.884277 637.80249 409.879883 C 635.439941 407.879883 633.498291 406.179932 631.977539 404.780029 C 625.877441 412.629883 620.277466 418.888428 615.17749 423.546631 C 610.081665 428.213379 605.373291 431.09668 601.044189 432.205078"/>
    <path id="Path-copy-23" fill="#fffffe" stroke="none" d="M 818.787964 346.32251 C 816.39624 343.647461 813.262939 341.485107 809.379639 339.834961 C 805.504639 338.185059 801.33374 337.126709 796.867065 336.668213 C 792.408691 336.20166 787.854614 336.168213 783.221191 336.568359 C 769.500366 337.943359 756.075439 336.70166 742.967041 332.847412 C 741.850464 332.564209 740.529541 331.685059 738.992065 330.222412 C 737.450439 328.76416 736.483765 327.218262 736.092041 325.610107 C 734.658691 319.685059 734.179565 313.505859 734.671265 307.055908 C 735.158813 300.610107 736.504639 295.318359 738.700439 291.180908 C 742.192139 284.364258 749.737915 277.251709 761.346191 269.847412 C 772.942139 262.44751 786.637939 256.722412 802.425415 252.676758 C 811.862915 250.26416 819.32959 249.13501 824.83374 249.293213 C 830.33374 249.459961 833.45874 251.084961 834.212891 254.180908 C 835.437866 259.226563 835.717041 263.297607 835.037964 266.397461 C 834.362915 269.497559 833.367065 271.705811 832.046265 273.001709 C 830.729614 274.305908 828.325439 276.226563 824.83374 278.76416 C 821.067139 281.305908 817.850464 283.76416 815.196289 286.159912 C 812.546265 288.555908 810.317139 290.772461 808.512939 292.801758 C 806.70874 294.839111 805.542114 295.918213 805.02124 296.055908 C 804.367065 296.226563 803.971191 296.039063 803.842041 295.501709 C 803.562866 294.355713 804.304565 292.32666 806.071289 289.409912 C 807.83374 286.497559 810.20459 283.726563 813.187866 281.105713 C 816.317139 278.230957 817.821289 276.526611 817.687866 275.989258 C 817.475464 275.118408 815.375366 275.185059 811.375366 276.209961 C 799.254639 279.314209 788.317139 283.297607 778.575439 288.147461 C 768.821289 293.005859 761.421265 298.01001 756.375366 303.155762 C 751.32959 308.305908 749.258789 312.772461 750.171265 316.534912 C 750.750366 318.88916 752.379639 320.235107 755.071289 320.584961 C 757.76709 320.930908 763.587891 321.172607 772.525391 321.310059 C 781.471191 321.44751 789.604614 322.151611 796.942139 323.414063 C 807.446289 325.147461 815.550415 327.685059 821.229614 331.01416 C 826.908691 334.347412 830.429565 338.801758 831.779541 344.38501 C 832.712891 348.218262 832.746216 352.297607 831.883789 356.630859 C 831.02124 360.959961 829.246216 365.180908 826.550415 369.297607 C 823.862915 373.414063 820.512939 377.093262 816.496216 380.339111 C 813.037964 383.01416 808.558716 385.839111 803.054565 388.814209 C 797.546265 391.805908 791.467041 394.584961 784.83374 397.180908 C 778.187866 399.780762 771.754639 401.872559 765.529541 403.468262 C 754.062866 406.401611 744.575439 407.659912 737.062866 407.226563 C 729.537964 406.793213 725.237915 404.32251 724.14209 399.818359 C 723.654541 397.797607 724.071289 394.355713 725.39209 389.476563 C 726.712891 384.601563 728.796265 381.01416 731.654541 378.714111 C 734.192139 376.847412 736.754639 375.493408 739.33374 374.655762 C 741.912964 373.818359 743.300415 373.801758 743.496216 374.610107 C 743.542114 374.810059 743.496216 375.039063 743.350464 375.289063 C 743.196289 375.539063 743.008789 375.76416 742.783813 375.972412 C 742.554565 376.172607 742.321289 376.376709 742.096191 376.57251 C 740.912964 377.44751 739.950439 378.13916 739.20459 378.651611 C 738.462891 379.168213 737.875366 379.63916 737.45874 380.068359 C 737.042114 380.497559 736.900391 380.976563 737.029541 381.51416 C 737.371216 382.930908 744.325439 381.893311 757.887939 378.418213 C 769.683716 375.401611 779.237915 372.489258 786.562866 369.685059 C 793.883789 366.880859 800.150391 363.593262 805.358765 359.834961 C 810.567139 356.07251 815.050415 351.560059 818.787964 346.32251"/>
    <path id="Path-copy-22" fill="#fffffe" stroke="none" d="M 884.119995 298.403809 C 879.503296 303.162109 875.58252 307.395508 872.382446 311.10791 C 869.178345 314.824463 866.569946 318.41626 864.561646 321.895508 C 862.549194 325.378662 861.432495 328.649658 861.199219 331.708008 C 861.390869 339.662109 861.561646 343.937012 861.70752 344.54126 C 862.786621 348.97876 866.33667 350.428711 872.365845 348.886963 C 875.178345 348.157959 879.295044 344.462158 884.703369 337.79126 C 882.819946 334.924561 881.532471 332.032959 880.828369 329.141357 C 879.803345 324.903809 879.603394 320.366211 880.236694 315.524658 C 880.878296 310.682861 882.165894 304.974609 884.119995 298.403809 M 910.803345 319.749512 L 912.449219 326.503662 C 909.103394 331.649658 906.27832 335.23291 903.990845 337.245361 C 901.694946 339.266357 898.057495 340.766357 893.078369 341.757813 C 887.074219 354.29541 880.828369 361.395508 874.34082 363.053711 C 870.670044 363.995361 867.02832 363.60791 863.407471 361.886963 C 859.795044 360.174561 856.561646 357.395508 853.71167 353.553711 C 850.869995 349.712158 848.799194 345.132813 847.511719 339.820313 C 846.46582 335.516357 846.699219 330.382813 848.21582 324.424561 C 849.719971 318.466309 852.140869 312.649658 855.45752 306.97876 C 858.782471 301.303711 862.624146 296.424561 866.994995 292.341309 C 871.357544 288.261963 875.703369 285.662109 880.032471 284.553711 C 883.111694 283.766357 885.65332 283.632813 887.661621 284.153809 C 889.665894 284.674561 890.878296 285.816162 891.307495 287.562012 C 891.632446 288.912109 891.249146 290.645508 890.170044 292.778809 C 892.786621 292.682861 894.71167 293.136963 895.928345 294.149658 C 897.14917 295.157959 898.157471 297.307861 898.96167 300.599609 C 899.740845 303.828857 899.990845 308.087158 899.70752 313.374512 C 899.428345 318.662109 898.532471 323.787109 897.02002 328.741211 L 899.228394 330.10791 L 900.699219 329.72876 C 901.815796 329.445313 902.844971 328.878662 903.790894 328.032959 C 904.728394 327.182861 905.549194 326.328857 906.244995 325.470459 C 906.944946 324.616211 908.46167 322.703857 910.803345 319.749512"/>
    <path id="Path-copy-21" fill="#fffffe" stroke="none" d="M 970.858765 285.185303 C 962.525391 301.327148 958.987915 311.977051 960.242065 317.1604 C 960.946289 320.052002 962.442139 321.197998 964.737915 320.610352 C 966.633789 320.127197 968.862915 318.46875 971.412964 315.639648 C 973.962891 312.806152 977.837891 307.935303 983.058716 301.0271 L 984.742065 307.985352 C 977.721191 319.789551 972.229614 328.4104 968.26709 333.856201 C 964.296265 339.302002 960.737915 342.422852 957.596191 343.231201 C 952.217041 344.610352 948.654541 341.664551 946.89209 334.4021 C 946.371216 332.252197 946.179565 330.043701 946.33374 327.793701 C 946.479614 325.543701 946.854614 323.139648 947.45459 320.59375 C 948.054565 318.043701 949.025391 314.368652 950.362915 309.564697 C 951.70459 304.756348 953.26709 299.302002 955.054565 293.193848 C 951.796265 296.106201 948.046265 301.172852 943.817139 308.4021 C 941.029541 312.96875 938.750366 317.210449 936.992065 321.131348 C 935.225464 325.052002 933.371216 329.381348 931.425415 334.127197 C 929.483765 338.877197 928.008789 342.114502 927.000366 343.831299 C 925.987915 345.556152 924.800415 346.5979 923.421265 346.947998 C 921.325439 347.489502 918.850464 345.727051 915.987915 341.677002 C 913.121216 337.622803 910.967041 332.602051 909.508789 326.618652 C 908.617065 322.914551 908.317139 319.918701 908.629639 317.627197 C 908.950439 315.331299 909.846191 311.956299 911.346191 307.506348 C 914.133789 299.21875 916.76709 292.985352 919.233765 288.822998 C 921.696289 284.647949 924.442139 282.185303 927.45874 281.40625 C 929.554565 280.872803 931.32959 280.810303 932.783691 281.21875 C 934.242065 281.635498 935.162964 282.614502 935.533691 284.1604 C 935.700439 284.835449 935.671265 285.5896 935.45874 286.427002 C 935.246216 287.272949 934.967041 288.056152 934.625366 288.789551 C 934.279541 289.518799 933.533691 290.960449 932.383789 293.114502 C 924.887939 307.53125 921.562866 316.493652 922.412964 319.993652 C 922.883789 321.943848 923.737915 322.756348 924.987915 322.435303 C 925.779541 322.235352 926.987915 320.552002 928.612915 317.385498 C 930.250366 314.2146 932.342041 310.072998 934.89209 304.952148 C 937.437866 299.8396 940.604614 294.360352 944.375366 288.543701 C 948.14624 282.71875 952.629639 276.885498 957.825439 271.056152 C 960.696289 267.677002 963.275391 265.693848 965.567139 265.110352 C 966.608765 264.8396 968.008789 266.060303 969.742065 268.756348 C 971.471191 271.460449 972.70874 274.314697 973.442139 277.34375 C 973.800415 278.822998 972.937866 281.435303 970.858765 285.185303"/>
    <path id="Path-copy-20" fill="#fffffe" stroke="none" d="M 1016.574219 279.476563 L 1011.228394 265.19751 C 1008.307495 270.95166 1001.824219 282.222412 991.77417 299.01001 C 995.911621 298.872559 998.886719 299.368408 1000.686646 300.476563 C 1002.482544 301.589111 1005.21167 303.922607 1008.857544 307.489258 C 1012.857544 304.468262 1015.657471 301.018311 1017.257446 297.143311 C 1018.857544 293.268311 1018.974121 288.501709 1017.603394 282.860107 C 1017.440796 282.185059 1017.27417 281.584961 1017.115845 281.051758 C 1016.949219 280.522461 1016.77002 279.993408 1016.574219 279.476563 M 983.665894 304.301758 L 983.074219 301.876709 C 995.536621 279.255859 1004.057495 263.464111 1008.636719 254.505859 C 1008.065796 245.864258 1010.536621 240.839111 1016.045044 239.426758 C 1017.415894 239.07666 1018.990845 239.101563 1020.757446 239.505859 L 1021.811646 241.272461 C 1021.744995 242.147461 1021.890869 243.32666 1022.253296 244.801758 C 1022.565796 246.080811 1023.611694 248.330811 1025.39917 251.551758 C 1027.190796 254.772461 1028.636719 257.489258 1029.732544 259.709961 C 1030.824219 261.930908 1031.736694 264.518311 1032.453369 267.476563 C 1033.52832 271.918213 1033.578369 276.422607 1032.603394 280.993408 C 1031.624146 285.568359 1029.719971 290.19751 1026.890869 294.88916 C 1024.061646 299.580811 1020.170044 304.626709 1015.224121 310.034912 C 1017.678345 309.839111 1019.594971 309.560059 1020.969971 309.209961 C 1023.65332 308.522461 1026.386719 307.089111 1029.165894 304.914063 C 1031.940796 302.739258 1034.674194 300.07666 1037.353394 296.926758 C 1040.032471 293.768311 1043.08667 289.797607 1046.515869 284.985107 L 1048.15332 291.743408 C 1041.807495 302.301758 1035.849121 310.593262 1030.286621 316.626709 C 1024.719971 322.659912 1019.545044 326.289063 1014.765869 327.51416 C 1008.607544 329.093262 1002.249146 327.860107 995.703369 323.82251 C 991.84082 321.38916 989.174194 318.780762 987.699219 316.018311 C 986.232544 313.251709 984.882446 309.347412 983.665894 304.301758"/>
    <path id="Path-copy-19" fill="#fffffe" stroke="none" d="M 522.335815 487.775391 L 522.894165 500.000488 L 521.473389 500.000488 C 521.198364 497.846191 520.823364 496.304688 520.352539 495.383789 C 519.573364 493.900391 518.544189 492.808838 517.260864 492.096191 C 515.977539 491.39209 514.285889 491.041992 512.185791 491.041992 L 505.040039 491.041992 L 505.040039 530.854492 C 505.040039 534.050537 505.377441 536.050537 506.05249 536.842041 C 506.998291 537.921143 508.456665 538.45874 510.431641 538.45874 L 512.185791 538.45874 L 512.185791 539.883789 L 490.665039 539.883789 L 490.665039 538.45874 L 492.460815 538.45874 C 494.61084 538.45874 496.127441 537.796143 497.027466 536.45874 C 497.577515 535.64209 497.852539 533.775391 497.852539 530.854492 L 497.852539 491.041992 L 491.748291 491.041992 C 489.381714 491.041992 487.698364 491.225342 486.698364 491.57959 C 485.398315 492.067139 484.290039 493.004639 483.36499 494.387939 C 482.439941 495.76709 481.890015 497.637939 481.719116 500.000488 L 480.29834 500.000488 L 480.898315 487.775391 Z"/>
    <path id="Path-copy-18" fill="#fffffe" stroke="none" d="M 538.878296 513.10083 C 539.349121 513.10083 539.757446 513.10498 540.111694 513.117432 C 540.46167 513.129883 540.749146 513.138428 540.969971 513.138428 C 545.815796 513.138428 549.46582 512.059082 551.924194 509.91333 C 554.378296 507.759277 555.611694 505.013428 555.611694 501.684082 C 555.611694 498.434082 554.615845 495.78833 552.632446 493.754883 C 550.64917 491.713379 548.02002 490.696777 544.753296 490.696777 C 543.307495 490.696777 541.344971 490.942383 538.878296 491.429932 Z M 574.928345 539.884277 L 561.374146 539.884277 L 544.194946 515.521729 C 542.920044 515.567383 541.886719 515.59668 541.08667 515.59668 C 540.761719 515.59668 540.411621 515.592529 540.036621 515.575928 C 539.661621 515.563232 539.27417 515.54248 538.878296 515.521729 L 538.878296 530.655029 C 538.878296 533.938232 539.224121 535.97168 539.924194 536.771729 C 540.874146 537.892578 542.295044 538.459229 544.194946 538.459229 L 546.178345 538.459229 L 546.178345 539.884277 L 524.428345 539.884277 L 524.428345 538.459229 L 526.33667 538.459229 C 528.482544 538.459229 530.015869 537.742432 530.940796 536.304932 C 531.46582 535.513428 531.728394 533.634277 531.728394 530.655029 L 531.728394 497.000732 C 531.728394 493.717529 531.378296 491.679932 530.678345 490.888428 C 529.703369 489.763428 528.257446 489.200928 526.33667 489.200928 L 524.428345 489.200928 L 524.428345 487.775879 L 542.920044 487.775879 C 548.311646 487.775879 552.282471 488.179932 554.844971 488.984131 C 557.39917 489.79248 559.574219 491.280029 561.357544 493.442383 C 563.136719 495.609131 564.032471 498.192383 564.032471 501.188232 C 564.032471 504.388428 563.011719 507.16748 560.982544 509.525879 C 558.949219 511.884277 555.799194 513.54248 551.532471 514.517578 L 562.011719 529.463379 C 564.40332 532.896729 566.46582 535.179932 568.186646 536.304932 C 569.911621 537.434082 572.15332 538.150879 574.928345 538.459229 Z"/>
    <path id="Path-copy-17" fill="#fffffe" stroke="none" d="M 609.36377 489.199463 L 609.36377 487.774658 L 627.334595 487.774658 L 627.334595 489.199463 L 625.422119 489.199463 C 623.42627 489.199463 621.892944 490.057861 620.822144 491.770508 C 620.297119 492.570313 620.034546 494.412109 620.034546 497.303711 L 620.034546 518.437012 C 620.034546 523.66626 619.526245 527.720459 618.517944 530.599609 C 617.509644 533.48291 615.526245 535.958008 612.567871 538.016357 C 609.609619 540.078857 605.588745 541.10791 600.49292 541.10791 C 594.955444 541.10791 590.751221 540.124512 587.880371 538.153809 C 585.005371 536.178711 582.976196 533.528809 581.776245 530.195313 C 580.976196 527.91626 580.580444 523.641357 580.580444 517.362061 L 580.580444 496.999512 C 580.580444 493.79541 580.151245 491.695313 579.288696 490.695313 C 578.43042 489.703857 577.038696 489.199463 575.11792 489.199463 L 573.205444 489.199463 L 573.205444 487.774658 L 595.142944 487.774658 L 595.142944 489.199463 L 593.197144 489.199463 C 591.097046 489.199463 589.601196 489.874512 588.705444 491.23291 C 588.080444 492.157959 587.767944 494.078857 587.767944 496.999512 L 587.767944 519.708008 C 587.767944 521.73291 587.947144 524.049561 588.30957 526.66626 C 588.672119 529.274658 589.326294 531.312012 590.272095 532.774658 C 591.222046 534.23291 592.588745 535.432861 594.376221 536.382813 C 596.159546 537.328857 598.347046 537.807861 600.942871 537.807861 C 604.263794 537.807861 607.230469 537.066162 609.855469 535.574463 C 612.472046 534.091309 614.263794 532.187012 615.226196 529.870361 C 616.18457 527.557861 616.663696 523.624512 616.663696 518.091309 L 616.663696 496.999512 C 616.663696 493.745361 616.317871 491.712158 615.61792 490.891357 C 614.647095 489.761963 613.197144 489.199463 611.276245 489.199463 Z"/>
    <path id="Path-copy-16" fill="#fffffe" stroke="none" d="M 673.084595 486.583252 L 674.24707 504.300049 L 673.084595 504.300049 C 671.538696 498.99585 669.330444 495.179199 666.459595 492.845947 C 663.592896 490.516602 660.147095 489.354248 656.130371 489.354248 C 652.755371 489.354248 649.713745 490.229248 646.99292 491.983398 C 644.276245 493.737549 642.134644 496.541748 640.572144 500.383301 C 639.013794 504.220947 638.23877 509 638.23877 514.708252 C 638.23877 519.425049 638.967896 523.512451 640.442871 526.970947 C 641.917969 530.429199 644.130371 533.079102 647.088745 534.920898 C 650.042969 536.770752 653.417969 537.69165 657.213745 537.69165 C 660.505371 537.69165 663.413696 536.966553 665.93457 535.516602 C 668.455444 534.070801 671.230469 531.195801 674.24707 526.891602 L 675.405396 527.662598 C 672.859619 532.295898 669.888794 535.69165 666.49707 537.841553 C 663.101196 539.99585 659.072144 541.070801 654.405396 541.070801 C 645.99707 541.070801 639.484619 537.866699 634.86792 531.462402 C 631.422119 526.699951 629.697144 521.087402 629.697144 514.633301 C 629.697144 509.4375 630.834595 504.658447 633.105469 500.304199 C 635.376221 495.949951 638.501221 492.574951 642.480469 490.175049 C 646.463745 487.783447 650.80957 486.583252 655.530396 486.583252 C 659.201294 486.583252 662.813721 487.508301 666.384644 489.354248 C 667.43457 489.920898 668.18042 490.195801 668.634644 490.195801 C 669.30542 490.195801 669.888794 489.954102 670.392944 489.466553 C 671.038696 488.774902 671.49707 487.81665 671.776245 486.583252 Z"/>
    <path id="Path-copy-15" fill="#fffffe" stroke="none" d="M 699.51709 510.985107 L 718.233765 530.080811 C 721.304565 533.235107 723.921265 535.376709 726.096191 536.518311 C 728.262939 537.659912 730.437866 538.301758 732.604614 538.459961 L 732.604614 539.88501 L 708.462891 539.88501 L 708.462891 538.459961 C 709.908691 538.459961 710.950439 538.209961 711.587891 537.709961 C 712.225464 537.209961 712.546265 536.651611 712.546265 536.039063 C 712.546265 535.422607 712.425415 534.868408 712.187866 534.38501 C 711.950439 533.897461 711.171265 532.989258 709.846191 531.655762 L 692.32959 513.868408 L 692.32959 530.655762 C 692.32959 533.293213 692.492065 535.039063 692.817139 535.88501 C 693.062866 536.526611 693.587891 537.07666 694.39209 537.539063 C 695.462891 538.151611 696.596191 538.459961 697.796265 538.459961 L 699.51709 538.459961 L 699.51709 539.88501 L 677.879639 539.88501 L 677.879639 538.459961 L 679.679565 538.459961 C 681.775391 538.459961 683.292114 537.830811 684.242065 536.57251 C 684.846191 535.755859 685.14624 533.780762 685.14624 530.655762 L 685.14624 497.001709 C 685.14624 494.360107 684.983765 492.605713 684.658691 491.735107 C 684.408691 491.118408 683.89209 490.580811 683.121216 490.118408 C 682.025391 489.505859 680.871216 489.19751 679.679565 489.19751 L 677.879639 489.19751 L 677.879639 487.776611 L 699.51709 487.776611 L 699.51709 489.19751 L 697.796265 489.19751 C 696.621216 489.19751 695.487915 489.493408 694.39209 490.084961 C 693.612915 490.493408 693.07959 491.105713 692.779541 491.926758 C 692.483765 492.747559 692.32959 494.435059 692.32959 497.001709 L 692.32959 512.94751 C 692.82959 512.459961 694.537964 510.834961 697.45874 508.064209 C 704.871216 501.093262 709.346191 496.44751 710.89624 494.118408 C 711.571289 493.093262 711.908691 492.19751 711.908691 491.430908 C 711.908691 490.839111 711.64209 490.32251 711.121216 489.872559 C 710.596191 489.422607 709.70874 489.19751 708.462891 489.19751 L 707.300415 489.19751 L 707.300415 487.776611 L 725.946289 487.776611 L 725.946289 489.19751 C 724.846191 489.222412 723.850464 489.380859 722.950439 489.659912 C 722.050415 489.943359 720.95459 490.489258 719.654541 491.293213 C 718.354614 492.097412 716.762939 493.401611 714.867065 495.193359 C 714.317139 495.705811 711.779541 498.330811 707.262939 503.068359 Z"/>
    <path id="Path-copy-14" fill="#fffffe" stroke="none" d="M 754.403809 538.459229 L 754.403809 539.884277 L 732.653809 539.884277 L 732.653809 538.459229 L 734.453735 538.459229 C 736.54541 538.459229 738.066284 537.830078 739.020386 536.571777 C 739.612061 535.754883 739.912109 533.780029 739.912109 530.655029 L 739.912109 497.000732 C 739.912109 494.359131 739.749634 492.621582 739.428711 491.771729 C 739.182861 491.134277 738.67041 490.580078 737.891235 490.117432 C 736.79541 489.504883 735.649536 489.200928 734.453735 489.200928 L 732.653809 489.200928 L 732.653809 487.775879 L 754.403809 487.775879 L 754.403809 489.200928 L 752.570435 489.200928 C 750.495361 489.200928 748.98291 489.825928 748.04126 491.084229 C 747.412109 491.900879 747.10376 493.871582 747.10376 497.000732 L 747.10376 530.655029 C 747.10376 533.296631 747.262085 535.04248 747.587036 535.884277 C 747.841309 536.525879 748.362061 537.075928 749.162109 537.53833 C 750.23291 538.150879 751.370361 538.459229 752.570435 538.459229 Z"/>
    <path id="Path-copy-13" fill="#fffffe" stroke="none" d="M 756.719116 487.775391 L 770.494141 487.775391 L 801.527466 526.854492 L 801.527466 496.808838 C 801.527466 493.604492 801.17334 491.604492 800.481689 490.812988 C 799.55249 489.738037 798.098389 489.200439 796.098389 489.200439 L 794.339966 489.200439 L 794.339966 487.775391 L 812.010864 487.775391 L 812.010864 489.200439 L 810.210815 489.200439 C 808.060791 489.200439 806.544189 489.867188 805.640015 491.196289 C 805.094116 492.01709 804.823364 493.887939 804.823364 496.808838 L 804.823364 540.725342 L 803.477539 540.725342 L 770.006714 498.76709 L 770.006714 530.854492 C 770.006714 534.050537 770.348389 536.050537 771.019165 536.842041 C 771.964966 537.921143 773.42749 538.45874 775.398315 538.45874 L 777.194214 538.45874 L 777.194214 539.883789 L 759.527466 539.883789 L 759.527466 538.45874 L 761.285889 538.45874 C 763.456665 538.45874 764.98999 537.796143 765.885864 536.45874 C 766.439941 535.64209 766.714966 533.775391 766.714966 530.854492 L 766.714966 494.621338 C 765.23999 492.846191 764.123291 491.683838 763.36499 491.121338 C 762.598389 490.554688 761.48584 490.033691 760.010864 489.546143 C 759.290039 489.312988 758.194214 489.200439 756.719116 489.200439 Z"/>
    <path id="Path-copy-12" fill="#fffffe" stroke="none" d="M 858.92041 486.583252 L 860.22876 503.033447 L 858.92041 503.033447 C 857.599609 498.929199 855.887085 495.845947 853.79126 493.770752 C 850.770386 490.774902 846.891235 489.274902 842.153809 489.274902 C 835.687134 489.274902 830.770386 491.899902 827.399536 497.149902 C 824.578735 501.583252 823.17041 506.862549 823.17041 512.983398 C 823.17041 517.949951 824.10791 522.487549 825.97876 526.587402 C 827.849609 530.679199 830.299561 533.69165 833.328735 535.595947 C 836.366211 537.508301 839.47876 538.458252 842.674561 538.458252 C 844.54541 538.458252 846.349609 538.216553 848.099609 537.729248 C 849.849609 537.241699 851.537109 536.524902 853.153809 535.574951 L 853.153809 520.516602 C 853.153809 517.899902 852.957886 516.19165 852.574585 515.383301 C 852.191284 514.574951 851.587036 513.966553 850.778809 513.541748 C 849.966309 513.116699 848.54126 512.904053 846.495361 512.904053 L 846.495361 511.44165 L 866.145386 511.44165 L 866.145386 512.904053 L 865.212036 512.904053 C 863.262085 512.904053 861.928711 513.570801 861.203735 514.899902 C 860.703735 515.854248 860.457886 517.725098 860.457886 520.516602 L 860.457886 536.458252 C 857.587036 538.050049 854.749634 539.212402 851.953735 539.958252 C 849.162109 540.699951 846.053711 541.070801 842.637085 541.070801 C 832.828735 541.070801 825.378784 537.841553 820.29126 531.387451 C 816.470459 526.545898 814.562134 520.962402 814.562134 514.633301 C 814.562134 510.050049 815.632935 505.654053 817.782959 501.458252 C 820.324585 496.462402 823.820435 492.62085 828.262085 489.929199 C 831.97876 487.704102 836.374634 486.583252 841.437134 486.583252 C 843.282959 486.583252 844.962036 486.741699 846.474609 487.045898 C 847.98291 487.358398 850.124634 488.033447 852.895386 489.083252 C 854.29126 489.62085 855.224609 489.891602 855.699585 489.891602 C 856.174561 489.891602 856.578735 489.666748 856.92041 489.220947 C 857.253784 488.766602 857.462036 487.895752 857.537109 486.583252 Z"/>
    <path id="Path-copy-11" fill="#fffffe" stroke="none" d="M 870.122559 552.983398 L 870.122559 551.291748 C 872.693359 550.420898 874.680786 549.070801 876.093384 547.237549 C 877.501709 545.404053 878.20166 543.462402 878.20166 541.420898 C 878.20166 540.93335 878.093384 540.520752 877.868286 540.1875 C 877.69751 539.958252 877.518311 539.837402 877.347534 539.837402 C 877.07251 539.837402 876.472534 540.100098 875.555786 540.612549 C 875.097534 540.837402 874.630859 540.958252 874.126709 540.958252 C 872.910034 540.958252 871.935059 540.583252 871.209961 539.837402 C 870.480835 539.100098 870.122559 538.074951 870.122559 536.770752 C 870.122559 535.512451 870.589111 534.43335 871.526611 533.537598 C 872.464111 532.641602 873.605835 532.19165 874.95166 532.19165 C 876.601685 532.19165 878.064209 532.93335 879.351685 534.404053 C 880.63501 535.87915 881.276611 537.829102 881.276611 540.266602 C 881.276611 542.904053 880.38501 545.354248 878.601685 547.62085 C 876.814209 549.887451 873.993286 551.675049 870.122559 552.983398"/>
    <path id="Path-copy-10" fill="#fffffe" stroke="none" d="M 946.131714 525.46875 L 947.369141 525.735352 L 943.027466 539.881348 L 903.719116 539.881348 L 903.719116 538.460449 L 905.631714 538.460449 C 907.773315 538.460449 909.310791 537.743652 910.23584 536.306152 C 910.760864 535.485352 911.019165 533.5896 911.019165 530.618652 L 911.019165 496.997803 C 911.019165 493.743652 910.669189 491.710449 909.973389 490.889648 C 908.998291 489.764648 907.55249 489.197998 905.631714 489.197998 L 903.719116 489.197998 L 903.719116 487.7771 L 926.706665 487.7771 L 926.706665 489.197998 C 924.010864 489.172852 922.119141 489.431152 921.035889 489.9646 C 919.952515 490.502197 919.210815 491.185303 918.806641 492.002197 C 918.406616 492.822998 918.206665 494.7854 918.206665 497.881348 L 918.206665 530.618652 C 918.206665 532.747803 918.406616 534.206299 918.806641 535.002197 C 919.106689 535.539551 919.569214 535.935303 920.194214 536.189697 C 920.819214 536.447998 922.760864 536.572998 926.031616 536.572998 L 929.73584 536.572998 C 933.631714 536.572998 936.36084 536.2854 937.935791 535.693848 C 939.506714 535.106201 940.944214 534.060303 942.23999 532.560303 C 943.540039 531.060303 944.831665 528.697998 946.131714 525.46875"/>
    <path id="Path-copy-9" fill="#fffffe" stroke="none" d="M 991.2771 525.46875 L 992.514526 525.735352 L 988.172974 539.881348 L 948.860474 539.881348 L 948.860474 538.460449 L 950.772949 538.460449 C 952.918701 538.460449 954.456299 537.743652 955.381226 536.306152 C 955.90625 535.485352 956.164551 533.5896 956.164551 530.618652 L 956.164551 496.997803 C 956.164551 493.743652 955.814575 491.710449 955.114624 490.889648 C 954.143799 489.764648 952.697876 489.197998 950.772949 489.197998 L 948.860474 489.197998 L 948.860474 487.7771 L 971.8479 487.7771 L 971.8479 489.197998 C 969.1521 489.172852 967.264526 489.431152 966.181274 489.9646 C 965.09375 490.502197 964.352051 491.185303 963.947876 492.002197 C 963.552124 492.822998 963.352051 494.7854 963.352051 497.881348 L 963.352051 530.618652 C 963.352051 532.747803 963.552124 534.206299 963.947876 535.002197 C 964.247925 535.539551 964.7146 535.935303 965.335449 536.189697 C 965.960449 536.447998 967.9104 536.572998 971.177124 536.572998 L 974.877075 536.572998 C 978.7771 536.572998 981.506226 536.2854 983.077026 535.693848 C 984.6521 535.106201 986.0896 534.060303 987.381226 532.560303 C 988.681274 531.060303 989.977051 528.697998 991.2771 525.46875"/>
    <path id="Path-copy-8" fill="#fffffe" stroke="none" d="M 1038.628296 486.583252 L 1039.786621 504.300049 L 1038.628296 504.300049 C 1037.08252 498.99585 1034.869995 495.179199 1031.999146 492.845947 C 1029.132446 490.516602 1025.690796 489.354248 1021.674194 489.354248 C 1018.299194 489.354248 1015.257446 490.229248 1012.532471 491.983398 C 1009.815796 493.737549 1007.674194 496.541748 1006.115845 500.383301 C 1004.553345 504.220947 1003.77832 509 1003.77832 514.708252 C 1003.77832 519.425049 1004.511719 523.512451 1005.982544 526.970947 C 1007.45752 530.429199 1009.674194 533.079102 1012.628296 534.920898 C 1015.58667 536.770752 1018.96167 537.69165 1022.753296 537.69165 C 1026.049194 537.69165 1028.95752 536.966553 1031.474121 535.516602 C 1033.999146 534.070801 1036.77002 531.195801 1039.786621 526.891602 L 1040.944946 527.662598 C 1038.40332 532.295898 1035.432495 535.69165 1032.036621 537.841553 C 1028.64502 539.99585 1024.615845 541.070801 1019.944946 541.070801 C 1011.536621 541.070801 1005.02832 537.866699 1000.407471 531.462402 C 996.96582 526.699951 995.240845 521.087402 995.240845 514.633301 C 995.240845 509.4375 996.374146 504.658447 998.64917 500.304199 C 1000.920044 495.949951 1004.045044 492.574951 1008.02417 490.175049 C 1012.007446 487.783447 1016.353394 486.583252 1021.069946 486.583252 C 1024.740845 486.583252 1028.357544 487.508301 1031.928345 489.354248 C 1032.978394 489.920898 1033.724121 490.195801 1034.174194 490.195801 C 1034.844971 490.195801 1035.432495 489.954102 1035.932495 489.466553 C 1036.578369 488.774902 1037.040894 487.81665 1037.315796 486.583252 Z"/>
    <path id="Path-copy-7" fill="#fffffe" fill-rule="evenodd" stroke="none" d="M 576.671631 220.31543 C 572.938354 216.01123 565.838379 214.515381 561.079956 211.402832 C 556.125854 208.161133 551.671631 204.202881 547.796631 199.736328 C 540.234131 191.036133 529.10083 167.840332 528.638306 166.38208 C 526.150879 158.63623 532.28418 156.82373 536.130005 154.219482 C 539.925781 151.661133 544.005005 149.111328 547.35498 145.994629 C 550.459106 143.103027 550.834106 139.673828 552.513306 136.015381 C 556.300781 127.773682 563.767456 119.531982 563.03833 109.87793 C 562.72583 105.786133 554.188354 102.69458 552.467529 102.13623 C 543.421631 99.165527 527.142456 98.919678 517.334106 101.398682 C 512.442505 102.63208 507.09668 106.482178 501.97998 104.223633 C 498.088379 102.50708 494.66748 98.25708 492.150879 94.640381 C 485.255005 84.736328 477.755005 75.461182 467.771729 68.490479 C 461.41748 64.052979 455.40918 61.540527 449.300781 62.044678 C 418.250854 64.623779 392.588379 96.673828 390.680054 96.486328 C 389.217529 96.340332 376.467529 73.38623 368.446655 66.75708 C 365.750854 64.523682 362.321655 59.998779 359.35498 58.523682 C 356.188354 56.952881 334.934204 57.207031 333.188354 60.732178 C 331.875854 63.38623 330.97583 67.186279 330.242493 70.69043 C 326.842529 86.840332 334.442505 103.961182 344.692505 116.140381 C 347.47583 119.452881 356.117554 125.656982 356.03833 130.44043 C 355.959106 135.115479 351.442505 130.044678 350.179993 128.81958 C 347.496643 126.215332 345.217529 124.082031 341.171692 125.353027 C 337.200806 126.603027 297.97583 146.177979 289.700806 153.365479 C 287.40918 155.357178 285.259155 157.723633 284.296692 160.361328 C 281.705017 167.490479 290.205017 221.169678 291.459167 226.961182 C 293.800842 237.719482 317.709167 281.603027 325.404968 291.215332 C 334.138306 302.119629 363.204956 331.961182 368.446655 335.173828 C 373.950806 338.544678 382.375854 341.869629 388.717529 337.265381 C 392.621704 334.436279 394.384155 328.215332 396.384155 323.952881 C 399.271606 317.786133 418.059204 272.082031 422.005005 268.353027 C 426.992554 263.63623 437.817505 263.711182 444.204956 263.402832 C 454.04248 262.923828 463.880005 263.656982 473.709106 264.077881 C 485.263306 264.57373 496.871704 264.732178 508.242554 266.998779 C 514.988281 268.340332 521.200806 270.869629 527.28833 272.890381 C 530.925781 274.103027 539.005005 274.715332 542.400879 273.26123 C 545.742554 271.827881 548.700806 268.265381 553.329956 266.873779 C 557.838379 265.519531 563.438354 265.26123 566.842529 262.94043 C 572.992554 258.75708 575.546631 244.365479 577.009155 237.603027 C 578.059204 232.76123 580.305054 224.498779 576.671631 220.31543"/>
    <path id="Path-copy-6" fill="none" stroke="#fffffe" stroke-width="10.179167" stroke-linecap="round" stroke-linejoin="round" d="M 576.671631 220.31543 C 572.938354 216.01123 565.838379 214.515381 561.079956 211.402832 C 556.125854 208.161133 551.671631 204.202881 547.796631 199.736328 C 540.234131 191.036133 529.10083 167.840332 528.638306 166.38208 C 526.150879 158.63623 532.28418 156.82373 536.130005 154.219482 C 539.925781 151.661133 544.005005 149.111328 547.35498 145.994629 C 550.459106 143.103027 550.834106 139.673828 552.513306 136.015381 C 556.300781 127.773682 563.767456 119.531982 563.03833 109.87793 C 562.72583 105.786133 554.188354 102.69458 552.467529 102.13623 C 543.421631 99.165527 527.142456 98.919678 517.334106 101.398682 C 512.442505 102.63208 507.09668 106.482178 501.97998 104.223633 C 498.088379 102.50708 494.66748 98.25708 492.150879 94.640381 C 485.255005 84.736328 477.755005 75.461182 467.771729 68.490479 C 461.41748 64.052979 455.40918 61.540527 449.300781 62.044678 C 418.250854 64.623779 392.588379 96.673828 390.680054 96.486328 C 389.217529 96.340332 376.467529 73.38623 368.446655 66.75708 C 365.750854 64.523682 362.321655 59.998779 359.35498 58.523682 C 356.188354 56.952881 334.934204 57.207031 333.188354 60.732178 C 331.875854 63.38623 330.97583 67.186279 330.242493 70.69043 C 326.842529 86.840332 334.442505 103.961182 344.692505 116.140381 C 347.47583 119.452881 356.117554 125.656982 356.03833 130.44043 C 355.959106 135.115479 351.442505 130.044678 350.179993 128.81958 C 347.496643 126.215332 345.217529 124.082031 341.171692 125.353027 C 337.200806 126.603027 297.97583 146.177979 289.700806 153.365479 C 287.40918 155.357178 285.259155 157.723633 284.296692 160.361328 C 281.705017 167.490479 290.205017 221.169678 291.459167 226.961182 C 293.800842 237.719482 317.709167 281.603027 325.404968 291.215332 C 334.138306 302.119629 363.204956 331.961182 368.446655 335.173828 C 373.950806 338.544678 382.375854 341.869629 388.717529 337.265381 C 392.621704 334.436279 394.384155 328.215332 396.384155 323.952881 C 399.271606 317.786133 418.059204 272.082031 422.005005 268.353027 C 426.992554 263.63623 437.817505 263.711182 444.204956 263.402832 C 454.04248 262.923828 463.880005 263.656982 473.709106 264.077881 C 485.263306 264.57373 496.871704 264.732178 508.242554 266.998779 C 514.988281 268.340332 521.200806 270.869629 527.28833 272.890381 C 530.925781 274.103027 539.005005 274.715332 542.400879 273.26123 C 545.742554 271.827881 548.700806 268.265381 553.329956 266.873779 C 557.838379 265.519531 563.438354 265.26123 566.842529 262.94043 C 572.992554 258.75708 575.546631 244.365479 577.009155 237.603027 C 578.059204 232.76123 580.305054 224.498779 576.671631 220.31543 Z"/>
    <path id="Path-copy-5" fill="#1a1919" fill-rule="evenodd" stroke="none" d="M 406.527954 242.057861 C 404.419556 245.182861 408.786255 249.874512 411.31543 251.149658 C 410.827881 247.503662 408.51123 244.620361 406.527954 242.057861 M 426.552979 155.820313 C 425.469604 161.470459 439.773804 160.79541 439.81958 157.782959 C 439.857056 155.320313 431.898804 157.782959 428.269531 154.345459 C 427.602905 153.708008 426.677856 155.149658 426.552979 155.820313 M 440.802856 136.899658 C 439.298706 136.870361 432.223755 137.328857 432.327881 138.620361 C 432.436279 140.095459 440.219604 139.178711 441.294556 139.237061 C 448.015381 139.587158 447.427856 146.995361 452.107056 148.820313 C 450.38623 143.437012 446.894531 137.032959 440.802856 136.899658 M 336.25708 137.391357 C 330.602905 141.237061 324.048767 143.678711 318.57373 147.466309 C 313.50293 150.966309 308.57373 153.837158 306.898743 160.362061 C 306.282104 162.766357 306.811279 165.208008 306.040405 167.366211 C 305.657104 168.441162 304.982056 169.17041 304.44458 170.312012 C 301.590393 176.316162 301.048767 183.237061 298.298767 189.845459 C 297.51123 191.749512 294.69043 192.761963 293.38623 195.866211 C 292.352905 198.324463 292.998779 201.799561 295.352905 202.378662 C 299.644592 203.432861 299.498779 196.474609 301.740417 195.499512 C 305.457092 193.874512 306.873779 198.566162 309.844604 198.941162 C 313.740417 199.428711 318.13623 193.470459 320.415405 191.078857 C 323.336243 187.999512 327.173767 185.312012 329.748779 181.85791 C 332.802917 177.770508 334.723755 174.037109 337.119568 169.945313 C 338.286255 167.953857 341.06958 166.316162 341.786255 164.29126 C 344.186279 157.54541 337.765442 154.386963 339.086243 147.466309 C 339.548767 145.011963 340.869568 142.657959 342.032104 141.199707 C 343.373779 139.520508 347.027893 138.216309 347.682068 135.92041 C 348.523743 132.999512 347.31543 130.374512 344.736267 131.003662 C 342.123779 131.641357 338.586243 135.812012 336.25708 137.391357 M 430.236206 130.882813 C 430.986206 132.628662 435.294556 132.349609 437.486206 132.599609 C 441.057129 133.012207 448.51123 134.003662 448.907104 131.124512 C 449.544556 126.549561 439.294556 125.299561 435.519531 125.724609 C 433.365356 125.966309 428.727905 127.349609 430.236206 130.882813 M 396.82373 113.432861 C 398.56543 114.761963 400.223755 116.953857 401.982056 118.966309 C 403.69873 120.937012 405.048706 123.724609 406.648804 124.98291 C 407.494629 125.649658 409.273804 126.04541 410.090454 125.474609 C 413.123779 123.378662 408.107056 116.837158 407.019531 115.645508 C 405.715454 114.220459 403.177856 112.628662 401.490356 111.349609 C 399.619629 109.932861 396.94458 106.753662 394.119629 107.662109 C 390.290405 108.895508 395.836304 112.687012 396.82373 113.432861 M 532.56958 150.04541 C 542.998779 142.011963 551.336304 130.337158 552.590454 113.807861 C 553.094604 107.199463 550.87793 103.97876 544.727905 103.97876 C 543.411255 103.97876 541.265381 104.070313 541.415405 105.578857 C 541.644531 107.945313 546.923706 105.774658 547.06543 109.016357 C 547.232056 112.874512 535.186279 112.48291 530.361206 111.22876 C 528.086304 110.636963 520.982056 108.253662 521.88208 113.316162 C 522.552979 117.10376 533.811279 114.703857 539.082031 114.912109 C 540.69458 114.974609 542.498779 115.587158 542.640381 116.999512 C 543.01123 120.60376 537.13208 120.691162 537.602905 123.999512 C 537.869629 125.849609 541.936279 125.895508 542.515381 127.807861 C 543.519531 131.091309 540.12793 132.48291 539.082031 134.691162 C 538.398804 136.10791 538.340454 137.708008 537.852905 138.745361 C 536.673706 141.237061 533.652954 143.599609 531.586304 145.624512 C 529.557129 147.612061 526.148804 148.941162 525.81543 152.253662 C 528.523804 153.412109 530.81958 151.395508 532.56958 150.04541 M 339.086243 75.10791 C 338.336243 80.303711 338.473755 90.583008 339.332092 95.499512 C 339.594604 97.011963 342.298767 100.274658 343.26123 100.907959 C 344.486267 101.716309 347.87793 102.23291 349.036255 102.870361 C 351.798767 104.399658 354.211304 109.070313 355.794556 111.962158 C 356.786255 113.787109 357.427856 115.85376 359.107056 116.628662 C 361.19873 117.591309 368.765381 115.761963 369.307129 118.720459 C 369.702881 120.891357 367.598755 122.287109 366.111206 123.386963 C 365.027954 124.182861 362.25708 126.124512 363.282104 128.299561 C 364.019531 129.85376 366.794556 128.862061 367.952881 128.174561 C 369.861206 127.057861 371.557129 124.553711 372.01123 123.020508 C 373.861206 116.712158 369.744629 115.345459 366.482056 113.562012 C 363.036255 111.674561 360.398804 109.132813 358.498779 105.695313 C 356.857056 102.749512 353.144531 97.241211 354.932129 92.674561 C 356.182129 89.47876 359.902954 90.424561 362.177856 91.816162 C 364.557129 93.270508 371.686279 101.316162 370.290405 92.674561 C 369.932129 90.491211 368.023804 86.095459 366.602905 83.216309 C 363.998779 77.945313 357.561279 70.92041 351.494568 69.458008 C 349.936279 69.083008 347.427917 69.278809 346.702942 69.337158 C 343.307068 69.595459 339.594604 71.570313 339.086243 75.10791 M 418.31958 242.182861 C 418.219604 239.282959 417.582031 233.278809 420.290405 233.337158 C 422.515381 233.382813 422.140381 237.257813 422.619629 239.112061 C 423.082031 240.891357 424.452881 241.924561 424.952881 243.282959 C 426.19458 246.67041 426.532104 252.458008 430.852905 251.636963 C 433.844604 251.070313 432.50293 246.257813 435.519531 245.866211 C 440.373779 245.237061 441.615356 253.503662 448.052856 251.761963 C 449.594604 251.341309 450.57373 248.932861 452.473755 248.816162 C 454.602905 248.678711 458.140381 250.974609 460.702881 251.761963 C 464.01123 252.787109 467.81958 251.928711 470.902954 252.745361 C 472.848755 253.261963 474.13208 254.85791 475.936279 254.958008 C 477.223755 255.028809 478.936279 254.178711 480.602905 254.466309 C 483.798706 255.016357 485.01123 258.112061 488.344604 256.92041 C 492.023804 255.612061 486.857056 245.703857 491.536255 245.866211 C 493.057129 245.92041 494.873779 249.532959 495.836304 250.657959 C 497.286255 252.345459 499.202881 253.774658 500.75293 254.837158 C 507.519531 259.453857 523.015381 262.128662 530.848755 256.432861 C 532.936279 254.903809 533.990356 251.724609 536.12793 250.29126 C 540.32373 247.47876 544.44873 246.136963 546.082031 241.195313 C 547.273804 237.578857 545.69873 234.774658 543.50293 233.212158 C 538.01123 229.316162 528.594604 227.60376 524.827881 221.42041 C 523.94873 219.970459 523.311279 217.112061 524.707031 216.136963 C 526.786255 214.687012 530.01123 217.774658 532.077881 219.458008 C 538.423706 224.595459 546.107056 228.991211 551.361206 234.445313 C 552.527954 235.645508 552.969604 237.366211 553.82373 238.745361 C 554.482056 239.807861 557.061279 244.078857 558.244629 244.391357 C 562.657104 245.557861 561.015381 237.128662 563.773804 235.299561 C 565.81543 233.945313 569.019531 235.79541 570.527954 233.828857 C 572.94043 230.691162 569.102905 225.257813 567.702881 223.507813 C 565.952881 221.320313 562.298706 219.112061 559.223755 217.487061 C 552.623779 213.999512 546.719604 211.095459 542.398804 205.449463 C 538.38623 200.216309 535.027954 193.424561 531.586304 187.391357 C 528.857056 182.612061 525.81543 178.587158 523.232056 174.124512 C 522.26123 172.445313 522.077881 170.716309 521.269531 168.841309 C 520.744629 167.624512 519.644531 166.782959 519.177856 165.649658 C 518.207031 163.266357 517.57373 160.503662 516.598755 158.028809 C 515.548706 155.35791 514.607056 152.770508 514.26123 150.04541 C 513.419556 143.333008 516.077881 131.753662 513.286255 126.337158 C 511.994629 123.833008 508.961304 121.741211 506.402954 119.333008 C 501.648804 114.862061 497.727905 109.282959 492.890381 105.083008 C 490.469604 102.98291 487.19458 100.712158 485.273804 98.449707 C 482.807129 95.549561 480.586304 91.449463 478.515381 87.762207 C 476.51123 84.191162 474.94043 79.449463 472.248779 76.587158 C 470.44458 74.662109 467.590454 74.391357 464.75708 73.391357 C 459.227905 71.437012 451.869629 67.628662 444.611206 68.35376 C 441.340454 68.678711 437.586304 71.79541 434.286255 73.391357 C 428.661255 76.112061 422.211304 80.132813 418.56958 85.549561 C 416.986206 87.899658 413.523804 92.224609 414.51123 95.253662 C 415.986206 99.753662 424.123779 95.970459 428.144531 97.462158 C 429.432129 97.941162 430.273804 99.462158 431.223755 100.17041 C 435.619629 103.466309 443.932129 106.570313 446.69873 111.470459 C 447.81543 113.453857 448.25293 115.35791 449.648804 116.878662 C 452.240356 119.699707 455.957031 118.816162 459.352905 120.316162 C 464.88623 122.757813 469.027954 129.591309 471.265381 135.303711 C 473.265381 140.391357 477.640381 147.149658 478.023804 153.362061 C 478.25293 157.062012 477.927856 160.370361 478.148804 163.682861 C 478.527954 169.324707 481.432129 172.970459 482.44873 177.687012 C 483.740356 183.678711 481.773804 189.162109 482.81543 195.995361 C 483.432129 199.999512 487.344604 199.474609 490.19043 201.149658 C 491.88208 202.149658 493.952881 204.48291 495.590454 205.941162 C 497.736206 207.845459 500.161255 209.79541 500.50708 212.574463 C 501.115479 217.412109 501.265381 227.945313 500.26123 232.47876 C 499.490479 235.945313 496.211304 241.074463 493.623779 241.937012 C 489.498779 243.307861 489.461304 239.874512 488.957031 236.899658 C 488.56543 234.562012 487.094604 231.941162 486.744629 229.162109 C 485.973755 222.945313 485.777954 217.503662 479.869629 216.874512 C 472.75708 216.112061 464.88623 218.320313 459.840454 216.261963 C 453.25293 213.574463 453.023804 204.220459 445.590454 202.620361 C 437.31543 200.845459 427.332031 201.962158 420.902954 198.445313 C 414.765381 195.095459 414.186279 186.22876 409.107056 181.620361 C 406.777954 179.503662 403.69873 179.887207 400.50708 177.812012 C 398.902954 176.766357 397.840454 174.962158 396.94458 173.386963 C 395.923706 171.583008 395.282104 168.570313 393.62793 167.612061 C 390.140381 165.60376 384.457031 167.991211 382.077881 168.474609 C 380.223755 168.849609 377.340454 168.270508 375.69043 168.841309 C 370.490356 170.649658 367.148804 180.303711 364.88208 187.761963 C 363.973755 190.73291 364.50708 194.98291 364.144531 197.953857 C 363.773804 201.028809 361.269531 203.10376 360.215454 205.078857 C 358.869629 207.612061 357.965454 213.774658 354.807129 214.662109 C 349.63623 216.116211 351.402893 208.924561 348.052917 208.895508 C 346.369568 208.870361 344.965393 212.445313 343.998779 214.17041 C 342.186218 217.412109 340.144592 218.932861 339.332092 222.278809 C 338.082092 227.41626 337.25708 231.412109 335.152893 235.299561 C 334.477905 236.54541 333.277893 237.299561 332.57373 238.499512 C 332.036255 239.403809 331.794556 240.966309 331.219604 241.691162 C 329.890442 243.374512 328.269592 243.803711 327.419556 245.991211 C 326.248779 248.958008 324.50708 254.549561 325.32373 258.520508 C 325.673767 260.212158 326.807068 262.566162 328.765442 262.449463 C 332.802917 262.208008 332.165405 251.778809 333.432068 248.320313 C 334.82373 244.54126 337.577942 241.949463 339.207092 239.35376 C 340.082092 237.970459 340.186279 235.616211 342.648743 235.79126 C 345.361267 235.987061 344.611267 239.937012 344.611267 243.162109 C 344.611267 250.474609 343.365417 253.624512 341.540405 258.520508 C 340.432068 261.495361 339.840393 264.366211 338.961243 267.60791 C 338.38208 269.761963 336.69043 271.532959 336.015442 273.632813 C 333.69458 280.816162 336.51123 290.195313 340.311279 293.899658 C 342.107056 295.649658 344.415405 296.537109 346.207092 298.074463 C 347.952942 299.570313 349.582092 301.374512 350.998779 303.35791 C 354.473755 308.208008 358.44458 312.095459 362.057129 316.624512 C 364.07373 319.153809 367.19873 321.553711 369.548706 324.366211 C 371.852905 327.112061 374.927856 332.812012 378.398804 333.703857 C 384.715454 335.320313 384.432129 325.837158 386.01123 320.803711 C 386.715454 318.566162 388.902954 317.195313 389.81958 315.645508 C 390.486206 314.520508 390.38208 312.362061 390.923706 310.85376 C 391.423706 309.453857 392.665405 308.649658 393.26123 307.537109 C 394.25293 305.674561 395.032104 302.716309 396.207031 300.287109 C 397.44458 297.737061 398.890381 295.766357 399.523804 293.282959 C 400.94873 287.757813 396.494629 288.35791 393.62793 285.66626 C 396.311279 283.208008 403.373779 282.912109 401.490356 277.187012 C 400.298706 273.578857 395.990356 270.79126 393.015381 267.97876 C 389.873779 265.016357 385.50293 262.574463 385.519531 258.274658 C 393.998779 260.324463 400.94873 266.678711 409.723755 268.841309 C 404.061279 261.507813 393.544556 257.208008 386.38208 250.04541 C 384.88208 248.54541 384.032104 246.270508 382.56958 244.516357 C 381.177856 242.845459 379.407104 241.662109 378.398804 239.970459 C 377.227905 238.024658 375.811279 235.157959 374.957031 233.212158 C 374.673706 232.570313 371.748779 225.999512 373.848755 225.349609 C 375.811279 224.749512 378.269531 229.299561 379.25708 230.632813 C 380.919556 232.878662 383.044556 234.578857 384.294556 236.407959 C 385.407104 238.04541 385.31543 241.549561 387.857056 241.324463 C 388.244629 239.72876 386.365356 238.67041 385.644531 237.391357 C 383.844604 234.199463 382.782104 229.924561 380.607056 226.337158 C 379.707031 224.849609 378.63623 222.987061 377.782104 221.049561 C 377.544556 220.520508 374.915405 215.812012 376.798706 215.153809 C 378.715454 214.491211 380.607056 217.97876 381.469604 219.333008 C 382.782104 221.399658 383.648804 223.412109 384.411255 225.23291 C 386.407104 229.932861 389.657104 231.712158 392.032104 235.42041 C 395.25293 240.458008 397.62793 245.60791 402.227905 249.182861 C 402.277954 246.224609 399.036255 242.757813 401.240356 239.724609 C 401.836304 238.91626 403.69873 238.912109 403.94873 238.003662 C 404.411255 236.333008 402.477905 234.458008 401.982056 233.337158 C 401.357056 231.907959 400.87793 229.849609 400.75708 227.807861 C 400.56958 224.782959 399.623779 216.428711 402.840454 216.624512 C 406.986206 216.886963 403.061279 227.820313 406.161255 228.174561 C 407.765381 228.362061 408.144531 225.782959 409.965454 225.966309 C 414.215454 226.386963 411.81543 236.60791 412.915405 240.828857 C 413.182129 241.841309 414.240356 243.153809 414.51123 243.899658 C 415.615356 246.891357 415.719604 250.945313 419.302856 251.024658 C 420.082031 248.157959 418.44043 245.678711 418.31958 242.182861 M 359.352905 58.524658 C 362.32373 59.999512 365.748779 64.524658 368.44458 66.753662 C 376.469604 73.387207 389.215454 96.337158 390.682129 96.48291 C 392.590454 96.67041 418.248779 64.624512 449.302856 62.04126 C 455.411255 61.537109 461.419556 64.053711 467.769531 68.491211 C 477.75708 75.462158 485.25293 84.737061 492.152954 94.641357 C 494.669556 98.257813 498.090454 102.507813 501.977905 104.220459 C 507.098755 106.47876 512.44458 102.632813 517.336304 101.399658 C 527.144531 98.91626 543.419556 99.16626 552.469604 102.132813 C 554.19043 102.695313 562.727905 105.787109 563.036255 109.878662 C 563.769531 119.528809 556.302856 127.770508 552.51123 136.016357 C 550.832031 139.674561 550.457031 143.099609 547.352905 145.991211 C 544.00293 149.112061 539.927856 151.662109 536.12793 154.220459 C 532.282104 156.820313 526.148804 158.636963 528.640381 166.382813 C 529.102905 167.837158 540.236206 191.032959 547.794556 199.73291 C 551.669556 204.203857 556.123779 208.162109 561.077881 211.403809 C 565.836304 214.516357 572.936279 216.011963 576.669556 220.316162 C 580.307129 224.499512 578.057129 232.761963 577.01123 237.60376 C 575.544556 244.366211 572.990479 258.757813 566.844604 262.941162 C 563.436279 265.257813 557.840454 265.516357 553.332031 266.874512 C 548.69873 268.266357 545.740356 271.828857 542.398804 273.257813 C 539.00708 274.712158 530.923706 274.099609 527.286255 272.891357 C 521.202881 270.870361 514.986206 268.341309 508.244629 266.995361 C 496.869629 264.72876 485.265381 264.574463 473.707031 264.078857 C 463.88208 263.657959 454.040405 262.924561 444.202881 263.403809 C 437.81958 263.712158 426.990356 263.636963 422.00293 268.35376 C 418.057129 272.083008 399.273804 317.787109 396.38623 323.953857 C 394.38623 328.212158 392.619629 334.437012 388.719604 337.266357 C 382.37793 341.870361 373.952881 338.54541 368.44458 335.174561 C 363.202881 331.962158 334.13623 302.120361 325.402893 291.216309 C 317.711243 281.60376 293.798767 237.716309 291.461243 226.958008 C 290.202942 221.17041 281.707092 167.491211 284.294556 160.362061 C 285.25708 157.724609 287.407104 155.35376 289.69873 153.362061 C 297.973755 146.174561 337.202942 126.60376 341.173767 125.35376 C 345.215393 124.083008 347.494568 126.216309 350.182068 128.820313 C 351.44043 130.04541 355.961304 135.112061 356.036255 130.441162 C 356.115356 125.653809 347.477905 119.453857 344.69043 116.141357 C 334.44458 103.958008 326.840393 86.841309 330.240417 70.691162 C 330.977905 67.187012 331.873779 63.386963 333.186279 60.73291 C 334.936279 57.203857 356.186279 56.953857 359.352905 58.524658"/>
    <path id="Path-copy-4" fill="#1a1919" fill-rule="evenodd" stroke="none" d="M 475.446655 102.012939 C 470.40918 102.133789 469.54248 96.867188 466.35083 94.14624 C 464.150879 92.27124 460.442505 91.342041 457.263306 90.217041 C 454.60498 89.279541 449.263306 88.225342 449.400879 85.058838 C 449.53418 81.983643 455.54248 82.192139 459.35083 82.479492 C 463.213379 82.77124 470.359131 84.562988 471.759155 86.654541 C 473.509155 89.27124 473.063354 93.679688 474.092529 97.096191 C 474.66333 98.983643 476.150879 99.992188 475.446655 102.012939"/>
    <path id="Path-copy-3" fill="#1a1919" fill-rule="evenodd" stroke="none" d="M 519.670776 202.871338 C 506.391724 191.537842 495.537476 177.787842 490.06665 158.64624 C 490.041626 158.541992 490.116699 158.529541 490.1875 158.52124 C 493.18335 159.26709 495.166626 164.150391 497.804199 166.629639 C 498.579224 167.363037 499.787476 167.879639 500.258301 168.475342 C 501.041626 169.446289 501.241699 170.967041 501.858276 172.037842 C 503.104126 174.217041 505.30835 175.666992 506.895874 177.687988 C 512.574951 184.937988 514.962524 194.608643 519.670776 202.871338"/>
    <path id="Path-copy-2" fill="#1a1919" fill-rule="evenodd" stroke="none" d="M 395.962524 237.512939 C 392.783325 233.508789 391.979126 225.725342 389.820801 219.57959 C 388.779175 216.608643 386.587524 211.742188 388.958374 208.64209 C 393.479126 207.937988 392.229126 217.64624 392.891724 221.912842 C 393.679199 226.971191 395.925049 231.387939 396.574951 235.054688 C 396.741699 235.975342 396.829224 237.008789 395.962524 237.512939"/>
    <path id="Path-copy" fill="#1a1919" fill-rule="evenodd" stroke="none" d="M 528.392456 230.387939 C 530.575806 229.971191 534.555054 232.171143 537.113281 233.337891 C 541.425781 235.300537 546.246704 242.200439 536.746704 241.442139 C 534.867554 241.296143 532.859131 240.233643 530.84668 239.725342 C 529.030029 239.26709 525.717529 238.983643 524.950806 238.004639 C 522.900879 235.387939 526.630005 230.725342 528.392456 230.387939"/>
</svg>
