<?xml version="1.0" encoding="UTF-8"?>
<!-- Generated by Pixelmator Pro 3.7.1 -->
<svg width="905" height="502" viewBox="0 0 905 502" xmlns="http://www.w3.org/2000/svg">
    <path id="Path-copy-29" fill="#1a1919" stroke="none" d="M 192.859192 413.299072 L 194.546692 420.257568 C 189.771667 427.84082 185.655029 434.02417 182.188354 438.803223 C 178.717529 443.58667 175.179993 447.990723 171.567505 452.02417 C 167.950806 456.057617 164.871643 459.065918 162.321655 461.036621 C 159.775818 463.011719 157.484192 464.257568 155.450806 464.77832 C 150.60498 466.02417 146.192505 465.190918 142.213318 462.27417 C 138.238342 459.370117 135.53833 454.986572 134.117493 449.136719 C 132.488342 442.411621 132.196655 435.411621 133.250854 428.140869 C 134.304993 420.870117 136.438354 413.08667 139.646667 404.803223 C 142.85498 396.515869 147.09668 387.053223 152.380005 376.411621 C 156.317505 368.549072 158.188354 364.21167 157.992493 363.40332 C 157.875854 362.932617 157.617493 362.570068 157.209167 362.315918 C 156.796692 362.070068 156.400818 361.990723 156.005005 362.09082 C 154.759155 362.411621 151.613342 366.21582 146.563354 373.507568 C 141.513306 380.803223 135.28833 391.219971 127.892517 404.757568 C 120.492493 418.303223 112.800842 434.128418 104.813354 452.249268 C 104.35083 453.219971 102.934143 456.499268 100.563354 462.070068 C 98.192505 467.64502 96.459167 471.320068 95.363342 473.103271 C 94.259155 474.882568 93.188354 475.90332 92.138306 476.174072 C 90.304993 476.64917 88.255005 475.14917 85.992493 471.699219 C 83.72583 468.240723 82.071655 464.361572 81.025818 460.053223 C 80.388306 457.432617 80.53833 454.39502 81.47583 450.940918 C 82.41333 447.482422 84.72998 441.128418 88.429993 431.857422 C 92.130005 422.58252 95.16333 414.786621 97.525818 408.46582 C 99.888306 402.14502 102.334167 394.59082 104.867493 385.799072 C 106.655029 379.695068 107.900818 374.882568 108.613342 371.34082 C 109.317505 367.799072 109.375854 364.820068 108.79248 362.39917 C 108.28418 360.311768 107.442505 359.419922 106.263306 359.724121 C 103.771667 360.365723 99.91748 364.978271 94.692505 373.561768 C 89.47168 382.15332 83.429993 394.469971 76.571655 410.515869 C 69.713318 426.553223 62.925842 444.83252 56.209167 465.34082 C 54.075867 472.320068 52.509155 477.044922 51.509155 479.515869 C 50.505005 481.982422 49.088318 483.453369 47.255005 483.919922 C 44.959167 484.511719 42.205017 482.553223 38.992493 478.053223 C 35.779968 473.561768 33.796692 469.761719 33.046692 466.669922 C 32.800842 465.661621 32.921692 464.449219 33.41333 463.036621 C 39.192505 448.986572 43.859192 437.107422 47.421692 427.407471 C 50.984192 417.70752 54.025818 408.59082 56.546692 400.053223 C 59.067505 391.515869 60.72998 384.58667 61.525818 379.27417 C 62.321655 373.96582 62.388306 369.928223 61.72168 367.165771 C 61.017517 364.27417 59.388306 363.161621 56.834167 363.815918 C 54.734131 364.349121 51.500854 366.64502 47.125854 370.690918 C 42.750854 374.740723 37.29248 380.140869 30.750854 386.886719 C 24.209167 393.636719 18.921692 398.865723 14.880005 402.58252 C 10.838318 406.290771 7.675842 408.445068 5.384155 409.036621 C 3.217529 409.58667 1.838318 408.620117 1.234131 406.132568 C 0.892517 404.71582 0.563354 401.357422 0.246643 396.040771 C -0.065796 390.728271 0.013306 386.90332 0.492493 384.565918 C 1.209167 381.52417 3.871643 377.061768 8.459167 371.169922 C 13.046692 365.27832 15.638306 362.257568 16.22998 362.103271 C 16.755005 361.969971 17.075806 362.140869 17.188354 362.607422 C 17.250854 362.874268 17.088318 363.353271 16.692505 364.02002 C 14.546692 366.928223 12.992493 369.257568 12.021667 371.003418 C 11.054993 372.753418 10.609131 374.511719 10.688354 376.27832 C 20.888367 365.807617 30.246643 357.424072 38.775818 351.132568 C 47.304993 344.84082 53.404968 341.224121 57.075806 340.282471 C 58.90918 339.811768 60.950806 340.628418 63.200806 342.732422 C 65.450867 344.84082 67.554993 347.407471 69.509155 350.436768 C 71.463318 353.474121 72.550842 355.46167 72.78418 356.40332 C 73.613342 359.83667 73.746643 364.107422 73.175842 369.219971 C 72.609192 374.328369 71.617493 380.349121 70.200806 387.286621 C 68.78833 394.21582 67.046692 402.882568 64.97583 413.27002 C 67.28833 407.890869 69.517517 402.890869 71.66748 398.27417 C 73.817505 393.64917 75.97583 389.128418 78.138306 384.71582 C 80.304993 380.303223 82.509155 375.844971 84.759155 371.34082 C 87.79248 365.20752 91.400818 359.15332 95.592529 353.190918 C 99.78418 347.228271 103.834167 342.182617 107.742493 338.078369 C 111.650818 333.96582 114.421692 331.699219 116.063354 331.27832 C 118.35498 330.695068 120.717529 331.46582 123.146667 333.59082 C 125.575806 335.719971 127.150818 338.265869 127.871643 341.224121 C 128.34668 343.178223 128.005005 347.228271 126.85498 353.378418 C 125.700806 359.532471 123.775818 367.52417 121.084167 377.361572 C 118.388367 387.190918 114.763306 399.911621 110.196655 415.511719 C 115.688354 405.45752 121.421692 395.099121 127.392517 384.424072 C 133.363342 373.749268 137.830017 365.924072 140.800842 360.953369 C 143.767517 355.974121 146.309143 352.107422 148.421692 349.353271 C 151.342529 345.603271 154.22583 341.632568 157.067505 337.440918 C 159.91333 333.249268 162.150818 329.940918 163.796692 327.52417 C 165.434143 325.099121 166.950806 323.178223 168.342529 321.745117 C 169.738342 320.315918 171.121643 319.424072 172.496643 319.074219 C 174.200806 318.636719 176.834167 320.107422 180.405029 323.478271 C 183.97168 326.853271 185.896667 329.111572 186.171692 330.253418 C 186.517517 331.661621 186.150818 333.540771 185.088318 335.886719 C 184.021667 338.236572 181.709167 342.686768 178.146667 349.240723 C 171.617493 361.344971 166.29248 373.224121 162.16333 384.886719 C 158.03418 396.557617 155.28418 406.945068 153.90918 416.044922 C 152.53418 425.14502 152.425842 432.08667 153.584167 436.861572 C 154.304993 439.820068 155.363342 441.83667 156.771667 442.90332 C 158.179993 443.974121 160.030029 444.21167 162.321655 443.628418 C 164.41748 443.08667 166.271667 442.182617 167.875854 440.915771 C 169.484192 439.64917 171.200806 437.990723 173.04248 435.949219 C 174.875854 433.911621 176.617493 431.96167 178.255005 430.111572 C 180.59668 427.728271 182.867493 425.240723 185.050842 422.640869 C 187.238342 420.040771 188.934143 417.999268 190.142517 416.515869 C 191.34668 415.02417 192.250854 413.95752 192.859192 413.299072"/>
    <path id="Path-copy-28" fill="#1a1919" stroke="none" d="M 220.414551 358.770508 C 218.772949 359.191162 217.064575 358.949463 215.28125 358.049561 C 213.497925 357.149658 212.364624 355.72876 211.893799 353.774658 C 211.172974 350.812012 211.752075 347.17041 213.622925 342.833008 C 215.489624 338.491211 217.9021 335.941162 220.8479 335.195313 C 222.814575 334.687012 224.602051 334.895508 226.2146 335.799561 C 227.827026 336.712158 228.922974 338.341309 229.493774 340.695313 C 230.193726 343.587158 229.622925 347.128662 227.789551 351.307861 C 225.952026 355.495361 223.489624 357.98291 220.414551 358.770508 M 238.0354 402.153809 L 239.827026 409.520508 C 235.510376 419.553711 231.118774 427.41626 226.647949 433.091309 C 222.189575 438.774658 218.018799 442.112061 214.15625 443.099609 C 208.7771 444.474609 204.081238 442.612061 200.060425 437.495361 C 196.03125 432.382813 193.189575 426.391357 191.522888 419.532959 C 190.889587 416.912109 190.539612 414.341309 190.485413 411.820313 C 190.427063 409.299561 190.577087 407.17041 190.922913 405.437012 C 191.268738 403.708008 192.022888 400.945313 193.185425 397.141357 C 198.885437 379.899658 205.5979 370.282959 213.327026 368.303711 C 217.327026 367.278809 219.710449 368.341309 220.477051 371.507813 C 220.997925 373.657959 220.522949 377.35791 219.043701 382.591309 C 217.564575 387.828857 216.039551 391.678711 214.485474 394.149658 C 210.1604 401.257813 207.393799 406.145508 206.193726 408.812012 C 204.997925 411.47876 204.743774 414.216309 205.431274 417.04126 C 206.014587 419.466309 207.389526 421.257813 209.552124 422.41626 C 211.710449 423.578857 214.202026 423.799561 217.018799 423.074463 C 220.0979 422.287109 223.206299 420.257813 226.3479 416.991211 C 229.485474 413.724609 233.381226 408.774658 238.0354 402.153809"/>
    <path id="Path-copy-27" fill="#1a1919" stroke="none" d="M 255.163696 394.662842 C 260.48877 390.796143 264.826294 386.57959 268.172119 382.004639 C 271.509644 377.433838 273.797119 373.296143 275.022095 369.587891 C 276.24707 365.883789 276.67627 363.296143 276.317871 361.808838 C 275.942871 360.26709 275.063721 359.666992 273.688721 360.01709 C 272.513794 360.321289 270.784546 361.587891 268.505371 363.812988 C 266.226196 366.037842 264.030396 368.746338 261.913696 371.925537 C 259.80127 375.117188 258.067871 378.666992 256.726196 382.587891 C 255.376221 386.500488 254.859619 390.525391 255.163696 394.662842 M 255.772095 401.471191 L 256.380371 403.992188 C 257.347046 407.95459 259.047119 410.808838 261.484619 412.546143 C 263.92627 414.275391 266.68457 414.746338 269.763794 413.95874 C 272.972046 413.133789 276.11792 411.508789 279.18042 409.07959 C 282.24292 406.650391 285.167969 403.725342 287.955444 400.296143 C 290.74292 396.875488 294.067871 392.375488 297.938721 386.808838 L 299.43457 392.962891 C 294.24707 404.008789 289.005371 412.796143 283.701294 419.337891 C 278.397095 425.871338 272.405396 430.000488 265.722046 431.70874 C 259.888794 433.20459 254.709595 432.067139 250.172119 428.296143 C 245.638794 424.533691 242.397095 418.613037 240.43457 410.541992 C 238.722046 403.479492 238.776245 396.658691 240.588745 390.092041 C 242.401245 383.51709 246.172119 376.100342 251.897095 367.850342 C 255.813721 362.200439 259.959595 357.64209 264.338745 354.162842 C 268.709595 350.683838 272.830444 348.45459 276.697144 347.462891 C 279.780396 346.671143 282.392944 346.76709 284.542969 347.754639 C 286.697144 348.742188 288.126221 350.679688 288.830444 353.567139 C 289.855469 357.808838 289.338745 362.421143 287.280396 367.412842 C 285.217896 372.404541 281.530396 377.779541 276.213745 383.533691 C 270.892944 389.291992 264.080444 395.27124 255.772095 401.471191"/>
    <path id="Path-copy-26" fill="#1a1919" stroke="none" d="M 329.331665 365.376221 L 323.98999 351.097168 C 321.069214 356.851318 314.581665 368.12207 304.531616 384.909668 C 308.67334 384.776367 311.644165 385.263672 313.444214 386.376221 C 315.248291 387.48877 317.969116 389.822021 321.619141 393.388672 C 325.61499 390.36792 328.419189 386.917969 330.019165 383.038818 C 331.61499 379.167969 331.731689 374.401367 330.36084 368.755371 C 330.198364 368.084473 330.031616 367.484619 329.869141 366.947021 C 329.706665 366.422119 329.527466 365.896973 329.331665 365.376221 M 296.419189 390.201172 L 295.831665 387.776367 C 308.294189 365.155518 316.819214 349.36377 321.394165 340.405518 C 320.823364 331.759521 323.294189 326.74292 328.79834 325.326172 C 330.17749 324.976318 331.744141 325.001221 333.519165 325.405518 L 334.569214 327.172119 C 334.502441 328.047119 334.652466 329.226318 335.010864 330.701172 C 335.319214 331.976318 336.369141 334.230469 338.165039 337.451172 C 339.952515 340.672119 341.394165 343.388672 342.48584 345.609619 C 343.581665 347.834473 344.494141 350.417969 345.210815 353.376221 C 346.285889 357.817871 346.339966 362.322021 345.36084 366.892822 C 344.381714 371.468018 342.473389 376.097168 339.652466 380.788818 C 336.823364 385.480469 332.931641 390.526367 327.981689 395.93457 C 330.439941 395.74292 332.352539 395.459473 333.731689 395.109619 C 336.415039 394.417969 339.148315 392.98877 341.92334 390.813721 C 344.698364 388.638672 347.431641 385.976318 350.11084 382.822021 C 352.790039 379.672119 355.844116 375.692871 359.273315 370.884521 L 360.910889 377.646973 C 354.564941 388.201172 348.606689 396.49707 343.044189 402.526367 C 337.477539 408.55957 332.306641 412.188721 327.523315 413.413818 C 321.36499 414.99292 315.010864 413.759521 308.464966 409.722168 C 304.602539 407.288818 301.931641 404.68042 300.460815 401.917969 C 298.98999 399.151367 297.644165 395.24707 296.419189 390.201172"/>
    <path id="Path-copy-25" fill="#1a1919" stroke="none" d="M 459.373291 276.771729 L 460.377441 280.90918 C 468.494141 273.04248 474.415039 265.41748 478.156616 258.030029 C 481.898315 250.642578 483.331665 245.171631 482.464966 241.60498 C 481.73584 238.575928 479.894165 237.442383 476.944214 238.196777 C 474.260864 238.888428 471.248291 241.388428 467.910889 245.709229 C 464.573364 250.025879 462.010864 255.03833 460.23584 260.742432 C 458.456665 266.450928 458.165039 271.796631 459.373291 276.771729 M 453.42749 310.334229 C 449.406616 315.009277 445.998291 319.809082 443.194214 324.742432 C 440.390015 329.679932 438.344116 334.29248 437.056641 338.584229 C 435.760864 342.879883 435.42749 346.271729 436.027466 348.759277 C 437.23584 353.738281 440.031616 355.65918 444.42334 354.53418 C 447.631714 353.713379 451.723389 351.509277 456.698364 347.90918 C 461.67334 344.317383 466.402466 339.72998 470.898315 334.150879 C 466.348389 328.030029 460.523315 320.088379 453.42749 310.334229 M 456.044189 379.205078 C 451.394165 380.396729 446.54834 380.067383 441.502441 378.217529 C 436.460815 376.363281 431.998291 373.150879 428.102539 368.575928 C 424.206665 364.004883 421.473389 358.484131 419.910889 352.030029 C 417.819214 343.425781 419.11499 334.767578 423.785889 326.071777 C 428.464966 317.375732 436.194214 308.000732 446.973389 297.950928 C 445.294189 293.879883 444.23999 290.97168 443.814941 289.22168 C 442.165039 282.429932 442.006714 275.684082 443.339966 268.984131 C 444.67334 262.28418 447.056641 256.263428 450.48999 250.91748 C 453.92334 245.575928 457.86084 241.138428 462.294189 237.609131 C 466.723389 234.080078 471.198364 231.734131 475.723389 230.575928 C 480.960815 229.234131 485.506714 229.450928 489.344116 231.217529 C 493.181641 232.984131 495.602539 235.91748 496.594116 240.021729 C 497.915039 245.463379 497.73999 250.692383 496.064941 255.692383 C 494.394165 260.696777 491.852539 265.434082 488.452515 269.91333 C 485.05249 274.396729 480.744141 279.384277 475.544189 284.900879 C 470.339966 290.41333 467.206665 293.838379 466.140015 295.184082 C 470.290039 303.121582 475.573364 310.97998 481.98999 318.767578 C 486.890015 313.155029 490.61499 308.29248 493.165039 304.171631 C 495.714966 300.059082 497.80249 296.325928 499.42749 292.97998 C 501.04834 289.638428 502.252441 287.863281 503.040039 287.65918 C 503.631714 287.509277 504.30249 288.125732 505.05249 289.500732 C 505.810791 290.879883 506.394165 292.442383 506.819214 294.192383 C 507.810791 298.296631 508.031616 302.34668 507.469116 306.34668 C 506.915039 310.35083 505.744141 314.509277 503.977539 318.813232 C 502.202515 323.129883 499.848389 327.842529 496.910889 332.946777 L 505.160889 338.554932 C 505.619141 337.863281 506.152466 336.905029 506.760864 335.675781 C 507.36499 334.446777 507.852539 333.59668 508.223389 333.10498 C 508.594116 332.621582 509.035889 332.304932 509.560791 332.171631 C 510.219116 332.004883 510.794189 332.146729 511.281616 332.588379 C 511.777466 333.03418 512.098389 333.59668 512.265015 334.267578 C 512.931641 337.025879 512.152466 342.138428 509.931641 349.59668 C 507.702515 357.063232 505.348389 361.117432 502.856689 361.754883 C 501.54834 362.092529 500.131714 361.85498 498.619141 361.067383 C 497.106689 360.275879 495.165039 358.884277 492.80249 356.879883 C 490.439941 354.879883 488.498291 353.179932 486.977539 351.780029 C 480.877441 359.629883 475.277466 365.888428 470.17749 370.546631 C 465.081665 375.213379 460.373291 378.09668 456.044189 379.205078"/>
    <path id="Path-copy-24" fill="#1a1919" stroke="none" d="M 673.787964 293.32251 C 671.39624 290.647461 668.262939 288.485107 664.379639 286.834961 C 660.504639 285.185059 656.33374 284.126709 651.867065 283.668213 C 647.408691 283.20166 642.854614 283.168213 638.221191 283.568359 C 624.500366 284.943359 611.075439 283.70166 597.967041 279.847412 C 596.850464 279.564209 595.529541 278.685059 593.992065 277.222412 C 592.450439 275.76416 591.483765 274.218262 591.092041 272.610107 C 589.658691 266.685059 589.179565 260.505859 589.671265 254.055908 C 590.158813 247.610107 591.504639 242.318359 593.700439 238.180908 C 597.192139 231.364258 604.737915 224.251709 616.346191 216.847412 C 627.942139 209.44751 641.637939 203.722412 657.425415 199.676758 C 666.862915 197.26416 674.32959 196.13501 679.83374 196.293213 C 685.33374 196.459961 688.45874 198.084961 689.212891 201.180908 C 690.437866 206.226563 690.717041 210.297607 690.037964 213.397461 C 689.362915 216.497559 688.367065 218.705811 687.046265 220.001709 C 685.729614 221.305908 683.325439 223.226563 679.83374 225.76416 C 676.067139 228.305908 672.850464 230.76416 670.196289 233.159912 C 667.546265 235.555908 665.317139 237.772461 663.512939 239.801758 C 661.70874 241.839111 660.542114 242.918213 660.02124 243.055908 C 659.367065 243.226563 658.971191 243.039063 658.842041 242.501709 C 658.562866 241.355713 659.304565 239.32666 661.071289 236.409912 C 662.83374 233.497559 665.20459 230.726563 668.187866 228.105713 C 671.317139 225.230957 672.821289 223.526611 672.687866 222.989258 C 672.475464 222.118408 670.375366 222.185059 666.375366 223.209961 C 654.254639 226.314209 643.317139 230.297607 633.575439 235.147461 C 623.821289 240.005859 616.421265 245.01001 611.375366 250.155762 C 606.32959 255.305908 604.258789 259.772461 605.171265 263.534912 C 605.750366 265.88916 607.379639 267.235107 610.071289 267.584961 C 612.76709 267.930908 618.587891 268.172607 627.525391 268.310059 C 636.471191 268.44751 644.604614 269.151611 651.942139 270.414063 C 662.446289 272.147461 670.550415 274.685059 676.229614 278.01416 C 681.908691 281.347412 685.429565 285.801758 686.779541 291.38501 C 687.712891 295.218262 687.746216 299.297607 686.883789 303.630859 C 686.02124 307.959961 684.246216 312.180908 681.550415 316.297607 C 678.862915 320.414063 675.512939 324.093262 671.496216 327.339111 C 668.037964 330.01416 663.558716 332.839111 658.054565 335.814209 C 652.546265 338.805908 646.467041 341.584961 639.83374 344.180908 C 633.187866 346.780762 626.754639 348.872559 620.529541 350.468262 C 609.062866 353.401611 599.575439 354.659912 592.062866 354.226563 C 584.537964 353.793213 580.237915 351.32251 579.14209 346.818359 C 578.654541 344.797607 579.071289 341.355713 580.39209 336.476563 C 581.712891 331.601563 583.796265 328.01416 586.654541 325.714111 C 589.192139 323.847412 591.754639 322.493408 594.33374 321.655762 C 596.912964 320.818359 598.300415 320.801758 598.496216 321.610107 C 598.542114 321.810059 598.496216 322.039063 598.350464 322.289063 C 598.196289 322.539063 598.008789 322.76416 597.783813 322.972412 C 597.554565 323.172607 597.321289 323.376709 597.096191 323.57251 C 595.912964 324.44751 594.950439 325.13916 594.20459 325.651611 C 593.462891 326.168213 592.875366 326.63916 592.45874 327.068359 C 592.042114 327.497559 591.900391 327.976563 592.029541 328.51416 C 592.371216 329.930908 599.325439 328.893311 612.887939 325.418213 C 624.683716 322.401611 634.237915 319.489258 641.562866 316.685059 C 648.883789 313.880859 655.150391 310.593262 660.358765 306.834961 C 665.567139 303.07251 670.050415 298.560059 673.787964 293.32251"/>
    <path id="Path-copy-23" fill="#1a1919" stroke="none" d="M 739.119995 245.403809 C 734.503296 250.162109 730.58252 254.395508 727.382446 258.10791 C 724.178345 261.824463 721.569946 265.41626 719.561646 268.895508 C 717.549194 272.378662 716.432495 275.649658 716.199219 278.708008 C 716.390869 286.662109 716.561646 290.937012 716.70752 291.54126 C 717.786621 295.97876 721.33667 297.428711 727.365845 295.886963 C 730.178345 295.157959 734.295044 291.462158 739.703369 284.79126 C 737.819946 281.924561 736.532471 279.032959 735.828369 276.141357 C 734.803345 271.903809 734.603394 267.366211 735.236694 262.524658 C 735.878296 257.682861 737.165894 251.974609 739.119995 245.403809 M 765.803345 266.749512 L 767.449219 273.503662 C 764.103394 278.649658 761.27832 282.23291 758.990845 284.245361 C 756.694946 286.266357 753.057495 287.766357 748.078369 288.757813 C 742.074219 301.29541 735.828369 308.395508 729.34082 310.053711 C 725.670044 310.995361 722.02832 310.60791 718.407471 308.886963 C 714.795044 307.174561 711.561646 304.395508 708.71167 300.553711 C 705.869995 296.712158 703.799194 292.132813 702.511719 286.820313 C 701.46582 282.516357 701.699219 277.382813 703.21582 271.424561 C 704.719971 265.466309 707.140869 259.649658 710.45752 253.97876 C 713.782471 248.303711 717.624146 243.424561 721.994995 239.341309 C 726.357544 235.261963 730.703369 232.662109 735.032471 231.553711 C 738.111694 230.766357 740.65332 230.632813 742.661621 231.153809 C 744.665894 231.674561 745.878296 232.816162 746.307495 234.562012 C 746.632446 235.912109 746.249146 237.645508 745.170044 239.778809 C 747.786621 239.682861 749.71167 240.136963 750.928345 241.149658 C 752.14917 242.157959 753.157471 244.307861 753.96167 247.599609 C 754.740845 250.828857 754.990845 255.087158 754.70752 260.374512 C 754.428345 265.662109 753.532471 270.787109 752.02002 275.741211 L 754.228394 277.10791 L 755.699219 276.72876 C 756.815796 276.445313 757.844971 275.878662 758.790894 275.032959 C 759.728394 274.182861 760.549194 273.328857 761.244995 272.470459 C 761.944946 271.616211 763.46167 269.703857 765.803345 266.749512"/>
    <path id="Path-copy-22" fill="#1a1919" stroke="none" d="M 825.858765 232.185303 C 817.525391 248.327148 813.987915 258.977051 815.242065 264.1604 C 815.946289 267.052002 817.442139 268.197998 819.737915 267.610352 C 821.633789 267.127197 823.862915 265.46875 826.412964 262.639648 C 828.962891 259.806152 832.837891 254.935303 838.058716 248.0271 L 839.742065 254.985352 C 832.721191 266.789551 827.229614 275.4104 823.26709 280.856201 C 819.296265 286.302002 815.737915 289.422852 812.596191 290.231201 C 807.217041 291.610352 803.654541 288.664551 801.89209 281.4021 C 801.371216 279.252197 801.179565 277.043701 801.33374 274.793701 C 801.479614 272.543701 801.854614 270.139648 802.45459 267.59375 C 803.054565 265.043701 804.025391 261.368652 805.362915 256.564697 C 806.70459 251.756348 808.26709 246.302002 810.054565 240.193848 C 806.796265 243.106201 803.046265 248.172852 798.817139 255.4021 C 796.029541 259.96875 793.750366 264.210449 791.992065 268.131348 C 790.225464 272.052002 788.371216 276.381348 786.425415 281.127197 C 784.483765 285.877197 783.008789 289.114502 782.000366 290.831299 C 780.987915 292.556152 779.800415 293.5979 778.421265 293.947998 C 776.325439 294.489502 773.850464 292.727051 770.987915 288.677002 C 768.121216 284.622803 765.967041 279.602051 764.508789 273.618652 C 763.617065 269.914551 763.317139 266.918701 763.629639 264.627197 C 763.950439 262.331299 764.846191 258.956299 766.346191 254.506348 C 769.133789 246.21875 771.76709 239.985352 774.233765 235.822998 C 776.696289 231.647949 779.442139 229.185303 782.45874 228.40625 C 784.554565 227.872803 786.32959 227.810303 787.783691 228.21875 C 789.242065 228.635498 790.162964 229.614502 790.533691 231.1604 C 790.700439 231.835449 790.671265 232.5896 790.45874 233.427002 C 790.246216 234.272949 789.967041 235.056152 789.625366 235.789551 C 789.279541 236.518799 788.533691 237.960449 787.383789 240.114502 C 779.887939 254.53125 776.562866 263.493652 777.412964 266.993652 C 777.883789 268.943848 778.737915 269.756348 779.987915 269.435303 C 780.779541 269.235352 781.987915 267.552002 783.612915 264.385498 C 785.250366 261.2146 787.342041 257.072998 789.89209 251.952148 C 792.437866 246.8396 795.604614 241.360352 799.375366 235.543701 C 803.14624 229.71875 807.629639 223.885498 812.825439 218.056152 C 815.696289 214.677002 818.275391 212.693848 820.567139 212.110352 C 821.608765 211.8396 823.008789 213.060303 824.742065 215.756348 C 826.471191 218.460449 827.70874 221.314697 828.442139 224.34375 C 828.800415 225.822998 827.937866 228.435303 825.858765 232.185303"/>
    <path id="Path-copy-21" fill="#1a1919" stroke="none" d="M 871.574219 226.476563 L 866.228394 212.19751 C 863.307495 217.95166 856.824219 229.222412 846.77417 246.01001 C 850.911621 245.872559 853.886719 246.368408 855.686646 247.476563 C 857.482544 248.589111 860.21167 250.922607 863.857544 254.489258 C 867.857544 251.468262 870.657471 248.018311 872.257446 244.143311 C 873.857544 240.268311 873.974121 235.501709 872.603394 229.860107 C 872.440796 229.185059 872.27417 228.584961 872.115845 228.051758 C 871.949219 227.522461 871.77002 226.993408 871.574219 226.476563 M 838.665894 251.301758 L 838.074219 248.876709 C 850.536621 226.255859 859.057495 210.464111 863.636719 201.505859 C 863.065796 192.864258 865.536621 187.839111 871.045044 186.426758 C 872.415894 186.07666 873.990845 186.101563 875.757446 186.505859 L 876.811646 188.272461 C 876.744995 189.147461 876.890869 190.32666 877.253296 191.801758 C 877.565796 193.080811 878.611694 195.330811 880.39917 198.551758 C 882.190796 201.772461 883.636719 204.489258 884.732544 206.709961 C 885.824219 208.930908 886.736694 211.518311 887.453369 214.476563 C 888.52832 218.918213 888.578369 223.422607 887.603394 227.993408 C 886.624146 232.568359 884.719971 237.19751 881.890869 241.88916 C 879.061646 246.580811 875.170044 251.626709 870.224121 257.034912 C 872.678345 256.839111 874.594971 256.560059 875.969971 256.209961 C 878.65332 255.522461 881.386719 254.089111 884.165894 251.914063 C 886.940796 249.739258 889.674194 247.07666 892.353394 243.926758 C 895.032471 240.768311 898.08667 236.797607 901.515869 231.985107 L 903.15332 238.743408 C 896.807495 249.301758 890.849121 257.593262 885.286621 263.626709 C 879.719971 269.659912 874.545044 273.289063 869.765869 274.51416 C 863.607544 276.093262 857.249146 274.860107 850.703369 270.82251 C 846.84082 268.38916 844.174194 265.780762 842.699219 263.018311 C 841.232544 260.251709 839.882446 256.347412 838.665894 251.301758"/>
    <path id="Path-copy-20" fill="#1a1919" stroke="none" d="M 377.335815 434.775391 L 377.894165 447.000488 L 376.473389 447.000488 C 376.198364 444.846191 375.823364 443.304688 375.352539 442.383789 C 374.573364 440.900391 373.544189 439.808838 372.260864 439.096191 C 370.977539 438.39209 369.285889 438.041992 367.185791 438.041992 L 360.040039 438.041992 L 360.040039 477.854492 C 360.040039 481.050537 360.377441 483.050537 361.05249 483.842041 C 361.998291 484.921143 363.456665 485.45874 365.431641 485.45874 L 367.185791 485.45874 L 367.185791 486.883789 L 345.665039 486.883789 L 345.665039 485.45874 L 347.460815 485.45874 C 349.61084 485.45874 351.127441 484.796143 352.027466 483.45874 C 352.577515 482.64209 352.852539 480.775391 352.852539 477.854492 L 352.852539 438.041992 L 346.748291 438.041992 C 344.381714 438.041992 342.698364 438.225342 341.698364 438.57959 C 340.398315 439.067139 339.290039 440.004639 338.36499 441.387939 C 337.439941 442.76709 336.890015 444.637939 336.719116 447.000488 L 335.29834 447.000488 L 335.898315 434.775391 Z"/>
    <path id="Path-copy-19" fill="#1a1919" stroke="none" d="M 393.878296 460.10083 C 394.349121 460.10083 394.757446 460.10498 395.111694 460.117432 C 395.46167 460.129883 395.749146 460.138428 395.969971 460.138428 C 400.815796 460.138428 404.46582 459.059082 406.924194 456.91333 C 409.378296 454.759277 410.611694 452.013428 410.611694 448.684082 C 410.611694 445.434082 409.615845 442.78833 407.632446 440.754883 C 405.64917 438.713379 403.02002 437.696777 399.753296 437.696777 C 398.307495 437.696777 396.344971 437.942383 393.878296 438.429932 Z M 429.928345 486.884277 L 416.374146 486.884277 L 399.194946 462.521729 C 397.920044 462.567383 396.886719 462.59668 396.08667 462.59668 C 395.761719 462.59668 395.411621 462.592529 395.036621 462.575928 C 394.661621 462.563232 394.27417 462.54248 393.878296 462.521729 L 393.878296 477.655029 C 393.878296 480.938232 394.224121 482.97168 394.924194 483.771729 C 395.874146 484.892578 397.295044 485.459229 399.194946 485.459229 L 401.178345 485.459229 L 401.178345 486.884277 L 379.428345 486.884277 L 379.428345 485.459229 L 381.33667 485.459229 C 383.482544 485.459229 385.015869 484.742432 385.940796 483.304932 C 386.46582 482.513428 386.728394 480.634277 386.728394 477.655029 L 386.728394 444.000732 C 386.728394 440.717529 386.378296 438.679932 385.678345 437.888428 C 384.703369 436.763428 383.257446 436.200928 381.33667 436.200928 L 379.428345 436.200928 L 379.428345 434.775879 L 397.920044 434.775879 C 403.311646 434.775879 407.282471 435.179932 409.844971 435.984131 C 412.39917 436.79248 414.574219 438.280029 416.357544 440.442383 C 418.136719 442.609131 419.032471 445.192383 419.032471 448.188232 C 419.032471 451.388428 418.011719 454.16748 415.982544 456.525879 C 413.949219 458.884277 410.799194 460.54248 406.532471 461.517578 L 417.011719 476.463379 C 419.40332 479.896729 421.46582 482.179932 423.186646 483.304932 C 424.911621 484.434082 427.15332 485.150879 429.928345 485.459229 Z"/>
    <path id="Path-copy-18" fill="#1a1919" stroke="none" d="M 464.36377 436.199463 L 464.36377 434.774658 L 482.334595 434.774658 L 482.334595 436.199463 L 480.422119 436.199463 C 478.42627 436.199463 476.892944 437.057861 475.822144 438.770508 C 475.297119 439.570313 475.034546 441.412109 475.034546 444.303711 L 475.034546 465.437012 C 475.034546 470.66626 474.526245 474.720459 473.517944 477.599609 C 472.509644 480.48291 470.526245 482.958008 467.567871 485.016357 C 464.609619 487.078857 460.588745 488.10791 455.49292 488.10791 C 449.955444 488.10791 445.751221 487.124512 442.880371 485.153809 C 440.005371 483.178711 437.976196 480.528809 436.776245 477.195313 C 435.976196 474.91626 435.580444 470.641357 435.580444 464.362061 L 435.580444 443.999512 C 435.580444 440.79541 435.151245 438.695313 434.288696 437.695313 C 433.43042 436.703857 432.038696 436.199463 430.11792 436.199463 L 428.205444 436.199463 L 428.205444 434.774658 L 450.142944 434.774658 L 450.142944 436.199463 L 448.197144 436.199463 C 446.097046 436.199463 444.601196 436.874512 443.705444 438.23291 C 443.080444 439.157959 442.767944 441.078857 442.767944 443.999512 L 442.767944 466.708008 C 442.767944 468.73291 442.947144 471.049561 443.30957 473.66626 C 443.672119 476.274658 444.326294 478.312012 445.272095 479.774658 C 446.222046 481.23291 447.588745 482.432861 449.376221 483.382813 C 451.159546 484.328857 453.347046 484.807861 455.942871 484.807861 C 459.263794 484.807861 462.230469 484.066162 464.855469 482.574463 C 467.472046 481.091309 469.263794 479.187012 470.226196 476.870361 C 471.18457 474.557861 471.663696 470.624512 471.663696 465.091309 L 471.663696 443.999512 C 471.663696 440.745361 471.317871 438.712158 470.61792 437.891357 C 469.647095 436.761963 468.197144 436.199463 466.276245 436.199463 Z"/>
    <path id="Path-copy-17" fill="#1a1919" stroke="none" d="M 528.084595 433.583252 L 529.24707 451.300049 L 528.084595 451.300049 C 526.538696 445.99585 524.330444 442.179199 521.459595 439.845947 C 518.592896 437.516602 515.147095 436.354248 511.130371 436.354248 C 507.755371 436.354248 504.713745 437.229248 501.99292 438.983398 C 499.276245 440.737549 497.134644 443.541748 495.572144 447.383301 C 494.013794 451.220947 493.23877 456 493.23877 461.708252 C 493.23877 466.425049 493.967896 470.512451 495.442871 473.970947 C 496.917969 477.429199 499.130371 480.079102 502.088745 481.920898 C 505.042969 483.770752 508.417969 484.69165 512.213745 484.69165 C 515.505371 484.69165 518.413696 483.966553 520.93457 482.516602 C 523.455444 481.070801 526.230469 478.195801 529.24707 473.891602 L 530.405396 474.662598 C 527.859619 479.295898 524.888794 482.69165 521.49707 484.841553 C 518.101196 486.99585 514.072144 488.070801 509.405396 488.070801 C 500.99707 488.070801 494.484619 484.866699 489.86792 478.462402 C 486.422119 473.699951 484.697144 468.087402 484.697144 461.633301 C 484.697144 456.4375 485.834595 451.658447 488.105469 447.304199 C 490.376221 442.949951 493.501221 439.574951 497.480469 437.175049 C 501.463745 434.783447 505.80957 433.583252 510.530396 433.583252 C 514.201294 433.583252 517.813721 434.508301 521.384644 436.354248 C 522.43457 436.920898 523.18042 437.195801 523.634644 437.195801 C 524.30542 437.195801 524.888794 436.954102 525.392944 436.466553 C 526.038696 435.774902 526.49707 434.81665 526.776245 433.583252 Z"/>
    <path id="Path-copy-16" fill="#1a1919" stroke="none" d="M 554.51709 457.985107 L 573.233765 477.080811 C 576.304565 480.235107 578.921265 482.376709 581.096191 483.518311 C 583.262939 484.659912 585.437866 485.301758 587.604614 485.459961 L 587.604614 486.88501 L 563.462891 486.88501 L 563.462891 485.459961 C 564.908691 485.459961 565.950439 485.209961 566.587891 484.709961 C 567.225464 484.209961 567.546265 483.651611 567.546265 483.039063 C 567.546265 482.422607 567.425415 481.868408 567.187866 481.38501 C 566.950439 480.897461 566.171265 479.989258 564.846191 478.655762 L 547.32959 460.868408 L 547.32959 477.655762 C 547.32959 480.293213 547.492065 482.039063 547.817139 482.88501 C 548.062866 483.526611 548.587891 484.07666 549.39209 484.539063 C 550.462891 485.151611 551.596191 485.459961 552.796265 485.459961 L 554.51709 485.459961 L 554.51709 486.88501 L 532.879639 486.88501 L 532.879639 485.459961 L 534.679565 485.459961 C 536.775391 485.459961 538.292114 484.830811 539.242065 483.57251 C 539.846191 482.755859 540.14624 480.780762 540.14624 477.655762 L 540.14624 444.001709 C 540.14624 441.360107 539.983765 439.605713 539.658691 438.735107 C 539.408691 438.118408 538.89209 437.580811 538.121216 437.118408 C 537.025391 436.505859 535.871216 436.19751 534.679565 436.19751 L 532.879639 436.19751 L 532.879639 434.776611 L 554.51709 434.776611 L 554.51709 436.19751 L 552.796265 436.19751 C 551.621216 436.19751 550.487915 436.493408 549.39209 437.084961 C 548.612915 437.493408 548.07959 438.105713 547.779541 438.926758 C 547.483765 439.747559 547.32959 441.435059 547.32959 444.001709 L 547.32959 459.94751 C 547.82959 459.459961 549.537964 457.834961 552.45874 455.064209 C 559.871216 448.093262 564.346191 443.44751 565.89624 441.118408 C 566.571289 440.093262 566.908691 439.19751 566.908691 438.430908 C 566.908691 437.839111 566.64209 437.32251 566.121216 436.872559 C 565.596191 436.422607 564.70874 436.19751 563.462891 436.19751 L 562.300415 436.19751 L 562.300415 434.776611 L 580.946289 434.776611 L 580.946289 436.19751 C 579.846191 436.222412 578.850464 436.380859 577.950439 436.659912 C 577.050415 436.943359 575.95459 437.489258 574.654541 438.293213 C 573.354614 439.097412 571.762939 440.401611 569.867065 442.193359 C 569.317139 442.705811 566.779541 445.330811 562.262939 450.068359 Z"/>
    <path id="Path-copy-15" fill="#1a1919" stroke="none" d="M 609.403809 485.459229 L 609.403809 486.884277 L 587.653809 486.884277 L 587.653809 485.459229 L 589.453735 485.459229 C 591.54541 485.459229 593.066284 484.830078 594.020386 483.571777 C 594.612061 482.754883 594.912109 480.780029 594.912109 477.655029 L 594.912109 444.000732 C 594.912109 441.359131 594.749634 439.621582 594.428711 438.771729 C 594.182861 438.134277 593.67041 437.580078 592.891235 437.117432 C 591.79541 436.504883 590.649536 436.200928 589.453735 436.200928 L 587.653809 436.200928 L 587.653809 434.775879 L 609.403809 434.775879 L 609.403809 436.200928 L 607.570435 436.200928 C 605.495361 436.200928 603.98291 436.825928 603.04126 438.084229 C 602.412109 438.900879 602.10376 440.871582 602.10376 444.000732 L 602.10376 477.655029 C 602.10376 480.296631 602.262085 482.04248 602.587036 482.884277 C 602.841309 483.525879 603.362061 484.075928 604.162109 484.53833 C 605.23291 485.150879 606.370361 485.459229 607.570435 485.459229 Z"/>
    <path id="Path-copy-14" fill="#1a1919" stroke="none" d="M 611.719116 434.775391 L 625.494141 434.775391 L 656.527466 473.854492 L 656.527466 443.808838 C 656.527466 440.604492 656.17334 438.604492 655.481689 437.812988 C 654.55249 436.738037 653.098389 436.200439 651.098389 436.200439 L 649.339966 436.200439 L 649.339966 434.775391 L 667.010864 434.775391 L 667.010864 436.200439 L 665.210815 436.200439 C 663.060791 436.200439 661.544189 436.867188 660.640015 438.196289 C 660.094116 439.01709 659.823364 440.887939 659.823364 443.808838 L 659.823364 487.725342 L 658.477539 487.725342 L 625.006714 445.76709 L 625.006714 477.854492 C 625.006714 481.050537 625.348389 483.050537 626.019165 483.842041 C 626.964966 484.921143 628.42749 485.45874 630.398315 485.45874 L 632.194214 485.45874 L 632.194214 486.883789 L 614.527466 486.883789 L 614.527466 485.45874 L 616.285889 485.45874 C 618.456665 485.45874 619.98999 484.796143 620.885864 483.45874 C 621.439941 482.64209 621.714966 480.775391 621.714966 477.854492 L 621.714966 441.621338 C 620.23999 439.846191 619.123291 438.683838 618.36499 438.121338 C 617.598389 437.554688 616.48584 437.033691 615.010864 436.546143 C 614.290039 436.312988 613.194214 436.200439 611.719116 436.200439 Z"/>
    <path id="Path-copy-13" fill="#1a1919" stroke="none" d="M 713.92041 433.583252 L 715.22876 450.033447 L 713.92041 450.033447 C 712.599609 445.929199 710.887085 442.845947 708.79126 440.770752 C 705.770386 437.774902 701.891235 436.274902 697.153809 436.274902 C 690.687134 436.274902 685.770386 438.899902 682.399536 444.149902 C 679.578735 448.583252 678.17041 453.862549 678.17041 459.983398 C 678.17041 464.949951 679.10791 469.487549 680.97876 473.587402 C 682.849609 477.679199 685.299561 480.69165 688.328735 482.595947 C 691.366211 484.508301 694.47876 485.458252 697.674561 485.458252 C 699.54541 485.458252 701.349609 485.216553 703.099609 484.729248 C 704.849609 484.241699 706.537109 483.524902 708.153809 482.574951 L 708.153809 467.516602 C 708.153809 464.899902 707.957886 463.19165 707.574585 462.383301 C 707.191284 461.574951 706.587036 460.966553 705.778809 460.541748 C 704.966309 460.116699 703.54126 459.904053 701.495361 459.904053 L 701.495361 458.44165 L 721.145386 458.44165 L 721.145386 459.904053 L 720.212036 459.904053 C 718.262085 459.904053 716.928711 460.570801 716.203735 461.899902 C 715.703735 462.854248 715.457886 464.725098 715.457886 467.516602 L 715.457886 483.458252 C 712.587036 485.050049 709.749634 486.212402 706.953735 486.958252 C 704.162109 487.699951 701.053711 488.070801 697.637085 488.070801 C 687.828735 488.070801 680.378784 484.841553 675.29126 478.387451 C 671.470459 473.545898 669.562134 467.962402 669.562134 461.633301 C 669.562134 457.050049 670.632935 452.654053 672.782959 448.458252 C 675.324585 443.462402 678.820435 439.62085 683.262085 436.929199 C 686.97876 434.704102 691.374634 433.583252 696.437134 433.583252 C 698.282959 433.583252 699.962036 433.741699 701.474609 434.045898 C 702.98291 434.358398 705.124634 435.033447 707.895386 436.083252 C 709.29126 436.62085 710.224609 436.891602 710.699585 436.891602 C 711.174561 436.891602 711.578735 436.666748 711.92041 436.220947 C 712.253784 435.766602 712.462036 434.895752 712.537109 433.583252 Z"/>
    <path id="Path-copy-12" fill="#1a1919" stroke="none" d="M 725.122559 499.983398 L 725.122559 498.291748 C 727.693359 497.420898 729.680786 496.070801 731.093384 494.237549 C 732.501709 492.404053 733.20166 490.462402 733.20166 488.420898 C 733.20166 487.93335 733.093384 487.520752 732.868286 487.1875 C 732.69751 486.958252 732.518311 486.837402 732.347534 486.837402 C 732.07251 486.837402 731.472534 487.100098 730.555786 487.612549 C 730.097534 487.837402 729.630859 487.958252 729.126709 487.958252 C 727.910034 487.958252 726.935059 487.583252 726.209961 486.837402 C 725.480835 486.100098 725.122559 485.074951 725.122559 483.770752 C 725.122559 482.512451 725.589111 481.43335 726.526611 480.537598 C 727.464111 479.641602 728.605835 479.19165 729.95166 479.19165 C 731.601685 479.19165 733.064209 479.93335 734.351685 481.404053 C 735.63501 482.87915 736.276611 484.829102 736.276611 487.266602 C 736.276611 489.904053 735.38501 492.354248 733.601685 494.62085 C 731.814209 496.887451 728.993286 498.675049 725.122559 499.983398"/>
    <path id="Path-copy-11" fill="#1a1919" stroke="none" d="M 801.131714 472.46875 L 802.369141 472.735352 L 798.027466 486.881348 L 758.719116 486.881348 L 758.719116 485.460449 L 760.631714 485.460449 C 762.773315 485.460449 764.310791 484.743652 765.23584 483.306152 C 765.760864 482.485352 766.019165 480.5896 766.019165 477.618652 L 766.019165 443.997803 C 766.019165 440.743652 765.669189 438.710449 764.973389 437.889648 C 763.998291 436.764648 762.55249 436.197998 760.631714 436.197998 L 758.719116 436.197998 L 758.719116 434.7771 L 781.706665 434.7771 L 781.706665 436.197998 C 779.010864 436.172852 777.119141 436.431152 776.035889 436.9646 C 774.952515 437.502197 774.210815 438.185303 773.806641 439.002197 C 773.406616 439.822998 773.206665 441.7854 773.206665 444.881348 L 773.206665 477.618652 C 773.206665 479.747803 773.406616 481.206299 773.806641 482.002197 C 774.106689 482.539551 774.569214 482.935303 775.194214 483.189697 C 775.819214 483.447998 777.760864 483.572998 781.031616 483.572998 L 784.73584 483.572998 C 788.631714 483.572998 791.36084 483.2854 792.935791 482.693848 C 794.506714 482.106201 795.944214 481.060303 797.23999 479.560303 C 798.540039 478.060303 799.831665 475.697998 801.131714 472.46875"/>
    <path id="Path-copy-10" fill="#1a1919" stroke="none" d="M 846.2771 472.46875 L 847.514526 472.735352 L 843.172974 486.881348 L 803.860474 486.881348 L 803.860474 485.460449 L 805.772949 485.460449 C 807.918701 485.460449 809.456299 484.743652 810.381226 483.306152 C 810.90625 482.485352 811.164551 480.5896 811.164551 477.618652 L 811.164551 443.997803 C 811.164551 440.743652 810.814575 438.710449 810.114624 437.889648 C 809.143799 436.764648 807.697876 436.197998 805.772949 436.197998 L 803.860474 436.197998 L 803.860474 434.7771 L 826.8479 434.7771 L 826.8479 436.197998 C 824.1521 436.172852 822.264526 436.431152 821.181274 436.9646 C 820.09375 437.502197 819.352051 438.185303 818.947876 439.002197 C 818.552124 439.822998 818.352051 441.7854 818.352051 444.881348 L 818.352051 477.618652 C 818.352051 479.747803 818.552124 481.206299 818.947876 482.002197 C 819.247925 482.539551 819.7146 482.935303 820.335449 483.189697 C 820.960449 483.447998 822.9104 483.572998 826.177124 483.572998 L 829.877075 483.572998 C 833.7771 483.572998 836.506226 483.2854 838.077026 482.693848 C 839.6521 482.106201 841.0896 481.060303 842.381226 479.560303 C 843.681274 478.060303 844.977051 475.697998 846.2771 472.46875"/>
    <path id="Path-copy-9" fill="#1a1919" stroke="none" d="M 893.628296 433.583252 L 894.786621 451.300049 L 893.628296 451.300049 C 892.08252 445.99585 889.869995 442.179199 886.999146 439.845947 C 884.132446 437.516602 880.690796 436.354248 876.674194 436.354248 C 873.299194 436.354248 870.257446 437.229248 867.532471 438.983398 C 864.815796 440.737549 862.674194 443.541748 861.115845 447.383301 C 859.553345 451.220947 858.77832 456 858.77832 461.708252 C 858.77832 466.425049 859.511719 470.512451 860.982544 473.970947 C 862.45752 477.429199 864.674194 480.079102 867.628296 481.920898 C 870.58667 483.770752 873.96167 484.69165 877.753296 484.69165 C 881.049194 484.69165 883.95752 483.966553 886.474121 482.516602 C 888.999146 481.070801 891.77002 478.195801 894.786621 473.891602 L 895.944946 474.662598 C 893.40332 479.295898 890.432495 482.69165 887.036621 484.841553 C 883.64502 486.99585 879.615845 488.070801 874.944946 488.070801 C 866.536621 488.070801 860.02832 484.866699 855.407471 478.462402 C 851.96582 473.699951 850.240845 468.087402 850.240845 461.633301 C 850.240845 456.4375 851.374146 451.658447 853.64917 447.304199 C 855.920044 442.949951 859.045044 439.574951 863.02417 437.175049 C 867.007446 434.783447 871.353394 433.583252 876.069946 433.583252 C 879.740845 433.583252 883.357544 434.508301 886.928345 436.354248 C 887.978394 436.920898 888.724121 437.195801 889.174194 437.195801 C 889.844971 437.195801 890.432495 436.954102 890.932495 436.466553 C 891.578369 435.774902 892.040894 434.81665 892.315796 433.583252 Z"/>
    <path id="Path-copy-8" fill="#fffffe" fill-rule="evenodd" stroke="none" d="M 431.671631 167.31543 C 427.938354 163.01123 420.838379 161.515381 416.079956 158.402832 C 411.125854 155.161133 406.671631 151.202881 402.796631 146.736328 C 395.234131 138.036133 384.10083 114.840332 383.638306 113.38208 C 381.150879 105.63623 387.28418 103.82373 391.130005 101.219482 C 394.925781 98.661133 399.005005 96.111328 402.35498 92.994629 C 405.459106 90.103027 405.834106 86.673828 407.513306 83.015381 C 411.300781 74.773682 418.767456 66.531982 418.03833 56.87793 C 417.72583 52.786133 409.188354 49.69458 407.467529 49.13623 C 398.421631 46.165527 382.142456 45.919678 372.334106 48.398682 C 367.442505 49.63208 362.09668 53.482178 356.97998 51.223633 C 353.088379 49.50708 349.66748 45.25708 347.150879 41.640381 C 340.255005 31.736328 332.755005 22.461182 322.771729 15.490479 C 316.41748 11.052979 310.40918 8.540527 304.300781 9.044678 C 273.250854 11.623779 247.588379 43.673828 245.680054 43.486328 C 244.217529 43.340332 231.467529 20.38623 223.446655 13.75708 C 220.750854 11.523682 217.321655 6.998779 214.35498 5.523682 C 211.188354 3.952881 189.934204 4.207031 188.188354 7.732178 C 186.875854 10.38623 185.97583 14.186279 185.242493 17.69043 C 181.842529 33.840332 189.442505 50.961182 199.692505 63.140381 C 202.47583 66.452881 211.117554 72.656982 211.03833 77.44043 C 210.959106 82.115479 206.442505 77.044678 205.179993 75.81958 C 202.496643 73.215332 200.217529 71.082031 196.171692 72.353027 C 192.200806 73.603027 152.97583 93.177979 144.700806 100.365479 C 142.40918 102.357178 140.259155 104.723633 139.296692 107.361328 C 136.705017 114.490479 145.205017 168.169678 146.459167 173.961182 C 148.800842 184.719482 172.709167 228.603027 180.404968 238.215332 C 189.138306 249.119629 218.204956 278.961182 223.446655 282.173828 C 228.950806 285.544678 237.375854 288.869629 243.717529 284.265381 C 247.621704 281.436279 249.384155 275.215332 251.384155 270.952881 C 254.271606 264.786133 273.059204 219.082031 277.005005 215.353027 C 281.992554 210.63623 292.817505 210.711182 299.204956 210.402832 C 309.04248 209.923828 318.880005 210.656982 328.709106 211.077881 C 340.263306 211.57373 351.871704 211.732178 363.242554 213.998779 C 369.988281 215.340332 376.200806 217.869629 382.28833 219.890381 C 385.925781 221.103027 394.005005 221.715332 397.400879 220.26123 C 400.742554 218.827881 403.700806 215.265381 408.329956 213.873779 C 412.838379 212.519531 418.438354 212.26123 421.842529 209.94043 C 427.992554 205.75708 430.546631 191.365479 432.009155 184.603027 C 433.059204 179.76123 435.305054 171.498779 431.671631 167.31543"/>
    <path id="Path-copy-7" fill="none" stroke="#fffffe" stroke-width="10.179167" stroke-linecap="round" stroke-linejoin="round" d="M 431.671631 167.31543 C 427.938354 163.01123 420.838379 161.515381 416.079956 158.402832 C 411.125854 155.161133 406.671631 151.202881 402.796631 146.736328 C 395.234131 138.036133 384.10083 114.840332 383.638306 113.38208 C 381.150879 105.63623 387.28418 103.82373 391.130005 101.219482 C 394.925781 98.661133 399.005005 96.111328 402.35498 92.994629 C 405.459106 90.103027 405.834106 86.673828 407.513306 83.015381 C 411.300781 74.773682 418.767456 66.531982 418.03833 56.87793 C 417.72583 52.786133 409.188354 49.69458 407.467529 49.13623 C 398.421631 46.165527 382.142456 45.919678 372.334106 48.398682 C 367.442505 49.63208 362.09668 53.482178 356.97998 51.223633 C 353.088379 49.50708 349.66748 45.25708 347.150879 41.640381 C 340.255005 31.736328 332.755005 22.461182 322.771729 15.490479 C 316.41748 11.052979 310.40918 8.540527 304.300781 9.044678 C 273.250854 11.623779 247.588379 43.673828 245.680054 43.486328 C 244.217529 43.340332 231.467529 20.38623 223.446655 13.75708 C 220.750854 11.523682 217.321655 6.998779 214.35498 5.523682 C 211.188354 3.952881 189.934204 4.207031 188.188354 7.732178 C 186.875854 10.38623 185.97583 14.186279 185.242493 17.69043 C 181.842529 33.840332 189.442505 50.961182 199.692505 63.140381 C 202.47583 66.452881 211.117554 72.656982 211.03833 77.44043 C 210.959106 82.115479 206.442505 77.044678 205.179993 75.81958 C 202.496643 73.215332 200.217529 71.082031 196.171692 72.353027 C 192.200806 73.603027 152.97583 93.177979 144.700806 100.365479 C 142.40918 102.357178 140.259155 104.723633 139.296692 107.361328 C 136.705017 114.490479 145.205017 168.169678 146.459167 173.961182 C 148.800842 184.719482 172.709167 228.603027 180.404968 238.215332 C 189.138306 249.119629 218.204956 278.961182 223.446655 282.173828 C 228.950806 285.544678 237.375854 288.869629 243.717529 284.265381 C 247.621704 281.436279 249.384155 275.215332 251.384155 270.952881 C 254.271606 264.786133 273.059204 219.082031 277.005005 215.353027 C 281.992554 210.63623 292.817505 210.711182 299.204956 210.402832 C 309.04248 209.923828 318.880005 210.656982 328.709106 211.077881 C 340.263306 211.57373 351.871704 211.732178 363.242554 213.998779 C 369.988281 215.340332 376.200806 217.869629 382.28833 219.890381 C 385.925781 221.103027 394.005005 221.715332 397.400879 220.26123 C 400.742554 218.827881 403.700806 215.265381 408.329956 213.873779 C 412.838379 212.519531 418.438354 212.26123 421.842529 209.94043 C 427.992554 205.75708 430.546631 191.365479 432.009155 184.603027 C 433.059204 179.76123 435.305054 171.498779 431.671631 167.31543 Z"/>
    <path id="Path-copy-6" fill="#1a1919" fill-rule="evenodd" stroke="none" d="M 261.527954 189.057861 C 259.419556 192.182861 263.786255 196.874512 266.31543 198.149658 C 265.827881 194.503662 263.51123 191.620361 261.527954 189.057861 M 281.552979 102.820313 C 280.469604 108.470459 294.773804 107.79541 294.81958 104.782959 C 294.857056 102.320313 286.898804 104.782959 283.269531 101.345459 C 282.602905 100.708008 281.677856 102.149658 281.552979 102.820313 M 295.802856 83.899658 C 294.298706 83.870361 287.223755 84.328857 287.327881 85.620361 C 287.436279 87.095459 295.219604 86.178711 296.294556 86.237061 C 303.015381 86.587158 302.427856 93.995361 307.107056 95.820313 C 305.38623 90.437012 301.894531 84.032959 295.802856 83.899658 M 191.25708 84.391357 C 185.602905 88.237061 179.048767 90.678711 173.57373 94.466309 C 168.50293 97.966309 163.57373 100.837158 161.898743 107.362061 C 161.282104 109.766357 161.811279 112.208008 161.040405 114.366211 C 160.657104 115.441162 159.982056 116.17041 159.44458 117.312012 C 156.590393 123.316162 156.048767 130.237061 153.298767 136.845459 C 152.51123 138.749512 149.69043 139.761963 148.38623 142.866211 C 147.352905 145.324463 147.998779 148.799561 150.352905 149.378662 C 154.644592 150.432861 154.498779 143.474609 156.740417 142.499512 C 160.457092 140.874512 161.873779 145.566162 164.844604 145.941162 C 168.740417 146.428711 173.13623 140.470459 175.415405 138.078857 C 178.336243 134.999512 182.173767 132.312012 184.748779 128.85791 C 187.802917 124.770508 189.723755 121.037109 192.119568 116.945313 C 193.286255 114.953857 196.06958 113.316162 196.786255 111.29126 C 199.186279 104.54541 192.765442 101.386963 194.086243 94.466309 C 194.548767 92.011963 195.869568 89.657959 197.032104 88.199707 C 198.373779 86.520508 202.027893 85.216309 202.682068 82.92041 C 203.523743 79.999512 202.31543 77.374512 199.736267 78.003662 C 197.123779 78.641357 193.586243 82.812012 191.25708 84.391357 M 285.236206 77.882813 C 285.986206 79.628662 290.294556 79.349609 292.486206 79.599609 C 296.057129 80.012207 303.51123 81.003662 303.907104 78.124512 C 304.544556 73.549561 294.294556 72.299561 290.519531 72.724609 C 288.365356 72.966309 283.727905 74.349609 285.236206 77.882813 M 251.82373 60.432861 C 253.56543 61.761963 255.223755 63.953857 256.982056 65.966309 C 258.69873 67.937012 260.048706 70.724609 261.648804 71.98291 C 262.494629 72.649658 264.273804 73.04541 265.090454 72.474609 C 268.123779 70.378662 263.107056 63.837158 262.019531 62.645508 C 260.715454 61.220459 258.177856 59.628662 256.490356 58.349609 C 254.619629 56.932861 251.94458 53.753662 249.119629 54.662109 C 245.290405 55.895508 250.836304 59.687012 251.82373 60.432861 M 387.56958 97.04541 C 397.998779 89.011963 406.336304 77.337158 407.590454 60.807861 C 408.094604 54.199463 405.87793 50.97876 399.727905 50.97876 C 398.411255 50.97876 396.265381 51.070313 396.415405 52.578857 C 396.644531 54.945313 401.923706 52.774658 402.06543 56.016357 C 402.232056 59.874512 390.186279 59.48291 385.361206 58.22876 C 383.086304 57.636963 375.982056 55.253662 376.88208 60.316162 C 377.552979 64.10376 388.811279 61.703857 394.082031 61.912109 C 395.69458 61.974609 397.498779 62.587158 397.640381 63.999512 C 398.01123 67.60376 392.13208 67.691162 392.602905 70.999512 C 392.869629 72.849609 396.936279 72.895508 397.515381 74.807861 C 398.519531 78.091309 395.12793 79.48291 394.082031 81.691162 C 393.398804 83.10791 393.340454 84.708008 392.852905 85.745361 C 391.673706 88.237061 388.652954 90.599609 386.586304 92.624512 C 384.557129 94.612061 381.148804 95.941162 380.81543 99.253662 C 383.523804 100.412109 385.81958 98.395508 387.56958 97.04541 M 194.086243 22.10791 C 193.336243 27.303711 193.473755 37.583008 194.332092 42.499512 C 194.594604 44.011963 197.298767 47.274658 198.26123 47.907959 C 199.486267 48.716309 202.87793 49.23291 204.036255 49.870361 C 206.798767 51.399658 209.211304 56.070313 210.794556 58.962158 C 211.786255 60.787109 212.427856 62.85376 214.107056 63.628662 C 216.19873 64.591309 223.765381 62.761963 224.307129 65.720459 C 224.702881 67.891357 222.598755 69.287109 221.111206 70.386963 C 220.027954 71.182861 217.25708 73.124512 218.282104 75.299561 C 219.019531 76.85376 221.794556 75.862061 222.952881 75.174561 C 224.861206 74.057861 226.557129 71.553711 227.01123 70.020508 C 228.861206 63.712158 224.744629 62.345459 221.482056 60.562012 C 218.036255 58.674561 215.398804 56.132813 213.498779 52.695313 C 211.857056 49.749512 208.144531 44.241211 209.932129 39.674561 C 211.182129 36.47876 214.902954 37.424561 217.177856 38.816162 C 219.557129 40.270508 226.686279 48.316162 225.290405 39.674561 C 224.932129 37.491211 223.023804 33.095459 221.602905 30.216309 C 218.998779 24.945313 212.561279 17.92041 206.494568 16.458008 C 204.936279 16.083008 202.427917 16.278809 201.702942 16.337158 C 198.307068 16.595459 194.594604 18.570313 194.086243 22.10791 M 273.31958 189.182861 C 273.219604 186.282959 272.582031 180.278809 275.290405 180.337158 C 277.515381 180.382813 277.140381 184.257813 277.619629 186.112061 C 278.082031 187.891357 279.452881 188.924561 279.952881 190.282959 C 281.19458 193.67041 281.532104 199.458008 285.852905 198.636963 C 288.844604 198.070313 287.50293 193.257813 290.519531 192.866211 C 295.373779 192.237061 296.615356 200.503662 303.052856 198.761963 C 304.594604 198.341309 305.57373 195.932861 307.473755 195.816162 C 309.602905 195.678711 313.140381 197.974609 315.702881 198.761963 C 319.01123 199.787109 322.81958 198.928711 325.902954 199.745361 C 327.848755 200.261963 329.13208 201.85791 330.936279 201.958008 C 332.223755 202.028809 333.936279 201.178711 335.602905 201.466309 C 338.798706 202.016357 340.01123 205.112061 343.344604 203.92041 C 347.023804 202.612061 341.857056 192.703857 346.536255 192.866211 C 348.057129 192.92041 349.873779 196.532959 350.836304 197.657959 C 352.286255 199.345459 354.202881 200.774658 355.75293 201.837158 C 362.519531 206.453857 378.015381 209.128662 385.848755 203.432861 C 387.936279 201.903809 388.990356 198.724609 391.12793 197.29126 C 395.32373 194.47876 399.44873 193.136963 401.082031 188.195313 C 402.273804 184.578857 400.69873 181.774658 398.50293 180.212158 C 393.01123 176.316162 383.594604 174.60376 379.827881 168.42041 C 378.94873 166.970459 378.311279 164.112061 379.707031 163.136963 C 381.786255 161.687012 385.01123 164.774658 387.077881 166.458008 C 393.423706 171.595459 401.107056 175.991211 406.361206 181.445313 C 407.527954 182.645508 407.969604 184.366211 408.82373 185.745361 C 409.482056 186.807861 412.061279 191.078857 413.244629 191.391357 C 417.657104 192.557861 416.015381 184.128662 418.773804 182.299561 C 420.81543 180.945313 424.019531 182.79541 425.527954 180.828857 C 427.94043 177.691162 424.102905 172.257813 422.702881 170.507813 C 420.952881 168.320313 417.298706 166.112061 414.223755 164.487061 C 407.623779 160.999512 401.719604 158.095459 397.398804 152.449463 C 393.38623 147.216309 390.027954 140.424561 386.586304 134.391357 C 383.857056 129.612061 380.81543 125.587158 378.232056 121.124512 C 377.26123 119.445313 377.077881 117.716309 376.269531 115.841309 C 375.744629 114.624512 374.644531 113.782959 374.177856 112.649658 C 373.207031 110.266357 372.57373 107.503662 371.598755 105.028809 C 370.548706 102.35791 369.607056 99.770508 369.26123 97.04541 C 368.419556 90.333008 371.077881 78.753662 368.286255 73.337158 C 366.994629 70.833008 363.961304 68.741211 361.402954 66.333008 C 356.648804 61.862061 352.727905 56.282959 347.890381 52.083008 C 345.469604 49.98291 342.19458 47.712158 340.273804 45.449707 C 337.807129 42.549561 335.586304 38.449463 333.515381 34.762207 C 331.51123 31.191162 329.94043 26.449463 327.248779 23.587158 C 325.44458 21.662109 322.590454 21.391357 319.75708 20.391357 C 314.227905 18.437012 306.869629 14.628662 299.611206 15.35376 C 296.340454 15.678711 292.586304 18.79541 289.286255 20.391357 C 283.661255 23.112061 277.211304 27.132813 273.56958 32.549561 C 271.986206 34.899658 268.523804 39.224609 269.51123 42.253662 C 270.986206 46.753662 279.123779 42.970459 283.144531 44.462158 C 284.432129 44.941162 285.273804 46.462158 286.223755 47.17041 C 290.619629 50.466309 298.932129 53.570313 301.69873 58.470459 C 302.81543 60.453857 303.25293 62.35791 304.648804 63.878662 C 307.240356 66.699707 310.957031 65.816162 314.352905 67.316162 C 319.88623 69.757813 324.027954 76.591309 326.265381 82.303711 C 328.265381 87.391357 332.640381 94.149658 333.023804 100.362061 C 333.25293 104.062012 332.927856 107.370361 333.148804 110.682861 C 333.527954 116.324707 336.432129 119.970459 337.44873 124.687012 C 338.740356 130.678711 336.773804 136.162109 337.81543 142.995361 C 338.432129 146.999512 342.344604 146.474609 345.19043 148.149658 C 346.88208 149.149658 348.952881 151.48291 350.590454 152.941162 C 352.736206 154.845459 355.161255 156.79541 355.50708 159.574463 C 356.115479 164.412109 356.265381 174.945313 355.26123 179.47876 C 354.490479 182.945313 351.211304 188.074463 348.623779 188.937012 C 344.498779 190.307861 344.461304 186.874512 343.957031 183.899658 C 343.56543 181.562012 342.094604 178.941162 341.744629 176.162109 C 340.973755 169.945313 340.777954 164.503662 334.869629 163.874512 C 327.75708 163.112061 319.88623 165.320313 314.840454 163.261963 C 308.25293 160.574463 308.023804 151.220459 300.590454 149.620361 C 292.31543 147.845459 282.332031 148.962158 275.902954 145.445313 C 269.765381 142.095459 269.186279 133.22876 264.107056 128.620361 C 261.777954 126.503662 258.69873 126.887207 255.50708 124.812012 C 253.902954 123.766357 252.840454 121.962158 251.94458 120.386963 C 250.923706 118.583008 250.282104 115.570313 248.62793 114.612061 C 245.140381 112.60376 239.457031 114.991211 237.077881 115.474609 C 235.223755 115.849609 232.340454 115.270508 230.69043 115.841309 C 225.490356 117.649658 222.148804 127.303711 219.88208 134.761963 C 218.973755 137.73291 219.50708 141.98291 219.144531 144.953857 C 218.773804 148.028809 216.269531 150.10376 215.215454 152.078857 C 213.869629 154.612061 212.965454 160.774658 209.807129 161.662109 C 204.63623 163.116211 206.402893 155.924561 203.052917 155.895508 C 201.369568 155.870361 199.965393 159.445313 198.998779 161.17041 C 197.186218 164.412109 195.144592 165.932861 194.332092 169.278809 C 193.082092 174.41626 192.25708 178.412109 190.152893 182.299561 C 189.477905 183.54541 188.277893 184.299561 187.57373 185.499512 C 187.036255 186.403809 186.794556 187.966309 186.219604 188.691162 C 184.890442 190.374512 183.269592 190.803711 182.419556 192.991211 C 181.248779 195.958008 179.50708 201.549561 180.32373 205.520508 C 180.673767 207.212158 181.807068 209.566162 183.765442 209.449463 C 187.802917 209.208008 187.165405 198.778809 188.432068 195.320313 C 189.82373 191.54126 192.577942 188.949463 194.207092 186.35376 C 195.082092 184.970459 195.186279 182.616211 197.648743 182.79126 C 200.361267 182.987061 199.611267 186.937012 199.611267 190.162109 C 199.611267 197.474609 198.365417 200.624512 196.540405 205.520508 C 195.432068 208.495361 194.840393 211.366211 193.961243 214.60791 C 193.38208 216.761963 191.69043 218.532959 191.015442 220.632813 C 188.69458 227.816162 191.51123 237.195313 195.311279 240.899658 C 197.107056 242.649658 199.415405 243.537109 201.207092 245.074463 C 202.952942 246.570313 204.582092 248.374512 205.998779 250.35791 C 209.473755 255.208008 213.44458 259.095459 217.057129 263.624512 C 219.07373 266.153809 222.19873 268.553711 224.548706 271.366211 C 226.852905 274.112061 229.927856 279.812012 233.398804 280.703857 C 239.715454 282.320313 239.432129 272.837158 241.01123 267.803711 C 241.715454 265.566162 243.902954 264.195313 244.81958 262.645508 C 245.486206 261.520508 245.38208 259.362061 245.923706 257.85376 C 246.423706 256.453857 247.665405 255.649658 248.26123 254.537109 C 249.25293 252.674561 250.032104 249.716309 251.207031 247.287109 C 252.44458 244.737061 253.890381 242.766357 254.523804 240.282959 C 255.94873 234.757813 251.494629 235.35791 248.62793 232.66626 C 251.311279 230.208008 258.373779 229.912109 256.490356 224.187012 C 255.298706 220.578857 250.990356 217.79126 248.015381 214.97876 C 244.873779 212.016357 240.50293 209.574463 240.519531 205.274658 C 248.998779 207.324463 255.94873 213.678711 264.723755 215.841309 C 259.061279 208.507813 248.544556 204.208008 241.38208 197.04541 C 239.88208 195.54541 239.032104 193.270508 237.56958 191.516357 C 236.177856 189.845459 234.407104 188.662109 233.398804 186.970459 C 232.227905 185.024658 230.811279 182.157959 229.957031 180.212158 C 229.673706 179.570313 226.748779 172.999512 228.848755 172.349609 C 230.811279 171.749512 233.269531 176.299561 234.25708 177.632813 C 235.919556 179.878662 238.044556 181.578857 239.294556 183.407959 C 240.407104 185.04541 240.31543 188.549561 242.857056 188.324463 C 243.244629 186.72876 241.365356 185.67041 240.644531 184.391357 C 238.844604 181.199463 237.782104 176.924561 235.607056 173.337158 C 234.707031 171.849609 233.63623 169.987061 232.782104 168.049561 C 232.544556 167.520508 229.915405 162.812012 231.798706 162.153809 C 233.715454 161.491211 235.607056 164.97876 236.469604 166.333008 C 237.782104 168.399658 238.648804 170.412109 239.411255 172.23291 C 241.407104 176.932861 244.657104 178.712158 247.032104 182.42041 C 250.25293 187.458008 252.62793 192.60791 257.227905 196.182861 C 257.277954 193.224609 254.036255 189.757813 256.240356 186.724609 C 256.836304 185.91626 258.69873 185.912109 258.94873 185.003662 C 259.411255 183.333008 257.477905 181.458008 256.982056 180.337158 C 256.357056 178.907959 255.87793 176.849609 255.75708 174.807861 C 255.56958 171.782959 254.623779 163.428711 257.840454 163.624512 C 261.986206 163.886963 258.061279 174.820313 261.161255 175.174561 C 262.765381 175.362061 263.144531 172.782959 264.965454 172.966309 C 269.215454 173.386963 266.81543 183.60791 267.915405 187.828857 C 268.182129 188.841309 269.240356 190.153809 269.51123 190.899658 C 270.615356 193.891357 270.719604 197.945313 274.302856 198.024658 C 275.082031 195.157959 273.44043 192.678711 273.31958 189.182861 M 214.352905 5.524658 C 217.32373 6.999512 220.748779 11.524658 223.44458 13.753662 C 231.469604 20.387207 244.215454 43.337158 245.682129 43.48291 C 247.590454 43.67041 273.248779 11.624512 304.302856 9.04126 C 310.411255 8.537109 316.419556 11.053711 322.769531 15.491211 C 332.75708 22.462158 340.25293 31.737061 347.152954 41.641357 C 349.669556 45.257813 353.090454 49.507813 356.977905 51.220459 C 362.098755 53.47876 367.44458 49.632813 372.336304 48.399658 C 382.144531 45.91626 398.419556 46.16626 407.469604 49.132813 C 409.19043 49.695313 417.727905 52.787109 418.036255 56.878662 C 418.769531 66.528809 411.302856 74.770508 407.51123 83.016357 C 405.832031 86.674561 405.457031 90.099609 402.352905 92.991211 C 399.00293 96.112061 394.927856 98.662109 391.12793 101.220459 C 387.282104 103.820313 381.148804 105.636963 383.640381 113.382813 C 384.102905 114.837158 395.236206 138.032959 402.794556 146.73291 C 406.669556 151.203857 411.123779 155.162109 416.077881 158.403809 C 420.836304 161.516357 427.936279 163.011963 431.669556 167.316162 C 435.307129 171.499512 433.057129 179.761963 432.01123 184.60376 C 430.544556 191.366211 427.990479 205.757813 421.844604 209.941162 C 418.436279 212.257813 412.840454 212.516357 408.332031 213.874512 C 403.69873 215.266357 400.740356 218.828857 397.398804 220.257813 C 394.00708 221.712158 385.923706 221.099609 382.286255 219.891357 C 376.202881 217.870361 369.986206 215.341309 363.244629 213.995361 C 351.869629 211.72876 340.265381 211.574463 328.707031 211.078857 C 318.88208 210.657959 309.040405 209.924561 299.202881 210.403809 C 292.81958 210.712158 281.990356 210.636963 277.00293 215.35376 C 273.057129 219.083008 254.273804 264.787109 251.38623 270.953857 C 249.38623 275.212158 247.619629 281.437012 243.719604 284.266357 C 237.37793 288.870361 228.952881 285.54541 223.44458 282.174561 C 218.202881 278.962158 189.13623 249.120361 180.402893 238.216309 C 172.711243 228.60376 148.798767 184.716309 146.461243 173.958008 C 145.202942 168.17041 136.707092 114.491211 139.294556 107.362061 C 140.25708 104.724609 142.407104 102.35376 144.69873 100.362061 C 152.973755 93.174561 192.202942 73.60376 196.173767 72.35376 C 200.215393 71.083008 202.494568 73.216309 205.182068 75.820313 C 206.44043 77.04541 210.961304 82.112061 211.036255 77.441162 C 211.115356 72.653809 202.477905 66.453857 199.69043 63.141357 C 189.44458 50.958008 181.840393 33.841309 185.240417 17.691162 C 185.977905 14.187012 186.873779 10.386963 188.186279 7.73291 C 189.936279 4.203857 211.186279 3.953857 214.352905 5.524658"/>
    <path id="Path-copy-5" fill="#1a1919" fill-rule="evenodd" stroke="none" d="M 330.446655 49.012939 C 325.40918 49.133789 324.54248 43.867188 321.35083 41.14624 C 319.150879 39.27124 315.442505 38.342041 312.263306 37.217041 C 309.60498 36.279541 304.263306 35.225342 304.400879 32.058838 C 304.53418 28.983643 310.54248 29.192139 314.35083 29.479492 C 318.213379 29.77124 325.359131 31.562988 326.759155 33.654541 C 328.509155 36.27124 328.063354 40.679688 329.092529 44.096191 C 329.66333 45.983643 331.150879 46.992188 330.446655 49.012939"/>
    <path id="Path-copy-4" fill="#1a1919" fill-rule="evenodd" stroke="none" d="M 374.670776 160.402618 C 355.085297 143.686646 339.076202 123.406586 331.007202 95.174347 C 330.970306 95.020569 331.081024 95.002228 331.185455 94.98996 C 335.604065 96.090027 338.529236 103.29248 342.419434 106.949158 C 343.562531 108.030884 345.344604 108.792816 346.039032 109.671417 C 347.194366 111.103485 347.489441 113.346466 348.398865 114.925812 C 350.236359 118.139954 353.487427 120.278503 355.828888 123.259308 C 364.205048 133.952423 367.726501 148.21582 374.670776 160.402618"/>
    <path id="Path-copy-3" fill="#1a1919" fill-rule="evenodd" stroke="none" d="M 250.962524 184.512939 C 247.783325 180.508789 246.979126 172.725342 244.820801 166.57959 C 243.779175 163.608643 241.587524 158.742188 243.958374 155.64209 C 248.479126 154.937988 247.229126 164.64624 247.891724 168.912842 C 248.679199 173.971191 250.925049 178.387939 251.574951 182.054688 C 251.741699 182.975342 251.829224 184.008789 250.962524 184.512939"/>
    <path id="Path-copy" fill="#1a1919" fill-rule="evenodd" stroke="none" d="M 383.392456 177.387939 C 385.575806 176.971191 389.555054 179.171143 392.113281 180.337891 C 396.425781 182.300537 401.246704 189.200439 391.746704 188.442139 C 389.867554 188.296143 387.859131 187.233643 385.84668 186.725342 C 384.030029 186.26709 380.717529 185.983643 379.950806 185.004639 C 377.900879 182.387939 381.630005 177.725342 383.392456 177.387939"/>
</svg>
