<?xml version="1.0" encoding="UTF-8" standalone="no"?>
<!DOCTYPE svg PUBLIC "-//W3C//DTD SVG 1.1//EN" "http://www.w3.org/Graphics/SVG/1.1/DTD/svg11.dtd">
<svg xmlns="http://www.w3.org/2000/svg" version="1.1" viewBox="0.00 0.00 664.00 126.00">
<g stroke-width="2.00" fill="none" stroke-linecap="butt">
<path stroke="#848484" vector-effect="non-scaling-stroke" d="
  M 37.62 0.00
  Q 35.54 0.87 34.44 3.20
  Q 19.19 35.51 3.70 67.70
  Q 1.00 73.32 0.00 78.02"
/>
<path stroke="#848484" vector-effect="non-scaling-stroke" d="
  M 44.40 0.00
  Q 45.50 0.32 45.20 0.95
  Q 34.44 23.34 22.02 49.85
  Q 16.88 60.81 11.26 72.03
  Q 5.66 83.22 0.95 94.41
  A 0.31 0.31 0.0 0 1 0.39 94.44
  Q 0.12 93.97 0.00 93.10"
/>
<path stroke="#848484" vector-effect="non-scaling-stroke" d="
  M 56.25 0.00
  Q 54.13 0.54 53.05 3.05
  Q 49.01 12.50 41.54 27.12
  A 1.01 1.01 0.0 0 0 42.44 28.59
  L 48.28 28.59
  A 3.11 3.10 -77.0 0 0 51.07 26.84
  L 61.27 5.74
  A 0.51 0.51 0.0 0 1 61.99 5.52
  Q 63.60 6.43 64.47 7.24
  Q 76.25 18.22 86.20 27.14
  Q 87.77 28.54 89.82 28.62
  Q 95.29 28.85 99.24 28.47
  A 8.31 8.28 -60.6 0 0 102.15 27.65
  L 144.09 7.06
  A 0.30 0.30 0.0 0 1 144.49 7.46
  L 134.61 27.88
  A 0.60 0.60 0.0 0 0 135.15 28.74
  L 142.36 28.74
  A 2.33 2.32 12.7 0 0 144.46 27.42
  Q 150.05 15.78 155.94 3.06
  C 156.24 2.42 156.87 1.70 157.39 1.19
  A 0.48 0.48 0.0 0 0 157.20 0.39
  L 155.91 0.00"
/>
<path stroke="#848484" vector-effect="non-scaling-stroke" d="
  M 165.89 0.00
  Q 160.25 10.83 155.08 22.10
  Q 147.97 37.61 132.02 70.95
  Q 123.98 87.75 116.03 104.58
  Q 114.62 107.57 111.50 107.57
  Q 55.75 107.45 0.00 107.53"
/>
<path stroke="#d09392" vector-effect="non-scaling-stroke" d="
  M 139.46 35.17
  Q 138.01 34.85 135.68 34.85
  Q 120.34 34.86 40.06 34.80
  Q 37.46 34.80 36.00 37.69
  Q 30.66 48.27 24.82 59.54
  Q 23.91 61.29 23.89 63.01
  A 1.17 1.17 0.0 0 0 25.06 64.19
  L 30.92 64.19
  A 2.79 2.78 12.9 0 0 33.43 62.62
  L 36.10 57.11
  A 1.99 1.98 12.8 0 1 37.89 55.99
  Q 115.77 55.80 128.49 55.83
  Q 131.30 55.83 132.03 54.16
  Q 136.13 44.76 140.15 36.61
  A 1.02 1.02 0.0 0 0 139.46 35.17"
/>
<path stroke="#848484" vector-effect="non-scaling-stroke" d="
  M 20.10 70.84
  A 0.74 0.74 0.0 0 0 19.44 71.26
  L 16.94 76.42
  A 0.74 0.74 0.0 0 0 17.61 77.48
  L 66.23 77.48
  A 0.74 0.74 0.0 0 1 66.90 78.54
  L 55.75 101.58
  A 0.74 0.74 0.0 0 0 56.42 102.64
  L 63.85 102.64
  A 0.74 0.74 0.0 0 0 64.51 102.22
  L 76.25 77.94
  A 0.74 0.74 0.0 0 1 76.91 77.52
  L 119.35 77.52
  A 0.74 0.74 0.0 0 0 120.01 77.10
  L 122.53 71.90
  A 0.74 0.74 0.0 0 0 121.86 70.84
  L 20.10 70.84"
/>
<path stroke="#848484" vector-effect="non-scaling-stroke" d="
  M 68.72 0.00
  L 93.63 21.30
  A 2.45 2.45 0.0 0 0 96.29 21.64
  L 140.75 0.00"
/>
<path stroke="#848484" vector-effect="non-scaling-stroke" d="
  M 174.38 0.00
  L 174.97 0.17
  A 0.50 0.50 0.0 0 1 175.29 0.87
  C 168.73 14.67 161.51 28.93 155.47 41.89
  Q 145.12 64.11 135.33 84.18
  C 131.84 91.33 128.40 99.53 124.40 106.89
  C 120.62 113.86 115.13 114.15 108.00 114.17
  Q 54.00 114.29 0.00 114.23"
/>
<path stroke="#848484" vector-effect="non-scaling-stroke" d="
  M 664.00 41.83
  L 175.39 41.68
  A 0.80 0.78 7.0 0 0 174.62 42.27
  L 174.09 44.29
  A 0.58 0.58 0.0 0 0 174.65 45.01
  Q 419.37 46.20 664.00 45.28"
/>
<path stroke="#848484" vector-effect="non-scaling-stroke" d="
  M 664.00 48.84
  Q 419.63 48.70 175.25 48.44
  Q 173.14 48.44 171.48 49.25
  A 1.25 1.25 0.0 0 0 171.66 51.56
  C 173.95 52.27 176.95 52.10 179.68 52.10
  Q 421.84 52.24 664.00 52.37"
/>
<path stroke="#e99291" vector-effect="non-scaling-stroke" d="
  M 664.00 84.39
  L 663.71 83.32
  A 0.70 0.69 -7.7 0 0 663.04 82.81
  C 479.86 83.49 368.54 83.32 159.50 83.00
  Q 157.52 82.99 156.19 83.80
  A 1.68 1.62 89.0 0 0 155.61 84.42
  L 151.56 92.11"
/>
<path stroke="#d09392" vector-effect="non-scaling-stroke" d="
  M 151.56 92.11
  Q 151.31 93.10 151.37 93.77
  A 0.59 0.59 0.0 0 0 151.95 94.30
  L 161.95 94.46"
/>
<path stroke="#e99291" vector-effect="non-scaling-stroke" d="
  M 161.95 94.46
  L 664.00 94.66"
/>
<path stroke="#848484" vector-effect="non-scaling-stroke" d="
  M 187.78 21.52
  Q 187.99 21.89 188.01 22.27
  Q 188.65 33.56 188.86 35.64
  A 0.77 0.76 87.1 0 0 189.62 36.33
  L 193.06 36.33
  A 1.85 1.84 -75.3 0 0 194.67 35.38
  Q 199.69 26.32 202.19 22.45
  Q 202.60 21.81 203.31 21.30
  A 0.36 0.36 0.0 0 1 203.86 21.70
  L 199.40 35.99
  A 0.26 0.25 -80.8 0 0 199.64 36.33
  L 203.91 36.33
  A 0.34 0.34 0.0 0 0 204.24 36.08
  L 209.37 16.23
  A 1.02 1.01 5.8 0 0 208.33 14.96
  L 203.07 15.25
  A 2.80 2.80 0.0 0 0 200.79 16.65
  L 193.33 29.58
  A 0.44 0.43 -31.6 0 1 192.52 29.39
  L 191.78 15.65
  A 0.65 0.65 0.0 0 0 191.13 15.04
  L 184.75 15.04
  A 0.91 0.91 0.0 0 0 183.87 15.72
  L 178.76 35.49
  A 0.72 0.71 -84.4 0 0 179.49 36.39
  L 182.76 36.21
  A 0.51 0.49 5.4 0 0 183.22 35.84
  L 186.90 21.63
  A 0.48 0.48 0.0 0 1 187.78 21.52"
/>
<path stroke="#848484" vector-effect="non-scaling-stroke" d="
  M 214.62 36.39
  A 0.31 0.31 0.0 0 0 214.92 36.16
  L 220.25 15.57
  A 0.31 0.31 0.0 0 0 219.95 15.18
  L 215.22 15.18
  A 0.31 0.31 0.0 0 0 214.92 15.41
  L 209.59 36.00
  A 0.31 0.31 0.0 0 0 209.89 36.39
  L 214.62 36.39"
/>
<path stroke="#848484" vector-effect="non-scaling-stroke" d="
  M 230.35 15.11
  L 226.59 15.11
  A 1.00 0.99 7.0 0 0 225.62 15.86
  L 221.09 33.34
  A 1.56 1.07 -34.5 0 1 220.96 33.68
  L 220.03 35.46
  A 0.62 0.62 0.0 0 0 220.58 36.37
  L 238.05 36.37
  A 1.87 1.86 7.2 0 0 239.86 34.97
  L 240.07 34.14
  A 0.88 0.88 0.0 0 0 239.22 33.04
  L 227.34 33.04
  A 0.71 0.71 0.0 0 1 226.65 32.15
  L 230.89 15.80
  A 0.56 0.55 7.2 0 0 230.35 15.11"
/>
<path stroke="#848484" vector-effect="non-scaling-stroke" d="
  M 323.23 30.18
  C 320.65 34.82 309.23 35.09 309.15 28.07
  Q 309.08 21.84 314.84 19.49
  Q 320.68 17.11 324.09 20.85
  A 3.37 3.36 68.6 0 0 326.56 21.93
  L 328.54 21.93
  A 1.11 1.11 0.0 0 0 329.46 20.21
  Q 327.17 16.79 325.31 16.18
  C 315.49 12.95 304.55 16.71 304.35 28.53
  C 304.16 39.60 318.94 37.26 325.99 34.86
  A 0.76 0.74 -2.4 0 0 326.48 34.34
  L 328.61 26.10
  A 0.68 0.68 0.0 0 0 327.95 25.25
  L 318.29 25.25
  A 1.81 1.80 7.2 0 0 316.54 26.60
  L 316.28 27.60
  A 1.00 1.00 0.0 0 0 317.25 28.85
  L 322.45 28.85
  A 0.89 0.89 0.0 0 1 323.23 30.18"
/>
<path stroke="#848484" vector-effect="non-scaling-stroke" d="
  M 636.4487 21.3007
  A 13.47 10.63 -20.6 0 0 620.0999 16.0897
  A 13.47 10.63 -20.6 0 0 611.2313 30.7793
  A 13.47 10.63 -20.6 0 0 627.5801 35.9903
  A 13.47 10.63 -20.6 0 0 636.4487 21.3007"
/>
<path stroke="#848484" vector-effect="non-scaling-stroke" d="
  M 253.05 15.28
  L 249.32 15.31
  A 0.99 0.99 0.0 0 0 248.37 16.06
  L 243.99 33.41
  A 1.54 1.06 -34.9 0 1 243.86 33.75
  L 242.95 35.52
  A 0.62 0.62 0.0 0 0 243.50 36.42
  L 260.82 36.30
  A 1.85 1.85 0.0 0 0 262.60 34.90
  L 262.81 34.08
  A 0.87 0.87 0.0 0 0 261.96 33.00
  L 250.18 33.07
  A 0.71 0.71 0.0 0 1 249.49 32.19
  L 253.59 15.96
  A 0.55 0.55 0.0 0 0 253.05 15.28"
/>
<path stroke="#848484" vector-effect="non-scaling-stroke" d="
  M 271.04 15.32
  A 0.40 0.40 0.0 0 0 270.65 15.62
  L 265.40 35.92
  A 0.40 0.40 0.0 0 0 265.79 36.42
  L 270.13 36.42
  A 0.40 0.40 0.0 0 0 270.52 36.12
  L 275.77 15.82
  A 0.40 0.40 0.0 0 0 275.38 15.32
  L 271.04 15.32"
/>
<path stroke="#848484" vector-effect="non-scaling-stroke" d="
  M 291.12 25.01
  Q 288.99 20.98 286.80 16.53
  A 1.82 1.81 84.6 0 0 285.67 15.59
  Q 284.46 15.26 281.96 15.42
  A 1.00 1.00 0.0 0 0 281.07 16.16
  L 276.01 35.66
  A 0.66 0.66 0.0 0 0 276.69 36.49
  L 279.99 36.31
  A 1.03 1.02 -84.2 0 0 280.93 35.54
  L 284.00 23.65
  A 0.58 0.57 -57.5 0 1 285.00 23.42
  C 285.83 24.41 286.23 25.56 286.89 26.81
  Q 289.02 30.84 291.22 35.29
  A 1.82 1.81 84.6 0 0 292.34 36.22
  Q 293.55 36.56 296.05 36.40
  A 1.00 1.00 0.0 0 0 296.94 35.66
  L 302.00 16.16
  A 0.66 0.66 0.0 0 0 301.32 15.33
  L 298.02 15.51
  A 1.03 1.02 -84.2 0 0 297.09 16.28
  L 294.01 28.17
  A 0.58 0.57 -57.5 0 1 293.01 28.40
  C 292.18 27.41 291.78 26.26 291.12 25.01"
/>
<path stroke="#848484" vector-effect="non-scaling-stroke" d="
  M 385.43 27.66
  Q 385.73 27.59 387.44 27.20
  C 393.68 25.76 394.80 16.26 387.21 15.68
  Q 381.63 15.26 373.25 15.43
  A 1.49 1.48 6.1 0 0 371.84 16.56
  Q 369.85 24.66 367.79 32.27
  Q 367.27 34.19 366.44 35.74
  A 0.59 0.59 0.0 0 0 366.96 36.60
  L 371.27 36.60
  A 0.90 0.89 7.0 0 0 372.14 35.93
  L 374.00 28.74
  A 0.90 0.90 0.0 0 1 374.73 28.08
  Q 375.85 27.89 378.37 28.17
  C 381.07 28.46 383.34 33.31 383.87 35.37
  A 1.70 1.69 82.7 0 0 385.51 36.64
  L 389.57 36.64
  A 0.75 0.75 0.0 0 0 390.19 35.47
  L 385.20 28.27
  A 0.40 0.39 66.1 0 1 385.43 27.66"
/>
<path stroke="#848484" vector-effect="non-scaling-stroke" d="
  M 438.63 29.34
  A 0.47 0.44 -65.9 0 0 438.20 29.52
  Q 434.84 34.04 430.97 33.62
  C 425.82 33.06 424.75 28.61 426.49 24.27
  Q 428.67 18.84 434.96 19.06
  Q 438.84 19.20 438.95 20.99
  A 1.34 1.34 0.0 0 0 440.29 22.24
  L 443.22 22.22
  A 1.16 1.16 0.0 0 0 444.29 20.62
  Q 442.59 16.44 438.16 15.64
  Q 428.62 13.93 423.35 20.10
  C 420.48 23.45 420.38 26.33 420.96 30.78
  C 421.20 32.62 423.27 35.25 424.69 35.85
  C 431.41 38.68 439.61 36.83 443.44 30.12
  A 0.15 0.14 18.3 0 0 443.33 29.91
  L 438.63 29.34"
/>
<path stroke="#848484" vector-effect="non-scaling-stroke" d="
  M 456.60 30.57
  L 457.27 33.70
  A 1.08 1.05 -79.5 0 0 457.72 34.37
  Q 462.54 37.66 469.07 37.10
  C 471.18 36.92 476.16 35.42 476.98 32.86
  Q 478.56 27.88 474.87 26.18
  Q 472.20 24.95 466.48 22.57
  Q 465.19 22.03 465.07 21.05
  A 1.82 1.69 -12.6 0 1 466.35 19.19
  Q 469.06 18.37 472.25 19.17
  Q 472.95 19.34 474.20 21.16
  A 1.01 1.01 0.0 0 0 475.09 21.60
  L 478.19 21.43
  A 1.21 1.21 0.0 0 0 479.08 19.48
  Q 475.88 15.40 470.87 15.22
  C 466.09 15.05 458.51 16.24 460.16 22.97
  C 460.90 25.98 467.36 27.80 471.19 29.22
  A 1.86 1.45 21.5 0 1 472.43 31.31
  Q 471.57 33.26 468.97 33.51
  C 466.57 33.74 462.19 33.90 461.90 30.58
  A 0.68 0.68 0.0 0 0 461.37 29.97
  Q 459.22 29.49 457.13 29.81
  A 0.64 0.63 -10.2 0 0 456.60 30.57"
/>
<path stroke="#848484" vector-effect="non-scaling-stroke" d="
  M 518.1153 21.2761
  A 13.39 10.73 -21.3 0 0 501.7423 16.1430
  A 13.39 10.73 -21.3 0 0 493.1647 31.0039
  A 13.39 10.73 -21.3 0 0 509.5377 36.1370
  A 13.39 10.73 -21.3 0 0 518.1153 21.2761"
/>
<path stroke="#848484" vector-effect="non-scaling-stroke" d="
  M 607.0313 21.2350
  A 13.38 10.68 -21.0 0 0 590.7126 16.0594
  A 13.38 10.68 -21.0 0 0 582.0487 30.8250
  A 13.38 10.68 -21.0 0 0 598.3674 36.0006
  A 13.38 10.68 -21.0 0 0 607.0313 21.2350"
/>
<path stroke="#848484" vector-effect="non-scaling-stroke" d="
  M 347.09 36.45
  A 0.27 0.27 0.0 0 0 347.34 36.23
  L 348.73 29.32
  A 0.94 0.93 5.6 0 1 349.65 28.57
  Q 355.40 28.60 358.71 28.25
  C 363.98 27.70 367.78 22.74 365.14 17.78
  A 2.12 2.11 1.2 0 0 364.35 16.96
  Q 361.92 15.54 360.73 15.52
  Q 355.30 15.42 348.13 15.48
  A 1.27 1.27 0.0 0 0 346.91 16.44
  L 341.68 36.61
  A 0.11 0.11 0.0 0 0 341.79 36.74
  L 347.09 36.45"
/>
<path stroke="#848484" vector-effect="non-scaling-stroke" d="
  M 415.97 24.86
  A 0.77 0.77 0.0 0 0 415.22 23.90
  L 403.19 23.90
  A 0.77 0.77 0.0 0 1 402.45 22.94
  L 403.29 19.67
  A 0.77 0.77 0.0 0 1 404.04 19.09
  L 417.32 19.09
  A 0.77 0.77 0.0 0 0 418.07 18.51
  L 418.60 16.47
  A 0.77 0.77 0.0 0 0 417.85 15.51
  L 399.66 15.51
  A 0.77 0.77 0.0 0 0 398.91 16.09
  L 393.83 35.74
  A 0.77 0.77 0.0 0 0 394.57 36.70
  L 414.28 36.70
  A 0.77 0.77 0.0 0 0 415.05 35.93
  L 415.05 34.11
  A 0.77 0.77 0.0 0 0 414.28 33.34
  L 400.71 33.34
  A 0.77 0.77 0.0 0 1 399.96 32.38
  L 401.09 28.02
  A 0.77 0.77 0.0 0 1 401.84 27.44
  L 414.70 27.44
  A 0.77 0.77 0.0 0 0 415.45 26.86
  L 415.97 24.86"
/>
<path stroke="#848484" vector-effect="non-scaling-stroke" d="
  M 450.42 36.58
  A 0.34 0.34 0.0 0 0 450.73 36.33
  L 456.03 15.85
  A 0.34 0.34 0.0 0 0 455.69 15.43
  L 451.10 15.68
  A 0.34 0.34 0.0 0 0 450.79 15.93
  L 445.49 36.41
  A 0.34 0.34 0.0 0 0 445.83 36.83
  L 450.42 36.58"
/>
<path stroke="#848484" vector-effect="non-scaling-stroke" d="
  M 485.50 36.80
  A 0.31 0.31 0.0 0 0 485.80 36.57
  L 491.11 16.05
  A 0.31 0.31 0.0 0 0 490.81 15.66
  L 486.17 15.66
  A 0.31 0.31 0.0 0 0 485.87 15.89
  L 480.56 36.41
  A 0.31 0.31 0.0 0 0 480.86 36.80
  L 485.50 36.80"
/>
<path stroke="#848484" vector-effect="non-scaling-stroke" d="
  M 531.43 27.05
  Q 533.57 31.10 535.78 35.58
  A 1.83 1.82 84.6 0 0 536.91 36.52
  Q 538.13 36.86 540.64 36.70
  A 1.00 1.00 0.0 0 0 541.54 35.95
  L 546.62 16.34
  A 0.67 0.66 -84.5 0 0 545.94 15.51
  L 542.62 15.69
  A 1.03 1.03 0.0 0 0 541.68 16.46
  L 538.59 28.42
  A 0.58 0.58 0.0 0 1 537.59 28.65
  C 536.75 27.66 536.34 26.50 535.68 25.24
  Q 533.54 21.20 531.33 16.72
  A 1.83 1.82 84.6 0 0 530.21 15.78
  Q 528.99 15.44 526.48 15.60
  A 1.00 1.00 0.0 0 0 525.58 16.35
  L 520.50 35.96
  A 0.67 0.66 -84.5 0 0 521.18 36.79
  L 524.50 36.61
  A 1.03 1.03 0.0 0 0 525.44 35.84
  L 528.53 23.88
  A 0.58 0.58 0.0 0 1 529.53 23.65
  C 530.36 24.64 530.77 25.80 531.43 27.05"
/>
<path stroke="#848484" vector-effect="non-scaling-stroke" d="
  M 561.78 15.55
  A 0.76 0.76 0.0 0 0 561.04 16.12
  L 560.53 18.09
  A 0.76 0.76 0.0 0 0 561.27 19.04
  L 567.30 19.04
  A 0.76 0.76 0.0 0 1 568.03 19.99
  L 563.99 35.62
  A 0.76 0.76 0.0 0 0 564.72 36.57
  L 568.42 36.57
  A 0.76 0.76 0.0 0 0 569.16 36.00
  L 573.38 19.67
  A 0.76 0.76 0.0 0 1 574.08 19.10
  L 581.08 18.72
  A 0.76 0.76 0.0 0 0 581.77 18.15
  L 582.20 16.50
  A 0.76 0.76 0.0 0 0 581.47 15.55
  L 561.78 15.55"
/>
<path stroke="#848484" vector-effect="non-scaling-stroke" d="
  M 648.55 15.44
  L 644.81 15.45
  A 0.99 0.99 0.0 0 0 643.85 16.19
  L 639.36 33.54
  A 1.55 1.06 -34.5 0 1 639.23 33.88
  L 638.31 35.65
  A 0.62 0.62 0.0 0 0 638.85 36.55
  L 656.19 36.55
  A 1.86 1.85 7.2 0 0 657.99 35.16
  L 658.20 34.33
  A 0.87 0.87 0.0 0 0 657.36 33.24
  L 645.56 33.24
  A 0.71 0.71 0.0 0 1 644.88 32.36
  L 649.08 16.13
  A 0.55 0.55 0.0 0 0 648.55 15.44"
/>
<path stroke="#848484" vector-effect="non-scaling-stroke" d="
  M 630.4100 20.8648
  A 8.43 6.71 -37.7 0 0 619.6367 20.7109
  A 8.43 6.71 -37.7 0 0 617.0700 31.1752
  A 8.43 6.71 -37.7 0 0 627.8433 31.3291
  A 8.43 6.71 -37.7 0 0 630.4100 20.8648"
/>
<path stroke="#848484" vector-effect="non-scaling-stroke" d="
  M 375.94 24.57
  Q 381.69 25.61 386.16 23.21
  Q 387.39 22.54 387.47 21.58
  A 2.32 2.12 6.5 0 0 385.47 19.28
  Q 382.63 18.87 377.80 19.04
  A 1.62 1.59 14.7 0 0 376.49 19.79
  Q 375.70 21.04 375.36 23.79
  A 0.71 0.71 0.0 0 0 375.94 24.57"
/>
<path stroke="#848484" vector-effect="non-scaling-stroke" d="
  M 512.1443 20.9901
  A 8.39 6.63 -38.3 0 0 501.4509 20.9869
  A 8.39 6.63 -38.3 0 0 498.9757 31.3899
  A 8.39 6.63 -38.3 0 0 509.6691 31.3931
  A 8.39 6.63 -38.3 0 0 512.1443 20.9901"
/>
<path stroke="#848484" vector-effect="non-scaling-stroke" d="
  M 601.1918 20.8999
  A 8.46 6.72 -37.5 0 0 590.3891 20.7187
  A 8.46 6.72 -37.5 0 0 587.7682 31.2001
  A 8.46 6.72 -37.5 0 0 598.5709 31.3813
  A 8.46 6.72 -37.5 0 0 601.1918 20.8999"
/>
<path stroke="#848484" vector-effect="non-scaling-stroke" d="
  M 350.63 19.16
  L 350.73 24.76
  A 0.23 0.23 0.0 0 0 350.96 24.98
  L 355.70 24.90
  A 5.09 2.97 -1.0 0 0 360.74 21.84
  L 360.74 21.72
  A 5.09 2.97 -1.0 0 0 355.60 18.84
  L 350.86 18.92
  A 0.23 0.23 0.0 0 0 350.63 19.16"
/>
<path stroke="#d09392" vector-effect="non-scaling-stroke" d="
  M 128.97 41.37
  A 1.20 1.20 0.0 0 0 127.89 39.65
  L 45.43 39.65
  A 1.20 1.20 0.0 0 0 44.35 40.33
  L 40.00 49.33
  A 1.20 1.20 0.0 0 0 41.08 51.05
  L 123.53 51.05
  A 1.20 1.20 0.0 0 0 124.61 50.37
  L 128.97 41.37"
/>
<path stroke="#ba2624" vector-effect="non-scaling-stroke" d="
  M 161.95 94.46
  L 162.92 94.20
  A 0.26 0.26 0.0 0 0 162.87 93.69
  L 156.08 93.31
  A 3.61 3.06 49.7 0 1 155.36 93.19
  L 151.56 92.11"
/>
</g>
<path fill="#ffffff" d="
  M 37.62 0.00
  Q 35.54 0.87 34.44 3.20
  Q 19.19 35.51 3.70 67.70
  Q 1.00 73.32 0.00 78.02
  L 0.00 0.00
  L 37.62 0.00
  Z"
/>
<path fill="#080808" d="
  M 44.40 0.00
  Q 45.50 0.32 45.20 0.95
  Q 34.44 23.34 22.02 49.85
  Q 16.88 60.81 11.26 72.03
  Q 5.66 83.22 0.95 94.41
  A 0.31 0.31 0.0 0 1 0.39 94.44
  Q 0.12 93.97 0.00 93.10
  L 0.00 78.02
  Q 1.00 73.32 3.70 67.70
  Q 19.19 35.51 34.44 3.20
  Q 35.54 0.87 37.62 0.00
  L 44.40 0.00
  Z"
/>
<path fill="#ffffff" d="
  M 56.25 0.00
  Q 54.13 0.54 53.05 3.05
  Q 49.01 12.50 41.54 27.12
  A 1.01 1.01 0.0 0 0 42.44 28.59
  L 48.28 28.59
  A 3.11 3.10 -77.0 0 0 51.07 26.84
  L 61.27 5.74
  A 0.51 0.51 0.0 0 1 61.99 5.52
  Q 63.60 6.43 64.47 7.24
  Q 76.25 18.22 86.20 27.14
  Q 87.77 28.54 89.82 28.62
  Q 95.29 28.85 99.24 28.47
  A 8.31 8.28 -60.6 0 0 102.15 27.65
  L 144.09 7.06
  A 0.30 0.30 0.0 0 1 144.49 7.46
  L 134.61 27.88
  A 0.60 0.60 0.0 0 0 135.15 28.74
  L 142.36 28.74
  A 2.33 2.32 12.7 0 0 144.46 27.42
  Q 150.05 15.78 155.94 3.06
  C 156.24 2.42 156.87 1.70 157.39 1.19
  A 0.48 0.48 0.0 0 0 157.20 0.39
  L 155.91 0.00
  L 165.89 0.00
  Q 160.25 10.83 155.08 22.10
  Q 147.97 37.61 132.02 70.95
  Q 123.98 87.75 116.03 104.58
  Q 114.62 107.57 111.50 107.57
  Q 55.75 107.45 0.00 107.53
  L 0.00 93.10
  Q 0.12 93.97 0.39 94.44
  A 0.31 0.31 0.0 0 0 0.95 94.41
  Q 5.66 83.22 11.26 72.03
  Q 16.88 60.81 22.02 49.85
  Q 34.44 23.34 45.20 0.95
  Q 45.50 0.32 44.40 0.00
  L 56.25 0.00
  Z
  M 139.46 35.17
  Q 138.01 34.85 135.68 34.85
  Q 120.34 34.86 40.06 34.80
  Q 37.46 34.80 36.00 37.69
  Q 30.66 48.27 24.82 59.54
  Q 23.91 61.29 23.89 63.01
  A 1.17 1.17 0.0 0 0 25.06 64.19
  L 30.92 64.19
  A 2.79 2.78 12.9 0 0 33.43 62.62
  L 36.10 57.11
  A 1.99 1.98 12.8 0 1 37.89 55.99
  Q 115.77 55.80 128.49 55.83
  Q 131.30 55.83 132.03 54.16
  Q 136.13 44.76 140.15 36.61
  A 1.02 1.02 0.0 0 0 139.46 35.17
  Z
  M 20.10 70.84
  A 0.74 0.74 0.0 0 0 19.44 71.26
  L 16.94 76.42
  A 0.74 0.74 0.0 0 0 17.61 77.48
  L 66.23 77.48
  A 0.74 0.74 0.0 0 1 66.90 78.54
  L 55.75 101.58
  A 0.74 0.74 0.0 0 0 56.42 102.64
  L 63.85 102.64
  A 0.74 0.74 0.0 0 0 64.51 102.22
  L 76.25 77.94
  A 0.74 0.74 0.0 0 1 76.91 77.52
  L 119.35 77.52
  A 0.74 0.74 0.0 0 0 120.01 77.10
  L 122.53 71.90
  A 0.74 0.74 0.0 0 0 121.86 70.84
  L 20.10 70.84
  Z"
/>
<path fill="#080808" d="
  M 68.72 0.00
  L 93.63 21.30
  A 2.45 2.45 0.0 0 0 96.29 21.64
  L 140.75 0.00
  L 155.91 0.00
  L 157.20 0.39
  A 0.48 0.48 0.0 0 1 157.39 1.19
  C 156.87 1.70 156.24 2.42 155.94 3.06
  Q 150.05 15.78 144.46 27.42
  A 2.33 2.32 12.7 0 1 142.36 28.74
  L 135.15 28.74
  A 0.60 0.60 0.0 0 1 134.61 27.88
  L 144.49 7.46
  A 0.30 0.30 0.0 0 0 144.09 7.06
  L 102.15 27.65
  A 8.31 8.28 -60.6 0 1 99.24 28.47
  Q 95.29 28.85 89.82 28.62
  Q 87.77 28.54 86.20 27.14
  Q 76.25 18.22 64.47 7.24
  Q 63.60 6.43 61.99 5.52
  A 0.51 0.51 0.0 0 0 61.27 5.74
  L 51.07 26.84
  A 3.11 3.10 -77.0 0 1 48.28 28.59
  L 42.44 28.59
  A 1.01 1.01 0.0 0 1 41.54 27.12
  Q 49.01 12.50 53.05 3.05
  Q 54.13 0.54 56.25 0.00
  L 68.72 0.00
  Z"
/>
<path fill="#ffffff" d="
  M 140.75 0.00
  L 96.29 21.64
  A 2.45 2.45 0.0 0 1 93.63 21.30
  L 68.72 0.00
  L 140.75 0.00
  Z"
/>
<path fill="#080808" d="
  M 174.38 0.00
  L 174.97 0.17
  A 0.50 0.50 0.0 0 1 175.29 0.87
  C 168.73 14.67 161.51 28.93 155.47 41.89
  Q 145.12 64.11 135.33 84.18
  C 131.84 91.33 128.40 99.53 124.40 106.89
  C 120.62 113.86 115.13 114.15 108.00 114.17
  Q 54.00 114.29 0.00 114.23
  L 0.00 107.53
  Q 55.75 107.45 111.50 107.57
  Q 114.62 107.57 116.03 104.58
  Q 123.98 87.75 132.02 70.95
  Q 147.97 37.61 155.08 22.10
  Q 160.25 10.83 165.89 0.00
  L 174.38 0.00
  Z"
/>
<path fill="#ffffff" d="
  M 664.00 0.00
  L 664.00 41.83
  L 175.39 41.68
  A 0.80 0.78 7.0 0 0 174.62 42.27
  L 174.09 44.29
  A 0.58 0.58 0.0 0 0 174.65 45.01
  Q 419.37 46.20 664.00 45.28
  L 664.00 48.84
  Q 419.63 48.70 175.25 48.44
  Q 173.14 48.44 171.48 49.25
  A 1.25 1.25 0.0 0 0 171.66 51.56
  C 173.95 52.27 176.95 52.10 179.68 52.10
  Q 421.84 52.24 664.00 52.37
  L 664.00 84.39
  L 663.71 83.32
  A 0.70 0.69 -7.7 0 0 663.04 82.81
  C 479.86 83.49 368.54 83.32 159.50 83.00
  Q 157.52 82.99 156.19 83.80
  A 1.68 1.62 89.0 0 0 155.61 84.42
  L 151.56 92.11
  Q 151.31 93.10 151.37 93.77
  A 0.59 0.59 0.0 0 0 151.95 94.30
  L 161.95 94.46
  L 664.00 94.66
  L 664.00 126.00
  L 0.00 126.00
  L 0.00 114.23
  Q 54.00 114.29 108.00 114.17
  C 115.13 114.15 120.62 113.86 124.40 106.89
  C 128.40 99.53 131.84 91.33 135.33 84.18
  Q 145.12 64.11 155.47 41.89
  C 161.51 28.93 168.73 14.67 175.29 0.87
  A 0.50 0.50 0.0 0 0 174.97 0.17
  L 174.38 0.00
  L 664.00 0.00
  Z
  M 187.78 21.52
  Q 187.99 21.89 188.01 22.27
  Q 188.65 33.56 188.86 35.64
  A 0.77 0.76 87.1 0 0 189.62 36.33
  L 193.06 36.33
  A 1.85 1.84 -75.3 0 0 194.67 35.38
  Q 199.69 26.32 202.19 22.45
  Q 202.60 21.81 203.31 21.30
  A 0.36 0.36 0.0 0 1 203.86 21.70
  L 199.40 35.99
  A 0.26 0.25 -80.8 0 0 199.64 36.33
  L 203.91 36.33
  A 0.34 0.34 0.0 0 0 204.24 36.08
  L 209.37 16.23
  A 1.02 1.01 5.8 0 0 208.33 14.96
  L 203.07 15.25
  A 2.80 2.80 0.0 0 0 200.79 16.65
  L 193.33 29.58
  A 0.44 0.43 -31.6 0 1 192.52 29.39
  L 191.78 15.65
  A 0.65 0.65 0.0 0 0 191.13 15.04
  L 184.75 15.04
  A 0.91 0.91 0.0 0 0 183.87 15.72
  L 178.76 35.49
  A 0.72 0.71 -84.4 0 0 179.49 36.39
  L 182.76 36.21
  A 0.51 0.49 5.4 0 0 183.22 35.84
  L 186.90 21.63
  A 0.48 0.48 0.0 0 1 187.78 21.52
  Z
  M 214.62 36.39
  A 0.31 0.31 0.0 0 0 214.92 36.16
  L 220.25 15.57
  A 0.31 0.31 0.0 0 0 219.95 15.18
  L 215.22 15.18
  A 0.31 0.31 0.0 0 0 214.92 15.41
  L 209.59 36.00
  A 0.31 0.31 0.0 0 0 209.89 36.39
  L 214.62 36.39
  Z
  M 230.35 15.11
  L 226.59 15.11
  A 1.00 0.99 7.0 0 0 225.62 15.86
  L 221.09 33.34
  A 1.56 1.07 -34.5 0 1 220.96 33.68
  L 220.03 35.46
  A 0.62 0.62 0.0 0 0 220.58 36.37
  L 238.05 36.37
  A 1.87 1.86 7.2 0 0 239.86 34.97
  L 240.07 34.14
  A 0.88 0.88 0.0 0 0 239.22 33.04
  L 227.34 33.04
  A 0.71 0.71 0.0 0 1 226.65 32.15
  L 230.89 15.80
  A 0.56 0.55 7.2 0 0 230.35 15.11
  Z
  M 323.23 30.18
  C 320.65 34.82 309.23 35.09 309.15 28.07
  Q 309.08 21.84 314.84 19.49
  Q 320.68 17.11 324.09 20.85
  A 3.37 3.36 68.6 0 0 326.56 21.93
  L 328.54 21.93
  A 1.11 1.11 0.0 0 0 329.46 20.21
  Q 327.17 16.79 325.31 16.18
  C 315.49 12.95 304.55 16.71 304.35 28.53
  C 304.16 39.60 318.94 37.26 325.99 34.86
  A 0.76 0.74 -2.4 0 0 326.48 34.34
  L 328.61 26.10
  A 0.68 0.68 0.0 0 0 327.95 25.25
  L 318.29 25.25
  A 1.81 1.80 7.2 0 0 316.54 26.60
  L 316.28 27.60
  A 1.00 1.00 0.0 0 0 317.25 28.85
  L 322.45 28.85
  A 0.89 0.89 0.0 0 1 323.23 30.18
  Z
  M 636.4487 21.3007
  A 13.47 10.63 -20.6 0 0 620.0999 16.0897
  A 13.47 10.63 -20.6 0 0 611.2313 30.7793
  A 13.47 10.63 -20.6 0 0 627.5801 35.9903
  A 13.47 10.63 -20.6 0 0 636.4487 21.3007
  Z
  M 253.05 15.28
  L 249.32 15.31
  A 0.99 0.99 0.0 0 0 248.37 16.06
  L 243.99 33.41
  A 1.54 1.06 -34.9 0 1 243.86 33.75
  L 242.95 35.52
  A 0.62 0.62 0.0 0 0 243.50 36.42
  L 260.82 36.30
  A 1.85 1.85 0.0 0 0 262.60 34.90
  L 262.81 34.08
  A 0.87 0.87 0.0 0 0 261.96 33.00
  L 250.18 33.07
  A 0.71 0.71 0.0 0 1 249.49 32.19
  L 253.59 15.96
  A 0.55 0.55 0.0 0 0 253.05 15.28
  Z
  M 271.04 15.32
  A 0.40 0.40 0.0 0 0 270.65 15.62
  L 265.40 35.92
  A 0.40 0.40 0.0 0 0 265.79 36.42
  L 270.13 36.42
  A 0.40 0.40 0.0 0 0 270.52 36.12
  L 275.77 15.82
  A 0.40 0.40 0.0 0 0 275.38 15.32
  L 271.04 15.32
  Z
  M 291.12 25.01
  Q 288.99 20.98 286.80 16.53
  A 1.82 1.81 84.6 0 0 285.67 15.59
  Q 284.46 15.26 281.96 15.42
  A 1.00 1.00 0.0 0 0 281.07 16.16
  L 276.01 35.66
  A 0.66 0.66 0.0 0 0 276.69 36.49
  L 279.99 36.31
  A 1.03 1.02 -84.2 0 0 280.93 35.54
  L 284.00 23.65
  A 0.58 0.57 -57.5 0 1 285.00 23.42
  C 285.83 24.41 286.23 25.56 286.89 26.81
  Q 289.02 30.84 291.22 35.29
  A 1.82 1.81 84.6 0 0 292.34 36.22
  Q 293.55 36.56 296.05 36.40
  A 1.00 1.00 0.0 0 0 296.94 35.66
  L 302.00 16.16
  A 0.66 0.66 0.0 0 0 301.32 15.33
  L 298.02 15.51
  A 1.03 1.02 -84.2 0 0 297.09 16.28
  L 294.01 28.17
  A 0.58 0.57 -57.5 0 1 293.01 28.40
  C 292.18 27.41 291.78 26.26 291.12 25.01
  Z
  M 385.43 27.66
  Q 385.73 27.59 387.44 27.20
  C 393.68 25.76 394.80 16.26 387.21 15.68
  Q 381.63 15.26 373.25 15.43
  A 1.49 1.48 6.1 0 0 371.84 16.56
  Q 369.85 24.66 367.79 32.27
  Q 367.27 34.19 366.44 35.74
  A 0.59 0.59 0.0 0 0 366.96 36.60
  L 371.27 36.60
  A 0.90 0.89 7.0 0 0 372.14 35.93
  L 374.00 28.74
  A 0.90 0.90 0.0 0 1 374.73 28.08
  Q 375.85 27.89 378.37 28.17
  C 381.07 28.46 383.34 33.31 383.87 35.37
  A 1.70 1.69 82.7 0 0 385.51 36.64
  L 389.57 36.64
  A 0.75 0.75 0.0 0 0 390.19 35.47
  L 385.20 28.27
  A 0.40 0.39 66.1 0 1 385.43 27.66
  Z
  M 438.63 29.34
  A 0.47 0.44 -65.9 0 0 438.20 29.52
  Q 434.84 34.04 430.97 33.62
  C 425.82 33.06 424.75 28.61 426.49 24.27
  Q 428.67 18.84 434.96 19.06
  Q 438.84 19.20 438.95 20.99
  A 1.34 1.34 0.0 0 0 440.29 22.24
  L 443.22 22.22
  A 1.16 1.16 0.0 0 0 444.29 20.62
  Q 442.59 16.44 438.16 15.64
  Q 428.62 13.93 423.35 20.10
  C 420.48 23.45 420.38 26.33 420.96 30.78
  C 421.20 32.62 423.27 35.25 424.69 35.85
  C 431.41 38.68 439.61 36.83 443.44 30.12
  A 0.15 0.14 18.3 0 0 443.33 29.91
  L 438.63 29.34
  Z
  M 456.60 30.57
  L 457.27 33.70
  A 1.08 1.05 -79.5 0 0 457.72 34.37
  Q 462.54 37.66 469.07 37.10
  C 471.18 36.92 476.16 35.42 476.98 32.86
  Q 478.56 27.88 474.87 26.18
  Q 472.20 24.95 466.48 22.57
  Q 465.19 22.03 465.07 21.05
  A 1.82 1.69 -12.6 0 1 466.35 19.19
  Q 469.06 18.37 472.25 19.17
  Q 472.95 19.34 474.20 21.16
  A 1.01 1.01 0.0 0 0 475.09 21.60
  L 478.19 21.43
  A 1.21 1.21 0.0 0 0 479.08 19.48
  Q 475.88 15.40 470.87 15.22
  C 466.09 15.05 458.51 16.24 460.16 22.97
  C 460.90 25.98 467.36 27.80 471.19 29.22
  A 1.86 1.45 21.5 0 1 472.43 31.31
  Q 471.57 33.26 468.97 33.51
  C 466.57 33.74 462.19 33.90 461.90 30.58
  A 0.68 0.68 0.0 0 0 461.37 29.97
  Q 459.22 29.49 457.13 29.81
  A 0.64 0.63 -10.2 0 0 456.60 30.57
  Z
  M 518.1153 21.2761
  A 13.39 10.73 -21.3 0 0 501.7423 16.1430
  A 13.39 10.73 -21.3 0 0 493.1647 31.0039
  A 13.39 10.73 -21.3 0 0 509.5377 36.1370
  A 13.39 10.73 -21.3 0 0 518.1153 21.2761
  Z
  M 607.0313 21.2350
  A 13.38 10.68 -21.0 0 0 590.7126 16.0594
  A 13.38 10.68 -21.0 0 0 582.0487 30.8250
  A 13.38 10.68 -21.0 0 0 598.3674 36.0006
  A 13.38 10.68 -21.0 0 0 607.0313 21.2350
  Z
  M 347.09 36.45
  A 0.27 0.27 0.0 0 0 347.34 36.23
  L 348.73 29.32
  A 0.94 0.93 5.6 0 1 349.65 28.57
  Q 355.40 28.60 358.71 28.25
  C 363.98 27.70 367.78 22.74 365.14 17.78
  A 2.12 2.11 1.2 0 0 364.35 16.96
  Q 361.92 15.54 360.73 15.52
  Q 355.30 15.42 348.13 15.48
  A 1.27 1.27 0.0 0 0 346.91 16.44
  L 341.68 36.61
  A 0.11 0.11 0.0 0 0 341.79 36.74
  L 347.09 36.45
  Z
  M 415.97 24.86
  A 0.77 0.77 0.0 0 0 415.22 23.90
  L 403.19 23.90
  A 0.77 0.77 0.0 0 1 402.45 22.94
  L 403.29 19.67
  A 0.77 0.77 0.0 0 1 404.04 19.09
  L 417.32 19.09
  A 0.77 0.77 0.0 0 0 418.07 18.51
  L 418.60 16.47
  A 0.77 0.77 0.0 0 0 417.85 15.51
  L 399.66 15.51
  A 0.77 0.77 0.0 0 0 398.91 16.09
  L 393.83 35.74
  A 0.77 0.77 0.0 0 0 394.57 36.70
  L 414.28 36.70
  A 0.77 0.77 0.0 0 0 415.05 35.93
  L 415.05 34.11
  A 0.77 0.77 0.0 0 0 414.28 33.34
  L 400.71 33.34
  A 0.77 0.77 0.0 0 1 399.96 32.38
  L 401.09 28.02
  A 0.77 0.77 0.0 0 1 401.84 27.44
  L 414.70 27.44
  A 0.77 0.77 0.0 0 0 415.45 26.86
  L 415.97 24.86
  Z
  M 450.42 36.58
  A 0.34 0.34 0.0 0 0 450.73 36.33
  L 456.03 15.85
  A 0.34 0.34 0.0 0 0 455.69 15.43
  L 451.10 15.68
  A 0.34 0.34 0.0 0 0 450.79 15.93
  L 445.49 36.41
  A 0.34 0.34 0.0 0 0 445.83 36.83
  L 450.42 36.58
  Z
  M 485.50 36.80
  A 0.31 0.31 0.0 0 0 485.80 36.57
  L 491.11 16.05
  A 0.31 0.31 0.0 0 0 490.81 15.66
  L 486.17 15.66
  A 0.31 0.31 0.0 0 0 485.87 15.89
  L 480.56 36.41
  A 0.31 0.31 0.0 0 0 480.86 36.80
  L 485.50 36.80
  Z
  M 531.43 27.05
  Q 533.57 31.10 535.78 35.58
  A 1.83 1.82 84.6 0 0 536.91 36.52
  Q 538.13 36.86 540.64 36.70
  A 1.00 1.00 0.0 0 0 541.54 35.95
  L 546.62 16.34
  A 0.67 0.66 -84.5 0 0 545.94 15.51
  L 542.62 15.69
  A 1.03 1.03 0.0 0 0 541.68 16.46
  L 538.59 28.42
  A 0.58 0.58 0.0 0 1 537.59 28.65
  C 536.75 27.66 536.34 26.50 535.68 25.24
  Q 533.54 21.20 531.33 16.72
  A 1.83 1.82 84.6 0 0 530.21 15.78
  Q 528.99 15.44 526.48 15.60
  A 1.00 1.00 0.0 0 0 525.58 16.35
  L 520.50 35.96
  A 0.67 0.66 -84.5 0 0 521.18 36.79
  L 524.50 36.61
  A 1.03 1.03 0.0 0 0 525.44 35.84
  L 528.53 23.88
  A 0.58 0.58 0.0 0 1 529.53 23.65
  C 530.36 24.64 530.77 25.80 531.43 27.05
  Z
  M 561.78 15.55
  A 0.76 0.76 0.0 0 0 561.04 16.12
  L 560.53 18.09
  A 0.76 0.76 0.0 0 0 561.27 19.04
  L 567.30 19.04
  A 0.76 0.76 0.0 0 1 568.03 19.99
  L 563.99 35.62
  A 0.76 0.76 0.0 0 0 564.72 36.57
  L 568.42 36.57
  A 0.76 0.76 0.0 0 0 569.16 36.00
  L 573.38 19.67
  A 0.76 0.76 0.0 0 1 574.08 19.10
  L 581.08 18.72
  A 0.76 0.76 0.0 0 0 581.77 18.15
  L 582.20 16.50
  A 0.76 0.76 0.0 0 0 581.47 15.55
  L 561.78 15.55
  Z
  M 648.55 15.44
  L 644.81 15.45
  A 0.99 0.99 0.0 0 0 643.85 16.19
  L 639.36 33.54
  A 1.55 1.06 -34.5 0 1 639.23 33.88
  L 638.31 35.65
  A 0.62 0.62 0.0 0 0 638.85 36.55
  L 656.19 36.55
  A 1.86 1.85 7.2 0 0 657.99 35.16
  L 658.20 34.33
  A 0.87 0.87 0.0 0 0 657.36 33.24
  L 645.56 33.24
  A 0.71 0.71 0.0 0 1 644.88 32.36
  L 649.08 16.13
  A 0.55 0.55 0.0 0 0 648.55 15.44
  Z"
/>
<path fill="#080808" d="
  M 187.78 21.52
  A 0.48 0.48 0.0 0 0 186.90 21.63
  L 183.22 35.84
  A 0.51 0.49 5.4 0 1 182.76 36.21
  L 179.49 36.39
  A 0.72 0.71 -84.4 0 1 178.76 35.49
  L 183.87 15.72
  A 0.91 0.91 0.0 0 1 184.75 15.04
  L 191.13 15.04
  A 0.65 0.65 0.0 0 1 191.78 15.65
  L 192.52 29.39
  A 0.44 0.43 -31.6 0 0 193.33 29.58
  L 200.79 16.65
  A 2.80 2.80 0.0 0 1 203.07 15.25
  L 208.33 14.96
  A 1.02 1.01 5.8 0 1 209.37 16.23
  L 204.24 36.08
  A 0.34 0.34 0.0 0 1 203.91 36.33
  L 199.64 36.33
  A 0.26 0.25 -80.8 0 1 199.40 35.99
  L 203.86 21.70
  A 0.36 0.36 0.0 0 0 203.31 21.30
  Q 202.60 21.81 202.19 22.45
  Q 199.69 26.32 194.67 35.38
  A 1.85 1.84 -75.3 0 1 193.06 36.33
  L 189.62 36.33
  A 0.77 0.76 87.1 0 1 188.86 35.64
  Q 188.65 33.56 188.01 22.27
  Q 187.99 21.89 187.78 21.52
  Z"
/>
<path fill="#080808" d="
  M 214.62 36.39
  L 209.89 36.39
  A 0.31 0.31 0.0 0 1 209.59 36.00
  L 214.92 15.41
  A 0.31 0.31 0.0 0 1 215.22 15.18
  L 219.95 15.18
  A 0.31 0.31 0.0 0 1 220.25 15.57
  L 214.92 36.16
  A 0.31 0.31 0.0 0 1 214.62 36.39
  Z"
/>
<path fill="#080808" d="
  M 230.35 15.11
  A 0.56 0.55 7.2 0 1 230.89 15.80
  L 226.65 32.15
  A 0.71 0.71 0.0 0 0 227.34 33.04
  L 239.22 33.04
  A 0.88 0.88 0.0 0 1 240.07 34.14
  L 239.86 34.97
  A 1.87 1.86 7.2 0 1 238.05 36.37
  L 220.58 36.37
  A 0.62 0.62 0.0 0 1 220.03 35.46
  L 220.96 33.68
  A 1.56 1.07 -34.5 0 0 221.09 33.34
  L 225.62 15.86
  A 1.00 0.99 7.0 0 1 226.59 15.11
  L 230.35 15.11
  Z"
/>
<path fill="#080808" d="
  M 323.23 30.18
  A 0.89 0.89 0.0 0 0 322.45 28.85
  L 317.25 28.85
  A 1.00 1.00 0.0 0 1 316.28 27.60
  L 316.54 26.60
  A 1.81 1.80 7.2 0 1 318.29 25.25
  L 327.95 25.25
  A 0.68 0.68 0.0 0 1 328.61 26.10
  L 326.48 34.34
  A 0.76 0.74 -2.4 0 1 325.99 34.86
  C 318.94 37.26 304.16 39.60 304.35 28.53
  C 304.55 16.71 315.49 12.95 325.31 16.18
  Q 327.17 16.79 329.46 20.21
  A 1.11 1.11 0.0 0 1 328.54 21.93
  L 326.56 21.93
  A 3.37 3.36 68.6 0 1 324.09 20.85
  Q 320.68 17.11 314.84 19.49
  Q 309.08 21.84 309.15 28.07
  C 309.23 35.09 320.65 34.82 323.23 30.18
  Z"
/>
<path fill="#080808" d="
  M 636.4487 21.3007
  A 13.47 10.63 -20.6 0 1 627.5801 35.9903
  A 13.47 10.63 -20.6 0 1 611.2313 30.7793
  A 13.47 10.63 -20.6 0 1 620.0999 16.0897
  A 13.47 10.63 -20.6 0 1 636.4487 21.3007
  Z
  M 630.4100 20.8648
  A 8.43 6.71 -37.7 0 0 619.6367 20.7109
  A 8.43 6.71 -37.7 0 0 617.0700 31.1752
  A 8.43 6.71 -37.7 0 0 627.8433 31.3291
  A 8.43 6.71 -37.7 0 0 630.4100 20.8648
  Z"
/>
<path fill="#080808" d="
  M 253.05 15.28
  A 0.55 0.55 0.0 0 1 253.59 15.96
  L 249.49 32.19
  A 0.71 0.71 0.0 0 0 250.18 33.07
  L 261.96 33.00
  A 0.87 0.87 0.0 0 1 262.81 34.08
  L 262.60 34.90
  A 1.85 1.85 0.0 0 1 260.82 36.30
  L 243.50 36.42
  A 0.62 0.62 0.0 0 1 242.95 35.52
  L 243.86 33.75
  A 1.54 1.06 -34.9 0 0 243.99 33.41
  L 248.37 16.06
  A 0.99 0.99 0.0 0 1 249.32 15.31
  L 253.05 15.28
  Z"
/>
<path fill="#080808" d="
  M 271.04 15.32
  L 275.38 15.32
  A 0.40 0.40 0.0 0 1 275.77 15.82
  L 270.52 36.12
  A 0.40 0.40 0.0 0 1 270.13 36.42
  L 265.79 36.42
  A 0.40 0.40 0.0 0 1 265.40 35.92
  L 270.65 15.62
  A 0.40 0.40 0.0 0 1 271.04 15.32
  Z"
/>
<path fill="#080808" d="
  M 291.12 25.01
  C 291.78 26.26 292.18 27.41 293.01 28.40
  A 0.58 0.57 -57.5 0 0 294.01 28.17
  L 297.09 16.28
  A 1.03 1.02 -84.2 0 1 298.02 15.51
  L 301.32 15.33
  A 0.66 0.66 0.0 0 1 302.00 16.16
  L 296.94 35.66
  A 1.00 1.00 0.0 0 1 296.05 36.40
  Q 293.55 36.56 292.34 36.22
  A 1.82 1.81 84.6 0 1 291.22 35.29
  Q 289.02 30.84 286.89 26.81
  C 286.23 25.56 285.83 24.41 285.00 23.42
  A 0.58 0.57 -57.5 0 0 284.00 23.65
  L 280.93 35.54
  A 1.03 1.02 -84.2 0 1 279.99 36.31
  L 276.69 36.49
  A 0.66 0.66 0.0 0 1 276.01 35.66
  L 281.07 16.16
  A 1.00 1.00 0.0 0 1 281.96 15.42
  Q 284.46 15.26 285.67 15.59
  A 1.82 1.81 84.6 0 1 286.80 16.53
  Q 288.99 20.98 291.12 25.01
  Z"
/>
<path fill="#080808" d="
  M 385.43 27.66
  A 0.40 0.39 66.1 0 0 385.20 28.27
  L 390.19 35.47
  A 0.75 0.75 0.0 0 1 389.57 36.64
  L 385.51 36.64
  A 1.70 1.69 82.7 0 1 383.87 35.37
  C 383.34 33.31 381.07 28.46 378.37 28.17
  Q 375.85 27.89 374.73 28.08
  A 0.90 0.90 0.0 0 0 374.00 28.74
  L 372.14 35.93
  A 0.90 0.89 7.0 0 1 371.27 36.60
  L 366.96 36.60
  A 0.59 0.59 0.0 0 1 366.44 35.74
  Q 367.27 34.19 367.79 32.27
  Q 369.85 24.66 371.84 16.56
  A 1.49 1.48 6.1 0 1 373.25 15.43
  Q 381.63 15.26 387.21 15.68
  C 394.80 16.26 393.68 25.76 387.44 27.20
  Q 385.73 27.59 385.43 27.66
  Z
  M 375.94 24.57
  Q 381.69 25.61 386.16 23.21
  Q 387.39 22.54 387.47 21.58
  A 2.32 2.12 6.5 0 0 385.47 19.28
  Q 382.63 18.87 377.80 19.04
  A 1.62 1.59 14.7 0 0 376.49 19.79
  Q 375.70 21.04 375.36 23.79
  A 0.71 0.71 0.0 0 0 375.94 24.57
  Z"
/>
<path fill="#080808" d="
  M 438.63 29.34
  L 443.33 29.91
  A 0.15 0.14 18.3 0 1 443.44 30.12
  C 439.61 36.83 431.41 38.68 424.69 35.85
  C 423.27 35.25 421.20 32.62 420.96 30.78
  C 420.38 26.33 420.48 23.45 423.35 20.10
  Q 428.62 13.93 438.16 15.64
  Q 442.59 16.44 444.29 20.62
  A 1.16 1.16 0.0 0 1 443.22 22.22
  L 440.29 22.24
  A 1.34 1.34 0.0 0 1 438.95 20.99
  Q 438.84 19.20 434.96 19.06
  Q 428.67 18.84 426.49 24.27
  C 424.75 28.61 425.82 33.06 430.97 33.62
  Q 434.84 34.04 438.20 29.52
  A 0.47 0.44 -65.9 0 1 438.63 29.34
  Z"
/>
<path fill="#080808" d="
  M 457.13 29.81
  Q 459.22 29.49 461.37 29.97
  A 0.68 0.68 0.0 0 1 461.90 30.58
  C 462.19 33.90 466.57 33.74 468.97 33.51
  Q 471.57 33.26 472.43 31.31
  A 1.86 1.45 21.5 0 0 471.19 29.22
  C 467.36 27.80 460.90 25.98 460.16 22.97
  C 458.51 16.24 466.09 15.05 470.87 15.22
  Q 475.88 15.40 479.08 19.48
  A 1.21 1.21 0.0 0 1 478.19 21.43
  L 475.09 21.60
  A 1.01 1.01 0.0 0 1 474.20 21.16
  Q 472.95 19.34 472.25 19.17
  Q 469.06 18.37 466.35 19.19
  A 1.82 1.69 -12.6 0 0 465.07 21.05
  Q 465.19 22.03 466.48 22.57
  Q 472.20 24.95 474.87 26.18
  Q 478.56 27.88 476.98 32.86
  C 476.16 35.42 471.18 36.92 469.07 37.10
  Q 462.54 37.66 457.72 34.37
  A 1.08 1.05 -79.5 0 1 457.27 33.70
  L 456.60 30.57
  A 0.64 0.63 -10.2 0 1 457.13 29.81
  Z"
/>
<path fill="#080808" d="
  M 518.1153 21.2761
  A 13.39 10.73 -21.3 0 1 509.5377 36.1370
  A 13.39 10.73 -21.3 0 1 493.1647 31.0039
  A 13.39 10.73 -21.3 0 1 501.7423 16.1430
  A 13.39 10.73 -21.3 0 1 518.1153 21.2761
  Z
  M 512.1443 20.9901
  A 8.39 6.63 -38.3 0 0 501.4509 20.9869
  A 8.39 6.63 -38.3 0 0 498.9757 31.3899
  A 8.39 6.63 -38.3 0 0 509.6691 31.3931
  A 8.39 6.63 -38.3 0 0 512.1443 20.9901
  Z"
/>
<path fill="#080808" d="
  M 607.0313 21.2350
  A 13.38 10.68 -21.0 0 1 598.3674 36.0006
  A 13.38 10.68 -21.0 0 1 582.0487 30.8250
  A 13.38 10.68 -21.0 0 1 590.7126 16.0594
  A 13.38 10.68 -21.0 0 1 607.0313 21.2350
  Z
  M 601.1918 20.8999
  A 8.46 6.72 -37.5 0 0 590.3891 20.7187
  A 8.46 6.72 -37.5 0 0 587.7682 31.2001
  A 8.46 6.72 -37.5 0 0 598.5709 31.3813
  A 8.46 6.72 -37.5 0 0 601.1918 20.8999
  Z"
/>
<path fill="#080808" d="
  M 347.09 36.45
  L 341.79 36.74
  A 0.11 0.11 0.0 0 1 341.68 36.61
  L 346.91 16.44
  A 1.27 1.27 0.0 0 1 348.13 15.48
  Q 355.30 15.42 360.73 15.52
  Q 361.92 15.54 364.35 16.96
  A 2.12 2.11 1.2 0 1 365.14 17.78
  C 367.78 22.74 363.98 27.70 358.71 28.25
  Q 355.40 28.60 349.65 28.57
  A 0.94 0.93 5.6 0 0 348.73 29.32
  L 347.34 36.23
  A 0.27 0.27 0.0 0 1 347.09 36.45
  Z
  M 350.63 19.16
  L 350.73 24.76
  A 0.23 0.23 0.0 0 0 350.96 24.98
  L 355.70 24.90
  A 5.09 2.97 -1.0 0 0 360.74 21.84
  L 360.74 21.72
  A 5.09 2.97 -1.0 0 0 355.60 18.84
  L 350.86 18.92
  A 0.23 0.23 0.0 0 0 350.63 19.16
  Z"
/>
<path fill="#080808" d="
  M 415.97 24.86
  L 415.45 26.86
  A 0.77 0.77 0.0 0 1 414.70 27.44
  L 401.84 27.44
  A 0.77 0.77 0.0 0 0 401.09 28.02
  L 399.96 32.38
  A 0.77 0.77 0.0 0 0 400.71 33.34
  L 414.28 33.34
  A 0.77 0.77 0.0 0 1 415.05 34.11
  L 415.05 35.93
  A 0.77 0.77 0.0 0 1 414.28 36.70
  L 394.57 36.70
  A 0.77 0.77 0.0 0 1 393.83 35.74
  L 398.91 16.09
  A 0.77 0.77 0.0 0 1 399.66 15.51
  L 417.85 15.51
  A 0.77 0.77 0.0 0 1 418.60 16.47
  L 418.07 18.51
  A 0.77 0.77 0.0 0 1 417.32 19.09
  L 404.04 19.09
  A 0.77 0.77 0.0 0 0 403.29 19.67
  L 402.45 22.94
  A 0.77 0.77 0.0 0 0 403.19 23.90
  L 415.22 23.90
  A 0.77 0.77 0.0 0 1 415.97 24.86
  Z"
/>
<path fill="#080808" d="
  M 450.42 36.58
  L 445.83 36.83
  A 0.34 0.34 0.0 0 1 445.49 36.41
  L 450.79 15.93
  A 0.34 0.34 0.0 0 1 451.10 15.68
  L 455.69 15.43
  A 0.34 0.34 0.0 0 1 456.03 15.85
  L 450.73 36.33
  A 0.34 0.34 0.0 0 1 450.42 36.58
  Z"
/>
<path fill="#080808" d="
  M 485.50 36.80
  L 480.86 36.80
  A 0.31 0.31 0.0 0 1 480.56 36.41
  L 485.87 15.89
  A 0.31 0.31 0.0 0 1 486.17 15.66
  L 490.81 15.66
  A 0.31 0.31 0.0 0 1 491.11 16.05
  L 485.80 36.57
  A 0.31 0.31 0.0 0 1 485.50 36.80
  Z"
/>
<path fill="#080808" d="
  M 531.43 27.05
  C 530.77 25.80 530.36 24.64 529.53 23.65
  A 0.58 0.58 0.0 0 0 528.53 23.88
  L 525.44 35.84
  A 1.03 1.03 0.0 0 1 524.50 36.61
  L 521.18 36.79
  A 0.67 0.66 -84.5 0 1 520.50 35.96
  L 525.58 16.35
  A 1.00 1.00 0.0 0 1 526.48 15.60
  Q 528.99 15.44 530.21 15.78
  A 1.83 1.82 84.6 0 1 531.33 16.72
  Q 533.54 21.20 535.68 25.24
  C 536.34 26.50 536.75 27.66 537.59 28.65
  A 0.58 0.58 0.0 0 0 538.59 28.42
  L 541.68 16.46
  A 1.03 1.03 0.0 0 1 542.62 15.69
  L 545.94 15.51
  A 0.67 0.66 -84.5 0 1 546.62 16.34
  L 541.54 35.95
  A 1.00 1.00 0.0 0 1 540.64 36.70
  Q 538.13 36.86 536.91 36.52
  A 1.83 1.82 84.6 0 1 535.78 35.58
  Q 533.57 31.10 531.43 27.05
  Z"
/>
<path fill="#080808" d="
  M 561.78 15.55
  L 581.47 15.55
  A 0.76 0.76 0.0 0 1 582.20 16.50
  L 581.77 18.15
  A 0.76 0.76 0.0 0 1 581.08 18.72
  L 574.08 19.10
  A 0.76 0.76 0.0 0 0 573.38 19.67
  L 569.16 36.00
  A 0.76 0.76 0.0 0 1 568.42 36.57
  L 564.72 36.57
  A 0.76 0.76 0.0 0 1 563.99 35.62
  L 568.03 19.99
  A 0.76 0.76 0.0 0 0 567.30 19.04
  L 561.27 19.04
  A 0.76 0.76 0.0 0 1 560.53 18.09
  L 561.04 16.12
  A 0.76 0.76 0.0 0 1 561.78 15.55
  Z"
/>
<path fill="#080808" d="
  M 648.55 15.44
  A 0.55 0.55 0.0 0 1 649.08 16.13
  L 644.88 32.36
  A 0.71 0.71 0.0 0 0 645.56 33.24
  L 657.36 33.24
  A 0.87 0.87 0.0 0 1 658.20 34.33
  L 657.99 35.16
  A 1.86 1.85 7.2 0 1 656.19 36.55
  L 638.85 36.55
  A 0.62 0.62 0.0 0 1 638.31 35.65
  L 639.23 33.88
  A 1.55 1.06 -34.5 0 0 639.36 33.54
  L 643.85 16.19
  A 0.99 0.99 0.0 0 1 644.81 15.45
  L 648.55 15.44
  Z"
/>
<path fill="#ffffff" d="
  M 350.63 19.16
  A 0.23 0.23 0.0 0 1 350.86 18.92
  L 355.60 18.84
  A 5.09 2.97 -1.0 0 1 360.74 21.72
  L 360.74 21.84
  A 5.09 2.97 -1.0 0 1 355.70 24.90
  L 350.96 24.98
  A 0.23 0.23 0.0 0 1 350.73 24.76
  L 350.63 19.16
  Z"
/>
<ellipse fill="#ffffff" cx="0.00" cy="0.00" transform="translate(505.56,26.19) rotate(-38.3)" rx="8.39" ry="6.63"/>
<ellipse fill="#ffffff" cx="0.00" cy="0.00" transform="translate(594.48,26.05) rotate(-37.5)" rx="8.46" ry="6.72"/>
<ellipse fill="#ffffff" cx="0.00" cy="0.00" transform="translate(623.74,26.02) rotate(-37.7)" rx="8.43" ry="6.71"/>
<path fill="#ffffff" d="
  M 375.36 23.79
  Q 375.70 21.04 376.49 19.79
  A 1.62 1.59 14.7 0 1 377.80 19.04
  Q 382.63 18.87 385.47 19.28
  A 2.32 2.12 6.5 0 1 387.47 21.58
  Q 387.39 22.54 386.16 23.21
  Q 381.69 25.61 375.94 24.57
  A 0.71 0.71 0.0 0 1 375.36 23.79
  Z"
/>
<path fill="#a02724" d="
  M 139.46 35.17
  A 1.02 1.02 0.0 0 1 140.15 36.61
  Q 136.13 44.76 132.03 54.16
  Q 131.30 55.83 128.49 55.83
  Q 115.77 55.80 37.89 55.99
  A 1.99 1.98 12.8 0 0 36.10 57.11
  L 33.43 62.62
  A 2.79 2.78 12.9 0 1 30.92 64.19
  L 25.06 64.19
  A 1.17 1.17 0.0 0 1 23.89 63.01
  Q 23.91 61.29 24.82 59.54
  Q 30.66 48.27 36.00 37.69
  Q 37.46 34.80 40.06 34.80
  Q 120.34 34.86 135.68 34.85
  Q 138.01 34.85 139.46 35.17
  Z
  M 128.97 41.37
  A 1.20 1.20 0.0 0 0 127.89 39.65
  L 45.43 39.65
  A 1.20 1.20 0.0 0 0 44.35 40.33
  L 40.00 49.33
  A 1.20 1.20 0.0 0 0 41.08 51.05
  L 123.53 51.05
  A 1.20 1.20 0.0 0 0 124.61 50.37
  L 128.97 41.37
  Z"
/>
<path fill="#ffffff" d="
  M 128.97 41.37
  L 124.61 50.37
  A 1.20 1.20 0.0 0 1 123.53 51.05
  L 41.08 51.05
  A 1.20 1.20 0.0 0 1 40.00 49.33
  L 44.35 40.33
  A 1.20 1.20 0.0 0 1 45.43 39.65
  L 127.89 39.65
  A 1.20 1.20 0.0 0 1 128.97 41.37
  Z"
/>
<path fill="#080808" d="
  M 664.00 41.83
  L 664.00 45.28
  Q 419.37 46.20 174.65 45.01
  A 0.58 0.58 0.0 0 1 174.09 44.29
  L 174.62 42.27
  A 0.80 0.78 7.0 0 1 175.39 41.68
  L 664.00 41.83
  Z"
/>
<path fill="#080808" d="
  M 664.00 48.84
  L 664.00 52.37
  Q 421.84 52.24 179.68 52.10
  C 176.95 52.10 173.95 52.27 171.66 51.56
  A 1.25 1.25 0.0 0 1 171.48 49.25
  Q 173.14 48.44 175.25 48.44
  Q 419.63 48.70 664.00 48.84
  Z"
/>
<path fill="#080808" d="
  M 20.10 70.84
  L 121.86 70.84
  A 0.74 0.74 0.0 0 1 122.53 71.90
  L 120.01 77.10
  A 0.74 0.74 0.0 0 1 119.35 77.52
  L 76.91 77.52
  A 0.74 0.74 0.0 0 0 76.25 77.94
  L 64.51 102.22
  A 0.74 0.74 0.0 0 1 63.85 102.64
  L 56.42 102.64
  A 0.74 0.74 0.0 0 1 55.75 101.58
  L 66.90 78.54
  A 0.74 0.74 0.0 0 0 66.23 77.48
  L 17.61 77.48
  A 0.74 0.74 0.0 0 1 16.94 76.42
  L 19.44 71.26
  A 0.74 0.74 0.0 0 1 20.10 70.84
  Z"
/>
<path fill="#d32423" d="
  M 664.00 84.39
  L 664.00 94.66
  L 161.95 94.46
  L 162.92 94.20
  A 0.26 0.26 0.0 0 0 162.87 93.69
  L 156.08 93.31
  A 3.61 3.06 49.7 0 1 155.36 93.19
  L 151.56 92.11
  L 155.61 84.42
  A 1.68 1.62 89.0 0 1 156.19 83.80
  Q 157.52 82.99 159.50 83.00
  C 368.54 83.32 479.86 83.49 663.04 82.81
  A 0.70 0.69 -7.7 0 1 663.71 83.32
  L 664.00 84.39
  Z"
/>
<path fill="#a02724" d="
  M 161.95 94.46
  L 151.95 94.30
  A 0.59 0.59 0.0 0 1 151.37 93.77
  Q 151.31 93.10 151.56 92.11
  L 155.36 93.19
  A 3.61 3.06 49.7 0 0 156.08 93.31
  L 162.87 93.69
  A 0.26 0.26 0.0 0 1 162.92 94.20
  L 161.95 94.46
  Z"
/>
</svg>
