<?xml version="1.0" encoding="utf-8"?>
<!DOCTYPE svg PUBLIC "-//W3C//DTD SVG 20010904//EN" "http://www.w3.org/TR/2001/REC-SVG-20010904/DTD/svg10.dtd">
<svg version="1.0" xmlns="http://www.w3.org/2000/svg" width="822px" height="632px" viewBox="0 0 822 632" preserveAspectRatio="xMidYMid meet">
 <g fill="#020000">
  <path d="M157.7 594.1 c-10.8 -3.6 -18.8 -10.8 -22.8 -20.7 -2.4 -5.9 -2.4 -6 -2.7 -54.3 -0.2 -38.8 0 -48.6 1 -49.2 1.6 -1.1 30.9 -1.1 32.5 -0.1 0.9 0.6 1.3 11.5 1.5 43.9 0.3 40.7 0.4 43.2 2.2 45.2 2.5 2.8 9.4 2.9 12.7 0.2 l2.4 -1.9 0.3 -43.3 c0.2 -32.7 0.6 -43.5 1.5 -44.1 1.4 -0.9 23.8 -1.1 26.1 -0.2 1.4 0.5 1.6 5.4 1.6 44.3 0 24.7 -0.5 46.4 -1 50.1 -2.2 13.8 -9 22.9 -21.6 28.7 -5.1 2.4 -7.3 2.8 -16.9 3 -8.7 0.2 -12.2 -0.1 -16.8 -1.6z m28.8 -8 c11.1 -4.9 17.5 -14 19.5 -27.6 0.5 -3.8 1 -23.8 1 -44.2 l0 -37.3 -7.5 0 -7.4 0 -0.3 41.9 -0.3 42 -2.9 3 c-7.3 7.6 -22.6 6.5 -26.8 -1.9 -1.6 -3.2 -1.8 -7.5 -1.8 -44.2 l0 -40.8 -10.5 0 -10.6 0 0.3 43.3 c0.3 42.3 0.3 43.3 2.6 48.9 3.4 8.4 11.1 14.9 21.7 18.5 5.5 1.8 17.1 1 23 -1.6z"/>
  <path d="M434.1 594.5 c-13 -4 -23.8 -17.1 -29.2 -35.1 -1.5 -5 -2.3 -10.8 -2.6 -21.2 -0.8 -21.4 1.3 -32.6 8.9 -47.4 8.4 -16.2 20.7 -23.5 38.3 -22.6 22.3 1.2 35.8 17.6 39 47.5 l0.7 6.2 -4.4 0.5 c-2.3 0.3 -9.7 0.7 -16.2 0.9 l-12 0.2 -1.2 -8.3 c-1.6 -11.2 -5.5 -15.4 -11.3 -12.2 -5 2.6 -8.2 23.1 -6.3 40.5 1.3 11.8 3 16.1 7 17.6 5.6 2.1 10 -2.5 10.9 -11.5 0.3 -3.1 1.1 -6 1.7 -6.5 1 -0.8 24.2 0.3 29.4 1.5 2.3 0.5 2.4 0.7 1.7 6.7 -1.7 14.7 -9 30 -17.6 36.8 -7 5.5 -14.2 7.9 -23.9 7.8 -4.7 0 -10.5 -0.7 -12.9 -1.4z m20.6 -7.1 c6.9 -2.3 12.5 -6.6 16.8 -12.5 3.7 -5.1 7.7 -14.4 8.8 -20.6 l0.7 -3.3 -4.8 0 c-2.6 0 -6.4 -0.3 -8.4 -0.6 -2.8 -0.5 -3.9 -0.3 -4.2 0.7 -3.1 11.1 -3.9 13 -6.7 15.3 -2.5 2.2 -4.1 2.6 -9 2.6 -3.4 0 -7.3 -0.7 -8.9 -1.5 -6.3 -3.2 -9 -13.7 -9 -34.5 0 -19.2 2.2 -30.1 7.1 -34.9 2.8 -2.9 3.6 -3.1 10.1 -3.1 6.6 0 7.2 0.2 10.3 3.3 3.1 3.1 5.5 10 5.5 15.9 0 2 0.4 2.1 8.6 1.5 4.7 -0.2 8.7 -0.7 9 -0.9 0.8 -0.9 -3.5 -15.7 -6.1 -20.7 -6 -11.8 -15.8 -18.5 -27.5 -18.6 -12.8 0 -23.2 7.5 -30.2 22.1 -7 14.5 -9.4 33.6 -6.4 50.4 3.7 20.2 13.4 34.1 27.4 39.2 6 2.2 10.9 2.2 16.9 0.2z"/>
  <path d="M225.2 593.8 c-0.9 -0.9 -1.2 -16 -1.2 -62 0 -59 0.1 -60.8 1.9 -61.8 2.1 -1.1 28.8 -1.4 31.5 -0.4 1.4 0.5 1.6 5.4 1.6 44.5 l0 43.9 17.3 0 c12.1 0 17.7 0.4 18.5 1.2 0.8 0.8 1.2 6.1 1.2 17.3 0 11.2 -0.4 16.5 -1.2 17.3 -0.9 0.9 -10 1.2 -34.8 1.2 -24.8 0 -33.9 -0.3 -34.8 -1.2z m62.8 -17.3 l0 -10.5 -16.4 0 c-9 0 -17.1 -0.3 -18 -0.6 -1.4 -0.5 -1.6 -5.4 -1.6 -44.5 l0 -43.9 -10 0 -10 0 0 55 0 55 28 0 28 0 0 -10.5z"/>
  <path d="M306.3 594.4 c-1 -0.5 -1.3 -10.4 -1.3 -45 l0 -44.4 -9.5 0 -9.5 0 0 -17.4 c0 -14.9 0.2 -17.5 1.6 -18 2 -0.8 65.8 -0.8 67.8 0 1.4 0.5 1.6 3.1 1.6 18 l0 17.4 -9.5 0 -9.5 0 -0.2 44.8 -0.3 44.7 -15 0.2 c-8.2 0.1 -15.6 -0.1 -16.2 -0.3z m24.9 -51.6 l0.3 -44.3 9.3 -0.3 9.2 -0.3 0 -10.4 0 -10.5 -28.5 0 -28.5 0 0 10.5 0 10.4 9.3 0.3 9.2 0.3 0.3 44.3 0.2 44.2 9.5 0 9.5 0 0.2 -44.2z"/>
  <path d="M361.2 593.8 c-0.9 -0.9 -1.2 -15.4 -1.2 -62 0 -59 0.1 -60.8 1.9 -61.8 2.3 -1.2 30 -1.4 31.9 -0.2 1 0.7 1.2 13.9 1 62.8 l-0.3 61.9 -16 0.3 c-11.6 0.2 -16.4 -0.1 -17.3 -1z m26.8 -61.8 l0 -55 -10 0 -10 0 0 55 0 55 10 0 10 0 0 -55z"/>
  <path d="M495 593.1 c-0.6 -1.3 -1 -21.9 -1 -61.5 0 -52.7 0.2 -59.6 1.6 -61 1.3 -1.4 4.9 -1.6 23.7 -1.6 36.5 0 44.6 1.8 53.6 11.5 7.2 7.9 9.6 15.2 9.5 28.5 -0.1 13.8 -2.4 20.3 -10 27.7 l-5.3 5.3 8 25.1 c4.4 13.8 7.8 25.7 7.5 26.5 -0.4 1.1 -3.7 1.4 -17.3 1.4 -9.2 0 -17.4 -0.4 -18.1 -0.8 -0.7 -0.5 -4.3 -10.6 -7.9 -22.5 -5.5 -17.9 -6.9 -21.7 -8.4 -21.7 -1.7 0 -1.9 1.5 -2.1 22.3 l-0.3 22.2 -16.2 0.3 c-15.2 0.2 -16.3 0.1 -17.3 -1.7z m27 -27.4 c0 -15.2 0.3 -21.6 1.2 -22.5 1.3 -1.3 12.6 -1.6 14.6 -0.4 0.9 0.6 14.2 41.5 14.2 43.8 0 0.2 4.7 0.4 10.5 0.4 5.8 0 10.5 -0.2 10.5 -0.4 0 -0.2 -3.1 -10.2 -7 -22.2 -3.8 -12 -7 -23 -7 -24.4 0 -1.9 1.4 -3.8 5.3 -7.2 2.8 -2.4 6.3 -6.7 7.7 -9.4 2.2 -4.3 2.5 -6.2 2.5 -14.9 0 -9.2 -0.2 -10.4 -2.9 -15.3 -3.9 -6.9 -9 -11.5 -16 -14.1 -5.2 -1.9 -7.7 -2.1 -29.6 -2.1 l-24 0 0 55 0 55 10 0 10 0 0 -21.3z"/>
  <path d="M522.7 523.3 c-0.4 -0.3 -0.7 -6.6 -0.7 -13.9 0 -12.7 0.1 -13.4 2.2 -14.5 2.6 -1.4 20.5 -0.4 24.3 1.3 3.9 1.8 5.8 7 5.3 15 -0.3 6.4 -0.7 7.3 -3.6 9.9 -3.2 2.8 -3.4 2.9 -15 2.9 -6.5 0 -12.2 -0.3 -12.5 -0.7z m21.4 -8.2 c2.9 -2.3 3.1 -8.1 0.4 -11.1 -1.5 -1.6 -3 -2 -8.7 -2 l-6.8 0 0 6.8 c0 3.8 0.3 7.2 0.7 7.5 0.3 0.4 3.2 0.7 6.4 0.7 4.1 0 6.3 -0.5 8 -1.9z"/>
  <path d="M593.3 594.3 c-1 -0.4 -1.3 -13.8 -1.3 -62.3 0 -54.9 0.2 -61.9 1.5 -62.4 0.9 -0.3 33 -0.6 71.4 -0.6 53.9 0 70.1 0.3 71.5 1.3 1.5 1.1 1.6 3.2 1.4 17.7 l-0.3 16.5 -9.2 0.3 -9.3 0.3 0 44.3 c0 39.6 -0.2 44.5 -1.6 45 -3.1 1.2 -29.9 0.7 -31.2 -0.6 -0.9 -0.9 -1.2 -12.2 -1.2 -44.9 l0 -43.7 -18.2 -0.7 c-10.1 -0.3 -23.2 -0.5 -29.3 -0.3 l-11 0.3 0 4.5 0 4.5 16.5 0.5 16.5 0.5 0.3 16.2 0.2 16.3 -16.7 0.2 -16.8 0.3 -0.3 5.7 -0.3 5.8 20.8 0.2 20.8 0.3 0 17.5 0 17.5 -36.5 0.2 c-20.1 0.1 -37.1 -0.1 -37.7 -0.4z m67.7 -17.8 l0 -10.5 -20.7 -0.2 -20.8 -0.3 0 -12.5 0 -12.5 16.8 -0.3 16.7 -0.2 0 -9.5 0 -9.5 -16.7 -0.2 -16.8 -0.3 0 -11.5 0 -11.5 20.8 -0.3 20.7 -0.2 0 -10 0 -10 -31 0 -31 0 0 55 0 55 31 0 31 0 0 -10.5z m50 -30.9 c0 -22.7 0.3 -42.7 0.6 -44.4 l0.6 -3.1 9.2 -0.3 9.1 -0.3 0.3 -10.2 0.3 -10.3 -28.6 0 -28.5 0 0 10.5 0 10.5 8.9 0 c7.2 0 9 0.3 9.5 1.6 0.3 0.9 0.6 20.9 0.6 44.5 l0 42.9 9 0 9 0 0 -41.4z"/>
  <path d="M741.7 594.3 c-0.4 -0.3 -0.7 -28.4 -0.7 -62.4 0 -55.3 0.2 -61.7 1.6 -62.3 0.9 -0.3 17.2 -0.6 36.3 -0.6 26.3 0 35.1 0.3 36.4 1.3 1.6 1.1 1.7 3 1.5 17.2 l-0.3 16 -20.7 0.3 -20.8 0.2 0 5 0 5 16.8 0.2 16.7 0.3 0 16 0 16 -16.7 0.3 -16.8 0.2 0 6 0 6 20.8 0.2 20.7 0.3 0.3 16.9 c0.2 12.9 -0.1 17.1 -1 17.8 -1.5 0.9 -73.2 1.1 -74.1 0.1z m67.3 -17.8 l0 -10.5 -20.2 -0.2 -20.3 -0.3 0 -12.5 0 -12.5 16.3 -0.3 16.2 -0.2 0 -9.5 0 -9.5 -16.2 -0.2 -16.3 -0.3 0 -11.5 0 -11.5 20.3 -0.3 20.2 -0.2 0 -10 0 -10 -30.5 0 -30.5 0 0 55 0 55 30.5 0 30.5 0 0 -10.5z"/>
  <path d="M12 532 l0 -61 15.9 0 16 0 2.3 3.8 c4.5 7.5 8.3 13.4 11.5 17.7 1.8 2.4 4.1 6.1 5.2 8.3 2.7 5.2 4.7 6.8 6.6 5.2 0.8 -0.7 4.9 -6.7 9.1 -13.4 8.1 -12.9 11.7 -18.3 13.4 -20.3 0.8 -1 5.4 -1.3 16.5 -1.3 l15.5 0 0 61 0 61 -17 0 -17 0 0 -30 c0 -24.4 -0.2 -30 -1.3 -30 -1.7 0 -12.1 14.5 -18.3 25.3 l-2.1 3.8 -2.1 -3.3 c-1.2 -1.8 -4.7 -7.1 -7.8 -11.8 -3 -4.7 -6.3 -9.7 -7.2 -11.2 -0.9 -1.6 -2.5 -2.8 -3.4 -2.8 -1.7 0 -1.8 2.1 -1.8 30 l0 30 -17 0 -17 0 0 -61z m28.3 43.4 c0.3 -6.4 0.3 -20.7 0 -31.9 -0.7 -24.1 -0.5 -25.5 4 -25.5 2.8 0.1 3.7 0.8 7.6 6.6 2.5 3.7 5.3 8.3 6.4 10.3 1 2 2.7 4.5 3.7 5.6 1 1.1 2.5 3.5 3.4 5.3 1 1.8 2.1 3.2 2.6 3 0.5 -0.2 3.3 -4.1 6.4 -8.8 13.6 -20.8 13.7 -21.1 17.6 -20.8 l3.5 0.3 0 25 c0 13.8 0.2 28.9 0.3 33.8 l0.2 8.7 11 0 11 0 -0.2 -54.7 -0.3 -54.8 -10.5 0 -10.5 0 -7.5 11.3 c-4.1 6.2 -9.7 14.6 -12.3 18.7 -4.6 7.1 -5 7.5 -8.5 7.5 -4.2 0 -1.9 2.9 -24.1 -31 -2 -3 -4 -5.8 -4.6 -6.3 -0.5 -0.4 -5.5 -0.6 -11 -0.5 l-10 0.3 -0.3 54.8 -0.2 54.7 10.8 0 10.9 0 0.6 -11.6z"/>
  <path d="M407 451 c-3 -0.4 -6.4 -1.2 -7.5 -1.8 -1.1 -0.7 -4.4 -2.1 -7.4 -3.2 -9.5 -3.6 -22.1 -15.3 -27.1 -25.1 -6.3 -12.2 -8 -24.2 -8 -55.5 0 -23.7 -0.1 -24.6 -2 -25.1 -2 -0.5 -2 -1.4 -2 -66.8 0 -36.5 0.3 -67 0.6 -67.9 0.4 -1 1.8 -1.6 3.8 -1.6 2.3 0 3.5 0.7 4.7 2.8 1.6 2.7 12.7 20.8 22.9 37.2 2.9 4.7 8.3 13.5 11.9 19.5 3.7 6.1 10 16.3 14.1 22.7 l7.3 11.7 15.9 -25.7 c8.8 -14.1 17.8 -28.6 20.1 -32.2 2.2 -3.6 5.6 -9.1 7.6 -12.3 2 -3.2 5 -8 6.8 -10.8 1.8 -2.7 4.2 -6.8 5.4 -8.9 2 -3.6 2.7 -4 6.1 -4 l3.8 0 0 90.9 c0 50 0.3 92.3 0.6 94 l0.7 3.1 38.8 0 38.9 0 0 -147.4 0 -147.4 3.1 -0.6 c4.6 -0.9 59.1 -0.6 67.4 0.3 28.1 3.3 48.3 20.7 53.6 46.1 1.7 7.9 1.8 17.4 1.8 131.5 0.1 119.1 0 123.3 -1.9 132 -1.2 5.5 -3.2 10.9 -5 13.8 -1.7 2.7 -3 5.1 -3 5.5 -0.1 1 -10 11 -14.7 14.8 -2.1 1.7 -6.5 4.1 -9.8 5.4 -3.3 1.3 -6.5 2.8 -7.1 3.2 -3.3 2.4 -21.2 2.8 -124.9 2.6 -60.5 0 -112.5 -0.4 -115.5 -0.8z"/>
  <path d="M205 339.3 c-7.7 -2.6 -18.6 -6.8 -19 -7.3 -0.3 -0.3 -2.8 -2.2 -5.6 -4.3 -7.8 -5.6 -13.5 -12.4 -18.2 -21.8 -3.6 -7.1 -4.3 -9.8 -5.2 -17.9 -1.4 -13.8 -1.3 -227 0.1 -236.3 1.1 -6.8 6.8 -20.4 10.1 -23.8 0.7 -0.8 2.3 -2.6 3.4 -4.1 5.7 -7.4 19.2 -16.4 28.4 -18.9 7.1 -2 240.5 -4.8 242.4 -2.9 0.5 0.5 2.4 1 4 1 5.6 0 17.1 3.7 24.2 7.5 8.9 5 19.3 15.5 23.3 23.8 5.9 12.1 6.3 14.4 6.8 39.5 0.5 21.9 0.6 23.2 2.4 23.2 3 0 2.2 3 -2.4 9.2 -2.3 3.2 -8 11.5 -12.7 18.4 -4.7 6.9 -9.6 13.9 -11 15.6 -1.4 1.7 -3.4 4.6 -4.5 6.4 -1.1 1.7 -4.5 6.7 -7.5 11 -3 4.2 -7.2 10.3 -9.3 13.3 -2.2 3.1 -9.3 13.4 -15.9 22.9 l-12.1 17.2 -4.1 0 c-3.4 0 -4.4 -0.5 -5.8 -2.8 -0.9 -1.5 -4.3 -6.5 -7.7 -11.2 -3.3 -4.7 -9 -12.8 -12.6 -18 -3.6 -5.2 -9.6 -13.8 -13.3 -19.1 -3.7 -5.3 -13.9 -19.9 -22.6 -32.5 -8.8 -12.6 -17.5 -25 -19.4 -27.6 l-3.4 -4.8 -25.4 0 -25.4 0 0 122.5 0 122.5 -40.2 -0.1 c-22.2 0 -41 -0.3 -41.8 -0.6z m67.4 -7.3 l2.6 -1 0 -124 0 -124 35.8 0 35.9 0 1.9 2.2 c1.1 1.3 3.2 4.1 4.7 6.3 1.4 2.2 4.7 6.9 7.2 10.5 2.5 3.6 6.1 8.8 7.9 11.5 1.9 2.8 5.4 7.7 7.7 11 10.5 14.9 12.5 17.9 14.4 20.9 1.1 1.8 3 4.6 4.3 6.2 2.4 3 6.5 8.9 19.6 27.9 6.7 9.7 8.2 11.3 9.3 10.2 0.8 -0.8 4.6 -6.1 8.6 -11.9 4 -5.7 19 -27.4 33.5 -48 l26.2 -37.6 0 -17.8 c0 -20 -1.3 -26.9 -6.9 -36.7 -6.1 -10.7 -19.6 -21.5 -31.7 -25.3 -5.6 -1.8 -11.7 -1.9 -125.4 -1.9 l-119.5 0 -6.8 2.3 c-20.9 7.3 -35.4 25.4 -37.8 47.3 -0.6 5.1 -0.9 52.1 -0.7 117.5 0.3 100.9 0.5 109.3 2.1 114.1 3.5 10.3 7 16.3 14.7 24.6 8.7 9.5 19.3 14.4 33.5 15.7 12.4 1.1 56 1.1 58.9 0z"/>
 </g>
 <g fill="#950001">
  <path d="M159.6 590.2 c-8.1 -2.8 -7.1 -4.2 2.8 -4.2 l8.6 0 0 3 c0 2.7 -0.3 3 -3.2 3 -1.8 -0.1 -5.5 -0.9 -8.2 -1.8z"/>
  <path d="M173.2 589.4 c0.3 -2.8 0.5 -2.9 5.8 -3.2 7.6 -0.3 10 -1 10 -2.7 0 -1 1 -1.5 3 -1.5 1.7 0 3 -0.4 3 -1 0 -0.5 1.7 -1 3.8 -1 l3.7 0.1 -3.5 3.1 c-5.1 4.4 -12.8 7.7 -19.9 8.4 l-6.3 0.7 0.4 -2.9z"/>
  <path d="M437.7 591.3 c-3.3 -0.9 -1.5 -3.8 2.6 -4.1 3.4 -0.3 3.7 -0.1 3.7 2.2 0 2.7 -1.6 3.1 -6.3 1.9z"/>
  <path d="M447 589.8 c0 -2.2 0.6 -2.6 3.8 -3.2 6.5 -1 10.2 -0.7 10.2 0.9 0 2 -3.2 3.5 -9 4.2 -4.8 0.6 -5 0.5 -5 -1.9z"/>
  <path d="M14.8 589 c-0.1 -0.5 -0.1 -26.5 0.2 -57.7 l0.5 -56.8 13 -0.3 c7.2 -0.1 13.5 0.1 14 0.5 0.6 0.5 2.6 3.3 4.6 6.3 2 3 7.4 11.2 12 18.3 4.5 7 8.6 12.7 9.1 12.7 0.4 0 2.9 -3.4 5.5 -7.5 2.6 -4.1 8.2 -12.5 12.3 -18.7 l7.5 -11.3 12.9 -0.3 c7 -0.1 13.3 0.2 14 0.7 0.8 0.7 1 16.2 0.8 58 l-0.2 57.1 -13.9 0 c-10.2 0 -14 -0.3 -14.4 -1.2 -0.2 -0.7 -0.3 -15.8 -0.1 -33.5 0.2 -17.7 0 -32.4 -0.4 -32.7 -0.8 -0.5 -5.5 6.1 -16.3 22.7 -3.8 5.9 -7.4 10.7 -7.9 10.7 -0.4 0 -2.1 -2.1 -3.7 -4.6 -1.5 -2.5 -3.7 -5.7 -4.9 -7.2 -1.2 -1.5 -3.2 -4.7 -4.6 -7.2 -1.4 -2.5 -4.3 -7.1 -6.6 -10.4 -4.1 -5.8 -4.1 -5.8 -4.8 -3 -0.4 1.5 -0.4 11.1 0 21.3 0.3 10.2 0.3 24.6 0 31.9 l-0.7 13.2 -13.8 0 c-8.2 0 -13.9 -0.4 -14.1 -1z m22.2 -38.9 c0 -18.1 0.3 -33.6 0.6 -34.5 0.4 -1.1 1.9 -1.6 5 -1.6 4 0 4.7 0.4 7.4 4.2 1.6 2.2 3 4.7 3 5.3 0 0.7 0.7 1.9 1.6 2.6 1.6 1.3 6.7 9.1 9.3 14.1 2.2 4.4 3.7 4 7.5 -1.8 2 -2.9 3.6 -5.6 3.6 -5.9 0 -0.3 1.7 -2.9 3.9 -5.8 2.1 -2.9 4.2 -6.2 4.5 -7.3 1.2 -3.8 4 -5.6 8.7 -5.2 l4.4 0.3 0.3 34.3 0.2 34.2 9 0 9 0 -0.2 -51.7 -0.3 -51.8 -9.1 -0.3 -9.1 -0.3 -8.4 13.1 c-4.6 7.2 -10 15.7 -12 18.8 l-3.6 5.7 -5.3 0 -5.4 0 -3 -5.7 c-1.7 -3.1 -4.1 -6.7 -5.4 -8 -1.2 -1.4 -2.2 -2.9 -2.2 -3.5 0 -0.6 -2 -3.7 -4.4 -7 -2.4 -3.2 -4.7 -6.9 -5.1 -8.3 -1.3 -4.1 -3.4 -4.9 -12.7 -5 l-8.8 0 0 52 0 52 8.5 0 8.5 0 0 -32.9z"/>
  <path d="M596 532 c0 -57.3 0 -58 2 -58 2 0 2 0.7 2 58 0 57.3 0 58 -2 58 -2 0 -2 -0.7 -2 -58z"/>
  <path d="M658 578.5 l0 -11.5 -19 0 -19 0 0 -3.5 c0 -3.6 1.3 -4.7 2.4 -2 0.4 1.3 3.7 1.5 21.1 1.5 l20.5 0 0 13.5 0 13.5 -3 0 -3 0 0 -11.5z"/>
  <path d="M424.3 584.4 c-1.8 -1.3 -4.2 -3.8 -5.3 -5.4 l-2.1 -3 3.6 0 c2.5 0 3.8 0.5 4.2 1.8 0.4 0.9 1.3 2.2 2.1 2.7 0.7 0.6 1.2 2.3 1 3.8 l-0.3 2.7 -3.2 -2.6z"/>
  <path d="M465 585.2 c0 -1.1 0.3 -3.4 0.6 -5.1 0.6 -2.9 0.9 -3.1 5.1 -3.1 l4.4 0 -2.1 3 c-1.1 1.6 -3.4 3.9 -5 5 -2.9 2.1 -3 2.1 -3 0.2z"/>
  <path d="M809 569 c0 -1.9 -0.8 -2 -20.2 -2.2 l-20.3 -0.3 -0.3 -3.7 c-0.2 -2.8 0.1 -3.8 1.1 -3.8 0.8 0 1.7 0.9 2 2 0.5 1.9 1.4 2 21.1 2 22.5 0 21.6 -0.3 20 5.8 -0.8 2.7 -3.4 2.9 -3.4 0.2z"/>
  <path d="M166 567.1 c0 -0.5 -1 -1.1 -2.2 -1.3 -2 -0.3 -2.3 -1 -2.6 -5 -0.4 -5.7 1.5 -6.5 3.8 -1.5 0.8 1.8 2.9 3.9 4.7 4.7 4.4 2 4.2 4 -0.2 4 -1.9 0 -3.5 -0.4 -3.5 -0.9z"/>
  <path d="M136.6 563.8 c-0.3 -1.3 -0.6 -3.8 -0.6 -5.5 0 -2.6 0.4 -3.3 2 -3.3 1.8 0 2 0.7 2 5.5 0 4 -0.4 5.5 -1.4 5.5 -0.7 0 -1.6 -1 -2 -2.2z"/>
  <path d="M206 557.5 c0 -1.4 -0.4 -2.5 -1 -2.5 -0.7 0 -1 -14.2 -1 -40.5 l0 -40.5 3 0 3 0 0 40.8 c0 22.4 -0.3 41.7 -0.6 43 -0.9 3 -3.4 2.8 -3.4 -0.3z"/>
  <path d="M477.5 551.9 c-2.2 -0.4 -6.6 -0.8 -9.7 -0.8 -5.2 -0.1 -5.8 -0.3 -5.8 -2.2 0 -2 0.3 -2.1 10.8 -1.4 5.9 0.4 11 0.9 11.4 1.1 1 0.6 -0.3 4.4 -1.6 4.3 -0.6 -0.1 -2.9 -0.5 -5.1 -1z"/>
  <path d="M157 512.5 l0 -38.5 3 0 3 0 0 38.5 0 38.5 -3 0 -3 0 0 -38.5z"/>
  <path d="M189 511.5 c0 -36.8 0 -37.5 2 -37.5 2 0 2 0.7 2 37.5 0 36.8 0 37.5 -2 37.5 -2 0 -2 -0.7 -2 -37.5z"/>
  <path d="M650 530.5 l0 -12.5 3 0 3 0 0 12.5 0 12.5 -3 0 -3 0 0 -12.5z"/>
  <path d="M406 525.3 c0 -5.3 1 -8.3 2.6 -8.3 1 0 1.4 1.6 1.4 6 0 5.3 -0.2 6 -2 6 -1.6 0 -2 -0.7 -2 -3.7z"/>
  <path d="M523 521.5 c0 -3.6 1.3 -4.7 2.4 -2 0.4 1.1 2.3 1.5 8.1 1.5 6.8 0 7.5 0.2 7.5 2 0 1.9 -0.7 2 -9 2 l-9 0 0 -3.5z"/>
  <path d="M470 516 c0 -2.9 0.2 -3 4.4 -3 5.7 0 7.6 0.8 7.6 3 0 2 -2.7 3 -8.2 3 -3.6 0 -3.8 -0.2 -3.8 -3z"/>
  <path d="M689.9 506.5 c-0.1 -0.8 -0.3 -1.9 -0.4 -2.5 -0.1 -0.5 -0.3 -1.4 -0.4 -2 0 -0.6 -4.1 -1 -9.7 -1 -8.4 0 -9.5 -0.2 -9 -1.6 0.3 -0.9 0.6 -2.2 0.6 -3 0 -1.1 1.9 -1.4 9 -1.4 8.3 0 9 0.1 9 2 0 1.3 0.7 2 2 2 1.7 0 2 0.7 2 4.5 0 3.3 -0.4 4.5 -1.5 4.5 -0.8 0 -1.6 -0.7 -1.6 -1.5z"/>
  <path d="M711 504 c0 -2.2 0.5 -4 1 -4 0.6 0 1 -1.1 1 -2.5 0 -2.5 0.1 -2.5 8.5 -2.5 7.8 0 8.5 -0.2 8.5 -2 0 -1.4 0.7 -2 2.1 -2 1.8 0 2 0.5 1.7 4.8 l-0.3 4.7 -9.1 0.3 -9.2 0.3 -0.6 3.4 c-1 5.1 -3.6 4.7 -3.6 -0.5z"/>
  <path d="M332.2 499.8 l0.3 -4.3 10.3 -0.3 10.2 -0.3 0 3.1 0 3 -9 0 c-7.1 0 -9.2 0.3 -9.6 1.5 -1.2 3 -2.5 1.4 -2.2 -2.7z"/>
  <path d="M768 500.9 c0 -1.7 0.5 -3.9 1 -5 1 -1.8 2.3 -1.9 22 -1.9 l21 0 0 3 0 3 -20.1 0 c-19.2 0 -20.1 0.1 -20.6 2 -0.9 3.2 -3.3 2.4 -3.3 -1.1z"/>
  <path d="M438 499.5 c0 -2.4 0.5 -3.5 1.5 -3.5 0.8 0 1.5 -0.6 1.5 -1.4 0 -2.8 7.8 -3.6 10.4 -1.1 0.8 0.8 1.9 1.5 2.5 1.5 0.6 0 1.1 1.4 1.1 3.1 0 2.9 -0.1 3 -2.2 1.5 -3.4 -2.4 -9 -2 -12.2 0.9 l-2.6 2.4 0 -3.4z"/>
  <path d="M620.2 498.8 l0.3 -4.3 18.8 -0.3 18.7 -0.2 0 -10 0 -10 3 0 3 0 0 13 0 13 -20.5 0 c-17.4 0 -20.7 0.2 -21.1 1.5 -1.2 3 -2.5 1.4 -2.2 -2.7z"/>
  <path d="M299.3 501.2 l-9.3 -0.3 0 -2.9 0 -3 9 0 c9.5 0 10.6 0.5 9.8 4.7 -0.3 1.6 -1.3 1.8 -9.5 1.5z"/>
  <path d="M522.7 500.3 c-0.4 -0.3 -0.7 -2.1 -0.7 -4 0 -3.3 0.1 -3.3 4.5 -3.3 3.8 0 4.5 0.3 4.5 2 0 1.1 -0.7 2 -1.5 2 -0.8 0 -2.4 0.9 -3.5 2 -2.2 2.2 -2.4 2.3 -3.3 1.3z"/>
  <path d="M533.8 497.3 c-2.9 -0.7 -2 -3 1.3 -3.7 6.2 -1.2 7.9 -0.8 7.9 1.9 0 2.2 -0.4 2.5 -3.7 2.4 -2.1 -0.1 -4.6 -0.3 -5.5 -0.6z"/>
  <path d="M546 476 c0 -1.6 0.7 -2 3.3 -2 4.7 0 7.7 1 7.7 2.6 0 1 -1.5 1.4 -5.5 1.4 -4.8 0 -5.5 -0.2 -5.5 -2z"/>
  <path d="M436 474.6 c0 -1.4 2.9 -2.6 6.8 -2.6 1.5 0 2.2 0.6 2.2 2 0 1.7 -0.7 2 -4.5 2 -3.2 0 -4.5 -0.4 -4.5 -1.4z"/>
  <path d="M446 474 c0 -1.6 0.7 -2 3.3 -2 4.7 0 7.7 1 7.7 2.6 0 1 -1.5 1.4 -5.5 1.4 -4.8 0 -5.5 -0.2 -5.5 -2z"/>
  <path d="M210.5 335 c-14.2 -1.3 -24.8 -6.3 -33.5 -15.7 -7.7 -8.3 -11.2 -14.3 -14.7 -24.6 -1.6 -4.8 -1.8 -13.3 -2.1 -117.1 -0.2 -67.3 0.1 -115.4 0.7 -120.5 2.4 -21.9 16.9 -40 37.8 -47.3 l6.8 -2.3 122.5 0 c116.6 0 122.8 0.1 128.4 1.9 12.1 3.8 25.6 14.6 31.7 25.3 5.8 10.1 6.9 16.4 6.9 39.7 l0 20.8 -26.2 37.6 c-28.4 40.5 -39.7 56.8 -43.1 61.9 -2.6 3.8 -4.4 4.2 -5.6 1.1 -0.5 -1.3 -4.6 -7.5 -9 -13.8 -4.4 -6.3 -10 -14.3 -12.3 -17.8 -2.4 -3.5 -5.4 -7.7 -6.8 -9.4 -1.4 -1.7 -3.4 -4.6 -4.5 -6.4 -1.9 -3 -3.9 -5.9 -14.4 -20.9 -2.3 -3.3 -5.8 -8.2 -7.7 -11 -1.8 -2.7 -5.4 -7.9 -7.9 -11.5 -2.5 -3.6 -5.8 -8.3 -7.2 -10.5 -6.2 -9.3 -2.4 -8.5 -39.5 -8.5 l-32.8 0 0 123.9 c0 99.5 -0.3 124.1 -1.3 124.9 -1.5 1.2 -53.3 1.4 -66.2 0.2z"/>
 </g>
 <g fill="#fefefe">
  <path d="M481.8 394.3 c0 -0.5 -0.2 -1.2 -0.3 -1.8 -0.2 -0.5 -0.3 -42.5 -0.4 -93.2 0 -50.8 -0.5 -92.3 -0.9 -92.3 -0.5 0 -1.8 1.8 -3.1 4 -1.2 2.1 -3.6 6.2 -5.4 8.9 -1.8 2.8 -4.8 7.6 -6.8 10.8 -2 3.2 -5.4 8.7 -7.6 12.3 -2.3 3.6 -11.8 19 -21.3 34.3 -18.8 30.2 -17.8 29.2 -22.3 21.4 -2.2 -3.8 -18.3 -30.1 -27.7 -45.2 -2.1 -3.3 -7.5 -12.1 -12 -19.5 -16 -26 -16.7 -27.1 -17.4 -25.4 -0.3 0.8 -0.6 30.8 -0.6 66.5 l0 64.9 -36 0 -36 0 0 -124 0 -124 28.4 0 28.4 0 3.4 4.8 c1.9 2.6 10.6 15 19.4 27.6 8.7 12.6 18.9 27.2 22.6 32.5 3.7 5.3 9.7 13.9 13.3 19.1 3.6 5.2 9.3 13.3 12.6 18 3.4 4.7 6.8 9.7 7.7 11.2 1 1.6 2.2 2.8 2.8 2.8 1 0 10.3 -13 29.1 -40.1 2.1 -3 6.3 -9.1 9.3 -13.3 3 -4.3 6.4 -9.3 7.5 -11 1.1 -1.8 3.1 -4.6 4.3 -6.2 1.3 -1.6 6.4 -8.7 11.2 -15.9 4.9 -7.2 10.8 -15.6 13.1 -18.7 l4.1 -5.8 32.4 0 32.4 0 0.2 148 c0.2 81.4 0.2 148.5 0 149 -0.4 1.2 -84.1 1.4 -84.4 0.3z"/>
 </g>
 <g fill="#aa0000">
  <path d="M168 590.5 c0 -0.8 -0.7 -1.5 -1.5 -1.5 -0.8 0 -1.5 0.5 -1.5 1 0 0.6 -0.7 1 -1.5 1 -0.8 0 -1.5 -0.4 -1.5 -1 0 -0.5 -0.6 -0.7 -1.4 -0.4 -2.3 0.9 -10.1 -3.1 -15 -7.6 -2.9 -2.7 -5.3 -6.2 -6.8 -9.8 -2.2 -5.6 -2.2 -6.7 -2.6 -51.9 l-0.3 -46.3 12 0 12.1 0 0 37 c0 30.5 0.2 37 1.4 37 0.9 0 1.5 1.8 1.9 5.3 1 8.2 1.2 8.7 3.8 10.1 6.8 3.5 13.6 2.6 18.3 -2.3 3.9 -4.1 4.5 -10.6 4.6 -52.3 l0 -34.8 8.5 0 8.5 0 0 39 c0 28.3 0.3 39 1.1 39 0.8 0 1 2.4 0.7 7.9 -0.4 6.4 -1.1 9.3 -3.7 14.5 -3.3 6.7 -8.1 11.3 -11.3 10.8 -1.2 -0.2 -1.6 0.2 -1.3 1 0.6 1.6 -4.9 4 -7.2 3.1 -0.8 -0.3 -1.8 0 -2.3 0.7 -0.6 0.9 -1.2 1 -3 0 -2 -1.1 -2.5 -1 -3.5 0.4 -1.6 2.1 -8.5 2.2 -8.5 0.1z"/>
  <path d="M441 591.1 c0 -0.5 -0.9 -0.7 -2 -0.4 -1.1 0.3 -3.5 0 -5.3 -0.7 -4.2 -1.7 -11.6 -7.2 -11.7 -8.6 0 -0.7 -1.1 -1.9 -2.4 -2.8 -3 -1.9 -9 -13.8 -11.3 -22.6 -2.6 -9.5 -2.3 -37.4 0.5 -48.1 4.3 -16.3 12.4 -27.8 23 -32.7 5 -2.3 6.9 -2.6 15.3 -2.5 8.1 0.1 10.4 0.5 15.1 2.7 6.5 3.1 11.6 8.3 15.3 15.7 3 5.9 6.5 18.6 6.5 23.7 0 3.7 0.1 3.7 -8.2 1.6 -2.2 -0.5 -2.8 -0.3 -2.8 1 0 1.3 -1.1 1.6 -4.9 1.6 -2.7 0 -5.6 0.3 -6.5 0.6 -1.2 0.5 -1.6 0 -1.6 -1.9 0 -8.5 -5.5 -19.7 -9.6 -19.7 -0.8 0 -1.4 -0.4 -1.4 -0.9 0 -0.5 -0.7 -1.1 -1.5 -1.5 -2.4 -0.9 -10.2 7.6 -11.5 12.5 -4.4 16.4 -3.9 41.3 1.1 51 3.5 6.9 11.3 9 16.8 4.3 2.8 -2.3 3.8 -4.7 6.7 -15.2 0.3 -0.9 1.7 -1.1 5.1 -0.8 2.7 0.3 7.9 0.8 11.7 1.2 l6.9 0.6 -0.7 5.4 c-1.3 11.3 -8.5 25.4 -13 25.4 -1.7 0 -1.8 0.2 -0.6 1 1.2 0.7 0.9 1.3 -1.4 3.2 -4.9 4 -8.8 5.8 -11.3 5.2 -1.3 -0.4 -2.3 -0.2 -2.3 0.4 0 0.5 -1.1 0.7 -2.5 0.4 -1.5 -0.2 -2.5 0 -2.5 0.7 0 0.6 -1.9 1.1 -4.5 1.1 -2.5 0 -4.5 -0.4 -4.5 -0.9z"/>
  <path d="M229 532 l0 -58 13 0 13 0 0 43.9 c0 39.1 0.2 44 1.6 44.5 0.9 0.3 9 0.6 18 0.6 l16.4 0 0 13.5 0 13.5 -31 0 -31 0 0 -58z"/>
  <path d="M309 546.4 l0 -43.6 -2.2 -2.4 c-2 -2.1 -3.2 -2.4 -9.5 -2.4 l-7.3 0 0 -12 0 -12 31.5 0 31.5 0 0 12 0 12 -8.5 0 c-8.3 0 -8.6 0.1 -9.5 2.6 -0.6 1.5 -1 20.2 -1 46 l0 43.4 -12.5 0 -12.5 0 0 -43.6z"/>
  <path d="M365 532 l0 -58 13 0 13 0 0 58 0 58 -13 0 -13 0 0 -58z"/>
  <path d="M499 531.9 l0 -58.1 28.3 0.4 c26.9 0.4 28.4 0.5 33.4 2.7 13 5.8 19.7 20.9 17.2 38.6 -1.3 9.1 -3.7 13.8 -10.3 20 l-5.4 5 7.9 24.5 c4.3 13.5 7.9 24.6 7.9 24.8 0 0.1 -6.5 0.2 -14.5 0.2 -8 0 -14.5 -0.2 -14.5 -0.4 0 -2.3 -13.3 -43.2 -14.2 -43.8 -1.9 -1.2 -7.2 -1 -8.6 0.4 -0.9 0.9 -1.2 7.3 -1.2 22.5 l0 21.3 -13 0 -13 0 0 -58.1z m41.8 -10.8 c5.3 -1 9 -4.3 9.8 -8.7 1.3 -6.8 -2 -12.9 -7.7 -14.1 -1.6 -0.3 -2.9 -0.8 -2.9 -1.2 0 -0.3 -3.3 -0.6 -7.3 -0.6 l-7.4 0 -0.2 11 c-0.1 6.1 0.1 11.8 0.4 12.8 0.8 1.9 7.6 2.3 15.3 0.8z"/>
  <path d="M597 532 l0 -58 32 0 32 0 0 11.5 0 11.5 -18.5 0 -18.5 0 -1.1 2.7 c-0.5 1.4 -0.8 6 -0.7 10.2 l0.3 7.6 15.3 0.3 15.2 0.3 0 12.4 0 12.4 -15.2 0.3 -15.3 0.3 -0.3 8 c-0.5 13.6 -2.2 12.5 19.8 12.5 l19 0 0 13 0 13 -32 0 -32 0 0 -58z"/>
  <path d="M690 545.9 c0 -43.2 0 -44.1 -2 -44.6 -1.1 -0.3 -2 -1.2 -2 -1.9 0 -1.1 -1.8 -1.4 -7.5 -1.4 l-7.5 0 0 -12 0 -12 31.5 0 31.5 0 0 8.9 c0 4.9 -0.3 10.3 -0.6 12 l-0.6 3.1 -8.2 0 -8.2 0 -1.2 3.3 c-0.9 2.4 -1.2 15.3 -1.2 46 l0 42.7 -12 0 -12 0 0 -44.1z"/>
  <path d="M745 532 l0 -58 33.5 0 33.5 0 0 11.5 0 11.5 -19.5 0 c-22.9 0 -21.7 -0.7 -21.3 12.3 l0.3 8.2 16.3 0.3 16.2 0.2 0 12.5 0 12.5 -16.2 0.2 -16.3 0.3 0 10 0 10 20.3 0.3 20.2 0.2 0 13 0 13 -33.5 0 -33.5 0 0 -58z"/>
  <path d="M17 585.3 c0 -0.7 0 -106.4 0 -108.5 0 -0.5 5.1 -0.8 11.3 -0.8 11.5 0 17.1 1.3 16.2 3.8 -0.2 0.6 0 1.2 0.5 1.2 0.5 0 0.7 0.6 0.4 1.4 -0.3 0.7 1 3 2.9 5 1.9 2 3.2 3.6 2.8 3.6 -0.3 0 0.1 0.6 0.9 1.3 0.8 0.7 1.6 2.1 1.8 3.2 0.2 1.1 1.6 3.2 3.2 4.7 1.5 1.4 2.6 2.9 2.3 3.2 -0.4 0.3 0.2 0.6 1.3 0.6 1.2 0 1.5 0.3 0.7 0.8 -0.8 0.5 -0.5 1.9 1.1 4.7 3.4 5.9 6 5.5 10.5 -1.7 2 -3.1 7.4 -11.6 12 -18.8 l8.4 -13.1 12.1 0.3 12.1 0.3 0.3 54.8 0.2 54.7 -12 0 -12 0 -0.2 -34.2 c-0.3 -32.9 -0.4 -34.3 -2.2 -34.3 -2.6 0 -6.5 5.3 -4.7 6.4 0.9 0.6 0.6 1 -1.1 1.5 -1.9 0.5 -2 0.8 -0.8 1.6 1.3 0.8 1.3 1 -0.2 1 -2.6 0 -10 10.9 -7.5 11.1 0.7 0 0.1 0.5 -1.3 1 -1.8 0.7 -2.1 1.2 -1.1 1.8 0.9 0.6 0.6 1 -1.1 1.5 -1.9 0.5 -2 0.8 -0.8 1.6 1.3 0.8 1.3 1 -0.2 1 -0.9 0 -2.5 1.4 -3.5 3 -1.8 3.1 -3.3 3.9 -3.3 1.8 0 -0.7 -1.4 -2.9 -3 -4.8 -1.6 -1.9 -3 -3.8 -3 -4.2 0 -1.2 -6.7 -11.3 -8.4 -12.7 -0.9 -0.7 -1.6 -1.9 -1.6 -2.6 0 -1.9 -5.9 -9.5 -7.4 -9.5 -0.8 0 -1.7 0.7 -2 1.6 -0.3 0.9 -0.6 16.4 -0.6 34.5 l0 32.9 -11.5 0 c-6.3 0 -11.5 -0.3 -11.5 -0.7z"/>
 </g>
</svg>