<?xml version="1.0" encoding="UTF-8" standalone="no"?>
<!DOCTYPE svg PUBLIC "-//W3C//DTD SVG 1.1//EN" "http://www.w3.org/Graphics/SVG/1.1/DTD/svg11.dtd">
<svg width="100%" height="100%" viewBox="0 0 1050 600" version="1.1" xmlns="http://www.w3.org/2000/svg" xmlns:xlink="http://www.w3.org/1999/xlink" xml:space="preserve" xmlns:serif="http://www.serif.com/" style="fill-rule:evenodd;clip-rule:evenodd;">
    <g transform="matrix(4.16667,0,0,4.16667,0,0)">
        <g id="Layer-1" serif:id="Layer 1">
            <g transform="matrix(1,0,0,1,40.665,112.361)">
                <path d="M0,-75.822C25.376,-58.399 58.328,-58.398 86.356,-69.382C118.55,-58.777 147.008,-60.164 170.512,-75.542L170.438,0C168.52,-0.039 159.836,-0.039 157.183,-0.07L11.363,-0.07C7.157,-0.037 2.494,-0.037 0,-0.077L0,-75.822Z" style="fill:rgb(237,28,36);fill-rule:nonzero;"/>
            </g>
            <g transform="matrix(1,0,0,1,44.75,75.8975)">
                <path d="M0,-29.25L0,0L7.75,0" style="fill:none;fill-rule:nonzero;stroke:rgb(35,31,32);stroke-width:1.25px;"/>
            </g>
            <g transform="matrix(1,0,0,1,53.5,75.8955)">
                <path d="M0,-6.25L3.25,0L8,0" style="fill:none;fill-rule:nonzero;stroke:rgb(35,31,32);stroke-width:1.25px;"/>
            </g>
            <g transform="matrix(0.561501,-0.827476,-0.827476,-0.561501,63.6876,61.8455)">
                <path d="M-1.855,3.5L6.605,3.5" style="fill:none;fill-rule:nonzero;stroke:rgb(35,31,32);stroke-width:1.25px;"/>
            </g>
            <g transform="matrix(1,0,0,1,77.25,75.8955)">
                <path d="M0,-18L0,-5C0.5,-1.75 2.25,0 4.75,0L20.25,0" style="fill:none;fill-rule:nonzero;stroke:rgb(35,31,32);stroke-width:1.25px;"/>
            </g>
            <g transform="matrix(0,1,1,0,96.625,62.79)">
                <path d="M-4.125,-4.125L4.125,-4.125" style="fill:none;fill-rule:nonzero;stroke:rgb(35,31,32);stroke-width:1.25px;"/>
            </g>
            <g transform="matrix(1,0,0,1,106.75,75.8955)">
                <path d="M0,-20L0,0L7.5,0" style="fill:none;fill-rule:nonzero;stroke:rgb(35,31,32);stroke-width:1.25px;"/>
            </g>
            <g transform="matrix(1,0,0,1,117.75,75.8955)">
                <path d="M0,-5L2.5,0L10.5,0" style="fill:none;fill-rule:nonzero;stroke:rgb(35,31,32);stroke-width:1.25px;"/>
            </g>
            <g transform="matrix(1,0,0,1,118.028,61.6652)">
                <path d="M0,-2.132L2.75,-2.132C4,-2.382 3.443,-1.118 3.722,0.25" style="fill:none;fill-rule:nonzero;stroke:rgb(35,31,32);stroke-width:1.25px;"/>
            </g>
            <g transform="matrix(1,0,0,1,136,75.8135)">
                <path d="M0,-21.5L0,0L8.25,0" style="fill:none;fill-rule:nonzero;stroke:rgb(35,31,32);stroke-width:1.25px;"/>
            </g>
            <g transform="matrix(0.997054,0.0766965,0.0766965,-0.997054,155.764,63.7907)">
                <path d="M-0.005,-0.125L3.255,-0.125" style="fill:none;fill-rule:nonzero;stroke:rgb(35,31,32);stroke-width:1.25px;"/>
            </g>
            <g transform="matrix(1,0,0,1,147.5,71.665)">
                <path d="M0,0L5.5,0" style="fill:none;fill-rule:nonzero;stroke:rgb(35,31,32);stroke-width:1.25px;"/>
            </g>
            <g transform="matrix(1,0,0,1,165.25,75.8135)">
                <path d="M0,-16.75L0,0L7,0" style="fill:none;fill-rule:nonzero;stroke:rgb(35,31,32);stroke-width:1.25px;"/>
            </g>
            <g transform="matrix(1,0,0,1,180.5,75.8975)">
                <path d="M0,-19.75L0,0L6.75,0" style="fill:none;fill-rule:nonzero;stroke:rgb(35,31,32);stroke-width:1.25px;"/>
            </g>
            <g transform="matrix(0,1,1,0,200,53.665)">
                <path d="M-3.75,-3.75L3.75,-3.75" style="fill:none;fill-rule:nonzero;stroke:rgb(35,31,32);stroke-width:1.25px;"/>
            </g>
            <g transform="matrix(1,0,0,1,191.5,75.8955)">
                <path d="M0,-7.5L5.75,0L11.75,0" style="fill:none;fill-rule:nonzero;stroke:rgb(35,31,32);stroke-width:1.25px;"/>
            </g>
            <g transform="matrix(1,0,0,1,65,75.8975)">
                <path d="M0,-7L0,0L6,0" style="fill:none;fill-rule:nonzero;stroke:rgb(35,31,32);stroke-width:1.25px;"/>
            </g>
            <g transform="matrix(1,0,0,1,46.3901,74.0969)">
                <path d="M0,-27.594L0,-0.125L7.582,-0.125L7.582,-7.955L11.186,0L15.909,0L20.508,-7.582L20.508,-0.125L27.593,-0.125L27.593,-18.645C25.604,-18.52 21.129,-19.142 20.011,-19.391L14.915,-11.933L8.7,-24.114C6.09,-23.615 1.119,-26.227 0,-27.594" style="fill:white;fill-rule:nonzero;"/>
            </g>
            <g transform="matrix(1,0,0,1,79.2031,72.4792)">
                <path d="M0,-16.031L0,-2.609C0,0.001 1.86,1.492 3.853,1.492L18.644,1.492C21.129,1.492 22.124,-1.242 22.124,-3.603L22.124,-17.523C20.259,-16.281 16.53,-16.281 15.039,-16.033L15.039,-8.202C15.039,-7.084 14.417,-5.841 11.435,-5.841C8.573,-5.841 8.203,-6.711 8.203,-8.078L8.203,-16.279L0,-16.031Z" style="fill:white;fill-rule:nonzero;"/>
            </g>
            <g transform="matrix(1,0,0,1,137.867,74.0957)">
                <path d="M0,-22.248L0,0L8.079,0L8.079,-4.351L16.53,-4.351L16.53,-10.44L8.079,-10.44L8.079,-13.299C12.429,-12.181 18.395,-11.808 22.496,-12.181L22.496,-18.892C17.649,-18.022 3.48,-21.378 0,-22.248" style="fill:white;fill-rule:nonzero;"/>
            </g>
            <g transform="matrix(0,1,1,0,179.815,60.4862)">
                <path d="M-4.91,-12.616L13.734,-12.616L13.734,-4.91L-6.028,-4.91C-5.034,-7.519 -4.661,-10.876 -4.91,-12.616" style="fill:white;fill-rule:nonzero;"/>
            </g>
            <g transform="matrix(1,0,0,1,182.484,67.0109)">
                <path d="M0,-13.797L0,7.209L7.209,7.209L7.209,-3.977L15.661,7.085L22.621,7.085L22.621,-21.006C21.254,-19.514 16.406,-18.768 15.412,-18.768L15.412,-8.949L9.197,-15.412C7.457,-14.542 2.486,-13.548 0,-13.797" style="fill:white;fill-rule:nonzero;"/>
            </g>
            <g transform="matrix(1,0,0,1,121.472,60.7919)">
                <path d="M0,1.005L-5.355,1.005L-5.355,-2.605C-5.355,-2.605 -3.364,-3.226 -0.756,-3.973C3.279,-5.127 2.351,0.875 0,1.005M10.182,-3.724C10.182,-6.21 7.447,-10.808 4.216,-11.803C2.667,-12.279 1.73,-12.3 0.238,-11.803C-1.253,-11.306 -9.954,-7.826 -12.813,-7.453L-12.813,13.305L-5.23,13.305L-5.23,6.468L-2.869,6.468L0.114,13.305L9.312,13.305L5.583,5.971C9.809,3.236 10.182,-1.238 10.182,-3.724" style="fill:white;fill-rule:nonzero;"/>
            </g>
            <g transform="matrix(1,0,0,1,76.3467,100.667)">
                <path d="M0,5.056L-1.902,0L0.417,0L1.38,3.531L2.41,0L4.188,0L5.23,3.531L6.136,0L8.463,0L6.553,5.056L4.211,5.056L3.271,1.788L2.316,5.056L0,5.056Z" style="fill:white;fill-rule:nonzero;"/>
            </g>
            <g transform="matrix(1,0,0,1,0,62.39)">
                <rect x="85.341" y="38.277" width="2.155" height="5.056" style="fill:white;"/>
            </g>
            <g transform="matrix(1,0,0,1,93.7275,103.599)">
                <path d="M0,-0.81C-0.035,-1.122 -0.157,-1.36 -0.365,-1.524C-0.573,-1.688 -0.857,-1.77 -1.218,-1.77C-1.68,-1.77 -2.032,-1.653 -2.277,-1.417C-2.521,-1.183 -2.644,-0.845 -2.644,-0.403C-2.644,0.038 -2.521,0.374 -2.277,0.606C-2.032,0.838 -1.68,0.954 -1.218,0.954C-0.885,0.954 -0.616,0.885 -0.412,0.748C-0.208,0.61 -0.073,0.405 -0.008,0.133L2.478,0.133C2.365,0.834 1.996,1.362 1.37,1.719C0.745,2.078 -0.118,2.256 -1.218,2.256C-2.454,2.256 -3.387,2.033 -4.016,1.585C-4.645,1.137 -4.959,0.475 -4.959,-0.403C-4.959,-1.283 -4.645,-1.946 -4.016,-2.394C-3.387,-2.841 -2.454,-3.066 -1.218,-3.066C-0.065,-3.066 0.827,-2.871 1.458,-2.483C2.09,-2.094 2.425,-1.537 2.462,-0.81L0,-0.81Z" style="fill:white;fill-rule:nonzero;"/>
            </g>
            <g transform="matrix(1,0,0,1,97.3901,100.667)">
                <path d="M0,5.056L0,0L2.155,0L2.155,1.75L4.613,1.75L4.613,0L6.768,0L6.768,5.056L4.613,5.056L4.613,3.011L2.155,3.011L2.155,5.056L0,5.056Z" style="fill:white;fill-rule:nonzero;"/>
            </g>
            <g transform="matrix(1,0,0,1,0,62.39)">
                <rect x="105.761" y="38.277" width="2.155" height="5.056" style="fill:white;"/>
            </g>
            <g transform="matrix(1,0,0,1,110.928,100.667)">
                <path d="M0,5.056L0,1.283L-2.011,1.283L-2.011,0L4.173,0L4.173,1.283L2.154,1.283L2.154,5.056L0,5.056Z" style="fill:white;fill-rule:nonzero;"/>
            </g>
            <g transform="matrix(1,0,0,1,117.844,102.41)">
                <path d="M0,1.568L1.38,1.568L0.71,-0.209L0,1.568ZM-3.015,3.312L-0.605,-1.744L2.128,-1.744L4.376,3.312L2.042,3.312L1.857,2.816L-0.507,2.816L-0.707,3.312L-3.015,3.312Z" style="fill:white;fill-rule:nonzero;"/>
            </g>
            <g transform="matrix(1,0,0,1,123.219,105.196)">
                <path d="M0,0.527L0,-1.09L2.019,-1.09L2.019,-0.02C2.019,0.273 1.983,0.498 1.914,0.651C1.844,0.805 1.725,0.941 1.557,1.06C1.396,1.173 1.208,1.277 0.992,1.371C0.776,1.465 0.531,1.547 0.256,1.617L0.086,0.974C0.26,0.922 0.385,0.861 0.462,0.792C0.54,0.722 0.58,0.633 0.583,0.527L0,0.527Z" style="fill:white;fill-rule:nonzero;"/>
            </g>
            <g transform="matrix(1,0,0,1,131.128,100.667)">
                <path d="M0,5.056L0,0L2.154,0L2.154,1.75L4.136,0L7.046,0L4.726,1.829L7.274,5.056L4.594,5.056L3.094,3.005L2.154,3.699L2.154,5.056L0,5.056Z" style="fill:white;fill-rule:nonzero;"/>
            </g>
            <g transform="matrix(1,0,0,1,141.221,102.41)">
                <path d="M0,1.568L1.379,1.568L0.71,-0.209L0,1.568ZM-3.016,3.312L-0.605,-1.744L2.128,-1.744L4.376,3.312L2.041,3.312L1.856,2.816L-0.508,2.816L-0.707,3.312L-3.016,3.312Z" style="fill:white;fill-rule:nonzero;"/>
            </g>
            <g transform="matrix(1,0,0,1,146.366,100.667)">
                <path d="M0,5.056L0,0L2.549,0L4.696,2.912L4.696,0L6.782,0L6.782,5.056L4.365,5.056L2.03,2.095L2.03,5.056L0,5.056Z" style="fill:white;fill-rule:nonzero;"/>
            </g>
            <g transform="matrix(1,0,0,1,154.406,102.226)">
                <path d="M0,1.958L2.608,1.955C2.629,2.092 2.723,2.197 2.891,2.271C3.059,2.345 3.288,2.382 3.579,2.382C3.869,2.382 4.087,2.353 4.231,2.292C4.375,2.231 4.447,2.141 4.447,2.021C4.447,1.913 4.385,1.827 4.26,1.762C4.134,1.697 3.941,1.649 3.681,1.62L2.071,1.438C1.404,1.366 0.902,1.203 0.565,0.95C0.229,0.697 0.06,0.358 0.06,-0.065C0.06,-0.63 0.314,-1.042 0.825,-1.302C1.335,-1.562 2.147,-1.692 3.263,-1.692C4.421,-1.692 5.282,-1.562 5.846,-1.302C6.41,-1.042 6.715,-0.638 6.76,-0.089L4.256,-0.089C4.228,-0.249 4.123,-0.368 3.939,-0.449C3.757,-0.53 3.5,-0.571 3.169,-0.571C2.929,-0.571 2.739,-0.54 2.602,-0.48C2.464,-0.42 2.395,-0.339 2.395,-0.235C2.395,-0.14 2.447,-0.067 2.555,-0.017C2.661,0.033 2.882,0.079 3.218,0.123L5.181,0.376C5.795,0.456 6.253,0.618 6.557,0.863C6.859,1.108 7.012,1.438 7.012,1.853C7.012,2.472 6.708,2.927 6.102,3.216C5.495,3.506 4.539,3.65 3.233,3.65C2.195,3.65 1.398,3.505 0.844,3.213C0.288,2.921 0.007,2.503 0,1.958" style="fill:white;fill-rule:nonzero;"/>
            </g>
            <g transform="matrix(1,0,0,1,164.859,102.41)">
                <path d="M0,1.568L1.379,1.568L0.71,-0.209L0,1.568ZM-3.016,3.312L-0.605,-1.744L2.128,-1.744L4.376,3.312L2.041,3.312L1.856,2.816L-0.508,2.816L-0.707,3.312L-3.016,3.312Z" style="fill:white;fill-rule:nonzero;"/>
            </g>
            <g transform="matrix(1,0,0,1,169.666,102.226)">
                <path d="M0,1.958L2.608,1.955C2.629,2.092 2.723,2.197 2.891,2.271C3.059,2.345 3.288,2.382 3.579,2.382C3.869,2.382 4.087,2.353 4.231,2.292C4.375,2.231 4.447,2.141 4.447,2.021C4.447,1.913 4.385,1.827 4.26,1.762C4.134,1.697 3.941,1.649 3.681,1.62L2.071,1.438C1.404,1.366 0.902,1.203 0.565,0.95C0.229,0.697 0.06,0.358 0.06,-0.065C0.06,-0.63 0.314,-1.042 0.825,-1.302C1.335,-1.562 2.147,-1.692 3.263,-1.692C4.421,-1.692 5.282,-1.562 5.846,-1.302C6.41,-1.042 6.715,-0.638 6.76,-0.089L4.256,-0.089C4.228,-0.249 4.123,-0.368 3.939,-0.449C3.757,-0.53 3.5,-0.571 3.169,-0.571C2.929,-0.571 2.739,-0.54 2.602,-0.48C2.464,-0.42 2.395,-0.339 2.395,-0.235C2.395,-0.14 2.447,-0.067 2.555,-0.017C2.661,0.033 2.882,0.079 3.218,0.123L5.181,0.376C5.795,0.456 6.253,0.618 6.557,0.863C6.859,1.108 7.012,1.438 7.012,1.853C7.012,2.472 6.708,2.927 6.102,3.216C5.495,3.506 4.539,3.65 3.233,3.65C2.195,3.65 1.398,3.505 0.844,3.213C0.288,2.921 0.007,2.503 0,1.958" style="fill:white;fill-rule:nonzero;"/>
            </g>
            <g transform="matrix(1,0,0,1,36.3984,116.756)">
                <path d="M0,-87.924C26.645,-68.41 61.244,-66.622 90.674,-78.924C124.478,-67.046 154.358,-70.368 179.037,-87.591L178.96,-0.037C177.742,-0.023 165.709,0 165.048,0L11.938,-0.016C10.596,-0.014 1.375,-0.048 0,-0.029L0,-87.924Z" style="fill:none;fill-rule:nonzero;stroke:rgb(35,31,32);stroke-width:2.5px;"/>
            </g>
            <g transform="matrix(1,0,0,1,0,33.154)">
                <rect x="100.117" y="48.924" width="5.54" height="12.998" style="fill:rgb(35,31,32);"/>
            </g>
            <g transform="matrix(1,0,0,1,113.7,82.0782)">
                <path d="M0,12.998L0,0L6.555,0L12.075,7.488L12.075,0L17.441,0L17.441,12.998L11.225,12.998L5.221,5.387L5.221,12.998L0,12.998Z" style="fill:rgb(35,31,32);fill-rule:nonzero;"/>
            </g>
            <g transform="matrix(1,0,0,1,149.164,89.6192)">
                <path d="M0,-2.084C-0.091,-2.887 -0.403,-3.498 -0.938,-3.92C-1.474,-4.342 -2.205,-4.553 -3.133,-4.553C-4.319,-4.553 -5.226,-4.252 -5.854,-3.648C-6.482,-3.045 -6.797,-2.174 -6.797,-1.037C-6.797,0.094 -6.482,0.957 -5.854,1.555C-5.226,2.152 -4.319,2.451 -3.133,2.451C-2.275,2.451 -1.585,2.274 -1.06,1.92C-0.534,1.565 -0.188,1.039 -0.02,0.342L6.371,0.342C6.081,2.141 5.132,3.5 3.523,4.42C1.915,5.34 -0.304,5.801 -3.133,5.801C-6.311,5.801 -8.708,5.225 -10.326,4.073C-11.943,2.922 -12.753,1.219 -12.753,-1.037C-12.753,-3.299 -11.943,-5.006 -10.326,-6.157C-8.708,-7.309 -6.311,-7.885 -3.133,-7.885C-0.168,-7.885 2.127,-7.385 3.751,-6.386C5.375,-5.387 6.235,-3.953 6.332,-2.084L0,-2.084Z" style="fill:rgb(35,31,32);fill-rule:nonzero;"/>
            </g>
        </g>
    </g>
</svg>
