<?xml version="1.0" encoding="UTF-8" standalone="no"?>
<!DOCTYPE svg PUBLIC "-//W3C//DTD SVG 1.1//EN" "http://www.w3.org/Graphics/SVG/1.1/DTD/svg11.dtd">
<svg xmlns="http://www.w3.org/2000/svg" version="1.1" viewBox="0.00 0.00 200.00 166.00">
<path stroke="#7fbbe0" stroke-width="2.00" fill="none" stroke-linecap="butt" vector-effect="non-scaling-stroke" d="
  M 52.16 20.32
  Q 90.88 20.43 139.60 20.32
  C 154.70 20.29 167.19 29.56 169.88 44.50
  Q 170.39 47.38 170.38 59.59
  Q 170.37 61.00 170.38 74.68
  Q 170.38 85.30 168.90 89.76
  Q 165.56 99.83 155.68 105.69
  Q 149.06 109.63 139.50 109.63
  Q 59.92 109.61 54.29 109.65
  A 0.58 0.58 0.0 0 0 53.72 110.23
  L 53.72 154.53
  Q 53.72 155.16 54.30 155.41
  C 91.68 171.42 137.80 166.36 169.05 140.08
  C 194.37 118.79 204.91 84.58 190.34 53.95
  C 173.25 18.01 132.41 0.34 93.33 2.28
  C 63.17 3.77 33.53 16.82 15.59 41.33
  C -5.19 69.70 -2.38 106.01 20.98 131.90
  Q 22.11 133.15 22.11 131.46
  Q 22.09 127.55 22.08 109.84
  Q 22.07 102.92 22.94 99.72
  C 26.63 86.00 38.81 77.85 52.75 77.87
  Q 127.57 77.99 138.07 77.96
  A 0.51 0.51 0.0 0 0 138.58 77.45
  L 138.58 52.56
  A 0.51 0.51 0.0 0 0 138.07 52.05
  L 52.25 52.05
  A 0.56 0.56 0.0 0 1 51.69 51.49
  L 51.69 20.78
  A 0.47 0.46 0.0 0 1 52.16 20.32"
/>
<path fill="#fefefe" d="
  M 200.00 0.00
  L 200.00 166.00
  L 0.00 166.00
  L 0.00 0.00
  L 200.00 0.00
  Z
  M 52.16 20.32
  Q 90.88 20.43 139.60 20.32
  C 154.70 20.29 167.19 29.56 169.88 44.50
  Q 170.39 47.38 170.38 59.59
  Q 170.37 61.00 170.38 74.68
  Q 170.38 85.30 168.90 89.76
  Q 165.56 99.83 155.68 105.69
  Q 149.06 109.63 139.50 109.63
  Q 59.92 109.61 54.29 109.65
  A 0.58 0.58 0.0 0 0 53.72 110.23
  L 53.72 154.53
  Q 53.72 155.16 54.30 155.41
  C 91.68 171.42 137.80 166.36 169.05 140.08
  C 194.37 118.79 204.91 84.58 190.34 53.95
  C 173.25 18.01 132.41 0.34 93.33 2.28
  C 63.17 3.77 33.53 16.82 15.59 41.33
  C -5.19 69.70 -2.38 106.01 20.98 131.90
  Q 22.11 133.15 22.11 131.46
  Q 22.09 127.55 22.08 109.84
  Q 22.07 102.92 22.94 99.72
  C 26.63 86.00 38.81 77.85 52.75 77.87
  Q 127.57 77.99 138.07 77.96
  A 0.51 0.51 0.0 0 0 138.58 77.45
  L 138.58 52.56
  A 0.51 0.51 0.0 0 0 138.07 52.05
  L 52.25 52.05
  A 0.56 0.56 0.0 0 1 51.69 51.49
  L 51.69 20.78
  A 0.47 0.46 0.0 0 1 52.16 20.32
  Z"
/>
<path fill="#0078c1" d="
  M 52.16 20.32
  A 0.47 0.46 0.0 0 0 51.69 20.78
  L 51.69 51.49
  A 0.56 0.56 0.0 0 0 52.25 52.05
  L 138.07 52.05
  A 0.51 0.51 0.0 0 1 138.58 52.56
  L 138.58 77.45
  A 0.51 0.51 0.0 0 1 138.07 77.96
  Q 127.57 77.99 52.75 77.87
  C 38.81 77.85 26.63 86.00 22.94 99.72
  Q 22.07 102.92 22.08 109.84
  Q 22.09 127.55 22.11 131.46
  Q 22.11 133.15 20.98 131.90
  C -2.38 106.01 -5.19 69.70 15.59 41.33
  C 33.53 16.82 63.17 3.77 93.33 2.28
  C 132.41 0.34 173.25 18.01 190.34 53.95
  C 204.91 84.58 194.37 118.79 169.05 140.08
  C 137.80 166.36 91.68 171.42 54.30 155.41
  Q 53.72 155.16 53.72 154.53
  L 53.72 110.23
  A 0.58 0.58 0.0 0 1 54.29 109.65
  Q 59.92 109.61 139.50 109.63
  Q 149.06 109.63 155.68 105.69
  Q 165.56 99.83 168.90 89.76
  Q 170.38 85.30 170.38 74.68
  Q 170.37 61.00 170.38 59.59
  Q 170.39 47.38 169.88 44.50
  C 167.19 29.56 154.70 20.29 139.60 20.32
  Q 90.88 20.43 52.16 20.32
  Z"
/>
</svg>
