<?xml version="1.0" encoding="UTF-8"?>
<!-- Generated by Pixelmator Pro 3.7.1 -->
<svg width="344" height="279" viewBox="0 0 344 279" xmlns="http://www.w3.org/2000/svg">
    <g id="Group">
        <g id="g1">
            <path id="Path" fill="none" stroke="#9daab8" stroke-width="3.227371" d="M 247.028564 237.132629 C 245.29656 238.606445 242.913691 239.316467 239.879959 239.262695 C 230.832586 239.122843 209.865443 239.079803 176.978531 239.133575 C 176.515015 239.133575 176.139374 239.509277 176.139374 239.972717 L 176.139374 244.813782 C 176.139374 245.517853 176.710129 246.088562 177.414154 246.088562 C 211.505951 246.292959 233.39829 246.201523 243.091171 245.814255 C 248.29803 245.599085 251.692149 242.570735 253.273529 236.729202"/>
            <path id="path1" fill="none" stroke="#9daab8" stroke-width="3.227371" d="M 253.886734 170.132416 C 254.101903 138.245972 254.010473 106.499385 253.612442 74.892654 C 253.504888 65.97438 249.104909 61.450699 240.412506 61.321609 C 228.019379 61.138707 185.240573 61.138707 112.076088 61.321609 C 104.513283 61.343114 99.575391 61.988576 97.262413 63.257996 C 92.980792 65.603241 90.839981 69.917155 90.839981 76.199738 C 90.807709 162.295237 90.73778 213.454458 90.630196 229.677399 C 90.581787 236.1483 94.228676 245.798096 102.119629 245.830414 C 110.811996 245.862681 117.013926 245.99177 120.725418 246.217682 C 120.975883 246.235596 121.222504 246.146713 121.406143 245.972229 C 121.589828 245.79776 121.693985 245.553452 121.693642 245.297867 L 121.693642 239.892014 C 121.693642 239.473175 121.354088 239.133575 120.935204 239.133575 C 117.094627 239.176615 113.668238 239.219655 110.656036 239.262695 C 103.346039 239.359512 96.584694 240.021133 96.536285 231.791321 C 96.374924 204.111226 96.326515 152.822917 96.39106 77.926392 C 96.39106 67.050171 100.909363 67.501999 110.284874 67.550415 C 148.012845 67.733276 191.679174 67.776316 241.283859 67.679535 C 246.04425 67.663376 248.480927 72.811035 248.497086 76.925919 C 248.615402 107.736567 248.636902 138.708567 248.561584 169.841919"/>
            <path id="path2" fill="none" stroke="#2f4a69" stroke-width="3.227371" d="M 253.886734 170.132416 C 252.262283 169.637522 250.487233 169.54069 248.561584 169.841919"/>
            <path id="path3" fill="none" stroke="#2f4a69" stroke-width="3.227371" d="M 253.273529 236.729202 C 251.466207 237.718938 249.384552 237.853414 247.028564 237.132629"/>
            <path id="path4" fill="none" stroke="#9daab8" stroke-width="3.227371" d="M 185.079163 105.681808 L 185.079163 116.751663 C 185.078171 117.632126 184.610825 118.443848 183.852844 118.881744 C 181.937907 119.968302 180.06601 121.581985 178.237152 123.722794 C 177.692688 124.370819 176.895203 124.757843 176.042557 124.787842 C 171.093948 124.981476 164.703751 124.976089 156.871964 124.771683 C 146.786438 124.513489 141.364471 134.582916 141.364471 143.522705 C 141.364471 149.622457 141.337565 152.726125 141.283752 152.83371 C 141.076584 153.225708 141.090714 153.697174 141.321091 154.078979 C 141.551453 154.460724 141.965027 154.697998 142.413361 154.705582 L 154.306259 154.915314 C 154.863815 154.923981 155.401581 154.706818 155.798996 154.312454 C 156.196411 153.918091 156.420181 153.379547 156.420181 152.817551 L 156.420181 144.862091 C 156.420181 142.865768 158.038498 141.247406 160.034821 141.247406 L 176.413681 141.247406 C 177.063721 141.246765 177.684906 141.502243 178.140335 141.957428 C 185.660156 149.52562 194.696762 151.784821 202.377914 143.135437 C 202.694275 142.76683 203.159836 142.554688 203.652695 142.554535 L 218.708405 142.554535 C 219.457047 142.554535 220.06395 141.954865 220.06395 141.215149 L 220.06395 124.416672 C 220.06395 123.641342 219.435379 123.012772 218.659958 123.012772 L 204.185242 123.012772 C 203.670624 123.012436 203.169296 122.854691 202.749039 122.560944 C 200.90948 121.237712 199.381877 119.736979 198.166229 118.058746 C 197.62088 117.314453 197.326981 116.41571 197.327072 115.492996 L 197.327072 105.891586 C 197.32402 105.269028 197.647369 104.690338 198.179123 104.366653 C 198.710983 104.042908 199.373535 104.02153 199.925079 104.310165 C 201.710927 105.246099 203.819504 106.074463 206.250809 106.795258 C 211.350006 108.295975 215.900604 104.85881 215.400375 99.501358 C 214.883947 93.885768 212.006185 91.427587 206.76709 92.126816 C 204.072266 92.481873 202.394073 93.966431 200.393112 95.273514 C 200.01796 95.520142 199.557617 95.600998 199.120895 95.497192 C 198.684097 95.393326 198.309525 95.113907 198.085464 94.724869 L 196.794525 92.481873 C 196.642456 92.230957 196.373093 92.077957 196.084503 92.078445 L 186.547668 92.078445 C 185.906387 92.078751 185.35434 92.523132 185.224426 93.143433 C 184.998494 94.197723 184.595078 94.940023 184.014175 95.370331 C 183.485168 95.760651 182.774551 95.798767 182.206848 95.467148 C 179.802475 94.047104 178.027359 92.707764 175.348679 92.272079 C 170.9272 91.562057 168.081746 93.299449 166.812317 97.484253 C 164.730606 104.358566 170.636749 108.570267 176.542801 106.424088 C 179.156957 105.477392 181.34081 104.740479 183.09436 104.213348 C 183.560028 104.069702 184.066269 104.156021 184.457977 104.445831 C 184.84967 104.735703 185.080338 105.194473 185.079163 105.681808"/>
            <path id="path5" fill="none" stroke="#9daab8" stroke-width="3.227371" d="M 235.474625 149.735397 L 235.732773 114.976654 C 235.732773 114.718155 235.523285 114.508621 235.264832 114.508621 L 229.681458 114.460266 C 227.784897 114.446518 225.961029 115.13768 224.611206 116.381531 C 223.261383 117.625488 222.496292 119.320129 222.484482 121.092484 L 222.323044 143.425888 C 222.298126 147.114349 225.476456 150.126556 229.423309 150.154984 L 235.006592 150.203384 C 235.265137 150.203384 235.474625 149.993851 235.474625 149.735397"/>
            <path id="path6" fill="none" stroke="#9daab8" stroke-width="3.227371" d="M 159.19371 158.992188 C 159.19873 158.585556 159.042023 158.193665 158.75798 157.902664 C 158.47403 157.611633 158.086075 157.445374 157.679504 157.440445 L 140.640213 157.232285 C 139.793671 157.221954 139.09906 157.899872 139.088669 158.746399 L 138.962021 169.105438 C 138.956985 169.512024 139.113739 169.903961 139.397736 170.194946 C 139.681747 170.485947 140.069702 170.652252 140.476273 170.657166 L 157.515503 170.865341 C 158.362045 170.875641 159.056702 170.197754 159.067047 169.351227 L 159.19371 158.992188"/>
            <path id="path7" fill="none" stroke="#9daab8" stroke-width="3.227371" d="M 148.868103 277.619995 C 164.004425 277.636139 172.8797 261.983368 172.508575 248.831848 C 172.336487 242.785909 171.432831 237.014282 169.797607 231.516968 C 166.231323 219.527313 161.922806 207.0858 156.032822 195.725433 C 152.891525 189.690277 150.702301 185.295685 149.465149 182.541656 C 149.446152 182.497986 149.417587 182.463699 149.384491 182.444839 C 149.244629 182.369532 149.09402 182.331879 148.932663 182.331879 C 148.782038 182.331879 148.636795 182.369532 148.496933 182.444839 C 148.463837 182.463745 148.435272 182.498016 148.416275 182.541656 C 147.16835 185.295685 144.968358 189.684896 141.816299 195.70929 C 135.910202 207.069641 131.585541 219.495056 128.003159 231.484726 C 126.357198 236.98203 125.448153 242.753652 125.276024 248.799591 C 124.872604 261.951111 133.73172 277.603821 148.868103 277.619995"/>
            <path id="path8" fill="none" stroke="#9daab8" stroke-width="3.227371" d="M 191.195084 123.577576 C 193.239049 123.620616 195.535843 124.266078 198.085464 125.513962 C 198.239014 125.580353 198.417969 125.530518 198.515182 125.394455 C 198.612396 125.258377 198.601456 125.072922 198.488876 124.949219 C 196.111425 122.582469 193.701665 121.372203 191.259598 121.31842 C 188.81753 121.253876 186.348612 122.340418 183.852844 124.578049 C 183.717117 124.691559 183.685699 124.887558 183.779068 125.037766 C 183.872437 125.187958 184.062134 125.246521 184.223953 125.17511 C 186.83812 124.056274 189.16183 123.523763 191.195084 123.577576"/>
            <path id="path9" fill="none" stroke="#9daab8" stroke-width="3.227371" d="M 143.154846 161.37558 C 143.155792 161.200119 143.08699 161.031448 142.963577 160.906708 C 142.840164 160.781967 142.672241 160.711349 142.49678 160.710419 L 141.754501 160.706528 C 141.578979 160.705597 141.410324 160.774445 141.285583 160.897842 C 141.160797 161.021301 141.090225 161.189285 141.08934 161.364746 L 141.058655 167.238434 C 141.057724 167.413895 141.126511 167.582565 141.249924 167.707306 C 141.373337 167.832047 141.54126 167.902618 141.716721 167.903595 L 142.459015 167.90744 C 142.634521 167.908386 142.803192 167.839569 142.927979 167.716125 C 143.052719 167.592651 143.123291 167.424744 143.124176 167.249222 L 143.154846 161.37558"/>
            <path id="path10" fill="none" stroke="#9daab8" stroke-width="3.227371" d="M 132.408493 255.076797 C 133.656408 265.447433 139.594772 270.648885 150.223587 270.681152 C 150.633362 270.679779 150.975082 270.377563 151.027481 269.970062 C 151.079971 269.5625 150.827438 269.172028 150.43338 269.051331 C 145.527771 267.706584 141.208471 265.243032 137.475479 261.660675 C 137.197495 261.404053 136.957855 261.09906 136.765457 260.756989 L 133.312149 254.770187 C 133.199722 254.562958 132.954376 254.466843 132.731094 254.542633 C 132.507813 254.618362 132.371597 254.843964 132.408493 255.076797"/>
        </g>
        <path id="path11" fill="#3b5471" stroke="none" d="M 253.886734 170.132416 C 252.262283 169.637522 250.487233 169.54069 248.561584 169.841919 C 248.636902 138.708567 248.615402 107.736567 248.497086 76.925919 C 248.480927 72.811035 246.04425 67.663376 241.283859 67.679535 C 191.679174 67.776316 148.012845 67.733276 110.284874 67.550415 C 100.909363 67.501999 96.39106 67.050171 96.39106 77.926392 C 96.326515 152.822917 96.374924 204.111226 96.536285 231.791321 C 96.584694 240.021133 103.346039 239.359512 110.656036 239.262695 C 113.668238 239.219655 117.094627 239.176615 120.935204 239.133575 C 121.354088 239.133575 121.693642 239.473175 121.693642 239.892014 L 121.693642 245.297867 C 121.693985 245.553452 121.589828 245.79776 121.406143 245.972229 C 121.222504 246.146713 120.975883 246.235596 120.725418 246.217682 C 117.013926 245.99177 110.811996 245.862681 102.119629 245.830414 C 94.228676 245.798096 90.581787 236.1483 90.630196 229.677399 C 90.73778 213.454458 90.807709 162.295237 90.839981 76.199738 C 90.839981 69.917155 92.980792 65.603241 97.262413 63.257996 C 99.575391 61.988576 104.513283 61.343114 112.076088 61.321609 C 185.240573 61.138707 228.019379 61.138707 240.412506 61.321609 C 249.104909 61.450699 253.504888 65.97438 253.612442 74.892654 C 254.010473 106.499385 254.101903 138.245972 253.886734 170.132416 Z"/>
        <path id="path12" fill="#3b5471" stroke="none" d="M 185.079163 105.681808 C 185.080338 105.194473 184.84967 104.735703 184.457977 104.445831 C 184.066269 104.156021 183.560028 104.069702 183.09436 104.213348 C 181.34081 104.740479 179.156957 105.477392 176.542801 106.424088 C 170.636749 108.570267 164.730606 104.358566 166.812317 97.484253 C 168.081746 93.299449 170.9272 91.562057 175.348679 92.272079 C 178.027359 92.707764 179.802475 94.047104 182.206848 95.467148 C 182.774551 95.798767 183.485168 95.760651 184.014175 95.370331 C 184.595078 94.940023 184.998494 94.197723 185.224426 93.143433 C 185.35434 92.523132 185.906387 92.078751 186.547668 92.078445 L 196.084503 92.078445 C 196.373093 92.077957 196.642456 92.230957 196.794525 92.481873 L 198.085464 94.724869 C 198.309525 95.113907 198.684097 95.393326 199.120895 95.497192 C 199.557617 95.600998 200.01796 95.520142 200.393112 95.273514 C 202.394073 93.966431 204.072266 92.481873 206.76709 92.126816 C 212.006185 91.427587 214.883947 93.885768 215.400375 99.501358 C 215.900604 104.85881 211.350006 108.295975 206.250809 106.795258 C 203.819504 106.074463 201.710927 105.246099 199.925079 104.310165 C 199.373535 104.02153 198.710983 104.042908 198.179123 104.366653 C 197.647369 104.690338 197.32402 105.269028 197.327072 105.891586 L 197.327072 115.492996 C 197.326981 116.41571 197.62088 117.314453 198.166229 118.058746 C 199.381877 119.736979 200.90948 121.237712 202.749039 122.560944 C 203.169296 122.854691 203.670624 123.012436 204.185242 123.012772 L 218.659958 123.012772 C 219.435379 123.012772 220.06395 123.641342 220.06395 124.416672 L 220.06395 141.215149 C 220.06395 141.954865 219.457047 142.554535 218.708405 142.554535 L 203.652695 142.554535 C 203.159836 142.554688 202.694275 142.76683 202.377914 143.135437 C 194.696762 151.784821 185.660156 149.52562 178.140335 141.957428 C 177.684906 141.502243 177.063721 141.246765 176.413681 141.247406 L 160.034821 141.247406 C 158.038498 141.247406 156.420181 142.865768 156.420181 144.862091 L 156.420181 152.817551 C 156.420181 153.379547 156.196411 153.918091 155.798996 154.312454 C 155.401581 154.706818 154.863815 154.923981 154.306259 154.915314 L 142.413361 154.705582 C 141.965027 154.697998 141.551453 154.460724 141.321091 154.078979 C 141.090714 153.697174 141.076584 153.225708 141.283752 152.83371 C 141.337565 152.726125 141.364471 149.622457 141.364471 143.522705 C 141.364471 134.582916 146.786438 124.513489 156.871964 124.771683 C 164.703751 124.976089 171.093948 124.981476 176.042557 124.787842 C 176.895203 124.757843 177.692688 124.370819 178.237152 123.722794 C 180.06601 121.581985 181.937907 119.968302 183.852844 118.881744 C 184.610825 118.443848 185.078171 117.632126 185.079163 116.751663 L 185.079163 105.681808 Z M 191.195084 123.577576 C 193.239049 123.620616 195.535843 124.266078 198.085464 125.513962 C 198.239014 125.580353 198.417969 125.530518 198.515182 125.394455 C 198.612396 125.258377 198.601456 125.072922 198.488876 124.949219 C 196.111425 122.582469 193.701665 121.372203 191.259598 121.31842 C 188.81753 121.253876 186.348612 122.340418 183.852844 124.578049 C 183.717117 124.691559 183.685699 124.887558 183.779068 125.037766 C 183.872437 125.187958 184.062134 125.246521 184.223953 125.17511 C 186.83812 124.056274 189.16183 123.523763 191.195084 123.577576 Z"/>
        <path id="path13" fill="#3b5471" stroke="none" d="M 235.474625 149.735397 C 235.474625 149.993851 235.265137 150.203384 235.006592 150.203384 L 229.423309 150.154984 C 225.476456 150.126556 222.298126 147.114349 222.323044 143.425888 L 222.484482 121.092484 C 222.496292 119.320129 223.261383 117.625488 224.611206 116.381531 C 225.961029 115.13768 227.784897 114.446518 229.681458 114.460266 L 235.264832 114.508621 C 235.523285 114.508621 235.732773 114.718155 235.732773 114.976654 L 235.474625 149.735397 Z"/>
        <path id="path14" fill="#ffffff" stroke="none" d="M 191.259598 121.31842 C 193.701665 121.372203 196.111425 122.582469 198.488876 124.949219 C 198.601456 125.072922 198.612396 125.258377 198.515182 125.394455 C 198.417969 125.530518 198.239014 125.580353 198.085464 125.513962 C 195.535843 124.266078 193.239049 123.620616 191.195084 123.577576 C 189.16183 123.523763 186.83812 124.056274 184.223953 125.17511 C 184.062134 125.246521 183.872437 125.187958 183.779068 125.037766 C 183.685699 124.887558 183.717117 124.691559 183.852844 124.578049 C 186.348612 122.340418 188.81753 121.253876 191.259598 121.31842 Z"/>
        <path id="path15" fill="#3b5471" stroke="none" d="M 159.067047 169.351227 C 159.056702 170.197754 158.362045 170.875641 157.515503 170.865341 L 140.476273 170.657166 C 140.069702 170.652252 139.681747 170.485947 139.397736 170.194946 C 139.113739 169.903961 138.956985 169.512024 138.962021 169.105438 L 139.088669 158.746399 C 139.09906 157.899872 139.793671 157.221954 140.640213 157.232285 L 157.679504 157.440445 C 158.086075 157.445374 158.47403 157.611633 158.75798 157.902664 C 159.042023 158.193665 159.19873 158.585556 159.19371 158.992188 L 159.067047 169.351227 Z M 143.154846 161.37558 C 143.155792 161.200119 143.08699 161.031448 142.963577 160.906708 C 142.840164 160.781967 142.672241 160.711349 142.49678 160.710419 L 141.754501 160.706528 C 141.578979 160.705597 141.410324 160.774445 141.285583 160.897842 C 141.160797 161.021301 141.090225 161.189285 141.08934 161.364746 L 141.058655 167.238434 C 141.057724 167.413895 141.126511 167.582565 141.249924 167.707306 C 141.373337 167.832047 141.54126 167.902618 141.716721 167.903595 L 142.459015 167.90744 C 142.634521 167.908386 142.803192 167.839569 142.927979 167.716125 C 143.052719 167.592651 143.123291 167.424744 143.124176 167.249222 L 143.154846 161.37558 Z"/>
        <path id="path16" fill="#ffffff" stroke="none" d="M 141.754456 160.706573 L 142.496735 160.710464 C 142.862137 160.712387 143.156769 161.010132 143.154892 161.375519 L 143.124115 167.249268 C 143.122208 167.61467 142.824463 167.909302 142.459061 167.907379 L 141.716782 167.903503 C 141.351364 167.901627 141.056732 167.603836 141.058655 167.238434 L 141.089386 161.364685 C 141.091309 160.999344 141.389038 160.704651 141.754456 160.706573 Z"/>
        <path id="path17" fill="#3b5471" stroke="none" d="M 148.932663 182.331879 C 149.09402 182.331879 149.244629 182.369532 149.384491 182.444839 C 149.417587 182.463699 149.446152 182.497986 149.465149 182.541656 C 150.702301 185.295685 152.891525 189.690277 156.032822 195.725433 C 161.922806 207.0858 166.231323 219.527313 169.797607 231.516968 C 171.432831 237.014282 172.336487 242.785909 172.508575 248.831848 C 172.8797 261.983368 164.004425 277.636139 148.868103 277.619995 C 133.73172 277.603821 124.872604 261.951111 125.276024 248.799591 C 125.448153 242.753652 126.357198 236.98203 128.003159 231.484726 C 131.585541 219.495056 135.910202 207.069641 141.816299 195.70929 C 144.968358 189.684896 147.16835 185.295685 148.416275 182.541656 C 148.435272 182.498016 148.463837 182.463745 148.496933 182.444839 C 148.636795 182.369532 148.782038 182.331879 148.932663 182.331879 Z M 132.408493 255.076797 C 133.656408 265.447433 139.594772 270.648885 150.223587 270.681152 C 150.633362 270.679779 150.975082 270.377563 151.027481 269.970062 C 151.079971 269.5625 150.827438 269.172028 150.43338 269.051331 C 145.527771 267.706584 141.208471 265.243032 137.475479 261.660675 C 137.197495 261.404053 136.957855 261.09906 136.765457 260.756989 L 133.312149 254.770187 C 133.199722 254.562958 132.954376 254.466843 132.731094 254.542633 C 132.507813 254.618362 132.371597 254.843964 132.408493 255.076797 Z"/>
        <path id="path18" fill="#3b5471" stroke="none" d="M 253.273529 236.729202 C 251.692149 242.570735 248.29803 245.599085 243.091171 245.814255 C 233.39829 246.201523 211.505951 246.292959 177.414154 246.088562 C 176.710129 246.088562 176.139374 245.517853 176.139374 244.813782 L 176.139374 239.972717 C 176.139374 239.509277 176.515015 239.133575 176.978531 239.133575 C 209.865443 239.079803 230.832586 239.122843 239.879959 239.262695 C 242.913691 239.316467 245.29656 238.606445 247.028564 237.132629 C 249.384552 237.853414 251.466207 237.718938 253.273529 236.729202 Z"/>
        <path id="path19" fill="#ffffff" stroke="none" d="M 133.312149 254.770187 L 136.765457 260.756989 C 136.957855 261.09906 137.197495 261.404053 137.475479 261.660675 C 141.208471 265.243032 145.527771 267.706584 150.43338 269.051331 C 150.827438 269.172028 151.079971 269.5625 151.027481 269.970062 C 150.975082 270.377563 150.633362 270.679779 150.223587 270.681152 C 139.594772 270.648885 133.656408 265.447433 132.408493 255.076797 C 132.371597 254.843964 132.507813 254.618362 132.731094 254.542633 C 132.954376 254.466843 133.199722 254.562958 133.312149 254.770187 Z"/>
    </g>
    <g id="g2">
        <g id="g3">
            <path id="path20" fill="none" stroke="#91a0b0" stroke-width="2" d="M 43.5 1.829987 C 42.493327 2.149994 41.219991 2.226664 39.679993 2.059998 C 39.528137 2.045837 39.37738 2.095367 39.265015 2.19635 C 39.152588 2.297302 39.08905 2.440308 39.090027 2.589996 L 39.090027 42.429993 C 39.090332 42.689423 39.275085 42.911957 39.530029 42.959991 L 42.549988 43.529999"/>
            <path id="path21" fill="none" stroke="#91a0b0" stroke-width="2" d="M 46.419983 43.279999 C 50.466654 42.99999 54.786662 42.849986 59.380005 42.829987 C 66.429993 42.790009 71.880005 39.420013 72.789978 32.01001 C 73.389994 27.143331 71.796672 23.606659 68.01001 21.399994 C 67.886597 21.32608 67.80719 21.196533 67.79718 21.05304 C 67.787231 20.909546 67.848022 20.770264 67.960022 20.679993 C 71.026672 18.266663 72.166667 14.899994 71.380005 10.579987 C 70.159973 3.850006 64.369995 2.019989 58.25 2.100006 C 54.343343 2.15333 50.526672 2.123332 46.799988 2.01001"/>
            <path id="path22" fill="none" stroke="#91a0b0" stroke-width="2" d="M 273.950012 2.309998 C 273.950012 2.055939 273.74408 1.850006 273.48999 1.850006 L 265.909973 1.850006 C 265.655945 1.850006 265.450012 2.055939 265.450012 2.309998 L 265.450012 9.190002 C 265.450012 9.444061 265.655945 9.649994 265.909973 9.649994 L 273.48999 9.649994 C 273.74408 9.649994 273.950012 9.444061 273.950012 9.190002 L 273.950012 2.309998"/>
            <path id="path23" fill="none" stroke="#91a0b0" stroke-width="2" d="M 18.25 43.059998 C 20.476685 43.059998 21.806681 43.043335 22.23999 43.01001 C 22.55542 42.988983 22.800415 42.730865 22.799988 42.420013 L 22.799988 10.279999 C 22.799988 10.031464 23.001465 9.829987 23.25 9.829987 L 34.309998 9.829987 C 34.619263 9.829987 34.869995 9.579285 34.869995 9.269989 L 34.869995 2.649994 C 34.869995 2.346252 34.623779 2.100006 34.320007 2.100006 C 29.026672 2.08666 23.666667 2.08666 18.23999 2.100006 C 12.819987 2.093333 7.463318 2.096659 2.169983 2.109985 C 1.866272 2.109985 1.619995 2.356232 1.619995 2.660004 L 1.619995 9.279999 C 1.619995 9.589294 1.870728 9.839996 2.179993 9.839996 L 13.23999 9.829987 C 13.488525 9.829987 13.690002 10.031464 13.690002 10.279999 L 13.710022 42.420013 C 13.704163 42.734711 13.950623 42.998749 14.27002 43.019989 C 14.703328 43.046661 16.029989 43.059998 18.25 43.059998"/>
            <path id="path24" fill="none" stroke="#91a0b0" stroke-width="2" d="M 104.940002 28.480011 C 113.359985 28.76001 124.859985 29.519989 126.340027 18.299988 C 127.700012 7.933329 123.380005 2.573334 113.380005 2.220001 C 108.539998 2.046661 102.57666 2.026662 95.48999 2.160004 C 95.306152 2.165405 95.159912 2.316071 95.159973 2.5 L 95.159973 42.529999 C 95.159973 42.778534 95.36145 42.980011 95.609985 42.980011 L 103.700012 42.98999 C 103.931946 42.98999 104.119995 42.801971 104.119995 42.570007 L 104.119995 29.279999 C 104.119934 29.062531 104.207336 28.85434 104.362 28.70343 C 104.516724 28.552521 104.725403 28.471832 104.940002 28.480011"/>
            <path id="path25" fill="none" stroke="#91a0b0" stroke-width="2" d="M 140.890015 2.559998 C 140.890015 2.300415 140.679565 2.089996 140.419983 2.089996 L 132.960022 2.089996 C 132.700439 2.089996 132.48999 2.300415 132.48999 2.559998 L 132.48999 42.519989 C 132.48999 42.779572 132.700439 42.98999 132.960022 42.98999 L 140.419983 42.98999 C 140.679565 42.98999 140.890015 42.779572 140.890015 42.519989 L 140.890015 2.559998"/>
            <path id="path26" fill="none" stroke="#91a0b0" stroke-width="2" d="M 239.419983 14.790009 L 239.419983 2.529999 C 239.419983 2.320129 239.245361 2.149994 239.030029 2.149994 L 231.5 2.149994 C 231.262512 2.149994 231.070007 2.342529 231.070007 2.579987 L 231.070007 42.380005 C 231.070007 42.722412 231.343079 43 231.679993 43 L 238.700012 43 C 238.987183 43 239.219971 42.762726 239.219971 42.470001 L 239.219971 40.98999 C 239.219604 40.842804 239.308838 40.710175 239.445374 40.655121 C 239.581909 40.600067 239.738159 40.633698 239.840027 40.73999 C 242.273336 43.23999 245.58667 44.193329 249.780029 43.600006 C 258.849976 42.309998 261.299988 32.339996 260.369995 24.519989 C 259.73999 19.140015 257.080017 14.029999 251.919983 12.549988 C 247.273336 11.216654 243.273336 12.036662 239.919983 15.01001 C 239.832336 15.08844 239.706848 15.108398 239.599182 15.061005 C 239.491455 15.013611 239.421387 14.907654 239.419983 14.790009"/>
            <path id="path27" fill="none" stroke="#91a0b0" stroke-width="2" d="M 189.359985 15.23999 L 189.359985 13.320007 C 189.359985 12.944458 189.055542 12.640015 188.679993 12.640015 L 181.929993 12.640015 C 181.521301 12.640015 181.190002 12.971313 181.190002 13.380005 L 181.190002 42.480011 C 181.190002 42.761658 181.418335 42.98999 181.700012 42.98999 L 189.210022 42.98999 C 189.486145 42.98999 189.710022 42.766144 189.710022 42.48999 L 189.710022 23.820007 C 189.710999 21.525604 191.459717 19.612 193.73999 19.410004 L 194.119995 19.369995 C 195.272644 19.269135 196.414734 19.657593 197.26825 20.440826 C 198.121826 21.22403 198.608582 22.33017 198.609985 23.48999 L 198.609985 42.480011 C 198.609985 42.767181 198.842834 43 199.130005 43 L 206.570007 43 C 206.851685 43 207.080017 42.771667 207.080017 42.48999 C 207.066671 36.763326 207.073324 31.109996 207.099976 25.529999 C 207.113322 23.603343 207.623332 21.973348 208.630005 20.640015 C 208.872314 20.312439 209.192627 20.054108 209.559998 19.890015 C 212.76001 18.470001 215.700012 19.869995 215.820007 23.390015 C 215.940002 26.856669 215.966675 33.213328 215.900024 42.459991 C 215.900024 42.75824 216.141785 43 216.440002 43 L 224 43 C 224.276123 43 224.5 42.776154 224.5 42.5 C 224.593343 33.626668 224.590007 26.470001 224.48999 21.029999 C 224.299988 11 211.890015 9.399994 206.23999 15.829987 C 206.150085 15.93219 206.018799 15.98822 205.882813 15.982391 C 205.746826 15.976563 205.620789 15.909515 205.539978 15.799988 C 203.780009 13.386658 201.573344 12.119995 198.919983 12 C 194.766663 11.813334 191.753337 12.953339 189.880005 15.420013 C 189.803955 15.519012 189.673096 15.558289 189.555115 15.517426 C 189.437134 15.476593 189.358521 15.364838 189.359985 15.23999"/>
            <path id="path28" fill="none" stroke="#91a0b0" stroke-width="2" d="M 289.530029 14.790009 L 289.539978 13.279999 C 289.539978 12.921021 289.244507 12.630005 288.880005 12.630005 L 282.169983 12.609985 C 281.750244 12.609985 281.409973 12.950256 281.409973 13.369995 L 281.340027 42.649994 C 281.340027 42.843292 281.501221 42.999969 281.700012 43 L 289.440002 43.019989 C 289.633301 43.019989 289.789978 42.863312 289.789978 42.670013 C 289.829976 33.523346 289.849976 28.506673 289.849976 27.619995 C 289.820007 23.339996 290.950012 18.790009 295.900024 19.089996 C 299.01001 19.269989 300.299988 21.420013 300.330017 24.390015 C 300.363342 28.723348 300.360006 34.75001 300.320007 42.470001 C 300.320007 42.779266 300.57074 43.029999 300.880005 43.029999 L 308.359985 43.049988 C 308.659912 43.050049 308.904541 42.809845 308.909973 42.51001 C 308.969991 33.083333 308.963338 26.629995 308.890015 23.149994 C 308.809998 19.170013 307.849976 14.859985 304.210022 13.26001 C 298.889994 10.920003 294.223328 11.529999 290.210022 15.089996 C 290.09314 15.204773 289.918152 15.236694 289.76825 15.170563 C 289.618408 15.104462 289.524048 14.953674 289.530029 14.790009"/>
            <path id="path29" fill="none" stroke="#91a0b0" stroke-width="2" d="M 334.539978 40.559998 C 334.390015 44.869995 333.469971 48.149994 328.830017 48.519989 C 325.883321 48.753326 324.149984 47.993327 323.630005 46.23999 C 323.523926 45.888733 323.202698 45.648804 322.840027 45.649994 L 314.940002 45.649994 C 314.730652 45.649445 314.531982 45.742615 314.397034 45.904541 C 314.262085 46.066498 314.20459 46.280731 314.23999 46.48999 C 314.753337 49.509989 315.976664 51.57666 317.909973 52.690002 C 322.203308 55.156677 327.426656 55.786672 333.580017 54.579987 C 341.539978 53.019989 342.869995 47.089996 342.869995 40.019989 C 342.869995 22.339996 342.880005 13.426666 342.900024 13.279999 C 342.926208 13.110352 342.877197 12.937714 342.765808 12.807098 C 342.654419 12.676514 342.491638 12.600891 342.320007 12.600006 L 335.429993 12.579987 C 335.054443 12.579987 334.75 12.88446 334.75 13.26001 L 334.75 15.040009 C 334.754761 15.184814 334.667175 15.316742 334.53186 15.368591 C 334.396606 15.420471 334.243286 15.38089 334.150024 15.269989 C 331.66333 12.456655 328.293315 11.399994 324.039978 12.100006 C 310.929993 14.269989 309.919983 37.829987 321.200012 42.179993 C 325.813334 43.953328 330.099996 43.329997 334.059998 40.309998 C 334.152344 40.240631 334.276306 40.230438 334.378723 40.283783 C 334.481201 40.337158 334.543884 40.44458 334.539978 40.559998"/>
            <path id="path30" fill="none" stroke="#91a0b0" stroke-width="2" d="M 166.51001 40.799988 L 166.51001 42.309998 C 166.51001 42.668976 166.805481 42.959991 167.169983 42.959991 L 173.859985 42.959991 C 174.279724 42.959991 174.619995 42.619751 174.619995 42.200012 L 174.619995 12.980011 C 174.619995 12.786713 174.458801 12.630005 174.26001 12.630005 L 166.539978 12.630005 C 166.34668 12.630005 166.190002 12.786713 166.190002 12.980011 C 166.169983 22.106679 166.16331 27.113342 166.169983 28 C 166.210022 32.269989 165.090027 36.809998 160.150024 36.529999 C 157.039978 36.350006 155.75 34.209991 155.719971 31.25 C 155.67334 26.92334 155.660014 20.910004 155.679993 13.209991 C 155.679993 12.900726 155.42926 12.649994 155.119995 12.649994 L 147.659973 12.649994 C 147.360107 12.649963 147.115479 12.890167 147.109985 13.190002 C 147.07666 22.596659 147.099996 29.033325 147.179993 32.5 C 147.27002 36.480011 148.22998 40.769989 151.869995 42.359985 C 157.18335 44.686666 161.840027 44.066671 165.840027 40.5 C 165.957642 40.392365 166.127991 40.364868 166.273499 40.430023 C 166.419006 40.495178 166.511963 40.640564 166.51001 40.799988"/>
            <path id="path31" fill="none" stroke="#91a0b0" stroke-width="2" d="M 273.940002 13.029999 C 273.940002 12.792511 273.747498 12.600006 273.51001 12.600006 L 265.869995 12.600006 C 265.632507 12.600006 265.440002 12.792511 265.440002 13.029999 L 265.440002 42.570007 C 265.440002 42.807495 265.632507 43 265.869995 43 L 273.51001 43 C 273.747498 43 273.940002 42.807495 273.940002 42.570007 L 273.940002 13.029999"/>
            <path id="path32" fill="none" stroke="#91a0b0" stroke-width="2" d="M 47.719971 10.149994 L 47.76001 17.589996 C 47.76001 17.816437 47.943542 18 48.169983 18 L 57.599976 17.950012 C 59.000854 17.942566 60.342163 17.545349 61.328674 16.845764 C 62.315186 16.14621 62.866028 15.20163 62.859985 14.220001 L 62.859985 13.359985 C 62.847473 11.317291 60.475037 9.674469 57.559998 9.690002 L 48.130005 9.73999 C 47.903564 9.73999 47.719971 9.923553 47.719971 10.149994"/>
            <path id="path33" fill="none" stroke="#91a0b0" stroke-width="2" d="M 47.710022 25.890015 L 47.77002 34.829987 C 47.772644 34.983826 47.836243 35.13031 47.946899 35.237213 C 48.057556 35.344116 48.206177 35.402679 48.359985 35.399994 L 58.190002 35.329987 C 61.242249 35.305664 63.699463 33.139343 63.679993 30.48999 L 63.679993 29.98999 C 63.670715 28.716217 63.078491 27.498871 62.033813 26.606049 C 60.989075 25.713257 59.577515 25.218231 58.109985 25.230011 L 48.280029 25.299988 C 48.12616 25.302643 47.979675 25.366272 47.872803 25.476929 C 47.765869 25.587585 47.707336 25.736176 47.710022 25.890015"/>
            <path id="path34" fill="none" stroke="#91a0b0" stroke-width="2" d="M 104.090027 10.130005 L 104.150024 20.570007 C 104.155396 20.781464 104.32843 20.950073 104.539978 20.950012 L 112.02002 20.910004 C 115.084167 20.892181 117.555176 18.62262 117.539978 15.839996 L 117.539978 14.700012 C 117.532776 13.362885 116.940674 12.08374 115.894165 11.144104 C 114.847656 10.204498 113.432434 9.681396 111.960022 9.690002 L 104.47998 9.730011 C 104.374817 9.72998 104.274048 9.77243 104.200623 9.847748 C 104.127197 9.923065 104.08728 10.024841 104.090027 10.130005"/>
            <path id="path35" fill="none" stroke="#91a0b0" stroke-width="2" d="M 245.413818 19.250305 C 243.732361 19.264954 242.127869 20.198761 240.953186 21.846283 C 239.778564 23.493774 239.130005 25.720032 239.150208 28.035309 C 239.17041 30.350586 239.857727 32.565186 241.060974 34.191956 C 242.26416 35.818726 243.884766 36.724396 245.566223 36.709686 C 247.24762 36.695038 248.852112 35.76123 250.026794 34.113739 C 251.201416 32.466217 251.850037 30.23996 251.829773 27.924713 C 251.809631 25.609436 251.122314 23.394806 249.919067 21.768036 C 248.71582 20.141266 247.095215 19.235596 245.413818 19.250305"/>
            <path id="path36" fill="none" stroke="#91a0b0" stroke-width="2" d="M 328.34082 19.2901 C 326.680542 19.295898 325.09137 20.18222 323.922852 21.75412 C 322.754395 23.326019 322.102234 25.454712 322.109985 27.671906 C 322.12616 32.288971 324.941895 36.022003 328.39917 36.009888 C 330.059448 36.00412 331.648621 35.117767 332.817139 33.545898 C 333.985657 31.973999 334.637756 29.845306 334.630005 27.628113 C 334.613831 23.011047 331.798096 19.277985 328.34082 19.2901"/>
        </g>
        <g id="g4">
            <path id="path37" fill="#234061" stroke="none" d="M 46.799988 2.01001 C 50.526672 2.123332 54.343343 2.15333 58.25 2.100006 C 64.369995 2.019989 70.159973 3.850006 71.380005 10.579987 C 72.166667 14.899994 71.026672 18.266663 67.960022 20.679993 C 67.848022 20.770264 67.787231 20.909546 67.79718 21.05304 C 67.80719 21.196533 67.886597 21.32608 68.01001 21.399994 C 71.796672 23.606659 73.389994 27.143331 72.789978 32.01001 C 71.880005 39.420013 66.429993 42.790009 59.380005 42.829987 C 54.786662 42.849986 50.466654 42.99999 46.419983 43.279999 C 45.299988 43.893341 44.009989 43.976674 42.549988 43.529999 L 39.530029 42.959991 C 39.275085 42.911957 39.090332 42.689423 39.090027 42.429993 L 39.090027 2.589996 C 39.08905 2.440308 39.152588 2.297302 39.265015 2.19635 C 39.37738 2.095367 39.528137 2.045837 39.679993 2.059998 C 41.219991 2.226664 42.493327 2.149994 43.5 1.829987 C 44.693319 1.643321 45.793315 1.703328 46.799988 2.01001 Z M 47.719971 10.149994 L 47.76001 17.589996 C 47.76001 17.816437 47.943542 18 48.169983 18 L 57.599976 17.950012 C 59.000854 17.942566 60.342163 17.545349 61.328674 16.845764 C 62.315186 16.14621 62.866028 15.20163 62.859985 14.220001 L 62.859985 13.359985 C 62.847473 11.317291 60.475037 9.674469 57.559998 9.690002 L 48.130005 9.73999 C 47.903564 9.73999 47.719971 9.923553 47.719971 10.149994 Z M 47.710022 25.890015 L 47.77002 34.829987 C 47.772644 34.983826 47.836243 35.13031 47.946899 35.237213 C 48.057556 35.344116 48.206177 35.402679 48.359985 35.399994 L 58.190002 35.329987 C 61.242249 35.305664 63.699463 33.139343 63.679993 30.48999 L 63.679993 29.98999 C 63.670715 28.716217 63.078491 27.498871 62.033813 26.606049 C 60.989075 25.713257 59.577515 25.218231 58.109985 25.230011 L 48.280029 25.299988 C 48.12616 25.302643 47.979675 25.366272 47.872803 25.476929 C 47.765869 25.587585 47.707336 25.736176 47.710022 25.890015 Z"/>
            <path id="path38" fill="#234061" stroke="none" d="M 265.909973 1.850006 L 273.48999 1.850006 C 273.74408 1.850006 273.950012 2.055939 273.950012 2.309998 L 273.950012 9.190002 C 273.950012 9.444061 273.74408 9.649994 273.48999 9.649994 L 265.909973 9.649994 C 265.655945 9.649994 265.450012 9.444061 265.450012 9.190002 L 265.450012 2.309998 C 265.450012 2.055939 265.655945 1.850006 265.909973 1.850006 Z"/>
            <path id="path39" fill="#234061" stroke="none" d="M 18.23999 2.100006 C 23.666667 2.08666 29.026672 2.08666 34.320007 2.100006 C 34.623779 2.100006 34.869995 2.346252 34.869995 2.649994 L 34.869995 9.269989 C 34.869995 9.579285 34.619263 9.829987 34.309998 9.829987 L 23.25 9.829987 C 23.001465 9.829987 22.799988 10.031464 22.799988 10.279999 L 22.799988 42.420013 C 22.800415 42.730865 22.55542 42.988983 22.23999 43.01001 C 21.806681 43.043335 20.476685 43.059998 18.25 43.059998 C 16.029989 43.059998 14.703328 43.046661 14.27002 43.019989 C 13.950623 42.998749 13.704163 42.734711 13.710022 42.420013 L 13.690002 10.279999 C 13.690002 10.031464 13.488525 9.829987 13.23999 9.829987 L 2.179993 9.839996 C 1.870728 9.839996 1.619995 9.589294 1.619995 9.279999 L 1.619995 2.660004 C 1.619995 2.356232 1.866272 2.109985 2.169983 2.109985 C 7.463318 2.096659 12.819987 2.093333 18.23999 2.100006 Z"/>
            <path id="path40" fill="#234061" stroke="none" d="M 104.119995 29.279999 L 104.119995 42.570007 C 104.119995 42.801971 103.931946 42.98999 103.700012 42.98999 L 95.609985 42.980011 C 95.36145 42.980011 95.159973 42.778534 95.159973 42.529999 L 95.159973 2.5 C 95.159912 2.316071 95.306152 2.165405 95.48999 2.160004 C 102.57666 2.026662 108.539998 2.046661 113.380005 2.220001 C 123.380005 2.573334 127.700012 7.933329 126.340027 18.299988 C 124.859985 29.519989 113.359985 28.76001 104.940002 28.480011 C 104.725403 28.471832 104.516724 28.552521 104.362 28.70343 C 104.207336 28.85434 104.119934 29.062531 104.119995 29.279999 Z M 104.090027 10.130005 L 104.150024 20.570007 C 104.155396 20.781464 104.32843 20.950073 104.539978 20.950012 L 112.02002 20.910004 C 115.084167 20.892181 117.555176 18.62262 117.539978 15.839996 L 117.539978 14.700012 C 117.532776 13.362885 116.940674 12.08374 115.894165 11.144104 C 114.847656 10.204498 113.432434 9.681396 111.960022 9.690002 L 104.47998 9.730011 C 104.374817 9.72998 104.274048 9.77243 104.200623 9.847748 C 104.127197 9.923065 104.08728 10.024841 104.090027 10.130005 Z"/>
            <path id="path41" fill="#234061" stroke="none" d="M 132.960022 2.089996 L 140.419983 2.089996 C 140.679565 2.089996 140.890015 2.300415 140.890015 2.559998 L 140.890015 42.519989 C 140.890015 42.779572 140.679565 42.98999 140.419983 42.98999 L 132.960022 42.98999 C 132.700439 42.98999 132.48999 42.779572 132.48999 42.519989 L 132.48999 2.559998 C 132.48999 2.300415 132.700439 2.089996 132.960022 2.089996 Z"/>
            <path id="path42" fill="#234061" stroke="none" d="M 239.919983 15.01001 C 243.273336 12.036662 247.273336 11.216654 251.919983 12.549988 C 257.080017 14.029999 259.73999 19.140015 260.369995 24.519989 C 261.299988 32.339996 258.849976 42.309998 249.780029 43.600006 C 245.58667 44.193329 242.273336 43.23999 239.840027 40.73999 C 239.738159 40.633698 239.581909 40.600067 239.445374 40.655121 C 239.308838 40.710175 239.219604 40.842804 239.219971 40.98999 L 239.219971 42.470001 C 239.219971 42.762726 238.987183 43 238.700012 43 L 231.679993 43 C 231.343079 43 231.070007 42.722412 231.070007 42.380005 L 231.070007 2.579987 C 231.070007 2.342529 231.262512 2.149994 231.5 2.149994 L 239.030029 2.149994 C 239.245361 2.149994 239.419983 2.320129 239.419983 2.529999 L 239.419983 14.790009 C 239.421387 14.907654 239.491455 15.013611 239.599182 15.061005 C 239.706848 15.108398 239.832336 15.08844 239.919983 15.01001 Z M 245.413818 19.250305 C 243.732361 19.264954 242.127869 20.198761 240.953186 21.846283 C 239.778564 23.493774 239.130005 25.720032 239.150208 28.035309 C 239.17041 30.350586 239.857727 32.565186 241.060974 34.191956 C 242.26416 35.818726 243.884766 36.724396 245.566223 36.709686 C 247.24762 36.695038 248.852112 35.76123 250.026794 34.113739 C 251.201416 32.466217 251.850037 30.23996 251.829773 27.924713 C 251.809631 25.609436 251.122314 23.394806 249.919067 21.768036 C 248.71582 20.141266 247.095215 19.235596 245.413818 19.250305 Z"/>
            <path id="path43" fill="#234061" stroke="none" d="M 189.880005 15.420013 C 191.753337 12.953339 194.766663 11.813334 198.919983 12 C 201.573344 12.119995 203.780009 13.386658 205.539978 15.799988 C 205.620789 15.909515 205.746826 15.976563 205.882813 15.982391 C 206.018799 15.98822 206.150085 15.93219 206.23999 15.829987 C 211.890015 9.399994 224.299988 11 224.48999 21.029999 C 224.590007 26.470001 224.593343 33.626668 224.5 42.5 C 224.5 42.776154 224.276123 43 224 43 L 216.440002 43 C 216.141785 43 215.900024 42.75824 215.900024 42.459991 C 215.966675 33.213328 215.940002 26.856669 215.820007 23.390015 C 215.700012 19.869995 212.76001 18.470001 209.559998 19.890015 C 209.192627 20.054108 208.872314 20.312439 208.630005 20.640015 C 207.623332 21.973348 207.113322 23.603343 207.099976 25.529999 C 207.073324 31.109996 207.066671 36.763326 207.080017 42.48999 C 207.080017 42.771667 206.851685 43 206.570007 43 L 199.130005 43 C 198.842834 43 198.609985 42.767181 198.609985 42.480011 L 198.609985 23.48999 C 198.608582 22.33017 198.121826 21.22403 197.26825 20.440826 C 196.414734 19.657593 195.272644 19.269135 194.119995 19.369995 L 193.73999 19.410004 C 191.459717 19.612 189.710999 21.525604 189.710022 23.820007 L 189.710022 42.48999 C 189.710022 42.766144 189.486145 42.98999 189.210022 42.98999 L 181.700012 42.98999 C 181.418335 42.98999 181.190002 42.761658 181.190002 42.480011 L 181.190002 13.380005 C 181.190002 12.971313 181.521301 12.640015 181.929993 12.640015 L 188.679993 12.640015 C 189.055542 12.640015 189.359985 12.944458 189.359985 13.320007 L 189.359985 15.23999 C 189.358521 15.364838 189.437134 15.476593 189.555115 15.517426 C 189.673096 15.558289 189.803955 15.519012 189.880005 15.420013 Z"/>
            <path id="path44" fill="#234061" stroke="none" d="M 289.530029 14.790009 C 289.524048 14.953674 289.618408 15.104462 289.76825 15.170563 C 289.918152 15.236694 290.09314 15.204773 290.210022 15.089996 C 294.223328 11.529999 298.889994 10.920003 304.210022 13.26001 C 307.849976 14.859985 308.809998 19.170013 308.890015 23.149994 C 308.963338 26.629995 308.969991 33.083333 308.909973 42.51001 C 308.904541 42.809845 308.659912 43.050049 308.359985 43.049988 L 300.880005 43.029999 C 300.57074 43.029999 300.320007 42.779266 300.320007 42.470001 C 300.360006 34.75001 300.363342 28.723348 300.330017 24.390015 C 300.299988 21.420013 299.01001 19.269989 295.900024 19.089996 C 290.950012 18.790009 289.820007 23.339996 289.849976 27.619995 C 289.849976 28.506673 289.829976 33.523346 289.789978 42.670013 C 289.789978 42.863312 289.633301 43.019989 289.440002 43.019989 L 281.700012 43 C 281.501221 42.999969 281.340027 42.843292 281.340027 42.649994 L 281.409973 13.369995 C 281.409973 12.950256 281.750244 12.609985 282.169983 12.609985 L 288.880005 12.630005 C 289.244507 12.630005 289.539978 12.921021 289.539978 13.279999 L 289.530029 14.790009 Z"/>
            <path id="path45" fill="#234061" stroke="none" d="M 334.059998 40.309998 C 330.099996 43.329997 325.813334 43.953328 321.200012 42.179993 C 309.919983 37.829987 310.929993 14.269989 324.039978 12.100006 C 328.293315 11.399994 331.66333 12.456655 334.150024 15.269989 C 334.243286 15.38089 334.396606 15.420471 334.53186 15.368591 C 334.667175 15.316742 334.754761 15.184814 334.75 15.040009 L 334.75 13.26001 C 334.75 12.88446 335.054443 12.579987 335.429993 12.579987 L 342.320007 12.600006 C 342.491638 12.600891 342.654419 12.676514 342.765808 12.807098 C 342.877197 12.937714 342.926208 13.110352 342.900024 13.279999 C 342.880005 13.426666 342.869995 22.339996 342.869995 40.019989 C 342.869995 47.089996 341.539978 53.019989 333.580017 54.579987 C 327.426656 55.786672 322.203308 55.156677 317.909973 52.690002 C 315.976664 51.57666 314.753337 49.509989 314.23999 46.48999 C 314.20459 46.280731 314.262085 46.066498 314.397034 45.904541 C 314.531982 45.742615 314.730652 45.649445 314.940002 45.649994 L 322.840027 45.649994 C 323.202698 45.648804 323.523926 45.888733 323.630005 46.23999 C 324.149984 47.993327 325.883321 48.753326 328.830017 48.519989 C 333.469971 48.149994 334.390015 44.869995 334.539978 40.559998 C 334.543884 40.44458 334.481201 40.337158 334.378723 40.283783 C 334.276306 40.230438 334.152344 40.240631 334.059998 40.309998 Z M 328.34082 19.2901 C 326.680542 19.295898 325.09137 20.18222 323.922852 21.75412 C 322.754395 23.326019 322.102234 25.454712 322.109985 27.671906 C 322.12616 32.288971 324.941895 36.022003 328.39917 36.009888 C 330.059448 36.00412 331.648621 35.117767 332.817139 33.545898 C 333.985657 31.973999 334.637756 29.845306 334.630005 27.628113 C 334.613831 23.011047 331.798096 19.277985 328.34082 19.2901 Z"/>
            <path id="path46" fill="#234061" stroke="none" d="M 165.840027 40.5 C 161.840027 44.066671 157.18335 44.686666 151.869995 42.359985 C 148.22998 40.769989 147.27002 36.480011 147.179993 32.5 C 147.099996 29.033325 147.07666 22.596659 147.109985 13.190002 C 147.115479 12.890167 147.360107 12.649963 147.659973 12.649994 L 155.119995 12.649994 C 155.42926 12.649994 155.679993 12.900726 155.679993 13.209991 C 155.660014 20.910004 155.67334 26.92334 155.719971 31.25 C 155.75 34.209991 157.039978 36.350006 160.150024 36.529999 C 165.090027 36.809998 166.210022 32.269989 166.169983 28 C 166.16331 27.113342 166.169983 22.106679 166.190002 12.980011 C 166.190002 12.786713 166.34668 12.630005 166.539978 12.630005 L 174.26001 12.630005 C 174.458801 12.630005 174.619995 12.786713 174.619995 12.980011 L 174.619995 42.200012 C 174.619995 42.619751 174.279724 42.959991 173.859985 42.959991 L 167.169983 42.959991 C 166.805481 42.959991 166.51001 42.668976 166.51001 42.309998 L 166.51001 40.799988 C 166.511963 40.640564 166.419006 40.495178 166.273499 40.430023 C 166.127991 40.364868 165.957642 40.392365 165.840027 40.5 Z"/>
            <path id="path47" fill="#234061" stroke="none" d="M 265.869995 12.600006 L 273.51001 12.600006 C 273.747498 12.600006 273.940002 12.792511 273.940002 13.029999 L 273.940002 42.570007 C 273.940002 42.807495 273.747498 43 273.51001 43 L 265.869995 43 C 265.632507 43 265.440002 42.807495 265.440002 42.570007 L 265.440002 13.029999 C 265.440002 12.792511 265.632507 12.600006 265.869995 12.600006 Z"/>
        </g>
    </g>
    <g id="g5">
        <g id="g6">
            <path id="path48" fill="none" stroke="#91a0b0" stroke-width="2" d="M 307.859985 208.679993 C 307.68988 208.679474 307.541382 208.795013 307.5 208.959991 C 304.97998 218.779999 292.859985 218.309998 290.27002 208.920013 C 288.419983 202.179993 289.710022 188.26001 299.950012 189.309998 C 304.043355 189.730001 306.556681 191.933339 307.48999 195.920013 C 307.5177 196.041687 307.625244 196.12851 307.75 196.130005 L 316.549988 196.130005 C 316.603455 196.13031 316.65448 196.108154 316.68927 196.069519 C 316.72406 196.030853 316.739014 195.979736 316.72998 195.929993 C 315.22998 185.600006 307.75 180.950012 297.719971 181.410004 C 290.126668 181.763336 284.886678 185.463338 282 192.51001 C 279.599976 198.369995 279.650024 207.589996 282 213.220001 C 285.390015 221.350006 292.390015 224.579987 300.919983 224.029999 C 309.539978 223.470001 315.309998 217.399994 316.570007 208.959991 C 316.578613 208.888672 316.556152 208.817078 316.508301 208.763489 C 316.460449 208.7099 316.391846 208.679474 316.320007 208.679993 L 307.859985 208.679993"/>
            <path id="path49" fill="none" stroke="#91a0b0" stroke-width="2" d="M 221.98999 214.440002 L 221.969971 182.920013 C 221.969971 182.467133 221.602844 182.100006 221.150024 182.100006 L 213.77002 182.109985 C 213.326538 182.115417 212.969971 182.472015 212.969971 182.910004 L 212.940002 222.059998 C 212.940002 222.562592 213.347412 222.970001 213.849976 222.970001 L 241.119995 223 C 241.341858 223.000031 241.554504 222.911194 241.710449 222.753387 C 241.866394 222.595551 241.952698 222.381866 241.950012 222.160004 L 241.929993 215.920013 C 241.929993 215.483704 241.576294 215.130005 241.140015 215.130005 L 222.719971 215.160004 C 222.316833 215.160004 221.98999 214.837646 221.98999 214.440002"/>
            <path id="path50" fill="none" stroke="#91a0b0" stroke-width="2" d="M 275.940002 215.859985 C 275.940002 215.473389 275.626587 215.160004 275.23999 215.160004 L 256.679993 215.160004 C 256.293396 215.160004 255.97998 214.846588 255.97998 214.459991 L 255.97998 182.799988 C 255.97998 182.413391 255.666626 182.100006 255.280029 182.100006 L 247.650024 182.100006 C 247.263428 182.100006 246.950012 182.413391 246.950012 182.799988 L 246.950012 222.290009 C 246.950012 222.676605 247.263428 222.98999 247.650024 222.98999 L 275.23999 222.98999 C 275.626587 222.98999 275.940002 222.676605 275.940002 222.290009 L 275.940002 215.859985"/>
        </g>
        <g id="g7">
            <path id="path51" fill="#234061" stroke="none" d="M 316.570007 208.959991 C 315.309998 217.399994 309.539978 223.470001 300.919983 224.029999 C 292.390015 224.579987 285.390015 221.350006 282 213.220001 C 279.650024 207.589996 279.599976 198.369995 282 192.51001 C 284.886678 185.463338 290.126668 181.763336 297.719971 181.410004 C 307.75 180.950012 315.22998 185.600006 316.72998 195.929993 C 316.739014 195.979736 316.72406 196.030853 316.68927 196.069519 C 316.65448 196.108154 316.603455 196.13031 316.549988 196.130005 L 307.75 196.130005 C 307.625244 196.12851 307.5177 196.041687 307.48999 195.920013 C 306.556681 191.933339 304.043355 189.730001 299.950012 189.309998 C 289.710022 188.26001 288.419983 202.179993 290.27002 208.920013 C 292.859985 218.309998 304.97998 218.779999 307.5 208.959991 C 307.541382 208.795013 307.68988 208.679474 307.859985 208.679993 L 316.320007 208.679993 C 316.391846 208.679474 316.460449 208.7099 316.508301 208.763489 C 316.556152 208.817078 316.578613 208.888672 316.570007 208.959991 Z"/>
            <path id="path52" fill="#234061" stroke="none" d="M 221.98999 214.440002 C 221.98999 214.837646 222.316833 215.160004 222.719971 215.160004 L 241.140015 215.130005 C 241.576294 215.130005 241.929993 215.483704 241.929993 215.920013 L 241.950012 222.160004 C 241.952698 222.381866 241.866394 222.595551 241.710449 222.753387 C 241.554504 222.911194 241.341858 223.000031 241.119995 223 L 213.849976 222.970001 C 213.347412 222.970001 212.940002 222.562592 212.940002 222.059998 L 212.969971 182.910004 C 212.969971 182.472015 213.326538 182.115417 213.77002 182.109985 L 221.150024 182.100006 C 221.602844 182.100006 221.969971 182.467133 221.969971 182.920013 L 221.98999 214.440002 Z"/>
            <path id="path53" fill="#234061" stroke="none" d="M 275.940002 215.859985 L 275.940002 222.290009 C 275.940002 222.676605 275.626587 222.98999 275.23999 222.98999 L 247.650024 222.98999 C 247.263428 222.98999 246.950012 222.676605 246.950012 222.290009 L 246.950012 182.799988 C 246.950012 182.413391 247.263428 182.100006 247.650024 182.100006 L 255.280029 182.100006 C 255.666626 182.100006 255.97998 182.413391 255.97998 182.799988 L 255.97998 214.459991 C 255.97998 214.846588 256.293396 215.160004 256.679993 215.160004 L 275.23999 215.160004 C 275.626587 215.160004 275.940002 215.473389 275.940002 215.859985 Z"/>
        </g>
    </g>
</svg>
