<?xml version="1.0" encoding="UTF-8"?>
<!-- Generated by Pixelmator Pro 3.6.16 -->
<svg width="705" height="273" viewBox="0 0 705 273" xmlns="http://www.w3.org/2000/svg">
    <g id="Layer-1">
        <g id="Group">
            <path id="Path" fill="#000000" stroke="none" d="M 110.446899 98.24353 L 93.094482 1.462158 L 72.047363 1.462158 L 55.329102 95.914673 L 44.671387 1.462158 L 16.022095 1.462158 L 40.948975 168.929077 L 66.20459 168.929077 L 82.5802 70.661499 L 99.173462 168.929077 L 124.4198 168.929077 L 149.351196 1.462158 L 120.68811 1.462158 L 110.446899 98.24353 Z"/>
            <path id="path1" fill="#000000" stroke="none" d="M 164.657349 168.929077 L 238.289795 168.929077 L 238.289795 141.756714 L 191.829712 141.756714 L 191.829712 97.403198 L 232.308105 97.403198 L 232.308105 71.610596 L 191.829712 71.610596 L 191.829712 27.254761 L 238.289795 27.254761 L 238.289795 1.462158 L 164.657349 1.462158 L 164.657349 168.929077 Z"/>
            <path id="path2" fill="#000000" stroke="none" d="M 255.040405 168.929077 L 282.212646 168.929077 L 282.212646 1.462158 L 255.040405 1.462158 L 255.040405 168.929077 Z"/>
            <path id="path3" fill="#000000" stroke="none" d="M 373.776245 10.406982 C 369.799316 7.06665 365.317627 4.480713 360.447021 2.721558 C 350.710571 -0.787842 340.617676 -0.783325 330.899658 2.721558 C 326.015259 4.485474 321.598389 7.078125 317.769531 10.434692 C 313.750854 13.967285 310.500732 18.435059 308.107178 23.710571 C 305.704224 28.990967 304.486572 35.130005 304.486572 41.956665 L 304.486572 128.434448 C 304.486572 135.57373 305.708984 141.79834 308.116455 146.930542 C 310.514648 152.060303 313.773926 156.377686 317.741821 159.701904 C 321.584473 163.229736 326.01062 165.9104 330.899658 167.6698 C 335.760986 169.422119 340.733398 170.308716 345.67334 170.308716 C 350.608643 170.308716 355.581177 169.422119 360.447021 167.6698 C 365.322266 165.91272 369.817749 163.241333 373.804077 159.731934 C 377.669922 156.352173 380.841309 152.044189 383.230347 146.932861 C 385.637817 141.79834 386.860107 135.57373 386.860107 128.434448 L 386.860107 75.059814 L 341.057495 75.059814 L 341.057495 99.472778 L 359.687866 99.472778 L 359.687866 128.434448 C 359.687866 133.511108 358.317261 137.254272 355.622925 139.557617 C 352.798584 141.965088 349.543945 143.136475 345.67334 143.136475 C 341.798218 143.136475 338.543457 141.965088 335.723877 139.557617 C 333.029419 137.254272 331.658936 133.511108 331.658936 128.434448 L 331.658936 41.956665 C 331.658936 36.880127 333.029419 33.139282 335.728638 30.835938 C 338.548096 28.426147 341.802856 27.254761 345.67334 27.254761 C 349.539307 27.254761 352.794067 28.426147 355.622925 30.835938 C 358.317261 33.139282 359.687866 36.880127 359.687866 41.956665 L 359.687866 52.093628 L 386.860107 52.093628 L 386.860107 41.956665 C 386.860107 35.130005 385.642456 28.990967 383.239624 23.710571 C 380.855225 18.451172 377.688477 13.992676 373.776245 10.406982 Z"/>
            <path id="path4" fill="#000000" stroke="none" d="M 457.325806 1.462158 L 434.806274 1.462158 L 397.402222 168.929077 L 424.70874 168.929077 L 431.611816 133.740234 L 460.524902 133.740234 L 467.423218 168.929077 L 494.729858 168.929077 L 457.654419 2.913696 L 457.325806 1.462158 Z M 455.432129 107.947632 L 436.473145 107.947632 L 445.954956 59.047729 L 455.432129 107.947632 Z"/>
            <path id="path5" fill="#000000" stroke="none" d="M 564.144531 92.590576 L 531.430298 1.462158 L 505.730347 1.462158 L 505.730347 168.929077 L 532.902588 168.929077 L 532.902588 77.897949 L 566.084473 168.929077 L 591.316895 168.929077 L 591.316895 1.462158 L 564.144531 1.462158 L 564.144531 92.590576 Z"/>
            <path id="path6" fill="#000000" stroke="none" d="M 681.996216 13.080566 C 674.685669 5.369629 663.902832 1.462158 649.948608 1.462158 L 613.359375 1.462158 L 613.359375 168.929077 L 647.874512 168.929077 C 662.268555 168.929077 673.500488 165.077026 681.259888 157.474854 C 689.033325 149.863525 692.973389 138.004272 692.973389 122.223633 L 692.973389 45.637329 C 692.973389 31.717896 689.278809 20.763794 681.996216 13.080566 Z M 665.801147 124.524658 C 665.801147 131.098877 664.551025 135.920898 662.088013 138.856079 C 659.712891 141.696533 655.471924 143.136475 649.485596 143.136475 L 640.531494 143.136475 L 640.531494 27.254761 L 649.485596 27.254761 C 655.731201 27.254761 660.02771 28.782593 662.25 31.791992 C 664.606567 34.979614 665.801147 39.639526 665.801147 45.637329 L 665.801147 124.524658 Z"/>
        </g>
        <path id="path7" fill="#000000" stroke="none" d="M 0.775391 205.255371 L 704.343384 205.255371 L 704.343384 191.032715 L 0.775391 191.032715 L 0.775391 205.255371 Z"/>
        <g id="g1">
            <path id="path8" fill="#000000" stroke="none" d="M 241.263794 271.717407 L 237.62207 262.786011 L 220.776367 262.786011 L 217.134644 271.717407 L 208.203125 271.717407 L 225.272583 231.601074 L 233.353638 231.601074 L 250.423218 271.717407 L 241.263794 271.717407 Z M 229.199219 242.127563 L 223.905396 255.046753 L 234.488892 255.046753 L 229.199219 242.127563 Z"/>
            <path id="path9" fill="#000000" stroke="none" d="M 274.027466 272.344116 C 263.330078 272.344116 256.787109 266.370728 256.787109 254.647949 L 256.787109 231.885864 L 265.547729 231.885864 L 265.547729 254.420044 C 265.547729 260.906128 268.7948 264.263062 274.141479 264.263062 C 279.492188 264.263062 282.735229 261.02002 282.735229 254.704956 L 282.735229 231.885864 L 291.495728 231.885864 L 291.495728 254.363159 C 291.495728 266.427734 284.724976 272.344116 274.027466 272.344116 Z"/>
            <path id="path10" fill="#000000" stroke="none" d="M 321.362305 272.401001 C 309.639526 272.401001 300.931763 263.355591 300.931763 251.917603 L 300.931763 251.803711 C 300.931763 240.479614 309.468628 231.202271 321.700073 231.202271 C 329.211426 231.202271 333.707642 233.708862 337.406372 237.350586 L 331.831909 243.779663 C 328.759766 240.99231 325.626587 239.283325 321.643066 239.283325 C 314.929199 239.283325 310.095215 244.861938 310.095215 251.689819 L 310.095215 251.803711 C 310.095215 258.63147 314.815308 264.319946 321.643066 264.319946 C 326.196289 264.319946 328.983521 262.501099 332.116699 259.65686 L 337.691284 265.288452 C 333.59375 269.670776 329.040527 272.401001 321.362305 272.401001 Z"/>
            <path id="path11" fill="#000000" stroke="none" d="M 364.998413 239.966919 L 364.998413 271.717407 L 356.233765 271.717407 L 356.233765 239.966919 L 344.112183 239.966919 L 344.112183 231.885864 L 377.115845 231.885864 L 377.115845 239.966919 L 364.998413 239.966919 Z"/>
            <path id="path12" fill="#000000" stroke="none" d="M 386.499023 271.717407 L 386.499023 231.885864 L 395.259644 231.885864 L 395.259644 271.717407 L 386.499023 271.717407 Z"/>
            <path id="path13" fill="#000000" stroke="none" d="M 426.835083 272.401001 C 414.546753 272.401001 405.725098 263.241699 405.725098 251.917603 L 405.725098 251.803711 C 405.725098 240.479614 414.660645 231.202271 426.949097 231.202271 C 439.241577 231.202271 448.06311 240.365723 448.06311 251.689819 L 448.06311 251.803711 C 448.06311 263.127808 439.127563 272.401001 426.835083 272.401001 Z M 438.89978 251.803711 C 438.89978 244.975952 433.890747 239.283325 426.835083 239.283325 C 419.779419 239.283325 414.88855 244.861938 414.88855 251.689819 L 414.88855 251.803711 C 414.88855 258.63147 419.893433 264.319946 426.949097 264.319946 C 434.004761 264.319946 438.89978 258.745483 438.89978 251.917603 L 438.89978 251.803711 Z"/>
            <path id="path14" fill="#000000" stroke="none" d="M 486.063599 271.717407 L 466.772461 246.395996 L 466.772461 271.717407 L 458.125854 271.717407 L 458.125854 231.885864 L 466.202759 231.885864 L 484.86731 256.40979 L 484.86731 231.885864 L 493.518066 231.885864 L 493.518066 271.717407 L 486.063599 271.717407 Z"/>
        </g>
    </g>
</svg>
