<?xml version="1.0" encoding="UTF-8"?>
<!DOCTYPE svg PUBLIC "-//W3C//DTD SVG 1.1//EN" "http://www.w3.org/Graphics/SVG/1.1/DTD/svg11.dtd">
<svg version="1.1" xmlns="http://www.w3.org/2000/svg" xmlns:xlink="http://www.w3.org/1999/xlink" x="0" y="0" width="269" height="155" viewBox="0, 0, 269, 155">
  <defs>
    <radialGradient id="Gradient_1" gradientUnits="userSpaceOnUse" cx="135.172" cy="-10.625" r="200.105">
      <stop offset="0" stop-color="#D8272D"/>
      <stop offset="0.221" stop-color="#D8272D"/>
      <stop offset="0.93" stop-color="#A7262A"/>
      <stop offset="1" stop-color="#A7262A"/>
    </radialGradient>
    <linearGradient id="Gradient_2" gradientUnits="userSpaceOnUse" x1="134.39" y1="110.488" x2="134.39" y2="148.656">
      <stop offset="0" stop-color="#D8272D"/>
      <stop offset="0.221" stop-color="#D8272D"/>
      <stop offset="0.93" stop-color="#A7262A"/>
      <stop offset="1" stop-color="#A7262A"/>
    </linearGradient>
    <clipPath id="Clip_1">
      <path d="M-0,0.963 L268.786,0.963 L268.786,154.94 L-0,154.94 z"/>
    </clipPath>
  </defs>
  <g id="Layer_1">
    <path d="M199.293,3.713 L69.493,3.713 C33.36,3.713 2.827,33.183 2.827,69.575 L2.827,86.382 C2.827,122.777 33.36,152.244 69.493,152.244 L199.293,152.244 C235.431,152.244 265.952,122.777 265.952,86.382 L265.952,69.575 C265.952,33.183 235.431,3.713 199.293,3.713" fill="#FFFFFE"/>
    <path d="M255.232,43.481 C255.093,43.195 254.947,42.912 254.804,42.628 C254.534,42.093 254.256,41.561 253.971,41.034 C253.814,40.744 253.656,40.455 253.495,40.167 C253.154,39.564 252.804,38.966 252.443,38.375 C252.338,38.202 252.24,38.025 252.131,37.853 C251.669,37.109 251.186,36.376 250.693,35.653 C250.538,35.427 250.38,35.206 250.222,34.982 C249.85,34.452 249.471,33.928 249.082,33.411 C248.908,33.178 248.734,32.944 248.555,32.714 C248.087,32.108 247.609,31.51 247.119,30.921 C247.034,30.82 246.954,30.715 246.87,30.614 C246.29,29.929 245.696,29.259 245.09,28.6 C244.924,28.42 244.754,28.245 244.587,28.068 C244.12,27.57 243.643,27.079 243.158,26.596 C242.972,26.412 242.787,26.227 242.599,26.044 C242.006,25.468 241.404,24.902 240.787,24.351 C240.731,24.299 240.674,24.245 240.618,24.194 C239.936,23.587 239.239,22.998 238.532,22.421 C238.354,22.277 238.174,22.138 237.996,21.995 C237.444,21.555 236.885,21.124 236.319,20.702 C236.119,20.554 235.921,20.404 235.719,20.258 C235.015,19.748 234.304,19.248 233.579,18.765 C233.544,18.743 233.513,18.72 233.48,18.697 C232.71,18.188 231.927,17.699 231.134,17.223 C230.939,17.105 230.741,16.992 230.544,16.877 C229.928,16.516 229.305,16.165 228.676,15.824 C228.458,15.706 228.243,15.587 228.022,15.472 C227.23,15.054 226.431,14.649 225.619,14.264 C225.599,14.255 225.58,14.244 225.56,14.234 C224.718,13.838 223.865,13.463 223.004,13.102 C222.784,13.01 222.56,12.921 222.337,12.831 C221.676,12.562 221.01,12.304 220.338,12.058 C220.098,11.97 219.86,11.88 219.619,11.795 C218.76,11.491 217.894,11.2 217.02,10.932 C217.001,10.927 216.983,10.921 216.964,10.915 C216.067,10.641 215.161,10.392 214.248,10.158 C213.996,10.093 213.745,10.034 213.494,9.973 C212.803,9.805 212.11,9.648 211.413,9.502 C211.146,9.446 210.88,9.389 210.614,9.337 C209.701,9.158 208.787,8.994 207.863,8.855 C207.844,8.852 207.826,8.848 207.807,8.845 C206.867,8.705 205.917,8.591 204.962,8.491 C204.687,8.462 204.409,8.439 204.131,8.413 C203.419,8.349 202.703,8.295 201.983,8.253 C201.698,8.237 201.414,8.218 201.129,8.206 C200.159,8.163 199.185,8.133 198.204,8.133 L70.58,8.133 C69.599,8.133 68.626,8.163 67.655,8.206 C67.371,8.218 67.086,8.237 66.803,8.253 C66.082,8.295 65.366,8.349 64.653,8.413 C64.376,8.439 64.098,8.462 63.821,8.491 C62.867,8.591 61.918,8.705 60.977,8.845 C60.957,8.849 60.938,8.852 60.919,8.855 C59.996,8.994 59.082,9.159 58.174,9.336 C57.905,9.389 57.637,9.446 57.369,9.503 C56.674,9.648 55.984,9.804 55.297,9.971 C55.042,10.034 54.787,10.094 54.533,10.159 C53.623,10.393 52.718,10.641 51.825,10.914 C51.796,10.922 51.768,10.932 51.74,10.941 C50.876,11.206 50.021,11.492 49.174,11.792 C48.926,11.88 48.68,11.972 48.433,12.063 C47.772,12.306 47.117,12.559 46.466,12.823 C46.233,12.918 46,13.01 45.769,13.107 C44.916,13.465 44.07,13.837 43.236,14.23 C43.192,14.251 43.148,14.274 43.104,14.295 C42.319,14.668 41.546,15.059 40.782,15.462 C40.546,15.586 40.312,15.714 40.078,15.841 C39.472,16.17 38.873,16.507 38.279,16.855 C38.063,16.982 37.844,17.107 37.629,17.236 C36.85,17.705 36.08,18.185 35.324,18.685 C35.25,18.734 35.178,18.786 35.103,18.836 C34.424,19.291 33.755,19.758 33.095,20.237 C32.869,20.401 32.646,20.568 32.421,20.736 C31.889,21.133 31.364,21.539 30.844,21.951 C30.637,22.116 30.428,22.279 30.224,22.446 C29.534,23.008 28.856,23.581 28.192,24.171 C28.083,24.268 27.979,24.37 27.87,24.467 C27.312,24.971 26.763,25.484 26.222,26.008 C26.003,26.219 25.788,26.434 25.573,26.65 C25.13,27.091 24.694,27.541 24.265,27.995 C24.063,28.209 23.859,28.421 23.66,28.637 C23.075,29.275 22.5,29.922 21.941,30.583 C21.804,30.745 21.674,30.913 21.538,31.076 C21.105,31.6 20.681,32.129 20.265,32.665 C20.058,32.934 19.853,33.206 19.65,33.478 C19.302,33.944 18.96,34.415 18.626,34.89 C18.437,35.159 18.244,35.425 18.059,35.697 C17.584,36.395 17.12,37.1 16.673,37.817 C16.526,38.053 16.389,38.295 16.245,38.534 C15.928,39.058 15.616,39.586 15.314,40.12 C15.132,40.443 14.955,40.768 14.779,41.094 C14.519,41.575 14.267,42.06 14.02,42.548 C13.855,42.87 13.689,43.191 13.532,43.517 C13.257,44.085 12.996,44.661 12.739,45.238 L256.042,45.238 C255.778,44.649 255.513,44.061 255.232,43.481 z" fill="url(#Gradient_1)"/>
    <path d="M70.58,147.836 L198.204,147.836 C223.642,147.836 245.562,133.056 255.557,111.773 L13.224,111.773 C23.22,133.056 45.143,147.836 70.58,147.836 z" fill="url(#Gradient_2)"/>
    <g clip-path="url(#Clip_1)">
      <path d="M265.952,86.382 C265.952,122.777 235.431,152.244 199.293,152.244 L69.493,152.244 C33.36,152.244 2.827,122.777 2.827,86.382 L2.827,69.575 C2.827,33.183 33.36,3.713 69.493,3.713 L199.293,3.713 C235.431,3.713 265.952,33.183 265.952,69.575 L265.952,86.382 z M199.293,0.963 L69.493,0.963 C31.767,0.963 -0,31.694 -0,69.575 L-0,86.382 C-0,124.259 31.767,155 69.493,155 L199.293,155 C237.012,155 268.786,124.259 268.786,86.382 L268.786,69.575 C268.786,31.694 237.012,0.963 199.293,0.963" fill="#D8282D"/>
    </g>
    <path d="M205.333,45.306 L205.333,44.986 L205.67,45.306 L205.333,45.306" fill="#FFFFFE"/>
    <path d="M96.003,20.327 L95.612,20.327 C95.612,20.626 95.398,20.838 94.787,20.838 L84.841,20.838 L84.841,21.214 C85.032,21.214 85.229,21.346 85.229,21.6 L85.229,31.215 C85.229,31.471 85.032,31.594 84.841,31.594 L84.841,31.978 L95.008,31.978 C95.438,31.978 95.747,32.019 95.747,32.445 L96.135,32.445 L96.135,29.479 L95.747,29.479 C95.747,29.817 95.438,30.031 95.008,30.031 L87.713,30.031 L87.713,27.109 L91.993,27.109 C92.557,27.109 92.906,27.233 92.906,27.868 L93.305,27.868 L93.305,24.566 L92.906,24.566 C92.906,25.198 92.557,25.281 91.993,25.281 L87.713,25.281 L87.713,22.656 L94.787,22.656 C95.398,22.656 95.612,22.826 95.612,23.126 L96.003,23.126 L96.003,20.327" fill="#FFFFFE"/>
    <path d="M99.371,31.004 L99.678,31.215 L99.938,31.092 C100.172,31.092 102.295,32.108 104.266,32.108 C106.239,32.108 109.015,31.49 109.015,29.042 C109.015,25.281 101.767,26.985 101.767,25.161 C101.767,24.373 102.797,24.098 103.948,24.098 C105.458,24.098 106.759,24.482 107.355,24.966 C107.573,25.138 107.573,25.311 107.586,25.471 L107.983,25.601 L109.076,23.612 L108.836,23.382 C108.663,23.464 108.598,23.548 108.352,23.548 C107.942,23.548 106.759,22.533 104.08,22.533 C101.33,22.533 99.678,23.691 99.678,25.499 C99.678,29.102 106.917,27.45 106.917,29.297 C106.917,30.365 105.018,30.533 104.232,30.533 C103.361,30.533 100.767,29.967 100.767,29.124 L100.786,28.742 L100.375,28.627 L99.371,31.004" fill="#FFFFFE"/>
    <path d="M115.225,31.978 L118.041,31.978 L118.041,31.594 C117.827,31.594 117.65,31.488 117.65,31.281 L117.65,24.224 L120.481,24.224 C120.705,24.224 120.974,24.331 120.974,24.585 L121.365,24.585 L121.365,22.152 L120.974,22.152 C120.974,22.55 120.705,22.656 120.481,22.656 L112.725,22.656 C112.498,22.656 112.237,22.55 112.237,22.152 L111.85,22.152 L111.85,24.585 L112.237,24.585 C112.237,24.331 112.498,24.224 112.725,24.224 L115.557,24.224 L115.557,31.281 C115.557,31.488 115.384,31.594 115.225,31.594 L115.225,31.978" fill="#FFFFFE"/>
    <path d="M121.244,30.598 C121.244,31.426 121.946,32.108 122.792,32.108 C123.643,32.108 124.344,31.426 124.344,30.598 C124.344,29.773 123.643,29.095 122.792,29.095 C121.946,29.095 121.244,29.773 121.244,30.598" fill="#FFFFFE"/>
    <path d="M139.636,31.978 L139.636,31.718 C139.354,31.718 139.069,31.594 139.069,31.128 L139.069,21.431 C139.069,21.154 139.337,21.006 139.684,20.962 L139.684,20.708 L136.15,20.708 L136.15,20.962 C136.48,21.006 136.676,21.091 136.676,21.471 C136.676,21.894 136.279,22.234 135.799,22.234 C135.563,22.234 135.235,22.152 135.235,21.894 L134.973,21.894 L134.973,24.566 L135.235,24.566 C135.384,24.143 136.197,24.054 136.587,24.054 L136.587,31.128 C136.587,31.594 136.327,31.718 136.044,31.718 L136.044,31.978 L139.636,31.978" fill="#FFFFFE"/>
    <path d="M149.119,22.532 C150.535,22.532 151.889,23 151.889,24.46 C151.889,25.92 150.535,26.385 149.119,26.385 C147.711,26.385 146.355,25.92 146.355,24.46 C146.355,23 147.711,22.532 149.119,22.532 M144.038,31.173 C144.126,31.106 144.279,31.045 144.461,31.045 C144.704,31.045 145.043,31.32 145.657,31.578 C146.275,31.829 147.163,32.108 148.469,32.108 C152.227,32.108 154.729,29.67 154.729,26.028 C154.729,22.933 152.525,20.708 149.321,20.708 C146.743,20.708 143.871,21.913 143.871,24.78 C143.871,27.17 146.376,28.119 148.489,28.119 C149.824,28.119 151.058,27.633 152.246,27.046 C152.091,29.224 150.869,30.365 148.617,30.365 C147.679,30.365 146.202,30.066 145.591,29.33 C145.481,29.179 145.439,28.969 145.439,28.823 L145.174,28.693 L143.871,31.03 L144.038,31.173" fill="#FFFFFE"/>
    <path d="M164.333,22.532 C166.361,22.532 167.881,24.181 167.881,26.407 C167.881,28.627 166.361,30.281 164.333,30.281 C162.304,30.281 160.785,28.627 160.785,26.407 C160.785,24.181 162.304,22.532 164.333,22.532 M164.333,20.708 C160.95,20.708 158.29,23.126 158.29,26.407 C158.29,29.691 160.95,32.108 164.333,32.108 C167.716,32.108 170.374,29.691 170.374,26.407 C170.374,23.126 167.716,20.708 164.333,20.708" fill="#FFFFFE"/>
    <path d="M183.548,29.436 C183.548,29.984 183.192,30.031 182.884,30.031 L175.697,30.031 L175.697,29.817 C178.008,27.783 183.192,28.08 183.192,24.143 C183.192,21.661 180.992,20.706 178.766,20.706 C175.389,20.706 173.992,22.742 173.628,22.742 C173.474,22.742 173.364,22.675 173.249,22.613 L173.033,22.766 L175.288,25.089 L175.502,24.947 L175.3,24.438 C175.3,23.252 177.504,22.532 178.491,22.532 C179.468,22.532 180.707,22.851 180.707,24.033 C180.707,26.639 172.904,26.979 172.904,31.471 L172.904,32.292 L173.166,32.292 C173.166,32.039 173.385,31.978 173.709,31.978 L182.884,31.978 C183.192,31.978 183.548,32.019 183.548,32.317 L183.807,32.317 L183.807,29.436 L183.548,29.436" fill="#FFFFFE"/>
    <path d="M78.565,126.556 L82.331,126.556 C84.429,126.556 85.042,127.228 85.042,128.127 C85.042,129.027 84.429,129.711 82.331,129.711 L78.565,129.711 L78.565,126.556 z M75.438,125.115 C75.874,125.115 76.072,125.244 76.072,125.502 L76.072,135.119 C76.072,135.361 75.874,135.492 75.438,135.492 L75.438,135.861 L79.216,135.861 L79.216,135.492 C78.713,135.492 78.565,135.361 78.565,135.119 L78.565,131.367 L81.68,131.367 L84.079,134.648 C84.297,134.935 84.429,135.119 84.429,135.263 C84.429,135.39 84.208,135.492 83.955,135.492 L83.955,135.861 L88.022,135.861 L88.022,135.492 C87.786,135.492 87.476,135.476 87.283,135.205 L84.382,131.195 C86.312,130.853 87.526,129.896 87.526,128.056 C87.526,125.615 85.69,124.73 82.901,124.73 L75.438,124.73 L75.438,125.115" fill="#FFFFFE"/>
    <path d="M103.017,124.216 L102.626,124.216 C102.626,124.517 102.412,124.73 101.8,124.73 L91.849,124.73 L91.849,125.115 C92.053,125.115 92.248,125.244 92.248,125.502 L92.248,135.119 C92.248,135.361 92.053,135.492 91.849,135.492 L91.849,135.877 L102.017,135.877 C102.455,135.877 102.767,135.906 102.767,136.334 L103.156,136.334 L103.156,133.378 L102.767,133.378 C102.767,133.707 102.455,133.921 102.017,133.921 L94.734,133.921 L94.734,131.009 L99.007,131.009 C99.571,131.009 99.923,131.123 99.923,131.767 L100.318,131.767 L100.318,128.47 L99.923,128.47 C99.923,129.097 99.571,129.17 99.007,129.17 L94.734,129.17 L94.734,126.556 L101.8,126.556 C102.412,126.556 102.626,126.728 102.626,127.029 L103.017,127.029 L103.017,124.216" fill="#FFFFFE"/>
    <path d="M112.415,127.613 L114.255,131.552 L110.375,131.552 L112.415,127.613 z M109.131,135.861 L109.131,135.492 C108.912,135.492 108.712,135.39 108.712,135.248 C108.712,135.134 108.802,134.89 108.934,134.621 L109.725,133.107 L115.042,133.107 L115.865,134.691 C115.996,134.92 116.041,135.119 116.041,135.234 C116.041,135.404 115.8,135.492 115.689,135.492 L115.689,135.861 L119.538,135.861 L119.538,135.492 C119.206,135.361 118.958,135.234 118.808,134.935 L114.283,126.33 C114.076,125.959 113.975,125.746 113.975,125.529 C113.975,125.244 114.233,125.16 114.435,125.115 L114.435,124.73 L110.735,124.73 L110.735,125.115 C110.966,125.16 111.225,125.257 111.225,125.529 C111.225,125.746 111.028,126.086 110.835,126.443 L106.801,134.691 C106.596,135.091 106.403,135.449 106.034,135.492 L106.034,135.861 L109.131,135.861" fill="#FFFFFE"/>
    <path d="M133.537,136.334 L133.537,133.378 L133.145,133.378 C133.145,133.707 132.842,133.921 132.408,133.921 L125.158,133.921 L125.158,125.502 C125.158,125.244 125.356,125.115 125.771,125.115 L125.771,124.73 L122.022,124.73 L122.022,125.115 C122.475,125.115 122.678,125.244 122.678,125.502 L122.678,135.119 C122.678,135.361 122.475,135.492 122.022,135.492 L122.022,135.861 L132.408,135.861 C132.842,135.861 133.145,135.906 133.145,136.334 L133.537,136.334" fill="#FFFFFE"/>
    <path d="M140.048,126.685 L143.65,126.685 C143.905,126.685 144.211,126.798 144.211,127.199 L144.606,127.199 L144.606,124.216 L144.211,124.216 C144.211,124.601 143.905,124.73 143.65,124.73 L133.969,124.73 C133.704,124.73 133.393,124.601 133.393,124.216 L133.002,124.216 L133.002,127.199 L133.393,127.199 C133.393,126.798 133.704,126.685 133.969,126.685 L137.563,126.685 L137.563,135.119 C137.563,135.361 137.367,135.492 137.167,135.492 L137.167,135.861 L140.53,135.861 L140.53,135.492 C140.248,135.492 140.048,135.361 140.048,135.119 L140.048,126.685" fill="#FFFFFE"/>
    <path d="M152.935,126.556 C155.172,126.556 157.585,127.9 157.585,130.296 C157.585,132.695 155.172,134.048 152.935,134.048 C150.721,134.048 148.296,132.695 148.296,130.296 C148.296,127.9 150.721,126.556 152.935,126.556 M152.935,124.601 C149.765,124.601 145.893,126.429 145.893,130.296 C145.893,134.177 149.765,136.005 152.935,136.005 C156.127,136.005 159.986,134.177 159.986,130.296 C159.986,126.429 156.127,124.601 152.935,124.601" fill="#FFFFFE"/>
    <path d="M166.285,126.556 L170.054,126.556 C172.148,126.556 172.753,127.228 172.753,128.127 C172.753,129.027 172.148,129.711 170.054,129.711 L166.285,129.711 L166.285,126.556 z M163.167,125.115 C163.594,125.115 163.802,125.244 163.802,125.502 L163.802,135.119 C163.802,135.361 163.594,135.492 163.167,135.492 L163.167,135.861 L166.938,135.861 L166.938,135.492 C166.441,135.492 166.285,135.361 166.285,135.119 L166.285,131.367 L169.401,131.367 L171.801,134.648 C172.023,134.935 172.148,135.119 172.148,135.263 C172.148,135.39 171.93,135.492 171.674,135.492 L171.674,135.861 L175.742,135.861 L175.742,135.492 C175.504,135.492 175.203,135.476 175.004,135.205 L172.109,131.195 C174.027,130.853 175.247,129.896 175.247,128.056 C175.247,125.615 173.412,124.73 170.627,124.73 L163.167,124.73 L163.167,125.115" fill="#FFFFFE"/>
    <path d="M179.378,135.119 L179.662,134.935 C180.317,134.935 181.231,136.005 184.588,136.005 C186.948,136.005 190.538,135.277 190.538,132.365 C190.538,127.269 181.685,130.423 181.685,127.728 C181.685,126.785 183.283,126.429 184.568,126.429 C186.251,126.429 188.081,127.128 188.537,127.785 C188.621,127.9 188.679,128.07 188.711,128.269 L188.931,128.357 L190.438,125.714 L190.171,125.529 C190.088,125.615 189.952,125.658 189.738,125.658 C188.993,125.658 187.535,124.601 184.501,124.601 C180.886,124.601 179.198,126.357 179.198,128.127 C179.198,133.308 188.054,130.068 188.054,132.666 C188.054,133.949 185.505,134.177 184.544,134.177 C183.172,134.177 181.012,133.537 180.575,132.822 L180.483,132.48 L180.267,132.378 L179.074,134.935 L179.378,135.119" fill="#FFFFFE"/>
    <path d="M196.334,129.17 C194.746,129.17 193.585,127.828 193.585,126.216 C193.585,124.601 194.746,123.248 196.334,123.248 C197.932,123.248 199.088,124.601 199.088,126.216 C199.088,127.828 197.919,129.17 196.334,129.17 M196.334,129.711 C198.362,129.711 199.86,128.185 199.86,126.216 C199.86,124.246 198.362,122.705 196.334,122.705 C194.321,122.705 192.808,124.246 192.808,126.216 C192.808,128.185 194.321,129.711 196.334,129.711 M195.963,124.503 L196.301,124.503 C196.645,124.503 196.893,124.689 196.893,125.257 C196.893,125.687 196.747,126.144 196.277,126.144 L195.963,126.144 L195.963,124.503 z M194.643,124.445 C195.106,124.472 195.106,124.531 195.106,124.859 L195.106,127.371 C195.106,127.728 195.106,127.771 194.643,127.798 L194.643,128 L196.415,128 L196.415,127.798 C195.95,127.771 195.963,127.728 195.963,127.371 L195.963,126.371 L196.301,126.371 C196.777,127.115 197.069,128 197.398,128 L198.257,128 L198.257,127.9 C198.062,127.685 197.81,127.371 197.58,127.07 L196.997,126.244 C197.488,126.101 197.792,125.687 197.792,125.23 C197.792,124.56 197.277,124.259 196.645,124.259 L194.643,124.259 L194.643,124.445" fill="#FFFFFE"/>
    <path d="M20.882,71.705 L22.118,71.624 L22.252,70.711 C20.835,70.74 19.358,70.791 17.914,70.791 C16.629,70.791 15.314,70.74 13.926,70.711 L13.792,71.624 L15.16,71.705 C15.878,71.756 16.144,71.962 16.174,72.429 C16.174,72.825 16.064,73.336 15.902,74.358 L13.335,89.324 C13.067,90.864 12.931,92.834 11.274,92.834 C10.897,92.834 10.685,92.788 10.31,92.633 L10.335,93.536 C10.685,93.669 11.274,93.799 11.732,93.799 C13.978,93.799 16.473,90.446 17.026,87.304 L19.656,72.85 C19.841,71.831 20.079,71.756 20.882,71.705" fill="#1B2644"/>
    <path d="M20.752,84.912 C19.438,84.912 18.769,86.108 18.769,87.253 C18.769,88.24 19.545,88.855 20.533,88.855 C21.882,88.855 22.487,87.641 22.487,86.496 C22.487,85.458 21.768,84.912 20.752,84.912" fill="#1B2644"/>
    <path d="M35.153,70.711 C33.339,70.74 31.457,70.793 30.116,70.793 C28.73,70.793 27.308,70.74 25.649,70.711 L25.51,71.541 L27.013,71.625 C28.083,71.674 28.379,71.883 28.195,72.977 L25.996,84.984 C25.756,86.309 25.574,86.808 25.46,87.016 C25.278,87.406 24.919,87.482 24.551,87.512 L23.246,87.589 L23.126,88.496 C24.57,88.476 25.996,88.42 27.394,88.42 C28.698,88.42 29.982,88.476 31.697,88.496 L31.807,87.589 L30.225,87.512 C29.398,87.458 29.241,87.17 29.241,86.758 C29.241,86.416 29.262,86.108 29.319,85.823 L31.857,71.906 C32.421,71.862 33.01,71.831 33.811,71.831 C35.415,71.831 37.318,72.405 37.318,75 C37.318,77.526 35.922,80.047 33.308,80.047 C32.669,80.047 32.045,79.945 31.482,79.738 L31.531,80.647 C32.395,80.958 33.274,81.118 34.18,81.118 C37.615,81.118 40.852,78.536 40.852,75.032 C40.852,71.933 38.785,70.665 35.153,70.711" fill="#1B2644"/>
    <path d="M34.857,84.912 C33.544,84.912 32.877,86.108 32.877,87.253 C32.877,88.24 33.653,88.855 34.641,88.855 C35.984,88.855 36.601,87.641 36.601,86.496 C36.601,85.458 35.873,84.912 34.857,84.912" fill="#1B2644"/>
    <path d="M231.478,77.639 C235.505,77.639 242.389,75.111 242.389,69.35 C242.389,68.033 241.605,66.998 240.604,66.786 L240.604,66.716 L242.904,66.235 C244.638,65.848 246.419,64.707 246.419,61.624 C246.419,60.342 245.697,59.336 244.611,58.818 L244.181,59.679 C244.793,59.923 245.271,60.517 245.271,61.238 C245.271,62.872 244.181,63.525 241.754,63.945 L238.119,64.568 C236.776,64.811 235.052,65.574 234.352,66.514 L234.059,70.15 L234.776,70.15 L234.897,69.632 C235.239,68.241 235.814,67.412 236.993,67.412 C238.598,67.412 239.628,68.52 239.628,70.219 C239.628,73.924 236.48,75.798 233.627,75.798 C230.471,75.798 227.622,74.003 227.622,69.976 C227.622,66.235 230.291,64.195 233.325,64.195 C233.594,64.195 233.872,64.195 234.147,64.296 L234.568,62.317 C234.295,62.317 234.023,62.353 233.781,62.353 C232.048,62.353 230.383,61.03 230.383,58.925 C230.383,56.56 231.78,54.863 233.872,54.863 C234.897,54.863 235.963,55.247 237.025,56.288 L237.025,58.361 L237.939,58.361 C237.96,56.844 238.232,55.384 238.573,53.93 C237.538,53.2 236.205,52.963 235.021,52.963 C233.236,52.963 231.629,53.865 230.228,55.075 C228.801,56.288 227.408,57.778 227.408,60.029 C227.408,61.936 228.595,63.421 230.228,63.633 L230.228,63.698 C227.229,64.744 224.079,66.853 224.079,70.943 C224.079,75.902 227.776,77.639 231.478,77.639" fill="#1B2644"/>
    <path d="M230.299,83.496 C230.299,82.833 230.431,82.076 230.554,81.585 C230.487,81.534 229.881,81.008 228.845,81.008 C227.792,81.008 227.025,81.694 226.746,81.966 C226.46,82.255 225.856,83.015 225.856,84.172 C225.856,85.604 226.676,85.976 227.697,86.407 C228.669,86.798 229.096,86.978 229.096,88.006 C229.096,88.709 228.745,89.538 227.529,89.538 C226.324,89.538 225.907,88.855 225.791,88.571 L225.791,87.589 L225.48,87.589 L225.241,89.748 C225.746,90.149 226.422,90.267 227.09,90.267 C228.151,90.267 228.801,89.88 229.427,89.212 C229.76,88.855 230.299,87.964 230.299,87.041 C230.299,85.586 229.346,85.253 228.358,84.837 C227.621,84.521 226.904,84.196 226.904,83.173 C226.904,82.325 227.607,81.743 228.371,81.743 C229.121,81.743 229.615,82.03 229.959,82.393 L229.959,83.496 L230.299,83.496" fill="#1B2644"/>
    <path d="M238.226,84.355 C238.226,86.505 237.503,89.703 235.177,89.703 C233.76,89.703 233.199,88.522 233.199,87.07 C233.199,84.969 233.809,81.576 236.161,81.576 C237.72,81.576 238.226,82.726 238.226,84.355 z M231.633,86.667 C231.633,88.958 232.918,90.267 234.899,90.267 C237.763,90.267 239.795,87.792 239.795,84.547 C239.795,82.255 238.3,81.008 236.391,81.008 C233.478,81.008 231.633,83.406 231.633,86.667" fill="#1B2644"/>
    <path d="M249.449,81.2 C248.997,81.211 248.548,81.241 248.102,81.241 C247.663,81.241 247.204,81.211 246.764,81.2 L246.712,81.616 L247.179,81.647 C247.419,81.671 247.704,81.763 247.704,82.042 C247.704,82.202 247.704,82.613 247.638,83.006 L246.797,88.202 L243.231,81.2 C242.814,81.211 242.418,81.241 242.002,81.241 C241.597,81.241 241.192,81.211 240.779,81.2 L240.749,81.616 L241.192,81.647 C241.425,81.671 241.853,81.822 242.052,82.234 L242.124,82.538 L241.019,88.855 C240.931,89.398 240.801,89.575 240.565,89.587 L240.02,89.632 L239.994,90.088 C240.44,90.074 240.87,90.042 241.312,90.042 C241.742,90.042 242.162,90.074 242.578,90.088 L242.65,89.632 L242.062,89.587 C241.742,89.565 241.657,89.304 241.657,89.069 C241.657,88.854 241.696,88.632 241.749,88.248 L242.578,83.102 L246.097,90.088 L247.059,90.088 C247.112,89.649 247.171,89.198 247.253,88.742 L248.223,83.184 C248.378,82.309 248.467,81.934 248.548,81.822 C248.627,81.702 248.772,81.666 248.958,81.647 L249.378,81.616 L249.449,81.2" fill="#1B2644"/>
    <path d="M250.818,81.966 C250.538,82.255 249.942,83.015 249.942,84.172 C249.942,85.604 250.754,85.976 251.776,86.407 C252.745,86.798 253.177,86.978 253.177,88.006 C253.177,88.709 252.818,89.538 251.605,89.538 C250.403,89.538 249.98,88.855 249.87,88.571 L249.87,87.589 L249.562,87.589 L249.327,89.748 C249.818,90.149 250.504,90.267 251.161,90.267 C252.23,90.267 252.877,89.88 253.503,89.212 C253.841,88.855 254.385,87.964 254.385,87.041 C254.385,85.586 253.419,85.253 252.44,84.837 C251.699,84.521 250.98,84.196 250.98,83.173 C250.98,82.325 251.689,81.743 252.446,81.743 C253.198,81.743 253.704,82.03 254.041,82.393 L254.041,83.496 L254.385,83.496 C254.385,82.833 254.505,82.076 254.633,81.585 C254.569,81.534 253.962,81.008 252.93,81.008 C251.871,81.008 251.099,81.694 250.818,81.966" fill="#1B2644"/>
    <path d="M229.243,94.199 C228.648,94.208 228.022,94.23 227.401,94.23 C226.855,94.23 226.306,94.208 225.711,94.199 L225.666,94.652 L226.249,94.687 C226.56,94.717 226.678,94.819 226.691,95.05 C226.691,95.252 226.664,95.502 226.582,96.015 L225.761,101.324 C225.666,101.986 225.587,102.238 225.536,102.341 C225.463,102.529 225.308,102.574 225.156,102.584 L224.593,102.627 L224.547,103.076 C225.169,103.064 225.761,103.041 226.357,103.041 C226.913,103.041 227.457,103.064 228.182,103.076 L228.23,102.627 L227.57,102.584 C227.209,102.566 227.138,102.416 227.138,102.211 C227.138,102.046 227.15,101.884 227.178,101.742 L228.165,95.26 C228.24,94.751 228.347,94.717 228.686,94.687 L229.204,94.652 L229.243,94.199" fill="#1B2644"/>
    <path d="M235.608,94.199 L235.55,94.608 L236.034,94.652 C236.269,94.673 236.557,94.767 236.557,95.04 C236.557,95.194 236.557,95.615 236.492,95.998 L235.646,101.201 L232.079,94.199 C231.666,94.208 231.267,94.23 230.863,94.23 C230.454,94.23 230.041,94.208 229.629,94.199 L229.595,94.608 L230.041,94.652 C230.281,94.673 230.71,94.819 230.905,95.234 L230.975,95.533 L229.878,101.861 C229.786,102.39 229.651,102.574 229.414,102.584 L228.871,102.627 L228.845,103.078 C229.293,103.064 229.725,103.041 230.158,103.041 C230.589,103.041 231.018,103.064 231.437,103.078 L231.5,102.627 L230.915,102.584 C230.589,102.566 230.504,102.306 230.504,102.07 C230.504,101.845 230.538,101.632 230.595,101.246 L231.429,96.109 L234.95,103.078 L235.915,103.078 C235.963,102.646 236.026,102.201 236.098,101.742 L237.083,96.181 C237.231,95.311 237.317,94.931 237.394,94.819 C237.477,94.701 237.628,94.666 237.808,94.652 L238.226,94.608 L238.3,94.199 C237.853,94.208 237.394,94.23 236.958,94.23 C236.511,94.23 236.056,94.208 235.608,94.199" fill="#1B2644"/>
    <path d="M238.388,99.767 C238.388,102.17 239.519,103.265 241.589,103.265 C242.674,103.265 243.714,102.72 244.611,102.046 L244.752,101.535 L244.65,101.423 L244.401,101.591 C243.688,102.05 242.994,102.416 242.164,102.416 C240.599,102.416 239.967,101.375 239.967,99.664 C239.967,97.412 240.534,94.782 242.872,94.782 C243.304,94.782 244.104,94.95 244.495,95.223 C244.65,95.325 244.752,95.45 244.74,95.615 L244.681,96.753 L245.08,96.753 C245.15,96.025 245.326,95.311 245.514,94.568 C244.85,94.182 244.001,94.015 243.324,94.015 C240.551,94.015 238.388,96.666 238.388,99.767" fill="#1B2644"/>
    <path d="M246.672,101.287 C246.114,101.287 245.83,101.884 245.83,102.457 C245.83,102.945 246.159,103.265 246.58,103.265 C247.15,103.265 247.409,102.646 247.409,102.076 C247.409,101.56 247.099,101.287 246.672,101.287" fill="#1B2644"/>
    <path d="M67.996,83.357 L64.335,52.357 L58.411,52.357 L54.755,82.255 L50.937,52.357 L44.033,52.357 L50.937,104.972 L57.676,104.972 L61.251,76.657 L65.235,104.972 L71.813,104.972 L78.717,52.357 L71.813,52.357 L67.996,83.357" fill="#1B2644"/>
    <path d="M89.292,80.83 L96.774,80.83 L96.774,73.97 L89.292,73.97 L89.292,59.219 L100.017,59.219 L100.017,52.357 L81.741,52.357 L81.741,104.972 L100.663,104.972 L100.663,98.105 L89.292,98.105 L89.292,80.83" fill="#1B2644"/>
    <path d="M103.774,52.358 L111.326,52.358 L111.326,104.972 L103.774,104.972 z" fill="#1B2644"/>
    <path d="M126.558,51.563 C119.489,51.563 115.918,55.827 115.918,64.195 L115.918,92.036 C115.918,96.765 116.245,98.888 117.462,101.107 C118.997,103.871 122.004,105.759 125.094,105.759 C127.771,105.759 130.045,104.337 132.163,101.343 L133.299,104.972 L137.365,104.972 L137.365,78.231 L126.479,78.231 L126.479,84.46 L129.803,84.46 L129.803,92.036 C129.803,94.95 129.803,95.427 129.56,96.451 C129.237,97.957 128.018,98.98 126.479,98.98 C125.182,98.98 124.043,98.033 123.714,96.607 C123.467,95.583 123.467,95.502 123.467,92.036 L123.467,64.195 C123.467,59.613 124.117,58.427 126.558,58.427 C129.237,58.427 129.968,60.008 129.968,65.926 C129.968,67.024 129.968,67.821 129.803,69.468 L137.365,69.468 C137.527,67.421 137.527,66.405 137.527,65.296 C137.527,56.141 133.876,51.563 126.558,51.563" fill="#1B2644"/>
    <path d="M150.803,86.272 L153.396,61.894 L156.001,86.272 L150.803,86.272 z M148.767,52.358 L141.377,104.972 L148.683,104.972 L149.99,93.145 L156.808,93.145 L158.191,104.972 L165.582,104.972 L158.522,52.358 L148.767,52.358" fill="#1B2644"/>
    <path d="M185.678,83.357 L175.684,52.357 L169.191,52.357 L169.191,104.972 L176.746,104.972 L176.746,77.366 L185.678,104.972 L193.239,104.972 L193.239,52.357 L185.678,52.357 L185.678,83.357" fill="#1B2644"/>
    <path d="M211.774,92.819 C211.774,96.925 210.558,98.105 206.414,98.105 L205.445,98.105 L205.445,59.219 L206.414,59.219 C210.476,59.219 211.774,60.479 211.774,64.507 L211.774,92.819 z M205.926,52.358 L197.882,52.358 L197.882,104.972 L205.926,104.972 C211.205,104.972 213.649,104.263 215.919,102.046 C218.187,99.92 219.333,96.765 219.333,92.819 L219.333,64.507 C219.333,60.561 218.187,57.396 215.919,55.274 C213.649,53.068 211.205,52.358 205.926,52.358" fill="#1B2644"/>
    <path d="M261.334,85.894 C261.334,94.075 259.704,101.877 256.767,109.025 L12.015,109.025 C9.078,101.877 7.445,94.075 7.445,85.894 L7.445,70.061 C7.445,62.282 8.921,54.847 11.59,47.989 L257.191,47.989 C259.859,54.847 261.334,62.282 261.334,70.061 L261.334,85.894 z M198.204,147.836 L70.58,147.836 C45.143,147.836 23.22,133.056 13.224,111.773 L255.557,111.773 C245.562,133.056 223.642,147.836 198.204,147.836 z M13.532,43.517 C13.689,43.191 13.855,42.87 14.02,42.548 C14.267,42.06 14.519,41.575 14.779,41.094 C14.955,40.768 15.132,40.443 15.314,40.12 C15.616,39.586 15.928,39.058 16.245,38.534 C16.389,38.295 16.526,38.053 16.673,37.817 C17.12,37.1 17.584,36.395 18.059,35.697 C18.244,35.425 18.437,35.159 18.626,34.89 C18.96,34.415 19.302,33.944 19.65,33.478 C19.853,33.206 20.058,32.934 20.265,32.665 C20.681,32.129 21.105,31.6 21.538,31.076 C21.674,30.913 21.804,30.745 21.941,30.583 C22.5,29.922 23.075,29.275 23.66,28.637 C23.859,28.421 24.063,28.209 24.265,27.995 C24.694,27.541 25.13,27.091 25.573,26.65 C25.788,26.434 26.003,26.219 26.222,26.008 C26.763,25.484 27.312,24.971 27.87,24.467 C27.979,24.37 28.083,24.268 28.192,24.171 C28.856,23.581 29.534,23.008 30.224,22.446 C30.428,22.279 30.637,22.116 30.844,21.951 C31.364,21.539 31.889,21.133 32.421,20.736 C32.646,20.568 32.869,20.401 33.095,20.237 C33.755,19.758 34.424,19.291 35.103,18.836 C35.178,18.786 35.25,18.734 35.324,18.685 C36.08,18.185 36.85,17.705 37.629,17.236 C37.844,17.107 38.063,16.982 38.279,16.855 C38.873,16.507 39.472,16.17 40.078,15.841 C40.312,15.714 40.546,15.586 40.782,15.462 C41.546,15.059 42.319,14.668 43.104,14.295 C43.148,14.274 43.192,14.251 43.236,14.23 C44.07,13.837 44.916,13.465 45.769,13.107 C46,13.01 46.233,12.918 46.466,12.823 C47.117,12.559 47.772,12.306 48.433,12.063 C48.68,11.972 48.926,11.88 49.174,11.792 C50.021,11.492 50.876,11.206 51.74,10.941 C51.768,10.932 51.796,10.922 51.825,10.914 C52.718,10.641 53.623,10.393 54.533,10.159 C54.787,10.094 55.042,10.034 55.297,9.971 C55.984,9.804 56.674,9.648 57.369,9.503 C57.637,9.446 57.905,9.389 58.174,9.336 C59.082,9.159 59.996,8.994 60.919,8.855 C60.938,8.852 60.957,8.849 60.977,8.845 C61.918,8.705 62.867,8.591 63.821,8.491 C64.098,8.462 64.376,8.439 64.653,8.413 C65.366,8.349 66.082,8.295 66.803,8.253 C67.086,8.237 67.371,8.218 67.655,8.206 C68.626,8.163 69.599,8.133 70.58,8.133 L198.204,8.133 C199.185,8.133 200.159,8.163 201.129,8.206 C201.414,8.218 201.698,8.237 201.983,8.253 C202.703,8.295 203.419,8.349 204.131,8.413 C204.409,8.439 204.687,8.462 204.962,8.491 C205.917,8.591 206.867,8.705 207.807,8.845 C207.826,8.848 207.844,8.852 207.863,8.855 C208.787,8.994 209.701,9.158 210.614,9.337 C210.88,9.389 211.146,9.446 211.413,9.502 C212.11,9.648 212.803,9.805 213.494,9.973 C213.745,10.034 213.996,10.093 214.248,10.158 C215.161,10.392 216.067,10.641 216.964,10.915 C216.983,10.921 217.001,10.927 217.02,10.932 C217.894,11.2 218.76,11.491 219.619,11.795 C219.86,11.88 220.098,11.97 220.338,12.058 C221.01,12.304 221.676,12.562 222.337,12.831 C222.56,12.921 222.784,13.01 223.004,13.102 C223.865,13.463 224.718,13.838 225.56,14.234 C225.58,14.244 225.599,14.255 225.619,14.264 C226.431,14.649 227.23,15.054 228.022,15.472 C228.243,15.587 228.458,15.706 228.676,15.824 C229.305,16.165 229.928,16.516 230.544,16.877 C230.741,16.992 230.939,17.105 231.134,17.223 C231.927,17.699 232.71,18.188 233.48,18.697 C233.513,18.72 233.544,18.743 233.579,18.765 C234.304,19.248 235.015,19.748 235.719,20.258 C235.921,20.404 236.119,20.554 236.319,20.702 C236.885,21.124 237.444,21.555 237.996,21.995 C238.174,22.138 238.354,22.277 238.532,22.421 C239.239,22.998 239.936,23.587 240.618,24.194 C240.674,24.245 240.731,24.299 240.787,24.351 C241.404,24.902 242.006,25.468 242.599,26.044 C242.787,26.227 242.972,26.412 243.158,26.596 C243.643,27.079 244.12,27.57 244.587,28.068 C244.754,28.245 244.924,28.42 245.09,28.6 C245.696,29.259 246.29,29.929 246.87,30.614 C246.954,30.715 247.034,30.82 247.119,30.921 C247.609,31.51 248.087,32.108 248.555,32.714 C248.734,32.944 248.908,33.178 249.082,33.411 C249.471,33.928 249.85,34.452 250.222,34.982 C250.38,35.206 250.538,35.427 250.693,35.653 C251.186,36.376 251.669,37.109 252.131,37.853 C252.24,38.025 252.338,38.202 252.443,38.375 C252.804,38.966 253.154,39.564 253.495,40.167 C253.656,40.455 253.814,40.744 253.971,41.034 C254.256,41.561 254.534,42.093 254.804,42.628 C254.947,42.912 255.093,43.195 255.232,43.481 C255.513,44.061 255.778,44.649 256.042,45.238 L12.739,45.238 C12.996,44.661 13.257,44.085 13.532,43.517 z M259.336,45.765 L259.347,45.765 C259.304,45.659 259.255,45.558 259.211,45.453 C259.025,45.008 258.831,44.569 258.634,44.13 C258.449,43.714 258.257,43.301 258.064,42.89 C258.063,42.887 258.06,42.882 258.058,42.878 C257.855,42.45 257.655,42.022 257.443,41.599 C257.199,41.112 256.942,40.631 256.686,40.15 C256.357,39.534 256.018,38.923 255.671,38.318 C255.413,37.873 255.158,37.427 254.891,36.987 C254.649,36.591 254.402,36.2 254.153,35.81 C253.897,35.411 253.638,35.014 253.375,34.621 C253.12,34.24 252.866,33.86 252.602,33.485 C252.293,33.044 251.975,32.612 251.655,32.178 C251.276,31.664 250.888,31.155 250.494,30.652 C250.133,30.192 249.771,29.733 249.397,29.282 C249.114,28.942 248.825,28.608 248.535,28.272 C248.211,27.899 247.884,27.528 247.553,27.162 C247.257,26.833 246.958,26.506 246.654,26.183 C246.28,25.785 245.896,25.395 245.51,25.006 C245.171,24.664 244.833,24.322 244.488,23.988 C243.949,23.466 243.401,22.953 242.843,22.45 C242.537,22.174 242.225,21.905 241.913,21.635 C241.511,21.287 241.109,20.942 240.699,20.603 C240.374,20.336 240.048,20.07 239.721,19.808 C239.271,19.45 238.814,19.102 238.355,18.755 C238.067,18.539 237.784,18.317 237.494,18.105 C236.787,17.59 236.069,17.09 235.34,16.602 C235.033,16.397 234.72,16.201 234.411,16.002 C233.921,15.685 233.429,15.374 232.93,15.07 C232.594,14.865 232.255,14.663 231.915,14.465 C231.388,14.156 230.853,13.858 230.316,13.563 C230.021,13.4 229.73,13.236 229.433,13.078 C228.632,12.655 227.825,12.249 227.004,11.858 C226.726,11.726 226.443,11.603 226.164,11.473 C225.568,11.2 224.968,10.932 224.363,10.675 C224.028,10.533 223.692,10.395 223.355,10.258 C222.749,10.014 222.14,9.779 221.528,9.552 C221.23,9.442 220.935,9.327 220.636,9.221 C219.751,8.907 218.856,8.609 217.953,8.331 C217.739,8.265 217.519,8.207 217.302,8.143 C216.591,7.932 215.877,7.732 215.156,7.545 C215.143,7.542 215.13,7.538 215.119,7.535 C214.795,7.451 214.47,7.372 214.146,7.292 C213.469,7.128 212.789,6.974 212.105,6.83 C211.808,6.768 211.513,6.702 211.214,6.644 C210.256,6.455 209.29,6.283 208.316,6.136 C208.186,6.116 208.057,6.103 207.929,6.084 C207.066,5.959 206.199,5.852 205.327,5.76 C205.013,5.727 204.701,5.7 204.384,5.672 C203.657,5.605 202.922,5.55 202.188,5.508 C201.88,5.489 201.577,5.469 201.268,5.455 C200.253,5.41 199.233,5.379 198.204,5.379 L70.58,5.379 C69.552,5.379 68.531,5.41 67.515,5.455 C67.209,5.469 66.905,5.489 66.6,5.508 C65.861,5.55 65.127,5.605 64.396,5.672 C64.084,5.7 63.772,5.727 63.461,5.76 C62.581,5.853 61.705,5.961 60.836,6.087 C60.716,6.105 60.594,6.117 60.474,6.135 C59.495,6.282 58.525,6.456 57.561,6.645 C57.272,6.702 56.987,6.765 56.7,6.826 C56.002,6.972 55.309,7.129 54.62,7.297 C54.307,7.373 53.994,7.449 53.682,7.531 C53.665,7.535 53.647,7.54 53.629,7.545 C52.89,7.737 52.155,7.941 51.427,8.158 C51.234,8.216 51.038,8.267 50.846,8.326 C49.931,8.607 49.025,8.91 48.128,9.229 C47.854,9.325 47.584,9.43 47.311,9.531 C46.668,9.769 46.03,10.015 45.395,10.273 C45.081,10.4 44.768,10.529 44.456,10.661 C43.811,10.934 43.172,11.219 42.539,11.511 C42.295,11.623 42.048,11.731 41.807,11.845 C40.968,12.244 40.141,12.661 39.323,13.093 C39.066,13.229 38.814,13.373 38.559,13.512 C37.975,13.831 37.395,14.156 36.823,14.492 C36.515,14.672 36.208,14.855 35.903,15.04 C35.356,15.372 34.816,15.713 34.28,16.061 C34.013,16.234 33.744,16.402 33.479,16.579 C32.728,17.082 31.986,17.597 31.256,18.13 C31.021,18.301 30.792,18.482 30.559,18.656 C30.038,19.047 29.522,19.443 29.013,19.848 C28.722,20.08 28.434,20.316 28.147,20.552 C27.686,20.933 27.231,21.32 26.782,21.712 C26.514,21.945 26.244,22.176 25.981,22.413 C25.321,23.008 24.672,23.611 24.038,24.23 C23.836,24.427 23.641,24.633 23.441,24.833 C22.981,25.296 22.525,25.761 22.079,26.236 C21.816,26.516 21.558,26.799 21.3,27.083 C20.915,27.507 20.538,27.936 20.164,28.369 C19.919,28.654 19.672,28.939 19.431,29.228 C18.947,29.81 18.475,30.401 18.011,31 C17.784,31.294 17.562,31.59 17.34,31.888 C16.93,32.436 16.526,32.99 16.134,33.552 C15.913,33.867 15.699,34.187 15.485,34.506 C15.168,34.976 14.859,35.45 14.555,35.928 C14.347,36.255 14.14,36.581 13.938,36.91 C13.585,37.491 13.243,38.079 12.907,38.672 C12.731,38.981 12.554,39.292 12.383,39.605 C12.008,40.292 11.646,40.984 11.296,41.686 C11.129,42.021 10.97,42.36 10.809,42.698 C10.751,42.82 10.697,42.943 10.64,43.064 C10.45,43.469 10.26,43.874 10.078,44.283 C9.923,44.633 9.768,44.984 9.619,45.337 C9.559,45.48 9.492,45.621 9.432,45.765 L9.447,45.765 C6.341,53.27 4.617,61.467 4.617,70.061 L4.617,85.894 C4.617,95.888 6.931,105.351 11.059,113.802 C19.448,130.976 35.34,143.947 54.58,148.648 C59.704,149.9 65.06,150.574 70.58,150.574 L198.204,150.574 C203.724,150.574 209.081,149.9 214.205,148.648 C233.388,143.962 249.244,131.054 257.652,113.957 C261.827,105.468 264.167,95.949 264.167,85.894 L264.167,70.061 C264.167,61.467 262.442,53.27 259.336,45.765" fill="#1B2644"/>
  </g>
</svg>
