<?xml version="1.0" encoding="UTF-8"?>
<!DOCTYPE svg PUBLIC "-//W3C//DTD SVG 1.1//EN" "http://www.w3.org/Graphics/SVG/1.1/DTD/svg11.dtd">
<svg version="1.1" xmlns="http://www.w3.org/2000/svg" xmlns:xlink="http://www.w3.org/1999/xlink" x="0" y="0" width="800" height="300" viewBox="0, 0, 800, 300">
  <g id="Layer_1">
    <path d="M0,0 L806,0 L806,300 L0,300 L0,0 z" fill="#E7BC38" display="none"/>
    <g>
      <text transform="matrix(1, 0, 0, 1, 357.609, 162.5)">
        <tspan x="-68.609" y="78.5" font-family="AvenirNextCondensed-Heavy" font-size="250" fill="#C93234">H</tspan>
      </text>
      <path d="M380,173.25 L356,173.25 L356,241 L302,241 L302,64 L356,64 L356,124.5 L380,124.5 L380,64 L434,64 L434,241 L380,241 z" fill-opacity="0" stroke="#000000" stroke-width="8"/>
    </g>
    <g>
      <path d="M257.111,191.055 C255.56,188.031 253.257,185.456 250.423,183.579 C250.918,185.519 251.136,187.52 251.069,189.522 C253.125,189.851 255.147,190.364 257.111,191.055 z M230.087,202.012 C230.589,202.071 231.103,202.112 231.644,202.129 C233.475,202.179 235.496,201.977 237.516,201.636 C237.981,199.343 238.485,196.242 238.664,192.955 C236.66,193.088 234.517,193.331 232.239,193.708 C231.971,196.574 231.244,199.377 230.087,202.012 z M221.186,196.426 C222.416,198.929 225.011,201.078 228.943,201.84 C229.168,199.855 229.381,197.164 229.341,194.256 C226.586,194.836 223.865,195.561 221.186,196.426 z M239.055,201.355 C241.595,200.835 244.107,200.182 246.578,199.399 C246.963,197.598 247.327,195.401 247.489,193.061 C245.541,192.878 243.584,192.801 241.628,192.831 C241.231,195.791 240.363,198.669 239.055,201.355 z M250.567,193.465 C250.161,195.276 249.54,197.033 248.719,198.698 C249.758,198.341 250.375,198.105 250.375,198.105 L257.158,195.152 C255.639,194.598 253.435,193.938 250.567,193.465 z M240.857,180.043 C240.787,180.032 240.723,180.029 240.656,180.018 C241.165,181.743 241.92,184.961 241.9,188.947 C243.78,188.9 245.661,188.95 247.536,189.097 C247.387,186.308 246.809,183.536 245.518,181.189 C244.002,180.667 242.442,180.283 240.857,180.043 z M227.102,182.278 C222.026,185.531 220.469,190.912 220.365,192.548 C223.255,191.703 226.181,190.989 229.135,190.411 C228.852,187.551 228.233,184.705 227.102,182.278 z M230.38,180.709 C231.518,183.629 232.176,186.715 232.328,189.846 C234.443,189.509 236.572,189.262 238.708,189.105 C238.579,185.685 237.965,182.333 236.47,179.714 C234.129,179.737 232.117,180.107 230.38,180.709 z M199.465,150.738 C192.961,151.871 186.856,148.036 185.833,142.173 C184.989,137.337 187.235,133.104 191.697,131.129 C190.097,130.086 188.451,129.116 186.765,128.221 C181.181,131.555 177.933,138.081 179.119,144.875 C180.65,153.672 189.022,159.559 197.821,158.031 C203.407,157.054 207.81,153.316 209.895,148.47 C209.172,147.356 208.398,146.274 207.577,145.23 C206.147,148.008 203.346,150.061 199.465,150.738 z" fill="#FFFFFF"/>
      <path d="M203.76,143.123 C204.327,143.024 204.826,142.784 205.241,142.459 C203.752,140.82 202.174,139.263 200.515,137.796 C199.777,138.455 199.385,139.414 199.558,140.396 C199.83,141.972 202.043,143.423 203.76,143.123 z" fill="#FFFFFF"/>
      <path d="M264.788,159.397 C254.097,139.978 232.584,140.692 223.764,150.709 C214.944,160.723 215.628,165.968 215.628,165.968 C215.628,165.968 183.803,167.273 192.337,198.477 C198.416,220.702 220.479,215.909 230.073,214.629 C239.667,213.352 251.817,206.318 255.336,202.159 L255.656,201.522 C255.656,201.522 239.989,207.915 229.114,207.593 C218.242,207.272 212.81,199.919 213.129,193.202 C213.31,189.359 219.18,166.476 242.168,174.25 C263.816,181.579 267.683,198.26 267.683,198.26 C269.793,194.673 275.482,178.816 264.788,159.397 z" fill="#E7BC39"/>
      <path d="M216.421,107.2 L195.252,99.272 C195.252,99.272 146.778,82.442 111.543,47.105 C111.543,47.105 101.863,75.252 117.615,100.481 C117.615,100.481 108.561,100.285 102.838,93.007 C102.838,93.007 102.526,122.026 144.295,132.779 C144.295,132.779 120.377,129.825 115.406,126.701 C115.406,126.701 109.862,126.136 99.62,114.733 C99.62,114.733 84.504,127.601 82.904,129.507 C82.904,129.507 87.789,130.956 90.305,131.938 C90.305,131.938 73.979,150.817 71.546,156.985 L81.606,157.082 C81.606,157.082 75.893,183.853 90.946,197.227 L166.413,252.761 C166.413,252.761 166.413,223.769 182.13,216.121 C181.609,216.222 181.079,216.275 180.547,216.276 C169.45,216.276 159.423,205.535 159.423,205.535 C168.94,206.637 175.177,204.548 179.008,202.25 C178.9,201.923 178.783,201.594 178.677,201.266 C167.794,200.929 158.09,190.539 158.09,190.539 C166.672,191.529 172.588,189.935 176.473,187.92 C176.455,186.701 176.487,185.537 176.557,184.415 C167.926,181.863 161.092,174.545 161.092,174.545 C169.5,175.514 175.343,174.002 179.234,172.051 C179.693,170.901 180.028,170.273 180.028,170.273 C180.028,170.273 160.403,165.142 161.123,147.345 C162.105,123.175 177.786,123.647 179.12,122.997 C188.077,118.662 164.389,107.374 164.389,107.374 C175.783,104.27 192.09,114.03 198.201,120.819 C201.717,124.715 212.338,131.741 218.414,131.724 C224.488,131.706 221.072,122.591 221.072,122.591 C228.373,128.783 224.907,135.622 223.761,137.162 C221.618,140.072 219.116,143.515 219.116,143.515 C229.987,133.601 242.778,135.201 242.778,135.201 C242.778,135.201 246.053,118.307 216.421,107.2 z" fill="#C93134"/>
      <path d="M112.558,24.772 L112.559,24.772 L112.558,24.772 C128.487,53.624 157.943,72.111 187.416,85.028 C195.472,88.274 204.309,91.773 214.045,95.307 C258.033,111.278 254.754,135.491 254.754,135.491 C254.754,135.491 284.806,149.766 280.595,188.008 C278.625,201.479 275.474,205.866 275.474,205.866 L263.243,208.529 C263.244,208.529 247.646,224.378 218.169,223.507 C203.901,223.36 199.964,221.305 196.261,220.621 C169.354,223.861 178.731,275.228 178.731,275.228 L80.889,201.847 C70.29,193.15 70.833,167.874 71.121,162.326 C65.254,162.396 60.218,162.881 60.218,162.881 C64.753,149.632 77.714,133.624 77.714,133.624 C76.188,132.849 76.367,133.295 70.03,131.58 C72.81,123.597 96.803,106.551 96.803,106.551 C91.209,94.005 94.222,71.128 94.222,71.128 C99.177,76.971 102.545,80.952 102.545,80.952 C97.725,62.389 103.893,41.461 112.559,24.773 L112.558,24.772 z M111.542,47.105 C111.543,47.105 101.863,75.252 117.615,100.48 C117.615,100.48 108.561,100.285 102.838,93.007 C102.838,93.007 102.525,122.026 144.295,132.779 C144.295,132.779 120.377,129.824 115.406,126.701 C115.406,126.701 109.862,126.136 99.62,114.733 C99.62,114.733 84.504,127.603 82.904,129.507 C82.904,129.507 87.789,130.956 90.305,131.938 C90.305,131.938 73.98,150.817 71.546,156.985 L81.605,157.082 C81.606,157.082 75.893,183.853 90.946,197.227 L166.412,252.761 C166.413,252.761 166.413,223.771 182.127,216.118 C181.646,216.209 181.126,216.273 180.544,216.273 C169.447,216.273 159.42,205.532 159.42,205.532 C168.937,206.634 175.174,204.543 179.005,202.248 C178.897,201.92 178.78,201.59 178.674,201.263 C167.791,200.926 158.087,190.536 158.087,190.536 C166.669,191.527 172.584,189.932 176.47,187.917 C176.454,186.748 176.482,185.579 176.554,184.413 C167.923,181.86 161.089,174.542 161.089,174.542 C169.497,175.511 175.341,173.999 179.232,172.048 C179.692,170.898 180.025,170.27 180.025,170.27 C180.025,170.27 160.4,165.141 161.12,147.342 C162.102,123.172 177.784,123.644 179.117,122.994 C188.074,118.659 164.386,107.371 164.386,107.371 C175.781,104.267 192.089,114.029 198.198,120.816 C201.714,124.713 212.335,131.738 218.412,131.721 C224.484,131.703 221.069,122.588 221.069,122.588 C228.37,128.781 224.906,135.619 223.759,137.159 C221.615,140.071 219.113,143.513 219.113,143.512 C229.985,133.599 242.775,135.198 242.775,135.198 C242.775,135.198 246.054,118.305 216.422,107.198 L195.254,99.27 C195.254,99.271 146.779,82.442 111.543,47.105 L111.542,47.105 z M240.659,143.81 C234.135,143.966 228.274,145.948 223.764,150.709 C214.944,160.723 215.628,165.968 215.628,165.967 C215.628,165.968 183.803,167.273 192.337,198.477 C198.415,220.702 220.479,215.909 230.073,214.629 C239.668,213.352 251.817,206.318 255.336,202.159 L255.656,201.522 C255.656,201.522 239.989,207.917 229.114,207.593 C218.242,207.272 212.808,199.919 213.129,193.202 C213.31,189.359 219.18,166.476 242.168,174.25 C263.816,181.579 267.683,198.26 267.683,198.26 C269.793,194.673 275.482,178.816 264.788,159.396 C260.854,152.433 254.556,146.339 246.511,144.563 C244.591,144.139 242.61,144.061 240.66,143.81 L240.659,143.81 z M238.663,192.956 C236.511,193.101 234.367,193.353 232.239,193.71 C231.971,196.575 231.244,199.379 230.087,202.014 C230.589,202.072 231.103,202.113 231.644,202.131 C233.475,202.181 235.496,201.977 237.516,201.637 C237.981,199.343 238.485,196.244 238.664,192.956 L238.663,192.956 z M229.342,194.255 C226.588,194.836 223.866,195.561 221.188,196.426 C222.417,198.929 225.011,201.078 228.944,201.84 C229.234,199.323 229.366,196.79 229.342,194.256 L229.342,194.255 z M241.627,192.83 C241.231,195.791 240.363,198.669 239.055,201.355 C241.595,200.835 244.107,200.182 246.578,199.399 C247.03,197.31 247.334,195.192 247.489,193.061 C245.722,192.892 243.774,192.802 241.628,192.83 L241.627,192.83 z M250.567,193.464 C250.16,195.276 249.54,197.032 248.719,198.698 C249.756,198.341 250.375,198.105 250.375,198.105 L257.158,195.152 C255.639,194.598 253.435,193.938 250.567,193.465 L250.567,193.464 z M227.101,182.277 C222.024,185.533 220.468,190.912 220.367,192.548 C223.256,191.702 226.182,190.989 229.137,190.411 C228.853,187.549 228.235,184.705 227.102,182.278 L227.101,182.277 z M250.423,183.577 C250.918,185.518 251.136,187.519 251.069,189.52 C253.125,189.85 255.147,190.363 257.111,191.053 C255.56,188.029 253.257,185.455 250.423,183.577 L250.423,183.577 z M236.47,179.715 C234.129,179.737 232.117,180.107 230.38,180.71 C231.518,183.631 232.176,186.717 232.328,189.848 C234.443,189.51 236.571,189.263 238.708,189.107 C238.579,185.685 237.965,182.335 236.47,179.715 L236.47,179.715 z M240.655,180.019 C241.496,182.92 241.915,185.928 241.9,188.948 C243.78,188.901 245.661,188.951 247.536,189.098 C247.387,186.309 246.809,183.536 245.518,181.19 C244.113,180.703 242.568,180.306 240.857,180.045 C240.787,180.033 240.723,180.03 240.656,180.019 L240.655,180.019 z M186.764,128.219 C181.181,131.554 177.933,138.08 179.119,144.873 C180.65,153.67 189.022,159.557 197.819,158.028 C203.405,157.051 207.809,153.313 209.894,148.467 C209.167,147.345 208.387,146.264 207.575,145.227 C206.147,148.008 203.346,150.059 199.465,150.736 C192.961,151.869 186.857,148.034 185.833,142.171 C184.989,137.336 187.235,133.104 191.697,131.127 C189.337,129.602 187.527,128.617 186.764,128.22 L186.764,128.219 z M200.513,137.796 C199.777,138.455 199.384,139.414 199.556,140.396 C199.828,141.971 202.042,143.423 203.759,143.123 C204.3,143.028 204.808,142.8 205.239,142.459 C203.75,140.82 202.173,139.263 200.514,137.796 L200.513,137.796 z" fill="#000000"/>
    </g>
    <g>
      <text transform="matrix(1, 0, 0, 1, 493.411, 162.5)">
        <tspan x="-59.75" y="78.5" font-family="AvenirNextCondensed-Heavy" font-size="250" fill="#C93234">S</tspan>
      </text>
      <path d="M487.411,245.5 Q478.411,245.5 470.286,243.875 Q462.161,242.25 455.286,239.5 Q448.411,236.75 442.661,233.25 Q436.911,229.75 432.911,226.25 L458.911,185 Q464.661,189.75 471.536,192.75 Q478.411,195.75 485.161,195.75 Q489.411,195.75 492.286,193.625 Q495.161,191.5 495.161,187.5 Q495.161,182.75 491.036,179.5 Q486.911,176.25 478.161,172 Q470.661,168.5 463.911,164.125 Q457.161,159.75 451.911,153.5 Q446.661,147.25 443.536,138.875 Q440.411,130.5 440.411,119.25 Q440.411,103 446.161,91.625 Q451.911,80.25 460.786,73.125 Q469.661,66 480.536,62.75 Q491.411,59.5 501.911,59.5 Q517.911,59.5 530.536,64.5 Q543.161,69.5 551.661,77.5 L524.911,118.25 Q520.661,114 514.911,111.125 Q509.161,108.25 503.911,108.25 Q499.911,108.25 496.661,110.25 Q493.411,112.25 493.411,117.25 Q493.411,121.25 496.786,123.75 Q500.161,126.25 509.911,131 Q515.411,133.75 522.161,137.875 Q528.911,142 534.911,148.375 Q540.911,154.75 545.036,163.75 Q549.161,172.75 549.161,185 Q549.161,201 543.911,212.5 Q538.661,224 529.911,231.25 Q521.161,238.5 510.036,242 Q498.911,245.5 487.411,245.5 z" fill-opacity="0" stroke="#000000" stroke-width="8"/>
    </g>
    <path d="M627,195.333 C616.507,195.333 608,174.962 608,149.833 C608,124.704 616.507,104.333 627,104.333 C637.493,104.333 646,124.704 646,149.833 C646,174.962 637.493,195.333 627,195.333 z" fill="#E7BC38" display="none"/>
    <g>
      <text transform="matrix(1, 0, 0, 1, 615.391, 162.5)">
        <tspan x="-68.609" y="78.5" font-family="AvenirNextCondensed-Heavy" font-size="250" fill="#C93234">O</tspan>
      </text>
      <path d="M552.782,152 Q552.782,130.75 557.907,113.5 Q563.032,96.25 572.657,84.125 Q582.282,72 596.032,65.5 Q609.782,59 626.782,59 Q643.782,59 657.532,65.5 Q671.282,72 680.907,84.125 Q690.532,96.25 695.657,113.5 Q700.782,130.75 700.782,152 Q700.782,173.25 695.657,190.625 Q690.532,208 680.907,220.25 Q671.282,232.5 657.532,239.25 Q643.782,246 626.782,246 Q609.782,246 596.032,239.25 Q582.282,232.5 572.657,220.25 Q563.032,208 557.907,190.625 Q552.782,173.25 552.782,152 z M607.782,152 Q607.782,169.25 612.407,180.625 Q617.032,192 626.782,192 Q636.532,192 641.157,180.625 Q645.782,169.25 645.782,152 Q645.782,134.75 641.157,123.625 Q636.532,112.5 626.782,112.5 Q617.032,112.5 612.407,123.625 Q607.782,134.75 607.782,152 z" fill-opacity="0" stroke="#000000" stroke-width="8"/>
    </g>
    <g>
      <path d="M430.302,243.5 C422.018,243.5 415.302,236.784 415.302,228.5 C415.302,220.216 422.018,213.5 430.302,213.5 C438.586,213.5 445.302,220.216 445.302,228.5 C445.302,236.784 438.586,243.5 430.302,243.5 z" fill="#E7BC38"/>
      <path d="M430.302,243.5 C422.018,243.5 415.302,236.784 415.302,228.5 C415.302,220.216 422.018,213.5 430.302,213.5 C438.586,213.5 445.302,220.216 445.302,228.5 C445.302,236.784 438.586,243.5 430.302,243.5 z" fill-opacity="0" stroke="#000000" stroke-width="8"/>
    </g>
    <g>
      <path d="M555.5,243.5 C547.216,243.5 540.5,236.784 540.5,228.5 C540.5,220.216 547.216,213.5 555.5,213.5 C563.784,213.5 570.5,220.216 570.5,228.5 C570.5,236.784 563.784,243.5 555.5,243.5 z" fill="#E7BC38"/>
      <path d="M555.5,243.5 C547.216,243.5 540.5,236.784 540.5,228.5 C540.5,220.216 547.216,213.5 555.5,213.5 C563.784,213.5 570.5,220.216 570.5,228.5 C570.5,236.784 563.784,243.5 555.5,243.5 z" fill-opacity="0" stroke="#000000" stroke-width="8"/>
    </g>
    <g>
      <path d="M681.5,243.5 C673.216,243.5 666.5,236.784 666.5,228.5 C666.5,220.216 673.216,213.5 681.5,213.5 C689.784,213.5 696.5,220.216 696.5,228.5 C696.5,236.784 689.784,243.5 681.5,243.5 z" fill="#E7BC38"/>
      <path d="M681.5,243.5 C673.216,243.5 666.5,236.784 666.5,228.5 C666.5,220.216 673.216,213.5 681.5,213.5 C689.784,213.5 696.5,220.216 696.5,228.5 C696.5,236.784 689.784,243.5 681.5,243.5 z" fill-opacity="0" stroke="#000000" stroke-width="8"/>
    </g>
    <path d="M383.145,128.333 L383.145,72.65 C383.446,72.47 383.312,72.579 383.552,72.333 L394.231,72.333 C392.863,75.273 390.937,77.449 388.752,79.11 C389.098,79.018 389.471,78.954 389.888,78.954 C397.85,78.954 405.044,89.695 405.044,89.695 C398.216,88.594 393.741,90.684 390.992,92.98 C391.07,93.308 391.154,93.637 391.23,93.965 C399.038,94.301 406,104.691 406,104.691 C399.843,103.701 395.599,105.296 392.811,107.311 C392.823,108.479 392.803,109.648 392.751,110.815 C398.943,113.368 403.847,120.685 403.847,120.685 C397.814,119.716 393.621,121.228 390.83,123.179 C390.499,124.329 390.26,124.958 390.26,124.958 C392.196,125.654 393.937,127.014 395.679,128.333 L383.145,128.333 z" fill="#000000"/>
    <path d="M483.405,170.039 C492.5,174.75 494.25,176.5 500,183.25 C504.202,188.183 512.36,212.514 512.36,212.514 C507.235,203.082 500.724,194.71 492.683,187.645 L492.828,187.469 C494.054,185.631 493.557,183.147 491.719,181.922 C491.529,181.795 488.859,179.549 488.205,179.023 C487.665,178.589 487.157,178.194 486.664,177.83 C484.374,176.135 482.574,175.142 480.686,174.921 L479.92,174.873 C478.297,175.178 478.929,174.919 477.948,175.426 L477.944,175.411 C477.336,173.481 475.992,172.423 474.422,171.315 C475.938,171.094 475.131,171.214 476.841,170.952 C477.094,170.913 478.769,170.651 479.246,170.577 C482.311,170.13 480.923,170.296 483.405,170.04 z" fill="#000000"/>
    <path d="M562.201,204.686 L589.273,234.008 C589.519,233.956 589.395,233.964 589.641,233.977 L595.264,228.785 C593.115,227.902 591.043,227.692 589.085,227.88 C589.311,227.76 589.539,227.613 589.759,227.41 C593.951,223.539 592.518,214.385 592.518,214.385 C589.458,218.285 586.084,219.36 583.521,219.487 C583.403,219.277 583.287,219.063 583.167,218.853 C587.116,214.88 585.73,206.024 585.73,206.024 C582.969,209.539 579.96,210.762 577.512,211.056 C576.95,210.436 576.371,209.83 575.776,209.24 C577.796,204.886 576.82,198.649 576.82,198.649 C574.115,202.092 571.172,203.334 568.754,203.664 C568.02,203.219 567.589,203.004 567.589,203.004 C568.27,201.696 568.526,200.134 568.801,198.592 L562.201,204.686 z" fill="#000000"/>
    <path d="M0,0 L800,0 L800,300 L0,300 L0,0 z" fill="#FFFFFF" display="none"/>
  </g>
</svg>
