<svg height="300" viewBox="0 0 800 300" width="800" xmlns="http://www.w3.org/2000/svg"><text transform="translate(357.609 162.5)"><tspan fill="#c93234" font-family="AvenirNextCondensed-Heavy" font-size="250" x="-68.609" y="78.5">H</tspan></text><path d="m380 173.25h-24v67.75h-54v-177h54v60.5h24v-60.5h54v177h-54z" fill="none" stroke="#000" stroke-width="8"/><path d="m257.111 191.055c-1.551-3.024-3.854-5.599-6.688-7.476.495 1.94.713 3.941.646 5.943 2.056.329 4.078.842 6.042 1.533zm-27.024 10.957c.502.059 1.016.1 1.557.117 1.831.05 3.852-.152 5.872-.493.465-2.293.969-5.394 1.148-8.681-2.004.133-4.147.376-6.425.753-.268 2.866-.995 5.669-2.152 8.304zm-8.901-5.586c1.23 2.503 3.825 4.652 7.757 5.414.225-1.985.438-4.676.398-7.584-2.755.58-5.476 1.305-8.155 2.17zm17.869 4.929c2.54-.52 5.052-1.173 7.523-1.956.385-1.801.749-3.998.911-6.338-1.948-.183-3.905-.26-5.861-.23-.397 2.96-1.265 5.838-2.573 8.524zm11.512-7.89c-.406 1.811-1.027 3.568-1.848 5.233 1.039-.357 1.656-.593 1.656-.593l6.783-2.953c-1.519-.554-3.723-1.214-6.591-1.687zm-9.71-13.422c-.07-.011-.134-.014-.201-.025.509 1.725 1.264 4.943 1.244 8.929 1.88-.047 3.761.003 5.636.15-.149-2.789-.727-5.561-2.018-7.908-1.516-.522-3.076-.906-4.661-1.146zm-13.755 2.235c-5.076 3.253-6.633 8.634-6.737 10.27 2.89-.845 5.816-1.559 8.77-2.137-.283-2.86-.902-5.706-2.033-8.133zm3.278-1.569c1.138 2.92 1.796 6.006 1.948 9.137 2.115-.337 4.244-.584 6.38-.741-.129-3.42-.743-6.772-2.238-9.391-2.341.023-4.353.393-6.09.995zm-30.915-29.971c-6.504 1.133-12.609-2.702-13.632-8.565-.844-4.836 1.402-9.069 5.864-11.044-1.6-1.043-3.246-2.013-4.932-2.908-5.584 3.334-8.832 9.86-7.646 16.654 1.531 8.797 9.903 14.684 18.702 13.156 5.586-.977 9.989-4.715 12.074-9.561-.723-1.114-1.497-2.196-2.318-3.24-1.43 2.778-4.231 4.831-8.112 5.508z" fill="#fff"/><path d="m203.76 143.123c.567-.099 1.066-.339 1.481-.664-1.489-1.639-3.067-3.196-4.726-4.663-.738.659-1.13 1.618-.957 2.6.272 1.576 2.485 3.027 4.202 2.727z" fill="#fff"/><path d="m264.788 159.397c-10.691-19.419-32.204-18.705-41.024-8.688-8.82 10.014-8.136 15.259-8.136 15.259s-31.825 1.305-23.291 32.509c6.079 22.225 28.142 17.432 37.736 16.152 9.594-1.277 21.744-8.311 25.263-12.47l.32-.637s-15.667 6.393-26.542 6.071c-10.872-.321-16.304-7.674-15.985-14.391.181-3.843 6.051-26.726 29.039-18.952 21.648 7.329 25.515 24.01 25.515 24.01 2.11-3.587 7.799-19.444-2.895-38.863z" fill="#e7bc39"/><path d="m216.421 107.2-21.169-7.928s-48.474-16.83-83.709-52.167c0 0-9.68 28.147 6.072 53.376 0 0-9.054-.196-14.777-7.474 0 0-.312 29.019 41.457 39.772 0 0-23.918-2.954-28.889-6.078 0 0-5.544-.565-15.786-11.968 0 0-15.116 12.868-16.716 14.774 0 0 4.885 1.449 7.401 2.431 0 0-16.326 18.879-18.759 25.047l10.06.097s-5.713 26.771 9.34 40.145l75.467 55.534s0-28.992 15.717-36.64c-.521.101-1.051.154-1.583.155-11.097 0-21.124-10.741-21.124-10.741 9.517 1.102 15.754-.987 19.585-3.285-.108-.327-.225-.656-.331-.984-10.883-.337-20.587-10.727-20.587-10.727 8.582.99 14.498-.604 18.383-2.619-.018-1.219.014-2.383.084-3.505-8.631-2.552-15.465-9.87-15.465-9.87 8.408.969 14.251-.543 18.142-2.494.459-1.15.794-1.778.794-1.778s-19.625-5.131-18.905-22.928c.982-24.17 16.663-23.698 17.997-24.348 8.957-4.335-14.731-15.623-14.731-15.623 11.394-3.104 27.701 6.656 33.812 13.445 3.516 3.896 14.137 10.922 20.213 10.905 6.074-.018 2.658-9.133 2.658-9.133 7.301 6.192 3.835 13.031 2.689 14.571-2.143 2.91-4.645 6.353-4.645 6.353 10.871-9.914 23.662-8.314 23.662-8.314s3.275-16.894-26.357-28.001z" fill="#c93134"/><path d="m112.558 24.772h.001-.001c15.929 28.852 45.385 47.339 74.858 60.256 8.056 3.246 16.893 6.745 26.629 10.279 43.988 15.971 40.709 40.184 40.709 40.184s30.052 14.275 25.841 52.517c-1.97 13.471-5.121 17.858-5.121 17.858l-12.231 2.663c.001 0-15.597 15.849-45.074 14.978-14.268-.147-18.205-2.202-21.908-2.886-26.907 3.24-17.53 54.607-17.53 54.607l-97.842-73.381c-10.599-8.697-10.056-33.973-9.768-39.521-5.867.07-10.903.555-10.903.555 4.535-13.249 17.496-29.257 17.496-29.257-1.526-.775-1.347-.329-7.684-2.044 2.78-7.983 26.773-25.029 26.773-25.029-5.594-12.546-2.581-35.423-2.581-35.423 4.955 5.843 8.323 9.824 8.323 9.824-4.82-18.563 1.348-39.491 10.014-56.179zm-1.016 22.333c.001 0-9.679 28.147 6.073 53.375 0 0-9.054-.195-14.777-7.473 0 0-.313 29.019 41.457 39.772 0 0-23.918-2.955-28.889-6.078 0 0-5.544-.565-15.786-11.968 0 0-15.116 12.87-16.716 14.774 0 0 4.885 1.449 7.401 2.431 0 0-16.325 18.879-18.759 25.047l10.059.097c.001 0-5.712 26.771 9.341 40.145l75.466 55.534c.001 0 .001-28.99 15.715-36.643-.481.091-1.001.155-1.583.155-11.097 0-21.124-10.741-21.124-10.741 9.517 1.102 15.754-.989 19.585-3.284-.108-.328-.225-.658-.331-.985-10.883-.337-20.587-10.727-20.587-10.727 8.582.991 14.497-.604 18.383-2.619-.016-1.169.012-2.338.084-3.504-8.631-2.553-15.465-9.871-15.465-9.871 8.408.969 14.252-.543 18.143-2.494.46-1.15.793-1.778.793-1.778s-19.625-5.129-18.905-22.928c.982-24.17 16.664-23.698 17.997-24.348 8.957-4.335-14.731-15.623-14.731-15.623 11.395-3.104 27.703 6.658 33.812 13.445 3.516 3.897 14.137 10.922 20.214 10.905 6.072-.018 2.657-9.133 2.657-9.133 7.301 6.193 3.837 13.031 2.69 14.571-2.144 2.912-4.646 6.354-4.646 6.353 10.872-9.913 23.662-8.314 23.662-8.314s3.279-16.893-26.353-28l-21.168-7.928c0 .001-48.475-16.828-83.711-52.165zm129.117 96.705c-6.524.156-12.385 2.138-16.895 6.899-8.82 10.014-8.136 15.259-8.136 15.258 0 .001-31.825 1.306-23.291 32.51 6.078 22.225 28.142 17.432 37.736 16.152 9.595-1.277 21.744-8.311 25.263-12.47l.32-.637s-15.667 6.395-26.542 6.071c-10.872-.321-16.306-7.674-15.985-14.391.181-3.843 6.051-26.726 29.039-18.952 21.648 7.329 25.515 24.01 25.515 24.01 2.11-3.587 7.799-19.444-2.895-38.864-3.934-6.963-10.232-13.057-18.277-14.833-1.92-.424-3.901-.502-5.851-.753zm-1.996 49.146c-2.152.145-4.296.397-6.424.754-.268 2.865-.995 5.669-2.152 8.304.502.058 1.016.099 1.557.117 1.831.05 3.852-.154 5.872-.494.465-2.294.969-5.393 1.148-8.681zm-9.321 1.299c-2.754.581-5.476 1.306-8.154 2.171 1.229 2.503 3.823 4.652 7.756 5.414.29-2.517.422-5.05.398-7.584zm12.285-1.425c-.396 2.961-1.264 5.839-2.572 8.525 2.54-.52 5.052-1.173 7.523-1.956.452-2.089.756-4.207.911-6.338-1.767-.169-3.715-.259-5.861-.231zm8.94.634c-.407 1.812-1.027 3.568-1.848 5.234 1.037-.357 1.656-.593 1.656-.593l6.783-2.953c-1.519-.554-3.723-1.214-6.591-1.687zm-23.466-11.187c-5.077 3.256-6.633 8.635-6.734 10.271 2.889-.846 5.815-1.559 8.77-2.137-.284-2.862-.902-5.706-2.035-8.133zm23.322 1.3c.495 1.941.713 3.942.646 5.943 2.056.33 4.078.843 6.042 1.533-1.551-3.024-3.854-5.598-6.688-7.476zm-13.953-3.862c-2.341.022-4.353.392-6.09.995 1.138 2.921 1.796 6.007 1.948 9.138 2.115-.338 4.243-.585 6.38-.741-.129-3.422-.743-6.772-2.238-9.392zm4.185.304c.841 2.901 1.26 5.909 1.245 8.929 1.88-.047 3.761.003 5.636.15-.149-2.789-.727-5.562-2.018-7.908-1.405-.487-2.95-.884-4.661-1.145-.07-.012-.134-.015-.201-.026zm-53.891-51.8c-5.583 3.335-8.831 9.861-7.645 16.654 1.531 8.797 9.903 14.684 18.7 13.155 5.586-.977 9.99-4.715 12.075-9.561-.727-1.122-1.507-2.203-2.319-3.24-1.428 2.781-4.229 4.832-8.11 5.509-6.504 1.133-12.608-2.702-13.632-8.565-.844-4.835 1.402-9.067 5.864-11.044-2.36-1.525-4.17-2.51-4.933-2.907zm13.749 9.577c-.736.659-1.129 1.618-.957 2.6.272 1.575 2.486 3.027 4.203 2.727.541-.095 1.049-.323 1.48-.664-1.489-1.639-3.066-3.196-4.725-4.663z"/><text transform="translate(493.411 162.5)"><tspan fill="#c93234" font-family="AvenirNextCondensed-Heavy" font-size="250" x="-59.75" y="78.5">S</tspan></text><path d="m487.411 245.5q-9 0-17.125-1.625-8.125-1.625-15-4.375-6.875-2.75-12.625-6.25-5.75-3.5-9.75-7l26-41.25q5.75 4.75 12.625 7.75 6.875 3 13.625 3 4.25 0 7.125-2.125 2.875-2.125 2.875-6.125 0-4.75-4.125-8-4.125-3.25-12.875-7.5-7.5-3.5-14.25-7.875-6.75-4.375-12-10.625-5.25-6.25-8.375-14.625-3.125-8.375-3.125-19.625 0-16.25 5.75-27.625 5.75-11.375 14.625-18.5 8.875-7.125 19.75-10.375 10.875-3.25 21.375-3.25 16 0 28.625 5 12.625 5 21.125 13l-26.75 40.75q-4.25-4.25-10-7.125-5.75-2.875-11-2.875-4 0-7.25 2-3.25 2-3.25 7 0 4 3.375 6.5 3.375 2.5 13.125 7.25 5.5 2.75 12.25 6.875 6.75 4.125 12.75 10.5 6 6.375 10.125 15.375 4.125 9 4.125 21.25 0 16-5.25 27.5-5.25 11.5-14 18.75-8.75 7.25-19.875 10.75-11.125 3.5-22.625 3.5z" fill="none" stroke="#000" stroke-width="8"/><text transform="translate(615.391 162.5)"><tspan fill="#c93234" font-family="AvenirNextCondensed-Heavy" font-size="250" x="-68.609" y="78.5">O</tspan></text><path d="m552.782 152q0-21.25 5.125-38.5 5.125-17.25 14.75-29.375 9.625-12.125 23.375-18.625 13.75-6.5 30.75-6.5 17 0 30.75 6.5 13.75 6.5 23.375 18.625 9.625 12.125 14.75 29.375 5.125 17.25 5.125 38.5 0 21.25-5.125 38.625-5.125 17.375-14.75 29.625-9.625 12.25-23.375 19-13.75 6.75-30.75 6.75-17 0-30.75-6.75-13.75-6.75-23.375-19-9.625-12.25-14.75-29.625-5.125-17.375-5.125-38.625zm55 0q0 17.25 4.625 28.625 4.625 11.375 14.375 11.375 9.75 0 14.375-11.375 4.625-11.375 4.625-28.625 0-17.25-4.625-28.375-4.625-11.125-14.375-11.125-9.75 0-14.375 11.125-4.625 11.125-4.625 28.375z" fill="none" stroke="#000" stroke-width="8"/><path d="m430.302 243.5c-8.284 0-15-6.716-15-15s6.716-15 15-15 15 6.716 15 15-6.716 15-15 15z" fill="#e7bc38"/><path d="m430.302 243.5c-8.284 0-15-6.716-15-15s6.716-15 15-15 15 6.716 15 15-6.716 15-15 15z" fill="none" stroke="#000" stroke-width="8"/><path d="m555.5 243.5c-8.284 0-15-6.716-15-15s6.716-15 15-15 15 6.716 15 15-6.716 15-15 15z" fill="#e7bc38"/><path d="m555.5 243.5c-8.284 0-15-6.716-15-15s6.716-15 15-15 15 6.716 15 15-6.716 15-15 15z" fill="none" stroke="#000" stroke-width="8"/><path d="m681.5 243.5c-8.284 0-15-6.716-15-15s6.716-15 15-15 15 6.716 15 15-6.716 15-15 15z" fill="#e7bc38"/><path d="m681.5 243.5c-8.284 0-15-6.716-15-15s6.716-15 15-15 15 6.716 15 15-6.716 15-15 15z" fill="none" stroke="#000" stroke-width="8"/><path d="m383.145 128.333v-55.683c.301-.18.167-.071.407-.317h10.679c-1.368 2.94-3.294 5.116-5.479 6.777.346-.092.719-.156 1.136-.156 7.962 0 15.156 10.741 15.156 10.741-6.828-1.101-11.303.989-14.052 3.285.078.328.162.657.238.985 7.808.336 14.77 10.726 14.77 10.726-6.157-.99-10.401.605-13.189 2.62.012 1.168-.008 2.337-.06 3.504 6.192 2.553 11.096 9.87 11.096 9.87-6.033-.969-10.226.543-13.017 2.494-.331 1.15-.57 1.779-.57 1.779 1.936.696 3.677 2.056 5.419 3.375z"/><path d="m483.405 170.039c9.095 4.711 10.845 6.461 16.595 13.211 4.202 4.933 12.36 29.264 12.36 29.264-5.125-9.432-11.636-17.804-19.677-24.869l.145-.176c1.226-1.838.729-4.322-1.109-5.547-.19-.127-2.86-2.373-3.514-2.899-.54-.434-1.048-.829-1.541-1.193-2.29-1.695-4.09-2.688-5.978-2.909l-.766-.048c-1.623.305-.991.046-1.972.553l-.004-.015c-.608-1.93-1.952-2.988-3.522-4.096 1.516-.221.709-.101 2.419-.363.253-.039 1.928-.301 2.405-.375 3.065-.447 1.677-.281 4.159-.537z"/><path d="m562.201 204.686 27.072 29.322c.246-.052.122-.044.368-.031l5.623-5.192c-2.149-.883-4.221-1.093-6.179-.905.226-.12.454-.267.674-.47 4.192-3.871 2.759-13.025 2.759-13.025-3.06 3.9-6.434 4.975-8.997 5.102-.118-.21-.234-.424-.354-.634 3.949-3.973 2.563-12.829 2.563-12.829-2.761 3.515-5.77 4.738-8.218 5.032-.562-.62-1.141-1.226-1.736-1.816 2.02-4.354 1.044-10.591 1.044-10.591-2.705 3.443-5.648 4.685-8.066 5.015-.734-.445-1.165-.66-1.165-.66.681-1.308.937-2.87 1.212-4.412z"/></svg>