<?xml version="1.0" encoding="UTF-8" standalone="no"?>
<!DOCTYPE svg PUBLIC "-//W3C//DTD SVG 1.1//EN" "http://www.w3.org/Graphics/SVG/1.1/DTD/svg11.dtd">
<svg xmlns="http://www.w3.org/2000/svg" version="1.1" viewBox="0.00 0.00 500.00 500.00">
<g stroke-width="2.00" fill="none" stroke-linecap="butt">
<path stroke="#f78c8f" vector-effect="non-scaling-stroke" d="
  M 263.02 94.48
  A 0.25 0.25 0.0 0 0 262.68 94.76
  C 265.30 107.54 261.73 119.31 254.35 130.12
  Q 251.07 134.93 242.75 142.57
  C 223.42 160.31 199.74 179.17 183.39 191.65
  Q 115.90 243.18 96.31 257.80
  Q 77.85 271.58 64.17 280.41
  Q 55.91 285.74 46.75 289.52
  Q 46.00 289.83 40.49 291.12
  A 0.42 0.42 0.0 0 0 40.25 291.78
  L 40.26 291.79
  A 1.01 1.00 66.6 0 0 41.23 292.18
  Q 57.87 289.40 72.21 281.19
  Q 88.15 272.06 105.56 259.55
  Q 119.49 249.54 160.02 219.78
  Q 185.47 201.10 217.48 178.22
  Q 239.05 162.80 260.06 152.34
  Q 272.98 145.90 284.38 142.93
  C 301.83 138.38 322.54 138.72 338.45 147.83
  Q 345.33 151.77 351.41 157.13
  Q 378.98 181.45 401.77 209.67
  Q 402.44 210.50 404.70 212.80
  C 407.26 215.39 408.90 217.22 412.02 217.91
  A 1.80 1.80 0.0 0 0 414.20 216.39
  Q 414.42 214.77 413.65 212.61
  Q 407.02 193.86 396.23 176.77
  C 380.78 152.30 361.26 127.73 340.90 103.68
  Q 311.08 68.46 281.70 39.74
  C 279.14 37.24 276.89 35.48 274.69 33.27
  A 0.33 0.33 0.0 0 0 274.15 33.62
  C 276.29 39.12 278.60 44.30 279.91 49.02
  Q 284.06 64.00 283.20 79.17
  A 0.29 0.29 0.0 0 1 282.70 79.35
  C 278.92 75.44 274.75 73.84 269.20 71.15
  A 0.42 0.42 0.0 0 0 268.65 71.73
  Q 273.13 79.83 273.42 89.05
  Q 273.66 96.77 273.22 100.90
  A 0.26 0.26 0.0 0 1 272.78 101.05
  Q 269.03 97.04 263.02 94.48"
/>
<path stroke="#f78c8f" vector-effect="non-scaling-stroke" d="
  M 404.76 237.58
  C 401.20 238.68 393.03 242.87 391.26 246.78
  A 0.81 0.81 0.0 0 0 391.70 247.87
  Q 399.98 251.07 405.84 253.42
  Q 423.78 260.60 438.99 271.44
  A 0.37 0.37 0.0 0 1 438.83 272.11
  Q 435.31 272.64 432.13 272.81
  C 427.66 273.04 423.10 274.08 418.25 274.42
  C 411.54 274.89 403.05 276.47 398.31 276.61
  Q 397.80 276.63 397.61 276.88
  A 0.38 0.38 0.0 0 0 397.92 277.48
  Q 401.16 277.46 402.87 277.64
  Q 412.33 278.64 423.52 279.27
  Q 426.04 279.42 427.90 279.86
  A 5.57 5.48 -37.9 0 0 429.18 280.01
  Q 434.79 280.02 442.49 280.48
  C 447.69 280.79 454.29 280.55 458.64 278.22
  A 0.54 0.54 0.0 0 0 458.85 277.48
  C 449.46 261.12 438.33 245.59 423.44 233.51
  Q 417.06 228.35 415.51 227.90
  C 409.53 226.16 406.03 231.72 405.16 237.12
  A 0.59 0.59 0.0 0 1 404.76 237.58"
/>
<path stroke="#f78c8f" vector-effect="non-scaling-stroke" d="
  M 396.31 276.78
  Q 395.99 276.67 395.78 276.83
  A 0.33 0.33 0.0 0 0 395.91 277.42
  Q 396.33 277.50 396.37 277.47
  A 0.37 0.37 0.0 0 0 396.31 276.78"
/>
<path stroke="#868686" vector-effect="non-scaling-stroke" d="
  M 89.04 358.11
  L 78.08 355.96
  A 1.18 1.18 0.0 0 0 76.77 356.66
  C 74.69 361.65 70.15 365.16 64.51 365.81
  C 52.94 367.15 45.76 360.19 43.96 349.14
  C 42.20 338.36 44.49 324.25 56.12 320.54
  C 64.66 317.82 72.95 321.29 76.66 329.78
  A 0.91 0.91 0.0 0 0 77.56 330.32
  L 88.58 329.34
  A 0.74 0.73 80.9 0 0 89.23 328.43
  Q 86.38 316.25 75.07 311.57
  C 63.48 306.77 46.56 308.80 37.80 318.57
  C 27.20 330.41 26.16 348.94 33.96 362.32
  C 45.84 382.69 80.65 381.39 89.46 358.88
  A 0.57 0.57 0.0 0 0 89.04 358.11"
/>
<path stroke="#868686" vector-effect="non-scaling-stroke" d="
  M 114.77 322.34
  A 0.52 0.52 0.0 0 0 114.29 322.66
  L 92.98 373.94
  A 0.52 0.52 0.0 0 0 93.46 374.66
  L 105.27 374.66
  A 0.52 0.52 0.0 0 0 105.75 374.34
  L 109.94 364.27
  A 0.52 0.52 0.0 0 1 110.42 363.95
  L 131.82 363.95
  A 0.52 0.52 0.0 0 1 132.29 364.27
  L 136.57 374.28
  A 0.52 0.52 0.0 0 0 137.04 374.60
  L 149.47 374.60
  A 0.52 0.52 0.0 0 0 149.95 373.88
  L 128.10 322.66
  A 0.52 0.52 0.0 0 0 127.63 322.34
  L 114.77 322.34"
/>
<path stroke="#868686" vector-effect="non-scaling-stroke" d="
  M 203.55 374.10
  L 192.33 354.68
  A 0.93 0.93 0.0 0 1 192.78 353.36
  Q 203.49 348.92 203.25 338.43
  C 202.95 325.44 191.98 322.43 181.24 322.35
  Q 168.95 322.26 158.49 322.34
  A 0.55 0.54 -0.5 0 0 157.95 322.88
  L 157.95 374.00
  A 0.60 0.59 -0.0 0 0 158.55 374.59
  L 170.51 374.59
  A 0.46 0.46 0.0 0 0 170.97 374.13
  L 170.97 355.97
  A 0.82 0.82 0.0 0 1 171.79 355.15
  L 178.17 355.15
  A 1.03 1.03 0.0 0 1 179.08 355.70
  L 188.64 374.07
  A 0.99 0.99 0.0 0 0 189.51 374.59
  L 203.26 374.59
  A 0.33 0.33 0.0 0 0 203.55 374.10"
/>
<path stroke="#868686" vector-effect="non-scaling-stroke" d="
  M 214.69 322.86
  L 214.87 374.16
  A 0.41 0.41 0.0 0 0 215.28 374.57
  L 240.00 374.48
  A 27.81 24.57 -0.2 0 0 267.73 349.82
  L 267.71 346.84
  A 27.81 24.57 -0.2 0 0 239.82 322.36
  L 215.10 322.45
  A 0.41 0.41 0.0 0 0 214.69 322.86"
/>
<path stroke="#868686" vector-effect="non-scaling-stroke" d="
  M 291.00 322.79
  A 0.48 0.48 0.0 0 0 290.52 322.31
  L 278.74 322.31
  A 0.48 0.48 0.0 0 0 278.26 322.79
  L 278.26 374.11
  A 0.48 0.48 0.0 0 0 278.74 374.59
  L 290.52 374.59
  A 0.48 0.48 0.0 0 0 291.00 374.11
  L 291.00 322.79"
/>
<path stroke="#868686" vector-effect="non-scaling-stroke" d="
  M 305.19 374.26
  A 0.34 0.34 0.0 0 0 305.53 374.60
  L 316.06 374.60
  A 0.34 0.34 0.0 0 0 316.40 374.26
  L 316.40 342.05
  A 0.34 0.34 0.0 0 1 317.01 341.84
  L 342.36 374.46
  A 0.34 0.34 0.0 0 0 342.63 374.59
  L 355.10 374.59
  A 0.34 0.34 0.0 0 0 355.44 374.25
  L 355.44 322.66
  A 0.34 0.34 0.0 0 0 355.10 322.32
  L 343.50 322.32
  A 0.34 0.34 0.0 0 0 343.16 322.66
  L 343.16 354.35
  A 0.34 0.34 0.0 0 1 342.55 354.56
  L 317.60 322.45
  A 0.34 0.34 0.0 0 0 317.33 322.32
  L 305.53 322.32
  A 0.34 0.34 0.0 0 0 305.19 322.66
  L 305.19 374.26"
/>
<path stroke="#868686" vector-effect="non-scaling-stroke" d="
  M 364.86 374.53
  L 376.91 374.53
  A 0.72 0.72 0.0 0 0 377.59 374.05
  L 381.07 364.47
  A 0.92 0.92 0.0 0 1 381.92 363.87
  L 403.19 363.89
  A 1.15 1.15 0.0 0 1 404.27 364.64
  L 407.66 374.04
  A 0.81 0.80 80.4 0 0 408.42 374.58
  L 420.99 374.59
  A 0.48 0.48 0.0 0 0 421.43 373.92
  L 399.83 322.89
  A 0.99 0.97 -11.0 0 0 398.92 322.29
  L 386.62 322.29
  A 0.89 0.89 0.0 0 0 385.80 322.83
  L 364.44 373.90
  A 0.45 0.45 0.0 0 0 364.86 374.53"
/>
<path stroke="#868686" vector-effect="non-scaling-stroke" d="
  M 430.10 374.15
  A 0.44 0.44 0.0 0 0 430.54 374.59
  L 466.39 374.59
  A 0.44 0.44 0.0 0 0 466.83 374.15
  L 466.83 365.25
  A 0.44 0.44 0.0 0 0 466.39 364.81
  L 443.31 364.81
  A 0.44 0.44 0.0 0 1 442.87 364.37
  L 442.87 322.76
  A 0.44 0.44 0.0 0 0 442.43 322.32
  L 430.54 322.32
  A 0.44 0.44 0.0 0 0 430.10 322.76
  L 430.10 374.15"
/>
<path stroke="#868686" vector-effect="non-scaling-stroke" d="
  M 362.3941 410.7748
  A 17.63 17.63 0.0 0 0 344.6109 393.2994
  L 339.7111 393.3421
  A 17.63 17.63 0.0 0 0 322.2356 411.1253
  L 322.2659 414.6052
  A 17.63 17.63 0.0 0 0 340.0491 432.0806
  L 344.9489 432.0379
  A 17.63 17.63 0.0 0 0 362.4244 414.2547
  L 362.3941 410.7748"
/>
<path stroke="#868686" vector-effect="non-scaling-stroke" d="
  M 200.09 409.26
  Q 191.97 409.26 191.56 409.25
  A 0.40 0.40 0.0 0 1 191.16 408.85
  L 191.16 394.79
  A 0.44 0.44 0.0 0 0 190.72 394.35
  L 182.43 394.35
  A 0.46 0.45 -89.7 0 0 181.98 394.81
  Q 181.99 403.56 181.99 412.77
  Q 181.99 421.97 181.99 430.73
  A 0.46 0.45 89.7 0 0 182.44 431.19
  L 190.73 431.18
  A 0.44 0.44 0.0 0 0 191.17 430.74
  L 191.16 416.68
  A 0.40 0.40 0.0 0 1 191.56 416.28
  Q 191.97 416.27 200.10 416.27
  Q 208.22 416.26 208.63 416.27
  A 0.40 0.40 0.0 0 1 209.03 416.67
  L 209.03 430.73
  A 0.44 0.44 0.0 0 0 209.47 431.17
  L 217.76 431.17
  A 0.46 0.45 -89.7 0 0 218.21 430.72
  Q 218.20 421.96 218.20 412.76
  Q 218.20 403.55 218.20 394.79
  A 0.46 0.45 89.7 0 0 217.74 394.34
  L 209.45 394.34
  A 0.44 0.44 0.0 0 0 209.01 394.78
  L 209.02 408.84
  A 0.40 0.40 0.0 0 1 208.63 409.25
  Q 208.21 409.25 200.09 409.26"
/>
<path stroke="#868686" vector-effect="non-scaling-stroke" d="
  M 246.96 423.47
  Q 253.59 423.47 254.40 423.51
  A 0.96 0.95 -7.9 0 1 255.25 424.15
  L 257.71 430.99
  A 0.33 0.33 0.0 0 0 258.02 431.21
  L 267.29 431.21
  A 0.20 0.19 -11.8 0 0 267.47 430.94
  L 252.02 394.69
  A 0.46 0.44 -10.1 0 0 251.62 394.42
  Q 250.05 394.37 246.96 394.37
  Q 243.86 394.37 242.29 394.42
  A 0.46 0.44 10.1 0 0 241.89 394.69
  L 226.46 430.95
  A 0.20 0.19 11.8 0 0 226.64 431.22
  L 235.91 431.22
  A 0.33 0.33 0.0 0 0 236.22 431.00
  L 238.68 424.15
  A 0.96 0.95 7.8 0 1 239.53 423.52
  Q 240.34 423.47 246.96 423.47"
/>
<path stroke="#868686" vector-effect="non-scaling-stroke" d="
  M 381.77 424.15
  A 0.44 0.44 0.0 0 1 381.33 423.71
  L 381.33 394.83
  A 0.44 0.44 0.0 0 0 380.89 394.39
  L 372.55 394.39
  A 0.44 0.44 0.0 0 0 372.11 394.83
  L 372.11 430.78
  A 0.44 0.44 0.0 0 0 372.55 431.22
  L 398.47 431.22
  A 0.44 0.44 0.0 0 0 398.91 430.78
  L 398.91 424.59
  A 0.44 0.44 0.0 0 0 398.47 424.15
  L 381.77 424.15"
/>
<path stroke="#868686" vector-effect="non-scaling-stroke" d="
  M 102.89 430.75
  A 0.47 0.47 0.0 0 0 103.36 431.22
  L 129.39 431.22
  A 0.47 0.47 0.0 0 0 129.86 430.75
  L 129.86 424.94
  A 0.47 0.47 0.0 0 0 129.39 424.47
  L 112.29 424.47
  A 0.47 0.47 0.0 0 1 111.82 424.00
  L 111.82 417.14
  A 0.47 0.47 0.0 0 1 112.29 416.67
  L 127.49 416.67
  A 0.47 0.47 0.0 0 0 127.96 416.20
  L 127.96 409.69
  A 0.47 0.47 0.0 0 0 127.49 409.22
  L 112.29 409.22
  A 0.47 0.47 0.0 0 1 111.82 408.75
  L 111.82 401.98
  A 0.47 0.47 0.0 0 1 112.29 401.51
  L 128.80 401.51
  A 0.47 0.47 0.0 0 0 129.27 401.04
  L 129.27 394.99
  A 0.47 0.47 0.0 0 0 128.80 394.52
  L 103.36 394.52
  A 0.47 0.47 0.0 0 0 102.89 394.99
  L 102.89 430.75"
/>
<path stroke="#868686" vector-effect="non-scaling-stroke" d="
  M 154.81 431.25
  Q 156.79 431.25 158.90 431.22
  A 0.38 0.38 0.0 0 0 159.27 430.84
  L 159.27 401.93
  A 0.42 0.42 0.0 0 1 159.69 401.51
  L 171.70 401.51
  A 0.58 0.58 0.0 0 0 172.28 400.93
  L 172.28 395.11
  A 0.57 0.57 0.0 0 0 171.71 394.54
  Q 162.75 394.52 154.83 394.52
  Q 146.91 394.50 137.95 394.52
  A 0.57 0.57 0.0 0 0 137.38 395.09
  L 137.37 400.91
  A 0.58 0.58 0.0 0 0 137.95 401.49
  L 149.96 401.50
  A 0.42 0.42 0.0 0 1 150.38 401.92
  L 150.34 430.83
  A 0.38 0.38 0.0 0 0 150.71 431.21
  Q 152.82 431.25 154.81 431.25"
/>
<path stroke="#868686" vector-effect="non-scaling-stroke" d="
  M 284.08 431.22
  A 0.35 0.35 0.0 0 0 284.43 430.87
  L 284.43 408.68
  A 0.35 0.35 0.0 0 1 285.06 408.47
  L 302.63 431.07
  A 0.35 0.35 0.0 0 0 302.91 431.21
  L 311.67 431.21
  A 0.35 0.35 0.0 0 0 312.02 430.86
  L 312.02 394.78
  A 0.35 0.35 0.0 0 0 311.67 394.43
  L 303.53 394.43
  A 0.35 0.35 0.0 0 0 303.18 394.78
  L 303.18 416.80
  A 0.35 0.35 0.0 0 1 302.55 417.01
  L 285.12 394.59
  A 0.35 0.35 0.0 0 0 284.84 394.45
  L 276.14 394.45
  A 0.35 0.35 0.0 0 0 275.79 394.80
  L 275.79 430.87
  A 0.35 0.35 0.0 0 0 276.14 431.22
  L 284.08 431.22"
/>
<path stroke="#868686" vector-effect="non-scaling-stroke" d="
  M 113.25 354.22
  A 0.35 0.35 0.0 0 0 113.58 354.70
  L 128.05 354.60
  A 0.35 0.35 0.0 0 0 128.37 354.12
  L 121.01 335.66
  A 0.35 0.35 0.0 0 0 120.36 335.66
  L 113.25 354.22"
/>
<path stroke="#868686" vector-effect="non-scaling-stroke" d="
  M 170.95 332.48
  L 171.01 345.46
  A 0.73 0.73 0.0 0 0 171.75 346.18
  L 181.39 346.13
  A 8.23 6.60 -0.3 0 0 189.58 339.49
  L 189.58 338.25
  A 8.23 6.60 -0.3 0 0 181.31 331.69
  L 171.67 331.74
  A 0.73 0.73 0.0 0 0 170.95 332.48"
/>
<path stroke="#868686" vector-effect="non-scaling-stroke" d="
  M 228.01 332.45
  L 228.13 364.11
  A 0.68 0.68 0.0 0 0 228.81 364.79
  L 238.57 364.76
  A 15.02 14.52 -0.2 0 0 253.54 350.19
  L 253.52 346.21
  A 15.02 14.52 -0.2 0 0 238.45 331.74
  L 228.69 331.77
  A 0.68 0.68 0.0 0 0 228.01 332.45"
/>
<path stroke="#868686" vector-effect="non-scaling-stroke" d="
  M 384.77 354.25
  A 0.32 0.32 0.0 0 0 385.07 354.69
  L 399.96 354.61
  A 0.32 0.32 0.0 0 0 400.26 354.17
  L 392.71 335.45
  A 0.32 0.32 0.0 0 0 392.12 335.46
  L 384.77 354.25"
/>
<path stroke="#868686" vector-effect="non-scaling-stroke" d="
  M 352.7000 409.9528
  A 9.60 9.60 0.0 0 0 343.1672 400.2860
  L 341.5273 400.2746
  A 9.60 9.60 0.0 0 0 331.8605 409.8073
  L 331.8200 415.6072
  A 9.60 9.60 0.0 0 0 341.3528 425.2740
  L 342.9927 425.2854
  A 9.60 9.60 0.0 0 0 352.6595 415.7527
  L 352.7000 409.9528"
/>
<path stroke="#868686" vector-effect="non-scaling-stroke" d="
  M 241.57 416.07
  A 0.37 0.37 0.0 0 0 241.92 416.58
  L 251.56 416.58
  A 0.37 0.37 0.0 0 0 251.91 416.07
  L 247.08 404.08
  A 0.37 0.37 0.0 0 0 246.40 404.08
  L 241.57 416.07"
/>
</g>
<path fill="#ffffff" d="
  M 500.00 0.00
  L 500.00 500.00
  L 0.00 500.00
  L 0.00 0.00
  L 500.00 0.00
  Z
  M 263.02 94.48
  A 0.25 0.25 0.0 0 0 262.68 94.76
  C 265.30 107.54 261.73 119.31 254.35 130.12
  Q 251.07 134.93 242.75 142.57
  C 223.42 160.31 199.74 179.17 183.39 191.65
  Q 115.90 243.18 96.31 257.80
  Q 77.85 271.58 64.17 280.41
  Q 55.91 285.74 46.75 289.52
  Q 46.00 289.83 40.49 291.12
  A 0.42 0.42 0.0 0 0 40.25 291.78
  L 40.26 291.79
  A 1.01 1.00 66.6 0 0 41.23 292.18
  Q 57.87 289.40 72.21 281.19
  Q 88.15 272.06 105.56 259.55
  Q 119.49 249.54 160.02 219.78
  Q 185.47 201.10 217.48 178.22
  Q 239.05 162.80 260.06 152.34
  Q 272.98 145.90 284.38 142.93
  C 301.83 138.38 322.54 138.72 338.45 147.83
  Q 345.33 151.77 351.41 157.13
  Q 378.98 181.45 401.77 209.67
  Q 402.44 210.50 404.70 212.80
  C 407.26 215.39 408.90 217.22 412.02 217.91
  A 1.80 1.80 0.0 0 0 414.20 216.39
  Q 414.42 214.77 413.65 212.61
  Q 407.02 193.86 396.23 176.77
  C 380.78 152.30 361.26 127.73 340.90 103.68
  Q 311.08 68.46 281.70 39.74
  C 279.14 37.24 276.89 35.48 274.69 33.27
  A 0.33 0.33 0.0 0 0 274.15 33.62
  C 276.29 39.12 278.60 44.30 279.91 49.02
  Q 284.06 64.00 283.20 79.17
  A 0.29 0.29 0.0 0 1 282.70 79.35
  C 278.92 75.44 274.75 73.84 269.20 71.15
  A 0.42 0.42 0.0 0 0 268.65 71.73
  Q 273.13 79.83 273.42 89.05
  Q 273.66 96.77 273.22 100.90
  A 0.26 0.26 0.0 0 1 272.78 101.05
  Q 269.03 97.04 263.02 94.48
  Z
  M 404.76 237.58
  C 401.20 238.68 393.03 242.87 391.26 246.78
  A 0.81 0.81 0.0 0 0 391.70 247.87
  Q 399.98 251.07 405.84 253.42
  Q 423.78 260.60 438.99 271.44
  A 0.37 0.37 0.0 0 1 438.83 272.11
  Q 435.31 272.64 432.13 272.81
  C 427.66 273.04 423.10 274.08 418.25 274.42
  C 411.54 274.89 403.05 276.47 398.31 276.61
  Q 397.80 276.63 397.61 276.88
  A 0.38 0.38 0.0 0 0 397.92 277.48
  Q 401.16 277.46 402.87 277.64
  Q 412.33 278.64 423.52 279.27
  Q 426.04 279.42 427.90 279.86
  A 5.57 5.48 -37.9 0 0 429.18 280.01
  Q 434.79 280.02 442.49 280.48
  C 447.69 280.79 454.29 280.55 458.64 278.22
  A 0.54 0.54 0.0 0 0 458.85 277.48
  C 449.46 261.12 438.33 245.59 423.44 233.51
  Q 417.06 228.35 415.51 227.90
  C 409.53 226.16 406.03 231.72 405.16 237.12
  A 0.59 0.59 0.0 0 1 404.76 237.58
  Z
  M 396.31 276.78
  Q 395.99 276.67 395.78 276.83
  A 0.33 0.33 0.0 0 0 395.91 277.42
  Q 396.33 277.50 396.37 277.47
  A 0.37 0.37 0.0 0 0 396.31 276.78
  Z
  M 89.04 358.11
  L 78.08 355.96
  A 1.18 1.18 0.0 0 0 76.77 356.66
  C 74.69 361.65 70.15 365.16 64.51 365.81
  C 52.94 367.15 45.76 360.19 43.96 349.14
  C 42.20 338.36 44.49 324.25 56.12 320.54
  C 64.66 317.82 72.95 321.29 76.66 329.78
  A 0.91 0.91 0.0 0 0 77.56 330.32
  L 88.58 329.34
  A 0.74 0.73 80.9 0 0 89.23 328.43
  Q 86.38 316.25 75.07 311.57
  C 63.48 306.77 46.56 308.80 37.80 318.57
  C 27.20 330.41 26.16 348.94 33.96 362.32
  C 45.84 382.69 80.65 381.39 89.46 358.88
  A 0.57 0.57 0.0 0 0 89.04 358.11
  Z
  M 114.77 322.34
  A 0.52 0.52 0.0 0 0 114.29 322.66
  L 92.98 373.94
  A 0.52 0.52 0.0 0 0 93.46 374.66
  L 105.27 374.66
  A 0.52 0.52 0.0 0 0 105.75 374.34
  L 109.94 364.27
  A 0.52 0.52 0.0 0 1 110.42 363.95
  L 131.82 363.95
  A 0.52 0.52 0.0 0 1 132.29 364.27
  L 136.57 374.28
  A 0.52 0.52 0.0 0 0 137.04 374.60
  L 149.47 374.60
  A 0.52 0.52 0.0 0 0 149.95 373.88
  L 128.10 322.66
  A 0.52 0.52 0.0 0 0 127.63 322.34
  L 114.77 322.34
  Z
  M 203.55 374.10
  L 192.33 354.68
  A 0.93 0.93 0.0 0 1 192.78 353.36
  Q 203.49 348.92 203.25 338.43
  C 202.95 325.44 191.98 322.43 181.24 322.35
  Q 168.95 322.26 158.49 322.34
  A 0.55 0.54 -0.5 0 0 157.95 322.88
  L 157.95 374.00
  A 0.60 0.59 -0.0 0 0 158.55 374.59
  L 170.51 374.59
  A 0.46 0.46 0.0 0 0 170.97 374.13
  L 170.97 355.97
  A 0.82 0.82 0.0 0 1 171.79 355.15
  L 178.17 355.15
  A 1.03 1.03 0.0 0 1 179.08 355.70
  L 188.64 374.07
  A 0.99 0.99 0.0 0 0 189.51 374.59
  L 203.26 374.59
  A 0.33 0.33 0.0 0 0 203.55 374.10
  Z
  M 214.69 322.86
  L 214.87 374.16
  A 0.41 0.41 0.0 0 0 215.28 374.57
  L 240.00 374.48
  A 27.81 24.57 -0.2 0 0 267.73 349.82
  L 267.71 346.84
  A 27.81 24.57 -0.2 0 0 239.82 322.36
  L 215.10 322.45
  A 0.41 0.41 0.0 0 0 214.69 322.86
  Z
  M 291.00 322.79
  A 0.48 0.48 0.0 0 0 290.52 322.31
  L 278.74 322.31
  A 0.48 0.48 0.0 0 0 278.26 322.79
  L 278.26 374.11
  A 0.48 0.48 0.0 0 0 278.74 374.59
  L 290.52 374.59
  A 0.48 0.48 0.0 0 0 291.00 374.11
  L 291.00 322.79
  Z
  M 305.19 374.26
  A 0.34 0.34 0.0 0 0 305.53 374.60
  L 316.06 374.60
  A 0.34 0.34 0.0 0 0 316.40 374.26
  L 316.40 342.05
  A 0.34 0.34 0.0 0 1 317.01 341.84
  L 342.36 374.46
  A 0.34 0.34 0.0 0 0 342.63 374.59
  L 355.10 374.59
  A 0.34 0.34 0.0 0 0 355.44 374.25
  L 355.44 322.66
  A 0.34 0.34 0.0 0 0 355.10 322.32
  L 343.50 322.32
  A 0.34 0.34 0.0 0 0 343.16 322.66
  L 343.16 354.35
  A 0.34 0.34 0.0 0 1 342.55 354.56
  L 317.60 322.45
  A 0.34 0.34 0.0 0 0 317.33 322.32
  L 305.53 322.32
  A 0.34 0.34 0.0 0 0 305.19 322.66
  L 305.19 374.26
  Z
  M 364.86 374.53
  L 376.91 374.53
  A 0.72 0.72 0.0 0 0 377.59 374.05
  L 381.07 364.47
  A 0.92 0.92 0.0 0 1 381.92 363.87
  L 403.19 363.89
  A 1.15 1.15 0.0 0 1 404.27 364.64
  L 407.66 374.04
  A 0.81 0.80 80.4 0 0 408.42 374.58
  L 420.99 374.59
  A 0.48 0.48 0.0 0 0 421.43 373.92
  L 399.83 322.89
  A 0.99 0.97 -11.0 0 0 398.92 322.29
  L 386.62 322.29
  A 0.89 0.89 0.0 0 0 385.80 322.83
  L 364.44 373.90
  A 0.45 0.45 0.0 0 0 364.86 374.53
  Z
  M 430.10 374.15
  A 0.44 0.44 0.0 0 0 430.54 374.59
  L 466.39 374.59
  A 0.44 0.44 0.0 0 0 466.83 374.15
  L 466.83 365.25
  A 0.44 0.44 0.0 0 0 466.39 364.81
  L 443.31 364.81
  A 0.44 0.44 0.0 0 1 442.87 364.37
  L 442.87 322.76
  A 0.44 0.44 0.0 0 0 442.43 322.32
  L 430.54 322.32
  A 0.44 0.44 0.0 0 0 430.10 322.76
  L 430.10 374.15
  Z
  M 362.3941 410.7748
  A 17.63 17.63 0.0 0 0 344.6109 393.2994
  L 339.7111 393.3421
  A 17.63 17.63 0.0 0 0 322.2356 411.1253
  L 322.2659 414.6052
  A 17.63 17.63 0.0 0 0 340.0491 432.0806
  L 344.9489 432.0379
  A 17.63 17.63 0.0 0 0 362.4244 414.2547
  L 362.3941 410.7748
  Z
  M 200.09 409.26
  Q 191.97 409.26 191.56 409.25
  A 0.40 0.40 0.0 0 1 191.16 408.85
  L 191.16 394.79
  A 0.44 0.44 0.0 0 0 190.72 394.35
  L 182.43 394.35
  A 0.46 0.45 -89.7 0 0 181.98 394.81
  Q 181.99 403.56 181.99 412.77
  Q 181.99 421.97 181.99 430.73
  A 0.46 0.45 89.7 0 0 182.44 431.19
  L 190.73 431.18
  A 0.44 0.44 0.0 0 0 191.17 430.74
  L 191.16 416.68
  A 0.40 0.40 0.0 0 1 191.56 416.28
  Q 191.97 416.27 200.10 416.27
  Q 208.22 416.26 208.63 416.27
  A 0.40 0.40 0.0 0 1 209.03 416.67
  L 209.03 430.73
  A 0.44 0.44 0.0 0 0 209.47 431.17
  L 217.76 431.17
  A 0.46 0.45 -89.7 0 0 218.21 430.72
  Q 218.20 421.96 218.20 412.76
  Q 218.20 403.55 218.20 394.79
  A 0.46 0.45 89.7 0 0 217.74 394.34
  L 209.45 394.34
  A 0.44 0.44 0.0 0 0 209.01 394.78
  L 209.02 408.84
  A 0.40 0.40 0.0 0 1 208.63 409.25
  Q 208.21 409.25 200.09 409.26
  Z
  M 246.96 423.47
  Q 253.59 423.47 254.40 423.51
  A 0.96 0.95 -7.9 0 1 255.25 424.15
  L 257.71 430.99
  A 0.33 0.33 0.0 0 0 258.02 431.21
  L 267.29 431.21
  A 0.20 0.19 -11.8 0 0 267.47 430.94
  L 252.02 394.69
  A 0.46 0.44 -10.1 0 0 251.62 394.42
  Q 250.05 394.37 246.96 394.37
  Q 243.86 394.37 242.29 394.42
  A 0.46 0.44 10.1 0 0 241.89 394.69
  L 226.46 430.95
  A 0.20 0.19 11.8 0 0 226.64 431.22
  L 235.91 431.22
  A 0.33 0.33 0.0 0 0 236.22 431.00
  L 238.68 424.15
  A 0.96 0.95 7.8 0 1 239.53 423.52
  Q 240.34 423.47 246.96 423.47
  Z
  M 381.77 424.15
  A 0.44 0.44 0.0 0 1 381.33 423.71
  L 381.33 394.83
  A 0.44 0.44 0.0 0 0 380.89 394.39
  L 372.55 394.39
  A 0.44 0.44 0.0 0 0 372.11 394.83
  L 372.11 430.78
  A 0.44 0.44 0.0 0 0 372.55 431.22
  L 398.47 431.22
  A 0.44 0.44 0.0 0 0 398.91 430.78
  L 398.91 424.59
  A 0.44 0.44 0.0 0 0 398.47 424.15
  L 381.77 424.15
  Z
  M 102.89 430.75
  A 0.47 0.47 0.0 0 0 103.36 431.22
  L 129.39 431.22
  A 0.47 0.47 0.0 0 0 129.86 430.75
  L 129.86 424.94
  A 0.47 0.47 0.0 0 0 129.39 424.47
  L 112.29 424.47
  A 0.47 0.47 0.0 0 1 111.82 424.00
  L 111.82 417.14
  A 0.47 0.47 0.0 0 1 112.29 416.67
  L 127.49 416.67
  A 0.47 0.47 0.0 0 0 127.96 416.20
  L 127.96 409.69
  A 0.47 0.47 0.0 0 0 127.49 409.22
  L 112.29 409.22
  A 0.47 0.47 0.0 0 1 111.82 408.75
  L 111.82 401.98
  A 0.47 0.47 0.0 0 1 112.29 401.51
  L 128.80 401.51
  A 0.47 0.47 0.0 0 0 129.27 401.04
  L 129.27 394.99
  A 0.47 0.47 0.0 0 0 128.80 394.52
  L 103.36 394.52
  A 0.47 0.47 0.0 0 0 102.89 394.99
  L 102.89 430.75
  Z
  M 154.81 431.25
  Q 156.79 431.25 158.90 431.22
  A 0.38 0.38 0.0 0 0 159.27 430.84
  L 159.27 401.93
  A 0.42 0.42 0.0 0 1 159.69 401.51
  L 171.70 401.51
  A 0.58 0.58 0.0 0 0 172.28 400.93
  L 172.28 395.11
  A 0.57 0.57 0.0 0 0 171.71 394.54
  Q 162.75 394.52 154.83 394.52
  Q 146.91 394.50 137.95 394.52
  A 0.57 0.57 0.0 0 0 137.38 395.09
  L 137.37 400.91
  A 0.58 0.58 0.0 0 0 137.95 401.49
  L 149.96 401.50
  A 0.42 0.42 0.0 0 1 150.38 401.92
  L 150.34 430.83
  A 0.38 0.38 0.0 0 0 150.71 431.21
  Q 152.82 431.25 154.81 431.25
  Z
  M 284.08 431.22
  A 0.35 0.35 0.0 0 0 284.43 430.87
  L 284.43 408.68
  A 0.35 0.35 0.0 0 1 285.06 408.47
  L 302.63 431.07
  A 0.35 0.35 0.0 0 0 302.91 431.21
  L 311.67 431.21
  A 0.35 0.35 0.0 0 0 312.02 430.86
  L 312.02 394.78
  A 0.35 0.35 0.0 0 0 311.67 394.43
  L 303.53 394.43
  A 0.35 0.35 0.0 0 0 303.18 394.78
  L 303.18 416.80
  A 0.35 0.35 0.0 0 1 302.55 417.01
  L 285.12 394.59
  A 0.35 0.35 0.0 0 0 284.84 394.45
  L 276.14 394.45
  A 0.35 0.35 0.0 0 0 275.79 394.80
  L 275.79 430.87
  A 0.35 0.35 0.0 0 0 276.14 431.22
  L 284.08 431.22
  Z"
/>
<path fill="#ee181f" d="
  M 263.02 94.48
  Q 269.03 97.04 272.78 101.05
  A 0.26 0.26 0.0 0 0 273.22 100.90
  Q 273.66 96.77 273.42 89.05
  Q 273.13 79.83 268.65 71.73
  A 0.42 0.42 0.0 0 1 269.20 71.15
  C 274.75 73.84 278.92 75.44 282.70 79.35
  A 0.29 0.29 0.0 0 0 283.20 79.17
  Q 284.06 64.00 279.91 49.02
  C 278.60 44.30 276.29 39.12 274.15 33.62
  A 0.33 0.33 0.0 0 1 274.69 33.27
  C 276.89 35.48 279.14 37.24 281.70 39.74
  Q 311.08 68.46 340.90 103.68
  C 361.26 127.73 380.78 152.30 396.23 176.77
  Q 407.02 193.86 413.65 212.61
  Q 414.42 214.77 414.20 216.39
  A 1.80 1.80 0.0 0 1 412.02 217.91
  C 408.90 217.22 407.26 215.39 404.70 212.80
  Q 402.44 210.50 401.77 209.67
  Q 378.98 181.45 351.41 157.13
  Q 345.33 151.77 338.45 147.83
  C 322.54 138.72 301.83 138.38 284.38 142.93
  Q 272.98 145.90 260.06 152.34
  Q 239.05 162.80 217.48 178.22
  Q 185.47 201.10 160.02 219.78
  Q 119.49 249.54 105.56 259.55
  Q 88.15 272.06 72.21 281.19
  Q 57.87 289.40 41.23 292.18
  A 1.01 1.00 66.6 0 1 40.26 291.79
  L 40.25 291.78
  A 0.42 0.42 0.0 0 1 40.49 291.12
  Q 46.00 289.83 46.75 289.52
  Q 55.91 285.74 64.17 280.41
  Q 77.85 271.58 96.31 257.80
  Q 115.90 243.18 183.39 191.65
  C 199.74 179.17 223.42 160.31 242.75 142.57
  Q 251.07 134.93 254.35 130.12
  C 261.73 119.31 265.30 107.54 262.68 94.76
  A 0.25 0.25 0.0 0 1 263.02 94.48
  Z"
/>
<path fill="#ee181f" d="
  M 405.16 237.12
  C 406.03 231.72 409.53 226.16 415.51 227.90
  Q 417.06 228.35 423.44 233.51
  C 438.33 245.59 449.46 261.12 458.85 277.48
  A 0.54 0.54 0.0 0 1 458.64 278.22
  C 454.29 280.55 447.69 280.79 442.49 280.48
  Q 434.79 280.02 429.18 280.01
  A 5.57 5.48 -37.9 0 1 427.90 279.86
  Q 426.04 279.42 423.52 279.27
  Q 412.33 278.64 402.87 277.64
  Q 401.16 277.46 397.92 277.48
  A 0.38 0.38 0.0 0 1 397.61 276.88
  Q 397.80 276.63 398.31 276.61
  C 403.05 276.47 411.54 274.89 418.25 274.42
  C 423.10 274.08 427.66 273.04 432.13 272.81
  Q 435.31 272.64 438.83 272.11
  A 0.37 0.37 0.0 0 0 438.99 271.44
  Q 423.78 260.60 405.84 253.42
  Q 399.98 251.07 391.70 247.87
  A 0.81 0.81 0.0 0 1 391.26 246.78
  C 393.03 242.87 401.20 238.68 404.76 237.58
  A 0.59 0.59 0.0 0 0 405.16 237.12
  Z"
/>
<path fill="#ee181f" d="
  M 396.37 277.47
  Q 396.33 277.50 395.91 277.42
  A 0.33 0.33 0.0 0 1 395.78 276.83
  Q 395.99 276.67 396.31 276.78
  A 0.37 0.37 0.0 0 1 396.37 277.47
  Z"
/>
<path fill="#0c0c0c" d="
  M 89.04 358.11
  A 0.57 0.57 0.0 0 1 89.46 358.88
  C 80.65 381.39 45.84 382.69 33.96 362.32
  C 26.16 348.94 27.20 330.41 37.80 318.57
  C 46.56 308.80 63.48 306.77 75.07 311.57
  Q 86.38 316.25 89.23 328.43
  A 0.74 0.73 80.9 0 1 88.58 329.34
  L 77.56 330.32
  A 0.91 0.91 0.0 0 1 76.66 329.78
  C 72.95 321.29 64.66 317.82 56.12 320.54
  C 44.49 324.25 42.20 338.36 43.96 349.14
  C 45.76 360.19 52.94 367.15 64.51 365.81
  C 70.15 365.16 74.69 361.65 76.77 356.66
  A 1.18 1.18 0.0 0 1 78.08 355.96
  L 89.04 358.11
  Z"
/>
<path fill="#0c0c0c" d="
  M 114.77 322.34
  L 127.63 322.34
  A 0.52 0.52 0.0 0 1 128.10 322.66
  L 149.95 373.88
  A 0.52 0.52 0.0 0 1 149.47 374.60
  L 137.04 374.60
  A 0.52 0.52 0.0 0 1 136.57 374.28
  L 132.29 364.27
  A 0.52 0.52 0.0 0 0 131.82 363.95
  L 110.42 363.95
  A 0.52 0.52 0.0 0 0 109.94 364.27
  L 105.75 374.34
  A 0.52 0.52 0.0 0 1 105.27 374.66
  L 93.46 374.66
  A 0.52 0.52 0.0 0 1 92.98 373.94
  L 114.29 322.66
  A 0.52 0.52 0.0 0 1 114.77 322.34
  Z
  M 113.25 354.22
  A 0.35 0.35 0.0 0 0 113.58 354.70
  L 128.05 354.60
  A 0.35 0.35 0.0 0 0 128.37 354.12
  L 121.01 335.66
  A 0.35 0.35 0.0 0 0 120.36 335.66
  L 113.25 354.22
  Z"
/>
<path fill="#0c0c0c" d="
  M 203.55 374.10
  A 0.33 0.33 0.0 0 1 203.26 374.59
  L 189.51 374.59
  A 0.99 0.99 0.0 0 1 188.64 374.07
  L 179.08 355.70
  A 1.03 1.03 0.0 0 0 178.17 355.15
  L 171.79 355.15
  A 0.82 0.82 0.0 0 0 170.97 355.97
  L 170.97 374.13
  A 0.46 0.46 0.0 0 1 170.51 374.59
  L 158.55 374.59
  A 0.60 0.59 -0.0 0 1 157.95 374.00
  L 157.95 322.88
  A 0.55 0.54 -0.5 0 1 158.49 322.34
  Q 168.95 322.26 181.24 322.35
  C 191.98 322.43 202.95 325.44 203.25 338.43
  Q 203.49 348.92 192.78 353.36
  A 0.93 0.93 0.0 0 0 192.33 354.68
  L 203.55 374.10
  Z
  M 170.95 332.48
  L 171.01 345.46
  A 0.73 0.73 0.0 0 0 171.75 346.18
  L 181.39 346.13
  A 8.23 6.60 -0.3 0 0 189.58 339.49
  L 189.58 338.25
  A 8.23 6.60 -0.3 0 0 181.31 331.69
  L 171.67 331.74
  A 0.73 0.73 0.0 0 0 170.95 332.48
  Z"
/>
<path fill="#0c0c0c" d="
  M 214.69 322.86
  A 0.41 0.41 0.0 0 1 215.10 322.45
  L 239.82 322.36
  A 27.81 24.57 -0.2 0 1 267.71 346.84
  L 267.73 349.82
  A 27.81 24.57 -0.2 0 1 240.00 374.48
  L 215.28 374.57
  A 0.41 0.41 0.0 0 1 214.87 374.16
  L 214.69 322.86
  Z
  M 228.01 332.45
  L 228.13 364.11
  A 0.68 0.68 0.0 0 0 228.81 364.79
  L 238.57 364.76
  A 15.02 14.52 -0.2 0 0 253.54 350.19
  L 253.52 346.21
  A 15.02 14.52 -0.2 0 0 238.45 331.74
  L 228.69 331.77
  A 0.68 0.68 0.0 0 0 228.01 332.45
  Z"
/>
<rect fill="#0c0c0c" x="278.26" y="322.31" width="12.74" height="52.28" rx="0.48"/>
<path fill="#0c0c0c" d="
  M 305.19 374.26
  L 305.19 322.66
  A 0.34 0.34 0.0 0 1 305.53 322.32
  L 317.33 322.32
  A 0.34 0.34 0.0 0 1 317.60 322.45
  L 342.55 354.56
  A 0.34 0.34 0.0 0 0 343.16 354.35
  L 343.16 322.66
  A 0.34 0.34 0.0 0 1 343.50 322.32
  L 355.10 322.32
  A 0.34 0.34 0.0 0 1 355.44 322.66
  L 355.44 374.25
  A 0.34 0.34 0.0 0 1 355.10 374.59
  L 342.63 374.59
  A 0.34 0.34 0.0 0 1 342.36 374.46
  L 317.01 341.84
  A 0.34 0.34 0.0 0 0 316.40 342.05
  L 316.40 374.26
  A 0.34 0.34 0.0 0 1 316.06 374.60
  L 305.53 374.60
  A 0.34 0.34 0.0 0 1 305.19 374.26
  Z"
/>
<path fill="#0c0c0c" d="
  M 364.86 374.53
  A 0.45 0.45 0.0 0 1 364.44 373.90
  L 385.80 322.83
  A 0.89 0.89 0.0 0 1 386.62 322.29
  L 398.92 322.29
  A 0.99 0.97 -11.0 0 1 399.83 322.89
  L 421.43 373.92
  A 0.48 0.48 0.0 0 1 420.99 374.59
  L 408.42 374.58
  A 0.81 0.80 80.4 0 1 407.66 374.04
  L 404.27 364.64
  A 1.15 1.15 0.0 0 0 403.19 363.89
  L 381.92 363.87
  A 0.92 0.92 0.0 0 0 381.07 364.47
  L 377.59 374.05
  A 0.72 0.72 0.0 0 1 376.91 374.53
  L 364.86 374.53
  Z
  M 384.77 354.25
  A 0.32 0.32 0.0 0 0 385.07 354.69
  L 399.96 354.61
  A 0.32 0.32 0.0 0 0 400.26 354.17
  L 392.71 335.45
  A 0.32 0.32 0.0 0 0 392.12 335.46
  L 384.77 354.25
  Z"
/>
<path fill="#0c0c0c" d="
  M 430.10 374.15
  L 430.10 322.76
  A 0.44 0.44 0.0 0 1 430.54 322.32
  L 442.43 322.32
  A 0.44 0.44 0.0 0 1 442.87 322.76
  L 442.87 364.37
  A 0.44 0.44 0.0 0 0 443.31 364.81
  L 466.39 364.81
  A 0.44 0.44 0.0 0 1 466.83 365.25
  L 466.83 374.15
  A 0.44 0.44 0.0 0 1 466.39 374.59
  L 430.54 374.59
  A 0.44 0.44 0.0 0 1 430.10 374.15
  Z"
/>
<path fill="#ffffff" d="
  M 170.95 332.48
  A 0.73 0.73 0.0 0 1 171.67 331.74
  L 181.31 331.69
  A 8.23 6.60 -0.3 0 1 189.58 338.25
  L 189.58 339.49
  A 8.23 6.60 -0.3 0 1 181.39 346.13
  L 171.75 346.18
  A 0.73 0.73 0.0 0 1 171.01 345.46
  L 170.95 332.48
  Z"
/>
<path fill="#ffffff" d="
  M 228.01 332.45
  A 0.68 0.68 0.0 0 1 228.69 331.77
  L 238.45 331.74
  A 15.02 14.52 -0.2 0 1 253.52 346.21
  L 253.54 350.19
  A 15.02 14.52 -0.2 0 1 238.57 364.76
  L 228.81 364.79
  A 0.68 0.68 0.0 0 1 228.13 364.11
  L 228.01 332.45
  Z"
/>
<path fill="#ffffff" d="
  M 384.77 354.25
  L 392.12 335.46
  A 0.32 0.32 0.0 0 1 392.71 335.45
  L 400.26 354.17
  A 0.32 0.32 0.0 0 1 399.96 354.61
  L 385.07 354.69
  A 0.32 0.32 0.0 0 1 384.77 354.25
  Z"
/>
<path fill="#ffffff" d="
  M 113.25 354.22
  L 120.36 335.66
  A 0.35 0.35 0.0 0 1 121.01 335.66
  L 128.37 354.12
  A 0.35 0.35 0.0 0 1 128.05 354.60
  L 113.58 354.70
  A 0.35 0.35 0.0 0 1 113.25 354.22
  Z"
/>
<path fill="#0c0c0c" d="
  M 362.4244 414.2547
  A 17.63 17.63 0.0 0 1 344.9489 432.0379
  L 340.0491 432.0806
  A 17.63 17.63 0.0 0 1 322.2659 414.6052
  L 322.2356 411.1253
  A 17.63 17.63 0.0 0 1 339.7111 393.3421
  L 344.6109 393.2994
  A 17.63 17.63 0.0 0 1 362.3941 410.7748
  L 362.4244 414.2547
  Z
  M 352.7000 409.9528
  A 9.60 9.60 0.0 0 0 343.1672 400.2860
  L 341.5273 400.2746
  A 9.60 9.60 0.0 0 0 331.8605 409.8073
  L 331.8200 415.6072
  A 9.60 9.60 0.0 0 0 341.3528 425.2740
  L 342.9927 425.2854
  A 9.60 9.60 0.0 0 0 352.6595 415.7527
  L 352.7000 409.9528
  Z"
/>
<path fill="#0c0c0c" d="
  M 218.20 412.76
  Q 218.20 421.96 218.21 430.72
  A 0.46 0.45 -89.7 0 1 217.76 431.17
  L 209.47 431.17
  A 0.44 0.44 0.0 0 1 209.03 430.73
  L 209.03 416.67
  A 0.40 0.40 0.0 0 0 208.63 416.27
  Q 208.22 416.26 200.10 416.27
  Q 191.97 416.27 191.56 416.28
  A 0.40 0.40 0.0 0 0 191.16 416.68
  L 191.17 430.74
  A 0.44 0.44 0.0 0 1 190.73 431.18
  L 182.44 431.19
  A 0.46 0.45 89.7 0 1 181.99 430.73
  Q 181.99 421.97 181.99 412.77
  Q 181.99 403.56 181.98 394.81
  A 0.46 0.45 -89.7 0 1 182.43 394.35
  L 190.72 394.35
  A 0.44 0.44 0.0 0 1 191.16 394.79
  L 191.16 408.85
  A 0.40 0.40 0.0 0 0 191.56 409.25
  Q 191.97 409.26 200.09 409.26
  Q 208.21 409.25 208.63 409.25
  A 0.40 0.40 0.0 0 0 209.02 408.84
  L 209.01 394.78
  A 0.44 0.44 0.0 0 1 209.45 394.34
  L 217.74 394.34
  A 0.46 0.45 89.7 0 1 218.20 394.79
  Q 218.20 403.55 218.20 412.76
  Z"
/>
<path fill="#0c0c0c" d="
  M 246.96 394.37
  Q 250.05 394.37 251.62 394.42
  A 0.46 0.44 -10.1 0 1 252.02 394.69
  L 267.47 430.94
  A 0.20 0.19 -11.8 0 1 267.29 431.21
  L 258.02 431.21
  A 0.33 0.33 0.0 0 1 257.71 430.99
  L 255.25 424.15
  A 0.96 0.95 -7.9 0 0 254.40 423.51
  Q 253.59 423.47 246.96 423.47
  Q 240.34 423.47 239.53 423.52
  A 0.96 0.95 7.8 0 0 238.68 424.15
  L 236.22 431.00
  A 0.33 0.33 0.0 0 1 235.91 431.22
  L 226.64 431.22
  A 0.20 0.19 11.8 0 1 226.46 430.95
  L 241.89 394.69
  A 0.46 0.44 10.1 0 1 242.29 394.42
  Q 243.86 394.37 246.96 394.37
  Z
  M 241.57 416.07
  A 0.37 0.37 0.0 0 0 241.92 416.58
  L 251.56 416.58
  A 0.37 0.37 0.0 0 0 251.91 416.07
  L 247.08 404.08
  A 0.37 0.37 0.0 0 0 246.40 404.08
  L 241.57 416.07
  Z"
/>
<path fill="#0c0c0c" d="
  M 381.77 424.15
  L 398.47 424.15
  A 0.44 0.44 0.0 0 1 398.91 424.59
  L 398.91 430.78
  A 0.44 0.44 0.0 0 1 398.47 431.22
  L 372.55 431.22
  A 0.44 0.44 0.0 0 1 372.11 430.78
  L 372.11 394.83
  A 0.44 0.44 0.0 0 1 372.55 394.39
  L 380.89 394.39
  A 0.44 0.44 0.0 0 1 381.33 394.83
  L 381.33 423.71
  A 0.44 0.44 0.0 0 0 381.77 424.15
  Z"
/>
<path fill="#0c0c0c" d="
  M 102.89 430.75
  L 102.89 394.99
  A 0.47 0.47 0.0 0 1 103.36 394.52
  L 128.80 394.52
  A 0.47 0.47 0.0 0 1 129.27 394.99
  L 129.27 401.04
  A 0.47 0.47 0.0 0 1 128.80 401.51
  L 112.29 401.51
  A 0.47 0.47 0.0 0 0 111.82 401.98
  L 111.82 408.75
  A 0.47 0.47 0.0 0 0 112.29 409.22
  L 127.49 409.22
  A 0.47 0.47 0.0 0 1 127.96 409.69
  L 127.96 416.20
  A 0.47 0.47 0.0 0 1 127.49 416.67
  L 112.29 416.67
  A 0.47 0.47 0.0 0 0 111.82 417.14
  L 111.82 424.00
  A 0.47 0.47 0.0 0 0 112.29 424.47
  L 129.39 424.47
  A 0.47 0.47 0.0 0 1 129.86 424.94
  L 129.86 430.75
  A 0.47 0.47 0.0 0 1 129.39 431.22
  L 103.36 431.22
  A 0.47 0.47 0.0 0 1 102.89 430.75
  Z"
/>
<path fill="#0c0c0c" d="
  M 154.83 394.52
  Q 162.75 394.52 171.71 394.54
  A 0.57 0.57 0.0 0 1 172.28 395.11
  L 172.28 400.93
  A 0.58 0.58 0.0 0 1 171.70 401.51
  L 159.69 401.51
  A 0.42 0.42 0.0 0 0 159.27 401.93
  L 159.27 430.84
  A 0.38 0.38 0.0 0 1 158.90 431.22
  Q 156.79 431.25 154.81 431.25
  Q 152.82 431.25 150.71 431.21
  A 0.38 0.38 0.0 0 1 150.34 430.83
  L 150.38 401.92
  A 0.42 0.42 0.0 0 0 149.96 401.50
  L 137.95 401.49
  A 0.58 0.58 0.0 0 1 137.37 400.91
  L 137.38 395.09
  A 0.57 0.57 0.0 0 1 137.95 394.52
  Q 146.91 394.50 154.83 394.52
  Z"
/>
<path fill="#0c0c0c" d="
  M 284.08 431.22
  L 276.14 431.22
  A 0.35 0.35 0.0 0 1 275.79 430.87
  L 275.79 394.80
  A 0.35 0.35 0.0 0 1 276.14 394.45
  L 284.84 394.45
  A 0.35 0.35 0.0 0 1 285.12 394.59
  L 302.55 417.01
  A 0.35 0.35 0.0 0 0 303.18 416.80
  L 303.18 394.78
  A 0.35 0.35 0.0 0 1 303.53 394.43
  L 311.67 394.43
  A 0.35 0.35 0.0 0 1 312.02 394.78
  L 312.02 430.86
  A 0.35 0.35 0.0 0 1 311.67 431.21
  L 302.91 431.21
  A 0.35 0.35 0.0 0 1 302.63 431.07
  L 285.06 408.47
  A 0.35 0.35 0.0 0 0 284.43 408.68
  L 284.43 430.87
  A 0.35 0.35 0.0 0 1 284.08 431.22
  Z"
/>
<rect fill="#ffffff" x="-10.42" y="-12.50" transform="translate(342.26,412.78) rotate(0.4)" width="20.84" height="25.00" rx="9.60"/>
<path fill="#ffffff" d="
  M 241.57 416.07
  L 246.40 404.08
  A 0.37 0.37 0.0 0 1 247.08 404.08
  L 251.91 416.07
  A 0.37 0.37 0.0 0 1 251.56 416.58
  L 241.92 416.58
  A 0.37 0.37 0.0 0 1 241.57 416.07
  Z"
/>
</svg>
