<?xml version="1.0" standalone="no"?>
<!DOCTYPE svg PUBLIC "-//W3C//DTD SVG 20010904//EN"
 "http://www.w3.org/TR/2001/REC-SVG-20010904/DTD/svg10.dtd">
<svg version="1.0" xmlns="http://www.w3.org/2000/svg"
 width="267.000000pt" height="267.000000pt" viewBox="0 0 267.000000 267.000000"
 preserveAspectRatio="xMidYMid meet">
<metadata>
Created by potrace 1.14, written by Peter Selinger 2001-2017
</metadata>
<g transform="translate(0.000000,267.000000) scale(0.100000,-0.100000)"
fill="#000000" stroke="none">
<path d="M755 2520 c-22 -42 -65 -158 -72 -190 -29 -143 -34 -221 -19 -289 5
-23 2 -21 -34 19 -45 51 -41 59 -44 -80 -2 -69 1 -93 19 -190 6 -34 5 -36 -69
-93 -78 -61 -176 -159 -176 -175 0 -6 16 -14 36 -19 l36 -8 -34 -45 c-47 -62
-115 -179 -123 -212 l-7 -28 49 5 49 4 1 -74 c2 -101 20 -189 49 -247 22 -44
68 -81 504 -408 264 -198 482 -360 485 -360 3 0 3 17 0 37 -10 71 -7 220 5
279 21 103 65 167 132 195 22 9 45 8 103 -3 43 -9 117 -14 177 -13 151 3 259
36 368 110 30 20 66 39 80 41 74 12 85 19 102 68 48 128 40 306 -19 422 -33
66 -100 144 -158 184 -35 24 -43 36 -49 71 -16 98 -93 191 -221 267 -39 22
-153 73 -255 112 -340 130 -549 252 -724 423 -64 64 -133 150 -159 201 l-15
28 -17 -32z"/>
</g>
</svg>
