<svg viewBox="0 0 576 512" xmlns="http://www.w3.org/2000/svg"><path d="m243.4 176h-59.4c-48.6 0-88-39.4-88-88s39.4-88 88-88h2.2c31.9 0 61.5 16.91 77.7 44.45l24.1 41.01 24.1-41.01c16.2-27.54 45.8-44.45 77.7-44.45h2.2c48.6 0 88 39.4 88 88s-39.4 88-88 88h-59.4l53.8 64.6c8.5 10.2 7.1 24.5-3 33.8-10.2 8.5-25.4 7.1-33.8-3l-61.6-73.9-61.6 73.9c-9.3 10.1-23.6 11.5-33.8 3-10.1-9.3-11.5-23.6-3-33.8zm-59.4-128c-22.1 0-40 17.91-40 40 0 22.1 17.9 40 40 40h73.3l-34.8-59.22c-7.6-12.87-21.4-20.78-36.3-20.78zm248 40c0-22.09-17.9-40-40-40h-2.2c-14.9 0-28.7 7.91-36.3 20.78l-34.8 59.22h73.3c22.1 0 40-17.9 40-40zm-432 328v-96h576v96z"/><path d="m470.4 128h41.6c35.3 0 64 28.7 64 64v128h-576v-128c0-35.3 28.65-64 64-64h41.6c14.6 28.5 44.2 48 78.4 48h59.4l-53.8 64.6c-8.5 10.2-7.1 24.5 3 33.8 10.2 8.5 24.5 7.1 33.8-3l60.7-73.9 62.5 73.9c8.4 10.1 23.6 11.5 33.8 3 10.1-9.3 11.5-23.6 3-33.8l-53.8-64.6h59.4c34.2 0 63.8-19.5 78.4-48zm105.6 288v32c0 35.3-28.7 64-64 64h-448c-35.35 0-64-28.7-64-64v-32z" opacity=".4"/></svg>