<svg viewBox="0 0 512 512" xmlns="http://www.w3.org/2000/svg"><path d="m320 176.7-.0041 26.79c-65.3959-3.79-127.1959-30.99-174.0959-76.79 1.12-5.68 2.44-11.34 3.1-16.1 10.79-38.53 29.94-74.05 56.2-104.2 8.91-10.29 25.84-5.064 27.77 8.425 9.83 61.685 40.23 119.275 87.03 161.875z"/><path d="m400 63.97c-44.2.0386-80.02 35.87-79.1 80.08l.0014 59.44c-101.9-5.852-191.9-68.31-233-161.7-6.4214-12.53-24.0914-13.26-29.8914-.96-17.14 36.16-26.02 75.67-26 115.77 0 70.8 34.11 136.9 85.11 185.9 12.27 11.73 25.25 22.66 38.88 32.77l-143.88 35.93c-8.615 2.199-13.82 10.97-11.62 19.59.4368 1.711 1.154 3.4 2.12 4.879 17.4 26.9 60.3 72.44 153.2 76.29 8.1.2516 16.01-2.554 22.12-7.883l65.23-56.12 76.84.0561c88.28.0773 159.9-71.59 160-159.9.0001-.0067.0013-160.2.0013-160.2l31.1-63.99zm0 96.13c-8.837-.0195-16.03-7.173-16.01-16.01.0195-8.837 7.175-16.07 16.01-16.05 8.837.0195 16.01 7.176 15.99 16.01-.89 8.85-7.19 16.05-15.99 16.05z" opacity=".4"/></svg>