<svg viewBox="0 0 640 512" xmlns="http://www.w3.org/2000/svg"><path d="m130.3 233.8h-10.3v238.2c0 6.4-2.5 12.5-7.9 16.1-3.6 5.4-9.7 7.9-16.1 7.9-6.37 0-12.47-2.5-16.97-7.9-4.5-3.6-7.03-9.7-7.03-16.1v-238.2h-10.14c-18-3.5-34.22-13.1-46.76-27.2-6.093-8.8-10.993-19-13.422-29.9-2.4301-10.9-2.3255-22.2.306-33.1l25.886-116.85c.76-3.27 2.69-6.16 5.43-8.11 2.74-1.94 6.1-2.81 9.45-2.45 3.34.37 6.43 1.95 8.68 4.45 2.26 2.49 3.52 5.73 3.55 9.09v123.47h14.91l14.65-126.99c.34-2.81 1.69-5.4 3.8-7.28 2.12-1.88 4.85-2.92 7.68-2.92 2.82 0 5.58 1.04 7.68 2.92s3.5 4.47 3.8 7.28l14.6 126.99h14.9v-123.47c.1-3.36 1.3-6.6 3.6-9.09 2.2-2.5 5.3-4.08 8.7-4.45 3.3-.36 5.8.51 9.4 2.45 2.7 1.95 4.7 4.84 5.4 8.11l25.9 116.85c2.7 10.8 2.8 22.1.4 33s-7.3 21.1-14.2 29.9c-11.7 14.1-27.9 23.8-45.9 27.3zm494-215.72c3.1 1.33 6 3.27 8.3 5.71 2.4 2.43 4.3 5.31 5.6 8.47 1.2 3.17 1.8 6.54 1.8 9.95v429.79c0 6.4-2.5 12.5-7.9 16.1-3.6 5.4-9.7 7.9-16.1 7.9s-12.5-2.5-17-7.9c-4.5-3.6-7-9.7-7-16.1v-152h-48c-8.5 0-16.6-3.4-22.6-9.4s-9.4-14.1-9.4-22.6l.4-129.8c-.2-29.9 8.4-59.2 24.9-84.18 16.4-24.97 39.9-44.51 67.5-56.13 3-1.25 6.3-2.79 9.6-1.89 3.4.03 6.8.74 9.9 2.07z"/><path d="m221 136.5-14.1-63.64c42.6-30.12 94.4-44.37 146.5-40.28 52 4.09 100.9 26.27 138.3 62.68-7.3 20.14-11.1 41.44-11.2 62.84v30.2c-10.9-23.4-27.2-43.8-47.7-59.5-20.5-15.6-44.5-26.1-69.9-30.49-25.4-4.38-51.5-2.52-76 5.39-24.5 7.9-46.8 21.7-64.8 40.1-.4-2.4-.3-4.8-1.1-7.3zm205.5 29c24 24 37.5 56.6 37.5 89.6 0 26.2-7.5 51-21.6 72-14 21.1-34 37.5-58.3 47.2-22.5 9.6-48.2 12.2-73.1 7.2-24.8-4.9-47.6-17.1-65.5-35s-30.1-40.7-35-66.4c-5-24-2.4-49.7 7.2-73.1 9.7-23.4 26.1-43.4 47.2-57.4 21-14.1 45.8-22.5 71.1-22.5 33.9 0 66.5 14.4 90.5 38.4zm111.9 186.1c-16.7 35.6-42.5 66.1-74.8 88.5s-70 36-109.1 39.2c-39.2 3.2-78.6-3.9-114.1-20.7s-66-42.7-88.4-75v-122.7c8.7-3.1 17-7.3 24.8-12.5-.2 1.7-.8 5-.8 6.7-.9 38.3 13 74.5 36.9 103.3 24 28.7 57.2 48.1 94 54.9s74.7.4 107.3-18c32.6-19.2 57.7-47.5 70.9-82.5 3.2 7.6 7 14.5 13.7 20.4 10.6 10.6 24.7 17.1 39.6 18.4z" opacity=".4"/></svg>