<svg viewBox="0 0 512 512" xmlns="http://www.w3.org/2000/svg"><path d="m256 160c-97.25 0-176 78.75-176 176s78.8 176 176 176 176-78.75 176-176-78.7-176-176-176zm92.5 157.3-37.88 37 8.875 52.25c1.625 9.25-8.25 16.5-16.63 12l-46.88-24.62-46.885 24.57c-8.375 4.5-18.25-2.75-16.63-12l8.875-52.25-37.88-37c-6.865-6.65-2.965-18.25 6.435-19.65l52.38-7.625 23.42-47.475c2-4.25 6.125-6.375 10.25-6.375s8.25 2.175 10.25 6.375l23.5 47.5 52.38 7.625c9.52 1.375 13.32 12.975 6.42 19.675z"/><path d="m136.3 0h-120.27c-12.95 0-20.53 14.58-13.1 25.18l130.3 184.8c28.74-27.99 67-46.13 109.5-49.3l-93.63-152.91c-2-4.821-7.2-7.77-12.8-7.77zm358.8 0h-119.4c-5.621 0-10.83 2.949-13.72 7.77l-92.78 152.93c42.5 3.168 80.76 21.31 109.5 49.3l130.3-184.8c7.5-10.62-.1-25.2-13.9-25.2z" opacity=".4"/></svg>