<svg viewBox="0 0 640 512" xmlns="http://www.w3.org/2000/svg"><path d="m160 320c53.02 0 96-42.98 96-96s-42.98-96-96-96c-53.9 0-96 42.1-96 96 0 53 42.1 96 96 96zm32 32h-64c-70.69 0-128 57.31-128 128 0 17.67 14.33 32 32 32h256c17.67 0 32-14.33 32-32 0-70.7-57.3-128-128-128zm32-288v49.81c38.1 22.19 64 62.99 64 110.19 0 41.81-20.14 78.1-51.24 102.4 18.54 5.4 35.44 14.3 50.54 25.6h96.69v-48c0-8.838 7.164-16 16-16h96c8.836 0 16 7.162 16 16v48h64v-288z"/><path d="m592 0h-384c-26.5 0-48 22.25-48 49.63v46.37c23.42 0 45.1 6.781 63.1 17.81v-49.81h352v288h-287.8c22.07 16.48 39.54 38.5 50.76 64h253.9c26.54 0 48.04-22.2 48.04-49.6v-316.77c0-27.38-21.5-49.63-48-49.63z" opacity=".4"/></svg>