<svg viewBox="0 0 576 512" xmlns="http://www.w3.org/2000/svg"><path d="m320.1 281.3c0 3.165 1.844 6.643 6.779 6.643h82.26c4.949 0 6.724-3.498 6.724-6.67 0-1.234-.2689-2.42-.7241-3.33l-41.13-66.63c-1.699-2.265-4.14-3.409-6.436-3.409-2.264 0-4.386 1.113-5.566 3.409l-41.13 66.63c-.4769.957-.7769 2.157-.7769 3.357zm31.9-174.7-.0025-70.88c0-5.1-3.376-11.5-8.876-14.25l-39.63-19.75c-2.2915-1.1659-4.6915-1.7201-7.0915-1.7201-9.821 0-13.96 7.836-14.87 10.11l-36.03 90.0901c13.1-2.59 27.1-4.22 42.5-4.22 24.3 0 45.3 4 64 10.62zm-191.9 174.7c0 3.165 1.844 6.643 6.779 6.643h82.26c4.949 0 6.724-3.498 6.724-6.67 0-1.234-.2689-2.42-.7241-3.33l-42.0389-66.543c-1.699-2.265-4.127-3.422-6.423-3.422-2.264 0-4.4 1.125-5.579 3.422l-41.13 66.63c.432.87.132 2.07.132 3.27zm294.6 43.4c-10.66 0-65.92 45.03-166.7 45.03v14.25c0 8.875-7.125 16-16 16h-16.9c-8.875 0-16-7.126-16-16v-18.13c-77.83-11.88-106.2-41.16-118.6-41.16-8.462 0-16.05 6.959-16.05 15.65 0 5.745 8.361 26.3 20.05 42.76 9.125 12.75 21 23.38 34.75 32.5.125-8.625 7.125-15.63 15.88-15.63h16c8.875 0 16 7.125 16 16v21.5c24.37 6.93 50.97 9.63 80.87 9.63s56.51-3.627 80.01-10.5v-21.5c0-8.875 7.127-16 16-16h16c8.627 0 15.63 6.875 15.88 15.5 13.88-9.125 25.88-20 35.25-33 10.31-14.48 19.55-35.44 19.55-42.23.01-7.47-7.39-14.67-15.99-14.67z"/><path d="m425.5 128.4c-10.01 0-20.05 1.27-29.77 3.788 18.82 16.9 18.62 19.65 25.38 31.88-31.75-23.62-75.63-36.11-133.1-36.11s-101.4 12.49-133.1 36.11c6.82-12.34 6.585-15 25.38-31.88-9.79-2.488-19.79-3.788-29.79-3.788-99.5 0-150.5021 126-150.5 191.5.0021 64.45 51.26 192 151.5 192 24.97 0 49.96-7.939 69.4-23.8 17.75 15.38 39.89 23.86 67.14 23.86s49.38-8.487 67.25-23.86c19.38 15.86 44.34 23.8 69.3 23.8 100.1 0 151.4-126.1 151.4-192 .01-64.2-50.89-191.5-150.49-191.5zm-105.4 152.9c0-1.244.2848-2.44.7786-3.357l41.13-66.63c1.179-2.297 3.301-3.409 5.566-3.409 2.296 0 4.737 1.144 6.436 3.409l41.13 66.63c.4553.9105.7241 2.096.7241 3.33 0 3.172-1.775 6.67-6.724 6.67h-82.26c-4.9807-.843-6.7807-3.443-6.7807-6.643zm-160 0c0-1.244.2848-2.44.7786-3.357l41.13-66.63c1.179-2.297 3.315-3.422 5.579-3.422 2.296 0 4.724 1.157 6.423 3.422l41.0894 65.787c.4552.9105.7241 2.096.7241 3.33 0 3.172-1.775 6.67-6.724 6.67h-82.2001c-5 0-6.8-2.6-6.8-5.8zm310.6 59c0 6.788-9.237 27.74-19.55 42.23-9.375 13-21.38 23.88-35.25 33-.25-8.625-7.25-15.5-15.88-15.5h-16c-8.875 0-16 7.125-16 16v21.5c-23.52 6.87-50.12 9.57-80.02 9.57s-56.51-3.627-80.01-10.5v-21.5c0-8.875-7.127-16-16-16h-16.89c-8.752 0-15.75 7-15.88 15.63-13.75-9.125-25.63-19.75-34.75-32.5-11.69-16.45-20.05-37.03-20.05-42.76 0-8.691 7.585-15.65 16.05-15.65 12.33 0 41.48 29.38 118.6 41.16v18.13c0 8.875 7.127 16 16 16h16c9.83-.01 16.93-6.21 16.93-16.01v-14.25c100.1 0 155.7-45.03 166.7-45.03 8.6.88 16 8.08 16 16.48z" opacity=".4"/></svg>