<?xml version="1.0" standalone="no"?>
<!DOCTYPE svg PUBLIC "-//W3C//DTD SVG 20010904//EN"
 "http://www.w3.org/TR/2001/REC-SVG-20010904/DTD/svg10.dtd">
<svg version="1.0" xmlns="http://www.w3.org/2000/svg"
 width="625.000000pt" height="625.000000pt" viewBox="0 0 625.000000 625.000000"
 preserveAspectRatio="xMidYMid meet">
<metadata>
Created by potrace 1.14, written by Peter Selinger 2001-2017
</metadata>
<g transform="translate(0.000000,625.000000) scale(0.100000,-0.100000)"
fill="#000000" stroke="none">
<path d="M3032 5558 c-12 -6 -25 -22 -28 -35 -20 -77 86 -116 116 -44 13 33 2
64 -30 81 -23 12 -28 12 -58 -2z"/>
<path d="M2779 5546 c-34 -17 -46 -58 -26 -89 21 -33 61 -39 92 -15 59 46 0
137 -66 104z"/>
<path d="M3285 5538 c-32 -25 -33 -67 -2 -95 30 -27 83 -14 97 23 23 60 -45
112 -95 72z"/>
<path d="M2522 5507 c-25 -12 -37 -45 -28 -81 8 -33 53 -48 88 -30 72 38 15
144 -60 111z"/>
<path d="M3526 5488 c-21 -29 -20 -51 2 -78 36 -44 112 -17 112 40 0 56 -82
83 -114 38z"/>
<path d="M2258 5428 c-44 -44 2 -120 64 -105 36 9 54 61 33 94 -9 12 -19 24
-23 24 -38 7 -58 3 -74 -13z"/>
<path d="M3787 5435 c-9 -7 -20 -26 -23 -43 -7 -36 23 -72 61 -72 29 0 65 36
65 65 0 44 -67 77 -103 50z"/>
<path d="M2027 5339 c-48 -37 -26 -109 34 -109 38 0 62 23 62 59 0 57 -53 85
-96 50z"/>
<path d="M4039 5346 c-34 -17 -46 -58 -26 -89 23 -35 64 -40 94 -11 27 27 29
51 8 81 -19 26 -47 34 -76 19z"/>
<path d="M3184 5317 c-4 -12 -9 -15 -14 -7 -3 6 -14 8 -23 4 -9 -3 -14 -10
-11 -15 3 -5 -2 -6 -10 -3 -9 3 -13 11 -10 16 4 6 -2 5 -14 -1 -25 -14 -43
-14 -22 -1 13 8 13 10 -2 10 -9 0 -18 -5 -20 -11 -4 -13 -108 -22 -108 -9 0
11 -37 23 -49 15 -11 -6 21 -84 39 -95 7 -5 10 -15 7 -24 -4 -9 -3 -16 2 -16
5 0 7 -27 5 -61 -3 -46 -1 -58 9 -52 7 4 6 -2 -4 -17 -21 -34 -31 -63 -19 -55
6 3 10 14 11 23 0 11 2 12 6 4 6 -16 -15 -42 -34 -42 -10 0 -13 6 -9 16 3 8 2
12 -4 9 -5 -3 -8 -16 -6 -28 3 -12 5 -28 5 -36 1 -10 4 -11 15 -2 11 9 16 9
22 0 4 -8 3 -9 -4 -5 -7 4 -12 1 -12 -9 0 -9 4 -14 9 -11 5 4 11 2 13 -4 5
-17 47 -20 63 -4 17 17 26 16 42 -5 9 -11 12 -12 13 -3 0 7 5 10 11 7 16 -10
47 23 47 50 0 28 -22 50 -38 40 -6 -4 -10 -3 -9 2 1 4 1 10 -1 13 -8 23 -8 50
2 56 6 4 8 3 5 -3 -4 -6 2 -22 14 -34 11 -13 17 -17 13 -9 -7 13 -5 13 9 2 14
-12 19 -12 32 1 17 17 21 52 5 42 -12 -7 -9 37 3 46 12 9 -17 56 -31 51 -7 -2
-11 2 -10 10 2 7 -3 12 -10 10 -8 -1 -11 2 -7 8 3 5 -1 10 -10 10 -10 0 -13
-5 -9 -12 4 -7 3 -8 -4 -4 -18 11 -2 35 21 31 21 -5 48 -25 32 -25 -5 0 2 -8
15 -17 31 -22 42 -22 61 -3 17 18 24 50 11 50 -11 0 -10 53 1 61 4 3 -1 17
-12 30 -18 22 -20 23 -27 6z m-250 -16 c4 -5 -3 -7 -14 -4 -23 6 -26 13 -6 13
8 0 17 -4 20 -9z"/>
<path d="M2990 5310 c8 -5 22 -9 30 -9 10 0 8 3 -5 9 -27 12 -43 12 -25 0z"/>
<path d="M3310 5288 c1 -21 2 -21 11 -5 5 9 15 17 22 17 8 0 9 -3 1 -8 -13 -9
-26 -42 -16 -42 9 0 5 -110 -7 -175 -7 -35 -6 -54 2 -64 8 -9 8 -12 1 -8 -6 3
-11 0 -11 -8 0 -8 5 -11 10 -8 6 4 8 -2 5 -15 -4 -12 -1 -25 4 -29 7 -4 8 -1
3 8 -7 11 -5 11 9 -1 11 -8 14 -16 7 -18 -8 -3 -8 -9 0 -23 5 -11 14 -17 20
-14 5 4 12 -1 15 -9 3 -9 10 -13 15 -10 5 3 9 0 9 -6 0 -7 8 -9 20 -5 11 3 20
2 20 -4 0 -6 11 -6 29 -1 16 4 32 6 35 2 3 -3 6 0 6 6 0 7 3 11 8 10 4 -2 19
8 35 22 19 16 25 30 21 43 -3 11 -2 17 3 14 5 -3 9 10 8 29 -1 18 2 34 7 34 4
0 6 12 4 27 -3 15 0 33 6 40 6 7 8 16 5 20 -4 3 1 12 11 20 11 10 12 12 2 8
-10 -4 -9 -2 2 8 10 8 15 17 11 20 -3 4 -1 7 6 7 7 0 9 5 6 10 -3 6 -1 10 4
10 6 0 11 7 11 15 0 8 -5 15 -11 15 -6 0 -8 7 -5 16 5 13 0 15 -29 11 -20 -3
-36 0 -39 7 -3 7 -5 7 -5 -1 -1 -7 -6 -13 -12 -13 -5 0 -8 4 -5 9 6 9 -17 22
-37 20 -7 0 -3 -4 8 -9 15 -7 16 -9 4 -9 -9 -1 -22 5 -28 13 -7 8 -29 13 -57
12 -25 -1 -48 3 -51 8 -4 5 0 6 7 1 8 -5 11 -4 7 2 -4 6 -17 8 -31 6 -13 -3
-27 0 -30 6 -4 6 -16 11 -27 11 -13 0 -19 -7 -19 -22z m190 -23 c0 -2 -6 -8
-13 -14 -10 -8 -14 -7 -14 2 0 8 6 14 14 14 7 0 13 -1 13 -2z m25 -150 c0 -47
-4 -85 -8 -85 -5 0 -6 -4 -2 -9 3 -5 1 -12 -5 -16 -6 -4 -7 -11 -4 -17 4 -6 2
-8 -3 -5 -6 4 -18 -2 -28 -13 -17 -19 -43 -17 -57 4 -14 21 -8 30 7 10 14 -18
15 -18 6 6 -4 14 -6 31 -3 39 3 8 0 11 -7 7 -7 -5 -9 -1 -5 8 3 9 11 13 17 9
6 -3 7 -1 3 6 -4 6 -2 18 4 26 10 12 10 15 -1 15 -9 0 -10 3 -4 8 6 4 19 18
30 32 18 23 19 24 1 10 -18 -14 -18 -14 -6 7 8 12 18 19 22 17 4 -3 8 2 8 10
0 9 8 16 18 16 15 0 17 -11 17 -85z"/>
<path d="M2572 5269 c4 -9 1 -16 -8 -16 -7 0 -11 5 -8 11 3 6 -4 0 -16 -14
-12 -14 -18 -18 -14 -10 6 12 4 13 -7 3 -16 -16 -33 -17 -23 -1 4 7 3 8 -5 4
-6 -4 -9 -11 -6 -16 3 -4 -2 -11 -11 -14 -23 -9 -31 -7 -14 4 12 7 10 9 -7 7
-12 0 -19 -5 -16 -10 3 -5 -4 -6 -16 -2 -13 4 -21 2 -21 -5 0 -6 5 -8 10 -5 6
3 10 1 10 -4 0 -14 -17 -14 -25 -1 -3 6 -11 10 -16 10 -6 0 -7 -5 -3 -12 5 -8
2 -9 -10 -5 -10 4 -15 3 -11 -3 3 -5 -7 -12 -22 -16 -15 -4 -31 -12 -35 -18
-5 -8 -8 -7 -8 2 0 7 10 17 23 22 12 5 15 9 7 9 -21 0 -51 -24 -42 -35 4 -4 0
-3 -8 3 -19 14 -52 11 -58 -5 -5 -15 11 -15 26 0 9 9 11 7 7 -10 -2 -12 4 -26
13 -34 15 -12 16 -11 3 5 -7 9 -11 17 -8 17 3 0 16 -15 28 -32 13 -19 17 -29
8 -23 -8 6 -6 2 4 -7 11 -10 16 -18 13 -18 -3 0 3 -9 14 -20 11 -11 20 -26 20
-32 0 -9 -4 -8 -11 2 -9 12 -10 12 -5 -3 3 -10 6 -21 6 -23 0 -3 4 -2 10 1 9
6 12 -11 9 -72 -1 -16 -2 -42 -2 -60 0 -19 -4 -30 -10 -26 -6 3 -7 1 -3 -5 4
-7 14 -12 22 -12 8 0 14 -4 14 -9 0 -5 12 -11 26 -14 20 -4 33 2 52 22 14 14
22 20 18 13 -6 -11 -1 -12 24 -8 18 2 38 10 44 17 8 9 7 10 -4 4 -10 -6 -8 -1
4 13 20 23 32 30 21 12 -3 -5 -3 -10 2 -11 4 0 16 -2 26 -4 10 -2 27 6 39 18
11 12 17 16 13 8 -6 -10 -4 -12 6 -5 8 4 24 7 37 5 12 -1 22 3 22 9 0 6 5 8
12 4 8 -5 9 -2 5 9 -3 10 -2 17 3 17 15 0 7 35 -13 55 -12 12 -17 14 -13 5 4
-8 -1 -5 -12 7 -11 12 -23 19 -27 15 -5 -4 -5 -2 -1 5 3 6 2 14 -4 18 -6 4 -8
11 -5 16 4 5 2 9 -4 9 -6 0 -7 7 -4 17 4 11 3 14 -6 9 -8 -5 -10 0 -7 18 3 14
1 26 -3 26 -3 0 -7 24 -6 54 0 30 3 52 7 50 5 -3 6 5 4 18 -3 13 -5 27 -5 32
-1 5 -4 6 -8 3 -3 -4 -15 1 -26 10 -17 15 -19 15 -15 2z m-126 -87 c2 -19 17
-41 24 -37 5 3 6 -5 2 -17 -4 -16 -2 -19 9 -13 12 8 12 6 1 -8 -8 -9 -11 -21
-8 -26 4 -5 1 -13 -5 -17 -18 -11 -60 -14 -54 -4 3 5 13 6 22 3 15 -6 16 -5 3
9 -8 9 -19 13 -25 10 -5 -3 -4 1 3 10 9 12 10 18 2 23 -8 5 -8 11 0 19 5 7 11
25 12 39 2 22 11 28 14 9z m100 -222 c-1 -28 -8 -35 -30 -31 -5 1 -6 -4 -3
-12 3 -8 -3 -13 -14 -14 -11 -1 -17 2 -14 8 4 5 2 9 -4 9 -12 0 -8 47 6 61 8
8 18 7 34 -2 22 -11 23 -11 10 5 -12 14 -12 16 1 11 9 -4 15 -18 14 -35z m4
-44 c0 -3 -4 -8 -10 -11 -5 -3 -10 -1 -10 4 0 6 5 11 10 11 6 0 10 -2 10 -4z
m-182 -40 c-1 -14 -5 -23 -9 -20 -7 4 0 44 7 44 2 0 3 -11 2 -24z"/>
<path d="M1790 5218 c-27 -29 -26 -73 2 -92 33 -23 64 -19 87 11 24 30 20 58
-11 86 -27 23 -53 22 -78 -5z"/>
<path d="M4251 5214 c-26 -33 -27 -58 -1 -84 39 -39 110 -11 110 44 0 27 -42
66 -71 66 -9 0 -27 -12 -38 -26z"/>
<path d="M3767 5203 c-2 -5 -3 -25 -2 -45 0 -21 -3 -38 -7 -38 -4 0 -8 -5 -8
-11 0 -5 6 -7 13 -3 8 6 8 3 -1 -9 -8 -9 -11 -26 -7 -39 5 -18 4 -20 -5 -8 -9
13 -10 12 -8 -6 2 -11 -4 -29 -12 -39 -13 -17 -13 -18 0 -10 11 6 10 3 -2 -12
-10 -11 -18 -24 -18 -30 0 -5 -10 -19 -23 -31 -17 -16 -26 -18 -37 -11 -12 9
-12 10 3 5 11 -3 16 -2 12 4 -10 16 -23 12 -35 -11 -9 -17 -8 -23 6 -33 13
-10 14 -15 4 -21 -9 -6 -11 -4 -5 5 6 9 4 11 -5 5 -10 -6 -10 -11 3 -20 9 -7
14 -14 12 -17 -3 -3 2 -11 12 -19 15 -12 16 -12 8 1 -8 13 -7 13 9 1 15 -13
19 -13 27 0 7 11 9 11 9 -3 0 -10 3 -18 8 -19 4 0 16 -2 26 -4 10 -2 24 2 30
8 12 13 18 69 6 62 -4 -3 -10 4 -13 15 -3 11 -1 23 4 26 6 3 7 14 4 25 -4 12
-1 21 9 25 8 3 13 11 10 18 -3 7 2 18 10 25 12 10 15 9 20 -6 11 -37 19 -100
20 -163 1 -36 7 -74 13 -85 7 -11 13 -15 13 -8 0 17 41 12 69 -9 13 -10 20
-18 16 -18 -5 0 -18 8 -29 18 l-21 17 19 -23 c31 -36 46 -20 47 51 0 9 4 17 9
17 5 0 7 9 5 20 -2 11 1 20 6 20 6 0 8 4 5 9 -3 5 1 14 10 21 8 7 13 19 10 27
-3 7 -1 13 5 13 6 0 7 5 4 10 -3 6 -2 10 3 10 5 0 18 12 28 28 17 26 17 27 -2
13 -10 -7 -7 -2 8 12 15 14 24 28 21 31 -4 3 1 6 10 6 9 0 19 5 23 12 5 7 3 8
-5 3 -10 -5 -10 -3 0 12 9 16 9 24 0 39 -10 15 -11 16 -7 2 4 -15 3 -16 -14
-6 -13 8 -16 15 -8 19 7 4 -4 10 -25 14 -20 4 -41 13 -48 21 -6 8 -16 14 -22
14 -6 0 -2 -7 9 -15 11 -9 13 -14 5 -13 -10 2 -17 -18 -27 -71 -7 -41 -11 -78
-9 -81 2 -4 -2 -7 -10 -7 -9 0 -12 10 -9 29 2 19 -1 26 -8 22 -7 -5 -8 -2 -2
7 12 19 13 60 2 53 -5 -4 -4 4 4 16 10 17 10 24 1 27 -7 2 -9 11 -6 19 4 10 0
12 -11 8 -9 -3 -16 -1 -16 5 0 6 5 11 11 11 5 0 7 5 4 10 -4 6 -11 8 -16 5 -8
-6 -18 -2 -96 39 -35 18 -40 19 -46 9z m63 -113 c0 -5 -5 -10 -11 -10 -5 0 -7
5 -4 10 3 6 8 10 11 10 2 0 4 -4 4 -10z m111 -213 c-10 -9 -11 -8 -5 6 3 10 9
15 12 12 3 -3 0 -11 -7 -18z m-231 -27 c0 -5 -2 -10 -4 -10 -3 0 -8 5 -11 10
-3 6 -1 10 4 10 6 0 11 -4 11 -10z"/>
<path d="M1575 5075 c-31 -30 -32 -58 -3 -85 28 -25 62 -26 88 0 28 28 25 64
-6 89 -34 27 -50 26 -79 -4z"/>
<path d="M4490 5093 c-64 -23 -46 -123 23 -123 33 0 70 45 61 74 -11 40 -48
62 -84 49z"/>
<path d="M2055 5082 c-3 -3 -5 -14 -5 -24 0 -10 -5 -18 -11 -18 -5 0 -8 4 -5
9 5 8 -15 8 -34 1 -3 -1 -10 -3 -17 -4 -7 0 -19 -10 -28 -21 -9 -11 -13 -14
-9 -6 4 9 3 12 -4 7 -6 -4 -8 -14 -5 -23 5 -12 3 -14 -6 -8 -10 6 -11 2 -6
-15 5 -15 3 -20 -3 -16 -7 4 -9 -3 -6 -20 3 -14 1 -23 -4 -20 -5 3 -7 -6 -4
-19 2 -14 8 -25 13 -25 4 0 6 -9 4 -20 -2 -11 0 -18 4 -16 10 7 33 -42 26 -54
-3 -5 0 -12 6 -16 8 -5 9 -3 4 6 -6 9 -4 11 4 6 7 -5 10 -14 7 -21 -2 -7 5
-21 17 -32 l22 -18 -20 25 -20 25 27 -24 c15 -13 26 -29 25 -35 -1 -6 9 -10
23 -8 20 2 22 1 10 -8 -12 -9 -8 -11 16 -8 21 3 30 0 28 -7 -3 -8 11 -11 43
-10 64 3 65 3 57 17 -5 7 -3 8 5 3 11 -6 64 39 73 63 2 4 10 7 19 6 19 -1 19
17 1 38 -6 8 -9 18 -5 22 4 3 -3 15 -14 26 -12 10 -24 16 -27 13 -3 -4 -6 -2
-6 4 0 12 -47 23 -67 16 -25 -10 -35 -42 -20 -63 8 -11 17 -17 20 -13 4 3 7 1
7 -5 0 -7 -5 -12 -11 -12 -5 0 -8 -4 -5 -9 4 -5 -4 -7 -16 -4 -19 4 -20 3 -8
-6 13 -9 13 -11 0 -11 -8 0 -22 15 -29 33 -8 17 -22 38 -30 45 -13 11 -13 12
-1 7 10 -4 9 -2 -2 8 -10 8 -15 17 -11 20 3 4 1 7 -6 7 -7 0 -9 5 -6 10 3 6 1
10 -5 10 -6 0 -9 4 -6 9 4 5 2 20 -3 33 -8 21 -6 24 15 26 12 1 26 -3 29 -8 3
-6 -2 -7 -12 -4 -17 5 -17 5 0 -6 10 -7 21 -9 24 -6 4 3 12 1 20 -5 10 -9 13
-8 13 0 0 7 4 10 9 7 5 -3 14 1 21 9 15 17 -1 65 -20 65 -6 0 -8 5 -5 10 3 6
-1 13 -9 16 -9 3 -13 10 -10 15 12 20 -53 49 -71 31z"/>
<path d="M1400 4931 c-14 -4 -32 -19 -40 -34 -13 -24 -13 -30 0 -54 21 -38 81
-45 104 -11 21 29 20 61 -1 80 -27 23 -36 25 -63 19z"/>
<path d="M4684 4927 c-26 -14 -34 -27 -34 -58 0 -32 28 -59 61 -59 30 0 43 9
58 38 25 48 -37 105 -85 79z"/>
<path d="M1767 4898 c-9 -5 -17 -6 -17 -2 0 4 -9 -5 -21 -20 -11 -14 -24 -24
-29 -21 -5 3 -10 -5 -12 -17 -2 -15 -9 -22 -20 -22 -10 1 -15 -3 -12 -8 4 -5
-3 -8 -14 -6 -12 2 -20 -1 -19 -7 1 -5 8 -8 16 -7 7 2 10 -1 6 -7 -3 -7 0 -8
9 -5 10 4 27 -6 45 -24 17 -16 33 -27 36 -23 4 3 5 -1 3 -9 -2 -8 3 -14 10
-12 8 1 11 -2 7 -7 -3 -6 4 -15 15 -21 11 -6 20 -17 20 -25 0 -7 5 -17 12 -21
7 -5 8 -3 3 6 -5 8 -4 11 3 6 6 -4 9 -13 6 -21 -4 -8 1 -17 9 -21 9 -3 13 -12
10 -21 -3 -8 0 -18 6 -23 9 -5 8 -9 -4 -13 -9 -4 -13 -3 -10 3 3 6 1 10 -4 10
-16 0 -13 -15 7 -39 28 -36 112 -32 112 4 0 16 34 38 44 28 3 -3 6 -1 6 6 0 7
4 10 9 7 12 -8 34 20 27 33 -3 5 0 12 6 14 10 4 10 6 0 6 -7 1 -10 6 -7 11 3
6 -1 13 -9 16 -9 3 -13 11 -9 18 3 6 3 8 -2 4 -4 -4 -17 -3 -28 3 -13 8 -17 8
-13 1 4 -6 -2 -10 -14 -9 -11 1 -20 5 -20 10 0 4 -5 5 -10 2 -6 -4 -10 -3 -9
2 3 20 -2 33 -13 31 -7 -2 -12 3 -13 10 0 7 -7 17 -15 22 -8 5 -10 10 -5 10 7
0 7 3 0 8 -5 4 -16 18 -23 31 -11 19 -11 22 0 15 7 -4 4 3 -7 16 -11 13 -14
20 -7 16 11 -7 12 -4 3 13 -7 11 -8 21 -4 21 4 0 -2 7 -13 16 -10 8 -12 12 -4
8 8 -4 11 -3 7 1 -11 13 -31 14 -50 3z m-27 -39 c-7 -11 -14 -18 -17 -15 -3 3
0 12 7 21 18 21 23 19 10 -6z m141 -176 c13 -16 12 -17 -3 -4 -10 7 -18 15
-18 17 0 8 8 3 21 -13z m107 -48 c-3 -3 -9 2 -12 12 -6 14 -5 15 5 6 7 -7 10
-15 7 -18z m-133 -123 c-3 -3 -11 0 -18 7 -9 10 -8 11 6 5 10 -3 15 -9 12 -12z"/>
<path d="M4364 4879 c-8 -17 -13 -37 -10 -45 3 -9 1 -12 -4 -9 -9 6 -14 -8
-11 -27 0 -5 -4 -8 -11 -8 -6 0 -9 -3 -5 -6 3 -4 -1 -13 -9 -21 -8 -8 -11 -19
-8 -25 4 -7 2 -8 -4 -4 -11 7 -17 -6 -13 -27 1 -5 -3 -6 -8 -3 -5 3 -14 -1
-21 -10 -19 -21 -75 -61 -65 -44 6 10 3 12 -13 8 -15 -4 -20 -2 -16 5 3 7 -1
4 -9 -6 -31 -38 -1 -126 37 -111 11 4 15 2 11 -8 -8 -19 17 -39 43 -35 31 5
37 14 37 55 1 21 5 43 9 51 7 10 5 12 -5 7 -8 -4 -2 2 14 14 15 12 27 28 27
36 0 8 6 11 17 7 10 -4 14 -2 10 4 -4 6 3 19 15 29 13 12 18 13 13 4 -10 -16
-11 -17 -20 -75 -3 -22 -13 -67 -22 -100 -8 -33 -16 -70 -18 -82 -2 -23 20
-51 32 -39 3 3 15 -8 25 -24 l18 -31 30 31 c17 17 30 34 30 38 0 4 -7 -2 -15
-12 -8 -11 -15 -15 -15 -8 0 6 10 18 22 26 12 9 18 16 13 16 -5 0 0 7 11 16
10 8 12 12 4 9 -8 -4 3 9 24 29 22 20 55 53 74 73 20 21 32 31 28 23 -5 -9 -2
-8 7 2 8 10 17 15 20 11 4 -3 7 -1 7 6 0 7 4 10 9 7 5 -4 11 -1 13 6 6 17 -15
58 -29 58 -6 0 -15 5 -19 12 -4 7 -3 8 4 4 8 -5 10 -2 6 8 -3 9 -9 14 -14 11
-4 -2 -16 3 -26 11 -10 9 -13 13 -6 9 17 -9 15 0 -5 16 -11 10 -14 10 -9 2 4
-8 2 -13 -4 -13 -7 0 -9 -7 -6 -17 4 -10 4 -14 0 -11 -3 4 -20 -20 -36 -53
-31 -61 -44 -73 -44 -39 0 11 4 20 9 20 4 0 6 4 2 9 -3 5 0 13 6 16 5 4 8 13
5 21 -3 8 -1 14 4 14 5 0 6 7 3 17 -4 10 -2 14 4 10 6 -4 11 3 11 18 0 15 -6
25 -14 25 -8 0 -14 5 -14 11 0 5 5 7 10 4 6 -3 10 -1 10 5 0 6 -11 15 -25 20
-14 5 -25 17 -26 27 0 10 -3 13 -5 6 -6 -13 -44 19 -44 36 0 5 -7 11 -15 15
-10 3 -20 -5 -31 -25z m-34 -173 c0 -2 -8 -10 -17 -17 -16 -13 -17 -12 -4 4
13 16 21 21 21 13z m-59 -123 c13 -16 12 -17 -3 -4 -10 7 -18 15 -18 17 0 8 8
3 21 -13z m-47 -19 c3 -8 2 -12 -4 -9 -6 3 -10 10 -10 16 0 14 7 11 14 -7z
m236 -9 c0 -2 -6 -8 -13 -14 -10 -8 -14 -7 -14 2 0 8 6 14 14 14 7 0 13 -1 13
-2z m-30 -109 c0 -2 -6 -9 -14 -15 -11 -9 -16 -9 -22 0 -4 7 -3 9 4 5 6 -3 13
-2 17 4 6 10 15 14 15 6z"/>
<path d="M2322 4850 c0 -14 2 -19 5 -12 2 6 2 18 0 25 -3 6 -5 1 -5 -13z"/>
<path d="M1930 4821 c0 -6 4 -13 10 -16 6 -3 7 1 4 9 -7 18 -14 21 -14 7z"/>
<path d="M2997 4784 c-1 -1 -38 -4 -82 -8 -131 -10 -156 -14 -276 -45 -555
-140 -997 -534 -1205 -1072 -37 -95 -80 -252 -90 -327 -3 -26 -10 -69 -14 -97
-16 -95 -4 -400 19 -519 53 -264 178 -542 332 -737 34 -43 27 -60 -10 -26 -30
28 -81 47 -123 47 -16 0 -39 5 -50 11 -12 6 -55 13 -97 15 -154 8 -171 7 -213
-21 -22 -15 -41 -25 -42 -23 -1 2 -17 26 -35 55 -32 52 -93 93 -136 93 -10 0
-41 18 -70 40 -28 21 -68 46 -88 55 -33 14 -37 19 -32 43 10 59 -70 97 -110
52 -10 -11 -18 -33 -17 -48 0 -25 -5 -30 -50 -46 -97 -34 -179 -148 -208 -291
-18 -85 -19 -294 -3 -405 28 -195 115 -413 214 -538 87 -109 182 -163 289
-164 30 0 65 -7 84 -17 17 -10 50 -19 72 -20 23 -1 63 -13 89 -27 32 -16 66
-24 99 -24 28 -1 74 -7 101 -14 28 -8 61 -11 75 -9 32 7 37 7 91 -4 25 -6 54
-8 65 -6 33 6 67 6 118 0 30 -3 64 0 89 9 36 13 45 13 83 -2 49 -19 109 -15
170 11 22 9 62 18 91 20 56 4 112 26 139 56 13 14 25 17 53 13 64 -10 186 11
238 42 35 20 61 27 103 28 31 1 72 9 91 18 19 9 54 23 79 32 25 9 62 31 84 50
32 29 42 33 62 26 32 -12 105 2 141 28 16 11 47 23 68 27 22 4 58 17 80 30 28
16 56 23 92 22 53 0 97 13 142 42 13 9 34 16 45 17 92 6 179 72 226 171 l25
53 36 -40 c20 -22 48 -44 63 -50 42 -16 103 -12 145 10 30 15 46 17 69 10 48
-13 121 -3 159 22 18 13 43 43 55 68 13 25 24 47 26 49 1 3 12 -5 25 -16 36
-34 89 -56 132 -55 22 0 92 0 155 1 128 1 250 -11 293 -28 16 -6 52 -11 81
-11 40 0 57 -5 70 -19 25 -27 75 -49 137 -61 29 -6 62 -19 73 -29 33 -30 118
-69 167 -76 37 -5 47 -12 58 -36 21 -49 76 -83 135 -85 57 -2 88 11 128 53 42
44 59 96 58 176 0 40 1 99 4 132 5 77 -13 146 -69 261 -51 106 -110 166 -184
188 -33 9 -46 18 -46 32 -1 49 26 168 49 217 43 90 43 122 0 229 -20 51 -46
107 -58 123 -11 17 -22 45 -22 64 -3 61 -74 84 -112 37 l-19 -25 -36 26 c-19
14 -53 27 -74 30 -21 3 -49 12 -63 21 -70 47 -137 50 -198 9 -38 -24 -39 -25
-51 -5 -15 24 -86 57 -122 58 -28 0 -92 23 -85 31 4 4 11 43 23 131 15 114 9
351 -13 488 -107 671 -650 1253 -1309 1406 -142 32 -231 44 -363 48 -62 1
-113 2 -115 0z m50 -266 c0 -93 -2 -168 -5 -169 -4 -1 -25 -3 -47 -4 -205 -18
-357 -57 -511 -134 -53 -26 -60 -27 -70 -12 -22 34 -154 269 -154 275 0 12
179 93 278 126 110 37 245 67 334 76 35 3 64 7 65 8 1 0 25 1 55 1 l53 0 2
-167z m223 157 c30 -4 73 -10 95 -15 22 -5 55 -12 73 -15 64 -11 248 -77 340
-122 50 -25 92 -48 92 -50 0 -3 -157 -279 -166 -292 -2 -2 -18 6 -36 17 -89
54 -315 125 -438 138 -67 7 -121 12 -137 13 -10 1 -13 42 -13 170 l0 169 68
-3 c37 -2 92 -7 122 -10z m-957 -366 l84 -146 -45 -28 c-146 -93 -324 -277
-409 -423 -1 -3 -281 154 -292 164 -5 5 56 102 108 169 67 87 166 189 248 256
73 60 214 161 219 156 1 -1 40 -68 87 -148z m1742 45 c84 -63 212 -185 283
-272 53 -65 146 -202 140 -206 -1 -2 -68 -40 -147 -85 -118 -68 -146 -80 -153
-68 -21 38 -129 176 -169 217 -61 62 -153 140 -220 187 l-56 39 84 146 85 147
41 -27 c23 -14 74 -50 112 -78z m-780 -61 c55 -8 134 -26 175 -40 87 -28 230
-93 230 -104 0 -4 -57 -106 -126 -226 -69 -120 -160 -277 -202 -350 -42 -73
-78 -131 -80 -129 -3 4 -28 110 -38 166 -2 14 -11 54 -19 90 -20 92 -66 307
-71 339 -3 14 -11 51 -19 81 -7 30 -16 69 -18 85 -3 17 -8 42 -12 57 -15 60
-8 61 180 31z m-238 -10 c-14 -64 -79 -369 -82 -383 -2 -8 -13 -62 -25 -120
-12 -58 -25 -121 -30 -140 -5 -19 -12 -51 -15 -70 -3 -19 -11 -57 -18 -84
l-13 -49 -203 351 c-111 193 -203 354 -204 358 -1 4 23 20 53 35 134 69 329
122 473 128 l70 2 -6 -28z m10 -145 c-3 -8 -6 -5 -6 6 -1 11 2 17 5 13 3 -3 4
-12 1 -19z m98 -268 c31 -146 65 -307 77 -357 11 -51 18 -98 15 -105 -4 -11
-127 -58 -150 -58 -4 0 -7 181 -6 403 0 221 2 398 4 392 2 -5 29 -129 60 -275z
m-527 -90 c111 -192 202 -352 202 -354 0 -3 -6 -4 -12 -1 -7 2 -103 33 -213
69 -110 35 -293 94 -407 131 -117 37 -208 72 -208 78 1 24 132 187 207 257 71
67 207 170 223 170 3 0 97 -157 208 -350z m1211 275 c55 -42 130 -109 166
-149 63 -70 155 -193 155 -207 0 -4 -8 -9 -17 -12 -10 -2 -101 -32 -203 -65
-334 -109 -621 -202 -624 -202 -4 0 244 434 361 633 25 42 50 77 54 77 4 0 53
-34 108 -75z m-781 -315 c0 -209 -4 -382 -8 -385 -7 -4 -146 38 -154 46 -2 2
9 60 24 129 15 69 49 230 76 357 27 128 52 233 55 233 4 0 6 -171 7 -380z
m-1256 16 c65 -37 120 -71 123 -76 2 -4 -10 -38 -29 -76 -66 -137 -112 -308
-122 -453 -4 -47 -8 -88 -10 -90 -2 -2 -79 -4 -170 -5 l-166 -1 6 109 c3 59 8
111 10 115 2 3 7 27 10 52 18 133 110 395 174 497 13 20 17 21 36 9 11 -8 74
-44 138 -81z m2758 -8 c89 -191 141 -390 156 -599 6 -82 5 -89 -12 -90 -34 -2
-317 1 -320 3 -1 2 -5 36 -8 76 -13 158 -47 288 -113 439 -25 57 -44 105 -42
107 6 5 283 165 287 165 2 1 25 -45 52 -101z m-2500 -178 c3 -3 75 -68 160
-144 191 -171 323 -291 370 -333 l35 -32 -45 -2 c-176 -4 -764 -3 -771 2 -12
7 -4 115 16 225 18 96 49 191 99 298 l36 80 47 -45 c26 -24 50 -46 53 -49z
m2219 -125 c35 -108 59 -225 65 -317 l4 -68 -267 -1 c-307 -1 -543 -1 -554 0
-4 1 12 18 35 39 24 20 60 53 81 72 22 19 49 44 61 55 13 11 58 52 102 92 44
40 91 82 104 93 24 21 143 128 229 207 l46 42 32 -62 c18 -34 46 -103 62 -152z
m-249 171 c0 -4 -47 -32 -125 -76 -22 -12 -114 -65 -205 -118 -91 -53 -210
-122 -265 -153 -54 -32 -100 -57 -102 -56 -1 2 -11 39 -21 83 l-19 81 316 102
c174 56 339 110 366 121 59 22 55 21 55 16z m-1790 -40 c58 -19 219 -71 358
-116 l254 -82 -7 -36 c-21 -116 -26 -131 -43 -125 -9 4 -45 24 -80 46 -36 21
-81 48 -101 59 -156 88 -478 273 -485 280 -15 12 -8 11 104 -26z m40 -96 c69
-40 141 -81 160 -92 19 -11 76 -44 125 -73 50 -28 123 -71 163 -94 l73 -43
-23 -20 c-13 -11 -40 -35 -60 -54 -20 -19 -40 -34 -44 -34 -8 0 -49 34 -154
130 -47 42 -159 144 -250 225 -91 82 -167 150 -170 153 -10 9 59 -28 180 -98z
m1710 47 c-31 -29 -91 -83 -135 -122 -87 -77 -134 -120 -275 -248 -52 -48 -99
-87 -105 -86 -5 0 -36 24 -68 54 -42 38 -54 56 -45 62 29 18 673 391 678 392
3 0 -20 -23 -50 -52z m-995 -199 c3 -3 -8 -10 -24 -16 -29 -10 -32 -9 -46 17
l-14 29 39 -12 c21 -6 41 -14 45 -18z m223 0 c-12 -22 -16 -23 -47 -12 l-35
11 45 15 c24 8 45 14 47 13 2 -2 -2 -14 -10 -27z m69 -84 c-1 -1 -13 6 -26 17
-22 18 -22 21 -10 51 l13 32 13 -49 c6 -27 11 -50 10 -51z m-386 65 c9 -18 7
-25 -16 -47 l-28 -25 7 39 c12 60 19 66 37 33z m157 -74 c0 -39 -5 -68 -13
-75 -14 -12 -19 -7 -58 62 l-27 46 43 15 c23 9 45 16 48 16 4 1 7 -28 7 -64z
m116 35 c10 -10 -55 -121 -69 -117 -5 2 -11 36 -13 75 l-3 71 38 -11 c21 -5
42 -14 47 -18z m-214 -67 c29 -45 29 -47 11 -60 -16 -11 -25 -9 -66 13 l-46
27 32 33 c18 19 34 34 36 34 2 0 17 -21 33 -47z m295 14 l37 -33 -49 -26 c-41
-22 -51 -24 -66 -14 -16 13 -16 16 9 60 14 25 27 46 29 46 1 0 19 -15 40 -33z
m-359 -93 c24 -14 44 -29 44 -32 -1 -22 -23 -33 -69 -36 l-52 -3 6 31 c10 47
16 66 21 66 3 0 25 -12 50 -26z m422 -16 c6 -23 10 -44 8 -45 -3 -3 -75 -6
-92 -4 -7 0 -14 10 -17 21 -4 15 4 26 36 45 23 14 45 25 48 25 4 0 11 -19 17
-42z m-532 -25 c-6 -27 -19 -32 -66 -24 -2 1 11 14 30 30 19 16 37 28 38 26 2
-2 1 -16 -2 -32z m611 7 l34 -30 -35 0 c-30 0 -34 3 -38 30 -3 17 -3 30 0 30
2 0 20 -13 39 -30z m-1625 -135 c12 -128 17 -159 38 -238 25 -94 58 -184 95
-257 26 -52 27 -54 9 -67 -33 -25 -261 -153 -271 -153 -14 0 -106 200 -137
297 -48 154 -91 430 -73 475 3 10 43 13 168 13 l164 -1 7 -69z m848 65 c0 -2
-11 -14 -24 -25 -22 -19 -193 -174 -226 -205 -9 -8 -36 -33 -60 -54 -25 -21
-67 -60 -95 -85 -124 -115 -246 -221 -253 -221 -10 0 -66 123 -96 211 -44 133
-80 364 -58 378 12 7 812 8 812 1z m161 1 c0 -3 3 -18 5 -33 3 -16 3 -28 1
-28 -2 0 -18 15 -35 33 l-33 34 31 0 c16 0 30 -3 31 -6z m129 -3 c0 -33 -52
-99 -67 -84 -7 7 -22 79 -18 86 5 8 85 7 85 -2z m408 -1 c6 -12 -9 -87 -16
-87 -16 1 -31 17 -45 52 -8 20 -14 38 -12 40 7 7 70 3 73 -5z m112 8 c0 -1
-17 -18 -39 -39 l-39 -38 5 29 c8 46 9 48 42 48 17 1 31 0 31 0z m906 -4 c20
-2 5 -163 -28 -284 l-20 -78 -37 2 c-64 2 -218 -19 -248 -34 -27 -15 -30 -14
-74 26 -25 23 -85 78 -134 122 -48 44 -93 85 -99 90 -6 6 -46 41 -88 79 -43
37 -76 71 -74 75 3 5 758 7 802 2z m380 -95 c-4 -55 -8 -102 -10 -105 -2 -3
-7 -31 -10 -60 -4 -30 -9 -57 -11 -60 -3 -2 -33 -3 -68 -2 -49 1 -72 -3 -107
-22 -40 -21 -48 -22 -75 -11 -16 7 -47 13 -68 14 -32 0 -37 3 -33 18 15 47 35
165 41 237 4 44 11 82 15 85 5 3 82 5 171 5 l161 0 -6 -99z m-1940 -3 l23 -22
-102 -59 c-56 -33 -194 -112 -307 -177 -113 -65 -220 -127 -239 -138 -54 -33
-33 -7 74 89 55 49 105 93 111 99 6 5 48 44 94 85 46 41 109 98 139 126 31 29
67 61 81 72 l25 21 39 -37 c22 -20 50 -47 62 -59z m765 37 c29 -27 102 -93
248 -225 129 -116 141 -130 123 -138 -17 -8 -63 15 -259 128 -131 76 -253 147
-272 158 l-33 20 63 58 64 57 25 -21 c14 -12 32 -29 41 -37z m-424 -88 c15 -9
35 -61 28 -72 -2 -4 -16 -10 -30 -12 -24 -5 -25 -3 -25 43 0 49 4 55 27 41z
m-293 -28 c5 -17 -2 -49 -19 -94 -26 -67 -26 -68 -83 -88 -58 -21 -536 -174
-582 -187 -14 -4 79 53 205 126 127 73 282 163 345 200 63 37 118 68 121 68 4
1 10 -11 13 -25z m233 -14 c-2 -22 -6 -40 -10 -40 -4 0 -11 0 -17 0 -13 0 -13
21 0 54 15 39 30 31 27 -14z m489 -81 c115 -67 224 -130 242 -139 30 -17 32
-19 15 -28 -40 -22 -85 -15 -252 38 l-171 55 -30 78 c-18 45 -28 87 -25 98 4
10 8 19 9 19 2 0 97 -55 212 -121z m-379 5 c-3 -3 -12 -4 -19 -1 -8 3 -5 6 6
6 11 1 17 -2 13 -5z m-109 -220 l-1 -195 -39 -19 -39 -19 -8 22 c-4 12 -16 63
-26 112 l-18 90 28 88 c28 88 49 117 87 117 17 0 18 -14 16 -196z m91 182 c32
-11 37 -19 57 -86 22 -71 22 -76 7 -149 -19 -95 -26 -108 -60 -113 -16 -3 -36
-9 -45 -13 -17 -7 -18 6 -18 184 0 208 -3 200 59 177z m1547 -66 c36 14 64 12
98 -5 15 -8 45 -15 65 -15 47 0 90 -28 121 -78 14 -23 27 -41 30 -42 3 0 12
15 20 32 34 68 119 83 185 32 19 -15 45 -24 66 -24 31 0 75 -21 90 -42 3 -5
23 -11 43 -14 50 -6 90 -28 114 -61 28 -41 82 -177 82 -208 0 -14 -14 -55 -30
-92 -17 -37 -33 -80 -35 -97 -3 -17 -8 -42 -10 -56 -3 -14 -7 -55 -9 -91 l-5
-67 39 0 c85 -1 150 -57 206 -176 46 -97 67 -187 59 -245 -7 -52 -7 -45 -5
-128 2 -47 -3 -71 -20 -101 -53 -94 -162 -95 -210 -2 -11 22 -25 41 -30 41 -6
1 -13 2 -17 3 -5 1 -26 5 -48 10 -48 10 -109 40 -154 77 -19 15 -38 26 -43 23
-18 -11 -120 28 -156 60 -35 31 -41 33 -93 29 -39 -4 -65 0 -87 11 -17 9 -52
15 -81 15 -28 -1 -63 4 -79 10 -19 8 -41 9 -68 3 -22 -5 -52 -5 -69 0 -19 5
-52 4 -87 -3 -96 -19 -159 14 -234 126 l-34 50 0 -67 c0 -145 -64 -205 -189
-177 -34 8 -48 6 -81 -11 -62 -32 -112 -27 -154 14 -45 46 -84 128 -91 196
-13 125 -73 421 -94 457 -6 11 -11 2 -17 -33 -13 -79 -13 -84 -15 -187 -1 -99
-1 -99 31 -132 128 -132 54 -417 -119 -454 -28 -6 -55 -10 -59 -9 -4 1 -25
-10 -48 -25 -44 -30 -103 -39 -147 -24 -23 8 -31 5 -54 -17 -25 -26 -96 -52
-112 -42 -4 3 -26 -8 -48 -24 -49 -36 -86 -43 -131 -24 -36 15 -36 14 -66 -19
-38 -42 -93 -77 -123 -77 -12 0 -38 -10 -58 -21 -30 -18 -46 -21 -96 -16 -35
4 -59 3 -59 -3 0 -5 -19 -20 -42 -34 -53 -30 -179 -44 -221 -25 -25 11 -30 9
-72 -30 -24 -22 -55 -42 -67 -43 -13 0 -41 -2 -63 -2 -22 -1 -55 -9 -73 -19
-55 -30 -121 -33 -170 -8 -39 20 -44 20 -66 5 -30 -19 -99 -25 -137 -12 -18 6
-40 6 -64 -1 -26 -7 -50 -6 -87 4 -29 7 -61 10 -72 6 -27 -10 -81 -4 -109 11
-12 6 -46 10 -75 9 -43 -2 -63 3 -100 26 -33 19 -61 28 -93 28 -30 0 -54 6
-66 17 -15 13 -36 18 -85 17 -80 -1 -138 22 -202 82 -123 113 -235 364 -263
592 -14 112 -9 316 11 393 33 133 103 219 200 245 78 21 146 0 243 -78 23 -18
53 -33 68 -33 43 0 81 -26 113 -79 40 -64 61 -136 54 -186 -6 -51 -6 -64 3
-157 9 -88 -9 -154 -50 -186 l-23 -18 38 -58 38 -57 7 53 c4 29 10 62 12 73 3
11 7 116 10 234 4 194 6 217 24 242 31 44 116 58 170 28 9 -5 32 -4 52 2 28 8
43 6 66 -6 17 -8 44 -15 61 -15 51 0 98 -26 132 -74 l32 -46 13 32 c28 66 79
100 150 100 24 0 59 6 77 13 18 8 42 11 54 8 11 -2 50 7 86 21 146 59 255 31
359 -91 41 -49 42 -49 24 22 -15 57 -8 106 19 136 26 29 90 60 128 63 17 1 45
10 63 19 18 9 46 17 63 17 16 0 30 4 30 8 0 14 48 32 85 32 19 0 35 4 35 9 0
10 44 29 85 37 16 3 34 9 40 14 6 5 26 12 44 15 18 3 42 12 54 20 12 7 34 16
49 19 14 2 37 10 49 17 13 7 42 14 64 17 25 2 50 14 67 30 20 18 40 26 70 27
24 1 58 10 77 19 18 10 45 16 58 13 17 -3 40 6 74 29 31 20 67 35 97 39 26 3
69 12 96 20 26 8 52 13 57 10 11 -8 98 13 133 32 25 14 91 24 241 38 22 2 66
7 97 10 55 7 58 6 89 -24 17 -18 33 -31 34 -29 1 2 8 14 14 26 20 37 83 61
137 51 26 -5 55 -5 70 1z m-1999 -176 c-61 -156 -142 -314 -160 -314 -23 0
-96 -73 -107 -105 l-11 -34 -57 29 c-31 17 -75 32 -97 35 -33 4 -50 15 -95 62
-76 80 -102 111 -149 179 l-40 59 157 52 c308 101 617 200 619 198 2 -1 -25
-73 -60 -161z m825 122 c107 -34 156 -55 129 -56 -7 0 -29 -10 -49 -22 -19
-12 -49 -22 -67 -24 -18 -1 -41 -7 -52 -12 -20 -11 -26 -1 -80 136 -7 17 -1
16 119 -22z m-256 -151 c10 -31 9 -35 -8 -41 -26 -8 -28 -4 -21 39 7 46 15 47
29 2z m-346 -52 c6 -32 13 -65 16 -74 3 -11 -7 -24 -31 -38 -62 -36 -65 -30
-31 74 16 52 31 95 32 95 2 0 8 -26 14 -57z m-960 -31 c0 -13 113 -162 169
-222 l51 -55 -62 -20 c-35 -11 -67 -23 -73 -26 -5 -3 -23 -5 -40 -4 -16 0 -41
-3 -55 -9 -14 -5 -54 -12 -90 -16 -52 -5 -67 -3 -77 9 -35 43 -126 181 -122
185 9 9 285 166 292 166 4 0 7 -4 7 -8z"/>
<path d="M4715 2539 c-4 -6 -23 -18 -42 -26 -28 -11 -38 -12 -50 -2 -11 10
-16 10 -23 0 -5 -9 -10 -10 -14 -2 -10 15 23 26 37 12 6 -6 16 -11 22 -11 20
1 -29 30 -50 30 -21 0 -21 -4 -21 -120 1 -89 4 -119 13 -116 7 3 10 -1 6 -9
-3 -8 -8 -13 -12 -10 -4 2 -8 -3 -8 -11 0 -8 6 -13 12 -10 8 3 11 -8 8 -37 -3
-23 -7 -44 -10 -47 -3 -3 -3 10 -1 28 3 18 1 35 -4 38 -4 3 -8 -14 -9 -38 0
-24 -2 -50 -3 -58 -2 -8 -6 -35 -9 -60 -16 -125 -44 -221 -79 -272 -16 -23
-23 -26 -38 -18 -15 8 -21 6 -30 -10 -27 -50 -8 -133 42 -191 46 -52 76 -56
126 -18 22 17 25 17 55 -2 44 -26 71 -24 100 10 l24 29 32 -34 c38 -39 78 -45
106 -14 17 19 18 19 58 -15 49 -42 84 -45 117 -10 32 34 30 88 -8 169 -22 48
-35 64 -46 60 -35 -14 -88 265 -92 489 l-3 158 -31 50 c-33 51 -48 57 -95 39
-22 -8 -30 -6 -50 16 -16 17 -26 21 -30 13z m-1 -27 c3 -5 -1 -9 -9 -9 -8 0
-12 4 -9 9 3 4 7 8 9 8 2 0 6 -4 9 -8z m46 -16 c0 -11 -19 -15 -25 -6 -3 5 1
10 9 10 9 0 16 -2 16 -4z m96 -37 c2 -31 1 -31 -3 -4 -3 16 -10 34 -16 38 -8
6 -7 7 3 4 9 -2 16 -17 16 -38z m1 -71 c-3 -7 -5 -2 -5 12 0 14 2 19 5 13 2
-7 2 -19 0 -25z m0 -40 c-3 -8 -6 -5 -6 6 -1 11 2 17 5 13 3 -3 4 -12 1 -19z
m-147 -35 c-8 -4 -21 -13 -28 -22 -11 -14 -11 -13 -2 7 6 12 18 22 28 21 14 0
14 -2 2 -6z m-33 -65 c-3 -8 -6 -5 -6 6 -1 11 2 17 5 13 3 -3 4 -12 1 -19z
m60 -10 c-3 -7 -5 -2 -5 12 0 14 2 19 5 13 2 -7 2 -19 0 -25z m120 -5 c-3 -10
-5 -4 -5 12 0 17 2 24 5 18 2 -7 2 -21 0 -30z m-180 -70 c-3 -10 -5 -4 -5 12
0 17 2 24 5 18 2 -7 2 -21 0 -30z m191 -8 c-3 -3 -9 2 -12 12 -6 14 -5 15 5 6
7 -7 10 -15 7 -18z m-283 -17 c-5 -48 -13 -90 -19 -96 -6 -5 6 100 13 126 1 1
3 2 5 2 2 0 2 -15 1 -32z m152 0 c-3 -8 -6 -5 -6 6 -1 11 2 17 5 13 3 -3 4
-12 1 -19z m-22 -24 c9 3 13 2 10 -4 -11 -17 -34 -11 -45 13 -10 21 -10 21 4
3 9 -11 22 -16 31 -12z m152 4 c-3 -8 -6 -5 -6 6 -1 11 2 17 5 13 3 -3 4 -12
1 -19z m10 -70 c-3 -8 -6 -5 -6 6 -1 11 2 17 5 13 3 -3 4 -12 1 -19z m-152
-14 c17 -7 45 -55 44 -76 0 -7 -7 4 -16 24 -11 28 -24 40 -47 47 -17 5 -23 10
-14 10 9 1 24 -2 33 -5z m-160 -25 c-6 -29 -15 -37 -15 -12 0 17 8 33 16 33 2
0 1 -10 -1 -21z m95 1 c-6 -11 -13 -20 -16 -20 -2 0 0 9 6 20 6 11 13 20 16
20 2 0 0 -9 -6 -20z m-23 -52 c-3 -8 -6 -5 -6 6 -1 11 2 17 5 13 3 -3 4 -12 1
-19z m260 -10 c-3 -8 -6 -5 -6 6 -1 11 2 17 5 13 3 -3 4 -12 1 -19z m-142 -8
c4 -6 11 -8 16 -5 5 4 9 -4 9 -17 l0 -22 -16 22 c-16 24 -39 29 -49 11 -4 -6
-1 -10 6 -8 30 4 39 -2 39 -26 0 -14 6 -25 13 -25 9 0 9 -2 -1 -9 -8 -4 -13
-11 -13 -15 4 -32 0 -38 -24 -32 -14 4 -25 2 -25 -4 0 -5 7 -10 16 -10 9 0 12
-5 8 -12 -5 -9 -2 -8 9 1 10 8 20 11 23 8 10 -10 -6 -27 -27 -27 -11 0 -19 -7
-20 -17 0 -14 -2 -14 -9 3 -5 12 -13 25 -19 29 -15 9 -14 45 2 45 8 0 8 3 2 8
-6 4 -11 21 -10 38 0 49 51 95 70 64z m-132 -45 c-3 -9 -8 -14 -10 -11 -3 3
-2 9 2 15 9 16 15 13 8 -4z m41 -119 c14 -3 26 -11 26 -17 0 -19 -65 26 -67
47 -3 17 -2 17 6 -2 5 -12 21 -24 35 -28z m300 -2 c3 -8 2 -12 -4 -9 -6 3 -10
10 -10 16 0 14 7 11 14 -7z m-529 -4 c3 -5 1 -10 -4 -10 -6 0 -11 5 -11 10 0
6 2 10 4 10 3 0 8 -4 11 -10z m40 0 c-3 -5 -12 -10 -18 -10 -7 0 -6 4 3 10 19
12 23 12 15 0z m118 -77 c29 -32 16 -28 -20 5 -16 16 -27 34 -25 42 3 9 8 7
15 -6 5 -10 19 -29 30 -41z m421 42 c11 0 20 -6 22 -13 1 -7 0 -8 -2 -3 -3 5
-13 7 -23 4 -9 -2 -24 4 -32 13 -12 16 -12 17 1 8 8 -5 24 -9 34 -9z m-327
-17 c-3 -8 -6 -5 -6 6 -1 11 2 17 5 13 3 -3 4 -12 1 -19z m187 -4 c3 -9 2 -12
-4 -9 -6 4 -22 -7 -36 -24 -15 -18 -35 -31 -49 -31 -23 0 -65 41 -65 64 0 6 9
-4 20 -22 27 -44 66 -41 95 5 23 36 30 40 39 17z m-398 -44 c10 0 29 10 43 23
l26 22 -24 -27 c-14 -16 -32 -28 -41 -28 -21 0 -70 37 -70 52 0 6 11 -1 25
-16 13 -14 32 -26 41 -26z m198 15 c-6 -16 -42 -30 -51 -21 -4 3 1 6 9 6 9 0
21 7 28 15 16 19 21 19 14 0z m351 -35 c-18 -20 -55 -33 -55 -19 0 5 8 9 18 9
23 0 42 19 43 45 1 17 2 18 6 2 3 -10 -3 -27 -12 -37z m-75 -13 c13 -5 13 -6
-1 -6 -8 -1 -28 14 -45 32 l-29 32 30 -26 c17 -15 37 -29 45 -32z"/>
<path d="M4695 1900 c-4 -12 -5 -24 -2 -27 3 -2 8 5 12 17 4 12 5 24 2 27 -3
2 -8 -5 -12 -17z"/>
<path d="M4690 1808 c0 -9 7 -22 17 -29 15 -13 15 -12 3 11 -17 34 -20 36 -20
18z"/>
<path d="M4290 2501 c-31 -13 -50 -16 -62 -10 -12 6 -25 6 -38 -1 -12 -6 -41
-9 -68 -6 -71 9 -81 -2 -58 -61 58 -149 60 -327 7 -521 -6 -18 -6 -30 -1 -27
5 3 12 22 16 43 4 20 11 44 16 52 14 23 -2 -49 -20 -90 -8 -19 -16 -41 -18
-49 -7 -35 -23 -32 -43 7 -24 46 -28 71 -6 32 12 -22 14 -22 15 -6 0 20 0 20
16 0 15 -19 16 -19 9 1 -21 59 -26 88 -32 168 -3 52 -10 87 -17 87 -6 0 -5 4
3 9 8 5 16 18 17 28 12 82 16 111 20 133 4 22 3 23 -5 5 -8 -16 -10 -16 -10
-4 -1 9 6 22 14 29 20 17 19 31 -7 85 -25 52 -51 58 -106 25 -26 -16 -37 -18
-53 -9 -16 8 -25 7 -38 -5 -13 -11 -29 -14 -58 -10 -25 3 -54 0 -76 -10 l-36
-14 39 -79 c65 -131 136 -376 166 -573 3 -25 8 -54 10 -65 2 -11 7 -42 10 -70
6 -48 46 -135 63 -135 14 0 91 60 91 71 0 6 -16 -3 -35 -20 -45 -39 -58 -39
-84 3 -27 43 -27 61 0 63 12 1 36 15 53 30 21 19 20 16 -4 -8 -20 -20 -42 -38
-50 -41 -11 -3 -10 -10 5 -36 11 -18 25 -32 32 -32 8 0 33 18 56 39 l42 39 33
-29 c39 -35 69 -38 75 -6 4 19 4 18 6 -5 1 -23 -3 -28 -24 -28 -13 0 -40 13
-58 30 -19 16 -37 27 -40 24 -8 -8 44 -51 78 -64 45 -17 55 0 55 99 1 162 41
393 101 574 22 65 37 122 35 126 -3 4 0 13 6 21 8 12 9 12 4 -2 -10 -34 2 -18
28 34 26 52 34 112 17 122 -5 4 -12 0 -15 -6 -3 -7 -4 -4 -1 8 7 26 -3 54 -19
53 -6 0 -31 -8 -56 -18z m66 -9 c1 -7 0 -8 -3 -2 -3 7 -11 6 -24 -1 -11 -5
-17 -15 -13 -20 6 -11 -26 -93 -33 -85 -3 2 3 18 11 35 21 40 21 55 -1 45 -10
-4 -35 -8 -55 -9 -21 -1 -41 -5 -45 -8 -9 -10 -53 -8 -53 2 0 4 -11 6 -25 3
-28 -5 -29 -9 -15 -47 5 -14 12 -40 14 -58 l5 -32 -14 30 c-7 17 -15 39 -16
50 -2 11 -10 26 -16 33 -32 34 -5 54 56 41 19 -4 42 -4 52 1 9 5 19 6 23 3 3
-3 6 -1 6 5 0 9 4 9 18 1 14 -9 28 -7 63 9 47 23 61 23 65 4z m-328 -91 c12
-21 22 -47 22 -57 -1 -11 -7 -1 -15 20 -15 42 -45 80 -45 57 0 -8 -7 -11 -20
-8 -11 3 -20 2 -20 -2 0 -3 -16 -15 -35 -25 -34 -19 -35 -19 -57 0 -12 10 -18
14 -15 8 11 -19 -19 -36 -60 -34 -21 1 -43 2 -48 1 -13 -1 -15 -41 -2 -41 4 0
5 -4 2 -10 -3 -5 -2 -10 3 -10 13 0 33 -50 26 -62 -4 -7 -10 -4 -16 6 -5 9 -6
21 -3 26 3 6 3 10 -2 10 -9 0 -58 88 -52 94 24 20 44 23 57 8 7 -10 11 -11 7
-4 -4 8 2 12 19 12 14 0 26 -4 26 -10 0 -5 5 -10 12 -10 6 0 9 3 5 6 -3 4 4
14 16 24 16 14 26 15 44 7 17 -7 29 -5 52 9 51 33 75 29 99 -15z m-41 -33 c-3
-7 -5 -2 -5 12 0 14 2 19 5 13 2 -7 2 -19 0 -25z m386 17 c-3 -9 -8 -14 -10
-11 -3 3 -2 9 2 15 9 16 15 13 8 -4z m-113 -71 c-10 -27 -19 -43 -20 -37 0 16
31 95 36 90 2 -2 -5 -25 -16 -53z m91 23 c-10 -9 -11 -8 -5 6 3 10 9 15 12 12
3 -3 0 -11 -7 -18z m-374 -44 c-3 -10 -5 -4 -5 12 0 17 2 24 5 18 2 -7 2 -21
0 -30z m147 2 c3 -8 1 -15 -4 -15 -6 0 -10 7 -10 15 0 8 2 15 4 15 2 0 6 -7
10 -15z m-97 -62 c-3 -10 -5 -4 -5 12 0 17 2 24 5 18 2 -7 2 -21 0 -30z m-223
-87 c14 -43 24 -82 21 -86 -3 -5 -1 -11 5 -15 12 -8 13 -25 1 -25 -7 0 -44
118 -43 134 1 3 -5 18 -13 33 -8 14 -12 31 -8 35 7 13 8 12 37 -76z m163 17
c-2 -16 -4 -5 -4 22 0 28 2 40 4 28 2 -13 2 -35 0 -50z m323 30 c-11 -17 -11
-17 -6 0 3 10 6 24 7 30 0 9 2 9 5 0 3 -7 0 -20 -6 -30z m-273 -20 c-3 -10 -5
-4 -5 12 0 17 2 24 5 18 2 -7 2 -21 0 -30z m200 -5 c-3 -7 -5 -2 -5 12 0 14 2
19 5 13 2 -7 2 -19 0 -25z m-20 -80 c-3 -8 -6 -5 -6 6 -1 11 2 17 5 13 3 -3 4
-12 1 -19z m60 0 c-3 -8 -6 -5 -6 6 -1 11 2 17 5 13 3 -3 4 -12 1 -19z m-290
-20 c-3 -7 -5 -2 -5 12 0 14 2 19 5 13 2 -7 2 -19 0 -25z m40 10 c-3 -8 -6 -5
-6 6 -1 11 2 17 5 13 3 -3 4 -12 1 -19z m120 7 c0 -8 -4 -12 -9 -9 -5 3 -6 10
-3 15 9 13 12 11 12 -6z m60 -47 c-3 -7 -5 -2 -5 12 0 14 2 19 5 13 2 -7 2
-19 0 -25z m-70 0 c-3 -8 -6 -5 -6 6 -1 11 2 17 5 13 3 -3 4 -12 1 -19z m-140
-40 c-3 -8 -6 -5 -6 6 -1 11 2 17 5 13 3 -3 4 -12 1 -19z m140 7 c0 -8 -4 -15
-9 -15 -4 0 -8 7 -8 15 0 8 4 15 8 15 5 0 9 -7 9 -15z m60 -17 c-3 -7 -5 -2
-5 12 0 14 2 19 5 13 2 -7 2 -19 0 -25z m-329 5 c2 -21 10 -58 12 -58 1 0 3
-18 6 -40 2 -22 7 -46 9 -53 3 -7 1 -11 -4 -8 -5 3 -12 26 -16 52 -7 50 -11
67 -21 102 -3 12 -2 22 3 22 5 0 10 -8 11 -17z m169 -25 c-3 -7 -5 -2 -5 12 0
14 2 19 5 13 2 -7 2 -19 0 -25z m210 0 c-3 -7 -5 -2 -5 12 0 14 2 19 5 13 2
-7 2 -19 0 -25z m-239 -19 c-3 -8 -7 -3 -11 10 -4 17 -3 21 5 13 5 -5 8 -16 6
-23z m9 -41 c-3 -8 -6 -5 -6 6 -1 11 2 17 5 13 3 -3 4 -12 1 -19z m30 -10 c-3
-7 -5 -2 -5 12 0 14 2 19 5 13 2 -7 2 -19 0 -25z m175 -40 c-8 -8 -9 -4 -5 13
4 13 8 18 11 10 2 -7 -1 -18 -6 -23z m-45 0 c-3 -8 -6 -5 -6 6 -1 11 2 17 5
13 3 -3 4 -12 1 -19z m-6 -41 c-10 -9 -11 -8 -5 6 3 10 9 15 12 12 3 -3 0 -11
-7 -18z m46 -14 c-3 -10 -5 -4 -5 12 0 17 2 24 5 18 2 -7 2 -21 0 -30z m-50
-35 c-3 -7 -5 -2 -5 12 0 14 2 19 5 13 2 -7 2 -19 0 -25z m40 -10 c-3 -8 -6
-5 -6 6 -1 11 2 17 5 13 3 -3 4 -12 1 -19z m-44 -23 c-3 -9 -8 -14 -10 -11 -3
3 -2 9 2 15 9 16 15 13 8 -4z m44 -17 c-3 -8 -6 -5 -6 6 -1 11 2 17 5 13 3 -3
4 -12 1 -19z m-50 -30 c-3 -8 -6 -5 -6 6 -1 11 2 17 5 13 3 -3 4 -12 1 -19z
m-4 -33 c-3 -9 -8 -14 -10 -11 -3 3 -2 9 2 15 9 16 15 13 8 -4z m-32 -55 c9 0
20 8 22 18 4 13 5 11 6 -5 1 -18 -4 -23 -23 -23 -25 0 -76 35 -76 52 0 6 12
-1 26 -16 15 -14 35 -26 45 -26z m76 18 c-3 -8 -6 -5 -6 6 -1 11 2 17 5 13 3
-3 4 -12 1 -19z m-261 -14 c1 -9 0 -13 -4 -10 -3 4 -7 14 -8 22 -1 9 0 13 4
10 3 -4 7 -14 8 -22z m261 -36 c-3 -7 -5 -2 -5 12 0 14 2 19 5 13 2 -7 2 -19
0 -25z"/>
<path d="M4080 2460 c-8 -5 -12 -12 -9 -15 4 -3 12 1 19 10 14 17 11 19 -10 5z"/>
<path d="M4180 2460 c-9 -6 -10 -10 -3 -10 6 0 15 5 18 10 8 12 4 12 -15 0z"/>
<path d="M3877 2389 c7 -7 15 -10 18 -7 3 3 -2 9 -12 12 -14 6 -15 5 -6 -5z"/>
<path d="M3704 2369 c-3 -6 -1 -16 5 -22 9 -9 11 -8 6 5 -4 11 0 18 12 21 15
4 16 5 1 6 -9 0 -20 -4 -24 -10z"/>
<path d="M5124 2453 c6 -71 18 -133 26 -133 5 0 4 15 -1 32 -5 18 -9 42 -8 53
0 11 7 -5 14 -35 8 -34 10 -59 4 -66 -13 -15 9 -117 27 -127 8 -4 14 -13 14
-20 0 -7 -4 -6 -11 3 -7 11 -8 -1 -3 -40 3 -30 9 -59 12 -65 7 -12 4 -233 -3
-246 -4 -5 -1 -9 4 -9 6 0 11 -10 11 -22 0 -34 -11 -68 -22 -68 -5 0 -4 8 2
19 5 11 10 30 9 43 -1 18 -3 17 -10 -9 -11 -37 -23 -42 -38 -15 -16 29 -34 -1
-38 -65 -3 -43 -2 -54 6 -43 6 8 11 10 11 4 0 -7 13 -26 29 -43 37 -39 78 -42
105 -6 20 27 31 25 46 -8 11 -22 11 -22 -6 0 l-16 23 -20 -25 c-23 -29 -62
-33 -96 -9 -12 8 -22 12 -22 8 0 -17 53 -95 71 -105 11 -6 18 -13 15 -16 -17
-17 -104 107 -90 128 4 8 3 9 -4 5 -7 -4 -12 0 -13 11 0 10 -3 13 -6 6 -5 -13
36 -93 67 -131 10 -12 33 -29 51 -36 28 -12 37 -12 66 2 17 8 30 19 27 24 -3
4 -15 1 -27 -7 -12 -8 -31 -14 -42 -14 -20 1 -20 1 0 6 11 3 28 12 38 21 16
14 19 13 42 -8 14 -13 25 -28 25 -34 0 -6 -7 -2 -15 8 -8 11 -15 15 -15 9 0
-12 64 -72 102 -96 13 -8 50 -21 83 -27 82 -17 110 -33 138 -81 19 -31 26 -37
31 -24 9 25 7 85 -3 85 -5 0 -5 16 0 38 5 20 11 45 14 55 2 9 0 17 -6 17 -5 0
-9 12 -9 26 0 14 4 23 10 19 14 -9 -38 133 -65 175 -41 64 -81 87 -112 65 -14
-11 -18 -25 -16 -74 1 -34 -2 -61 -6 -61 -21 0 -77 49 -86 75 -5 17 -14 33
-20 37 -7 5 -7 8 0 8 6 0 9 35 7 92 -2 60 -7 87 -13 77 -5 -8 -9 -10 -9 -6 0
4 8 20 17 34 17 26 17 27 -2 20 -17 -6 -18 -5 -4 5 10 9 18 36 22 78 3 40 2
54 -3 35 l-8 -30 -1 28 c0 16 5 30 13 33 8 3 18 20 22 37 3 18 17 55 31 84
l24 52 -26 63 c-34 81 -45 92 -94 90 -32 -1 -48 4 -74 27 -24 22 -37 27 -49
20 -12 -6 -30 1 -68 26 -29 19 -53 35 -55 35 -2 0 -2 -17 -1 -37z m48 -8 c15
-14 32 -25 38 -25 5 0 10 -5 10 -11 0 -6 -16 -1 -35 11 -19 12 -39 19 -45 15
-5 -3 -10 3 -10 14 0 27 9 26 42 -4z m122 -50 c20 -19 38 -25 71 -25 43 0 76
-19 74 -43 0 -7 -3 -7 -6 2 -5 11 -7 11 -14 0 -7 -11 -9 -10 -9 4 0 12 -8 17
-27 18 -60 2 -75 7 -99 33 -14 14 -30 23 -36 20 -7 -4 -8 -2 -4 4 11 17 20 15
50 -13z m108 -117 c-8 -8 -9 -4 -5 13 4 13 8 18 11 10 2 -7 -1 -18 -6 -23z
m67 -28 c0 -8 -6 0 -14 19 -8 18 -15 36 -15 40 1 13 29 -45 29 -59z m-294 40
c3 -5 1 -10 -4 -10 -6 0 -11 5 -11 10 0 6 2 10 4 10 3 0 8 -4 11 -10z m19 -91
c4 -8 0 -5 -8 5 -9 11 -16 31 -15 45 1 24 2 24 8 -5 4 -17 11 -37 15 -45z
m203 39 c-3 -8 -6 -5 -6 6 -1 11 2 17 5 13 3 -3 4 -12 1 -19z m66 -43 c-9 -19
-18 -33 -21 -31 -4 5 26 66 33 66 3 0 -3 -16 -12 -35z m-86 -37 c-3 -7 -5 -2
-5 12 0 14 2 19 5 13 2 -7 2 -19 0 -25z m52 -52 c-6 -21 -13 -36 -16 -33 -3 3
0 22 7 42 16 47 23 40 9 -9z m-225 18 c3 -8 2 -12 -4 -9 -6 3 -10 10 -10 16 0
14 7 11 14 -7z m163 -16 c-3 -7 -5 -2 -5 12 0 14 2 19 5 13 2 -7 2 -19 0 -25z
m-10 -60 c-3 -7 -5 -2 -5 12 0 14 2 19 5 13 2 -7 2 -19 0 -25z m-10 -40 c-3
-8 -6 -5 -6 6 -1 11 2 17 5 13 3 -3 4 -12 1 -19z m-125 -44 c2 -19 1 -37 -2
-39 -3 -2 -7 14 -8 36 -3 49 4 52 10 3z m125 -86 c-2 -24 -4 -7 -4 37 0 44 2
63 4 43 2 -21 2 -57 0 -80z m50 65 c-3 -10 -5 -2 -5 17 0 19 2 27 5 18 2 -10
2 -26 0 -35z m-170 -48 c0 -8 -4 -15 -9 -15 -10 0 -11 14 -1 23 9 10 10 9 10
-8z m160 -77 c-3 -8 -6 -5 -6 6 -1 11 2 17 5 13 3 -3 4 -12 1 -19z m-33 -4 c3
-8 2 -12 -4 -9 -6 3 -10 10 -10 16 0 14 7 11 14 -7z m3 -46 c-3 -8 -6 -5 -6 6
-1 11 2 17 5 13 3 -3 4 -12 1 -19z m30 -40 c-3 -8 -6 -5 -6 6 -1 11 2 17 5 13
3 -3 4 -12 1 -19z m-219 -13 c21 -19 23 -25 10 -25 -9 0 -20 5 -23 11 -4 6
-13 8 -21 5 -16 -6 -17 -4 -8 18 8 21 10 20 42 -9z m199 -17 c-3 -8 -6 -5 -6
6 -1 11 2 17 5 13 3 -3 4 -12 1 -19z m226 -22 c33 -31 60 -83 47 -91 -6 -3
-10 4 -10 15 0 12 -16 38 -35 57 -34 34 -36 35 -55 18 -14 -12 -17 -25 -13
-51 12 -72 8 -94 -17 -94 -25 0 -72 23 -89 44 -14 17 -6 17 51 -3 21 -7 42
-10 46 -7 6 3 5 25 -1 52 -9 37 -8 47 4 55 8 5 10 9 6 9 -5 0 -5 5 -2 10 11
17 41 11 68 -14z m-203 -11 c4 3 6 -5 2 -17 -5 -21 -6 -21 -13 -2 -4 10 -8 24
-8 29 1 6 3 4 6 -3 2 -6 8 -10 13 -7z m35 -64 c-10 -10 -34 10 -29 24 6 14 8
13 19 -2 8 -10 12 -20 10 -22z m245 -56 c0 -5 -4 -4 -9 4 -5 8 -14 10 -22 5
-11 -6 -11 -4 0 10 11 13 16 14 22 4 5 -7 9 -17 9 -23z m-301 -40 c-3 -2 -16
10 -29 28 l-23 32 29 -27 c15 -15 26 -30 23 -33z m281 32 c0 -2 -11 -18 -25
-37 -14 -19 -25 -29 -25 -23 0 6 10 23 23 37 21 25 27 30 27 23z m-139 -81
c32 -9 70 -28 88 -45 18 -17 32 -24 35 -17 2 6 5 0 5 -13 1 -23 -1 -22 -34 12
-25 26 -53 41 -93 53 -98 27 -122 35 -127 44 -3 5 12 2 32 -5 21 -8 63 -21 94
-29z m-121 -33 c0 -5 15 -18 34 -31 34 -23 68 -35 139 -47 37 -6 107 -57 107
-77 0 -6 -9 1 -21 16 -24 31 -66 50 -131 60 -55 8 -181 86 -139 86 6 0 11 -3
11 -7z m295 -53 c-9 -41 -17 -33 -9 9 4 17 9 30 11 27 3 -2 2 -19 -2 -36z m2
-132 c-3 -8 -6 -5 -6 6 -1 11 2 17 5 13 3 -3 4 -12 1 -19z"/>
<path d="M5430 1576 c0 -10 59 -36 77 -35 12 0 9 3 -8 8 -14 5 -35 14 -47 20
-12 6 -22 9 -22 7z"/>
<path d="M3505 2309 c-32 -28 -39 -31 -61 -20 -23 10 -29 8 -55 -20 -24 -26
-34 -30 -64 -26 -19 3 -35 1 -35 -3 0 -4 20 -10 44 -11 24 -2 43 -3 42 -1 -2
1 9 16 23 32 26 29 26 29 43 9 10 -12 19 -15 23 -9 3 6 10 8 15 5 5 -3 11 -1
15 5 8 13 52 13 61 -1 4 -8 0 -9 -15 -4 -13 4 -32 -1 -51 -12 -26 -15 -34 -16
-52 -4 -19 11 -23 10 -43 -15 -17 -21 -30 -27 -57 -26 -33 1 -96 20 -70 21 6
1 12 5 12 11 0 5 -7 7 -16 3 -20 -7 -15 -43 19 -139 14 -39 28 -92 32 -117 4
-26 12 -47 17 -47 6 0 8 6 5 14 -12 32 -40 152 -39 169 0 10 -4 15 -10 11 -6
-4 -8 1 -3 16 5 16 4 20 -5 15 -9 -5 -10 -1 -5 16 5 19 4 21 -4 9 -9 -13 -11
-13 -11 3 0 9 6 17 13 17 11 0 44 -98 54 -160 1 -8 5 -31 9 -50 12 -61 12 -80
3 -80 -12 0 -12 -57 0 -64 5 -4 7 8 4 26 -3 18 -2 30 1 27 13 -12 14 -78 2
-73 -8 3 -11 -27 -11 -100 0 -103 10 -130 18 -51 2 22 2 2 0 -45 -2 -47 -8
-101 -13 -120 -7 -27 -8 -19 -5 35 5 74 0 71 -10 -8 -5 -41 -9 -46 -21 -36
-21 17 -36 -1 -43 -53 -9 -67 -3 -92 35 -137 47 -55 88 -57 135 -6 25 26 39
33 54 29 75 -24 139 28 159 131 5 24 4 26 -3 10 -9 -19 -10 -19 -10 3 -1 12 5
22 12 22 8 0 9 2 1 8 -7 4 -19 25 -29 47 l-16 40 -19 -22 c-10 -13 -25 -23
-34 -23 -16 0 -46 48 -45 72 0 7 7 -4 16 -24 15 -37 35 -49 48 -27 4 5 0 18
-9 28 -9 10 -16 24 -15 32 0 8 4 4 9 -8 6 -14 15 -21 23 -17 16 6 57 -40 57
-62 0 -7 5 -16 11 -19 5 -4 3 10 -6 32 -16 39 -39 63 -61 63 -17 0 -24 23 -26
88 l-1 57 -7 -60 -7 -60 -1 68 c-1 38 1 66 6 64 4 -3 8 11 9 31 1 28 -1 32 -7
17 -6 -14 -8 -3 -8 35 1 51 1 52 9 20 6 -25 7 -14 4 40 -2 51 0 69 6 55 7 -15
8 -11 5 18 -3 20 -1 35 3 32 11 -6 21 46 15 76 -4 16 -3 20 3 11 6 -8 17 14
32 68 23 79 23 81 5 101 -10 12 -31 27 -46 35 -26 13 -29 12 -63 -17z m88 -14
c15 -14 27 -34 27 -43 0 -12 -4 -10 -13 8 -7 13 -24 31 -39 39 -25 14 -29 14
-60 -7 l-33 -23 28 25 c35 33 55 33 90 1z m-60 -130 c-3 -9 -8 -14 -10 -11 -3
3 -2 9 2 15 9 16 15 13 8 -4z m54 -17 c-3 -8 -6 -5 -6 6 -1 11 2 17 5 13 3 -3
4 -12 1 -19z m-70 -50 c-3 -8 -6 -5 -6 6 -1 11 2 17 5 13 3 -3 4 -12 1 -19z
m-5 -45 c-3 -16 -7 -22 -10 -15 -4 13 4 42 11 42 2 0 2 -12 -1 -27z m-25 -225
c-2 -13 -4 -3 -4 22 0 25 2 35 4 23 2 -13 2 -33 0 -45z m0 -65 c-3 -10 -5 -4
-5 12 0 17 2 24 5 18 2 -7 2 -21 0 -30z m-130 -10 c-3 -10 -5 -4 -5 12 0 17 2
24 5 18 2 -7 2 -21 0 -30z m141 -84 c-3 -20 -5 -19 -9 9 -3 20 -2 29 4 23 5
-5 7 -19 5 -32z m102 -122 c0 -18 -7 -42 -16 -53 -15 -18 -15 -18 -5 3 6 12
11 35 11 52 0 17 2 31 5 31 3 0 5 -15 5 -33z m-311 -59 c-10 -7 -8 -8 8 -3 12
3 24 2 27 -3 3 -6 -8 -12 -24 -14 -17 -3 -30 -1 -30 3 0 19 13 38 22 33 6 -4
5 -10 -3 -16z m215 -58 c8 0 26 9 42 21 l29 21 -29 -27 c-31 -29 -69 -28 -91
2 -7 9 -17 13 -23 9 -8 -5 -10 -2 -6 8 5 13 11 12 36 -9 16 -14 35 -25 42 -25z
m-226 2 c-7 -25 14 -51 49 -63 l28 -9 -32 3 c-41 4 -41 -4 -2 -37 42 -35 65
-33 107 12 19 20 30 27 24 15 -14 -26 -60 -63 -78 -63 -40 0 -115 74 -100 99
4 5 2 12 -3 15 -9 6 -3 46 6 46 3 0 3 -8 1 -18z m133 -10 c-5 -9 -19 -26 -32
-37 -17 -15 -15 -10 7 17 32 41 40 48 25 20z m189 -32 c-6 -11 -19 -24 -30
-30 -33 -17 -100 -10 -100 11 0 6 8 5 19 -1 33 -17 71 -12 94 15 27 30 31 31
17 5z"/>
<path d="M3141 2190 c-13 -11 -36 -20 -51 -20 -16 0 -30 -7 -34 -15 -3 -8 -11
-14 -18 -13 -7 2 -13 -4 -12 -12 1 -18 -41 -26 -51 -10 -3 6 3 10 14 10 12 0
21 4 21 9 0 10 -32 7 -49 -3 -4 -3 -4 -23 2 -45 6 -22 15 -37 20 -34 6 3 7 2
4 -4 -4 -6 2 -55 12 -109 27 -140 34 -207 21 -199 -20 12 -59 112 -76 192 -12
54 -25 87 -43 106 -34 37 -61 52 -70 39 -13 -22 -64 -41 -82 -31 -19 10 -35
-3 -24 -20 3 -5 0 -13 -6 -17 -8 -4 -9 -3 -5 4 4 7 3 12 -2 12 -17 0 -22 -13
-10 -29 10 -12 8 -12 -8 2 -25 21 -97 23 -114 2 -9 -11 -9 -26 1 -70 12 -54
22 -68 32 -42 3 6 5 3 5 -8 0 -11 3 -30 6 -42 13 -48 15 -65 9 -59 -4 4 -8 13
-10 21 -2 8 -5 23 -7 33 -3 9 -5 20 -5 25 -1 4 -6 7 -12 7 -5 0 -7 -4 -4 -10
14 -23 42 -206 49 -326 2 -28 7 -57 11 -64 5 -8 4 -11 -2 -7 -6 4 -13 -24 -17
-76 -4 -45 -8 -89 -9 -98 -1 -17 -13 -19 -35 -5 -25 15 -37 -13 -37 -87 0 -60
4 -77 24 -104 34 -45 74 -60 106 -39 14 9 25 22 25 29 -1 7 -5 6 -13 -4 -25
-33 -53 -32 -90 4 -19 19 -37 44 -40 56 -6 24 -3 25 24 10 31 -16 59 -1 79 43
16 35 19 38 24 20 14 -42 66 -38 91 7 8 14 14 21 15 15 0 -6 -9 -23 -21 -38
-23 -29 -60 -34 -79 -11 -11 14 -15 12 -31 -14 -19 -31 -59 -49 -80 -35 -6 4
-4 -6 6 -23 27 -46 52 -58 80 -39 14 9 29 25 35 37 9 16 14 18 25 9 23 -19 58
-7 82 29 13 19 23 30 23 25 0 -14 -31 -58 -49 -69 -21 -12 -32 -13 -53 -3 -9
4 -19 4 -22 -1 -4 -5 8 -12 24 -16 53 -12 97 32 114 112 8 36 -18 107 -52 139
-11 10 -22 28 -25 39 -4 17 -5 16 -6 -5 -1 -15 7 -30 19 -38 12 -7 18 -17 15
-21 -3 -5 0 -11 5 -13 8 -2 8 -11 1 -28 l-10 -25 0 28 c-1 24 -3 26 -20 17
-11 -5 -22 -10 -26 -10 -10 0 -35 68 -34 92 1 13 5 5 10 -19 11 -48 28 -66 49
-52 12 7 13 11 2 18 -16 10 -34 81 -21 81 5 0 9 12 9 28 0 21 -2 24 -10 12 -8
-13 -10 -13 -10 2 0 9 5 18 11 20 6 2 13 30 16 63 7 81 16 118 31 121 7 1 8 0
2 -3 -5 -2 -10 -9 -10 -14 0 -6 4 -8 9 -4 5 3 13 0 17 -6 4 -8 3 -9 -4 -5 -15
9 -15 3 -1 -28 7 -14 16 -23 20 -20 5 3 6 -3 2 -12 -5 -13 -3 -15 7 -9 8 5 11
4 7 -2 -4 -6 7 -38 23 -72 17 -34 40 -95 52 -136 12 -41 26 -75 31 -75 4 0 5
4 2 10 -3 5 0 7 8 4 8 -3 24 11 41 36 22 34 29 39 46 30 29 -15 58 -12 64 8 3
10 4 6 3 -8 -2 -27 -15 -29 -69 -15 -17 4 -28 3 -28 -3 0 -5 -14 -25 -30 -42
l-31 -33 22 -23 c13 -13 26 -24 31 -24 4 0 21 18 36 39 28 39 29 39 58 25 16
-8 36 -13 46 -11 10 3 18 1 18 -4 0 -13 -34 -11 -66 3 -24 11 -28 10 -41 -9
-8 -12 -24 -32 -35 -45 l-20 -23 -34 39 c-19 22 -34 34 -34 28 0 -14 56 -72
69 -72 6 0 24 18 41 39 30 36 33 38 57 26 13 -7 32 -12 41 -10 9 2 20 4 25 4
10 1 9 151 -1 151 -4 0 -6 -17 -4 -37 3 -21 2 -36 -1 -33 -3 3 -8 34 -12 70
-3 36 -8 74 -11 85 -2 11 -1 14 2 8 13 -28 19 -10 14 44 l-4 58 -7 -45 -6 -45
-1 53 c-1 33 2 51 8 47 6 -3 10 -1 10 4 0 6 -4 11 -10 11 -5 0 -10 7 -10 16 0
8 5 12 10 9 6 -3 10 1 10 10 0 9 -4 13 -10 10 -5 -3 -10 1 -10 10 0 9 5 13 10
10 6 -4 10 12 10 39 0 29 -4 46 -12 46 -6 0 -3 7 8 16 19 15 19 16 0 9 -19 -6
-19 -5 -2 14 15 16 17 31 12 83 -4 44 -3 55 4 38 9 -24 9 -24 7 5 -1 17 3 36
7 44 6 10 5 12 -2 7 -8 -5 -12 1 -12 16 0 18 2 20 10 8 5 -8 10 -12 10 -7 0 4
9 38 19 76 l19 70 -26 40 c-30 46 -37 48 -71 21z m81 -86 c-6 -30 -14 -31 -11
-1 3 22 -19 67 -33 67 -5 0 -8 -8 -8 -17 0 -14 -2 -15 -9 -4 -5 7 -13 11 -19
7 -6 -3 -14 -1 -18 6 -4 7 -4 10 0 6 5 -4 17 2 29 12 20 19 20 19 47 -17 17
-23 25 -44 22 -59z m-132 41 c0 -8 -4 -15 -8 -15 -5 0 -9 7 -9 15 0 8 4 15 9
15 4 0 8 -7 8 -15z m25 5 c3 -5 1 -10 -4 -10 -6 0 -11 5 -11 10 0 6 2 10 4 10
3 0 8 -4 11 -10z m27 -112 c-6 -6 -7 0 -4 19 5 21 7 23 10 9 2 -10 0 -22 -6
-28z m-204 -119 c20 -84 48 -152 93 -226 15 -25 18 -34 7 -25 -27 22 -88 159
-109 246 -14 54 -29 90 -47 108 -14 15 -27 26 -29 24 -2 -2 18 -71 46 -153 52
-158 124 -323 139 -323 5 0 9 -7 9 -15 0 -58 -90 134 -158 336 -56 170 -57
203 -5 148 27 -27 38 -52 54 -120z m269 129 c-3 -8 -6 -5 -6 6 -1 11 2 17 5
13 3 -3 4 -12 1 -19z m-90 -230 c-2 -13 -4 -5 -4 17 -1 22 1 32 4 23 2 -10 2
-28 0 -40z m-348 -44 c12 -39 21 -78 21 -87 0 -8 3 -17 8 -20 4 -2 2 -2 -5 -1
-8 2 -14 -24 -19 -79 -5 -45 -7 -86 -6 -90 1 -5 -1 -6 -6 -3 -5 3 -3 51 4 108
11 89 10 111 -3 161 -9 31 -20 57 -25 57 -4 0 -8 10 -8 22 0 37 17 8 39 -68z
m398 39 c-3 -10 -5 -2 -5 17 0 19 2 27 5 18 2 -10 2 -26 0 -35z m-440 -35 c-3
-7 -5 -2 -5 12 0 14 2 19 5 13 2 -7 2 -19 0 -25z m388 -48 c1 -10 -2 -17 -6
-14 -4 2 -7 13 -6 24 2 23 10 17 12 -10z m42 -37 c-3 -10 -5 -2 -5 17 0 19 2
27 5 18 2 -10 2 -26 0 -35z m-440 -25 c-3 -7 -5 -2 -5 12 0 14 2 19 5 13 2 -7
2 -19 0 -25z m395 7 c3 -13 1 -22 -3 -19 -9 5 -13 44 -5 44 2 0 6 -11 8 -25z
m-454 -30 c-3 -3 -9 2 -12 12 -6 14 -5 15 5 6 7 -7 10 -15 7 -18z m59 -77 c-2
-18 -4 -6 -4 27 0 33 2 48 4 33 2 -15 2 -42 0 -60z m330 50 c-3 -7 -5 -2 -5
12 0 14 2 19 5 13 2 -7 2 -19 0 -25z m-390 -10 c-3 -8 -6 -5 -6 6 -1 11 2 17
5 13 3 -3 4 -12 1 -19z m11 -43 c-3 -3 -9 2 -12 12 -6 14 -5 15 5 6 7 -7 10
-15 7 -18z m0 -40 c-3 -3 -9 2 -12 12 -6 14 -5 15 5 6 7 -7 10 -15 7 -18z
m449 3 c-3 -8 -6 -5 -6 6 -1 11 2 17 5 13 3 -3 4 -12 1 -19z m0 -100 c-2 -18
-4 -6 -4 27 0 33 2 48 4 33 2 -15 2 -42 0 -60z m-400 25 c-3 -10 -5 -2 -5 17
0 19 2 27 5 18 2 -10 2 -26 0 -35z m13 -44 c0 -6 -4 -7 -10 -4 -5 3 -10 11
-10 16 0 6 5 7 10 4 6 -3 10 -11 10 -16z m400 -29 c0 -5 -2 -10 -4 -10 -3 0
-8 5 -11 10 -3 6 -1 10 4 10 6 0 11 -4 11 -10z m-281 -170 c0 -8 -7 1 -14 20
-18 46 -17 64 0 25 8 -16 14 -37 14 -45z m-254 51 c3 -6 -4 -15 -15 -21 -22
-12 -23 -10 -14 14 7 18 20 21 29 7z m35 -5 c0 -3 -4 -8 -10 -11 -5 -3 -10 -1
-10 4 0 6 5 11 10 11 6 0 10 -2 10 -4z"/>
<path d="M648 2066 c-56 -38 -85 -107 -102 -243 -3 -24 -2 -43 2 -43 4 0 8 20
10 44 1 25 6 55 12 68 8 18 9 13 4 -22 -2 -25 -6 -80 -7 -122 -2 -88 -16 -106
-19 -25 l-2 52 -3 -50 c-3 -34 0 -52 10 -60 8 -6 17 -38 20 -80 7 -69 37 -201
52 -225 4 -7 2 -15 -4 -19 -8 -6 -8 -16 0 -39 10 -28 13 -31 27 -20 13 12 14
10 3 -10 -11 -20 -8 -31 24 -88 22 -38 41 -62 47 -58 7 5 8 2 3 -5 -8 -14 33
-63 46 -55 5 3 6 -3 2 -12 -5 -13 -3 -16 10 -11 9 3 19 1 23 -5 5 -7 2 -8 -7
-3 -12 8 -12 6 -1 -8 23 -27 78 -40 148 -32 60 6 65 5 88 -19 20 -22 25 -24
30 -10 3 8 6 30 6 47 0 24 -3 28 -10 17 -8 -13 -10 -13 -10 2 0 9 6 19 13 21
10 4 10 6 0 6 -7 1 -13 9 -13 19 0 14 2 14 9 3 7 -10 12 -2 18 30 11 52 6 88
-9 67 -7 -9 -8 -5 -4 13 4 18 -5 47 -31 95 -40 78 -74 114 -106 114 -41 -1
-57 -23 -57 -79 0 -30 4 -50 9 -46 5 3 13 0 17 -6 4 -8 3 -9 -4 -5 -7 4 -12 1
-12 -8 0 -24 -28 -19 -55 9 -16 15 -25 37 -26 57 l-1 33 -7 -30 c-4 -19 -2
-35 6 -43 7 -7 13 -20 13 -28 0 -8 3 -13 8 -11 4 3 13 -1 20 -9 16 -17 1 -18
-20 -1 -43 34 -52 71 -31 127 10 26 11 40 3 35 -4 -3 -11 2 -14 11 -5 12 -2
15 10 10 14 -5 15 -4 4 9 -10 12 -10 15 1 16 8 0 5 4 -6 9 -16 7 -17 9 -3 9
12 1 15 7 10 24 -3 12 -10 25 -16 29 -8 5 -7 8 2 8 6 0 12 12 12 26 0 14 -4
23 -10 19 -17 -11 -11 7 8 21 12 10 13 13 3 14 -9 0 -10 4 -4 13 5 6 11 30 12
51 2 22 7 50 12 63 9 24 28 31 30 11 0 -7 7 1 15 17 l13 30 -1 -32 c-1 -18 -6
-33 -10 -33 -14 0 -9 -23 17 -77 44 -96 104 -131 139 -81 16 22 22 89 10 101
-4 3 -8 29 -10 57 -2 28 -7 56 -10 62 -4 6 -3 8 3 5 6 -4 13 4 15 18 6 28 -8
35 -15 8 -4 -16 -5 -16 -6 -1 0 9 4 20 9 23 12 8 13 52 1 59 -5 4 -7 -4 -5
-16 2 -13 1 -16 -2 -8 -4 8 -11 23 -16 34 -7 13 -7 16 2 11 7 -4 4 7 -5 25
-16 30 -19 32 -59 28 -40 -5 -45 -2 -70 29 -65 80 -150 109 -208 69z m123 -17
c24 -20 24 -20 1 -9 -23 11 -123 10 -116 -1 2 -4 -6 -15 -17 -25 -23 -20 -54
-74 -51 -86 1 -5 -2 -8 -8 -8 -14 0 -12 11 5 34 8 10 12 23 9 27 -3 5 0 9 6 9
6 0 9 4 6 9 -3 5 10 23 29 40 44 38 100 42 136 10z m64 -39 c3 -5 1 -10 -4
-10 -6 0 -11 5 -11 10 0 6 2 10 4 10 3 0 8 -4 11 -10z m63 -67 c6 -2 12 2 12
7 0 15 57 12 63 -4 9 -22 -3 -26 -29 -9 -15 9 -24 11 -24 4 0 -6 -10 -11 -23
-11 -15 0 -29 11 -41 33 l-18 32 23 -25 c13 -14 30 -26 37 -27z m-61 -59 c-2
-3 -16 0 -30 5 -22 9 -29 7 -42 -12 -8 -12 -15 -28 -15 -36 0 -8 -3 -12 -6 -8
-8 8 5 44 22 61 11 12 21 13 45 4 16 -6 28 -12 26 -14z m120 -26 c-3 -7 -5 -2
-5 12 0 14 2 19 5 13 2 -7 2 -19 0 -25z m6 -38 c3 -11 1 -18 -4 -14 -5 3 -9
12 -9 20 0 20 7 17 13 -6z m-90 -5 c4 -8 3 -16 -1 -19 -4 -3 -9 4 -9 15 -2 23
3 25 10 4z m-136 -27 c-3 -7 -5 -2 -5 12 0 14 2 19 5 13 2 -7 2 -19 0 -25z
m230 -20 c-3 -8 -6 -5 -6 6 -1 11 2 17 5 13 3 -3 4 -12 1 -19z m-133 6 c9 -3
16 -11 16 -16 0 -6 -6 -5 -15 2 -8 6 -20 8 -26 4 -8 -4 -9 -3 -5 4 8 14 9 14
30 6z m-107 -91 c-2 -16 -4 -3 -4 27 0 30 2 43 4 28 2 -16 2 -40 0 -55z m70
45 c-3 -8 -6 -5 -6 6 -1 11 2 17 5 13 3 -3 4 -12 1 -19z m-10 -70 c-2 -13 -4
-5 -4 17 -1 22 1 32 4 23 2 -10 2 -28 0 -40z m147 16 c15 4 26 14 27 24 0 11
2 12 6 4 13 -33 -48 -56 -76 -29 -11 10 -13 9 -8 -6 4 -11 3 -16 -4 -12 -6 4
-8 13 -5 21 3 8 1 14 -4 14 -6 0 -10 5 -10 12 0 6 11 1 24 -11 18 -17 32 -22
50 -17z m83 -36 c-3 -8 -6 -5 -6 6 -1 11 2 17 5 13 3 -3 4 -12 1 -19z m-290
-40 c-3 -8 -6 -5 -6 6 -1 11 2 17 5 13 3 -3 4 -12 1 -19z m283 -22 c-6 -8 -19
-16 -28 -18 -20 -6 -68 9 -59 18 3 3 14 1 24 -4 27 -14 63 3 64 30 1 18 2 19
6 5 3 -10 0 -24 -7 -31z m-283 -18 c-3 -8 -6 -5 -6 6 -1 11 2 17 5 13 3 -3 4
-12 1 -19z m-84 -243 c4 -8 1 -17 -6 -21 -7 -4 -9 -4 -5 1 4 4 3 14 -3 22 -7
8 -8 13 -1 13 5 0 12 -7 15 -15z m380 -28 c3 -8 0 -14 -7 -14 -7 0 -13 6 -13
14 0 7 4 13 8 13 4 0 9 -6 12 -13z m-360 -32 c-3 -9 -8 -14 -10 -11 -3 3 -2 9
2 15 9 16 15 13 8 -4z m386 -25 c11 -24 11 -24 -3 -6 -9 11 -16 24 -16 30 0
12 5 7 19 -24z m-155 -13 c-21 -12 -29 -2 -13 16 10 11 16 12 21 4 4 -7 0 -16
-8 -20z m101 -24 c-9 -15 -13 -19 -10 -8 4 11 10 29 13 40 3 11 7 14 9 8 3 -7
-3 -24 -12 -40z m-317 12 c-3 -3 -9 2 -12 12 -6 14 -5 15 5 6 7 -7 10 -15 7
-18z m123 -63 c19 -6 43 -13 54 -15 16 -4 15 -5 -5 -6 -37 -1 -101 32 -135 70
l-30 33 41 -36 c23 -19 57 -40 75 -46z m266 -34 c-3 -7 -5 -2 -5 12 0 14 2 19
5 13 2 -7 2 -19 0 -25z m-60 0 c-3 -8 -6 -5 -6 6 -1 11 2 17 5 13 3 -3 4 -12
1 -19z m-31 -4 c19 -9 34 -21 34 -27 0 -5 -8 -3 -17 6 -10 8 -34 20 -53 25
-19 6 -27 11 -17 11 11 1 34 -6 53 -15z m-101 -89 c40 -11 44 -14 20 -14 -16
0 -41 6 -55 14 -31 18 -28 18 35 0z m88 -2 c-7 -2 -19 -2 -25 0 -7 3 -2 5 12
5 14 0 19 -2 13 -5z m67 -8 c7 -8 16 -12 21 -9 5 3 9 0 9 -5 0 -16 -9 -14 -37
9 -14 11 -21 20 -16 20 6 0 16 -7 23 -15z"/>
<path d="M2155 1911 c-28 -9 -68 -28 -89 -41 -31 -19 -42 -21 -57 -12 -23 14
-29 15 -29 3 0 -5 13 -12 29 -16 22 -5 40 0 68 18 63 40 134 57 177 42 47 -16
71 -36 55 -45 -8 -6 -8 -9 0 -14 6 -4 11 -2 11 5 0 35 73 -69 94 -133 12 -38
-4 -15 -30 42 -15 33 -31 60 -35 60 -12 0 -11 -17 1 -25 6 -3 10 -14 9 -23 0
-14 -2 -14 -6 -2 -12 31 -47 73 -77 91 -17 10 -25 19 -18 19 7 0 10 5 7 10
-15 24 -66 12 -173 -42 -30 -16 -59 -25 -65 -21 -6 3 -7 1 -3 -6 6 -8 0 -10
-18 -5 -15 3 -32 1 -39 -4 -14 -12 -128 -11 -120 1 2 4 -2 7 -9 7 -9 0 -9 3 2
10 18 12 43 13 36 2 -6 -10 27 -12 83 -5 30 3 40 8 31 13 -8 5 -21 5 -30 0 -9
-5 -36 -4 -62 2 -36 9 -51 8 -62 -1 -12 -11 -11 -19 9 -64 25 -53 55 -158 55
-189 0 -9 4 -19 8 -22 11 -7 -14 128 -29 155 -6 11 -8 23 -5 26 9 9 24 -40 45
-140 21 -103 28 -351 11 -402 l-10 -30 5 33 c3 20 1 31 -5 27 -6 -3 -10 -16
-10 -28 0 -12 -5 -39 -10 -59 -9 -32 -14 -36 -38 -35 -25 2 -27 -1 -30 -43 -2
-25 2 -63 8 -84 15 -51 57 -114 81 -121 23 -8 91 24 97 45 4 12 1 12 -14 -2
-10 -9 -31 -21 -46 -27 -24 -9 -32 -7 -55 15 l-28 26 28 -20 c36 -26 77 -14
113 34 26 33 26 33 47 14 23 -23 76 -26 97 -8 12 11 12 10 1 -4 -16 -22 -68
-23 -95 -3 -22 16 -36 19 -36 8 1 -13 67 -42 86 -38 11 2 25 4 32 4 19 1 52
80 52 124 0 43 -20 96 -43 116 -10 7 -17 22 -17 32 0 11 -5 19 -10 19 -7 0 -7
6 -1 18 6 9 12 28 15 42 8 37 31 64 49 57 10 -4 19 -30 28 -81 6 -42 16 -76
20 -76 5 0 17 -18 25 -41 13 -32 21 -40 36 -35 18 4 19 3 4 -13 -15 -16 -13
-20 20 -52 29 -28 37 -31 45 -19 9 12 10 12 7 1 -7 -26 -24 -22 -60 15 -38 37
-68 90 -68 118 0 9 -4 16 -9 16 -6 0 -6 -12 -2 -28 28 -94 118 -182 143 -138
7 12 14 14 28 6 30 -16 50 -12 81 19 24 24 28 35 24 63 -4 26 -3 29 4 13 8
-17 10 -14 10 18 1 46 -31 113 -59 122 -12 4 -20 15 -20 28 0 28 -46 157 -61
171 -6 6 -3 -7 6 -29 31 -73 35 -86 34 -103 0 -9 -6 1 -13 23 -7 22 -20 54
-29 71 -19 36 -16 83 7 99 9 7 16 18 16 26 0 11 -2 11 -11 -1 -9 -12 -10 -12
-5 3 3 10 6 26 7 35 0 14 2 13 10 -3 7 -16 9 -14 6 13 -2 18 1 32 7 32 6 0 4
5 -4 10 -13 9 -13 10 0 10 13 0 13 1 0 11 -11 8 -12 12 -2 16 6 2 12 14 11 26
0 21 -1 21 -9 2 -8 -19 -9 -19 -9 2 -1 12 3 24 8 28 21 12 -23 108 -72 159
-67 70 -114 84 -192 57z m-281 -137 c3 -8 2 -12 -4 -9 -6 3 -10 10 -10 16 0
14 7 11 14 -7z m330 -41 c12 -17 20 -46 22 -87 3 -60 3 -61 -7 -18 -6 24 -17
46 -25 49 -8 3 -14 10 -14 16 0 5 10 2 21 -9 22 -19 22 -19 14 6 -18 61 -68
78 -114 38 l-26 -23 24 28 c33 36 79 37 105 0z m163 -50 c-2 -16 -4 -5 -4 22
0 28 2 40 4 28 2 -13 2 -35 0 -50z m-296 -10 c-12 -20 -14 -14 -5 12 4 9 9 14
11 11 3 -2 0 -13 -6 -23z m89 7 c-12 -8 -10 -10 7 -10 27 0 43 -27 43 -70 0
-18 4 -29 10 -25 16 10 11 -1 -7 -16 -14 -12 -16 -12 -9 1 4 8 0 6 -8 -5 -39
-48 -48 -56 -59 -52 -18 5 -21 56 -6 102 6 22 13 47 13 55 3 22 17 43 24 35 4
-3 0 -10 -8 -15z m-27 -40 c-3 -12 -8 -19 -11 -16 -5 6 5 36 12 36 2 0 2 -9
-1 -20z m-76 -37 c-3 -10 -5 -4 -5 12 0 17 2 24 5 18 2 -7 2 -21 0 -30z m300
-5 c-3 -8 -6 -5 -6 6 -1 11 2 17 5 13 3 -3 4 -12 1 -19z m-289 -49 c-3 -8 -7
-3 -11 10 -4 17 -3 21 5 13 5 -5 8 -16 6 -23z m44 -8 c2 -22 0 -37 -4 -35 -8
5 -11 74 -4 74 2 0 6 -18 8 -39z m82 -26 c-18 -28 -44 -45 -68 -45 -17 0 -56
38 -56 54 0 6 7 0 16 -12 10 -14 26 -22 44 -22 28 0 60 22 60 41 0 5 5 9 10 9
6 0 3 -11 -6 -25z m136 7 c0 -5 -7 -17 -15 -28 -14 -18 -14 -17 -4 9 12 27 19
34 19 19z m15 -105 c13 -27 14 -29 1 -12 -8 11 -25 31 -38 44 l-23 23 22 -11
c13 -6 30 -26 38 -44z m-164 -19 c8 -7 21 -22 29 -33 7 -11 1 -8 -14 8 -41 42
-86 31 -111 -26 -9 -20 -14 -25 -15 -14 0 24 53 77 77 77 11 0 26 -6 34 -12z
m197 -73 c0 -16 -2 -15 -8 5 -11 34 -11 60 0 35 5 -11 8 -29 8 -40z m-150 -26
c6 -23 7 -38 2 -33 -4 5 -10 18 -12 28 -1 10 -11 24 -21 30 -19 11 -28 4 -65
-50 -10 -16 -11 -15 -1 6 18 39 40 60 64 60 18 0 25 -8 33 -41z m-161 -21 c-3
-7 -5 -2 -5 12 0 14 2 19 5 13 2 -7 2 -19 0 -25z m320 -10 c-3 -7 -5 -2 -5 12
0 14 2 19 5 13 2 -7 2 -19 0 -25z m-320 -60 c-2 -13 -4 -5 -4 17 -1 22 1 32 4
23 2 -10 2 -28 0 -40z m60 20 c-3 -8 -6 -5 -6 6 -1 11 2 17 5 13 3 -3 4 -12 1
-19z m314 -42 c19 -4 29 -12 29 -23 -1 -17 -1 -17 -11 0 -5 9 -19 17 -29 17
-18 0 -41 28 -39 47 0 4 5 -2 11 -13 5 -12 23 -25 39 -28z m30 24 c22 -12 49
-61 49 -87 -1 -13 -29 48 -30 64 0 1 -12 9 -27 17 -16 8 -24 15 -20 16 5 0 17
-5 28 -10z m-320 -73 c20 -19 26 -32 9 -22 -5 3 -10 0 -10 -7 0 -10 -2 -10 -8
-1 -5 8 -13 9 -22 3 -16 -10 -40 5 -40 24 0 6 5 3 11 -7 8 -14 14 -15 31 -6
15 8 17 14 9 22 -6 6 -10 20 -10 32 1 20 1 20 6 0 3 -11 14 -28 24 -38z m-73
18 c-3 -3 -9 2 -12 12 -6 14 -5 15 5 6 7 -7 10 -15 7 -18z m-166 -40 c-10 -28
-22 -45 -33 -45 -10 0 -20 -13 -26 -32 -10 -32 -10 -31 -11 19 -1 50 0 52 26
50 22 -2 29 3 36 30 6 17 13 30 17 27 4 -2 0 -25 -9 -49z m538 -5 c-23 -42
-68 -51 -107 -20 -14 11 -20 20 -14 20 7 0 19 -7 27 -15 23 -22 53 -18 77 10
27 30 31 31 17 5z m-263 -62 c-3 -7 -5 -2 -5 12 0 14 2 19 5 13 2 -7 2 -19 0
-25z m-109 -40 c18 -1 28 -4 21 -8 -16 -11 -50 -1 -75 21 -20 19 -21 19 -34
-5 -15 -30 -61 -50 -89 -41 -21 6 -47 42 -38 52 3 2 8 -5 12 -16 15 -47 92
-31 117 24 l10 23 22 -24 c14 -17 32 -26 54 -26z m426 27 c-4 -8 -11 -15 -16
-15 -6 0 -5 6 2 15 7 8 14 15 16 15 2 0 1 -7 -2 -15z m-317 -37 c-3 -7 -5 -2
-5 12 0 14 2 19 5 13 2 -7 2 -19 0 -25z m229 18 c10 -8 30 -13 44 -10 25 4 25
4 2 -6 -17 -7 -31 -6 -53 5 -16 9 -29 18 -29 20 0 9 16 5 36 -9z m-536 -85
c-1 -13 -29 45 -29 59 0 8 6 0 14 -19 8 -18 15 -36 15 -40z"/>
<path d="M1850 1089 c0 -5 9 -9 20 -9 11 0 20 2 20 4 0 2 -9 6 -20 9 -11 3
-20 1 -20 -4z"/>
<path d="M2270 1876 c0 -2 7 -7 16 -10 8 -3 12 -2 9 4 -6 10 -25 14 -25 6z"/>
<path d="M1280 1861 c0 -6 7 -8 15 -5 8 4 15 1 15 -5 0 -6 -7 -11 -15 -11 -13
0 -15 -22 -15 -139 0 -77 4 -142 9 -145 10 -6 6 -75 -5 -85 -4 -3 -4 4 -1 17
3 12 1 22 -4 22 -5 0 -9 -12 -9 -27 -1 -95 -73 -323 -102 -323 -6 0 -20 7 -30
16 -16 16 -18 15 -26 -7 -24 -63 19 -193 81 -245 33 -28 58 -30 91 -8 16 10
26 12 31 4 3 -5 23 -19 43 -29 42 -21 77 -12 87 20 8 26 17 24 50 -11 35 -36
75 -39 105 -8 l20 22 30 -22 c34 -26 68 -33 93 -20 28 15 57 69 57 108 -1 48
-49 135 -75 135 -23 0 -35 31 -59 146 -33 166 -43 264 -38 386 l3 98 -36 48
c-25 33 -42 46 -53 43 -9 -3 -30 -8 -47 -12 -16 -4 -34 -12 -38 -18 -5 -7 -7
-3 -5 9 2 11 -2 19 -9 18 -8 -2 -10 4 -6 13 4 12 2 15 -8 12 -8 -3 -13 -10
-12 -15 1 -5 -12 -8 -30 -6 -18 2 -40 4 -49 5 -9 1 -16 7 -15 12 1 6 -8 12
-20 14 -13 2 -23 -1 -23 -7z m277 -123 c-3 -8 -6 -5 -6 6 -1 11 2 17 5 13 3
-3 4 -12 1 -19z m0 -50 c-3 -7 -5 -2 -5 12 0 14 2 19 5 13 2 -7 2 -19 0 -25z
m0 -50 c-3 -7 -5 -2 -5 12 0 14 2 19 5 13 2 -7 2 -19 0 -25z m-260 0 c-3 -8
-6 -5 -6 6 -1 11 2 17 5 13 3 -3 4 -12 1 -19z m127 -6 c2 -4 -4 -8 -15 -8 -10
0 -19 4 -19 8 0 4 6 8 14 8 8 0 17 -4 20 -8z m133 -34 c-3 -8 -6 -5 -6 6 -1
11 2 17 5 13 3 -3 4 -12 1 -19z m-120 -10 c-3 -8 -6 -5 -6 6 -1 11 2 17 5 13
3 -3 4 -12 1 -19z m10 -70 c-2 -13 -4 -5 -4 17 -1 22 1 32 4 23 2 -10 2 -28 0
-40z m120 -10 c-3 -8 -6 -5 -6 6 -1 11 2 17 5 13 3 -3 4 -12 1 -19z m-126 -60
c-14 -38 -61 -32 -61 7 1 6 5 2 11 -7 13 -24 35 -23 42 2 3 11 8 20 11 20 3 0
2 -10 -3 -22z m133 6 c3 -8 2 -12 -4 -9 -6 3 -10 10 -10 16 0 14 7 11 14 -7z
m-284 -24 c0 -5 -4 -10 -10 -10 -5 0 -10 5 -10 10 0 6 5 10 10 10 6 0 10 -4
10 -10z m287 -32 c-3 -7 -5 -2 -5 12 0 14 2 19 5 13 2 -7 2 -19 0 -25z m-300
-18 c-1 -16 -5 -30 -9 -30 -9 0 -10 8 -2 38 9 31 14 28 11 -8z m310 -32 c-3
-8 -6 -5 -6 6 -1 11 2 17 5 13 3 -3 4 -12 1 -19z m-142 -13 c14 -13 25 -32 24
-42 0 -14 -3 -12 -10 6 -21 54 -67 65 -98 25 -12 -15 -21 -23 -21 -18 0 16 44
54 62 54 10 0 30 -11 43 -25z m-179 -17 c-3 -13 -5 -25 -6 -28 -2 -3 -2 -9 -1
-13 1 -5 -3 -6 -9 -2 -6 3 -7 12 -3 18 8 12 9 17 12 37 0 6 3 10 6 10 3 0 3
-10 1 -22z m71 -50 c-3 -8 -6 -5 -6 6 -1 11 2 17 5 13 3 -3 4 -12 1 -19z m119
-10 c4 -6 3 -8 -4 -5 -12 8 -42 -1 -42 -13 0 -4 11 -5 25 -3 19 4 25 0 29 -18
10 -49 12 -88 4 -83 -4 3 -8 0 -8 -6 0 -6 -10 -8 -24 -4 -24 6 -44 -10 -26
-21 5 -3 10 -3 10 2 0 4 11 8 25 8 18 0 24 -5 22 -15 -2 -8 -9 -14 -17 -12 -7
2 -17 -3 -21 -10 -7 -10 -9 -10 -9 0 0 22 -20 13 -21 -10 -1 -17 -3 -18 -6 -6
-2 9 -13 20 -23 23 -10 3 -24 13 -32 22 -12 16 -11 15 12 0 45 -31 47 -26 54
111 2 42 35 67 52 40z m26 -13 c4 -20 2 -23 -8 -14 -7 6 -10 17 -7 25 7 20 10
18 15 -11z m-155 -42 c-3 -10 -5 -2 -5 17 0 19 2 27 5 18 2 -10 2 -26 0 -35z
m290 25 c-3 -8 -6 -5 -6 6 -1 11 2 17 5 13 3 -3 4 -12 1 -19z m-230 -85 c-3
-10 -5 -2 -5 17 0 19 2 27 5 18 2 -10 2 -26 0 -35z m263 2 c0 -5 -5 -3 -10 5
-5 8 -10 20 -10 25 0 6 5 3 10 -5 5 -8 10 -19 10 -25z m-483 -8 c7 0 10 -4 7
-9 -3 -4 -15 -3 -27 3 -30 16 -37 24 -12 14 11 -4 25 -8 32 -8z m547 -58 c9 8
19 11 22 8 8 -8 -35 -29 -46 -22 -6 3 -15 16 -21 28 -9 19 -8 19 9 -3 17 -21
22 -22 36 -11z m-528 -45 c22 -6 32 -2 49 19 23 30 35 34 35 13 0 -7 11 -25
25 -40 30 -33 72 -35 85 -3 8 17 9 18 7 3 -6 -50 -74 -45 -109 8 l-22 34 -19
-24 c-10 -13 -25 -24 -32 -24 -27 0 -63 23 -74 47 -17 38 -13 41 9 6 11 -18
31 -35 46 -39z m419 -32 c17 -18 23 -31 15 -28 -8 4 -24 19 -35 35 l-19 29
-18 -28 c-9 -16 -25 -33 -35 -38 -19 -10 -56 -1 -67 17 -4 6 6 4 20 -4 34 -17
58 -6 80 36 9 17 19 27 22 23 4 -5 21 -24 37 -42z m112 -18 c-16 -14 -40 -24
-55 -23 -24 1 -23 2 8 9 19 5 42 17 50 28 8 11 17 18 20 15 3 -3 -8 -16 -23
-29z"/>
<path d="M4030 1842 c0 -4 4 -13 9 -20 7 -11 9 -11 14 1 3 9 -1 18 -9 21 -8 3
-14 2 -14 -2z"/>
<path d="M548 1602 c2 -26 7 -50 11 -54 3 -4 4 14 3 40 -2 26 -7 50 -11 54 -3
4 -4 -14 -3 -40z"/>
<path d="M1913 1507 c1 -25 6 -50 11 -54 4 -4 5 15 1 42 -7 64 -17 73 -12 12z"/>
<path d="M573 1455 c6 -25 14 -45 18 -45 7 0 -12 74 -22 85 -4 3 -2 -15 4 -40z"/>
<path d="M2386 1465 c-9 -26 -7 -32 5 -12 6 10 9 21 6 23 -2 3 -7 -2 -11 -11z"/>
<path d="M3172 1420 c0 -19 2 -27 5 -17 2 9 2 25 0 35 -3 9 -5 1 -5 -18z"/>
<path d="M1915 1345 c0 -52 3 -95 8 -95 4 0 7 43 7 95 0 52 -3 95 -7 95 -5 0
-8 -43 -8 -95z"/>
<path d="M596 1380 c7 -28 12 -35 18 -29 2 2 -2 15 -10 29 l-15 25 7 -25z"/>
<path d="M1660 4767 c0 -3 12 -12 26 -22 15 -9 23 -12 20 -6 -7 11 -46 35 -46
28z"/>
<path d="M1187 4732 c-25 -28 -21 -67 10 -91 30 -24 58 -20 86 12 21 24 16 64
-10 85 -24 18 -67 15 -86 -6z"/>
<path d="M4846 4728 c-31 -43 -13 -86 41 -102 27 -9 73 32 73 64 0 53 -84 81
-114 38z"/>
<path d="M1506 4723 c-4 -8 -1 -11 5 -7 6 3 5 -3 -2 -15 -10 -14 -15 -17 -21
-8 -5 8 -8 4 -8 -10 0 -12 -4 -25 -10 -28 -6 -3 -7 1 -4 10 4 9 -6 4 -22 -12
-16 -15 -28 -30 -27 -32 2 -3 9 1 15 7 7 7 17 12 22 12 6 0 -1 -8 -14 -17 -14
-10 -29 -17 -33 -15 -5 1 -6 -2 -2 -7 3 -6 13 -7 22 -4 12 5 14 3 8 -6 -6 -10
-2 -11 15 -6 15 5 20 4 16 -4 -5 -7 -1 -9 8 -5 10 4 16 1 16 -7 0 -7 3 -9 6
-6 4 3 15 -5 26 -18 12 -15 25 -22 35 -18 12 5 15 2 10 -10 -3 -9 1 -21 11
-29 16 -12 16 -11 2 7 -14 19 -14 19 2 6 10 -7 15 -17 13 -22 -3 -4 0 -17 7
-28 15 -24 6 -36 -19 -27 -10 4 -19 6 -20 4 -1 -2 -8 5 -15 15 -8 10 -21 19
-31 21 -16 2 -65 46 -52 46 3 0 -3 10 -15 22 -11 12 -20 25 -20 29 0 4 -12 6
-26 3 -19 -3 -24 -1 -18 8 6 10 3 9 -9 -1 -9 -7 -14 -17 -11 -22 8 -13 -6 -49
-19 -49 -8 0 -8 3 1 12 7 7 12 17 12 23 -1 10 -23 -23 -26 -37 -1 -5 -2 -11
-3 -15 -1 -5 -6 -1 -12 7 -8 11 -9 9 -3 -10 3 -14 3 -22 -1 -18 -5 4 -14 0
-22 -10 -9 -11 -12 -11 -7 -2 5 11 1 10 -12 -3 -16 -15 -17 -19 -4 -27 24 -16
35 -11 14 6 -18 14 -18 15 4 4 12 -6 22 -16 22 -21 0 -6 7 -8 16 -5 8 3 13 2
10 -3 -5 -7 28 -28 47 -29 17 0 67 -57 63 -69 -3 -7 0 -12 6 -10 6 1 13 -4 16
-12 2 -8 0 -11 -5 -8 -5 3 -10 0 -10 -7 0 -8 5 -12 11 -10 6 2 16 -4 23 -14 9
-15 8 -19 -2 -19 -8 0 -13 5 -12 10 1 5 -6 11 -16 12 -10 2 -26 10 -35 18 -29
24 -46 32 -37 16 4 -8 -5 0 -21 17 -16 17 -42 43 -59 59 -16 16 -23 25 -15 20
9 -5 12 -5 7 1 -5 5 -13 10 -18 10 -5 1 -10 2 -11 4 -2 1 -13 3 -25 4 -14 2
-19 -2 -16 -11 7 -19 -26 -66 -42 -59 -7 2 -16 -2 -19 -10 -3 -8 -1 -12 4 -9
6 3 7 -1 4 -10 -4 -9 -12 -14 -19 -11 -7 2 -21 -4 -31 -15 -18 -20 -20 -19 41
-23 79 -5 81 -6 65 -16 -12 -8 -10 -10 8 -10 13 0 21 4 18 9 -4 5 3 7 15 4 13
-4 17 -8 9 -13 -8 -5 -4 -9 9 -13 12 -3 19 -1 15 4 -7 12 1 11 39 -4 18 -8 38
-21 46 -30 7 -10 23 -17 34 -17 11 0 17 -3 14 -7 -12 -12 27 -32 44 -22 13 6
16 4 15 -9 -1 -12 5 -16 19 -14 30 5 39 19 44 74 1 4 7 5 14 2 7 -2 23 5 36
17 l24 22 -27 14 c-14 7 -26 16 -26 19 0 3 6 2 13 -1 6 -4 4 0 -7 9 -10 8 -16
22 -13 30 4 11 1 13 -10 9 -11 -4 -14 -2 -9 5 4 7 2 12 -5 12 -7 0 -10 2 -7 5
8 9 58 -17 52 -26 -7 -12 3 -11 29 3 19 10 20 9 9 -4 -10 -13 -10 -17 4 -22
22 -8 26 -8 19 4 -3 5 0 7 8 4 18 -7 32 13 32 46 0 19 5 24 19 22 11 -2 15 1
11 7 -3 7 0 8 9 5 9 -3 16 -1 16 6 0 6 4 9 9 6 5 -3 12 1 15 10 4 11 -1 18
-14 21 -11 3 -17 9 -14 14 3 5 1 9 -3 9 -5 0 -18 7 -29 16 -10 8 -12 13 -4 9
8 -4 3 5 -12 19 -16 14 -28 30 -28 35 0 5 -8 16 -19 23 -18 13 -21 18 -21 39
0 5 -4 7 -10 4 -6 -3 -7 1 -4 9 3 9 1 16 -5 16 -6 0 -10 3 -9 8 1 4 -5 21 -12
37 -7 17 -12 36 -11 44 1 8 -2 10 -10 5 -7 -4 -10 -3 -6 4 12 18 -3 40 -28 40
-13 0 -26 -7 -29 -15z m38 -69 c3 -8 2 -12 -4 -9 -6 3 -10 10 -10 16 0 14 7
11 14 -7z m-3 -111 c13 -16 12 -17 -3 -4 -17 13 -22 21 -14 21 2 0 10 -8 17
-17z m-190 -240 c13 -16 12 -17 -3 -4 -10 7 -18 15 -18 17 0 8 8 3 21 -13z
m-209 -45 c-7 -7 -12 -8 -12 -2 0 14 12 26 19 19 2 -3 -1 -11 -7 -17z"/>
<path d="M4716 4588 c-21 -29 -21 -48 -1 -22 15 17 15 16 1 -11 -8 -16 -22
-39 -31 -50 -9 -11 -13 -14 -9 -6 5 10 3 12 -5 7 -7 -5 -10 -15 -6 -24 3 -9 3
-13 -1 -10 -3 4 -26 -12 -50 -35 -66 -64 -76 -71 -96 -72 -14 -1 -17 3 -13 19
3 12 2 15 -1 8 -3 -6 -9 -10 -14 -7 -4 3 -14 -2 -21 -11 -15 -18 -22 -47 -9
-39 5 3 12 1 15 -5 4 -6 1 -9 -7 -8 -7 2 -14 -7 -16 -19 -4 -25 39 -60 59 -48
8 5 9 1 4 -14 -4 -12 -2 -21 4 -21 6 0 10 -3 9 -7 -2 -5 1 -9 5 -10 4 -1 14
-9 22 -17 16 -15 48 -11 63 8 5 6 12 24 16 40 7 29 7 30 -11 10 -10 -11 -14
-14 -9 -7 5 8 6 16 3 20 -4 3 1 12 11 20 11 10 12 12 2 8 -9 -4 -7 0 3 8 10 9
25 24 34 34 9 11 12 12 8 3 -3 -8 2 -5 11 8 9 12 21 22 27 22 5 0 16 8 24 18
9 10 11 11 7 2 -5 -10 1 -8 16 5 13 11 20 14 16 8 -5 -9 -2 -11 8 -7 9 3 13
11 10 16 -4 6 1 8 12 4 25 -7 47 7 49 33 1 11 -3 17 -8 14 -6 -4 -8 0 -4 10 3
9 -1 18 -9 21 -25 10 -27 7 -13 -11 13 -16 12 -17 -3 -4 -10 7 -15 17 -12 22
3 5 0 9 -5 9 -6 0 -11 9 -11 19 0 10 -7 22 -16 25 -10 4 -13 2 -8 -6 5 -7 3
-8 -5 -4 -7 5 -10 15 -7 23 4 9 2 11 -6 7 -8 -5 -9 -2 -5 10 5 11 3 15 -5 10
-8 -5 -9 -2 -5 9 9 24 1 21 -17 -5z m-226 -212 c0 -2 -8 -10 -17 -17 -16 -13
-17 -12 -4 4 13 16 21 21 21 13z"/>
<path d="M1027 4532 c-18 -19 -22 -59 -9 -78 27 -42 95 -35 112 11 10 27 -1
62 -24 77 -20 14 -63 8 -79 -10z"/>
<path d="M5010 4530 c-27 -27 -25 -56 4 -85 56 -56 136 17 90 83 -19 28 -67
29 -94 2z"/>
<path d="M1200 4350 c-6 -11 -8 -20 -6 -20 3 0 10 9 16 20 6 11 8 20 6 20 -3
0 -10 -9 -16 -20z"/>
<path d="M1410 4335 c13 -14 26 -25 28 -25 3 0 -5 11 -18 25 -13 14 -26 25
-28 25 -3 0 5 -11 18 -25z"/>
<path d="M890 4320 c-25 -22 -26 -71 -2 -93 60 -55 142 33 87 92 -20 21 -62
21 -85 1z"/>
<path d="M5173 4330 c-23 -10 -43 -39 -43 -64 0 -26 38 -56 69 -56 58 0 81 73
35 109 -30 23 -30 23 -61 11z"/>
<path d="M4897 4308 c4 -7 -2 -9 -15 -6 -12 4 -25 2 -28 -3 -3 -5 -11 -9 -17
-9 -7 0 -6 4 3 10 9 6 10 10 3 10 -6 0 -19 -7 -27 -16 -9 -8 -20 -13 -25 -9
-5 3 -13 0 -17 -6 -4 -8 -3 -9 4 -5 7 4 12 5 12 2 0 -3 -10 -10 -21 -17 -17
-9 -20 -8 -14 3 3 7 -3 1 -15 -14 -12 -16 -28 -28 -35 -28 -8 0 -17 -5 -21
-12 -5 -7 -3 -8 7 -3 8 5 2 -3 -13 -18 -16 -14 -28 -35 -28 -46 0 -11 -5 -23
-11 -27 -8 -4 -7 -9 2 -15 12 -8 12 -11 0 -18 -13 -8 -13 -12 0 -27 11 -15 12
-16 0 -9 -8 5 -4 -10 10 -35 13 -24 32 -45 42 -48 9 -2 17 -9 17 -14 0 -6 6
-8 13 -5 9 3 13 -7 14 -35 2 -55 10 -58 43 -21 16 17 31 29 34 26 3 -4 6 -1 6
6 0 7 5 9 10 6 6 -3 10 -2 10 3 0 5 7 9 15 9 12 0 12 -3 2 -16 -9 -12 -9 -13
1 -7 6 4 12 3 12 -1 0 -5 9 -9 20 -10 11 -1 18 2 15 6 -2 5 5 11 16 14 12 3
18 10 15 16 -4 5 -2 13 4 16 8 5 7 12 -2 23 -10 12 -10 14 0 8 7 -4 12 -1 12
9 0 9 -4 14 -8 11 -5 -3 -15 6 -22 19 -10 19 -19 24 -34 19 -12 -3 -16 -2 -10
3 13 10 11 60 -3 74 -8 8 -17 8 -32 0 -12 -7 -21 -8 -21 -4 -1 4 -7 -3 -14
-17 -8 -14 -12 -28 -10 -32 3 -5 0 -8 -6 -8 -6 0 -9 -4 -6 -8 8 -13 -42 -8
-55 5 -9 9 -9 16 1 28 7 8 17 15 23 15 5 0 16 8 24 18 9 10 12 11 7 2 -4 -8 5
-4 20 10 15 14 29 24 32 23 12 -8 24 -1 18 9 -5 8 -2 9 9 5 10 -3 17 -2 17 3
0 5 7 6 17 3 9 -4 14 -2 10 3 -3 5 3 10 13 10 10 0 16 -4 14 -8 -3 -4 -1 -8 3
-8 5 0 9 -9 9 -19 0 -11 -3 -18 -7 -15 -9 5 -18 -44 -12 -67 3 -10 9 -16 14
-13 5 3 9 1 9 -4 0 -5 7 -9 15 -9 8 0 15 5 15 10 0 6 3 7 7 4 3 -4 17 5 30 19
12 14 23 22 23 19 0 -3 9 -1 21 6 15 8 18 14 10 22 -6 6 -11 16 -11 22 0 5 5
3 10 -5 5 -8 10 -10 10 -4 0 6 -11 21 -24 33 -15 14 -23 32 -21 47 1 14 -4 28
-14 34 -9 5 -12 10 -7 10 5 0 3 6 -4 14 -6 8 -19 12 -27 9 -10 -4 -14 -2 -10
4 5 7 -6 14 -25 19 -54 13 -58 13 -51 2z m-226 -155 c-12 -20 -14 -14 -5 12 4
9 9 14 11 11 3 -2 0 -13 -6 -23z m380 10 c13 -17 13 -17 -6 -3 -11 8 -22 16
-24 17 -2 2 0 3 6 3 6 0 17 -8 24 -17z m-251 -217 c0 -2 -8 -10 -17 -17 -16
-13 -17 -12 -4 4 13 16 21 21 21 13z"/>
<path d="M1178 4233 c7 -3 16 -2 19 1 4 3 -2 6 -13 5 -11 0 -14 -3 -6 -6z"/>
<path d="M1340 4190 c8 -5 20 -10 25 -10 6 0 3 5 -5 10 -8 5 -19 10 -25 10 -5
0 -3 -5 5 -10z"/>
<path d="M790 4102 c-62 -23 -45 -122 21 -122 33 0 69 31 69 59 0 39 -54 77
-90 63z"/>
<path d="M1085 4102 c5 -9 0 -11 -19 -8 -15 3 -30 -2 -38 -12 -10 -12 -10 -14
0 -8 19 11 15 -29 -5 -51 -10 -10 -14 -12 -8 -3 7 12 7 13 -5 3 -8 -7 -15 -21
-17 -30 -8 -38 -9 -43 -18 -50 -4 -5 -4 -1 0 7 8 13 7 13 -8 1 -18 -15 -23
-26 -7 -16 6 3 10 2 10 -3 0 -5 9 -12 20 -15 11 -3 18 -2 15 2 -2 4 2 8 10 8
8 0 11 -5 8 -10 -4 -6 4 -7 21 -3 18 4 25 3 21 -4 -5 -9 26 -14 72 -13 7 1 11
-3 8 -7 -3 -4 2 -11 11 -14 10 -4 13 -2 9 7 -4 6 0 4 8 -5 8 -10 19 -18 24
-18 6 0 16 -7 23 -15 7 -8 17 -12 23 -8 5 3 7 1 3 -5 -3 -5 -1 -12 5 -14 9 -3
9 -9 1 -25 -9 -17 -9 -22 3 -27 8 -3 17 0 21 6 4 7 9 6 14 -3 7 -10 11 -10 24
0 9 8 16 10 16 5 0 -4 9 2 21 15 13 14 19 30 16 43 -4 14 3 28 21 45 15 14 26
29 25 34 -2 5 1 9 6 9 5 0 12 7 15 16 4 10 2 13 -7 8 -8 -5 -7 -2 2 9 7 9 10
17 6 17 -4 0 -1 8 6 17 12 14 12 15 1 9 -11 -7 -12 -4 -3 12 6 12 17 24 24 28
7 5 6 0 -3 -12 -14 -19 -14 -19 8 0 22 19 30 32 13 22 -5 -3 -12 1 -15 10 -5
14 -9 14 -23 3 -9 -8 -14 -9 -10 -3 4 7 -1 18 -10 25 -14 12 -16 12 -9 -1 6
-13 6 -13 -6 0 -12 14 -23 16 -52 12 -5 -1 -2 -10 5 -19 13 -17 13 -17 -7 0
-23 19 -39 23 -29 7 3 -5 3 -10 -2 -10 -4 0 -15 -4 -23 -10 -12 -7 -11 -12 5
-31 12 -14 14 -19 5 -14 -9 5 -12 5 -7 -1 5 -5 18 -9 30 -9 32 0 32 -29 1 -50
-26 -17 -28 -16 -66 4 -21 11 -36 15 -32 9 4 -6 -8 0 -27 13 -31 22 -46 37
-109 109 -12 14 -19 19 -15 12z"/>
<path d="M5275 4089 c-29 -23 -32 -54 -9 -87 19 -28 67 -29 94 -2 25 25 25 51
3 79 -25 30 -57 33 -88 10z"/>
<path d="M4730 4071 c0 -6 4 -13 10 -16 6 -3 7 1 4 9 -7 18 -14 21 -14 7z"/>
<path d="M1341 3984 c0 -11 3 -14 6 -6 3 7 2 16 -1 19 -3 4 -6 -2 -5 -13z"/>
<path d="M5155 3979 c4 -6 0 -9 -11 -7 -14 2 -18 -2 -16 -16 3 -13 -1 -17 -11
-13 -9 3 -25 -6 -38 -21 l-24 -27 28 24 c15 14 27 20 27 15 0 -13 -71 -60 -87
-56 -7 2 -13 -1 -13 -6 0 -6 -7 -13 -16 -16 -10 -4 -13 -2 -7 7 4 6 -5 4 -20
-6 -15 -10 -33 -15 -39 -11 -7 5 -8 3 -3 -6 6 -10 4 -12 -8 -7 -9 3 -19 2 -22
-3 -4 -6 -12 -10 -18 -10 -7 0 -6 4 3 10 10 6 11 10 3 10 -7 0 -12 5 -10 12 1
6 -7 13 -18 15 l-20 3 20 -10 c18 -9 17 -10 -7 -7 -15 2 -25 0 -22 -4 3 -5 -2
-9 -11 -9 -9 0 -14 -4 -10 -9 3 -5 0 -13 -6 -16 -5 -4 -8 -13 -5 -20 3 -8 0
-16 -7 -19 -9 -3 -8 -5 1 -5 7 -1 10 -5 7 -11 -3 -5 -1 -10 4 -10 6 0 11 -6
11 -14 0 -8 6 -17 13 -19 9 -4 8 -8 -3 -16 -12 -9 -13 -11 -1 -11 8 0 11 -3 8
-7 -9 -9 13 -34 24 -27 5 3 9 -2 9 -11 0 -10 5 -13 13 -9 6 4 3 -3 -8 -16 -12
-14 -14 -20 -5 -15 12 7 13 6 3 -6 -10 -12 -8 -18 12 -33 14 -10 22 -23 18
-30 -11 -17 -12 -36 -2 -36 5 0 8 -6 7 -12 -2 -7 3 -12 10 -10 6 1 12 -2 12
-6 0 -4 9 -8 19 -8 11 0 17 4 15 8 -3 4 1 8 8 8 7 0 22 16 32 35 11 19 21 33
24 30 3 -2 11 3 19 13 8 9 12 11 8 5 -4 -9 -1 -11 9 -7 9 3 16 10 16 14 0 5 9
7 20 5 11 -2 20 0 20 5 0 5 9 7 20 5 11 -2 20 0 20 6 0 5 5 9 11 9 5 0 8 -4 5
-8 -6 -10 25 -9 42 2 6 4 12 3 12 -1 0 -5 11 -9 24 -9 14 0 23 3 20 7 -2 4 3
9 11 13 14 5 4 34 -48 131 -9 18 -8 19 6 6 10 -7 17 -22 17 -32 0 -10 4 -20 9
-23 15 -10 -1 42 -20 63 -21 23 -26 46 -6 35 10 -6 10 -4 0 7 -7 7 -13 22 -13
34 0 16 -2 17 -10 5 -8 -12 -10 -9 -10 12 0 15 -7 31 -16 36 -9 5 -17 22 -17
38 -1 16 -6 32 -12 36 -6 5 -5 8 3 8 6 0 12 7 12 15 0 8 -5 15 -11 15 -5 0 -7
-5 -4 -11z m0 -199 c4 -6 11 -8 16 -5 5 4 9 1 9 -6 0 -8 5 -7 18 2 15 13 16
12 3 -3 -7 -10 -20 -18 -27 -18 -8 0 -14 -5 -14 -11 0 -5 -4 -7 -10 -4 -5 3
-10 2 -10 -4 0 -7 -28 -8 -37 -1 -2 2 -6 3 -10 4 -19 3 -33 19 -32 34 0 14 2
13 9 -3 7 -16 9 -17 9 -3 1 10 11 18 29 21 15 2 30 5 34 6 4 0 10 -4 13 -9z
m-172 -69 c4 -1 7 -4 8 -8 0 -5 5 -14 11 -20 8 -9 7 -13 -3 -13 -11 0 -11 -2
1 -10 11 -8 7 -9 -14 -4 -19 5 -27 3 -22 -4 3 -5 0 -9 -8 -8 -18 2 -48 27 -41
34 3 3 -1 12 -8 20 -7 10 -8 13 -1 9 7 -4 17 0 24 8 8 10 17 12 29 6 9 -5 19
-9 24 -10z"/>
<path d="M4924 3685 c1 -8 8 -21 16 -28 12 -10 12 -9 2 4 -6 9 -9 18 -6 21 3
3 1 9 -4 12 -6 3 -9 -1 -8 -9z"/>
<path d="M5177 3905 c3 -8 9 -12 14 -9 12 7 11 11 -5 17 -10 4 -13 1 -9 -8z"/>
<path d="M700 3863 c-41 -14 -54 -78 -22 -106 40 -37 103 -11 104 43 1 45 -41
77 -82 63z"/>
<path d="M5365 3846 c-30 -30 -32 -59 -5 -86 27 -27 75 -26 94 2 31 43 13 86
-41 102 -17 5 -29 1 -48 -18z"/>
<path d="M1020 3803 c0 -5 -11 -10 -26 -11 -35 -3 -64 -20 -64 -37 0 -14 -12
-19 -32 -16 -5 0 -8 -8 -8 -18 0 -10 -8 -22 -17 -25 -11 -5 -13 -10 -6 -17 6
-6 8 -24 3 -45 -4 -18 -4 -32 0 -29 4 3 11 -2 14 -11 4 -10 2 -13 -6 -8 -7 4
-2 -7 11 -24 12 -18 25 -32 28 -32 3 0 -1 8 -8 18 -11 14 -10 14 8 -2 13 -10
21 -22 18 -26 -2 -3 10 -14 28 -24 l32 -18 -25 22 -25 21 25 -12 c14 -7 30
-18 35 -25 6 -8 26 -16 45 -19 29 -4 31 -3 10 4 l-25 9 28 1 c15 1 27 -3 27
-9 0 -5 5 -10 11 -10 5 0 7 6 3 13 -5 9 -4 9 6 0 11 -10 17 -10 31 3 11 10 19
12 23 5 8 -12 56 6 56 21 0 4 6 7 13 5 6 -1 11 4 10 10 -2 7 3 12 10 10 7 -1
11 6 9 17 -2 10 1 15 7 12 11 -7 25 29 16 44 -3 5 -2 10 4 10 6 0 6 11 1 30
-5 17 -9 31 -9 33 0 13 -20 47 -40 67 -13 14 -20 18 -15 10 6 -11 3 -10 -7 2
-9 9 -19 14 -23 11 -3 -4 -6 -1 -6 6 0 7 -4 9 -10 6 -5 -3 -10 -1 -10 5 0 7
-8 9 -21 5 -13 -5 -19 -3 -15 3 8 14 -41 21 -55 8 -9 -8 -10 -8 -5 2 9 15 -10
16 -19 2 -5 -8 -11 -7 -21 1 -8 6 -14 7 -14 2z m-50 -33 c0 -5 -8 -10 -17 -10
-15 0 -16 2 -3 10 19 12 20 12 20 0z m132 -104 c9 0 14 -5 11 -10 -4 -5 1 -7
10 -3 10 4 17 2 17 -4 0 -6 7 -8 16 -5 8 3 12 2 9 -4 -3 -6 0 -10 7 -10 8 0
13 -11 12 -30 -2 -44 -2 -45 -22 -27 -10 10 -22 14 -25 10 -4 -3 -7 -1 -7 6 0
8 -7 10 -21 6 -16 -5 -19 -4 -14 6 6 9 3 11 -8 6 -10 -3 -17 -3 -17 2 0 5 -12
11 -28 14 -15 3 -37 14 -49 24 -19 17 -20 20 -5 29 11 7 30 8 57 1 22 -5 48
-10 57 -11z m129 -124 c-5 -10 -18 -25 -27 -33 -11 -9 -9 -2 6 19 26 35 36 42
21 14z"/>
<path d="M5277 3649 c4 -13 8 -18 11 -10 2 7 -1 18 -6 23 -8 8 -9 4 -5 -13z"/>
<path d="M623 3608 c-20 -9 -33 -35 -33 -65 0 -22 39 -53 65 -53 32 0 65 33
65 64 0 15 -11 33 -26 45 -30 23 -39 24 -71 9z"/>
<path d="M5445 3608 c-27 -15 -35 -28 -35 -59 0 -44 59 -76 96 -51 39 25 36
90 -5 111 -24 13 -31 13 -56 -1z"/>
<path d="M5281 3493 c-11 -7 -34 -11 -54 -9 -39 5 -74 -22 -63 -49 3 -9 2 -13
-4 -10 -6 3 -10 1 -10 -4 0 -6 4 -11 10 -11 5 0 7 -7 4 -14 -4 -11 0 -14 19
-10 14 2 28 0 32 -6 4 -6 -1 -7 -11 -3 -13 5 -15 3 -9 -8 6 -11 5 -11 -5 -2
-13 12 -43 7 -35 -7 2 -4 -16 -5 -40 -2 -33 3 -45 0 -45 -10 0 -10 -2 -11 -9
0 -4 7 -18 14 -29 15 -12 1 -22 7 -22 15 0 7 5 10 12 6 7 -4 8 -3 4 4 -4 7
-16 12 -27 12 -11 0 -18 -4 -15 -9 3 -5 -1 -12 -10 -15 -10 -4 -13 -2 -8 7 4
6 -2 3 -13 -8 -11 -11 -19 -23 -16 -27 2 -5 -1 -8 -7 -8 -14 0 -4 -59 13 -75
7 -7 7 -6 2 4 -6 10 -4 12 4 7 9 -6 8 -14 -4 -32 -10 -16 -12 -24 -4 -24 7 0
9 -3 6 -7 -4 -3 1 -12 11 -20 9 -8 11 -11 3 -7 -10 5 -12 3 -7 -5 5 -7 14 -10
22 -7 8 3 14 0 14 -7 0 -8 4 -6 10 3 5 8 10 11 10 6 0 -5 9 -1 20 9 11 10 20
25 20 34 0 16 11 19 63 21 9 1 16 4 13 8 -7 12 64 6 77 -7 8 -8 8 -11 -1 -11
-6 0 -9 -7 -5 -17 5 -12 3 -14 -8 -8 -11 7 -12 6 -2 -7 7 -8 11 -17 8 -20 -3
-3 2 -11 12 -19 14 -12 16 -12 8 0 -6 11 -5 12 6 5 19 -12 41 -15 59 -7 8 3
26 6 39 7 23 2 51 30 51 50 0 6 -4 5 -9 -3 -12 -19 -22 14 -17 57 3 18 1 30
-5 27 -9 -6 -11 1 -11 30 0 30 2 36 14 29 7 -4 8 -3 4 5 -4 6 -11 9 -16 6 -5
-3 -7 12 -5 33 2 21 -1 45 -6 53 -7 12 -9 12 -9 0 0 -8 -3 -12 -6 -8 -3 3 0
19 8 35 12 24 12 29 1 29 -7 0 -22 -6 -32 -14z m24 -3 c-3 -5 -12 -10 -18 -10
-7 0 -6 4 3 10 19 12 23 12 15 0z m-100 -19 c3 -5 2 -12 -3 -15 -5 -3 -9 1 -9
9 0 17 3 19 12 6z"/>
<path d="M845 3421 c6 -11 4 -13 -7 -8 -16 6 -38 -10 -38 -27 0 -5 7 -1 15 10
13 17 14 16 5 -16 -12 -44 -12 -42 3 -35 6 4 3 -1 -7 -9 -11 -9 -16 -16 -10
-16 5 0 4 -4 -3 -8 -7 -4 -14 -23 -18 -42 -3 -22 -2 -30 3 -22 7 11 10 9 15
-7 3 -14 1 -19 -6 -15 -7 4 2 -6 19 -22 16 -16 21 -22 10 -14 -19 14 -20 14
-7 -3 19 -24 62 -46 80 -39 8 2 11 0 7 -6 -4 -7 5 -9 26 -6 25 4 29 2 18 -5
-13 -9 -13 -11 2 -11 9 0 19 6 21 13 4 8 6 9 6 0 1 -7 11 -10 27 -7 19 3 24 1
18 -8 -4 -7 1 -6 12 3 10 9 28 19 39 21 11 3 29 9 40 13 13 4 12 1 -5 -9 -28
-17 -19 -22 11 -6 10 6 19 18 19 28 0 13 2 14 9 4 6 -10 14 -6 34 17 30 36 55
103 40 108 -6 2 -9 13 -6 23 3 12 0 20 -6 20 -7 0 -10 4 -7 8 3 5 7 20 10 35
3 19 0 26 -12 26 -45 3 -60 6 -56 13 9 14 -14 8 -30 -8 -9 -8 -16 -13 -16 -9
0 3 -11 -2 -25 -11 -14 -9 -22 -20 -19 -25 3 -5 1 -9 -4 -9 -14 0 -3 -37 14
-51 11 -9 21 -9 37 -2 22 10 23 9 22 -23 -2 -31 -15 -63 -15 -37 0 6 -21 10
-49 9 -27 -1 -47 3 -44 8 4 5 -5 6 -20 2 -15 -3 -29 -1 -32 5 -4 6 -13 8 -20
5 -7 -2 -21 4 -31 15 -16 18 -16 19 0 19 9 0 15 4 11 9 -3 5 0 13 6 17 8 4 9
3 5 -4 -10 -17 7 -15 30 4 10 8 12 12 4 8 -10 -5 -9 0 4 14 11 12 14 22 8 22
-7 0 -12 7 -12 16 0 10 -5 14 -16 10 -8 -3 -12 -2 -9 4 3 5 -4 8 -15 7 -11 -1
-20 -5 -20 -10 0 -5 -8 -3 -17 4 -14 12 -15 12 -9 0 5 -8 -3 -6 -20 5 -19 13
-25 14 -19 5z"/>
<path d="M566 3338 c-9 -12 -16 -32 -16 -44 0 -24 32 -57 61 -61 25 -4 69 39
69 67 0 53 -84 81 -114 38z"/>
<path d="M5466 3338 c-31 -43 -13 -86 41 -102 34 -11 77 36 68 72 -12 54 -80
72 -109 30z"/>
<path d="M575 3098 c-27 -15 -35 -28 -35 -60 0 -40 42 -70 80 -57 54 19 58 99
5 119 -31 12 -25 12 -50 -2z"/>
<path d="M5512 3102 c-31 -5 -55 -43 -46 -76 7 -29 50 -56 74 -48 80 26 55
138 -28 124z"/>
<path d="M572 2827 c-12 -13 -22 -33 -22 -45 0 -29 34 -62 65 -62 29 0 65 32
65 59 0 28 -35 66 -62 68 -15 2 -34 -7 -46 -20z"/>
<path d="M5472 2829 c-59 -54 18 -143 83 -95 22 16 25 71 3 92 -24 24 -62 26
-86 3z"/>
<path d="M606 2568 c-31 -43 -13 -86 41 -102 26 -8 73 31 73 61 0 35 -29 63
-65 63 -24 0 -39 -7 -49 -22z"/>
</g>
</svg>
