<?xml version="1.0" encoding="UTF-8"?>
<!DOCTYPE svg PUBLIC "-//W3C//DTD SVG 1.1//EN" "http://www.w3.org/Graphics/SVG/1.1/DTD/svg11.dtd">
<svg version="1.1" xmlns="http://www.w3.org/2000/svg" xmlns:xlink="http://www.w3.org/1999/xlink" x="0" y="0" width="395" height="230" viewBox="0, 0, 395, 230">
  <g id="Layer_1">
    <path d="M78.966,225.454 L80.512,225.454 L79.748,213.197 L77.729,213.197 L75.547,219.125 C75.001,220.671 74.565,222.017 74.256,223.254 L74.201,223.254 C73.892,221.981 73.474,220.635 72.965,219.125 L70.873,213.197 L68.855,213.197 L68,225.454 L69.509,225.454 L69.837,220.198 C69.946,218.362 70.037,216.307 70.073,214.779 L70.11,214.779 C70.455,216.234 70.946,217.816 71.528,219.544 L73.51,225.381 L74.71,225.381 L76.875,219.435 C77.493,217.743 78.002,216.216 78.42,214.779 L78.475,214.779 C78.457,216.307 78.566,218.362 78.657,220.071 z" fill="#0C3E75"/>
    <path d="M96.211,218.398 L91.446,218.398 L91.446,214.525 L96.484,214.525 L96.484,213.197 L89.864,213.197 L89.864,225.454 L96.757,225.454 L96.757,224.126 L91.446,224.126 L91.446,219.707 L96.211,219.707 z" fill="#0C3E75"/>
    <path d="M105.727,225.418 C106.528,225.509 107.473,225.563 108.601,225.563 C110.983,225.563 112.874,224.945 114.02,223.799 C115.166,222.672 115.784,221.035 115.784,219.035 C115.784,217.052 115.148,215.634 114.056,214.634 C112.983,213.633 111.365,213.106 109.092,213.106 C107.837,213.106 106.691,213.215 105.727,213.361 z M107.31,214.525 C107.728,214.434 108.346,214.361 109.165,214.361 C112.511,214.361 114.147,216.198 114.129,219.089 C114.129,222.399 112.292,224.29 108.91,224.29 C108.292,224.29 107.71,224.272 107.31,224.199 z" fill="#0C3E75"/>
    <path d="M124.755,213.197 L124.755,225.454 L126.337,225.454 L126.337,213.197 z" fill="#0C3E75"/>
    <path d="M144.255,223.799 C143.619,224.108 142.637,224.308 141.673,224.308 C138.69,224.308 136.963,222.381 136.963,219.38 C136.963,216.161 138.872,214.325 141.745,214.325 C142.764,214.325 143.619,214.543 144.219,214.834 L144.601,213.543 C144.182,213.324 143.219,212.997 141.691,212.997 C137.89,212.997 135.29,215.598 135.29,219.435 C135.29,223.454 137.89,225.636 141.345,225.636 C142.837,225.636 144,225.345 144.582,225.054 z" fill="#0C3E75"/>
    <path d="M159.809,221.599 L161.118,225.454 L162.81,225.454 L158.627,213.197 L156.718,213.197 L152.553,225.454 L154.19,225.454 L155.463,221.599 z M155.79,220.362 L156.99,216.816 C157.227,216.07 157.427,215.325 157.609,214.597 L157.645,214.597 C157.827,215.307 158.009,216.034 158.281,216.834 L159.482,220.362 z" fill="#0C3E75"/>
    <path d="M171.526,225.454 L178.345,225.454 L178.345,224.126 L173.108,224.126 L173.108,213.197 L171.526,213.197 z" fill="#0C3E75"/>
    <path d="M197.173,224.854 C197.827,225.29 199.119,225.636 200.301,225.636 C203.192,225.636 204.592,223.999 204.592,222.108 C204.592,220.308 203.538,219.307 201.465,218.507 C199.773,217.853 199.028,217.289 199.028,216.143 C199.028,215.307 199.664,214.306 201.337,214.306 C202.447,214.306 203.265,214.67 203.665,214.888 L204.101,213.597 C203.556,213.288 202.647,212.997 201.392,212.997 C199.009,212.997 197.427,214.415 197.427,216.325 C197.427,218.053 198.664,219.089 200.664,219.798 C202.319,220.435 202.974,221.09 202.974,222.235 C202.974,223.472 202.028,224.327 200.41,224.327 C199.319,224.327 198.282,223.963 197.573,223.526 z" fill="#0C3E75"/>
    <path d="M216,225.454 L217.6,225.454 L217.6,214.543 L221.347,214.543 L221.347,213.197 L212.272,213.197 L212.272,214.543 L216,214.543 z" fill="#0C3E75"/>
    <path d="M234.586,221.599 L235.895,225.454 L237.586,225.454 L233.404,213.197 L231.494,213.197 L227.33,225.454 L228.966,225.454 L230.239,221.599 z M230.567,220.362 L231.767,216.816 C232.003,216.07 232.203,215.325 232.385,214.597 L232.422,214.597 C232.603,215.307 232.785,216.034 233.058,216.834 L234.258,220.362 z" fill="#0C3E75"/>
    <path d="M246.302,225.454 L247.885,225.454 L247.885,219.907 L252.522,219.907 L252.522,218.598 L247.885,218.598 L247.885,214.525 L252.904,214.525 L252.904,213.197 L246.302,213.197 z" fill="#0C3E75"/>
    <path d="M262.075,225.454 L263.657,225.454 L263.657,219.907 L268.294,219.907 L268.294,218.598 L263.657,218.598 L263.657,214.525 L268.676,214.525 L268.676,213.197 L262.075,213.197 z" fill="#0C3E75"/>
    <path d="M277.847,213.197 L277.847,225.454 L279.429,225.454 L279.429,213.197 z" fill="#0C3E75"/>
    <path d="M290.6,225.454 L290.6,220.217 C290.6,218.18 290.564,216.707 290.473,215.161 L290.528,215.143 C291.146,216.47 291.964,217.871 292.819,219.235 L296.711,225.454 L298.311,225.454 L298.311,213.197 L296.82,213.197 L296.82,218.325 C296.82,220.235 296.856,221.726 297.002,223.363 L296.965,223.381 C296.383,222.126 295.674,220.835 294.765,219.398 L290.837,213.197 L289.109,213.197 L289.109,225.454 z" fill="#0C3E75"/>
    <path d="M317.32,219.016 L313.283,219.016 L313.283,220.289 L315.774,220.289 L315.774,223.945 C315.411,224.126 314.701,224.272 313.665,224.272 C310.81,224.272 308.937,222.435 308.937,219.326 C308.937,216.252 310.882,214.397 313.865,214.397 C315.101,214.397 315.92,214.634 316.574,214.925 L316.956,213.633 C316.429,213.379 315.32,213.07 313.901,213.07 C309.791,213.07 307.282,215.743 307.264,219.398 C307.264,221.308 307.918,222.944 308.973,223.963 C310.173,225.108 311.701,225.581 313.556,225.581 C315.211,225.581 316.611,225.163 317.32,224.908 z" fill="#0C3E75"/>
    <path d="M228.178,92.629 L219.721,140.587 L256.875,140.081 L228.528,92.629 L228.178,92.629" fill="#D8232A"/>
    <path d="M332.486,41.05 L329.376,38.856 L326.846,38.05 L322.291,32.511 L322.249,29.431 L318.861,27.236 L317.721,25.798 L262.255,80.352 L300.426,139.317 L336.048,138.168 L332.486,41.05" fill="#D8232A"/>
    <path d="M283.29,17.753 L316.975,17.753 L318.146,16.046 L319.23,13.233 L322.312,13.471 L322.583,12.626 L321.978,9.553 L319.977,6.501 L317.726,5.692 L314.953,7.688 L306.751,1.641 L248.807,2.99 L244.013,3.025 L231.765,72.287 L232.116,72.287 L283.29,17.753" fill="#D8232A"/>
    <path d="M172.773,60.543 L163.215,96.845 C171.637,94.857 179.947,90.238 186.366,83.903 L179.101,125.109 C167.085,128.617 158.379,131.247 147.683,131.247 C129.272,131.247 112.974,124.234 101.492,111.784 C90.968,100.471 86.813,86.175 88.06,69.898 L72.724,69.898 L70.319,138.138 L127.744,139.876 L185.389,140.48 L197.966,69.898 L174.42,69.898 L172.773,60.543" fill="#0C3E75"/>
    <path d="M149.545,29.091 C136.774,35.019 127.4,47.389 124.827,61.984 C124.675,62.841 124.56,63.684 124.46,64.521 L142.569,63.971 L149.545,29.091" fill="#0C3E75"/>
    <path d="M204.289,3.313 L200.585,3.266 L194.127,39.89 C188.783,30.422 178.282,25.336 166.534,25.336 C162.734,25.336 159.067,25.87 155.584,26.853 L160.096,86.422 L172.173,36.27 L178.396,63.971 L198.322,67.896 L209.837,3.273 L204.289,3.313" fill="#0C3E75"/>
    <path d="M154.259,97.93 C154.513,97.93 154.768,97.924 155.022,97.919 L151.396,50.058 L147.428,69.898 L124.168,69.898 C124.408,86.555 135.683,97.93 154.259,97.93" fill="#0C3E75"/>
    <path d="M89.086,61.808 C92.271,43.748 102.17,26.388 117.084,13.412 C121.948,9.183 127.301,5.485 132.938,2.405 L119.153,2.23 L75.167,0.587 L72.858,66.09 L88.502,65.615 C88.667,64.356 88.86,63.089 89.086,61.808" fill="#0C3E75"/>
    <path d="M4.325,164.508 C1.52,167.392 -0,171.249 -0,175.261 C-0,179.624 1.48,183.442 4.714,186.364 C7.752,189.13 11.648,190.689 15.739,190.689 C18.115,190.689 19.947,190.104 22.479,189.324 L22.479,180.17 C20.881,182.079 18.387,183.286 15.894,183.286 C11.142,183.286 7.947,179.936 7.947,175.3 C7.947,170.743 11.103,167.157 15.778,167.157 C18.387,167.157 20.92,168.289 22.479,170.391 L22.479,161.236 C20.219,160.301 17.959,159.756 15.505,159.756 C11.375,159.756 7.208,161.548 4.325,164.508" fill="#0C3E75"/>
    <path d="M36.775,178.963 L39.93,169.612 L40.008,169.612 L43.125,178.963 L36.775,178.963 z M35.839,160.535 L24.541,189.909 L32.645,189.909 L34.67,184.806 L45.189,184.806 L47.099,189.909 L55.24,189.909 L44.176,160.535 L35.839,160.535" fill="#0C3E75"/>
    <path d="M65.991,173.703 L65.251,173.703 L65.251,166.379 L65.991,166.379 C68.485,166.379 71.29,166.845 71.29,170.041 C71.29,173.235 68.485,173.703 65.991,173.703 z M79.237,169.573 C79.237,163.301 74.835,160.535 69.031,160.535 L57.616,160.535 L57.616,189.909 L65.251,189.909 L65.251,178.611 L65.33,178.611 L72.536,189.909 L82.043,189.909 L72.809,177.871 C76.977,177.131 79.237,173.625 79.237,169.573" fill="#0C3E75"/>
    <path d="M84.105,160.535 L91.741,160.535 L91.741,189.909 L84.105,189.909 z" fill="#0C3E75"/>
    <path d="M118.426,178.495 L118.349,178.495 L104.363,160.535 L96.727,160.535 L96.727,189.909 L104.363,189.909 L104.363,171.911 L104.441,171.911 L118.426,189.909 L126.062,189.909 L126.062,160.535 L118.426,160.535 L118.426,178.495" fill="#0C3E75"/>
    <path d="M145.189,179.508 L151.423,179.508 C151.111,182.896 148.579,184.611 145.268,184.611 C140.242,184.611 137.515,179.974 137.515,175.417 C137.515,170.937 140.125,166.146 145.15,166.146 C148.228,166.146 150.449,168.015 151.501,170.819 L158.747,167.78 C156.214,162.287 151.54,159.561 145.501,159.561 C136.034,159.561 129.568,165.833 129.568,175.377 C129.568,184.611 135.996,190.883 145.228,190.883 C150.138,190.883 154.461,189.13 157.344,185.117 C159.955,181.456 160.266,177.793 160.344,173.508 L145.189,173.508 L145.189,179.508" fill="#0C3E75"/>
    <path d="M183.81,175.476 C183.945,175.255 184.014,175.015 184.014,174.755 C184.014,174.495 183.991,174.327 183.945,174.249 C183.9,174.171 183.807,174.132 183.663,174.132 L179.352,174.132 C179.467,173.6 179.63,172.848 179.837,171.873 C180.447,169.081 180.94,167.25 181.316,166.38 C181.692,165.51 182.153,164.886 182.698,164.509 C183.242,164.133 183.943,163.945 184.799,163.945 C185.253,163.945 185.811,164.173 186.473,164.628 C187.121,165.082 187.665,165.308 188.106,165.308 C188.678,165.308 189.16,165.108 189.556,164.704 C189.951,164.302 190.149,163.828 190.149,163.283 C190.149,161.984 189.156,161.335 187.17,161.335 C185.585,161.335 184.035,161.887 182.516,162.99 C180.997,164.095 179.637,165.636 178.436,167.617 C177.234,169.598 176.433,171.575 176.031,173.548 C175.978,174.042 174.614,174.443 171.938,174.755 C171.651,174.859 171.509,175.015 171.509,175.223 C171.509,175.561 171.626,175.73 171.859,175.73 L174.976,175.73 C175.236,175.73 175.366,175.84 175.366,176.061 L175.366,176.197 L171.664,193.533 C171.223,195.637 170.778,197.006 170.331,197.642 C169.882,198.279 169.25,198.597 168.431,198.597 C167.964,198.597 167.399,198.304 166.737,197.721 C166.074,197.136 165.51,196.845 165.042,196.845 C163.925,196.845 163.367,197.403 163.367,198.519 C163.367,199.13 163.695,199.665 164.352,200.125 C165.008,200.587 165.798,200.817 166.721,200.817 C167.853,200.817 169.033,200.324 170.261,199.337 C171.49,198.351 172.576,196.988 173.518,195.256 C174.46,193.523 175.211,191.481 175.77,189.13 L178.991,175.73 L183.391,175.808 C183.534,175.808 183.672,175.697 183.81,175.476" fill="#0C3E75"/>
    <path d="M193.363,182.177 C192.675,184.23 191.792,185.965 190.714,187.388 C189.636,188.809 188.669,189.52 187.812,189.52 C187.24,189.52 186.844,189.364 186.623,189.052 C186.403,188.742 186.292,188.156 186.292,187.3 C186.292,185.417 186.637,183.452 187.325,181.407 C188.012,179.362 188.899,177.625 189.983,176.197 C191.067,174.769 192.045,174.054 192.915,174.054 C193.473,174.054 193.86,174.208 194.074,174.513 C194.288,174.818 194.395,175.391 194.395,176.236 C194.395,178.145 194.051,180.125 193.363,182.177 z M192.915,172.769 C191.409,172.769 189.886,173.37 188.348,174.569 C186.809,175.772 185.555,177.314 184.588,179.197 C183.62,181.079 183.137,182.948 183.137,184.806 C183.137,186.507 183.591,187.926 184.5,189.062 C185.409,190.197 186.5,190.766 187.772,190.766 C189.279,190.766 190.805,190.172 192.35,188.984 C193.895,187.797 195.155,186.26 196.129,184.378 C197.103,182.495 197.59,180.624 197.59,178.768 C197.59,177.054 197.129,175.626 196.207,174.483 C195.285,173.339 194.188,172.769 192.915,172.769" fill="#0C3E75"/>
    <path d="M212.431,172.769 C210.562,172.769 208.392,174.977 205.925,179.391 L206.661,177.287 C207.077,176.093 207.285,175.172 207.285,174.522 C207.285,173.354 206.609,172.769 205.259,172.769 C204.676,172.769 203.985,173.051 203.187,173.616 C202.389,174.181 201.561,174.96 200.706,175.954 C199.85,176.946 199.42,177.534 199.42,177.716 C199.42,177.859 199.485,178.005 199.615,178.155 C199.745,178.303 199.9,178.378 200.084,178.378 C200.186,178.378 200.498,178.041 201.017,177.365 C202.082,175.963 202.822,175.261 203.238,175.261 C203.498,175.261 203.627,175.418 203.627,175.73 C203.627,175.99 203.458,176.626 203.122,177.639 L199.031,189.637 L199.012,189.734 C199.012,189.891 199.151,190.024 199.431,190.133 C199.708,190.243 200.018,190.299 200.355,190.299 C201.342,190.299 201.926,190.078 202.107,189.637 C203.804,185.662 205.455,182.359 207.06,179.723 C208.666,177.087 209.87,175.768 210.675,175.768 C211.001,175.768 211.345,175.969 211.708,176.373 C212.137,176.853 212.585,177.092 213.054,177.092 C213.574,177.092 214.015,176.899 214.379,176.508 C214.744,176.119 214.924,175.6 214.924,174.949 C214.924,174.289 214.691,173.758 214.224,173.363 C213.757,172.967 213.159,172.769 212.431,172.769" fill="#0C3E75"/>
    <path d="M264.51,178.963 L267.667,169.612 L267.745,169.612 L270.86,178.963 L264.51,178.963 z M263.575,160.535 L252.464,189.424 L240.125,174.443 L251.812,160.535 L242.346,160.535 L233.112,172.651 L233.034,172.651 L233.034,160.535 L225.398,160.535 L225.398,189.909 L233.034,189.909 L233.034,177.171 L233.112,177.171 L242.968,189.909 L260.382,189.909 L262.407,184.806 L272.925,184.806 L274.835,189.909 L282.976,189.909 L271.914,160.535 L263.575,160.535" fill="#0C3E75"/>
    <path d="M307.051,178.495 L306.972,178.495 L292.988,160.535 L285.352,160.535 L285.352,189.909 L292.988,189.909 L292.988,171.911 L293.064,171.911 L307.051,189.909 L314.687,189.909 L314.687,160.535 L307.051,160.535 L307.051,178.495" fill="#0C3E75"/>
    <path d="M332.801,171.989 L330.853,171.404 C329.529,170.976 327.463,170.314 327.463,168.6 C327.463,166.963 329.334,166.146 330.736,166.146 C332.606,166.146 334.398,166.924 335.801,168.092 L338.839,162.172 C336.229,160.691 332.606,159.756 329.645,159.756 C323.762,159.756 319.515,163.651 319.515,169.612 C319.515,175.3 322.671,176.547 327.463,177.911 C329.1,178.378 332.099,179.118 332.099,181.261 C332.099,183.325 330.19,184.221 328.399,184.221 C325.788,184.221 323.528,182.858 321.62,181.182 L318.348,187.338 C321.346,189.442 324.969,190.689 328.67,190.689 C331.631,190.689 334.708,189.871 337.008,187.923 C339.345,185.936 340.046,182.936 340.046,180.014 C340.046,175.261 336.891,173.196 332.801,171.989" fill="#0C3E75"/>
    <path d="M353.253,178.963 L356.408,169.612 L356.486,169.612 L359.603,178.963 L353.253,178.963 z M352.318,160.535 L341.02,189.909 L349.123,189.909 L351.148,184.806 L361.668,184.806 L363.577,189.909 L371.719,189.909 L360.654,160.535 L352.318,160.535" fill="#0C3E75"/>
    <path d="M387.223,171.989 L385.274,171.404 C383.951,170.976 381.885,170.314 381.885,168.6 C381.885,166.963 383.755,166.146 385.157,166.146 C387.027,166.146 388.82,166.924 390.222,168.092 L393.262,162.172 C390.651,160.691 387.027,159.756 384.067,159.756 C378.185,159.756 373.938,163.651 373.938,169.612 C373.938,175.3 377.094,176.547 381.885,177.911 C383.522,178.378 386.52,179.118 386.52,181.261 C386.52,183.325 384.613,184.221 382.82,184.221 C380.21,184.221 377.95,182.858 376.042,181.182 L372.768,187.338 C375.769,189.442 379.391,190.689 383.093,190.689 C386.054,190.689 389.131,189.871 391.431,187.923 C393.768,185.936 394.469,182.936 394.469,180.014 C394.469,175.261 391.313,173.196 387.223,171.989" fill="#0C3E75"/>
  </g>
</svg>
