<?xml version="1.0" encoding="UTF-8" standalone="no"?>
<!DOCTYPE svg PUBLIC "-//W3C//DTD SVG 1.1//EN" "http://www.w3.org/Graphics/SVG/1.1/DTD/svg11.dtd">
<svg xmlns="http://www.w3.org/2000/svg" version="1.1" viewBox="0.00 0.00 1442.00 1076.00">
<g stroke-width="2.00" fill="none" stroke-linecap="butt">
<path stroke="#808080" vector-effect="non-scaling-stroke" d="
  M 0.00 350.61
  C 1.23 359.98 2.41 370.31 4.33 378.71
  Q 12.66 415.11 35.48 443.12
  Q 57.17 469.76 87.54 487.50
  Q 160.64 530.20 253.97 583.62
  C 271.58 593.70 288.39 604.34 305.11 616.24
  Q 305.66 616.63 305.11 617.02
  C 288.01 629.15 269.77 637.42 248.32 632.71
  Q 237.40 630.32 226.92 624.71
  Q 212.56 617.02 204.97 612.69
  C 174.67 595.38 152.73 582.79 129.99 570.80
  Q 121.26 566.20 105.88 557.60
  Q 105.39 557.32 105.12 557.82
  Q 103.45 560.90 103.18 565.72
  Q 102.56 576.89 103.26 583.72
  Q 105.61 606.50 124.09 619.40
  Q 125.92 620.67 128.78 622.46
  C 156.88 640.00 188.30 657.70 220.04 672.84
  C 234.13 679.56 247.94 683.62 263.76 682.55
  C 291.06 680.69 316.14 668.76 341.29 654.78
  Q 369.52 639.07 411.15 614.87
  Q 506.86 559.23 510.54 557.10
  Q 524.62 548.95 528.41 546.92
  Q 537.67 541.98 544.33 539.86
  Q 555.72 536.25 568.78 536.68
  C 584.75 537.21 599.35 545.49 611.09 555.97
  A 0.63 0.63 0.0 0 1 610.98 556.98
  L 391.07 683.95
  A 1.00 1.00 0.0 0 0 391.03 685.66
  C 409.83 697.83 433.46 704.91 455.13 696.62
  Q 462.61 693.76 471.74 688.73
  Q 570.48 634.26 664.98 577.73
  Q 673.97 572.35 677.30 562.15
  C 679.18 556.38 680.07 549.16 677.32 543.98
  Q 671.49 532.97 661.23 524.59
  C 648.60 514.27 634.59 506.91 619.16 501.28
  Q 597.02 493.21 577.08 491.90
  Q 556.05 490.52 542.00 492.11
  Q 525.74 493.94 511.24 502.25
  Q 435.00 545.95 413.70 558.73
  Q 396.69 568.94 379.64 579.14
  C 372.32 583.52 363.59 586.84 355.31 585.70
  C 348.48 584.77 342.85 582.10 336.92 578.53
  Q 307.15 560.60 278.82 544.26
  Q 223.99 512.64 182.95 488.36
  Q 176.92 484.80 171.40 481.17
  C 161.98 474.98 155.25 465.70 152.79 454.80
  Q 151.91 450.93 151.91 441.13
  Q 151.90 289.96 151.91 251.75
  C 151.92 243.18 153.20 234.57 158.51 227.65
  Q 160.78 224.69 166.98 221.00
  C 174.08 216.78 182.86 211.92 189.23 208.18
  Q 258.33 167.64 285.92 151.93
  Q 318.53 133.36 345.11 119.12
  Q 382.57 99.05 399.97 91.20
  C 417.01 83.51 434.96 80.19 453.00 79.01
  Q 461.08 78.48 472.99 79.62
  Q 486.46 80.91 493.87 82.22
  C 531.15 88.85 568.04 105.86 595.72 132.06
  Q 603.57 139.48 609.51 148.01
  A 0.17 0.17 0.0 0 1 609.48 148.23
  C 586.48 168.28 558.08 168.62 532.10 154.16
  C 520.48 147.69 506.24 137.97 492.08 132.46
  Q 482.67 128.80 472.26 127.62
  C 468.30 127.17 464.82 127.47 461.17 127.28
  C 445.63 126.50 430.21 132.46 417.01 139.55
  A 0.66 0.65 46.1 0 0 416.99 140.69
  Q 488.05 183.10 488.15 183.16
  Q 511.72 196.58 530.88 203.42
  Q 546.86 209.12 565.58 210.35
  Q 567.61 210.48 570.48 210.35
  C 574.27 210.17 579.02 210.53 582.67 210.23
  Q 604.09 208.42 623.31 198.78
  Q 651.76 184.52 674.46 162.20
  C 681.02 155.76 687.12 146.51 683.28 137.02
  C 681.28 132.08 676.88 128.29 672.59 125.07
  Q 666.01 120.14 658.00 115.38
  Q 626.49 96.67 595.66 79.10
  C 582.90 71.83 573.26 65.95 558.33 57.00
  Q 537.23 44.36 515.89 37.20
  Q 499.16 31.59 485.15 29.70
  Q 467.56 27.32 448.73 28.43
  C 427.52 29.67 405.57 35.34 386.04 44.47
  Q 371.19 51.41 367.34 53.56
  Q 268.97 108.42 223.72 134.02
  C 210.97 141.24 198.06 148.30 184.66 155.86
  C 175.98 160.75 166.92 165.20 157.15 170.18
  Q 156.25 170.63 154.33 170.69
  Q 153.81 170.71 153.67 170.21
  Q 153.51 169.59 153.87 165.81
  C 156.31 140.22 165.59 114.20 187.34 98.29
  Q 194.07 93.35 197.11 91.62
  Q 248.46 62.33 327.41 16.17
  A 1.59 1.59 0.0 0 0 327.43 13.43
  Q 310.79 3.36 292.04 0.72
  C 277.15 -1.38 260.75 3.09 247.31 9.29
  Q 236.07 14.47 218.66 25.33
  Q 205.07 33.80 201.61 35.75
  Q 197.27 38.18 177.68 48.42
  Q 162.05 56.59 147.35 70.08
  C 125.88 89.80 112.58 117.65 107.76 146.77
  Q 104.98 163.62 104.97 173.50
  Q 104.95 224.47 104.98 391.00
  Q 104.99 402.57 104.38 410.98
  Q 103.03 429.56 102.07 435.11
  Q 101.66 437.43 101.03 438.92
  A 0.49 0.49 0.0 0 1 100.25 439.09
  Q 90.66 430.18 83.47 421.44
  Q 63.47 397.14 57.33 364.79
  Q 54.94 352.21 54.44 341.28
  C 54.01 332.06 53.14 319.70 53.10 308.90
  Q 53.00 272.28 52.32 260.50
  Q 51.40 244.62 50.33 239.24
  Q 49.00 232.62 48.62 228.66
  Q 48.30 225.38 46.86 228.34
  Q 45.85 230.45 44.85 231.87
  Q 44.18 232.84 24.79 257.80
  Q 14.68 270.81 10.14 284.43
  Q 2.05 308.72 0.00 337.26"
/>
<path stroke="#808080" vector-effect="non-scaling-stroke" d="
  M 938.43 293.85
  C 943.38 295.68 945.07 301.56 945.51 306.55
  Q 946.45 317.26 946.40 327.81
  Q 946.40 328.47 947.06 328.47
  L 970.70 328.47
  Q 971.16 328.47 971.17 328.01
  C 971.57 316.55 971.56 307.04 969.17 296.18
  C 965.97 281.66 955.26 270.56 940.23 268.57
  C 929.91 267.20 917.67 267.60 908.95 272.56
  C 900.21 277.54 895.12 284.41 892.42 294.24
  Q 890.45 301.40 890.47 307.26
  Q 890.63 361.42 890.41 402.29
  C 890.33 418.53 893.53 433.55 908.22 442.00
  Q 915.04 445.93 923.85 446.68
  Q 933.74 447.52 940.41 446.38
  C 963.26 442.49 971.11 423.47 971.25 402.25
  Q 971.32 391.06 971.13 381.21
  A 0.83 0.82 -0.7 0 0 970.30 380.41
  L 947.76 380.41
  A 1.49 1.49 0.0 0 0 946.27 381.93
  Q 946.56 398.97 945.49 408.80
  Q 944.90 414.16 942.98 417.25
  C 940.05 421.96 933.30 423.10 928.20 422.12
  C 918.61 420.27 916.65 411.83 916.69 403.50
  Q 916.91 351.72 916.67 313.83
  Q 916.62 306.90 917.62 303.35
  C 920.66 292.57 928.71 290.25 938.43 293.85"
/>
<path stroke="#808080" vector-effect="non-scaling-stroke" d="
  M 381.69 420.23
  C 377.49 417.82 376.67 411.23 376.69 407.00
  Q 376.89 364.91 376.69 309.50
  C 376.67 302.58 377.39 295.90 384.05 293.61
  C 388.71 292.01 395.38 291.66 399.21 294.87
  Q 404.64 299.41 404.93 307.21
  Q 405.17 313.71 404.96 327.91
  A 0.56 0.56 0.0 0 0 405.52 328.48
  L 429.19 328.48
  A 0.65 0.65 0.0 0 0 429.84 327.84
  Q 430.00 314.26 429.52 304.58
  C 428.85 291.09 423.43 278.98 411.61 272.61
  C 402.33 267.62 390.72 267.19 380.28 268.66
  C 368.88 270.25 358.64 276.99 354.00 287.72
  Q 350.53 295.72 349.80 304.02
  C 349.36 308.90 348.80 316.27 348.80 323.01
  Q 348.81 380.05 348.79 397.08
  C 348.79 401.52 349.41 406.12 349.56 409.75
  C 349.75 414.27 351.90 422.87 353.44 426.30
  Q 361.11 443.37 379.80 446.20
  C 389.98 447.74 400.26 447.52 409.90 443.12
  C 423.36 436.99 429.16 423.68 429.52 409.76
  Q 429.92 394.78 429.81 381.70
  A 1.28 1.28 0.0 0 0 428.53 380.43
  L 405.99 380.43
  Q 405.03 380.43 405.03 381.39
  Q 404.97 404.54 404.97 406.25
  C 404.96 413.36 402.68 419.21 395.56 421.54
  Q 388.19 423.96 381.69 420.23"
/>
<path stroke="#808080" vector-effect="non-scaling-stroke" d="
  M 482.47 413.12
  Q 483.20 412.94 484.25 412.93
  Q 510.69 412.84 512.36 412.79
  Q 515.99 412.68 516.58 416.37
  Q 518.79 430.01 519.72 438.50
  Q 520.07 441.72 521.33 443.90
  Q 521.85 444.80 522.89 444.80
  L 546.86 444.80
  Q 547.38 444.80 547.39 444.29
  C 547.52 439.00 545.60 432.83 544.93 428.10
  Q 543.74 419.67 543.72 419.56
  Q 535.18 366.18 528.51 323.49
  C 525.98 307.28 522.65 289.91 520.79 272.58
  A 2.63 2.62 -3.0 0 0 518.18 270.24
  L 480.97 270.24
  Q 480.40 270.24 480.31 270.81
  Q 475.70 301.38 457.17 416.60
  Q 456.25 422.33 453.33 443.66
  Q 453.19 444.74 454.27 444.74
  L 477.13 444.74
  Q 477.52 444.74 477.57 444.36
  L 481.81 413.86
  A 0.89 0.89 0.0 0 1 482.47 413.12"
/>
<path stroke="#808080" vector-effect="non-scaling-stroke" d="
  M 600.33 373.67
  C 609.67 373.04 619.90 371.81 625.45 381.30
  C 628.24 386.06 628.19 395.29 628.07 400.77
  Q 627.75 415.23 628.22 431.30
  Q 628.43 438.31 630.17 444.20
  Q 630.34 444.79 630.95 444.79
  L 657.10 444.79
  A 0.64 0.61 -71.1 0 0 657.60 444.53
  Q 658.11 443.82 656.96 443.21
  A 1.06 1.05 -78.5 0 1 656.41 442.37
  C 656.00 436.77 654.27 430.72 654.23 424.50
  Q 654.16 409.90 654.28 395.30
  C 654.39 383.40 652.71 370.15 642.63 363.11
  Q 640.86 361.87 638.20 360.03
  A 0.75 0.71 -45.4 0 1 638.22 358.84
  Q 638.27 358.80 641.65 356.37
  C 649.71 350.56 653.52 340.71 654.03 331.04
  Q 654.77 316.84 654.03 303.06
  Q 653.63 295.58 652.37 291.99
  C 646.38 274.82 632.40 269.92 615.50 270.14
  Q 603.34 270.29 574.32 270.20
  Q 573.81 270.19 573.81 270.71
  L 573.81 444.17
  Q 573.81 444.81 574.44 444.81
  L 599.47 444.81
  Q 600.03 444.81 600.03 444.24
  L 600.03 374.00
  A 0.33 0.32 88.2 0 1 600.33 373.67"
/>
<path stroke="#808080" vector-effect="non-scaling-stroke" d="
  M 773.36 323.46
  Q 774.25 321.80 774.25 323.68
  L 774.25 443.77
  Q 774.25 444.80 775.27 444.80
  L 799.97 444.80
  A 0.53 0.52 0.0 0 0 800.50 444.28
  L 800.50 270.74
  Q 800.50 270.25 800.00 270.25
  L 763.59 270.25
  A 1.86 1.85 3.7 0 0 761.75 271.86
  Q 760.02 285.35 759.71 287.55
  Q 752.70 336.78 745.19 385.76
  Q 744.86 387.90 743.85 392.58
  Q 743.53 394.03 743.10 392.61
  Q 741.54 387.42 740.42 379.22
  Q 739.90 375.36 737.15 358.35
  Q 734.67 343.05 728.13 302.33
  Q 724.90 282.22 723.55 270.50
  A 0.34 0.33 86.0 0 0 723.22 270.21
  L 686.49 270.21
  A 0.28 0.28 0.0 0 0 686.21 270.49
  L 686.21 444.51
  A 0.29 0.28 -0.0 0 0 686.50 444.79
  L 708.21 444.79
  A 0.48 0.48 0.0 0 0 708.69 444.31
  Q 708.94 388.49 708.74 325.98
  Q 708.73 323.56 708.77 323.31
  Q 709.53 318.66 710.30 323.41
  L 729.70 444.35
  A 0.54 0.54 0.0 0 0 730.23 444.81
  L 754.62 444.81
  Q 755.11 444.81 755.22 444.33
  C 756.46 438.43 756.49 433.53 757.60 427.99
  C 758.16 425.22 758.41 419.72 759.42 415.29
  C 760.40 410.98 760.52 406.39 761.46 402.20
  C 762.08 399.46 762.04 396.52 762.50 393.75
  Q 765.25 376.92 768.48 354.29
  Q 769.02 350.49 769.23 348.80
  Q 770.39 339.27 771.90 328.96
  Q 772.45 325.19 773.36 323.46"
/>
<path stroke="#808080" vector-effect="non-scaling-stroke" d="
  M 859.28 270.82
  A 0.62 0.62 0.0 0 0 858.66 270.20
  L 833.14 270.20
  A 0.62 0.62 0.0 0 0 832.52 270.82
  L 832.52 444.18
  A 0.62 0.62 0.0 0 0 833.14 444.80
  L 858.66 444.80
  A 0.62 0.62 0.0 0 0 859.28 444.18
  L 859.28 270.82"
/>
<path stroke="#808080" vector-effect="non-scaling-stroke" d="
  M 1001.21 357.51
  Q 1001.21 388.47 1001.21 444.24
  A 0.57 0.56 89.8 0 0 1001.77 444.80
  L 1026.98 444.80
  A 0.52 0.52 0.0 0 0 1027.50 444.28
  L 1027.50 370.30
  A 0.50 0.49 -0.0 0 1 1028.00 369.81
  L 1058.74 369.81
  A 0.45 0.45 0.0 0 1 1059.19 370.26
  L 1059.19 444.25
  A 0.56 0.55 -0.0 0 0 1059.75 444.80
  L 1085.25 444.80
  A 0.93 0.93 0.0 0 0 1086.18 443.86
  Q 1086.12 436.38 1086.11 357.50
  Q 1086.11 278.63 1086.18 271.14
  A 0.93 0.93 0.0 0 0 1085.25 270.21
  L 1059.75 270.21
  A 0.56 0.55 -0.0 0 0 1059.19 270.76
  L 1059.19 344.75
  A 0.45 0.45 0.0 0 1 1058.74 345.20
  L 1028.00 345.20
  A 0.50 0.49 -0.0 0 1 1027.50 344.71
  L 1027.50 270.73
  A 0.52 0.52 0.0 0 0 1026.98 270.21
  L 1001.77 270.21
  A 0.57 0.56 -89.8 0 0 1001.20 270.78
  Q 1001.21 326.54 1001.21 357.51"
/>
<path stroke="#808080" vector-effect="non-scaling-stroke" d="
  M 1175.30 413.44
  Q 1177.57 425.07 1179.26 441.18
  Q 1179.33 441.88 1179.36 444.37
  A 0.44 0.44 0.0 0 0 1179.80 444.80
  L 1206.75 444.80
  A 0.69 0.68 -13.7 0 0 1207.36 443.80
  Q 1206.54 442.22 1206.23 440.25
  Q 1184.22 300.34 1180.12 275.57
  Q 1179.76 273.39 1179.29 271.47
  A 1.66 1.66 0.0 0 0 1177.68 270.21
  L 1141.08 270.21
  A 0.99 0.98 8.2 0 0 1140.13 270.91
  Q 1138.97 274.65 1138.49 277.75
  Q 1134.82 301.49 1130.89 326.44
  Q 1130.38 329.64 1130.30 330.19
  Q 1127.99 345.98 1125.76 359.80
  Q 1116.03 420.21 1115.27 425.41
  C 1114.55 430.33 1113.52 437.90 1112.14 444.08
  A 0.54 0.54 0.0 0 0 1112.67 444.73
  L 1134.26 444.73
  A 2.70 2.69 4.2 0 0 1136.93 442.43
  Q 1139.04 427.84 1140.64 417.67
  Q 1140.88 416.16 1141.73 413.91
  Q 1141.91 413.42 1142.42 413.33
  Q 1144.66 412.93 1146.00 412.92
  Q 1160.46 412.81 1174.66 412.91
  A 0.67 0.67 0.0 0 1 1175.30 413.44"
/>
<path stroke="#808080" vector-effect="non-scaling-stroke" d="
  M 1260.52 343.48
  A 0.60 0.60 0.0 0 1 1259.92 342.88
  L 1259.92 295.35
  A 0.60 0.60 0.0 0 1 1260.52 294.75
  L 1306.19 294.75
  A 0.60 0.60 0.0 0 0 1306.79 294.15
  L 1306.79 270.81
  A 0.60 0.60 0.0 0 0 1306.19 270.21
  L 1233.75 270.21
  A 0.60 0.60 0.0 0 0 1233.15 270.81
  L 1233.15 444.20
  A 0.60 0.60 0.0 0 0 1233.75 444.80
  L 1306.19 444.80
  A 0.60 0.60 0.0 0 0 1306.79 444.20
  L 1306.79 420.84
  A 0.60 0.60 0.0 0 0 1306.19 420.24
  L 1260.51 420.24
  A 0.60 0.60 0.0 0 1 1259.91 419.64
  L 1259.91 369.03
  A 0.60 0.60 0.0 0 1 1260.51 368.43
  L 1296.88 368.43
  A 0.60 0.60 0.0 0 0 1297.48 367.83
  L 1297.48 344.08
  A 0.60 0.60 0.0 0 0 1296.88 343.48
  L 1260.52 343.48"
/>
<path stroke="#808080" vector-effect="non-scaling-stroke" d="
  M 1408.00 420.76
  A 0.50 0.50 0.0 0 0 1407.50 420.26
  L 1363.52 420.26
  A 0.50 0.50 0.0 0 1 1363.02 419.76
  L 1363.02 270.71
  A 0.50 0.50 0.0 0 0 1362.52 270.21
  L 1337.30 270.21
  A 0.50 0.50 0.0 0 0 1336.80 270.71
  L 1336.80 444.30
  A 0.50 0.50 0.0 0 0 1337.30 444.80
  L 1407.50 444.80
  A 0.50 0.50 0.0 0 0 1408.00 444.30
  L 1408.00 420.76"
/>
<path stroke="#808080" vector-effect="non-scaling-stroke" d="
  M 1233.84 521.25
  C 1232.81 542.89 1243.32 565.13 1266.56 569.29
  C 1296.26 574.60 1314.63 552.42 1315.93 525.15
  C 1317.22 497.87 1301.04 474.05 1270.97 476.52
  C 1247.44 478.46 1234.86 499.60 1233.84 521.25"
/>
<path stroke="#808080" vector-effect="non-scaling-stroke" d="
  M 799.27 524.32
  Q 799.98 523.76 801.19 523.31
  C 811.11 519.59 816.79 507.47 814.57 496.90
  C 812.04 484.93 802.95 479.07 791.49 477.52
  Q 778.64 475.78 765.54 478.18
  Q 762.68 478.70 759.66 478.57
  A 0.41 0.41 0.0 0 0 759.23 478.98
  L 759.23 568.40
  A 0.40 0.40 0.0 0 0 759.63 568.80
  L 769.98 568.80
  Q 770.49 568.80 770.49 568.29
  L 770.49 529.75
  A 0.51 0.51 0.0 0 1 770.98 529.24
  Q 779.29 529.00 785.04 529.22
  C 793.24 529.53 797.42 535.43 799.45 542.59
  Q 802.51 553.38 804.40 562.39
  Q 804.64 563.54 806.56 568.06
  Q 806.84 568.72 807.56 568.72
  L 816.87 568.72
  A 0.70 0.70 0.0 0 0 817.54 567.80
  Q 814.94 559.70 811.49 545.18
  C 809.28 535.84 806.48 530.47 799.29 525.40
  A 0.67 0.67 0.0 0 1 799.27 524.32"
/>
<path stroke="#808080" vector-effect="non-scaling-stroke" d="
  M 877.96 524.30
  Q 878.66 523.74 879.87 523.30
  C 889.78 519.59 895.46 507.49 893.25 496.94
  C 890.74 484.98 881.66 479.12 870.22 477.57
  Q 857.39 475.82 844.31 478.21
  Q 841.46 478.72 838.44 478.59
  A 0.41 0.41 0.0 0 0 838.01 479.00
  L 837.94 568.28
  A 0.40 0.40 0.0 0 0 838.34 568.68
  L 848.68 568.69
  Q 849.19 568.69 849.19 568.18
  L 849.22 529.70
  A 0.51 0.51 0.0 0 1 849.70 529.19
  Q 858.00 528.96 863.74 529.18
  C 871.93 529.50 876.10 535.39 878.12 542.54
  Q 881.17 553.32 883.05 562.32
  Q 883.29 563.47 885.20 567.98
  Q 885.48 568.64 886.20 568.64
  L 895.49 568.65
  A 0.70 0.70 0.0 0 0 896.16 567.73
  Q 893.57 559.64 890.14 545.14
  C 887.94 535.81 885.15 530.45 877.97 525.38
  A 0.67 0.66 -46.3 0 1 877.96 524.30"
/>
<path stroke="#808080" vector-effect="non-scaling-stroke" d="
  M 1021.09 481.82
  Q 1021.37 481.75 1021.52 481.58
  Q 1021.92 481.13 1021.36 480.92
  Q 1002.24 473.70 983.89 478.79
  C 954.50 486.95 944.08 517.16 954.24 543.86
  C 960.07 559.18 974.13 568.05 990.10 569.04
  C 1000.43 569.67 1010.60 568.89 1020.45 565.72
  Q 1021.24 565.47 1023.25 564.45
  Q 1023.73 564.21 1023.73 563.68
  L 1023.73 522.52
  Q 1023.73 521.81 1023.01 521.81
  L 996.00 521.81
  Q 995.55 521.81 995.55 522.25
  L 995.55 529.14
  A 0.61 0.61 0.0 0 0 996.16 529.75
  L 1011.57 529.75
  A 1.99 1.98 88.5 0 1 1013.55 531.63
  Q 1014.24 544.14 1013.63 553.52
  C 1013.48 555.75 1013.59 557.86 1011.13 558.59
  Q 1001.80 561.35 990.25 559.54
  Q 971.78 556.64 965.10 539.00
  Q 960.31 526.34 963.26 513.58
  Q 967.86 493.64 986.99 487.73
  C 997.37 484.52 1008.31 485.86 1018.19 489.36
  A 1.04 1.04 0.0 0 0 1019.56 488.53
  L 1020.38 482.62
  A 0.97 0.96 86.9 0 1 1021.09 481.82"
/>
<path stroke="#808080" vector-effect="non-scaling-stroke" d="
  M 733.02 478.55
  A 0.64 0.64 0.0 0 0 732.38 477.91
  L 722.46 477.91
  A 0.64 0.64 0.0 0 0 721.82 478.55
  L 721.82 568.13
  A 0.64 0.64 0.0 0 0 722.46 568.77
  L 732.38 568.77
  A 0.64 0.64 0.0 0 0 733.02 568.13
  L 733.02 478.55"
/>
<path stroke="#808080" vector-effect="non-scaling-stroke" d="
  M 928.02 478.58
  A 0.63 0.63 0.0 0 0 927.39 477.95
  L 917.43 477.95
  A 0.63 0.63 0.0 0 0 916.80 478.58
  L 916.80 568.18
  A 0.63 0.63 0.0 0 0 917.43 568.81
  L 927.39 568.81
  A 0.63 0.63 0.0 0 0 928.02 568.18
  L 928.02 478.58"
/>
<path stroke="#808080" vector-effect="non-scaling-stroke" d="
  M 1096.39 541.74
  Q 1100.12 551.75 1104.12 565.71
  Q 1104.98 568.73 1108.24 568.84
  Q 1112.86 569.00 1117.03 568.42
  A 0.13 0.13 0.0 0 0 1117.14 568.25
  Q 1102.99 527.09 1087.78 481.23
  C 1086.34 476.91 1081.94 477.68 1077.72 477.60
  C 1072.61 477.49 1072.20 480.09 1070.65 484.66
  Q 1059.83 516.55 1042.72 567.23
  Q 1042.37 568.29 1043.47 568.47
  Q 1047.29 569.10 1051.66 568.65
  Q 1053.53 568.45 1053.97 567.46
  C 1057.64 559.17 1059.19 550.11 1062.89 541.81
  A 2.43 2.42 -78.0 0 1 1065.10 540.37
  L 1094.42 540.37
  A 2.10 2.10 0.0 0 1 1096.39 541.74"
/>
<path stroke="#808080" vector-effect="non-scaling-stroke" d="
  M 1150.18 568.73
  Q 1152.74 568.73 1155.19 568.50
  Q 1155.46 568.48 1155.46 568.20
  L 1155.46 488.58
  A 0.58 0.58 0.0 0 1 1156.04 488.00
  L 1182.14 488.00
  Q 1183.04 488.00 1183.03 487.10
  L 1182.87 478.50
  Q 1182.86 477.82 1182.18 477.87
  Q 1180.92 477.97 1150.21 477.96
  Q 1119.51 477.95 1118.25 477.85
  Q 1117.57 477.80 1117.56 478.48
  L 1117.39 487.08
  Q 1117.38 487.98 1118.28 487.98
  L 1144.38 488.00
  A 0.58 0.58 0.0 0 1 1144.96 488.58
  L 1144.91 568.20
  Q 1144.91 568.48 1145.18 568.50
  Q 1147.63 568.73 1150.18 568.73"
/>
<path stroke="#808080" vector-effect="non-scaling-stroke" d="
  M 1211.10 478.63
  A 0.67 0.67 0.0 0 0 1210.43 477.96
  L 1200.57 477.96
  A 0.67 0.67 0.0 0 0 1199.90 478.63
  L 1199.90 568.11
  A 0.67 0.67 0.0 0 0 1200.57 568.78
  L 1210.43 568.78
  A 0.67 0.67 0.0 0 0 1211.10 568.11
  L 1211.10 478.63"
/>
<path stroke="#808080" vector-effect="non-scaling-stroke" d="
  M 1348.05 493.23
  Q 1348.60 492.22 1349.16 493.29
  C 1352.33 499.40 1354.88 504.97 1358.67 511.28
  Q 1364.17 520.45 1382.22 549.47
  Q 1389.55 561.26 1393.63 568.25
  Q 1393.90 568.72 1394.44 568.72
  L 1404.33 568.72
  A 0.45 0.45 0.0 0 0 1404.78 568.27
  L 1404.78 478.32
  A 0.36 0.35 -0.0 0 0 1404.42 477.97
  L 1395.23 477.97
  A 0.25 0.24 0.0 0 0 1394.98 478.21
  Q 1394.87 504.42 1394.98 530.96
  C 1395.01 538.48 1395.45 543.87 1396.34 551.10
  Q 1396.57 553.02 1395.28 551.59
  Q 1394.52 550.75 1393.56 548.98
  Q 1385.77 534.55 1382.53 529.27
  Q 1357.29 488.06 1352.35 480.56
  Q 1351.01 478.53 1349.90 478.33
  Q 1344.90 477.40 1339.67 477.92
  A 1.01 1.00 87.2 0 0 1338.77 478.92
  L 1338.77 568.53
  A 0.20 0.20 0.0 0 0 1338.97 568.73
  L 1347.73 568.73
  Q 1347.95 568.73 1347.96 568.50
  Q 1348.04 527.40 1347.83 494.96
  Q 1347.82 493.63 1348.05 493.23"
/>
<path stroke="#808080" vector-effect="non-scaling-stroke" d="
  M 283.51 1053.57
  Q 281.88 1055.18 283.85 1054.01
  Q 323.74 1030.28 348.56 991.11
  Q 375.68 948.31 377.61 894.79
  Q 377.96 885.18 377.01 874.84
  Q 373.32 834.46 355.48 801.38
  C 320.82 737.08 255.67 699.31 182.75 700.47
  Q 182.14 700.48 182.02 701.07
  C 173.91 738.26 179.27 777.03 198.24 810.28
  Q 209.46 829.95 226.15 844.37
  C 256.30 870.42 285.22 893.32 304.04 927.36
  C 313.33 944.14 318.38 964.48 318.14 982.76
  Q 317.65 1021.13 289.57 1048.21
  C 287.95 1049.77 285.32 1051.77 283.51 1053.57"
/>
<path stroke="#808080" vector-effect="non-scaling-stroke" d="
  M 170.93 703.36
  Q 172.68 701.34 170.31 702.59
  C 162.49 706.75 154.90 713.01 148.30 718.80
  Q 135.24 730.27 122.99 742.88
  A 0.46 0.45 52.4 0 0 122.93 743.42
  Q 123.09 743.71 123.52 743.77
  Q 130.25 744.69 141.17 745.98
  A 1.14 1.14 0.0 0 0 142.29 745.43
  Q 149.25 733.82 158.89 719.41
  Q 165.12 710.11 170.93 703.36"
/>
<path stroke="#808080" vector-effect="non-scaling-stroke" d="
  M 154.26 705.81
  C 132.79 712.93 114.76 725.07 98.01 740.19
  A 0.58 0.57 26.3 0 0 98.35 741.19
  L 113.95 742.49
  A 0.82 0.82 0.0 0 0 114.62 742.22
  Q 131.93 723.09 154.14 706.87
  Q 154.63 706.52 154.69 706.45
  Q 155.57 705.38 154.26 705.81"
/>
<path stroke="#808080" vector-effect="non-scaling-stroke" d="
  M 128.55 710.25
  Q 128.43 710.14 128.28 710.20
  Q 100.34 720.49 76.60 738.35
  Q 76.21 738.64 76.50 739.06
  A 0.36 0.34 73.6 0 0 76.77 739.22
  L 87.66 739.90
  A 1.39 1.36 -64.1 0 0 88.69 739.53
  Q 106.85 722.61 128.82 710.68
  Q 128.96 710.60 128.84 710.50
  L 128.55 710.25"
/>
<path stroke="#808080" vector-effect="non-scaling-stroke" d="
  M 31.18 788.19
  Q 24.41 798.85 20.04 808.57
  A 0.55 0.54 12.2 0 0 20.54 809.34
  L 39.39 809.34
  A 0.84 0.83 -78.0 0 0 40.15 808.84
  Q 54.73 774.43 80.86 747.29
  A 0.57 0.48 85.3 0 0 80.96 747.15
  Q 81.38 746.29 80.50 746.23
  Q 73.06 745.73 69.08 745.45
  A 2.51 2.49 -63.2 0 0 67.28 746.05
  Q 46.52 764.01 31.18 788.19"
/>
<path stroke="#808080" vector-effect="non-scaling-stroke" d="
  M 89.72 747.82
  C 72.03 765.24 57.33 786.16 47.37 808.92
  A 0.59 0.59 0.0 0 0 47.87 809.75
  L 71.46 811.22
  A 0.98 0.97 -77.5 0 0 72.44 810.59
  Q 85.16 777.06 108.11 749.60
  A 0.56 0.56 0.0 0 0 107.73 748.68
  L 91.15 747.30
  A 1.83 1.81 -64.6 0 0 89.72 747.82"
/>
<path stroke="#808080" vector-effect="non-scaling-stroke" d="
  M 81.88 804.91
  Q 80.51 808.08 79.48 810.92
  A 0.63 0.63 0.0 0 0 80.02 811.76
  L 109.25 814.19
  A 0.60 0.59 12.9 0 0 109.86 813.81
  C 113.52 803.68 117.07 795.88 122.24 784.23
  Q 128.77 769.55 137.90 753.30
  A 0.65 0.64 -71.2 0 0 137.43 752.34
  L 117.64 749.59
  A 1.39 1.38 -65.3 0 0 116.39 750.06
  Q 94.81 774.87 81.88 804.91"
/>
<path stroke="#808080" vector-effect="non-scaling-stroke" d="
  M 884.60 773.74
  A 0.53 0.53 0.0 0 0 884.07 773.21
  L 820.43 773.21
  A 0.53 0.53 0.0 0 0 819.90 773.74
  L 819.90 817.00
  A 0.53 0.53 0.0 0 0 820.43 817.53
  L 884.07 817.53
  A 0.53 0.53 0.0 0 0 884.60 817.00
  L 884.60 773.74"
/>
<path stroke="#808080" vector-effect="non-scaling-stroke" d="
  M 584.71 901.86
  C 594.89 896.76 604.13 890.89 610.70 882.51
  C 619.89 870.81 622.84 857.34 622.72 842.34
  C 622.55 820.71 613.62 802.19 595.74 790.30
  C 580.19 779.96 560.49 776.74 542.25 776.58
  Q 536.75 776.53 424.34 776.54
  A 0.26 0.25 0.0 0 0 424.08 776.79
  L 424.08 999.28
  A 0.19 0.19 0.0 0 0 424.27 999.47
  L 493.07 999.47
  Q 493.62 999.47 493.62 998.91
  L 493.62 915.00
  Q 493.62 914.39 494.24 914.39
  L 514.41 914.39
  Q 514.97 914.39 515.18 914.92
  L 547.22 998.75
  Q 547.50 999.47 548.26 999.47
  L 623.25 999.47
  A 0.34 0.34 0.0 0 0 623.56 999.00
  L 584.01 903.74
  A 1.48 1.46 -24.8 0 1 584.71 901.86"
/>
<path stroke="#808080" vector-effect="non-scaling-stroke" d="
  M 1155.63 895.18
  L 1155.63 776.96
  A 0.42 0.42 0.0 0 0 1155.21 776.54
  L 1091.49 776.54
  A 0.46 0.45 -90.0 0 0 1091.04 777.00
  L 1091.04 999.25
  A 0.22 0.21 90.0 0 0 1091.25 999.47
  L 1155.29 999.47
  A 0.35 0.35 0.0 0 0 1155.64 999.12
  L 1155.64 954.73
  A 2.90 2.88 -26.4 0 1 1156.24 952.97
  L 1170.97 934.00
  Q 1171.80 932.93 1172.37 934.15
  L 1202.80 999.01
  Q 1203.02 999.47 1203.53 999.47
  L 1269.79 999.47
  Q 1270.51 999.47 1270.18 998.82
  L 1215.00 891.55
  A 1.50 1.50 0.0 0 1 1215.20 889.90
  L 1263.95 834.28
  A 0.53 0.52 20.6 0 0 1263.55 833.41
  L 1209.24 833.41
  A 1.57 1.56 -69.3 0 0 1208.06 833.95
  Q 1172.90 874.31 1172.64 874.61
  C 1166.87 881.27 1161.48 888.86 1156.52 895.48
  Q 1155.63 896.66 1155.63 895.18"
/>
<path stroke="#808080" vector-effect="non-scaling-stroke" d="
  M 2.35 882.51
  L 23.44 882.51
  A 0.54 0.54 0.0 0 0 23.98 881.98
  Q 25.08 848.52 36.92 816.86
  A 0.63 0.63 0.0 0 0 36.33 816.01
  L 17.40 816.01
  A 1.13 1.13 0.0 0 0 16.36 816.70
  Q 3.45 847.99 2.16 882.30
  A 0.20 0.19 -88.6 0 0 2.35 882.51"
/>
<path stroke="#808080" vector-effect="non-scaling-stroke" d="
  M 55.06 817.03
  C 50.25 816.76 47.09 816.70 45.45 816.50
  Q 44.16 816.36 43.61 817.82
  Q 31.99 848.86 30.66 881.91
  A 0.65 0.65 0.0 0 0 31.31 882.58
  L 57.91 882.58
  A 0.19 0.19 0.0 0 0 58.10 882.40
  Q 59.18 849.57 69.62 818.43
  A 0.47 0.47 0.0 0 0 69.20 817.81
  Q 65.42 817.59 55.06 817.03"
/>
<path stroke="#808080" vector-effect="non-scaling-stroke" d="
  M 91.84 884.90
  A 0.35 0.35 0.0 0 0 92.21 884.59
  Q 96.18 852.34 107.18 821.55
  A 0.60 0.60 0.0 0 0 106.66 820.75
  L 77.42 818.31
  A 0.90 0.88 -77.7 0 0 76.51 818.91
  Q 65.90 849.95 64.91 882.86
  A 0.37 0.36 -87.6 0 0 65.25 883.24
  L 91.84 884.90"
/>
<path stroke="#808080" vector-effect="non-scaling-stroke" d="
  M 692.17 930.00
  Q 692.23 929.35 692.88 929.35
  L 802.92 929.35
  Q 803.31 929.35 803.33 928.96
  C 804.16 910.62 802.04 892.54 794.27 876.11
  C 781.33 848.75 756.11 833.61 726.33 830.70
  C 686.40 826.80 647.58 842.60 631.35 881.49
  C 620.64 907.14 620.75 934.94 634.11 959.63
  C 653.18 994.88 692.11 1005.76 730.22 1002.20
  C 764.90 998.96 794.39 979.40 803.36 944.41
  A 0.47 0.46 -81.3 0 0 802.94 943.83
  L 743.22 940.11
  A 0.89 0.88 7.4 0 0 742.29 940.82
  Q 739.15 957.53 723.36 959.70
  C 709.40 961.62 696.49 957.51 693.12 942.51
  Q 691.67 936.08 692.17 930.00"
/>
<path stroke="#808080" vector-effect="non-scaling-stroke" d="
  M 970.42 856.51
  Q 969.97 856.38 969.98 855.76
  Q 970.03 843.89 970.09 833.80
  A 0.38 0.38 0.0 0 0 969.71 833.42
  L 909.46 833.42
  A 0.38 0.37 0.0 0 0 909.08 833.79
  L 909.08 999.26
  A 0.21 0.21 0.0 0 0 909.29 999.47
  L 973.16 999.47
  Q 973.64 999.47 973.64 998.99
  Q 973.58 911.50 973.58 902.50
  C 973.59 889.52 976.03 875.33 992.12 874.78
  C 1004.70 874.35 1007.02 884.43 1007.02 894.52
  Q 1007.01 962.08 1007.04 998.95
  Q 1007.04 999.47 1007.56 999.47
  L 1071.30 999.47
  A 0.43 0.43 0.0 0 0 1071.73 999.04
  Q 1071.73 909.10 1071.73 897.00
  C 1071.72 876.68 1071.38 851.26 1051.98 838.96
  Q 1041.50 832.32 1028.45 830.82
  C 1006.13 828.27 980.32 833.47 970.97 856.23
  A 0.47 0.45 -70.8 0 1 970.42 856.51"
/>
<path stroke="#808080" vector-effect="non-scaling-stroke" d="
  M 1330.11 930.00
  Q 1330.17 929.35 1330.82 929.35
  L 1440.85 929.35
  Q 1441.24 929.35 1441.26 928.96
  C 1442.09 910.62 1439.97 892.54 1432.20 876.11
  C 1419.27 848.76 1394.05 833.61 1364.27 830.70
  C 1324.34 826.80 1285.52 842.60 1269.29 881.49
  C 1258.58 907.13 1258.69 934.93 1272.05 959.62
  C 1291.12 994.87 1330.04 1005.75 1368.15 1002.19
  C 1402.83 998.96 1432.32 979.40 1441.29 944.41
  A 0.47 0.46 -81.3 0 0 1440.87 943.83
  L 1381.15 940.11
  A 0.89 0.88 7.4 0 0 1380.22 940.82
  Q 1377.08 957.53 1361.29 959.70
  C 1347.33 961.61 1334.42 957.50 1331.06 942.51
  Q 1329.61 936.08 1330.11 930.00"
/>
<path stroke="#808080" vector-effect="non-scaling-stroke" d="
  M 884.60 833.93
  A 0.52 0.52 0.0 0 0 884.08 833.41
  L 820.42 833.41
  A 0.52 0.52 0.0 0 0 819.90 833.93
  L 819.90 998.93
  A 0.52 0.52 0.0 0 0 820.42 999.45
  L 884.08 999.45
  A 0.52 0.52 0.0 0 0 884.60 998.93
  L 884.60 833.93"
/>
<path stroke="#808080" vector-effect="non-scaling-stroke" d="
  M 14.19 955.76
  A 0.49 0.49 0.0 0 0 14.65 956.08
  L 33.69 956.08
  A 0.75 0.75 0.0 0 0 34.40 955.09
  Q 23.87 923.50 23.68 889.97
  A 0.56 0.56 0.0 0 0 23.12 889.41
  L 2.66 889.41
  Q 2.13 889.41 2.07 889.93
  Q 1.82 891.96 2.76 904.25
  Q 4.79 930.86 14.19 955.76"
/>
<path stroke="#808080" vector-effect="non-scaling-stroke" d="
  M 41.48 955.11
  A 1.03 1.01 80.3 0 0 42.44 955.80
  L 67.31 955.80
  A 0.36 0.36 0.0 0 0 67.65 955.34
  Q 57.87 923.34 58.08 889.96
  Q 58.08 889.46 57.58 889.46
  L 30.89 889.46
  A 0.41 0.40 -90.0 0 0 30.49 889.87
  Q 30.62 923.31 41.48 955.11"
/>
<path stroke="#808080" vector-effect="non-scaling-stroke" d="
  M 94.66 954.38
  Q 88.70 923.47 91.53 892.33
  A 0.62 0.62 0.0 0 0 90.95 891.65
  L 65.25 890.05
  Q 64.70 890.02 64.70 890.56
  Q 64.80 923.91 74.92 955.78
  A 0.82 0.81 82.7 0 0 75.65 956.35
  L 94.76 957.54
  A 0.54 0.54 0.0 0 0 95.30 956.83
  Q 94.91 955.69 94.66 954.38"
/>
<path stroke="#808080" vector-effect="non-scaling-stroke" d="
  M 107.84 1030.00
  Q 82.85 1000.02 70.41 963.34
  A 1.15 1.14 80.3 0 0 69.33 962.57
  L 44.93 962.57
  A 0.41 0.40 -10.8 0 0 44.55 963.12
  Q 59.69 1000.81 87.42 1028.86
  Q 88.05 1029.50 88.94 1029.55
  L 107.48 1030.71
  A 0.43 0.43 0.0 0 0 107.84 1030.00"
/>
<path stroke="#808080" vector-effect="non-scaling-stroke" d="
  M 76.00 1026.86
  Q 50.69 999.06 37.32 963.26
  A 0.88 0.88 0.0 0 0 36.49 962.68
  L 18.02 962.68
  A 0.77 0.76 78.3 0 0 17.32 963.75
  Q 33.72 1001.31 63.40 1028.40
  A 3.01 2.71 63.9 0 0 65.32 1029.17
  L 77.22 1029.17
  A 0.35 0.34 -18.4 0 0 77.50 1028.62
  Q 77.05 1028.02 76.00 1026.86"
/>
<path stroke="#808080" vector-effect="non-scaling-stroke" d="
  M 128.71 1031.46
  C 113.93 1011.50 103.41 989.06 97.13 964.84
  Q 96.99 964.33 96.47 964.30
  L 78.29 963.16
  A 0.59 0.58 -8.8 0 0 77.71 963.95
  Q 91.67 1001.13 117.05 1030.32
  Q 118.30 1031.76 120.20 1031.92
  L 128.09 1032.58
  Q 129.63 1032.71 128.71 1031.46"
/>
<path stroke="#808080" vector-effect="non-scaling-stroke" d="
  M 356.90 1034.19
  A 11.81 11.81 0.0 0 0 345.09 1022.38
  A 11.81 11.81 0.0 0 0 333.28 1034.19
  A 11.81 11.81 0.0 0 0 345.09 1046.00
  A 11.81 11.81 0.0 0 0 356.90 1034.19"
/>
<path stroke="#808080" vector-effect="non-scaling-stroke" d="
  M 120.79 1064.16
  Q 120.88 1063.98 120.70 1063.87
  Q 101.86 1052.48 86.21 1037.45
  Q 85.12 1036.40 83.60 1036.30
  L 73.27 1035.66
  Q 71.63 1035.56 72.92 1036.58
  Q 94.69 1053.89 120.49 1064.26
  Q 120.69 1064.34 120.78 1064.16
  L 120.79 1064.16"
/>
<path stroke="#808080" vector-effect="non-scaling-stroke" d="
  M 112.61 1037.79
  L 96.73 1036.80
  A 0.38 0.38 0.0 0 0 96.45 1037.45
  C 114.37 1053.96 134.35 1066.48 158.27 1072.98
  Q 158.87 1073.14 158.88 1072.66
  A 0.27 0.25 -77.1 0 0 158.75 1072.43
  C 142.25 1063.38 126.54 1052.94 114.52 1038.75
  Q 113.77 1037.86 112.61 1037.79"
/>
<path stroke="#808080" vector-effect="non-scaling-stroke" d="
  M 182.40 1073.19
  Q 155.74 1061.34 135.23 1040.44
  Q 134.82 1040.03 134.24 1039.98
  L 126.48 1039.33
  A 0.37 0.37 0.0 0 0 126.19 1039.96
  C 142.00 1056.14 161.93 1069.85 184.27 1074.80
  Q 186.99 1075.41 184.92 1074.34
  Q 184.41 1074.08 182.40 1073.19"
/>
<path stroke="#808080" vector-effect="non-scaling-stroke" d="
  M 486.77 390.30
  L 510.52 390.30
  A 1.33 1.33 0.0 0 0 511.85 388.85
  Q 510.93 378.69 508.86 364.90
  Q 502.70 323.86 499.83 302.71
  Q 499.56 300.74 498.56 302.45
  Q 498.16 303.13 497.80 304.75
  Q 496.43 310.82 495.51 319.88
  Q 495.27 322.26 494.71 325.10
  C 493.98 328.78 493.45 334.44 493.11 336.82
  Q 491.06 351.23 485.51 388.84
  A 1.27 1.27 0.0 0 0 486.77 390.30"
/>
<path stroke="#808080" vector-effect="non-scaling-stroke" d="
  M 600.01 295.54
  L 600.01 347.88
  A 1.07 1.07 0.0 0 0 601.08 348.95
  L 614.50 348.95
  A 15.96 13.49 -90.0 0 0 627.99 332.99
  L 627.99 310.43
  A 15.96 13.49 90.0 0 0 614.50 294.47
  L 601.08 294.47
  A 1.07 1.07 0.0 0 0 600.01 295.54"
/>
<path stroke="#808080" vector-effect="non-scaling-stroke" d="
  M 1170.30 390.19
  A 1.27 1.27 0.0 0 0 1171.55 388.73
  Q 1165.99 351.26 1163.94 336.90
  C 1163.60 334.53 1163.06 328.89 1162.33 325.22
  Q 1161.77 322.39 1161.53 320.02
  Q 1160.61 310.99 1159.24 304.94
  Q 1158.88 303.33 1158.48 302.65
  Q 1157.48 300.95 1157.22 302.91
  Q 1154.37 323.99 1148.26 364.89
  Q 1146.21 378.64 1145.30 388.76
  A 1.33 1.33 0.0 0 0 1146.63 390.21
  L 1170.30 390.19"
/>
<path stroke="#808080" vector-effect="non-scaling-stroke" d="
  M 1274.86 561.15
  C 1286.26 561.18 1295.77 553.48 1300.02 543.22
  Q 1306.23 528.24 1302.91 511.57
  Q 1300.16 497.74 1289.26 489.56
  C 1285.08 486.43 1280.13 485.60 1275.04 485.59
  C 1269.94 485.58 1264.99 486.38 1260.79 489.50
  Q 1249.86 497.62 1247.04 511.44
  Q 1243.64 528.09 1249.78 543.10
  C 1253.98 553.38 1263.46 561.13 1274.86 561.15"
/>
<path stroke="#808080" vector-effect="non-scaling-stroke" d="
  M 770.45 488.10
  L 770.45 517.80
  A 2.22 2.22 0.0 0 0 772.67 520.02
  L 786.35 520.02
  A 17.86 17.02 0.0 0 0 804.21 503.00
  L 804.21 502.90
  A 17.86 17.02 -0.0 0 0 786.35 485.88
  L 772.67 485.88
  A 2.22 2.22 0.0 0 0 770.45 488.10"
/>
<path stroke="#808080" vector-effect="non-scaling-stroke" d="
  M 849.18 488.01
  L 849.24 517.93
  A 2.12 2.12 0.0 0 0 851.36 520.05
  L 865.04 520.02
  A 17.90 17.04 -0.1 0 0 882.91 502.95
  L 882.91 502.87
  A 17.90 17.04 -0.1 0 0 864.98 485.86
  L 851.30 485.89
  A 2.12 2.12 0.0 0 0 849.18 488.01"
/>
<path stroke="#808080" vector-effect="non-scaling-stroke" d="
  M 1065.87 530.72
  A 0.34 0.34 0.0 0 0 1066.19 531.16
  L 1092.96 531.02
  A 0.34 0.34 0.0 0 0 1093.28 530.57
  L 1079.68 489.69
  A 0.34 0.34 0.0 0 0 1079.03 489.69
  L 1065.87 530.72"
/>
<path stroke="#808080" vector-effect="non-scaling-stroke" d="
  M 493.61 824.26
  L 493.61 866.04
  A 0.28 0.28 0.0 0 0 493.89 866.32
  L 527.81 866.32
  A 23.54 19.78 0.0 0 0 551.35 846.54
  L 551.35 843.76
  A 23.54 19.78 0.0 0 0 527.81 823.98
  L 493.89 823.98
  A 0.28 0.28 0.0 0 0 493.61 824.26"
/>
<path stroke="#808080" vector-effect="non-scaling-stroke" d="
  M 692.34 896.60
  L 737.84 896.76
  A 0.27 0.27 0.0 0 0 738.11 896.49
  L 738.13 891.71
  A 23.27 20.82 -89.8 0 0 717.39 868.37
  L 712.99 868.35
  A 23.27 20.82 -89.8 0 0 692.09 891.55
  L 692.07 896.33
  A 0.27 0.27 0.0 0 0 692.34 896.60"
/>
<path stroke="#808080" vector-effect="non-scaling-stroke" d="
  M 1330.28 896.69
  L 1375.78 896.69
  A 0.29 0.29 0.0 0 0 1376.07 896.40
  L 1376.07 891.42
  A 23.07 20.89 -90.0 0 0 1355.18 868.35
  L 1350.88 868.35
  A 23.07 20.89 90.0 0 0 1329.99 891.42
  L 1329.99 896.40
  A 0.29 0.29 0.0 0 0 1330.28 896.69"
/>
<path stroke="#808080" vector-effect="non-scaling-stroke" d="
  M 354.64 1034.21
  A 9.55 9.55 0.0 0 0 345.09 1024.66
  A 9.55 9.55 0.0 0 0 335.54 1034.21
  A 9.55 9.55 0.0 0 0 345.09 1043.76
  A 9.55 9.55 0.0 0 0 354.64 1034.21"
/>
<path stroke="#808080" vector-effect="non-scaling-stroke" d="
  M 347.82 1035.02
  C 348.71 1034.56 349.59 1034.20 350.00 1033.40
  Q 351.60 1030.26 348.78 1027.80
  A 0.75 0.74 -22.8 0 0 348.31 1027.61
  L 341.29 1027.40
  Q 340.56 1027.37 340.56 1028.11
  L 340.56 1040.02
  A 1.00 1.00 0.0 0 0 341.56 1041.02
  L 341.97 1041.02
  Q 342.71 1041.02 342.71 1040.27
  L 342.71 1035.78
  A 0.58 0.58 0.0 0 1 343.27 1035.20
  C 344.36 1035.17 344.93 1035.25 345.60 1036.30
  Q 346.85 1038.24 347.95 1040.03
  Q 348.48 1040.91 349.51 1040.91
  L 349.82 1040.91
  A 0.52 0.52 0.0 0 0 350.27 1040.13
  L 347.65 1035.59
  Q 347.43 1035.22 347.82 1035.02"
/>
<path stroke="#808080" vector-effect="non-scaling-stroke" d="
  M 342.71 1030.01
  L 342.71 1032.59
  A 0.73 0.73 0.0 0 0 343.44 1033.32
  L 345.82 1033.32
  A 2.55 1.87 -0.0 0 0 348.37 1031.45
  L 348.37 1031.15
  A 2.55 1.87 0.0 0 0 345.82 1029.28
  L 343.44 1029.28
  A 0.73 0.73 0.0 0 0 342.71 1030.01"
/>
</g>
<path fill="#ffffff" d="
  M 1442.00 0.00
  L 1442.00 1076.00
  L 0.00 1076.00
  L 0.00 350.61
  C 1.23 359.98 2.41 370.31 4.33 378.71
  Q 12.66 415.11 35.48 443.12
  Q 57.17 469.76 87.54 487.50
  Q 160.64 530.20 253.97 583.62
  C 271.58 593.70 288.39 604.34 305.11 616.24
  Q 305.66 616.63 305.11 617.02
  C 288.01 629.15 269.77 637.42 248.32 632.71
  Q 237.40 630.32 226.92 624.71
  Q 212.56 617.02 204.97 612.69
  C 174.67 595.38 152.73 582.79 129.99 570.80
  Q 121.26 566.20 105.88 557.60
  Q 105.39 557.32 105.12 557.82
  Q 103.45 560.90 103.18 565.72
  Q 102.56 576.89 103.26 583.72
  Q 105.61 606.50 124.09 619.40
  Q 125.92 620.67 128.78 622.46
  C 156.88 640.00 188.30 657.70 220.04 672.84
  C 234.13 679.56 247.94 683.62 263.76 682.55
  C 291.06 680.69 316.14 668.76 341.29 654.78
  Q 369.52 639.07 411.15 614.87
  Q 506.86 559.23 510.54 557.10
  Q 524.62 548.95 528.41 546.92
  Q 537.67 541.98 544.33 539.86
  Q 555.72 536.25 568.78 536.68
  C 584.75 537.21 599.35 545.49 611.09 555.97
  A 0.63 0.63 0.0 0 1 610.98 556.98
  L 391.07 683.95
  A 1.00 1.00 0.0 0 0 391.03 685.66
  C 409.83 697.83 433.46 704.91 455.13 696.62
  Q 462.61 693.76 471.74 688.73
  Q 570.48 634.26 664.98 577.73
  Q 673.97 572.35 677.30 562.15
  C 679.18 556.38 680.07 549.16 677.32 543.98
  Q 671.49 532.97 661.23 524.59
  C 648.60 514.27 634.59 506.91 619.16 501.28
  Q 597.02 493.21 577.08 491.90
  Q 556.05 490.52 542.00 492.11
  Q 525.74 493.94 511.24 502.25
  Q 435.00 545.95 413.70 558.73
  Q 396.69 568.94 379.64 579.14
  C 372.32 583.52 363.59 586.84 355.31 585.70
  C 348.48 584.77 342.85 582.10 336.92 578.53
  Q 307.15 560.60 278.82 544.26
  Q 223.99 512.64 182.95 488.36
  Q 176.92 484.80 171.40 481.17
  C 161.98 474.98 155.25 465.70 152.79 454.80
  Q 151.91 450.93 151.91 441.13
  Q 151.90 289.96 151.91 251.75
  C 151.92 243.18 153.20 234.57 158.51 227.65
  Q 160.78 224.69 166.98 221.00
  C 174.08 216.78 182.86 211.92 189.23 208.18
  Q 258.33 167.64 285.92 151.93
  Q 318.53 133.36 345.11 119.12
  Q 382.57 99.05 399.97 91.20
  C 417.01 83.51 434.96 80.19 453.00 79.01
  Q 461.08 78.48 472.99 79.62
  Q 486.46 80.91 493.87 82.22
  C 531.15 88.85 568.04 105.86 595.72 132.06
  Q 603.57 139.48 609.51 148.01
  A 0.17 0.17 0.0 0 1 609.48 148.23
  C 586.48 168.28 558.08 168.62 532.10 154.16
  C 520.48 147.69 506.24 137.97 492.08 132.46
  Q 482.67 128.80 472.26 127.62
  C 468.30 127.17 464.82 127.47 461.17 127.28
  C 445.63 126.50 430.21 132.46 417.01 139.55
  A 0.66 0.65 46.1 0 0 416.99 140.69
  Q 488.05 183.10 488.15 183.16
  Q 511.72 196.58 530.88 203.42
  Q 546.86 209.12 565.58 210.35
  Q 567.61 210.48 570.48 210.35
  C 574.27 210.17 579.02 210.53 582.67 210.23
  Q 604.09 208.42 623.31 198.78
  Q 651.76 184.52 674.46 162.20
  C 681.02 155.76 687.12 146.51 683.28 137.02
  C 681.28 132.08 676.88 128.29 672.59 125.07
  Q 666.01 120.14 658.00 115.38
  Q 626.49 96.67 595.66 79.10
  C 582.90 71.83 573.26 65.95 558.33 57.00
  Q 537.23 44.36 515.89 37.20
  Q 499.16 31.59 485.15 29.70
  Q 467.56 27.32 448.73 28.43
  C 427.52 29.67 405.57 35.34 386.04 44.47
  Q 371.19 51.41 367.34 53.56
  Q 268.97 108.42 223.72 134.02
  C 210.97 141.24 198.06 148.30 184.66 155.86
  C 175.98 160.75 166.92 165.20 157.15 170.18
  Q 156.25 170.63 154.33 170.69
  Q 153.81 170.71 153.67 170.21
  Q 153.51 169.59 153.87 165.81
  C 156.31 140.22 165.59 114.20 187.34 98.29
  Q 194.07 93.35 197.11 91.62
  Q 248.46 62.33 327.41 16.17
  A 1.59 1.59 0.0 0 0 327.43 13.43
  Q 310.79 3.36 292.04 0.72
  C 277.15 -1.38 260.75 3.09 247.31 9.29
  Q 236.07 14.47 218.66 25.33
  Q 205.07 33.80 201.61 35.75
  Q 197.27 38.18 177.68 48.42
  Q 162.05 56.59 147.35 70.08
  C 125.88 89.80 112.58 117.65 107.76 146.77
  Q 104.98 163.62 104.97 173.50
  Q 104.95 224.47 104.98 391.00
  Q 104.99 402.57 104.38 410.98
  Q 103.03 429.56 102.07 435.11
  Q 101.66 437.43 101.03 438.92
  A 0.49 0.49 0.0 0 1 100.25 439.09
  Q 90.66 430.18 83.47 421.44
  Q 63.47 397.14 57.33 364.79
  Q 54.94 352.21 54.44 341.28
  C 54.01 332.06 53.14 319.70 53.10 308.90
  Q 53.00 272.28 52.32 260.50
  Q 51.40 244.62 50.33 239.24
  Q 49.00 232.62 48.62 228.66
  Q 48.30 225.38 46.86 228.34
  Q 45.85 230.45 44.85 231.87
  Q 44.18 232.84 24.79 257.80
  Q 14.68 270.81 10.14 284.43
  Q 2.05 308.72 0.00 337.26
  L 0.00 0.00
  L 1442.00 0.00
  Z
  M 938.43 293.85
  C 943.38 295.68 945.07 301.56 945.51 306.55
  Q 946.45 317.26 946.40 327.81
  Q 946.40 328.47 947.06 328.47
  L 970.70 328.47
  Q 971.16 328.47 971.17 328.01
  C 971.57 316.55 971.56 307.04 969.17 296.18
  C 965.97 281.66 955.26 270.56 940.23 268.57
  C 929.91 267.20 917.67 267.60 908.95 272.56
  C 900.21 277.54 895.12 284.41 892.42 294.24
  Q 890.45 301.40 890.47 307.26
  Q 890.63 361.42 890.41 402.29
  C 890.33 418.53 893.53 433.55 908.22 442.00
  Q 915.04 445.93 923.85 446.68
  Q 933.74 447.52 940.41 446.38
  C 963.26 442.49 971.11 423.47 971.25 402.25
  Q 971.32 391.06 971.13 381.21
  A 0.83 0.82 -0.7 0 0 970.30 380.41
  L 947.76 380.41
  A 1.49 1.49 0.0 0 0 946.27 381.93
  Q 946.56 398.97 945.49 408.80
  Q 944.90 414.16 942.98 417.25
  C 940.05 421.96 933.30 423.10 928.20 422.12
  C 918.61 420.27 916.65 411.83 916.69 403.50
  Q 916.91 351.72 916.67 313.83
  Q 916.62 306.90 917.62 303.35
  C 920.66 292.57 928.71 290.25 938.43 293.85
  Z
  M 381.69 420.23
  C 377.49 417.82 376.67 411.23 376.69 407.00
  Q 376.89 364.91 376.69 309.50
  C 376.67 302.58 377.39 295.90 384.05 293.61
  C 388.71 292.01 395.38 291.66 399.21 294.87
  Q 404.64 299.41 404.93 307.21
  Q 405.17 313.71 404.96 327.91
  A 0.56 0.56 0.0 0 0 405.52 328.48
  L 429.19 328.48
  A 0.65 0.65 0.0 0 0 429.84 327.84
  Q 430.00 314.26 429.52 304.58
  C 428.85 291.09 423.43 278.98 411.61 272.61
  C 402.33 267.62 390.72 267.19 380.28 268.66
  C 368.88 270.25 358.64 276.99 354.00 287.72
  Q 350.53 295.72 349.80 304.02
  C 349.36 308.90 348.80 316.27 348.80 323.01
  Q 348.81 380.05 348.79 397.08
  C 348.79 401.52 349.41 406.12 349.56 409.75
  C 349.75 414.27 351.90 422.87 353.44 426.30
  Q 361.11 443.37 379.80 446.20
  C 389.98 447.74 400.26 447.52 409.90 443.12
  C 423.36 436.99 429.16 423.68 429.52 409.76
  Q 429.92 394.78 429.81 381.70
  A 1.28 1.28 0.0 0 0 428.53 380.43
  L 405.99 380.43
  Q 405.03 380.43 405.03 381.39
  Q 404.97 404.54 404.97 406.25
  C 404.96 413.36 402.68 419.21 395.56 421.54
  Q 388.19 423.96 381.69 420.23
  Z
  M 482.47 413.12
  Q 483.20 412.94 484.25 412.93
  Q 510.69 412.84 512.36 412.79
  Q 515.99 412.68 516.58 416.37
  Q 518.79 430.01 519.72 438.50
  Q 520.07 441.72 521.33 443.90
  Q 521.85 444.80 522.89 444.80
  L 546.86 444.80
  Q 547.38 444.80 547.39 444.29
  C 547.52 439.00 545.60 432.83 544.93 428.10
  Q 543.74 419.67 543.72 419.56
  Q 535.18 366.18 528.51 323.49
  C 525.98 307.28 522.65 289.91 520.79 272.58
  A 2.63 2.62 -3.0 0 0 518.18 270.24
  L 480.97 270.24
  Q 480.40 270.24 480.31 270.81
  Q 475.70 301.38 457.17 416.60
  Q 456.25 422.33 453.33 443.66
  Q 453.19 444.74 454.27 444.74
  L 477.13 444.74
  Q 477.52 444.74 477.57 444.36
  L 481.81 413.86
  A 0.89 0.89 0.0 0 1 482.47 413.12
  Z
  M 600.33 373.67
  C 609.67 373.04 619.90 371.81 625.45 381.30
  C 628.24 386.06 628.19 395.29 628.07 400.77
  Q 627.75 415.23 628.22 431.30
  Q 628.43 438.31 630.17 444.20
  Q 630.34 444.79 630.95 444.79
  L 657.10 444.79
  A 0.64 0.61 -71.1 0 0 657.60 444.53
  Q 658.11 443.82 656.96 443.21
  A 1.06 1.05 -78.5 0 1 656.41 442.37
  C 656.00 436.77 654.27 430.72 654.23 424.50
  Q 654.16 409.90 654.28 395.30
  C 654.39 383.40 652.71 370.15 642.63 363.11
  Q 640.86 361.87 638.20 360.03
  A 0.75 0.71 -45.4 0 1 638.22 358.84
  Q 638.27 358.80 641.65 356.37
  C 649.71 350.56 653.52 340.71 654.03 331.04
  Q 654.77 316.84 654.03 303.06
  Q 653.63 295.58 652.37 291.99
  C 646.38 274.82 632.40 269.92 615.50 270.14
  Q 603.34 270.29 574.32 270.20
  Q 573.81 270.19 573.81 270.71
  L 573.81 444.17
  Q 573.81 444.81 574.44 444.81
  L 599.47 444.81
  Q 600.03 444.81 600.03 444.24
  L 600.03 374.00
  A 0.33 0.32 88.2 0 1 600.33 373.67
  Z
  M 773.36 323.46
  Q 774.25 321.80 774.25 323.68
  L 774.25 443.77
  Q 774.25 444.80 775.27 444.80
  L 799.97 444.80
  A 0.53 0.52 0.0 0 0 800.50 444.28
  L 800.50 270.74
  Q 800.50 270.25 800.00 270.25
  L 763.59 270.25
  A 1.86 1.85 3.7 0 0 761.75 271.86
  Q 760.02 285.35 759.71 287.55
  Q 752.70 336.78 745.19 385.76
  Q 744.86 387.90 743.85 392.58
  Q 743.53 394.03 743.10 392.61
  Q 741.54 387.42 740.42 379.22
  Q 739.90 375.36 737.15 358.35
  Q 734.67 343.05 728.13 302.33
  Q 724.90 282.22 723.55 270.50
  A 0.34 0.33 86.0 0 0 723.22 270.21
  L 686.49 270.21
  A 0.28 0.28 0.0 0 0 686.21 270.49
  L 686.21 444.51
  A 0.29 0.28 -0.0 0 0 686.50 444.79
  L 708.21 444.79
  A 0.48 0.48 0.0 0 0 708.69 444.31
  Q 708.94 388.49 708.74 325.98
  Q 708.73 323.56 708.77 323.31
  Q 709.53 318.66 710.30 323.41
  L 729.70 444.35
  A 0.54 0.54 0.0 0 0 730.23 444.81
  L 754.62 444.81
  Q 755.11 444.81 755.22 444.33
  C 756.46 438.43 756.49 433.53 757.60 427.99
  C 758.16 425.22 758.41 419.72 759.42 415.29
  C 760.40 410.98 760.52 406.39 761.46 402.20
  C 762.08 399.46 762.04 396.52 762.50 393.75
  Q 765.25 376.92 768.48 354.29
  Q 769.02 350.49 769.23 348.80
  Q 770.39 339.27 771.90 328.96
  Q 772.45 325.19 773.36 323.46
  Z
  M 859.28 270.82
  A 0.62 0.62 0.0 0 0 858.66 270.20
  L 833.14 270.20
  A 0.62 0.62 0.0 0 0 832.52 270.82
  L 832.52 444.18
  A 0.62 0.62 0.0 0 0 833.14 444.80
  L 858.66 444.80
  A 0.62 0.62 0.0 0 0 859.28 444.18
  L 859.28 270.82
  Z
  M 1001.21 357.51
  Q 1001.21 388.47 1001.21 444.24
  A 0.57 0.56 89.8 0 0 1001.77 444.80
  L 1026.98 444.80
  A 0.52 0.52 0.0 0 0 1027.50 444.28
  L 1027.50 370.30
  A 0.50 0.49 -0.0 0 1 1028.00 369.81
  L 1058.74 369.81
  A 0.45 0.45 0.0 0 1 1059.19 370.26
  L 1059.19 444.25
  A 0.56 0.55 -0.0 0 0 1059.75 444.80
  L 1085.25 444.80
  A 0.93 0.93 0.0 0 0 1086.18 443.86
  Q 1086.12 436.38 1086.11 357.50
  Q 1086.11 278.63 1086.18 271.14
  A 0.93 0.93 0.0 0 0 1085.25 270.21
  L 1059.75 270.21
  A 0.56 0.55 -0.0 0 0 1059.19 270.76
  L 1059.19 344.75
  A 0.45 0.45 0.0 0 1 1058.74 345.20
  L 1028.00 345.20
  A 0.50 0.49 -0.0 0 1 1027.50 344.71
  L 1027.50 270.73
  A 0.52 0.52 0.0 0 0 1026.98 270.21
  L 1001.77 270.21
  A 0.57 0.56 -89.8 0 0 1001.20 270.78
  Q 1001.21 326.54 1001.21 357.51
  Z
  M 1175.30 413.44
  Q 1177.57 425.07 1179.26 441.18
  Q 1179.33 441.88 1179.36 444.37
  A 0.44 0.44 0.0 0 0 1179.80 444.80
  L 1206.75 444.80
  A 0.69 0.68 -13.7 0 0 1207.36 443.80
  Q 1206.54 442.22 1206.23 440.25
  Q 1184.22 300.34 1180.12 275.57
  Q 1179.76 273.39 1179.29 271.47
  A 1.66 1.66 0.0 0 0 1177.68 270.21
  L 1141.08 270.21
  A 0.99 0.98 8.2 0 0 1140.13 270.91
  Q 1138.97 274.65 1138.49 277.75
  Q 1134.82 301.49 1130.89 326.44
  Q 1130.38 329.64 1130.30 330.19
  Q 1127.99 345.98 1125.76 359.80
  Q 1116.03 420.21 1115.27 425.41
  C 1114.55 430.33 1113.52 437.90 1112.14 444.08
  A 0.54 0.54 0.0 0 0 1112.67 444.73
  L 1134.26 444.73
  A 2.70 2.69 4.2 0 0 1136.93 442.43
  Q 1139.04 427.84 1140.64 417.67
  Q 1140.88 416.16 1141.73 413.91
  Q 1141.91 413.42 1142.42 413.33
  Q 1144.66 412.93 1146.00 412.92
  Q 1160.46 412.81 1174.66 412.91
  A 0.67 0.67 0.0 0 1 1175.30 413.44
  Z
  M 1260.52 343.48
  A 0.60 0.60 0.0 0 1 1259.92 342.88
  L 1259.92 295.35
  A 0.60 0.60 0.0 0 1 1260.52 294.75
  L 1306.19 294.75
  A 0.60 0.60 0.0 0 0 1306.79 294.15
  L 1306.79 270.81
  A 0.60 0.60 0.0 0 0 1306.19 270.21
  L 1233.75 270.21
  A 0.60 0.60 0.0 0 0 1233.15 270.81
  L 1233.15 444.20
  A 0.60 0.60 0.0 0 0 1233.75 444.80
  L 1306.19 444.80
  A 0.60 0.60 0.0 0 0 1306.79 444.20
  L 1306.79 420.84
  A 0.60 0.60 0.0 0 0 1306.19 420.24
  L 1260.51 420.24
  A 0.60 0.60 0.0 0 1 1259.91 419.64
  L 1259.91 369.03
  A 0.60 0.60 0.0 0 1 1260.51 368.43
  L 1296.88 368.43
  A 0.60 0.60 0.0 0 0 1297.48 367.83
  L 1297.48 344.08
  A 0.60 0.60 0.0 0 0 1296.88 343.48
  L 1260.52 343.48
  Z
  M 1408.00 420.76
  A 0.50 0.50 0.0 0 0 1407.50 420.26
  L 1363.52 420.26
  A 0.50 0.50 0.0 0 1 1363.02 419.76
  L 1363.02 270.71
  A 0.50 0.50 0.0 0 0 1362.52 270.21
  L 1337.30 270.21
  A 0.50 0.50 0.0 0 0 1336.80 270.71
  L 1336.80 444.30
  A 0.50 0.50 0.0 0 0 1337.30 444.80
  L 1407.50 444.80
  A 0.50 0.50 0.0 0 0 1408.00 444.30
  L 1408.00 420.76
  Z
  M 1233.84 521.25
  C 1232.81 542.89 1243.32 565.13 1266.56 569.29
  C 1296.26 574.60 1314.63 552.42 1315.93 525.15
  C 1317.22 497.87 1301.04 474.05 1270.97 476.52
  C 1247.44 478.46 1234.86 499.60 1233.84 521.25
  Z
  M 799.27 524.32
  Q 799.98 523.76 801.19 523.31
  C 811.11 519.59 816.79 507.47 814.57 496.90
  C 812.04 484.93 802.95 479.07 791.49 477.52
  Q 778.64 475.78 765.54 478.18
  Q 762.68 478.70 759.66 478.57
  A 0.41 0.41 0.0 0 0 759.23 478.98
  L 759.23 568.40
  A 0.40 0.40 0.0 0 0 759.63 568.80
  L 769.98 568.80
  Q 770.49 568.80 770.49 568.29
  L 770.49 529.75
  A 0.51 0.51 0.0 0 1 770.98 529.24
  Q 779.29 529.00 785.04 529.22
  C 793.24 529.53 797.42 535.43 799.45 542.59
  Q 802.51 553.38 804.40 562.39
  Q 804.64 563.54 806.56 568.06
  Q 806.84 568.72 807.56 568.72
  L 816.87 568.72
  A 0.70 0.70 0.0 0 0 817.54 567.80
  Q 814.94 559.70 811.49 545.18
  C 809.28 535.84 806.48 530.47 799.29 525.40
  A 0.67 0.67 0.0 0 1 799.27 524.32
  Z
  M 877.96 524.30
  Q 878.66 523.74 879.87 523.30
  C 889.78 519.59 895.46 507.49 893.25 496.94
  C 890.74 484.98 881.66 479.12 870.22 477.57
  Q 857.39 475.82 844.31 478.21
  Q 841.46 478.72 838.44 478.59
  A 0.41 0.41 0.0 0 0 838.01 479.00
  L 837.94 568.28
  A 0.40 0.40 0.0 0 0 838.34 568.68
  L 848.68 568.69
  Q 849.19 568.69 849.19 568.18
  L 849.22 529.70
  A 0.51 0.51 0.0 0 1 849.70 529.19
  Q 858.00 528.96 863.74 529.18
  C 871.93 529.50 876.10 535.39 878.12 542.54
  Q 881.17 553.32 883.05 562.32
  Q 883.29 563.47 885.20 567.98
  Q 885.48 568.64 886.20 568.64
  L 895.49 568.65
  A 0.70 0.70 0.0 0 0 896.16 567.73
  Q 893.57 559.64 890.14 545.14
  C 887.94 535.81 885.15 530.45 877.97 525.38
  A 0.67 0.66 -46.3 0 1 877.96 524.30
  Z
  M 1021.09 481.82
  Q 1021.37 481.75 1021.52 481.58
  Q 1021.92 481.13 1021.36 480.92
  Q 1002.24 473.70 983.89 478.79
  C 954.50 486.95 944.08 517.16 954.24 543.86
  C 960.07 559.18 974.13 568.05 990.10 569.04
  C 1000.43 569.67 1010.60 568.89 1020.45 565.72
  Q 1021.24 565.47 1023.25 564.45
  Q 1023.73 564.21 1023.73 563.68
  L 1023.73 522.52
  Q 1023.73 521.81 1023.01 521.81
  L 996.00 521.81
  Q 995.55 521.81 995.55 522.25
  L 995.55 529.14
  A 0.61 0.61 0.0 0 0 996.16 529.75
  L 1011.57 529.75
  A 1.99 1.98 88.5 0 1 1013.55 531.63
  Q 1014.24 544.14 1013.63 553.52
  C 1013.48 555.75 1013.59 557.86 1011.13 558.59
  Q 1001.80 561.35 990.25 559.54
  Q 971.78 556.64 965.10 539.00
  Q 960.31 526.34 963.26 513.58
  Q 967.86 493.64 986.99 487.73
  C 997.37 484.52 1008.31 485.86 1018.19 489.36
  A 1.04 1.04 0.0 0 0 1019.56 488.53
  L 1020.38 482.62
  A 0.97 0.96 86.9 0 1 1021.09 481.82
  Z
  M 733.02 478.55
  A 0.64 0.64 0.0 0 0 732.38 477.91
  L 722.46 477.91
  A 0.64 0.64 0.0 0 0 721.82 478.55
  L 721.82 568.13
  A 0.64 0.64 0.0 0 0 722.46 568.77
  L 732.38 568.77
  A 0.64 0.64 0.0 0 0 733.02 568.13
  L 733.02 478.55
  Z
  M 928.02 478.58
  A 0.63 0.63 0.0 0 0 927.39 477.95
  L 917.43 477.95
  A 0.63 0.63 0.0 0 0 916.80 478.58
  L 916.80 568.18
  A 0.63 0.63 0.0 0 0 917.43 568.81
  L 927.39 568.81
  A 0.63 0.63 0.0 0 0 928.02 568.18
  L 928.02 478.58
  Z
  M 1096.39 541.74
  Q 1100.12 551.75 1104.12 565.71
  Q 1104.98 568.73 1108.24 568.84
  Q 1112.86 569.00 1117.03 568.42
  A 0.13 0.13 0.0 0 0 1117.14 568.25
  Q 1102.99 527.09 1087.78 481.23
  C 1086.34 476.91 1081.94 477.68 1077.72 477.60
  C 1072.61 477.49 1072.20 480.09 1070.65 484.66
  Q 1059.83 516.55 1042.72 567.23
  Q 1042.37 568.29 1043.47 568.47
  Q 1047.29 569.10 1051.66 568.65
  Q 1053.53 568.45 1053.97 567.46
  C 1057.64 559.17 1059.19 550.11 1062.89 541.81
  A 2.43 2.42 -78.0 0 1 1065.10 540.37
  L 1094.42 540.37
  A 2.10 2.10 0.0 0 1 1096.39 541.74
  Z
  M 1150.18 568.73
  Q 1152.74 568.73 1155.19 568.50
  Q 1155.46 568.48 1155.46 568.20
  L 1155.46 488.58
  A 0.58 0.58 0.0 0 1 1156.04 488.00
  L 1182.14 488.00
  Q 1183.04 488.00 1183.03 487.10
  L 1182.87 478.50
  Q 1182.86 477.82 1182.18 477.87
  Q 1180.92 477.97 1150.21 477.96
  Q 1119.51 477.95 1118.25 477.85
  Q 1117.57 477.80 1117.56 478.48
  L 1117.39 487.08
  Q 1117.38 487.98 1118.28 487.98
  L 1144.38 488.00
  A 0.58 0.58 0.0 0 1 1144.96 488.58
  L 1144.91 568.20
  Q 1144.91 568.48 1145.18 568.50
  Q 1147.63 568.73 1150.18 568.73
  Z
  M 1211.10 478.63
  A 0.67 0.67 0.0 0 0 1210.43 477.96
  L 1200.57 477.96
  A 0.67 0.67 0.0 0 0 1199.90 478.63
  L 1199.90 568.11
  A 0.67 0.67 0.0 0 0 1200.57 568.78
  L 1210.43 568.78
  A 0.67 0.67 0.0 0 0 1211.10 568.11
  L 1211.10 478.63
  Z
  M 1348.05 493.23
  Q 1348.60 492.22 1349.16 493.29
  C 1352.33 499.40 1354.88 504.97 1358.67 511.28
  Q 1364.17 520.45 1382.22 549.47
  Q 1389.55 561.26 1393.63 568.25
  Q 1393.90 568.72 1394.44 568.72
  L 1404.33 568.72
  A 0.45 0.45 0.0 0 0 1404.78 568.27
  L 1404.78 478.32
  A 0.36 0.35 -0.0 0 0 1404.42 477.97
  L 1395.23 477.97
  A 0.25 0.24 0.0 0 0 1394.98 478.21
  Q 1394.87 504.42 1394.98 530.96
  C 1395.01 538.48 1395.45 543.87 1396.34 551.10
  Q 1396.57 553.02 1395.28 551.59
  Q 1394.52 550.75 1393.56 548.98
  Q 1385.77 534.55 1382.53 529.27
  Q 1357.29 488.06 1352.35 480.56
  Q 1351.01 478.53 1349.90 478.33
  Q 1344.90 477.40 1339.67 477.92
  A 1.01 1.00 87.2 0 0 1338.77 478.92
  L 1338.77 568.53
  A 0.20 0.20 0.0 0 0 1338.97 568.73
  L 1347.73 568.73
  Q 1347.95 568.73 1347.96 568.50
  Q 1348.04 527.40 1347.83 494.96
  Q 1347.82 493.63 1348.05 493.23
  Z
  M 283.51 1053.57
  Q 281.88 1055.18 283.85 1054.01
  Q 323.74 1030.28 348.56 991.11
  Q 375.68 948.31 377.61 894.79
  Q 377.96 885.18 377.01 874.84
  Q 373.32 834.46 355.48 801.38
  C 320.82 737.08 255.67 699.31 182.75 700.47
  Q 182.14 700.48 182.02 701.07
  C 173.91 738.26 179.27 777.03 198.24 810.28
  Q 209.46 829.95 226.15 844.37
  C 256.30 870.42 285.22 893.32 304.04 927.36
  C 313.33 944.14 318.38 964.48 318.14 982.76
  Q 317.65 1021.13 289.57 1048.21
  C 287.95 1049.77 285.32 1051.77 283.51 1053.57
  Z
  M 170.93 703.36
  Q 172.68 701.34 170.31 702.59
  C 162.49 706.75 154.90 713.01 148.30 718.80
  Q 135.24 730.27 122.99 742.88
  A 0.46 0.45 52.4 0 0 122.93 743.42
  Q 123.09 743.71 123.52 743.77
  Q 130.25 744.69 141.17 745.98
  A 1.14 1.14 0.0 0 0 142.29 745.43
  Q 149.25 733.82 158.89 719.41
  Q 165.12 710.11 170.93 703.36
  Z
  M 154.26 705.81
  C 132.79 712.93 114.76 725.07 98.01 740.19
  A 0.58 0.57 26.3 0 0 98.35 741.19
  L 113.95 742.49
  A 0.82 0.82 0.0 0 0 114.62 742.22
  Q 131.93 723.09 154.14 706.87
  Q 154.63 706.52 154.69 706.45
  Q 155.57 705.38 154.26 705.81
  Z
  M 128.55 710.25
  Q 128.43 710.14 128.28 710.20
  Q 100.34 720.49 76.60 738.35
  Q 76.21 738.64 76.50 739.06
  A 0.36 0.34 73.6 0 0 76.77 739.22
  L 87.66 739.90
  A 1.39 1.36 -64.1 0 0 88.69 739.53
  Q 106.85 722.61 128.82 710.68
  Q 128.96 710.60 128.84 710.50
  L 128.55 710.25
  Z
  M 31.18 788.19
  Q 24.41 798.85 20.04 808.57
  A 0.55 0.54 12.2 0 0 20.54 809.34
  L 39.39 809.34
  A 0.84 0.83 -78.0 0 0 40.15 808.84
  Q 54.73 774.43 80.86 747.29
  A 0.57 0.48 85.3 0 0 80.96 747.15
  Q 81.38 746.29 80.50 746.23
  Q 73.06 745.73 69.08 745.45
  A 2.51 2.49 -63.2 0 0 67.28 746.05
  Q 46.52 764.01 31.18 788.19
  Z
  M 89.72 747.82
  C 72.03 765.24 57.33 786.16 47.37 808.92
  A 0.59 0.59 0.0 0 0 47.87 809.75
  L 71.46 811.22
  A 0.98 0.97 -77.5 0 0 72.44 810.59
  Q 85.16 777.06 108.11 749.60
  A 0.56 0.56 0.0 0 0 107.73 748.68
  L 91.15 747.30
  A 1.83 1.81 -64.6 0 0 89.72 747.82
  Z
  M 81.88 804.91
  Q 80.51 808.08 79.48 810.92
  A 0.63 0.63 0.0 0 0 80.02 811.76
  L 109.25 814.19
  A 0.60 0.59 12.9 0 0 109.86 813.81
  C 113.52 803.68 117.07 795.88 122.24 784.23
  Q 128.77 769.55 137.90 753.30
  A 0.65 0.64 -71.2 0 0 137.43 752.34
  L 117.64 749.59
  A 1.39 1.38 -65.3 0 0 116.39 750.06
  Q 94.81 774.87 81.88 804.91
  Z
  M 884.60 773.74
  A 0.53 0.53 0.0 0 0 884.07 773.21
  L 820.43 773.21
  A 0.53 0.53 0.0 0 0 819.90 773.74
  L 819.90 817.00
  A 0.53 0.53 0.0 0 0 820.43 817.53
  L 884.07 817.53
  A 0.53 0.53 0.0 0 0 884.60 817.00
  L 884.60 773.74
  Z
  M 584.71 901.86
  C 594.89 896.76 604.13 890.89 610.70 882.51
  C 619.89 870.81 622.84 857.34 622.72 842.34
  C 622.55 820.71 613.62 802.19 595.74 790.30
  C 580.19 779.96 560.49 776.74 542.25 776.58
  Q 536.75 776.53 424.34 776.54
  A 0.26 0.25 0.0 0 0 424.08 776.79
  L 424.08 999.28
  A 0.19 0.19 0.0 0 0 424.27 999.47
  L 493.07 999.47
  Q 493.62 999.47 493.62 998.91
  L 493.62 915.00
  Q 493.62 914.39 494.24 914.39
  L 514.41 914.39
  Q 514.97 914.39 515.18 914.92
  L 547.22 998.75
  Q 547.50 999.47 548.26 999.47
  L 623.25 999.47
  A 0.34 0.34 0.0 0 0 623.56 999.00
  L 584.01 903.74
  A 1.48 1.46 -24.8 0 1 584.71 901.86
  Z
  M 1155.63 895.18
  L 1155.63 776.96
  A 0.42 0.42 0.0 0 0 1155.21 776.54
  L 1091.49 776.54
  A 0.46 0.45 -90.0 0 0 1091.04 777.00
  L 1091.04 999.25
  A 0.22 0.21 90.0 0 0 1091.25 999.47
  L 1155.29 999.47
  A 0.35 0.35 0.0 0 0 1155.64 999.12
  L 1155.64 954.73
  A 2.90 2.88 -26.4 0 1 1156.24 952.97
  L 1170.97 934.00
  Q 1171.80 932.93 1172.37 934.15
  L 1202.80 999.01
  Q 1203.02 999.47 1203.53 999.47
  L 1269.79 999.47
  Q 1270.51 999.47 1270.18 998.82
  L 1215.00 891.55
  A 1.50 1.50 0.0 0 1 1215.20 889.90
  L 1263.95 834.28
  A 0.53 0.52 20.6 0 0 1263.55 833.41
  L 1209.24 833.41
  A 1.57 1.56 -69.3 0 0 1208.06 833.95
  Q 1172.90 874.31 1172.64 874.61
  C 1166.87 881.27 1161.48 888.86 1156.52 895.48
  Q 1155.63 896.66 1155.63 895.18
  Z
  M 2.35 882.51
  L 23.44 882.51
  A 0.54 0.54 0.0 0 0 23.98 881.98
  Q 25.08 848.52 36.92 816.86
  A 0.63 0.63 0.0 0 0 36.33 816.01
  L 17.40 816.01
  A 1.13 1.13 0.0 0 0 16.36 816.70
  Q 3.45 847.99 2.16 882.30
  A 0.20 0.19 -88.6 0 0 2.35 882.51
  Z
  M 55.06 817.03
  C 50.25 816.76 47.09 816.70 45.45 816.50
  Q 44.16 816.36 43.61 817.82
  Q 31.99 848.86 30.66 881.91
  A 0.65 0.65 0.0 0 0 31.31 882.58
  L 57.91 882.58
  A 0.19 0.19 0.0 0 0 58.10 882.40
  Q 59.18 849.57 69.62 818.43
  A 0.47 0.47 0.0 0 0 69.20 817.81
  Q 65.42 817.59 55.06 817.03
  Z
  M 91.84 884.90
  A 0.35 0.35 0.0 0 0 92.21 884.59
  Q 96.18 852.34 107.18 821.55
  A 0.60 0.60 0.0 0 0 106.66 820.75
  L 77.42 818.31
  A 0.90 0.88 -77.7 0 0 76.51 818.91
  Q 65.90 849.95 64.91 882.86
  A 0.37 0.36 -87.6 0 0 65.25 883.24
  L 91.84 884.90
  Z
  M 692.17 930.00
  Q 692.23 929.35 692.88 929.35
  L 802.92 929.35
  Q 803.31 929.35 803.33 928.96
  C 804.16 910.62 802.04 892.54 794.27 876.11
  C 781.33 848.75 756.11 833.61 726.33 830.70
  C 686.40 826.80 647.58 842.60 631.35 881.49
  C 620.64 907.14 620.75 934.94 634.11 959.63
  C 653.18 994.88 692.11 1005.76 730.22 1002.20
  C 764.90 998.96 794.39 979.40 803.36 944.41
  A 0.47 0.46 -81.3 0 0 802.94 943.83
  L 743.22 940.11
  A 0.89 0.88 7.4 0 0 742.29 940.82
  Q 739.15 957.53 723.36 959.70
  C 709.40 961.62 696.49 957.51 693.12 942.51
  Q 691.67 936.08 692.17 930.00
  Z
  M 970.42 856.51
  Q 969.97 856.38 969.98 855.76
  Q 970.03 843.89 970.09 833.80
  A 0.38 0.38 0.0 0 0 969.71 833.42
  L 909.46 833.42
  A 0.38 0.37 0.0 0 0 909.08 833.79
  L 909.08 999.26
  A 0.21 0.21 0.0 0 0 909.29 999.47
  L 973.16 999.47
  Q 973.64 999.47 973.64 998.99
  Q 973.58 911.50 973.58 902.50
  C 973.59 889.52 976.03 875.33 992.12 874.78
  C 1004.70 874.35 1007.02 884.43 1007.02 894.52
  Q 1007.01 962.08 1007.04 998.95
  Q 1007.04 999.47 1007.56 999.47
  L 1071.30 999.47
  A 0.43 0.43 0.0 0 0 1071.73 999.04
  Q 1071.73 909.10 1071.73 897.00
  C 1071.72 876.68 1071.38 851.26 1051.98 838.96
  Q 1041.50 832.32 1028.45 830.82
  C 1006.13 828.27 980.32 833.47 970.97 856.23
  A 0.47 0.45 -70.8 0 1 970.42 856.51
  Z
  M 1330.11 930.00
  Q 1330.17 929.35 1330.82 929.35
  L 1440.85 929.35
  Q 1441.24 929.35 1441.26 928.96
  C 1442.09 910.62 1439.97 892.54 1432.20 876.11
  C 1419.27 848.76 1394.05 833.61 1364.27 830.70
  C 1324.34 826.80 1285.52 842.60 1269.29 881.49
  C 1258.58 907.13 1258.69 934.93 1272.05 959.62
  C 1291.12 994.87 1330.04 1005.75 1368.15 1002.19
  C 1402.83 998.96 1432.32 979.40 1441.29 944.41
  A 0.47 0.46 -81.3 0 0 1440.87 943.83
  L 1381.15 940.11
  A 0.89 0.88 7.4 0 0 1380.22 940.82
  Q 1377.08 957.53 1361.29 959.70
  C 1347.33 961.61 1334.42 957.50 1331.06 942.51
  Q 1329.61 936.08 1330.11 930.00
  Z
  M 884.60 833.93
  A 0.52 0.52 0.0 0 0 884.08 833.41
  L 820.42 833.41
  A 0.52 0.52 0.0 0 0 819.90 833.93
  L 819.90 998.93
  A 0.52 0.52 0.0 0 0 820.42 999.45
  L 884.08 999.45
  A 0.52 0.52 0.0 0 0 884.60 998.93
  L 884.60 833.93
  Z
  M 14.19 955.76
  A 0.49 0.49 0.0 0 0 14.65 956.08
  L 33.69 956.08
  A 0.75 0.75 0.0 0 0 34.40 955.09
  Q 23.87 923.50 23.68 889.97
  A 0.56 0.56 0.0 0 0 23.12 889.41
  L 2.66 889.41
  Q 2.13 889.41 2.07 889.93
  Q 1.82 891.96 2.76 904.25
  Q 4.79 930.86 14.19 955.76
  Z
  M 41.48 955.11
  A 1.03 1.01 80.3 0 0 42.44 955.80
  L 67.31 955.80
  A 0.36 0.36 0.0 0 0 67.65 955.34
  Q 57.87 923.34 58.08 889.96
  Q 58.08 889.46 57.58 889.46
  L 30.89 889.46
  A 0.41 0.40 -90.0 0 0 30.49 889.87
  Q 30.62 923.31 41.48 955.11
  Z
  M 94.66 954.38
  Q 88.70 923.47 91.53 892.33
  A 0.62 0.62 0.0 0 0 90.95 891.65
  L 65.25 890.05
  Q 64.70 890.02 64.70 890.56
  Q 64.80 923.91 74.92 955.78
  A 0.82 0.81 82.7 0 0 75.65 956.35
  L 94.76 957.54
  A 0.54 0.54 0.0 0 0 95.30 956.83
  Q 94.91 955.69 94.66 954.38
  Z
  M 107.84 1030.00
  Q 82.85 1000.02 70.41 963.34
  A 1.15 1.14 80.3 0 0 69.33 962.57
  L 44.93 962.57
  A 0.41 0.40 -10.8 0 0 44.55 963.12
  Q 59.69 1000.81 87.42 1028.86
  Q 88.05 1029.50 88.94 1029.55
  L 107.48 1030.71
  A 0.43 0.43 0.0 0 0 107.84 1030.00
  Z
  M 76.00 1026.86
  Q 50.69 999.06 37.32 963.26
  A 0.88 0.88 0.0 0 0 36.49 962.68
  L 18.02 962.68
  A 0.77 0.76 78.3 0 0 17.32 963.75
  Q 33.72 1001.31 63.40 1028.40
  A 3.01 2.71 63.9 0 0 65.32 1029.17
  L 77.22 1029.17
  A 0.35 0.34 -18.4 0 0 77.50 1028.62
  Q 77.05 1028.02 76.00 1026.86
  Z
  M 128.71 1031.46
  C 113.93 1011.50 103.41 989.06 97.13 964.84
  Q 96.99 964.33 96.47 964.30
  L 78.29 963.16
  A 0.59 0.58 -8.8 0 0 77.71 963.95
  Q 91.67 1001.13 117.05 1030.32
  Q 118.30 1031.76 120.20 1031.92
  L 128.09 1032.58
  Q 129.63 1032.71 128.71 1031.46
  Z
  M 356.90 1034.19
  A 11.81 11.81 0.0 0 0 345.09 1022.38
  A 11.81 11.81 0.0 0 0 333.28 1034.19
  A 11.81 11.81 0.0 0 0 345.09 1046.00
  A 11.81 11.81 0.0 0 0 356.90 1034.19
  Z
  M 120.79 1064.16
  Q 120.88 1063.98 120.70 1063.87
  Q 101.86 1052.48 86.21 1037.45
  Q 85.12 1036.40 83.60 1036.30
  L 73.27 1035.66
  Q 71.63 1035.56 72.92 1036.58
  Q 94.69 1053.89 120.49 1064.26
  Q 120.69 1064.34 120.78 1064.16
  L 120.79 1064.16
  Z
  M 112.61 1037.79
  L 96.73 1036.80
  A 0.38 0.38 0.0 0 0 96.45 1037.45
  C 114.37 1053.96 134.35 1066.48 158.27 1072.98
  Q 158.87 1073.14 158.88 1072.66
  A 0.27 0.25 -77.1 0 0 158.75 1072.43
  C 142.25 1063.38 126.54 1052.94 114.52 1038.75
  Q 113.77 1037.86 112.61 1037.79
  Z
  M 182.40 1073.19
  Q 155.74 1061.34 135.23 1040.44
  Q 134.82 1040.03 134.24 1039.98
  L 126.48 1039.33
  A 0.37 0.37 0.0 0 0 126.19 1039.96
  C 142.00 1056.14 161.93 1069.85 184.27 1074.80
  Q 186.99 1075.41 184.92 1074.34
  Q 184.41 1074.08 182.40 1073.19
  Z"
/>
<path fill="#000000" d="
  M 0.00 350.61
  L 0.00 337.26
  Q 2.05 308.72 10.14 284.43
  Q 14.68 270.81 24.79 257.80
  Q 44.18 232.84 44.85 231.87
  Q 45.85 230.45 46.86 228.34
  Q 48.30 225.38 48.62 228.66
  Q 49.00 232.62 50.33 239.24
  Q 51.40 244.62 52.32 260.50
  Q 53.00 272.28 53.10 308.90
  C 53.14 319.70 54.01 332.06 54.44 341.28
  Q 54.94 352.21 57.33 364.79
  Q 63.47 397.14 83.47 421.44
  Q 90.66 430.18 100.25 439.09
  A 0.49 0.49 0.0 0 0 101.03 438.92
  Q 101.66 437.43 102.07 435.11
  Q 103.03 429.56 104.38 410.98
  Q 104.99 402.57 104.98 391.00
  Q 104.95 224.47 104.97 173.50
  Q 104.98 163.62 107.76 146.77
  C 112.58 117.65 125.88 89.80 147.35 70.08
  Q 162.05 56.59 177.68 48.42
  Q 197.27 38.18 201.61 35.75
  Q 205.07 33.80 218.66 25.33
  Q 236.07 14.47 247.31 9.29
  C 260.75 3.09 277.15 -1.38 292.04 0.72
  Q 310.79 3.36 327.43 13.43
  A 1.59 1.59 0.0 0 1 327.41 16.17
  Q 248.46 62.33 197.11 91.62
  Q 194.07 93.35 187.34 98.29
  C 165.59 114.20 156.31 140.22 153.87 165.81
  Q 153.51 169.59 153.67 170.21
  Q 153.81 170.71 154.33 170.69
  Q 156.25 170.63 157.15 170.18
  C 166.92 165.20 175.98 160.75 184.66 155.86
  C 198.06 148.30 210.97 141.24 223.72 134.02
  Q 268.97 108.42 367.34 53.56
  Q 371.19 51.41 386.04 44.47
  C 405.57 35.34 427.52 29.67 448.73 28.43
  Q 467.56 27.32 485.15 29.70
  Q 499.16 31.59 515.89 37.20
  Q 537.23 44.36 558.33 57.00
  C 573.26 65.95 582.90 71.83 595.66 79.10
  Q 626.49 96.67 658.00 115.38
  Q 666.01 120.14 672.59 125.07
  C 676.88 128.29 681.28 132.08 683.28 137.02
  C 687.12 146.51 681.02 155.76 674.46 162.20
  Q 651.76 184.52 623.31 198.78
  Q 604.09 208.42 582.67 210.23
  C 579.02 210.53 574.27 210.17 570.48 210.35
  Q 567.61 210.48 565.58 210.35
  Q 546.86 209.12 530.88 203.42
  Q 511.72 196.58 488.15 183.16
  Q 488.05 183.10 416.99 140.69
  A 0.66 0.65 46.1 0 1 417.01 139.55
  C 430.21 132.46 445.63 126.50 461.17 127.28
  C 464.82 127.47 468.30 127.17 472.26 127.62
  Q 482.67 128.80 492.08 132.46
  C 506.24 137.97 520.48 147.69 532.10 154.16
  C 558.08 168.62 586.48 168.28 609.48 148.23
  A 0.17 0.17 0.0 0 0 609.51 148.01
  Q 603.57 139.48 595.72 132.06
  C 568.04 105.86 531.15 88.85 493.87 82.22
  Q 486.46 80.91 472.99 79.62
  Q 461.08 78.48 453.00 79.01
  C 434.96 80.19 417.01 83.51 399.97 91.20
  Q 382.57 99.05 345.11 119.12
  Q 318.53 133.36 285.92 151.93
  Q 258.33 167.64 189.23 208.18
  C 182.86 211.92 174.08 216.78 166.98 221.00
  Q 160.78 224.69 158.51 227.65
  C 153.20 234.57 151.92 243.18 151.91 251.75
  Q 151.90 289.96 151.91 441.13
  Q 151.91 450.93 152.79 454.80
  C 155.25 465.70 161.98 474.98 171.40 481.17
  Q 176.92 484.80 182.95 488.36
  Q 223.99 512.64 278.82 544.26
  Q 307.15 560.60 336.92 578.53
  C 342.85 582.10 348.48 584.77 355.31 585.70
  C 363.59 586.84 372.32 583.52 379.64 579.14
  Q 396.69 568.94 413.70 558.73
  Q 435.00 545.95 511.24 502.25
  Q 525.74 493.94 542.00 492.11
  Q 556.05 490.52 577.08 491.90
  Q 597.02 493.21 619.16 501.28
  C 634.59 506.91 648.60 514.27 661.23 524.59
  Q 671.49 532.97 677.32 543.98
  C 680.07 549.16 679.18 556.38 677.30 562.15
  Q 673.97 572.35 664.98 577.73
  Q 570.48 634.26 471.74 688.73
  Q 462.61 693.76 455.13 696.62
  C 433.46 704.91 409.83 697.83 391.03 685.66
  A 1.00 1.00 0.0 0 1 391.07 683.95
  L 610.98 556.98
  A 0.63 0.63 0.0 0 0 611.09 555.97
  C 599.35 545.49 584.75 537.21 568.78 536.68
  Q 555.72 536.25 544.33 539.86
  Q 537.67 541.98 528.41 546.92
  Q 524.62 548.95 510.54 557.10
  Q 506.86 559.23 411.15 614.87
  Q 369.52 639.07 341.29 654.78
  C 316.14 668.76 291.06 680.69 263.76 682.55
  C 247.94 683.62 234.13 679.56 220.04 672.84
  C 188.30 657.70 156.88 640.00 128.78 622.46
  Q 125.92 620.67 124.09 619.40
  Q 105.61 606.50 103.26 583.72
  Q 102.56 576.89 103.18 565.72
  Q 103.45 560.90 105.12 557.82
  Q 105.39 557.32 105.88 557.60
  Q 121.26 566.20 129.99 570.80
  C 152.73 582.79 174.67 595.38 204.97 612.69
  Q 212.56 617.02 226.92 624.71
  Q 237.40 630.32 248.32 632.71
  C 269.77 637.42 288.01 629.15 305.11 617.02
  Q 305.66 616.63 305.11 616.24
  C 288.39 604.34 271.58 593.70 253.97 583.62
  Q 160.64 530.20 87.54 487.50
  Q 57.17 469.76 35.48 443.12
  Q 12.66 415.11 4.33 378.71
  C 2.41 370.31 1.23 359.98 0.00 350.61
  Z"
/>
<path fill="#000000" d="
  M 945.51 306.55
  C 945.07 301.56 943.38 295.68 938.43 293.85
  C 928.71 290.25 920.66 292.57 917.62 303.35
  Q 916.62 306.90 916.67 313.83
  Q 916.91 351.72 916.69 403.50
  C 916.65 411.83 918.61 420.27 928.20 422.12
  C 933.30 423.10 940.05 421.96 942.98 417.25
  Q 944.90 414.16 945.49 408.80
  Q 946.56 398.97 946.27 381.93
  A 1.49 1.49 0.0 0 1 947.76 380.41
  L 970.30 380.41
  A 0.83 0.82 -0.7 0 1 971.13 381.21
  Q 971.32 391.06 971.25 402.25
  C 971.11 423.47 963.26 442.49 940.41 446.38
  Q 933.74 447.52 923.85 446.68
  Q 915.04 445.93 908.22 442.00
  C 893.53 433.55 890.33 418.53 890.41 402.29
  Q 890.63 361.42 890.47 307.26
  Q 890.45 301.40 892.42 294.24
  C 895.12 284.41 900.21 277.54 908.95 272.56
  C 917.67 267.60 929.91 267.20 940.23 268.57
  C 955.26 270.56 965.97 281.66 969.17 296.18
  C 971.56 307.04 971.57 316.55 971.17 328.01
  Q 971.16 328.47 970.70 328.47
  L 947.06 328.47
  Q 946.40 328.47 946.40 327.81
  Q 946.45 317.26 945.51 306.55
  Z"
/>
<path fill="#000000" d="
  M 381.69 420.23
  Q 388.19 423.96 395.56 421.54
  C 402.68 419.21 404.96 413.36 404.97 406.25
  Q 404.97 404.54 405.03 381.39
  Q 405.03 380.43 405.99 380.43
  L 428.53 380.43
  A 1.28 1.28 0.0 0 1 429.81 381.70
  Q 429.92 394.78 429.52 409.76
  C 429.16 423.68 423.36 436.99 409.90 443.12
  C 400.26 447.52 389.98 447.74 379.80 446.20
  Q 361.11 443.37 353.44 426.30
  C 351.90 422.87 349.75 414.27 349.56 409.75
  C 349.41 406.12 348.79 401.52 348.79 397.08
  Q 348.81 380.05 348.80 323.01
  C 348.80 316.27 349.36 308.90 349.80 304.02
  Q 350.53 295.72 354.00 287.72
  C 358.64 276.99 368.88 270.25 380.28 268.66
  C 390.72 267.19 402.33 267.62 411.61 272.61
  C 423.43 278.98 428.85 291.09 429.52 304.58
  Q 430.00 314.26 429.84 327.84
  A 0.65 0.65 0.0 0 1 429.19 328.48
  L 405.52 328.48
  A 0.56 0.56 0.0 0 1 404.96 327.91
  Q 405.17 313.71 404.93 307.21
  Q 404.64 299.41 399.21 294.87
  C 395.38 291.66 388.71 292.01 384.05 293.61
  C 377.39 295.90 376.67 302.58 376.69 309.50
  Q 376.89 364.91 376.69 407.00
  C 376.67 411.23 377.49 417.82 381.69 420.23
  Z"
/>
<path fill="#000000" d="
  M 482.47 413.12
  A 0.89 0.89 0.0 0 0 481.81 413.86
  L 477.57 444.36
  Q 477.52 444.74 477.13 444.74
  L 454.27 444.74
  Q 453.19 444.74 453.33 443.66
  Q 456.25 422.33 457.17 416.60
  Q 475.70 301.38 480.31 270.81
  Q 480.40 270.24 480.97 270.24
  L 518.18 270.24
  A 2.63 2.62 -3.0 0 1 520.79 272.58
  C 522.65 289.91 525.98 307.28 528.51 323.49
  Q 535.18 366.18 543.72 419.56
  Q 543.74 419.67 544.93 428.10
  C 545.60 432.83 547.52 439.00 547.39 444.29
  Q 547.38 444.80 546.86 444.80
  L 522.89 444.80
  Q 521.85 444.80 521.33 443.90
  Q 520.07 441.72 519.72 438.50
  Q 518.79 430.01 516.58 416.37
  Q 515.99 412.68 512.36 412.79
  Q 510.69 412.84 484.25 412.93
  Q 483.20 412.94 482.47 413.12
  Z
  M 486.77 390.30
  L 510.52 390.30
  A 1.33 1.33 0.0 0 0 511.85 388.85
  Q 510.93 378.69 508.86 364.90
  Q 502.70 323.86 499.83 302.71
  Q 499.56 300.74 498.56 302.45
  Q 498.16 303.13 497.80 304.75
  Q 496.43 310.82 495.51 319.88
  Q 495.27 322.26 494.71 325.10
  C 493.98 328.78 493.45 334.44 493.11 336.82
  Q 491.06 351.23 485.51 388.84
  A 1.27 1.27 0.0 0 0 486.77 390.30
  Z"
/>
<path fill="#000000" d="
  M 600.33 373.67
  A 0.33 0.32 88.2 0 0 600.03 374.00
  L 600.03 444.24
  Q 600.03 444.81 599.47 444.81
  L 574.44 444.81
  Q 573.81 444.81 573.81 444.17
  L 573.81 270.71
  Q 573.81 270.19 574.32 270.20
  Q 603.34 270.29 615.50 270.14
  C 632.40 269.92 646.38 274.82 652.37 291.99
  Q 653.63 295.58 654.03 303.06
  Q 654.77 316.84 654.03 331.04
  C 653.52 340.71 649.71 350.56 641.65 356.37
  Q 638.27 358.80 638.22 358.84
  A 0.75 0.71 -45.4 0 0 638.20 360.03
  Q 640.86 361.87 642.63 363.11
  C 652.71 370.15 654.39 383.40 654.28 395.30
  Q 654.16 409.90 654.23 424.50
  C 654.27 430.72 656.00 436.77 656.41 442.37
  A 1.06 1.05 -78.5 0 0 656.96 443.21
  Q 658.11 443.82 657.60 444.53
  A 0.64 0.61 -71.1 0 1 657.10 444.79
  L 630.95 444.79
  Q 630.34 444.79 630.17 444.20
  Q 628.43 438.31 628.22 431.30
  Q 627.75 415.23 628.07 400.77
  C 628.19 395.29 628.24 386.06 625.45 381.30
  C 619.90 371.81 609.67 373.04 600.33 373.67
  Z
  M 600.01 295.54
  L 600.01 347.88
  A 1.07 1.07 0.0 0 0 601.08 348.95
  L 614.50 348.95
  A 15.96 13.49 -90.0 0 0 627.99 332.99
  L 627.99 310.43
  A 15.96 13.49 90.0 0 0 614.50 294.47
  L 601.08 294.47
  A 1.07 1.07 0.0 0 0 600.01 295.54
  Z"
/>
<path fill="#000000" d="
  M 773.36 323.46
  Q 772.45 325.19 771.90 328.96
  Q 770.39 339.27 769.23 348.80
  Q 769.02 350.49 768.48 354.29
  Q 765.25 376.92 762.50 393.75
  C 762.04 396.52 762.08 399.46 761.46 402.20
  C 760.52 406.39 760.40 410.98 759.42 415.29
  C 758.41 419.72 758.16 425.22 757.60 427.99
  C 756.49 433.53 756.46 438.43 755.22 444.33
  Q 755.11 444.81 754.62 444.81
  L 730.23 444.81
  A 0.54 0.54 0.0 0 1 729.70 444.35
  L 710.30 323.41
  Q 709.53 318.66 708.77 323.31
  Q 708.73 323.56 708.74 325.98
  Q 708.94 388.49 708.69 444.31
  A 0.48 0.48 0.0 0 1 708.21 444.79
  L 686.50 444.79
  A 0.29 0.28 -0.0 0 1 686.21 444.51
  L 686.21 270.49
  A 0.28 0.28 0.0 0 1 686.49 270.21
  L 723.22 270.21
  A 0.34 0.33 86.0 0 1 723.55 270.50
  Q 724.90 282.22 728.13 302.33
  Q 734.67 343.05 737.15 358.35
  Q 739.90 375.36 740.42 379.22
  Q 741.54 387.42 743.10 392.61
  Q 743.53 394.03 743.85 392.58
  Q 744.86 387.90 745.19 385.76
  Q 752.70 336.78 759.71 287.55
  Q 760.02 285.35 761.75 271.86
  A 1.86 1.85 3.7 0 1 763.59 270.25
  L 800.00 270.25
  Q 800.50 270.25 800.50 270.74
  L 800.50 444.28
  A 0.53 0.52 -0.0 0 1 799.97 444.80
  L 775.27 444.80
  Q 774.25 444.80 774.25 443.77
  L 774.25 323.68
  Q 774.25 321.80 773.36 323.46
  Z"
/>
<rect fill="#000000" x="832.52" y="270.20" width="26.76" height="174.60" rx="0.62"/>
<path fill="#000000" d="
  M 1086.11 357.50
  Q 1086.12 436.38 1086.18 443.86
  A 0.93 0.93 0.0 0 1 1085.25 444.80
  L 1059.75 444.80
  A 0.56 0.55 -0.0 0 1 1059.19 444.25
  L 1059.19 370.26
  A 0.45 0.45 0.0 0 0 1058.74 369.81
  L 1028.00 369.81
  A 0.50 0.49 -0.0 0 0 1027.50 370.30
  L 1027.50 444.28
  A 0.52 0.52 0.0 0 1 1026.98 444.80
  L 1001.77 444.80
  A 0.57 0.56 89.8 0 1 1001.21 444.24
  Q 1001.21 388.47 1001.21 357.51
  Q 1001.21 326.54 1001.20 270.78
  A 0.57 0.56 -89.8 0 1 1001.77 270.21
  L 1026.98 270.21
  A 0.52 0.52 0.0 0 1 1027.50 270.73
  L 1027.50 344.71
  A 0.50 0.49 -0.0 0 0 1028.00 345.20
  L 1058.74 345.20
  A 0.45 0.45 0.0 0 0 1059.19 344.75
  L 1059.19 270.76
  A 0.56 0.55 -0.0 0 1 1059.75 270.21
  L 1085.25 270.21
  A 0.93 0.93 0.0 0 1 1086.18 271.14
  Q 1086.11 278.63 1086.11 357.50
  Z"
/>
<path fill="#000000" d="
  M 1175.30 413.44
  A 0.67 0.67 0.0 0 0 1174.66 412.91
  Q 1160.46 412.81 1146.00 412.92
  Q 1144.66 412.93 1142.42 413.33
  Q 1141.91 413.42 1141.73 413.91
  Q 1140.88 416.16 1140.64 417.67
  Q 1139.04 427.84 1136.93 442.43
  A 2.70 2.69 4.2 0 1 1134.26 444.73
  L 1112.67 444.73
  A 0.54 0.54 0.0 0 1 1112.14 444.08
  C 1113.52 437.90 1114.55 430.33 1115.27 425.41
  Q 1116.03 420.21 1125.76 359.80
  Q 1127.99 345.98 1130.30 330.19
  Q 1130.38 329.64 1130.89 326.44
  Q 1134.82 301.49 1138.49 277.75
  Q 1138.97 274.65 1140.13 270.91
  A 0.99 0.98 8.2 0 1 1141.08 270.21
  L 1177.68 270.21
  A 1.66 1.66 0.0 0 1 1179.29 271.47
  Q 1179.76 273.39 1180.12 275.57
  Q 1184.22 300.34 1206.23 440.25
  Q 1206.54 442.22 1207.36 443.80
  A 0.69 0.68 -13.7 0 1 1206.75 444.80
  L 1179.80 444.80
  A 0.44 0.44 0.0 0 1 1179.36 444.37
  Q 1179.33 441.88 1179.26 441.18
  Q 1177.57 425.07 1175.30 413.44
  Z
  M 1170.30 390.19
  A 1.27 1.27 0.0 0 0 1171.55 388.73
  Q 1165.99 351.26 1163.94 336.90
  C 1163.60 334.53 1163.06 328.89 1162.33 325.22
  Q 1161.77 322.39 1161.53 320.02
  Q 1160.61 310.99 1159.24 304.94
  Q 1158.88 303.33 1158.48 302.65
  Q 1157.48 300.95 1157.22 302.91
  Q 1154.37 323.99 1148.26 364.89
  Q 1146.21 378.64 1145.30 388.76
  A 1.33 1.33 0.0 0 0 1146.63 390.21
  L 1170.30 390.19
  Z"
/>
<path fill="#000000" d="
  M 1260.52 343.48
  L 1296.88 343.48
  A 0.60 0.60 0.0 0 1 1297.48 344.08
  L 1297.48 367.83
  A 0.60 0.60 0.0 0 1 1296.88 368.43
  L 1260.51 368.43
  A 0.60 0.60 0.0 0 0 1259.91 369.03
  L 1259.91 419.64
  A 0.60 0.60 0.0 0 0 1260.51 420.24
  L 1306.19 420.24
  A 0.60 0.60 0.0 0 1 1306.79 420.84
  L 1306.79 444.20
  A 0.60 0.60 0.0 0 1 1306.19 444.80
  L 1233.75 444.80
  A 0.60 0.60 0.0 0 1 1233.15 444.20
  L 1233.15 270.81
  A 0.60 0.60 0.0 0 1 1233.75 270.21
  L 1306.19 270.21
  A 0.60 0.60 0.0 0 1 1306.79 270.81
  L 1306.79 294.15
  A 0.60 0.60 0.0 0 1 1306.19 294.75
  L 1260.52 294.75
  A 0.60 0.60 0.0 0 0 1259.92 295.35
  L 1259.92 342.88
  A 0.60 0.60 0.0 0 0 1260.52 343.48
  Z"
/>
<path fill="#000000" d="
  M 1408.00 420.76
  L 1408.00 444.30
  A 0.50 0.50 0.0 0 1 1407.50 444.80
  L 1337.30 444.80
  A 0.50 0.50 0.0 0 1 1336.80 444.30
  L 1336.80 270.71
  A 0.50 0.50 0.0 0 1 1337.30 270.21
  L 1362.52 270.21
  A 0.50 0.50 0.0 0 1 1363.02 270.71
  L 1363.02 419.76
  A 0.50 0.50 0.0 0 0 1363.52 420.26
  L 1407.50 420.26
  A 0.50 0.50 0.0 0 1 1408.00 420.76
  Z"
/>
<path fill="#ffffff" d="
  M 600.01 295.54
  A 1.07 1.07 0.0 0 1 601.08 294.47
  L 614.50 294.47
  A 15.96 13.49 -90.0 0 1 627.99 310.43
  L 627.99 332.99
  A 15.96 13.49 -90.0 0 1 614.50 348.95
  L 601.08 348.95
  A 1.07 1.07 0.0 0 1 600.01 347.88
  L 600.01 295.54
  Z"
/>
<path fill="#ffffff" d="
  M 486.77 390.30
  A 1.27 1.27 0.0 0 1 485.51 388.84
  Q 491.06 351.23 493.11 336.82
  C 493.45 334.44 493.98 328.78 494.71 325.10
  Q 495.27 322.26 495.51 319.88
  Q 496.43 310.82 497.80 304.75
  Q 498.16 303.13 498.56 302.45
  Q 499.56 300.74 499.83 302.71
  Q 502.70 323.86 508.86 364.90
  Q 510.93 378.69 511.85 388.85
  A 1.33 1.33 0.0 0 1 510.52 390.30
  L 486.77 390.30
  Z"
/>
<path fill="#ffffff" d="
  M 1170.30 390.19
  L 1146.63 390.21
  A 1.33 1.33 0.0 0 1 1145.30 388.76
  Q 1146.21 378.64 1148.26 364.89
  Q 1154.37 323.99 1157.22 302.91
  Q 1157.48 300.95 1158.48 302.65
  Q 1158.88 303.33 1159.24 304.94
  Q 1160.61 310.99 1161.53 320.02
  Q 1161.77 322.39 1162.33 325.22
  C 1163.06 328.89 1163.60 334.53 1163.94 336.90
  Q 1165.99 351.26 1171.55 388.73
  A 1.27 1.27 0.0 0 1 1170.30 390.19
  Z"
/>
<path fill="#000000" d="
  M 1315.93 525.15
  C 1314.63 552.42 1296.26 574.60 1266.56 569.29
  C 1243.32 565.13 1232.81 542.89 1233.84 521.25
  C 1234.86 499.60 1247.44 478.46 1270.97 476.52
  C 1301.04 474.05 1317.22 497.87 1315.93 525.15
  Z
  M 1274.86 561.15
  C 1286.26 561.18 1295.77 553.48 1300.02 543.22
  Q 1306.23 528.24 1302.91 511.57
  Q 1300.16 497.74 1289.26 489.56
  C 1285.08 486.43 1280.13 485.60 1275.04 485.59
  C 1269.94 485.58 1264.99 486.38 1260.79 489.50
  Q 1249.86 497.62 1247.04 511.44
  Q 1243.64 528.09 1249.78 543.10
  C 1253.98 553.38 1263.46 561.13 1274.86 561.15
  Z"
/>
<path fill="#000000" d="
  M 799.27 524.32
  A 0.67 0.67 0.0 0 0 799.29 525.40
  C 806.48 530.47 809.28 535.84 811.49 545.18
  Q 814.94 559.70 817.54 567.80
  A 0.70 0.70 0.0 0 1 816.87 568.72
  L 807.56 568.72
  Q 806.84 568.72 806.56 568.06
  Q 804.64 563.54 804.40 562.39
  Q 802.51 553.38 799.45 542.59
  C 797.42 535.43 793.24 529.53 785.04 529.22
  Q 779.29 529.00 770.98 529.24
  A 0.51 0.51 0.0 0 0 770.49 529.75
  L 770.49 568.29
  Q 770.49 568.80 769.98 568.80
  L 759.63 568.80
  A 0.40 0.40 0.0 0 1 759.23 568.40
  L 759.23 478.98
  A 0.41 0.41 0.0 0 1 759.66 478.57
  Q 762.68 478.70 765.54 478.18
  Q 778.64 475.78 791.49 477.52
  C 802.95 479.07 812.04 484.93 814.57 496.90
  C 816.79 507.47 811.11 519.59 801.19 523.31
  Q 799.98 523.76 799.27 524.32
  Z
  M 770.45 488.10
  L 770.45 517.80
  A 2.22 2.22 0.0 0 0 772.67 520.02
  L 786.35 520.02
  A 17.86 17.02 0.0 0 0 804.21 503.00
  L 804.21 502.90
  A 17.86 17.02 -0.0 0 0 786.35 485.88
  L 772.67 485.88
  A 2.22 2.22 0.0 0 0 770.45 488.10
  Z"
/>
<path fill="#000000" d="
  M 877.96 524.30
  A 0.67 0.66 -46.3 0 0 877.97 525.38
  C 885.15 530.45 887.94 535.81 890.14 545.14
  Q 893.57 559.64 896.16 567.73
  A 0.70 0.70 0.0 0 1 895.49 568.65
  L 886.20 568.64
  Q 885.48 568.64 885.20 567.98
  Q 883.29 563.47 883.05 562.32
  Q 881.17 553.32 878.12 542.54
  C 876.10 535.39 871.93 529.50 863.74 529.18
  Q 858.00 528.96 849.70 529.19
  A 0.51 0.51 0.0 0 0 849.22 529.70
  L 849.19 568.18
  Q 849.19 568.69 848.68 568.69
  L 838.34 568.68
  A 0.40 0.40 0.0 0 1 837.94 568.28
  L 838.01 479.00
  A 0.41 0.41 0.0 0 1 838.44 478.59
  Q 841.46 478.72 844.31 478.21
  Q 857.39 475.82 870.22 477.57
  C 881.66 479.12 890.74 484.98 893.25 496.94
  C 895.46 507.49 889.78 519.59 879.87 523.30
  Q 878.66 523.74 877.96 524.30
  Z
  M 849.18 488.01
  L 849.24 517.93
  A 2.12 2.12 0.0 0 0 851.36 520.05
  L 865.04 520.02
  A 17.90 17.04 -0.1 0 0 882.91 502.95
  L 882.91 502.87
  A 17.90 17.04 -0.1 0 0 864.98 485.86
  L 851.30 485.89
  A 2.12 2.12 0.0 0 0 849.18 488.01
  Z"
/>
<path fill="#000000" d="
  M 1021.09 481.82
  A 0.97 0.96 86.9 0 0 1020.38 482.62
  L 1019.56 488.53
  A 1.04 1.04 0.0 0 1 1018.19 489.36
  C 1008.31 485.86 997.37 484.52 986.99 487.73
  Q 967.86 493.64 963.26 513.58
  Q 960.31 526.34 965.10 539.00
  Q 971.78 556.64 990.25 559.54
  Q 1001.80 561.35 1011.13 558.59
  C 1013.59 557.86 1013.48 555.75 1013.63 553.52
  Q 1014.24 544.14 1013.55 531.63
  A 1.99 1.98 88.5 0 0 1011.57 529.75
  L 996.16 529.75
  A 0.61 0.61 0.0 0 1 995.55 529.14
  L 995.55 522.25
  Q 995.55 521.81 996.00 521.81
  L 1023.01 521.81
  Q 1023.73 521.81 1023.73 522.52
  L 1023.73 563.68
  Q 1023.73 564.21 1023.25 564.45
  Q 1021.24 565.47 1020.45 565.72
  C 1010.60 568.89 1000.43 569.67 990.10 569.04
  C 974.13 568.05 960.07 559.18 954.24 543.86
  C 944.08 517.16 954.50 486.95 983.89 478.79
  Q 1002.24 473.70 1021.36 480.92
  Q 1021.92 481.13 1021.52 481.58
  Q 1021.37 481.75 1021.09 481.82
  Z"
/>
<rect fill="#000000" x="721.82" y="477.91" width="11.20" height="90.86" rx="0.64"/>
<rect fill="#000000" x="916.80" y="477.95" width="11.22" height="90.86" rx="0.63"/>
<path fill="#000000" d="
  M 1096.39 541.74
  A 2.10 2.10 0.0 0 0 1094.42 540.37
  L 1065.10 540.37
  A 2.43 2.42 -78.0 0 0 1062.89 541.81
  C 1059.19 550.11 1057.64 559.17 1053.97 567.46
  Q 1053.53 568.45 1051.66 568.65
  Q 1047.29 569.10 1043.47 568.47
  Q 1042.37 568.29 1042.72 567.23
  Q 1059.83 516.55 1070.65 484.66
  C 1072.20 480.09 1072.61 477.49 1077.72 477.60
  C 1081.94 477.68 1086.34 476.91 1087.78 481.23
  Q 1102.99 527.09 1117.14 568.25
  A 0.13 0.13 0.0 0 1 1117.03 568.42
  Q 1112.86 569.00 1108.24 568.84
  Q 1104.98 568.73 1104.12 565.71
  Q 1100.12 551.75 1096.39 541.74
  Z
  M 1065.87 530.72
  A 0.34 0.34 0.0 0 0 1066.19 531.16
  L 1092.96 531.02
  A 0.34 0.34 0.0 0 0 1093.28 530.57
  L 1079.68 489.69
  A 0.34 0.34 0.0 0 0 1079.03 489.69
  L 1065.87 530.72
  Z"
/>
<path fill="#000000" d="
  M 1150.21 477.96
  Q 1180.92 477.97 1182.18 477.87
  Q 1182.86 477.82 1182.87 478.50
  L 1183.03 487.10
  Q 1183.04 488.00 1182.14 488.00
  L 1156.04 488.00
  A 0.58 0.58 0.0 0 0 1155.46 488.58
  L 1155.46 568.20
  Q 1155.46 568.48 1155.19 568.50
  Q 1152.74 568.73 1150.18 568.73
  Q 1147.63 568.73 1145.18 568.50
  Q 1144.91 568.48 1144.91 568.20
  L 1144.96 488.58
  A 0.58 0.58 0.0 0 0 1144.38 488.00
  L 1118.28 487.98
  Q 1117.38 487.98 1117.39 487.08
  L 1117.56 478.48
  Q 1117.57 477.80 1118.25 477.85
  Q 1119.51 477.95 1150.21 477.96
  Z"
/>
<rect fill="#000000" x="1199.90" y="477.96" width="11.20" height="90.82" rx="0.67"/>
<path fill="#000000" d="
  M 1348.05 493.23
  Q 1347.82 493.63 1347.83 494.96
  Q 1348.04 527.40 1347.96 568.50
  Q 1347.95 568.73 1347.73 568.73
  L 1338.97 568.73
  A 0.20 0.20 0.0 0 1 1338.77 568.53
  L 1338.77 478.92
  A 1.01 1.00 87.2 0 1 1339.67 477.92
  Q 1344.90 477.40 1349.90 478.33
  Q 1351.01 478.53 1352.35 480.56
  Q 1357.29 488.06 1382.53 529.27
  Q 1385.77 534.55 1393.56 548.98
  Q 1394.52 550.75 1395.28 551.59
  Q 1396.57 553.02 1396.34 551.10
  C 1395.45 543.87 1395.01 538.48 1394.98 530.96
  Q 1394.87 504.42 1394.98 478.21
  A 0.25 0.24 -0.0 0 1 1395.23 477.97
  L 1404.42 477.97
  A 0.36 0.35 0.0 0 1 1404.78 478.32
  L 1404.78 568.27
  A 0.45 0.45 0.0 0 1 1404.33 568.72
  L 1394.44 568.72
  Q 1393.90 568.72 1393.63 568.25
  Q 1389.55 561.26 1382.22 549.47
  Q 1364.17 520.45 1358.67 511.28
  C 1354.88 504.97 1352.33 499.40 1349.16 493.29
  Q 1348.60 492.22 1348.05 493.23
  Z"
/>
<path fill="#ffffff" d="
  M 1275.04 485.59
  C 1280.13 485.60 1285.08 486.43 1289.26 489.56
  Q 1300.16 497.74 1302.91 511.57
  Q 1306.23 528.24 1300.02 543.22
  C 1295.77 553.48 1286.26 561.18 1274.86 561.15
  C 1263.46 561.13 1253.98 553.38 1249.78 543.10
  Q 1243.64 528.09 1247.04 511.44
  Q 1249.86 497.62 1260.79 489.50
  C 1264.99 486.38 1269.94 485.58 1275.04 485.59
  Z"
/>
<path fill="#ffffff" d="
  M 770.45 488.10
  A 2.22 2.22 0.0 0 1 772.67 485.88
  L 786.35 485.88
  A 17.86 17.02 0.0 0 1 804.21 502.90
  L 804.21 503.00
  A 17.86 17.02 0.0 0 1 786.35 520.02
  L 772.67 520.02
  A 2.22 2.22 0.0 0 1 770.45 517.80
  L 770.45 488.10
  Z"
/>
<path fill="#ffffff" d="
  M 849.18 488.01
  A 2.12 2.12 0.0 0 1 851.30 485.89
  L 864.98 485.86
  A 17.90 17.04 -0.1 0 1 882.91 502.87
  L 882.91 502.95
  A 17.90 17.04 -0.1 0 1 865.04 520.02
  L 851.36 520.05
  A 2.12 2.12 0.0 0 1 849.24 517.93
  L 849.18 488.01
  Z"
/>
<path fill="#ffffff" d="
  M 1065.87 530.72
  L 1079.03 489.69
  A 0.34 0.34 0.0 0 1 1079.68 489.69
  L 1093.28 530.57
  A 0.34 0.34 0.0 0 1 1092.96 531.02
  L 1066.19 531.16
  A 0.34 0.34 0.0 0 1 1065.87 530.72
  Z"
/>
<path fill="#000000" d="
  M 283.51 1053.57
  C 285.32 1051.77 287.95 1049.77 289.57 1048.21
  Q 317.65 1021.13 318.14 982.76
  C 318.38 964.48 313.33 944.14 304.04 927.36
  C 285.22 893.32 256.30 870.42 226.15 844.37
  Q 209.46 829.95 198.24 810.28
  C 179.27 777.03 173.91 738.26 182.02 701.07
  Q 182.14 700.48 182.75 700.47
  C 255.67 699.31 320.82 737.08 355.48 801.38
  Q 373.32 834.46 377.01 874.84
  Q 377.96 885.18 377.61 894.79
  Q 375.68 948.31 348.56 991.11
  Q 323.74 1030.28 283.85 1054.01
  Q 281.88 1055.18 283.51 1053.57
  Z"
/>
<path fill="#000000" d="
  M 170.93 703.36
  Q 165.12 710.11 158.89 719.41
  Q 149.25 733.82 142.29 745.43
  A 1.14 1.14 0.0 0 1 141.17 745.98
  Q 130.25 744.69 123.52 743.77
  Q 123.09 743.71 122.93 743.42
  A 0.46 0.45 52.4 0 1 122.99 742.88
  Q 135.24 730.27 148.30 718.80
  C 154.90 713.01 162.49 706.75 170.31 702.59
  Q 172.68 701.34 170.93 703.36
  Z"
/>
<path fill="#000000" d="
  M 98.01 740.19
  C 114.76 725.07 132.79 712.93 154.26 705.81
  Q 155.57 705.38 154.69 706.45
  Q 154.63 706.52 154.14 706.87
  Q 131.93 723.09 114.62 742.22
  A 0.82 0.82 0.0 0 1 113.95 742.49
  L 98.35 741.19
  A 0.58 0.57 26.3 0 1 98.01 740.19
  Z"
/>
<path fill="#000000" d="
  M 128.82 710.68
  Q 106.85 722.61 88.69 739.53
  A 1.39 1.36 -64.1 0 1 87.66 739.90
  L 76.77 739.22
  A 0.36 0.34 73.6 0 1 76.50 739.06
  Q 76.21 738.64 76.60 738.35
  Q 100.34 720.49 128.28 710.20
  Q 128.43 710.14 128.55 710.25
  L 128.84 710.50
  Q 128.96 710.60 128.82 710.68
  Z"
/>
<path fill="#000000" d="
  M 31.18 788.19
  Q 46.52 764.01 67.28 746.05
  A 2.51 2.49 -63.2 0 1 69.08 745.45
  Q 73.06 745.73 80.50 746.23
  Q 81.38 746.29 80.96 747.15
  A 0.57 0.48 85.3 0 1 80.86 747.29
  Q 54.73 774.43 40.15 808.84
  A 0.84 0.83 -78.0 0 1 39.39 809.34
  L 20.54 809.34
  A 0.55 0.54 12.2 0 1 20.04 808.57
  Q 24.41 798.85 31.18 788.19
  Z"
/>
<path fill="#000000" d="
  M 47.37 808.92
  C 57.33 786.16 72.03 765.24 89.72 747.82
  A 1.83 1.81 -64.6 0 1 91.15 747.30
  L 107.73 748.68
  A 0.56 0.56 0.0 0 1 108.11 749.60
  Q 85.16 777.06 72.44 810.59
  A 0.98 0.97 -77.5 0 1 71.46 811.22
  L 47.87 809.75
  A 0.59 0.59 0.0 0 1 47.37 808.92
  Z"
/>
<path fill="#000000" d="
  M 81.88 804.91
  Q 94.81 774.87 116.39 750.06
  A 1.39 1.38 -65.3 0 1 117.64 749.59
  L 137.43 752.34
  A 0.65 0.64 -71.2 0 1 137.90 753.30
  Q 128.77 769.55 122.24 784.23
  C 117.07 795.88 113.52 803.68 109.86 813.81
  A 0.60 0.59 12.9 0 1 109.25 814.19
  L 80.02 811.76
  A 0.63 0.63 0.0 0 1 79.48 810.92
  Q 80.51 808.08 81.88 804.91
  Z"
/>
<rect fill="#000000" x="819.90" y="773.21" width="64.70" height="44.32" rx="0.53"/>
<path fill="#000000" d="
  M 584.71 901.86
  A 1.48 1.46 -24.8 0 0 584.01 903.74
  L 623.56 999.00
  A 0.34 0.34 0.0 0 1 623.25 999.47
  L 548.26 999.47
  Q 547.50 999.47 547.22 998.75
  L 515.18 914.92
  Q 514.97 914.39 514.41 914.39
  L 494.24 914.39
  Q 493.62 914.39 493.62 915.00
  L 493.62 998.91
  Q 493.62 999.47 493.07 999.47
  L 424.27 999.47
  A 0.19 0.19 0.0 0 1 424.08 999.28
  L 424.08 776.79
  A 0.26 0.25 -0.0 0 1 424.34 776.54
  Q 536.75 776.53 542.25 776.58
  C 560.49 776.74 580.19 779.96 595.74 790.30
  C 613.62 802.19 622.55 820.71 622.72 842.34
  C 622.84 857.34 619.89 870.81 610.70 882.51
  C 604.13 890.89 594.89 896.76 584.71 901.86
  Z
  M 493.61 824.26
  L 493.61 866.04
  A 0.28 0.28 0.0 0 0 493.89 866.32
  L 527.81 866.32
  A 23.54 19.78 0.0 0 0 551.35 846.54
  L 551.35 843.76
  A 23.54 19.78 0.0 0 0 527.81 823.98
  L 493.89 823.98
  A 0.28 0.28 0.0 0 0 493.61 824.26
  Z"
/>
<path fill="#000000" d="
  M 1155.63 895.18
  Q 1155.63 896.66 1156.52 895.48
  C 1161.48 888.86 1166.87 881.27 1172.64 874.61
  Q 1172.90 874.31 1208.06 833.95
  A 1.57 1.56 -69.3 0 1 1209.24 833.41
  L 1263.55 833.41
  A 0.53 0.52 20.6 0 1 1263.95 834.28
  L 1215.20 889.90
  A 1.50 1.50 0.0 0 0 1215.00 891.55
  L 1270.18 998.82
  Q 1270.51 999.47 1269.79 999.47
  L 1203.53 999.47
  Q 1203.02 999.47 1202.80 999.01
  L 1172.37 934.15
  Q 1171.80 932.93 1170.97 934.00
  L 1156.24 952.97
  A 2.90 2.88 -26.4 0 0 1155.64 954.73
  L 1155.64 999.12
  A 0.35 0.35 0.0 0 1 1155.29 999.47
  L 1091.25 999.47
  A 0.22 0.21 90.0 0 1 1091.04 999.25
  L 1091.04 777.00
  A 0.46 0.45 -90.0 0 1 1091.49 776.54
  L 1155.21 776.54
  A 0.42 0.42 0.0 0 1 1155.63 776.96
  L 1155.63 895.18
  Z"
/>
<path fill="#000000" d="
  M 2.35 882.51
  A 0.20 0.19 -88.6 0 1 2.16 882.30
  Q 3.45 847.99 16.36 816.70
  A 1.13 1.13 0.0 0 1 17.40 816.01
  L 36.33 816.01
  A 0.63 0.63 0.0 0 1 36.92 816.86
  Q 25.08 848.52 23.98 881.98
  A 0.54 0.54 0.0 0 1 23.44 882.51
  L 2.35 882.51
  Z"
/>
<path fill="#000000" d="
  M 55.06 817.03
  Q 65.42 817.59 69.20 817.81
  A 0.47 0.47 0.0 0 1 69.62 818.43
  Q 59.18 849.57 58.10 882.40
  A 0.19 0.19 0.0 0 1 57.91 882.58
  L 31.31 882.58
  A 0.65 0.65 0.0 0 1 30.66 881.91
  Q 31.99 848.86 43.61 817.82
  Q 44.16 816.36 45.45 816.50
  C 47.09 816.70 50.25 816.76 55.06 817.03
  Z"
/>
<path fill="#000000" d="
  M 91.84 884.90
  L 65.25 883.24
  A 0.37 0.36 -87.6 0 1 64.91 882.86
  Q 65.90 849.95 76.51 818.91
  A 0.90 0.88 -77.7 0 1 77.42 818.31
  L 106.66 820.75
  A 0.60 0.60 0.0 0 1 107.18 821.55
  Q 96.18 852.34 92.21 884.59
  A 0.35 0.35 0.0 0 1 91.84 884.90
  Z"
/>
<path fill="#ffffff" d="
  M 493.61 824.26
  A 0.28 0.28 0.0 0 1 493.89 823.98
  L 527.81 823.98
  A 23.54 19.78 -0.0 0 1 551.35 843.76
  L 551.35 846.54
  A 23.54 19.78 -0.0 0 1 527.81 866.32
  L 493.89 866.32
  A 0.28 0.28 0.0 0 1 493.61 866.04
  L 493.61 824.26
  Z"
/>
<path fill="#000000" d="
  M 692.17 930.00
  Q 691.67 936.08 693.12 942.51
  C 696.49 957.51 709.40 961.62 723.36 959.70
  Q 739.15 957.53 742.29 940.82
  A 0.89 0.88 7.4 0 1 743.22 940.11
  L 802.94 943.83
  A 0.47 0.46 -81.3 0 1 803.36 944.41
  C 794.39 979.40 764.90 998.96 730.22 1002.20
  C 692.11 1005.76 653.18 994.88 634.11 959.63
  C 620.75 934.94 620.64 907.14 631.35 881.49
  C 647.58 842.60 686.40 826.80 726.33 830.70
  C 756.11 833.61 781.33 848.75 794.27 876.11
  C 802.04 892.54 804.16 910.62 803.33 928.96
  Q 803.31 929.35 802.92 929.35
  L 692.88 929.35
  Q 692.23 929.35 692.17 930.00
  Z
  M 692.34 896.60
  L 737.84 896.76
  A 0.27 0.27 0.0 0 0 738.11 896.49
  L 738.13 891.71
  A 23.27 20.82 -89.8 0 0 717.39 868.37
  L 712.99 868.35
  A 23.27 20.82 -89.8 0 0 692.09 891.55
  L 692.07 896.33
  A 0.27 0.27 0.0 0 0 692.34 896.60
  Z"
/>
<path fill="#000000" d="
  M 970.42 856.51
  A 0.47 0.45 -70.8 0 0 970.97 856.23
  C 980.32 833.47 1006.13 828.27 1028.45 830.82
  Q 1041.50 832.32 1051.98 838.96
  C 1071.38 851.26 1071.72 876.68 1071.73 897.00
  Q 1071.73 909.10 1071.73 999.04
  A 0.43 0.43 0.0 0 1 1071.30 999.47
  L 1007.56 999.47
  Q 1007.04 999.47 1007.04 998.95
  Q 1007.01 962.08 1007.02 894.52
  C 1007.02 884.43 1004.70 874.35 992.12 874.78
  C 976.03 875.33 973.59 889.52 973.58 902.50
  Q 973.58 911.50 973.64 998.99
  Q 973.64 999.47 973.16 999.47
  L 909.29 999.47
  A 0.21 0.21 0.0 0 1 909.08 999.26
  L 909.08 833.79
  A 0.38 0.37 -0.0 0 1 909.46 833.42
  L 969.71 833.42
  A 0.38 0.38 0.0 0 1 970.09 833.80
  Q 970.03 843.89 969.98 855.76
  Q 969.97 856.38 970.42 856.51
  Z"
/>
<path fill="#000000" d="
  M 1330.11 930.00
  Q 1329.61 936.08 1331.06 942.51
  C 1334.42 957.50 1347.33 961.61 1361.29 959.70
  Q 1377.08 957.53 1380.22 940.82
  A 0.89 0.88 7.4 0 1 1381.15 940.11
  L 1440.87 943.83
  A 0.47 0.46 -81.3 0 1 1441.29 944.41
  C 1432.32 979.40 1402.83 998.96 1368.15 1002.19
  C 1330.04 1005.75 1291.12 994.87 1272.05 959.62
  C 1258.69 934.93 1258.58 907.13 1269.29 881.49
  C 1285.52 842.60 1324.34 826.80 1364.27 830.70
  C 1394.05 833.61 1419.27 848.76 1432.20 876.11
  C 1439.97 892.54 1442.09 910.62 1441.26 928.96
  Q 1441.24 929.35 1440.85 929.35
  L 1330.82 929.35
  Q 1330.17 929.35 1330.11 930.00
  Z
  M 1330.28 896.69
  L 1375.78 896.69
  A 0.29 0.29 0.0 0 0 1376.07 896.40
  L 1376.07 891.42
  A 23.07 20.89 -90.0 0 0 1355.18 868.35
  L 1350.88 868.35
  A 23.07 20.89 90.0 0 0 1329.99 891.42
  L 1329.99 896.40
  A 0.29 0.29 0.0 0 0 1330.28 896.69
  Z"
/>
<rect fill="#000000" x="819.90" y="833.41" width="64.70" height="166.04" rx="0.52"/>
<path fill="#ffffff" d="
  M 692.34 896.60
  A 0.27 0.27 0.0 0 1 692.07 896.33
  L 692.09 891.55
  A 23.27 20.82 -89.8 0 1 712.99 868.35
  L 717.39 868.37
  A 23.27 20.82 -89.8 0 1 738.13 891.71
  L 738.11 896.49
  A 0.27 0.27 0.0 0 1 737.84 896.76
  L 692.34 896.60
  Z"
/>
<path fill="#ffffff" d="
  M 1330.28 896.69
  A 0.29 0.29 0.0 0 1 1329.99 896.40
  L 1329.99 891.42
  A 23.07 20.89 90.0 0 1 1350.88 868.35
  L 1355.18 868.35
  A 23.07 20.89 -90.0 0 1 1376.07 891.42
  L 1376.07 896.40
  A 0.29 0.29 0.0 0 1 1375.78 896.69
  L 1330.28 896.69
  Z"
/>
<path fill="#000000" d="
  M 14.19 955.76
  Q 4.79 930.86 2.76 904.25
  Q 1.82 891.96 2.07 889.93
  Q 2.13 889.41 2.66 889.41
  L 23.12 889.41
  A 0.56 0.56 0.0 0 1 23.68 889.97
  Q 23.87 923.50 34.40 955.09
  A 0.75 0.75 0.0 0 1 33.69 956.08
  L 14.65 956.08
  A 0.49 0.49 0.0 0 1 14.19 955.76
  Z"
/>
<path fill="#000000" d="
  M 41.48 955.11
  Q 30.62 923.31 30.49 889.87
  A 0.41 0.40 90.0 0 1 30.89 889.46
  L 57.58 889.46
  Q 58.08 889.46 58.08 889.96
  Q 57.87 923.34 67.65 955.34
  A 0.36 0.36 0.0 0 1 67.31 955.80
  L 42.44 955.80
  A 1.03 1.01 80.3 0 1 41.48 955.11
  Z"
/>
<path fill="#000000" d="
  M 94.66 954.38
  Q 94.91 955.69 95.30 956.83
  A 0.54 0.54 0.0 0 1 94.76 957.54
  L 75.65 956.35
  A 0.82 0.81 82.7 0 1 74.92 955.78
  Q 64.80 923.91 64.70 890.56
  Q 64.70 890.02 65.25 890.05
  L 90.95 891.65
  A 0.62 0.62 0.0 0 1 91.53 892.33
  Q 88.70 923.47 94.66 954.38
  Z"
/>
<path fill="#000000" d="
  M 107.84 1030.00
  A 0.43 0.43 0.0 0 1 107.48 1030.71
  L 88.94 1029.55
  Q 88.05 1029.50 87.42 1028.86
  Q 59.69 1000.81 44.55 963.12
  A 0.41 0.40 -10.8 0 1 44.93 962.57
  L 69.33 962.57
  A 1.15 1.14 80.3 0 1 70.41 963.34
  Q 82.85 1000.02 107.84 1030.00
  Z"
/>
<path fill="#000000" d="
  M 76.00 1026.86
  Q 77.05 1028.02 77.50 1028.62
  A 0.35 0.34 -18.4 0 1 77.22 1029.17
  L 65.32 1029.17
  A 3.01 2.71 63.9 0 1 63.40 1028.40
  Q 33.72 1001.31 17.32 963.75
  A 0.77 0.76 78.3 0 1 18.02 962.68
  L 36.49 962.68
  A 0.88 0.88 0.0 0 1 37.32 963.26
  Q 50.69 999.06 76.00 1026.86
  Z"
/>
<path fill="#000000" d="
  M 97.13 964.84
  C 103.41 989.06 113.93 1011.50 128.71 1031.46
  Q 129.63 1032.71 128.09 1032.58
  L 120.20 1031.92
  Q 118.30 1031.76 117.05 1030.32
  Q 91.67 1001.13 77.71 963.95
  A 0.59 0.58 -8.8 0 1 78.29 963.16
  L 96.47 964.30
  Q 96.99 964.33 97.13 964.84
  Z"
/>
<path fill="#000000" d="
  M 356.90 1034.19
  A 11.81 11.81 0.0 0 1 345.09 1046.00
  A 11.81 11.81 0.0 0 1 333.28 1034.19
  A 11.81 11.81 0.0 0 1 345.09 1022.38
  A 11.81 11.81 0.0 0 1 356.90 1034.19
  Z
  M 354.64 1034.21
  A 9.55 9.55 0.0 0 0 345.09 1024.66
  A 9.55 9.55 0.0 0 0 335.54 1034.21
  A 9.55 9.55 0.0 0 0 345.09 1043.76
  A 9.55 9.55 0.0 0 0 354.64 1034.21
  Z"
/>
<path fill="#ffffff" d="
  M 354.64 1034.21
  A 9.55 9.55 0.0 0 1 345.09 1043.76
  A 9.55 9.55 0.0 0 1 335.54 1034.21
  A 9.55 9.55 0.0 0 1 345.09 1024.66
  A 9.55 9.55 0.0 0 1 354.64 1034.21
  Z
  M 347.82 1035.02
  C 348.71 1034.56 349.59 1034.20 350.00 1033.40
  Q 351.60 1030.26 348.78 1027.80
  A 0.75 0.74 -22.8 0 0 348.31 1027.61
  L 341.29 1027.40
  Q 340.56 1027.37 340.56 1028.11
  L 340.56 1040.02
  A 1.00 1.00 0.0 0 0 341.56 1041.02
  L 341.97 1041.02
  Q 342.71 1041.02 342.71 1040.27
  L 342.71 1035.78
  A 0.58 0.58 0.0 0 1 343.27 1035.20
  C 344.36 1035.17 344.93 1035.25 345.60 1036.30
  Q 346.85 1038.24 347.95 1040.03
  Q 348.48 1040.91 349.51 1040.91
  L 349.82 1040.91
  A 0.52 0.52 0.0 0 0 350.27 1040.13
  L 347.65 1035.59
  Q 347.43 1035.22 347.82 1035.02
  Z"
/>
<path fill="#000000" d="
  M 347.65 1035.59
  L 350.27 1040.13
  A 0.52 0.52 0.0 0 1 349.82 1040.91
  L 349.51 1040.91
  Q 348.48 1040.91 347.95 1040.03
  Q 346.85 1038.24 345.60 1036.30
  C 344.93 1035.25 344.36 1035.17 343.27 1035.20
  A 0.58 0.58 0.0 0 0 342.71 1035.78
  L 342.71 1040.27
  Q 342.71 1041.02 341.97 1041.02
  L 341.56 1041.02
  A 1.00 1.00 0.0 0 1 340.56 1040.02
  L 340.56 1028.11
  Q 340.56 1027.37 341.29 1027.40
  L 348.31 1027.61
  A 0.75 0.74 -22.8 0 1 348.78 1027.80
  Q 351.60 1030.26 350.00 1033.40
  C 349.59 1034.20 348.71 1034.56 347.82 1035.02
  Q 347.43 1035.22 347.65 1035.59
  Z
  M 342.71 1030.01
  L 342.71 1032.59
  A 0.73 0.73 0.0 0 0 343.44 1033.32
  L 345.82 1033.32
  A 2.55 1.87 -0.0 0 0 348.37 1031.45
  L 348.37 1031.15
  A 2.55 1.87 0.0 0 0 345.82 1029.28
  L 343.44 1029.28
  A 0.73 0.73 0.0 0 0 342.71 1030.01
  Z"
/>
<path fill="#ffffff" d="
  M 342.71 1030.01
  A 0.73 0.73 0.0 0 1 343.44 1029.28
  L 345.82 1029.28
  A 2.55 1.87 -0.0 0 1 348.37 1031.15
  L 348.37 1031.45
  A 2.55 1.87 -0.0 0 1 345.82 1033.32
  L 343.44 1033.32
  A 0.73 0.73 0.0 0 1 342.71 1032.59
  L 342.71 1030.01
  Z"
/>
<path fill="#000000" d="
  M 120.49 1064.26
  Q 94.69 1053.89 72.92 1036.58
  Q 71.63 1035.56 73.27 1035.66
  L 83.60 1036.30
  Q 85.12 1036.40 86.21 1037.45
  Q 101.86 1052.48 120.70 1063.87
  Q 120.88 1063.98 120.79 1064.16
  L 120.78 1064.16
  Q 120.69 1064.34 120.49 1064.26
  Z"
/>
<path fill="#000000" d="
  M 96.73 1036.80
  L 112.61 1037.79
  Q 113.77 1037.86 114.52 1038.75
  C 126.54 1052.94 142.25 1063.38 158.75 1072.43
  A 0.27 0.25 -77.1 0 1 158.88 1072.66
  Q 158.87 1073.14 158.27 1072.98
  C 134.35 1066.48 114.37 1053.96 96.45 1037.45
  A 0.38 0.38 0.0 0 1 96.73 1036.80
  Z"
/>
<path fill="#000000" d="
  M 182.40 1073.19
  Q 184.41 1074.08 184.92 1074.34
  Q 186.99 1075.41 184.27 1074.80
  C 161.93 1069.85 142.00 1056.14 126.19 1039.96
  A 0.37 0.37 0.0 0 1 126.48 1039.33
  L 134.24 1039.98
  Q 134.82 1040.03 135.23 1040.44
  Q 155.74 1061.34 182.40 1073.19
  Z"
/>
</svg>
