<?xml version="1.0" encoding="UTF-8"?>
<!-- Generated by Pixelmator Pro 3.7.1 -->
<svg width="900" height="500" viewBox="0 0 900 500" xmlns="http://www.w3.org/2000/svg">
    <path id="Path" fill="#083bbb" stroke="none" d="M 262.299988 353.369995 L 153.529999 353.369995 L 163.299988 217.459991 L 183.299988 217.459991 C 183.299988 217.459991 172.450012 313.359985 262.299988 353.369995 Z"/>
    <path id="path1" fill="#083bbb" stroke="none" d="M 164.420013 206.839996 L 184.75 206.839996 C 184.75 206.839996 195.940002 116 283.399994 67.150024 L 174 67.150024 Z"/>
    <path id="path2" fill="#083bbb" stroke="none" d="M 271.450012 206.839996 L 315.690002 206.839996 L 334.140015 121.51001 C 334.140015 121.51001 278.309998 139.170013 271.450012 206.839996 Z"/>
    <path id="path3" fill="#083bbb" stroke="none" d="M 344.52002 296.929993 L 335.059998 170 L 326.669983 217.73999 L 270.670013 217.73999 C 270.670013 217.73999 266.109985 292.820007 344.52002 296.929993 Z"/>
    <path id="path4" fill="#083bbb" stroke="none" d="M 353.669983 258.339996 L 344.52002 118.339966 C 344.52002 118.339966 407.359985 99.119995 438.789978 153.420013 L 455.869995 67.080017 L 478.75 67.080017 L 450.5 214.410004 L 397.599976 205.26001 L 384.789978 140 Z"/>
    <path id="path5" fill="#083bbb" stroke="none" d="M 359.77002 295 L 383.570007 194.320007 L 388.75 217.200012 L 449.469971 217.359985 L 423.330017 353.359985 L 400.330017 353.359985 L 419.23999 255.359985 C 419.23999 255.359985 399.330017 286 359.77002 295 Z"/>
    <path id="path6" fill="#ed1e18" stroke="none" d="M 535.5 170.170013 L 552.590027 61.559998 L 632.820007 61.559998 L 535.5 170.170013 Z"/>
    <path id="path7" fill="#ed1e18" stroke="none" d="M 500.409973 352.51001 L 609.22998 352.51001 L 522.590027 231.48999 L 500.409973 352.51001 Z"/>
    <path id="path8" fill="#ed1e18" stroke="none" d="M 731.359985 352.920013 L 708.179993 352.920013 L 603.080017 211.51001 L 739.75 62.320007 L 746.469971 62.320007 L 731.359985 352.920013 Z"/>
    <path id="path9" fill="#083bbb" stroke="none" d="M 100.25 377 L 117.540009 377 L 111.649994 437.419983 L 99.730011 437.419983 L 103.920013 391.419983 L 79.570007 437.419983 L 71.839996 437.419983 L 64 391 L 51.580002 437.390015 L 39.470001 437.390015 L 55.360001 377 L 72.359985 377 L 79.190002 416.26001 Z"/>
    <path id="path10" fill="#083bbb" stroke="none" d="M 168.839996 387.469971 L 145.769989 387.469971 L 143.170013 402 L 163.630005 402 L 161.790009 412.369995 L 141.290009 412.369995 L 138.679993 426.849976 L 161.75 426.849976 L 159.869995 437.390015 L 124.589996 437.390015 L 135.440002 377 L 170.720001 377 Z"/>
    <path id="path11" fill="#083bbb" stroke="none" d="M 172.380005 437.429993 L 183.230011 377 L 204.75 377 C 212.83667 377 218.986674 379.066671 223.200012 383.200012 C 227.41333 387.333354 229.523326 393.00002 229.529999 400.200012 C 229.531036 402.70874 229.330383 405.21344 228.929993 407.690002 C 228.518555 410.221436 227.882721 412.711243 227.029999 415.130005 C 226.180237 417.564819 225.091583 419.909607 223.779999 422.130005 C 222.449493 424.359253 220.843506 426.412109 219 428.23999 C 215.038818 432.229065 210.034576 435.022278 204.559998 436.299988 C 201.339935 437.087402 198.034851 437.473633 194.720001 437.450012 Z M 186.380005 426.890015 L 195.26001 426.890015 C 198.13913 426.930725 200.995544 426.375732 203.649994 425.26001 C 206.003998 424.277893 208.123688 422.809082 209.869995 420.950012 C 211.534515 419.104309 212.910095 417.017395 213.950012 414.76001 C 215.011383 412.495544 215.796997 410.111816 216.290009 407.659973 C 216.762726 405.268921 217.000519 402.837341 217 400.400024 C 217 391.779989 212.373332 387.469971 203.119995 387.469971 L 193.420013 387.469971 Z"/>
    <path id="path12" fill="#083bbb" stroke="none" d="M 235 437.429993 L 245.799988 377 L 257.880005 377 L 247 437.429993 Z"/>
    <path id="path13" fill="#083bbb" stroke="none" d="M 290.220001 438.27002 C 282.066661 438.27002 275.536662 436.003337 270.630005 431.469971 C 265.723328 426.936646 263.269989 420.806661 263.269989 413.080017 C 263.270538 409.355408 263.809418 405.650391 264.869995 402.080017 C 265.925354 398.493896 267.531158 395.093384 269.630005 392 C 271.721375 388.910034 274.255035 386.143921 277.149994 383.789978 C 280.194458 381.348083 283.64798 379.465576 287.350006 378.22998 C 291.369873 376.874054 295.587738 376.19812 299.829987 376.230011 C 306.723338 376.230011 312.503347 377.896667 317.170013 381.22998 C 321.747131 384.397949 324.92749 389.207825 326.049988 394.659973 L 314.350006 397.97998 C 313.727081 394.755005 311.890991 391.891663 309.220001 389.97998 C 306.309845 388.031433 302.860168 387.048279 299.359985 387.169983 C 295.905548 387.139465 292.488281 387.884399 289.359985 389.349976 C 286.418671 390.709534 283.800598 392.679932 281.679993 395.130005 C 279.618317 397.541138 277.984711 400.287476 276.850006 403.25 C 275.695923 406.194031 275.102386 409.327881 275.100006 412.48999 C 275.100006 417.156657 276.523336 420.823324 279.369995 423.48999 C 282.216675 426.156657 285.976674 427.48999 290.649994 427.48999 C 294.755768 427.511597 298.793549 426.441711 302.350006 424.390015 C 305.886993 422.387268 308.822266 419.472717 310.850006 415.950012 L 321.519989 420.77002 C 318.421814 426.234985 313.870148 430.734741 308.369995 433.77002 C 302.808533 436.808167 296.55661 438.358215 290.220001 438.27002 Z"/>
    <path id="path14" fill="#083bbb" stroke="none" d="M 369.570007 437.429993 L 367.309998 424.669983 L 341.169983 424.669983 L 334.289978 437.429993 L 321.73999 437.429993 L 355.179993 377 L 370 377 L 381.880005 437.419983 Z M 346.570007 414.669983 L 365.570007 414.669983 L 360.830017 388.27002 Z"/>
    <path id="path15" fill="#083bbb" stroke="none" d="M 404.590027 426.890015 L 424.070007 426.890015 L 422.190002 437.429993 L 390.5 437.429993 L 401.349976 377 L 413.429993 377 Z"/>
    <path id="path16" fill="#083bbb" stroke="none" d="M 475.869995 438.27002 C 471.741943 438.341064 467.637329 437.635498 463.77002 436.190002 C 460.450134 434.975647 457.539063 432.851318 455.369995 430.059998 C 453.309692 427.323669 452.228516 423.974487 452.299988 420.549988 L 465.02002 418.549988 C 465.025085 421.350159 466.203979 424.019897 468.27002 425.909973 C 470.27002 427.690002 473.046672 428.580017 476.599976 428.580017 C 479.524414 428.703735 482.407593 427.856323 484.799988 426.169983 C 486.789917 424.819275 487.986816 422.575012 488 420.169983 C 488.021301 419.131775 487.795044 418.103394 487.340027 417.169983 C 486.928833 416.325623 486.354431 415.571106 485.650024 414.950012 C 484.855225 414.266174 483.966064 413.700378 483.01001 413.27002 C 481.972046 412.773987 480.907043 412.336609 479.820007 411.960022 C 478.820007 411.619995 477.570007 411.22998 476.169983 410.809998 L 475.960022 410.75 L 475.77002 410.75 L 475.570007 410.679993 C 473.919983 410.179993 472.570007 409.679993 471.469971 409.340027 C 470.369995 409 469.140015 408.419983 467.719971 407.76001 C 466.460876 407.212646 465.280457 406.499695 464.210022 405.640015 C 463.246704 404.832764 462.362671 403.935364 461.570007 402.960022 C 460.698853 401.897644 460.05249 400.669495 459.669983 399.349976 C 459.237244 397.862549 459.028259 396.31897 459.049988 394.77002 C 458.982727 391.269104 460.052917 387.84082 462.099976 385 C 464.214905 382.093933 467.090332 379.827515 470.409973 378.450012 C 474.136597 376.882111 478.1474 376.102417 482.190002 376.160004 C 484.961487 376.145721 487.72467 376.464661 490.419983 377.109985 C 492.904358 377.706482 495.291504 378.652588 497.51001 379.919983 C 499.622131 381.134583 501.40155 382.852112 502.690002 384.919983 C 504.026306 387.119812 504.751282 389.636414 504.789978 392.210022 L 492.909973 394.299988 C 492.909973 391.390015 491.909973 389.25 489.98999 387.880005 C 487.828125 386.430908 485.260254 385.709229 482.659973 385.820007 C 479.768066 385.721497 476.914734 386.506348 474.47998 388.070007 C 472.483948 389.219299 471.232788 391.327332 471.179993 393.630005 C 471.173889 394.311523 471.289001 394.98877 471.52002 395.630005 C 471.711731 396.182739 471.970337 396.710022 472.289978 397.200012 C 472.664001 397.728882 473.140015 398.177673 473.690002 398.52002 C 474.349976 398.969971 474.900024 399.320007 475.359985 399.52002 C 476.060669 399.882202 476.789734 400.186523 477.539978 400.429993 C 478.539978 400.780029 479.289978 401.030029 479.799988 401.179993 L 482.409973 401.960022 C 483.859985 402.380005 485.090027 402.76001 486.099976 403.090027 C 487.109985 403.419983 488.299988 403.880005 489.669983 404.440002 C 490.866516 404.914124 492.023499 405.482605 493.130005 406.140015 C 494.156189 406.776428 495.126343 407.499023 496.030029 408.299988 C 496.969666 409.09729 497.776428 410.039063 498.419983 411.090027 C 499.062683 412.186707 499.566528 413.359009 499.919983 414.580017 C 500.32959 415.976196 500.531738 417.424988 500.52002 418.880005 C 500.596252 422.589355 499.446899 426.220276 497.25 429.210022 C 494.988037 432.210815 491.933411 434.520813 488.429993 435.880005 C 484.439148 437.487854 480.172424 438.299744 475.869995 438.27002 Z"/>
    <path id="path17" fill="#083bbb" stroke="none" d="M 554.369995 377 L 552.48999 387.460022 L 537.719971 387.460022 L 528.719971 437.460022 L 516.719971 437.460022 L 525.719971 387.460022 L 510.890015 387.460022 L 512.77002 377 Z"/>
    <path id="path18" fill="#083bbb" stroke="none" d="M 588.450012 437.429993 L 586.190002 424.669983 L 560.049988 424.669983 L 553.179993 437.429993 L 540.619995 437.429993 L 574.059998 377 L 588.840027 377 L 600.710022 437.419983 Z M 565.450012 414.669983 L 584.450012 414.669983 L 579.710022 388.27002 Z"/>
    <path id="path19" fill="#083bbb" stroke="none" d="M 654.179993 387.469971 L 630.570007 387.469971 L 627.919983 402 L 648.419983 402 L 646.580017 412.369995 L 626 412.369995 L 621.469971 437.369995 L 609.380005 437.369995 L 620.22998 377 L 656.059998 377 Z"/>
    <path id="path20" fill="#083bbb" stroke="none" d="M 700.349976 387.469971 L 676.72998 387.469971 L 674.090027 402 L 694.590027 402 L 692.75 412.369995 L 672.210022 412.369995 L 667.679993 437.369995 L 655.549988 437.369995 L 666.400024 377 L 702.22998 377 Z"/>
    <path id="path21" fill="#083bbb" stroke="none" d="M 701.719971 437.429993 L 712.570007 377 L 724.650024 377 L 713.809998 437.419983 Z"/>
    <path id="path22" fill="#083bbb" stroke="none" d="M 781.929993 377 L 793.929993 377 L 783.080017 437.419983 L 769.460022 437.419983 L 749.169983 393.169983 L 741.169983 437.419983 L 729.169983 437.419983 L 740 377 L 753.580017 377 L 774.039978 421 Z"/>
    <path id="path23" fill="#083bbb" stroke="none" d="M 860.23999 406 L 831 406 L 828.590027 406 L 828.590027 415.710022 L 846.130005 415.710022 C 844.01001 424.109985 836.469971 429.039978 827.039978 428.710022 C 819.51825 428.550598 813.233398 422.936218 812.22998 415.47998 C 810.97998 406.830017 813.080017 399.02002 819.159973 392.590027 C 828.919983 382.26001 844.300049 383.950012 848.660034 396.960022 C 848.75 397.219971 849.209961 397.359985 849.819946 397.780029 L 860.329956 394.890015 C 858.709961 386.890015 854.689941 381.369995 847.73999 377.970001 C 829.299988 368.970001 806.109985 381.369995 800.530029 403.27002 C 798.419983 411.539978 798.690002 420.799988 803.530029 428.099976 C 808.640015 435.799988 817.659973 439.289978 826.659973 439.419983 C 835.949951 439.549988 844.329956 435.419983 850.719971 428.799988 C 853.822998 425.631042 856.32373 421.924011 858.099976 417.859985 C 858.439941 417 861.459961 406 860.23999 406 Z"/>
    <path id="path24" fill="#083bbb" stroke="none" d="M 860.300049 394.909973 L 848.849976 398.070007 C 848.6521 397.117004 848.360718 396.185791 847.97998 395.289978 L 852.540039 395.549988 Z"/>
</svg>
