<svg height="382" preserveAspectRatio="xMidYMid meet" viewBox="0 0 553 382" width="553" xmlns="http://www.w3.org/2000/svg"><g fill="#fefefb"><path d="m0 298c0-81.2 0-83 1.9-83 1.7 0 2 .9 2.4 7.8.8 14.4 4.8 24.9 11 29.6 3.5 2.5 13.6 2.8 18.3.4 1.6-.8 6.9-3.4 11.9-5.9 4.9-2.4 12.4-6.7 16.5-9.4l7.6-5.1-5.8.4-5.8.4v-4.1-4.1h-4-4v-5.8c0-5.8.1-5.9 4.9-10 4.6-3.9 5.4-4.2 11-4.2h6.1v3.6 3.6l5.5-3.1c3.9-2.2 6.8-3.1 10-3.1h4.5v5c0 4.7-.2 5.2-4 7.8-6.1 4.1-17.1 12.5-16.8 12.7.2.1 3.9-.2 8.3-.8 5.3-.7 8.8-.7 10.6 0 2.5 1 2.7.8 3.3-1.8.5-2.5 1-2.9 4.1-2.9 4.7 0 5.5 2.2 5.5 16.1v10.9h-4.1c-3 0-4.8.6-6.3 2.3-1.2 1.2-3.1 2.7-4.2 3.4-1.6 1-.7 1.2 5.5 1.2 5.5.1 7.9-.3 9.2-1.5 2.3-2 13.6-3 17.8-1.6l3.1 1.1v-6.2c0-6 .1-6.3 4.7-10.9l4.7-4.8h-4.6c-2.8 0-5.3-.6-6.1-1.5-1.7-1.6-3.1-14.6-2.5-23.5l.3-5.5 5.9-.3c4.9-.3 6.2 0 8.2 1.9 1.3 1.2 2.6 3.4 2.9 5 .6 2.5.9 2.7 3.1 1.8 4.5-1.6 7.5-1 19.8 4.2 15.9 6.6 15.1 6.1 15.4 10l.3 3.4 36.7-.6c44.6-.7 41.7-1.5 40.9 11.1-.7 11.3-1.1 12-5.7 12-3.1 0-4.2-.6-6.4-3.4-2.9-3.9-13.6-9.5-19.4-10.3-6.3-.8-16.9 3.5-22.1 9.1-3.4 3.6-8 3.5-12.1-.3-6.1-5.5-13.7-8.5-22.8-8.9-8.4-.4-9.8-.1-19 4.6-4.8 2.5-11.1 9.4-12.7 13.8-1 3-1.9 4-3.9 4.2-2.8.4-3.1.9-1.8 3 .7 1 1.5 1 3.6.2 1.5-.5 4-1 5.6-1 2.3 0 3 .5 3.5 2.9 1.1 5.3 6.3 12 11.9 15.6 3 1.9 6.2 3.5 7.1 3.5 1.1 0 1.5 1 1.5 3.5 0 2.4-.5 3.5-1.5 3.5-.8 0-1.5.3-1.5.8 0 .4-34 .6-75.5.4-73-.3-75.5-.3-75.5 1.5 0 1.1.5 2.4 1.2 3.1.9.9 62.8 1.2 272.5 1.2h271.3l-.2 35.5-.3 35.6-270.3-.1c-187.4 0-270.9.3-272.2 1-1.4.8-2 2.1-2 4.5 0 3.3-.2 3.5-3.5 3.5h-3.5zm76 44c0-8.7-.4-14-1-14s-1 5.3-1 14 .4 14 1 14 1-5.3 1-14zm13.7-4.7c-.2-3.7-.3-.9-.3 6.2 0 7.2.1 10.2.3 6.8s.2-9.3 0-13zm43.5 5.5c.2-6 0-10.8-.4-10.8-.3 0-.9-1-1.1-2.2-.2-1.3-.5 4.2-.5 12.2-.2 16.7 1.4 17.3 2 .8zm49-5c-.1-10-.5-18.4-.7-18.7-.7-.7-.6 33.5.1 35.3.3.9.7 1.6.8 1.6 0 0 0-8.2-.2-18.2zm60.3-.9-.7-15.9h3.1c2.4 0 3.1-.4 3.1-2s-.7-2-3.5-2h-3.5v19.8c.1 14.7.3 19.2 1.2 17.8.7-1.3.8-6.8.3-17.7zm30.5-1v-19l-3.7.3c-4.6.4-5.8 2.8-1.4 2.8h3.1v18.1c0 11.7.3 17.8 1 17.4.6-.4 1-8 1-19.6zm29.5-1.6c-.3-1.8-1-3.5-1.5-3.8-1.3-.8-.8 22.7.5 24.1 1.2 1.3 2-15.1 1-20.3zm60.8-1c.5-.8.4-1.3-.2-1.3-.5 0-1.2-1-1.4-2.2-.2-1.3-.4 4.2-.4 12.2v14.5l.6-11c.3-6 1-11.6 1.4-12.2zm19.7 8.7c0-8.7-.4-14-1-14s-1 5.3-1 14 .4 14 1 14 1-5.3 1-14zm29.3 4.3c-.2-5.4-.7-11.1-1.2-12.8l-.9-3-.2 4c-.5 12.7.5 21.5 2.4 21.5 0 0 0-4.4-.1-9.7zm14.7-9.8c0-12.3-.4-19.5-1-19.5s-1 7.2-1 19.5.4 19.5 1 19.5 1-7.2 1-19.5zm-109.7.9c-.1-9.7-.4-17.9-.7-18.2-.4-.3-.6 7.3-.6 17 0 14.4.3 18.8 1.4 18.8.1 0 0-7.9-.1-17.6zm79.7 12.9c-.1-3.1-.3-3.5-1.1-2-.6.9-.7 2.6-.4 3.7 1 3 1.5 2.4 1.5-1.7zm-335.1-7.8c0-3.3-.5-7.3-1.2-8.8-1-2.5-1.2-1.3-1.2 8.2 0 9.1.2 10.6 1.2 8.8.7-1.2 1.2-4.9 1.2-8.2zm225 7.3c0-2.7-.2-2.9-.8-1.3-.5 1.1-.6 2.6-.4 3.3.8 2.1 1.3 1.3 1.2-2zm197 .2c-.6-1.6-.9-8.6-.7-15.9.2-8.7 0-12.7-.7-12-1.6 1.6-1.3 27.3.4 29.2 1.9 2.4 2.1 2.1 1-1.3zm-469.4-13.9c0-11-.3-15.4-1-14.3-1.7 3-1 30.2.8 30.2.1 0 .2-7.2.2-15.9zm17.5 11.4c0-1.7-.2-1.7-1-.5-.5.8-1 2.4-1 3.5 0 1.7.2 1.7 1 .5.5-.8 1-2.4 1-3.5zm226 2.3c0-1.3.3-3.3.6-4.5.5-2 .2-2.3-2-2.3-2.8 0-2.8.4-.9 7.3.6 2.5 2.3 2.1 2.3-.5zm75-8c0-7-.3-9.8-1-8.8-1.7 2.6-1.1 19 .6 19 .2 0 .4-4.6.4-10.2zm168 5.9c0-1-.4-1.5-1-1.2-.5.3-1 1.8-1 3.3 0 2.1.2 2.4 1 1.2.5-.8 1-2.3 1-3.3zm14.9-5.9c0-9.8-.1-10.1-1.4-6.8-1.6 4.2-1.9 11.6-.5 12.5.6.3 1 1.5 1 2.6 0 1 .2 1.9.5 1.9s.5-4.6.4-10.2zm14.9.7c0-3.3-.4-7.1-.8-8.5-.5-1.6-.8 1.3-.8 8s.3 9.8.8 8.5c.5-1.1.8-4.7.8-8zm-484.9-.2c-.1-8.1-.2-8.5-1.1-4.6-.9 3.7-.4 13.3.8 13.3.2 0 .3-3.9.3-8.7zm106-.5c-.1-7.8-.3-8.6-.9-4.8-.7 4.1-.2 14 .6 14 .2 0 .3-4.2.3-9.2zm44.8-4.5c-.2-2.7-.3-.5-.3 4.7s.1 7.4.3 4.8c.2-2.7.2-6.9 0-9.5zm-93 .5c-.2-2.4-.4-.5-.4 4.2s.2 6.6.4 4.3c.2-2.4.2-6.2 0-8.5zm63-2.5c-.3-1-.5-.2-.5 1.7s.2 2.7.5 1.8c.2-1 .2-2.6 0-3.5zm46.3 1.8c0-1.7-.4-3.3-1-3.6-.6-.4-1 .8-1 2.9 0 2 .5 3.6 1 3.6.6 0 1-1.3 1-2.9zm134.7-1.8c-.3-1-.5-.2-.5 1.7s.2 2.7.5 1.8c.2-1 .2-2.6 0-3.5z"/><path d="m187.5 295-18-.5-.3-3.6c-.3-3.3 0-3.7 3.8-5.4 5.4-2.4 12.7-10.6 13.6-15.1.6-3.2.9-3.4 4.4-3.4s3.9.3 5 3.5c1.6 4.8 8.9 12.6 14.4 15.3 4.3 2.2 4.6 2.6 4.6 6.3v3.9l-4.7-.2c-2.7-.1-12.9-.5-22.8-.8z"/><path d="m330.5 295c-58.3-.3-106.1-.6-106.2-.8-.2-.1-.3-1.7-.3-3.6 0-3.1.5-3.7 5.4-6.5 6.3-3.5 11.1-10 12.6-16.9 1.8-7.9 2-8.2 7.5-10.8 5.2-2.3 6-2.4 29.8-2.4h24.5l4 4.5 4 4.5h19.6 19.6v-3.9c0-3.3-.4-4-2.2-4.3-2.1-.3-2.3-.9-2.6-8l-.3-7.8h-7.4-7.5l-.6-3.7-.6-3.8-5.1.3c-4.6.3-5.6 0-8.4-2.7l-3.3-3v4 3.9h-6.4c-5.4 0-6.4.3-6.9 1.9-.4 1.7-2 1.9-15 2.6-8 .4-15 .4-15.6 0-.6-.3-1.1-3.2-1.1-6.3.1-4.9.6-6.5 4-11.7 4.8-7.4 6.8-9.5 9.2-9.5 1.6 0 1.8-.7 1.2-6.7-.8-8.9.5-12.3 4.5-12.3h3l-1.9-4.2c-1.2-2.7-2-6.6-2-10.3 0-4.7-.5-6.8-2.5-9.7-4.5-6.7-23.5-17.5-40-22.8-3.8-1.2-8.6-2.8-10.5-3.5s-5.5-1.6-8-2-4.9-1.1-5.5-1.5c-.5-.4-2.7-1-4.7-1.4l-3.8-.7v-42.8c0-47.7-.6-44.1 7.1-44.1 3.4 0 3.9.3 4.5 2.8.3 1.5.9 3.6 1.2 4.7.7 2.1 14.7 27.2 18.9 33.8 2.5 4 4.7 7.8 9.7 16.8 9.5 17.2 17.2 29.7 17.8 29.3.5-.3 1.6-2.2 2.6-4.2 2.4-4.9 21.2-39.4 22.2-40.7.4-.5 2.3-3.9 4.2-7.5 2-3.6 6.4-11.7 9.9-18 3.4-6.3 7-13 7.8-14.7 1.4-3.1 1.9-3.3 6.3-3.3h4.8l.2 71.2c.2 46.3.6 71.2 1.3 71.5 2.6.8 3.9-5.5 4.5-20.7l.5-15.5 5.8-.3 5.7-.3v7.6 7.6l2.9-2.1c2.1-1.4 3.1-3.1 3.3-5.3.3-3.1.5-3.2 6.5-4.2 3.4-.5 6.5-1.3 6.9-1.7.4-.5 1.8-.8 3.1-.8h2.3l.1-72.2c.1-65.5.1-75-.4-75.4-.1-.1-15.3-.4-33.7-.7l-33.5-.7-2.2 4.8c-1.2 2.6-3.2 7.6-4.4 11.2s-2.5 7-2.9 7.5c-.4.6-1.7 3.9-3 7.5s-2.9 7.6-3.6 9c-1.5 2.8-6.7 14.3-9.5 20.8-1.7 3.9-2.1 4.2-5.7 4.2-3.9 0-6.2-1.4-6.2-3.8 0-.7-.8-3.2-1.9-5.5-2.7-6.1-7.5-19.8-10.7-30.2-1.4-4.9-3.9-12.6-5.4-17l-2.7-8-35.4.4c-19.5.2-35.5.5-35.7.6s-.4 28.5-.5 63l-.2 62.7-4 1.3c-2.2.7-6.2 1.6-8.9 1.9-2.8.3-5.3 1.1-5.6 1.7-.4.6-2.7.9-5.1.7l-4.4-.3-.5-9.7-.5-9.7-3 1.3c-1.6.8-5.1 2.3-7.6 3.5s-4.9 2.1-5.3 2.1c-.9 0-9.1 3.5-12.9 5.5-1.6.8-3.3 1.5-3.8 1.5s-3.7 1.3-7.1 2.9c-3.5 1.6-8.4 3.8-11.1 4.9-2.6 1.2-4.7 2.5-4.7 3.1s1.4.4 3.5-.5c2.2-.9 6.8-1.4 12.7-1.4 8.4 0 9.9.3 15.3 3 11.6 5.9 11.9 7.7 4.6 22-1.8 3.4-10.1 2.3-10.1-1.3 0-2.1-.3-2.2-9-1.9-7.4.3-9 .1-9-1.1 0-1.7-3.4-4.1-7.2-5.1-2.5-.6-2.8-1.1-2.8-4.9 0-3.1-.3-3.8-1-2.7-.5.8-1 2.6-1 3.9 0 2.3-.1 2.4-6.2 1.6-3.5-.4-8.9-.6-12.1-.5l-5.8.1.3-59.8c.2-32.9.7-60.6 1.1-61.5 1.2-2.3 6.8-3.8 14.4-3.8 12.5 0 12.3-.5 12.3 36.1v29.1l2.3-.6c1.2-.4 4.5-1.3 7.2-2.1 2.8-.8 7.5-2.1 10.5-3.1 3-.9 8.2-2.3 11.5-3.2s6.2-1.9 6.5-2.2c.3-.4 1.9-1 3.5-1.4 1.7-.3 5.6-1.4 8.7-2.4 4.9-1.5 5.7-2.1 6.2-4.6.9-4.1.7-20.5-.3-31.8-.8-8.5-1.4-10.6-4.5-16.2-4.2-7.5-7-10.1-15.7-14.4-12-5.8-22.3-7.9-44.4-8.9-28.4-1.3-50.1 4.9-61.5 17.4-5.2 5.7-10 14.1-10 17.6 0 .9-.4 1.7-.8 1.7-1.3 0-3.4 13.3-3.9 23.8-.4 8.3-.6 9.2-2.4 9.2-1.8 0-1.9-1.1-1.9-37v-37h276 276v147.5 147.5l-43 .2c-23.6.1-44.7.2-46.7.3-3.7 0-3.8-.1-4.1-4.1-.3-3.5 0-4.2 2.5-5.4 7.7-3.9 15.3-12.8 15.3-17.8 0-2.9 3.2-5.2 7.2-5.2 2.1 0 4.6-.9 6.2-2.1l2.6-2-2-3.9c-1.1-2.2-2-5.5-2-7.5 0-3.4.1-3.5 3.6-3.5 2.1 0 6 1.3 9.3 3 12.5 6.5 22.9 9.2 27.2 6.9 11.1-5.8 14.6-19.2 14.5-55.3l-.1-19.9-9.7-4.1c-5.4-2.3-11.4-4.9-13.5-5.7-2-.7-10.6-4.4-19-8l-15.3-6.7v24.9 24.9l-2.6 1.2c-2.9 1.4-12.2-.1-15-2.4-3.8-3-7.7-7.4-8.5-9.6-.5-1.3-.9-37.2-.9-80.6 0-64.9.2-78.5 1.4-80.1 1-1.4 3-2 8-2.3 8.2-.5 13.2.4 15.7 2.9 1.8 1.8 1.9 3.6 1.9 36.2v34.2l2.8 1.2c1.5.6 4.5 1.5 6.7 1.9s4.2 1 4.5 1.4c.4.6 6.1 2.2 17.5 5 2.2.6 4.9 1.4 6 1.9 1.7.8 10.8 3.6 18.3 5.6l2.2.6v-16.3c-.1-56-3.2-71.2-17.7-85.4-4.4-4.5-15.2-10.4-18.8-10.4-1.1 0-2.6-.5-3.1-1-1.5-1.5-14.2-3.1-28.4-3.7-25.2-1-49.1 4.2-60.5 13-6.9 5.4-11.2 12.5-12.6 20.6s-1.2 99.3.2 110c1.2 9 1.8 10.1 5.9 10.1 2.8 0 13 3.4 16.1 5.3 1.3.8 1.9 2.3 1.9 4.8 0 3.9-1.2 4.9-5.4 4.9-1.3 0-2.5.2-2.8.6-.3.3.3 3.7 1.4 7.7s2.3 9.3 2.5 11.8c.5 4.4.3 4.6-3.6 7.2-2.4 1.6-4.1 3.5-4.1 4.6 0 2.7-19.7 14.1-24.4 14.1-3 0-3.8-.5-5.2-3.2-.9-1.8-1.8-3.5-2-3.7s-4.3 3.3-9.1 7.8c-4.8 4.4-9.5 8.1-10.5 8.1-1.6 0-1.8 1-1.8 8.4 0 5.8-.4 8.6-1.2 8.9-1.6.7 5.1.8 28.7.7 21.7-.1 21.7-.1 22.3 9.1l.4 6.4 6-.3c7.2-.5 9.7 1.3 13.5 9.8 2.9 6.5 8 12.1 13.4 14.5 3.3 1.5 3.9 2.3 3.9 5 0 4.3-1.6 5.5-6.9 5.3-2.6-.2-52.3-.5-110.6-.8zm-18.5-81.2c0-1.6-.3-1.9-1.1-1.1-.6.6-.8 1.6-.5 2.2 1.1 1.7 1.6 1.3 1.6-1.1zm60.6-22.4c-.3-.9-.6-6.5-.6-12.5v-10.9h-3.5-3.5v12.5 12.5h4.1c3.3 0 4-.3 3.5-1.6z"/><path d="m154.2 275.2c-5.8-5.1-5.6-19.7.3-23.6 1.6-1.1 4.8-1.6 9.6-1.6 6.9 0 7.3.1 10.5 3.6 3.1 3.3 3.4 4.1 3.4 9.9s-.3 6.6-3.4 9.9c-3.2 3.5-3.5 3.6-10.8 3.6-5.8 0-8-.4-9.6-1.8z"/><path d="m209.2 275.2c-5.8-5.1-5.6-19.7.3-23.6 3.3-2.2 15.2-2.2 18.3 0 3.4 2.4 5.2 6.8 5.2 12.8 0 4.8-.4 5.9-3.4 9-3.2 3.5-3.5 3.6-10.8 3.6-5.8 0-8-.4-9.6-1.8z"/><path d="m443.7 275.9c-2.9-1.7-4.7-6.5-4.7-12.4 0-10.4 3.2-13.4 14.1-13.5 8 0 9.8.9 12.8 6.7 2.8 5.4.8 15.3-3.9 19-1.8 1.5-15.8 1.7-18.3.2z"/><path d="m424 248.8c0-3.1 1-7.6 2.3-10.8 1.8-4.4 3.2-6.2 7.2-8.9l5-3.3 12 .5c9.6.3 12.8.9 16.1 2.5 6 3.1 9.4 7.5 9.4 12.3 0 3.9 0 3.9-3.9 3.9-2.2 0-4.2-.4-4.5-.9-.9-1.4-10.1-4.1-14-4.1-5.4 0-11.6 3.2-17.1 8.9-4.2 4.4-5.5 5.1-8.7 5.1h-3.8z"/><path d="m104.8 225.3c-1.9-.3-2.9-1.2-3.2-2.6-.5-2.4-2.9-43.9-3-52.2l-.1-5 7.1-.3c8.2-.3 8.4-.2 8.4 9.8 0 3 .7 12.3 1.5 20.5.9 8.3 1.5 18.4 1.3 22.5l-.3 7.5-4.5.1c-2.5.1-5.7-.1-7.2-.3z"/><path d="m61.6 185.9c-2.3-1.8-2.6-2.7-2.6-8.7 0-5.8.3-6.9 2.7-9.4 2.3-2.4 3.4-2.8 8.5-2.8 4.5 0 6.6.5 8.8 2.2 2.8 2 3 2.6 3 9.1 0 5.8-.4 7.3-2.2 9.3-2 2-3.3 2.4-8.9 2.4-5.2 0-7.2-.4-9.3-2.1z"/></g><g fill="#f6e966"><path d="m4 376c0-3.9.4-5.2 1.9-6 1.4-.7 87.2-1 274-1h272.1v6 6h-274-274z"/><path d="m4.8 302.3c-.9-1-1.5-3.5-1.4-5.8l.1-4 72-.5c39.6-.3 73.5-.1 75.4.3 3.7.9 6.4-1 3.6-2.6-3.3-1.8-1-2.4 9.4-2.3 10.8.1 14.2.8 10.2 2.1-5 1.6 0 2.3 15.2 2.3 8.9 0 17.7.3 19.5.7 4 .9 4.4-1.1.6-2.6-4.5-1.7-1.7-2.4 9.7-2.5 10.3-.2 13.1.5 9.2 2.1-1.6.6-1.5.8.5 1.6 2.6 1 213.7 1.3 215.4.3.7-.4.2-1.2-1.3-2-1.3-.7-2.2-1.4-1.9-1.5s5.6-.3 11.8-.4c10.8-.2 13.1.4 9.6 2.3-1 .6-1.4 1.4-.9 2.2.4.7 1 .8 1.4.4.3-.5 20.5-.8 44.9-.6l44.2.3v5.9 6h-272.8c-258.7 0-273-.1-274.4-1.7z"/><path d="m414.6 253.4c-.9-.8-1.6-3.1-1.6-5 0-3.1.3-3.4 3-3.4 1.7 0 3-.4 3-1 0-.5 1.6-1 3.5-1 3.2 0 3.5.3 3.5 2.9 0 1.5-.5 4.2-1.1 6-1 2.7-1.5 3.1-4.9 3.1-2.2 0-4.5-.7-5.4-1.6z"/></g><g fill="#f7e313"><path d="m414.5 253c-.8-1.6-1.5-4.9-1.5-7.3v-4.4l-16.7-.6c-9.1-.4-21.5-.7-27.5-.7h-10.8v-6.3-6.4l6.3-5c3.4-2.9 8.2-7.2 10.7-9.7 5.9-6.1 9.1-6.3 12-.6 1.1 2.2 2.3 4 2.6 4s4.3-2.2 9-5c5.8-3.4 9.6-5 11.9-5 3.4 0 3.5-.1 3.5-3.8 0-2.1.5-4.3 1.2-5 1.3-1.3 18.9-1.7 20.2-.5.6.6 6.2 2.3 17.9 5.3 2.1.6 4.5 1.4 5.5 1.9.9.5 5.6 2.8 10.4 5.1 9.4 4.6 9.7 5 13.8 16.7 1.3 3.9 2 8 1.8 11l-.3 4.8-4 .3c-2.4.2-4.3-.2-5-1-1.7-2.2-8.8-7.4-13-9.5-12.6-6.4-27.3-2.5-33 8.7-3.9 7.5-6.5 13.6-6.5 14.8 0 .7-1.5 1.2-3.5 1.2-2.8 0-3.7-.5-5-3zm6.9-2.6c.8-2.2.6-2.3-2.4-1.2-2 .7-2.2 1.1-1 1.8 2.1 1.4 2.7 1.2 3.4-.6z"/><path d="m251.1 235.6c-2.2-2.3-2.3-2.3-33.3-3.1-23.1-.5-31.5-1-32.4-2-.7-.7-3.8-1.6-6.8-1.9-3.1-.4-5.8-1.2-6.1-1.7-.4-.5-1.3-.9-2.2-.9-2 0-25-9.8-36.3-15.5-4.7-2.4-9.6-5.5-11-7-2.4-2.6-2.5-3.2-2.5-15.8.1-11.1.4-14.3 2.4-20.2 3-8.8 11.1-24.6 13.1-25.3.8-.3 5.6-2.2 10.5-4.3 8.2-3.4 10.4-3.9 23.5-4.9 14.5-1.2 37.9-.6 47 1 24 4.5 49.1 14.3 63.3 24.8 8.3 6 9.3 11.8 5.7 32.9-2.9 16.6-3 17.1-11.2 30.8-7.9 13.4-10.3 15.5-17.7 15.5-2.7 0-4.4-.7-6-2.4z"/></g><g fill="#040404"><path d="m15.8 359.3c-3-.8-5.7-6.6-6.6-14.3-1.1-8.9.2-24.4 2.2-27.6.9-1.2 3.7-2.9 6.4-3.8 4.4-1.5 5.2-1.5 9.6 0 5.2 1.8 7.6 5.3 7.6 11.4 0 2.8-.2 3-4 3-3.7 0-4-.2-4-2.8 0-1.6-.9-3.7-2-4.7-1.7-1.6-2.4-1.6-4.4-.6-2.8 1.6-3.6 5.1-3.6 16.6 0 11.8.8 15.4 3.6 16.1 4.1 1 6.4-.4 6.4-3.9 0-4.6 1.2-5.9 5.1-5.5 3.3.3 3.4.3 3.1 4.8-.4 5-3.6 10.6-6.7 11.4-2.3.7-10.2.6-12.7-.1z"/><path d="m47.3 359c-4.5-1.8-5.8-5.6-5.8-16.5 0-8.2.4-10.6 2-13.3 2.2-3.7 4.1-4.5 10.2-4.4 8.8.2 11.3 4.2 11.3 17.7 0 9.7-2.2 15.8-6.2 16.9-3.2.8-8.9.6-11.5-.4zm9.1-10.3c.4-2.6.5-7.7.1-11.2-.6-5.8-.9-6.5-2.9-6.5-3.9 0-4.6 1.9-4.6 11.5s.9 11.8 4.5 11.3c1.5-.2 2.2-1.4 2.9-5.1z"/><path d="m105 358.8c-4.1-2.2-5.4-6.3-5.3-16.9.1-13.9 2.1-16.9 11.4-16.9 7.4 0 9.9 2 9.9 8 0 3.9-.1 4-3.4 4-3 0-3.5-.3-3.8-2.7-.3-3.1-3-4.2-5.3-2.3-1.1.9-1.5 3.6-1.5 10.6 0 8.4.2 9.4 2.1 10.4 2.7 1.5 4.9-.3 4.9-4.1 0-2.6.3-2.9 3.5-2.9 3.5 0 3.5 0 3.5 4.4 0 6.2-2.3 8.8-8.6 9.3-2.9.2-5.9-.1-7.4-.9z"/><path d="m153.3 359c-3.2-1.3-5-4.8-5.8-11.2-.9-8.4.3-17.3 3-20.4 1.9-2.2 3-2.5 7.8-2.5 9.2 0 10.8 1.6 12.1 12.4l.7 5.7h-8-8.1v3.8c0 2.7.7 4.5 2.3 6 2.3 2.2 2.4 2.2 4 .4.9-1 1.7-2.6 1.7-3.4 0-1.8 3.1-2.9 6-2.1 2.3.6 2.3.6 1 5.5-.6 2.1-2.1 4.4-3.3 5.3-2.3 1.6-9.8 1.9-13.4.5zm9.7-22.9c0-3.6-1.2-5.1-4-5.1s-4 1.5-4 5.1c0 1.6.7 1.9 4 1.9s4-.3 4-1.9z"/><path d="m183 359.2c-1.9-.2-3.8-.9-4.2-1.5-.4-.7-.8-6.9-.8-13.9 0-10.7-.2-12.8-1.5-12.8-1 0-1.5-1-1.5-3s.5-3 1.5-3c1.1 0 1.5-1.2 1.5-4.5 0-4.5 0-4.5 3.5-4.5s3.5 0 3.5 4.5c0 3.8.3 4.5 2 4.5 1.5 0 2 .7 2 2.9 0 2-.6 3-2 3.4-1.8.5-2 1.3-2 8.9 0 9.6.7 12.8 2.6 12.8 1.8 0 1.9 4.4.2 5.6-.7.5-2.9.8-4.8.6z"/><path d="m195.9 357.1c-2.9-2.9-2.9-3-2.9-14.9 0-11.3.1-12.1 2.5-14.6 1.4-1.5 3.6-2.6 5.2-2.7 3.9-.2 8.5.1 10.3.7 2.7.7 5 6.3 5 11.9v5.4l-7.7.3-7.8.3-.3 3.1c-.4 4.2 2.9 8.3 5.5 6.8 1-.6 2.2-2 2.8-3.2.7-1.6 1.9-2.2 4.2-2.2 3 0 3.3.3 3.3 2.9 0 1.8-1.1 4-2.9 6-2.6 2.8-3.5 3.1-8.6 3.1-4.9 0-6-.4-8.6-2.9zm12.1-21c0-3.4-1.2-5.1-3.4-5.1-2.8 0-4.6 1.8-4.6 4.7 0 2 .5 2.3 4 2.3 3.3 0 4-.3 4-1.9z"/><path d="m285 358c-3.9-3.9-3.8-11.7.2-15.2 1.2-1 4.4-3.1 7-4.5 3.6-1.9 4.8-3.2 4.8-4.9 0-1.3-.4-2.5-.9-2.8-1.5-1-6.1 1.2-6.1 2.9 0 1.1-1.1 1.5-4 1.5-3.9 0-4-.1-3.4-2.7.3-1.6 1.7-3.8 3.1-5 2-1.9 3.6-2.3 9.2-2.3 10.2 0 10.5.6 10.9 19.1l.3 14.9h-3.4c-2 0-3.7-.5-3.9-1.2-.3-.8-1.1-.7-2.8.5-3.3 2.3-8.5 2.2-11-.3zm10.8-4.8c1.6-1.1 2.9-11.2 1.4-11.2-.6 0-2.4 1.2-4.1 2.6-3.5 2.9-4.1 6.7-1.3 8.3 2.1 1.3 2.4 1.3 4 .3z"/><path d="m333.4 358.9c-4.1-2.1-5.5-6.2-5.5-16.8-.1-14.3 1.8-17.1 11.4-17.1 3.4 0 6.7.4 7.3.8 2.9 2 4.4 5.9 4.4 11.4v5.8h-7.6-7.5l.3 4.6c.2 3.1.9 5.1 2.1 5.8 2.2 1.4 5.1-.3 5.5-3.3.3-1.7 1-2.1 3.8-2.1 3.2 0 3.4.2 3.4 3.4 0 5-4.6 8.6-10.8 8.5-2.6 0-5.6-.5-6.8-1zm10.3-22.5c.9-2.3-.9-4.8-3.7-5.2-2.6-.4-4 1.2-4 4.6 0 1.9.5 2.2 3.5 2.2 2.4 0 3.8-.5 4.2-1.6z"/><path d="m394.5 357.5c-2-1.9-2.5-3.5-2.5-7.1 0-4.1.5-5.1 3.6-8 1.9-1.9 4.1-3.4 4.8-3.4 2.2 0 6.6-4 6.6-6 0-1-1-2.2-2.2-2.6-1.7-.5-2.7 0-4.3 2-2.5 3.2-8.5 3.8-8.5.8 0-1.8 2.6-6.1 4.4-7.4 1.4-1 13.8-1 15.3 0 2.5 1.6 3.9 9 4 21l.2 12.2h-3.4c-1.9 0-3.7-.5-4-1-.4-.7-1.4-.5-2.8.5-3.3 2.3-8.4 1.9-11.2-1zm11.4-4.9c.7-.8 1.1-3.5.9-6.2l-.3-4.7-3.2 2.7c-2.3 1.9-3.3 3.6-3.3 5.6 0 3.8 3.6 5.4 5.9 2.6z"/><path d="m438.7 357.9c-1.8-1.6-2.8-3.6-2.9-5.9-.3-3.3-.1-3.5 2.8-3.8 2.7-.3 3.3.1 4.2 2.8 1.3 3.7 3.6 4.7 5.7 2.7 1.6-1.6 2.1-4.7.7-4.7-1.5 0-11.3-9.3-12.7-12.1-1.8-3.3-1.2-6.8 1.6-9.8 1.6-1.6 3.2-2.1 7.5-2.1 6.7 0 8.7 1 10.4 4.9 1.6 3.9.7 6.1-2.5 6.1-1.8 0-2.8-.7-3.5-2.5-.7-1.9-1.7-2.5-3.9-2.5-6.1 0-5.4 1.3 6.8 12.2 3.4 3.2 4.1 4.4 4.1 7.5-.1 6.1-2.7 8.6-9.7 9.1-5.2.4-6.3.1-8.6-1.9z"/><path d="m484.5 358.9c-1.1-.6-2.9-2.2-4-3.7-1.8-2.4-2-4.3-2-18.9 0-15.7.1-16.2 2.4-18.7 1.3-1.4 3.4-2.8 4.5-3.1 1.2-.4 3.1-1.1 4.3-1.7 1.7-.9 3.3-.7 7 .9 4.4 1.7 5 2.4 6.6 7.2.9 2.9 1.5 5.7 1.2 6.2-.4.5-2.4.9-4.6.9-3.6 0-3.9-.2-3.9-2.8 0-3.3-3.2-6.7-5.5-5.8-2.9 1.1-4.5 7.1-4.4 16.8.1 11.4 1.5 16.2 5.1 16.6 3.1.4 4.5-1.3 5-5.8.3-3.4.5-3.5 4.3-3.5h4l-.2 4.2c-.2 5.3-2.7 10.1-5.9 11.3-3.2 1.3-11.3 1.2-13.9-.1z"/><path d="m514.6 357.7c-1.4-1.5-2.6-3.5-2.6-4.6s-.4-2.3-1-2.6c-1.5-.9-1.2-13.7.5-18.5 2-5.8 3.9-6.9 11.1-7 5.2 0 6.4.4 8.4 2.5 2.1 2.2 2.4 3.8 2.8 11.5.8 16.1-1.3 20.1-10.8 20.8-5.3.4-6.1.2-8.4-2.1zm10.3-5.1c.8-.9 1.1-4.8.9-11.2l-.3-9.9h-3-3l-.3 9.9c-.1 5.5 0 10.6.2 11.3.7 1.7 4 1.7 5.5-.1z"/><path d="m71 342v-17h4c3 0 4 .4 4 1.6 0 1.4.1 1.4 1.6 0 .9-.9 3.2-1.6 5.4-1.6 6.6 0 7 1.1 7 18.6v15.4h-3.5-3.5v-13.4c0-12.7-.1-13.5-2-14.1-4.3-1.4-5 .8-5 14.6v12.9h-4-4z"/><path d="m128 342v-17h3.5c2.8 0 3.5.4 3.5 2 0 2.6 1.6 2.6 3-.1.7-1.3 1.9-1.9 3.3-1.7 1.8.2 2.2 1 2.2 3.8 0 3-.5 3.7-3.2 4.9-3.8 1.7-4.3 3.2-4.3 13.8 0 10.4-.4 11.3-4.6 11.3h-3.4z"/><path d="m238 336.5v-22.5h6.4 6.4l.7 4.8c.3 2.6 1.3 7 2 9.7.8 2.8 1.5 6.3 1.7 7.9.5 5.3 2.4 3.9 3.6-2.6.6-3.5 1.7-9.2 2.4-12.8l1.4-6.5 6.7-.3 6.7-.3-.2 22.3-.3 22.3-3.7.3-3.8.3v-18.1c0-11.1-.4-17.9-.9-17.5-.6.3-1.3 2.7-1.6 5.3-.4 2.6-1.3 7-2 9.7-.7 2.8-1.6 7.3-2 10-.9 7-2.6 10.5-5 10.5-2.2 0-3.7-3.8-5.4-13.5-1.8-10.3-4.4-21.5-5-21.5-.3 0-.5 6.8-.3 15.2.4 18.9.2 19.8-4.3 19.8h-3.5z"/><path d="m314.2 357.8c-.8-.8-1.2-5.4-1.2-14 0-10.7-.2-12.8-1.5-12.8-1 0-1.5-1-1.5-3s.5-3 1.5-3c1.1 0 1.5-1.2 1.5-4.5 0-4.5 0-4.5 3.5-4.5 3.4 0 3.5.1 3.5 4.1 0 3.2.4 4.2 2 4.6 1.4.4 2 1.4 2 3.3s-.6 2.9-2 3.3c-1.8.5-2 1.4-2 9.5 0 9.9.5 12.2 2.6 12.2.9 0 1.4 1.1 1.4 3 0 2.9-.2 3-4.3 3-2.4 0-4.8-.5-5.5-1.2z"/><path d="m358 342v-17h3.5c2.9 0 3.5.4 3.5 2.2v2.1l2.3-2.1c1.3-1.2 3.1-2.2 4.1-2.2 1.4 0 1.7.8 1.4 4.2-.3 3.6-.7 4.3-2.8 4.8-3.8.9-5 4.4-5 15.3v9.7h-3.5-3.5z"/><path d="m378 342v-17h4 4v17 17h-4-4z"/><path d="m422 336.5v-22.5h4 4v22.5 22.5h-4-4z"/><path d="m540 355.6c0-3.6 2-4.9 6-3.9 1.5.4 2 1.4 2 3.9 0 3.3-.1 3.4-4 3.4s-4-.1-4-3.4z"/><path d="m378 317.6c0-3.5.1-3.6 4.1-3.6 3.9 0 4 .1 3.7 3.3-.3 2.9-.6 3.2-4 3.5-3.7.3-3.8.3-3.8-3.2z"/><path d="m156.5 290.3c-7.4-1.9-17.4-12.1-19-19.3l-.6-2.9-4.1 1.5c-5.6 1.9-7.5 1.1-8.8-3.7-.9-3.3-1.8-4.3-4.8-5.6-4.1-1.7-10.7-1.1-13.3 1.3-1.3 1.1-3.9 1.4-12 1.2l-10.4-.3-.3-3c-.3-2.7.2-3.3 3.3-4.8 3.9-1.9 3.8-1.4 3.5-11.7-.2-8.6-1.4-10.3-6.7-9.5-1.8.3-4.9.7-6.8 1s-7 2.9-11.2 5.8c-12.2 8.1-28.3 15.8-37 17.7-4.2 1-6.2.9-10.5-.4-10.3-3-14.9-12.1-16.8-33.1-1.1-11.7-1.1-146.7 0-161 .9-12.8 3-25.5 4.2-25.5.4 0 .8-.8.8-1.7 0-3.5 4.8-11.9 10-17.6 11.8-12.9 32.4-18.5 64.5-17.4 24.5.8 34.8 2.8 47.4 8.9 8.7 4.3 11.5 6.9 15.7 14.4 3.1 5.6 3.7 7.7 4.5 16.2 1 11.2 1.2 33.6.3 37.8-.5 2.5-1.4 3.1-6.2 4.7-3.1.9-7.2 2-8.9 2.3-1.8.4-3.3 1-3.3 1.4 0 .5-1.9 1.1-4.2 1.5-2.4.4-5.9 1.3-7.8 2s-6.9 2.2-11 3.4-9.5 2.8-12 3.6c-2.5.7-5.5 1.6-6.7 2l-2.3.6v-30.1c0-36-.2-37-9.3-37-4.9 0-10.4 1.8-11.4 3.8-.4.9-.9 27.1-1.1 58.2l-.3 56.5h5.8c3.2 0 7.3.4 9.1.8 3 .8 3.2.7 3.2-1.6 0-1.3.9-3.6 2-5s2-3.3 2-4.2c0-1 1.8-2.4 4.8-3.7 2.6-1.1 7.5-3.3 11-4.9 3.4-1.6 6.6-2.9 7.1-2.9s2.2-.7 3.8-1.5c4.3-2.2 12.1-5.5 13.2-5.5.5 0 2.2-.7 3.8-1.5 1.5-.8 5.1-2.4 7.8-3.5 2.8-1.1 6.2-2.7 7.7-3.4 3.4-1.8 3.5-1.4 3.1 10.7-.2 8.2 0 9.9 1.3 10.4.9.3 1.9.1 2.3-.5.4-.7 2.9-1.5 5.7-1.8 2.7-.3 6.7-1.2 8.9-1.9l4-1.3.1-62.6c.1-34.5.3-62.8.5-63s17.7-.5 38.8-.7l38.4-.4 2.7 8c1.5 4.4 4 12.1 5.4 17 3.2 10.4 8 24.1 10.7 30.2 1.1 2.3 1.9 4.8 1.9 5.5 0 1.5 1.9 3.8 3.2 3.8.5 0 1.7-1.9 2.7-4.2 2.8-6.5 8-18 9.5-20.8.7-1.4 2.3-5.4 3.6-9s2.6-6.9 3-7.5c.4-.5 1.7-3.9 2.9-7.5s3.2-8.7 4.4-11.3l2.2-4.8 36.5.7c20.1.4 36.6.8 36.8.9.2.2.3 33.7.3 74.4-.1 58.3.2 74.3 1.2 74.6.6.2 6.4.6 12.8 1l11.6.6-.9-5.8c-1.2-7.6-1.6-92.7-.6-106.8 1.1-14.6 4.1-20.9 13.3-28.1 11.8-9.3 34.6-14 63.4-13.1 16.6.5 29.8 2 31.5 3.7.5.5 2 1 3.1 1 1.2 0 5 1.4 8.4 3.1 14.4 7.2 23.6 21.5 26.3 40.9 1 7.6 2.3 72.2 1.5 74.4-.5 1.3-1.2 1.3-4.9.2-2.4-.8-7.7-2.4-11.8-3.6s-8.4-2.6-9.5-3.1-3.8-1.3-6-1.9c-11.4-2.8-17.1-4.4-17.5-5-.3-.4-2.3-1-4.5-1.4s-5.2-1.3-6.7-1.9l-2.8-1.2v-34.2c0-32.6-.1-34.4-1.9-36.2-3.8-3.8-15.2-4-17.8-.4-1 1.3-1.3 18.2-1.3 76.9 0 41.6.4 76.3.9 77.6.8 2.2 4.8 6.7 8.3 9.5 2.5 1.9 8.3 3.1 10.1 2.1 1.5-.8 1.7-3.7 1.7-26.3 0-22.1.2-25.5 1.5-25.5.8 0 9.5 3.4 19.3 7.6 9.7 4.2 18.8 8 20.2 8.6s7 2.9 12.5 5.3l10 4.2.3 20.9c.4 34.3-2.1 48.5-9.9 56.5-5 5.1-9.4 6.2-17.8 4.4-7.5-1.6-12-3.3-20.4-7.7-3.2-1.6-6.1-2.8-6.3-2.5-.3.3.4 2.3 1.5 4.6 1.2 2.2 2.1 5.4 2.1 7 0 3.9-4 7.1-9 7.1-3.9 0-7 2.3-7 5.4 0 2.9-4.9 10.4-8.8 13.4-6 4.6-10.4 6.2-17.4 6.2-11.2 0-20.4-6.1-24.9-16.5-2.8-6.6-6.6-10.5-9.9-10.5s-6 2.8-6 6.3c0 5.5-2 5.8-31.9 5.5-29-.3-29.6-.4-30.6-5.6-.2-1.2-.7-2.7-1-3.2-.4-.6-8.3-1-20.2-1h-19.5l-4-4.5-4-4.5h-21.5c-20.6 0-21.6.1-26.8 2.4-5.5 2.6-5.7 2.9-7.5 10.9-1.6 7.4-6.6 13.6-14.1 17.6-6 3.1-6.9 3.3-13.9 2.9-5.9-.4-8.4-1-11.6-3-5.2-3.3-11-10.1-12.4-14.4-1.5-4.3-2.6-4.3-3.4 0-.9 4.7-8 12.4-14.1 15.2-4.9 2.3-13.5 3.1-19 1.7zm15.1-19.9c2.5-2.6 3.4-4.5 3.4-6.9s-.9-4.3-3.4-6.9c-2.8-3-4-3.6-7.5-3.6-5.3 0-8.7 2.2-10.1 6.6-1.5 4.4-.5 8.8 2.6 11.9 1.9 1.9 3.5 2.5 7.1 2.5 3.9 0 5-.5 7.9-3.6zm55 0c3.7-3.9 4.2-6.9 1.9-11.4-2.1-4-5.3-6-9.8-6-4.9 0-8.3 2.3-9.7 6.6-1.5 4.4-.5 8.8 2.6 11.9 1.9 1.9 3.5 2.5 7.1 2.5 3.9 0 5-.5 7.9-3.6zm232.4 2.3c4.4-3.5 6-8.9 3.9-13-2.6-5-5.1-6.7-9.8-6.7-6.6.1-11.1 4.3-11.1 10.5 0 3.2 2.4 8.1 4.7 9.4 2.5 1.4 10.5 1.3 12.3-.2zm-51.9-3.8c.6-1.3 1-5.2.7-9.6-.4-8.7-1.7-10.3-8.2-10.3-6.2 0-6.7.7-6.5 8.9.2 7.7-.1 8.7-2.6 7.8-1.2-.5-1.5-2.4-1.5-8.7v-8h-6.9c-10.2 0-10.1-.1-10.1 9.1 0 7.2-.2 7.9-2 7.9-1.7 0-1.9-.8-2.2-8.2l-.3-8.3h-5.8c-4 0-6.1.5-6.7 1.5-1.1 1.7-1.4 18.3-.3 19.3.3.4 12 .7 25.9.7 24.8 0 25.4 0 26.5-2.1zm-276.8-12.9c.8-3.6 8.2-11.8 12.9-14.2 9.6-4.8 10.3-5 22-4.6 10.1.3 11.9.6 17 3.2 3.1 1.5 7 4.1 8.8 5.7l3.2 3 3.8-3.5c7-6.3 14.5-9 23.9-8.4 8.3.5 18.6 5.2 23 10.6 3.7 4.5 4.6 3.6 5.6-5.1.7-5.6.5-6.2-1.6-7.9-2-1.6-3.6-1.8-9.9-1.3-4.1.2-22.9.6-41.7.7-18.7.2-33.9.6-33.7.9s-1.8.2-4.4-.2-5.5-.3-6.4.2-4.2.9-7.2.9c-5.4 0-5.7.1-12.1 6.1-6.4 6.1-6.5 6.3-6.5 11.4 0 7.2 2.1 8.8 3.3 2.5zm292.3-9.8c2.6-8.8 7.5-15.6 13.7-18.9 2.4-1.3 5.7-1.8 13.7-1.8 9.2 0 11.1.3 15 2.4 4.8 2.5 11.8 7.7 13.6 10 1.3 1.7 3.4.6 3.4-1.7 0-2-3.4-12-5.6-16.8-1.2-2.5-3.4-4.1-10.2-7.4-4.8-2.3-9.5-4.6-10.4-5.1-1-.5-3.4-1.3-5.5-1.9-11.7-3-17.3-4.7-17.9-5.3-.4-.4-4-.7-7.9-.7h-7.2l-.6 24.7c-.6 21.3-.5 25 .8 27 2.1 3.2 3.2 2.2 5.1-4.5zm-67.6-2.6 3-2.5v-24.5c0-23.9.1-24.6 2-24.6s2-.7 2-13.6v-13.6l19.4.7c10.7.3 20.7 1 22.2 1.4 2.6.7 3.1 1.5 5.7 11.2 1.5 5.7 2.9 12 3 13.9l.2 3.5-25.7.3-25.8.2v14.6 14.6l5.8-5c3.1-2.8 7.9-7.3 10.7-10.1 2.7-2.8 5.2-5.1 5.6-5.1s1.9 2.5 3.3 5.5 2.8 5.5 3.1 5.5 5.3-2.7 11-6.1c7.4-4.3 10.5-6.7 10.5-8 0-1.1 1.7-3 4.1-4.6 3.2-2.1 3.9-3.1 3.4-4.7-2.6-8.6-4.6-17.3-4.3-19.5.2-2.1.9-2.7 4.1-3.2 2-.3 4-.9 4.4-1.3 2.2-2.1-11.3-7-24.2-8.7-11.9-1.5-27.3-2.2-29.3-1.3-1 .4-4.4 1.3-7.7 1.8-5.8 1.1-6 1.2-6.3 4.3-.2 2.2-1.2 3.9-3.3 5.3l-2.9 2.1v39.3c0 21.6.3 39.6.7 40s1.1-.6 1.5-2.2c.5-1.7 2.2-4.2 3.8-5.6zm78.5 2.3c6.3-6.5 11.7-8.9 20.1-8.9 6.3 0 15.9 2.3 17 4.1.3.5.9.9 1.5.9 3.2 0-2.9-7.3-8.5-10.1-2.9-1.5-6.8-2.2-13.1-2.6-8.7-.5-9.1-.4-13.8 2.6-3.5 2.3-5.4 4.4-6.8 7.7-2.4 5.3-3.6 11.4-2.3 11.4.5 0 3.2-2.3 5.9-5.1zm-333.5-3.8c0-8.8-1.5-14.6-3-12.1-2.1 3.3-.7 20 1.6 20 1.1 0 1.4-1.9 1.4-7.9zm310.4-7.8c.7-4.8.8-25.3 0-25.3-.9 0-19.8 11.4-20.5 12.4-1.1 1.5-2.8-.3-5.5-5.6l-2.5-5-5.2 4.9c-2.8 2.6-7.5 7-10.4 9.7-4.3 4.1-5.3 5.5-5.3 8.2v3.4l16.8.3c9.2.1 20.1.4 24.3.5l7.6.2zm-114.6.2c.6-.3 1.2-1.3 1.2-2.3 0-2.3-11.7-18.2-13.4-18.2-1.8 0-4.2 2.6-8.6 9.5-3.7 5.6-5 10.2-3.3 11.9.7.7 21.5-.1 24.1-.9zm47.9-16.7c-.4-9.9-.7-27.8-.7-39.5v-21.4l-2.7.3-2.8.3-.5 15.6c-.3 9.2-1 16.2-1.6 17-1.3 1.6-2.8 39.9-1.8 43.7.6 1.9 1.3 2.2 5.7 2.2h5zm-82.5 15.6c2.5-1.2 5-4.4 10.6-13.9 7.8-13.2 8.9-16.4 11.8-34.1 2.9-18.3.8-22.1-17.4-31.7-26.3-13.8-60.1-20.3-93-17.7-13.4 1-15.5 1.5-23.7 4.9-4.9 2.1-9.7 4-10.5 4.3-2 .7-10.2 16.5-13.1 25.3-1.8 5.4-2.3 9.3-2.3 17.2-.1 9.5.1 10.3 2.4 12.8 3 3.3 23.7 13.7 37.5 18.9 5.5 2.1 10.7 4.2 11.7 4.7.9.4 3.9 1.1 6.8 1.5 2.8.4 5.7 1.2 6.4 1.9.9.9 9.7 1.4 32.2 1.9l30.9.7 2.5 2.5c2.9 2.8 3 2.9 7.2.8zm-126.1-2c2.1-2.6-.2-17.8-3.2-21-3.2-3.4-8.2-3.1-8.7.6-.8 5 1 19 2.5 20.5 1.9 2 7.7 1.9 9.4-.1zm37.7-1.5c-.4-2.6.1-2.3-15.2-8.7-14.5-6.1-16.1-6-16.1 1.6.1 4.1.5 5.4 2.5 7.1 2.2 1.8 3.9 2 15.8 2.1 13.1 0 13.3 0 13-2.1zm137.2-3c0-2.3-1-6.2-2.2-8.6-2.2-4.3-2.3-4.4-6.3-3.8-8.8 1.4-8.9 1.6-4.3 8.3 5.3 7.7 5.9 8.2 9.5 8.2 3.2 0 3.3-.1 3.3-4.1zm-236-3.1c3.8-2.9 8.7-6.5 11-8 4-2.7 5.5-6.8 2.6-6.8-2.4 0-17.2 8.4-22 12.5-3.1 2.6-4.6 4.7-4.6 6.3 0 2.2.3 2.4 3.1 1.8 1.6-.3 6.1-2.9 9.9-5.8zm253.3 3.7c1.1-1 1.5-4.2 1.6-12l.2-10.5h-4.4c-6.2 0-9.7 3.8-9.7 10.4 0 5.4 1.2 8.2 4.9 11.3 3 2.6 5.4 2.9 7.4.8zm-213.5-7.8c.3-2.5.1-2.7-3.5-2.7-2.1 0-4.4.4-5.1.8-2 1.3-.3 4 2.6 4.4 4.7.6 5.7.2 6-2.5zm-50.4-2.8c6.4-5.9 7.3-8.9 2.5-8.9-4.4 0-12.9 7.3-12.9 11.2 0 4.5 3.8 3.7 10.4-2.3zm49-4.5c.9-.3 1.6-1.5 1.6-2.5 0-1.6-.8-1.9-5-1.9-4.3 0-5 .3-5 1.9 0 1.4.8 2.1 2.8 2.4 1.5.2 3 .5 3.4.6.3 0 1.3-.2 2.2-.5zm195.9-3c.9-.3 1.7-1.4 1.7-2.5 0-4.2-8.4-9.1-18.8-10.9-4-.7-4.4-.5-5.3 1.8-1.2 3.1-.2 9.1 2 11.5 1.4 1.7 2.6 1.8 10.1 1.2 4.7-.3 9.3-.9 10.3-1.1zm-196.9-7c.9-.3 1.6-1.5 1.6-2.5 0-1.6-.8-1.9-5-1.9s-5 .3-5 1.8c0 1 .3 2.2.7 2.5.8.9 5.6.9 7.7.1zm213.5-3.1c3.9-2.3 4.6-4 2.1-5.3-2-1-2-2.5-2-72 0-67.6-.1-71-1.8-71-1 0-2.4 1.4-3.3 3.2-.8 1.8-4.4 8.5-7.8 14.8-3.5 6.3-7.6 13.8-9.1 16.5-1.5 2.8-5.9 10.6-9.7 17.5s-9.2 16.6-11.8 21.5c-2.7 5-5.7 10.4-6.7 12-.9 1.7-2.2 4.2-2.8 5.8-.7 1.5-1.5 2.7-1.8 2.7-.6 0-14.1-22.9-22.1-37.2-3.2-5.7-5.5-9.8-8.8-15.3-9.6-16-18.5-32.5-19.3-35.8-1-4.7-1.3-5.1-3.9-4.2-2.1.6-2.1 1-2.1 40.5v39.9l3.8.7c2 .4 4.2 1 4.7 1.4.6.4 2.8 1 5 1.4 9.4 1.6 29.6 9 40.5 14.8 16.4 8.7 22.9 16.2 21.6 25.1-1 7.8 5.5 18.6 11.4 18.7.8 0 3.5 1.4 6 3 5.4 3.5 13 4 17.9 1.3zm-213.1-9c.3-2.1-.1-2.3-4.2-2.3-3.9 0-4.6.3-4.6 1.9 0 2.3 1.5 3.1 5.5 2.8 2.3-.2 3.1-.7 3.3-2.4zm294.2 0c0-2-3.8-13.2-6.1-17.8l-1.4-3-11.8-.3-11.7-.3v8.8c0 4.8.3 9.8.6 11 .7 2.5 2.7 2.8 19.7 3.1 9.6.2 10.7 0 10.7-1.5zm-329.2-7.7c3.4-3.7 3.1-9.6-.8-12.4-4-3-7.8-2.8-11.2.5-3.8 3.7-3.9 9.3-.2 12.2s9.2 2.8 12.2-.3zm34.2-2.1c0-2.3-.4-2.5-4.5-2.5-3.7 0-4.5.3-4.5 1.8 0 2.7.9 3.2 5.2 3.2 3.4 0 3.8-.3 3.8-2.5zm-.8-8.1c.3-.3.4-1.4.1-2.5-.4-1.5-1.4-1.9-4.4-1.9-4 0-5.4 1.1-4.5 3.5.5 1.5 7.6 2.2 8.8.9zm12.8-9.8c0-.6.9-2.8 2-4.8l1.9-3.7-2.5-2c-1.5-1.1-5.1-3.2-8.2-4.7-10-4.7-25-2.2-26 4.4-.3 1.6.3 2.3 2.5 2.8 3.8 1 7.3 3.3 7.3 5 0 2.3 9.2 1.8 12.3-.6 4-3.2 5.7-2.6 5.7 1.9 0 2.2.5 4.1 1.3 4.4 1.4.5 3.7-1.1 3.7-2.7z"/></g></svg>