<?xml version="1.0" encoding="utf-8"?>
<!DOCTYPE svg PUBLIC "-//W3C//DTD SVG 1.0//EN" "http://www.w3.org/TR/2001/REC-SVG-20010904/DTD/svg10.dtd">
<svg version="1.0" xmlns="http://www.w3.org/2000/svg" width="7084px" height="6667px" viewBox="0 0 7084 6667" preserveAspectRatio="xMidYMid meet">
 <g fill="#000000">
  <path d="M1846 6449.60 c-26.40 -4.40 -53.20 -14 -68.80 -25.20 -29.60 -21.60 -48.80 -67.20 -49.20 -115.20 l0 -21.20 51.60 0 51.20 0 2.80 16.40 c8.80 56 58.80 71.20 86.80 26.40 10.40 -16.40 7.60 -36 -7.20 -51.60 -12.40 -12.80 -31.20 -19.20 -58 -19.20 l-19.20 0 0 -41.60 0 -41.20 24 -2.40 c38.40 -4 55.60 -17.20 56 -42 0 -10.40 -3.60 -17.20 -14 -27.60 -12 -12 -16 -14 -27.20 -11.60 -18.80 3.60 -34 22.40 -37.20 46.40 l-2.80 20 -50 0 -50 0 2 -33.20 c4.40 -65.20 33.20 -104.80 89.20 -120.80 28.80 -8.40 98 -6.40 126.40 3.60 25.60 9.20 50.80 32 62 56 8 16.80 9.60 26.80 9.60 58.40 0 39.20 -6.80 63.60 -21.20 75.60 -6 4.80 -5.60 6.40 6 17.60 22 22.40 28.80 43.60 28.80 88.80 -0.40 44.80 -5.60 63.60 -26 92 -15.60 21.60 -36.40 36.80 -61.60 44.40 -20 5.60 -83.60 10.40 -104 7.20z"/>
  <path d="M2493.20 6448 c-56 -12 -93.60 -57.20 -107.20 -129.60 -3.60 -18 -6 -54 -6 -86.40 0 -122.80 26.80 -188.80 88.80 -220 22.80 -11.20 27.20 -12 69.20 -12 54.80 0 78.80 6.80 104.40 29.20 24 21.20 34.40 42.40 36.80 76 l2 26.80 -52.80 0 c-43.20 0 -52.40 -1.20 -52.40 -6 0 -8.80 -24 -34 -32.80 -34 -14.80 0 -29.60 11.60 -40.40 31.20 -13.60 25.20 -14.40 34.40 -1.60 30 4.80 -1.60 29.60 -3.20 54.80 -3.20 42 0 47.60 1.20 66.40 10.80 38.40 20 59.60 53.60 65.60 102.80 10.80 83.60 -24 157.60 -83.20 178.40 -22 7.60 -87.20 11.20 -111.60 6z m69.60 -106 c16.40 -17.20 21.60 -36.40 16.40 -58.40 -5.60 -20.80 -27.20 -43.60 -42.40 -43.60 -28 0 -51.20 30.80 -47.60 63.20 2 20 11.60 34.80 30.80 48 16.40 10.80 25.60 8.80 42.80 -9.20z"/>
  <path d="M3005.60 6446.40 c-50.80 -12.40 -82 -49.20 -100 -118.40 -9.60 -35.20 -9.60 -152.40 0 -196 12 -56 41.60 -100.40 80.40 -121.20 22 -11.60 98.40 -14.80 131.20 -5.20 46.40 13.60 77.20 52 81.60 101.60 l2.40 24.80 -52.40 0 -52.80 0 -5.60 -13.60 c-11.20 -26.40 -33.60 -33.20 -53.60 -16.40 -10.40 8.80 -31.60 48.40 -28 52.40 1.20 0.80 8 -0.40 15.60 -2.40 7.20 -2.40 29.20 -4 48.40 -4 45.60 0 70.80 9.20 96 34.80 26.80 27.60 36 50.80 38.40 97.60 2.80 55.60 -7.60 92.40 -35.60 128 -28.40 36 -103.20 53.20 -166 38z m65.60 -94.40 c14.40 -8.80 28.40 -35.20 28.80 -53.20 0 -27.20 -25.60 -58.80 -48 -58.80 -16.40 0 -38.80 20.80 -44 40.40 -7.60 27.60 7.20 60.40 32.80 72.80 16.40 8.40 14.80 8.40 30.40 -1.20z"/>
  <path d="M4498 6448.40 c-69.60 -11.20 -110 -60.80 -110 -134.80 l0 -25.60 51.60 0 51.20 0 2.80 19.60 c1.20 10.80 6.40 24.40 11.20 30.40 10 12.80 32 22.80 42 19.20 16.80 -5.60 33.20 -22 37.60 -37.20 4 -13.20 3.60 -17.20 -2.80 -28.40 -12.80 -21.20 -25.60 -28.40 -57.20 -30.80 l-28.40 -2 0 -41.20 0 -41.60 13.20 0 c38 -0.40 66.80 -19.20 66.80 -44 0 -15.60 -18 -35.20 -34.80 -38.40 -11.20 -2.40 -15.20 -0.40 -26.80 11.20 -9.20 9.20 -14.80 19.20 -16.40 29.60 -1.60 8.40 -3.20 18 -4 20.80 -1.20 3.60 -14.80 4.80 -50 4.80 l-48 0 0 -27.20 c0 -56 23.60 -98.40 66.80 -119.20 22 -11.20 26 -11.60 77.60 -11.60 54.40 0 54.40 0 82 14 30.80 15.60 50.80 38 58 65.20 2.40 9.20 3.60 33.20 2.80 53.60 -1.60 33.60 -2.80 38.80 -13.60 54.40 l-12.40 17.20 14.80 16.80 c20 22.40 25.20 43.20 23.20 93.60 -1.20 34.80 -3.20 44.40 -12.40 61.60 -13.60 27.20 -44.40 54.40 -70.80 62.80 -24 8 -85.60 11.60 -114 7.20z"/>
  <path d="M4828 6448.40 c-41.60 -7.60 -66.40 -25.60 -84 -60 -20 -40.40 -24.80 -64 -26.80 -144.40 -3.60 -136.40 18.80 -203.60 78 -232.80 16.80 -8.40 24.40 -9.20 74.80 -9.20 50.80 0 57.60 0.80 75.20 9.60 58 28.80 81.60 99.20 77.60 232.40 -2.40 77.60 -7.20 102.40 -28 144 -14 28 -37.20 48 -66 56 -20.80 5.60 -79.20 8.40 -100.80 4.40z m72.80 -119.60 c12.40 -27.20 18 -94.40 12.40 -148.40 -4.80 -47.60 -12.40 -68.80 -30 -81.60 -9.20 -6.80 -12.40 -7.20 -22.80 -2.80 -6.40 2.40 -14.80 9.20 -18.40 14.80 -24.40 37.20 -23.60 195.60 1.20 229.20 19.20 26 43.20 21.20 57.60 -11.20z"/>
  <path d="M5133.20 6446 c-54.40 -16.80 -85.20 -55.60 -85.20 -106.40 l0 -19.60 51.60 0 51.60 0 4.80 11.60 c6 14.80 14.80 23.20 28.40 26.40 12.80 3.20 32.40 -12 43.60 -34.40 10.80 -21.20 10.40 -29.20 -0.80 -24.80 -5.20 1.60 -28.80 3.20 -53.20 3.20 -40 0 -46 -0.80 -66.80 -11.20 -29.60 -14.40 -53.60 -41.60 -61.60 -70 -9.60 -32.40 -6.40 -116 5.20 -141.60 11.60 -25.20 38.40 -53.60 63.20 -66.40 17.60 -9.20 25.60 -10.80 68 -12 42 -1.20 50.80 -0.40 71.60 7.60 45.60 16.80 76 56.80 88.40 115.60 8.40 39.20 8 150 -0.40 191.20 -14.40 72.40 -47.20 114.40 -101.60 130.40 -26 7.60 -82.80 8 -106.80 0.40z m79.20 -243.20 c19.20 -12.80 28.40 -32.40 26 -54.40 -4.80 -36.40 -34 -62.40 -58.80 -52.40 -36.40 15.20 -44.40 76.40 -13.20 104 16.40 14.40 27.60 15.20 46 2.80z"/>
  <path d="M2176 6298 l0 -142 -50 0 -50 0 0 -39.60 0 -39.60 27.20 -2.80 c47.60 -4.80 77.20 -25.20 83.20 -56 l2.40 -14 47.60 0 47.60 0 0 218 0 218 -54 0 -54 0 0 -142z"/>
  <path d="M3384 6396 l0 -44 -82 0 -82 0 0 -48.80 0.40 -49.20 75.60 -124 75.60 -124 58 -1.20 58.40 -1.20 0 130.40 0 130 24 0 24.40 0 -1.20 43.20 -1.20 42.80 -22.80 1.20 -23.20 1.20 0 43.60 0 44 -52 0 -52 0 0 -44z m0 -186.80 c0 -30 -1.20 -53.60 -2.40 -52.40 -2.80 3.20 -61.60 103.60 -61.60 105.60 0 0.80 14.40 1.60 32 1.60 l32 0 0 -54.80z"/>
  <path d="M3668 6298 l0 -142 -50 0 -50 0 0 -39.60 0 -39.60 27.20 -2.80 c47.60 -4.80 77.20 -25.20 83.20 -56 l2.40 -14 47.60 0 47.60 0 0 218 0 218 -54 0 -54 0 0 -142z"/>
  <path d="M4228 6396 l0 -44 -82 0 -82 0 0 -49.20 0 -48.80 75.20 -124 75.20 -124 58.80 -1.20 58.80 -1.20 0 130.40 0 130 22 0 22 0 0 44 0 44 -22 0 -22 0 0 44 0 44 -52 0 -52 0 0 -44z m0 -188.80 c0 -31.20 -0.80 -55.60 -1.60 -54.80 -3.20 4 -62.40 107.20 -62.40 109.20 0 1.20 14.40 2.40 32 2.40 l32 0 0 -56.80z"/>
  <path d="M2700 6266 l0 -50 94 0 94 0 0 50 0 50 -94 0 -94 0 0 -50z"/>
  <path d="M3868 6266 l0 -50 94 0 94 0 0 50 0 50 -94 0 -94 0 0 -50z"/>
  <path d="M5002.40 5900 c-38 -4.80 -76.40 -24.40 -92.40 -47.20 -9.20 -13.60 -12 -22.40 -13.20 -42.80 l-1.60 -26 55.60 0 56 0 4.40 10.40 c6 12.80 30 23.20 47.20 20 16.80 -3.20 33.20 -16.80 40 -32.80 8.40 -20 7.20 -22.40 -7.20 -14.80 -19.60 10 -83.20 12 -113.20 3.60 -31.20 -9.20 -65.20 -42.40 -78 -76.40 -11.20 -29.20 -15.60 -107.20 -8.40 -142.40 10.40 -50.40 39.60 -92.40 76 -109.20 15.20 -6.80 26.40 -8.40 62.40 -8.40 38 0 46.40 1.20 61.20 8.80 13.60 7.20 16.80 8 16.80 3.20 0 -5.20 8.80 -6 52.40 -6 l52 0 -1.20 185.20 c-1.20 184.40 -1.20 184.80 -10.80 205.60 -13.20 29.20 -37.60 50.80 -69.20 60.40 -30 9.60 -90.40 13.60 -128.80 8.80z m62.80 -221.60 c42 -17.20 54.80 -85.20 24 -125.60 -14.80 -19.60 -33.20 -26.40 -50.40 -19.20 -19.20 8 -33.60 27.20 -38.80 52.40 -9.60 45.20 13.60 89.20 51.20 97.60 0.40 0.40 6.80 -2 14 -5.20z"/>
  <path d="M483.20 5784 c-77.20 -13.20 -127.60 -60.40 -149.60 -140.40 -10 -35.60 -10.40 -138.80 -0.40 -174.40 19.20 -71.20 61.20 -118.40 122 -137.20 31.60 -10 111.20 -11.20 143.60 -2.40 70 18.80 117.60 72.40 124 139.60 l2.40 26.80 -56.40 0 -56.40 0 -8.40 -18.80 c-10.80 -24.40 -22 -36.40 -42 -45.60 -43.60 -20 -88.80 4.40 -110.80 60.40 -11.60 30 -12.80 92 -1.60 123.60 13.20 38 49.20 68.40 80.80 68.40 33.20 0 69.20 -30.80 76.40 -64.80 l2.40 -11.20 55.60 0 56 0 -1.60 25.20 c-3.20 48.80 -41.60 107.60 -87.20 132.40 -35.60 19.60 -97.20 27.20 -148.80 18.40z"/>
  <path d="M839.60 5778 c-42.40 -13.20 -77.60 -50.80 -92 -98.40 -7.20 -23.60 -8 -35.60 -6.80 -80.80 1.20 -50 2 -54.40 14.80 -81.20 15.60 -33.60 42 -61.60 69.20 -73.60 42 -18.40 128 -18.80 169.20 -0.40 39.20 17.20 72 61.60 82.40 111.60 7.20 34.40 2.80 105.60 -8 134 -16.80 43.20 -50.80 77.20 -89.20 88.80 -26.80 8 -113.60 7.60 -139.60 0z m92.80 -94.80 c41.20 -22.80 49.20 -101.20 14.40 -138.40 -13.60 -14.40 -30.40 -22 -43.60 -19.20 -63.60 12.80 -74.80 129.60 -15.20 159.20 18.40 9.20 25.60 9.20 44.40 -1.60z"/>
  <path d="M1192.80 5776.80 c-38 -13.60 -68.80 -45.60 -85.20 -87.60 -10.80 -28.40 -15.20 -99.60 -8 -134 10.40 -50 43.20 -94.40 82.40 -111.60 41.60 -18.40 126.40 -18 170 0.80 25.60 11.20 53.20 40.80 69.20 74.80 11.60 24.80 12.80 30.40 14 79.20 1.20 41.20 0.40 57.60 -5.20 76 -13.20 45.60 -40.40 79.60 -77.60 97.20 -20.40 9.60 -27.60 10.40 -80.40 11.60 -48.40 0.80 -61.60 -0.40 -79.20 -6.40z m102.80 -96.40 c18.40 -13.20 30 -41.60 30 -72.40 0 -59.20 -40 -97.20 -80.80 -76.40 -29.60 15.20 -45.60 57.20 -36.80 97.60 11.20 52.80 51.60 76.40 87.60 51.20z"/>
  <path d="M2680 5780.40 c-19.20 -6.40 -34 -16 -50.40 -33.20 -34.80 -36 -48.40 -83.20 -44.40 -153.20 6.40 -112 60.40 -167.20 157.20 -161.20 17.60 1.20 35.20 5.20 45.20 10 l16.40 8 0 -59.20 0 -59.60 54 0 54 0 0 222 0 222 -52 0 c-44 0 -52 -0.80 -52 -6 0 -5.20 -3.20 -4.40 -16.80 2.80 -14 7.20 -24.80 9.20 -59.20 10 -23.20 0.40 -46.40 -0.40 -52 -2.40z m93.60 -100 c36.40 -20.40 41.60 -96.40 9.20 -132 -32 -34.40 -70.40 -17.60 -84.40 37.20 -10.80 40.40 6 88 34.80 100.40 14 6 22.40 4.80 40.40 -5.60z"/>
  <path d="M3618 5776.80 c-25.20 -8.80 -54.80 -29.20 -68 -46.80 -19.60 -25.20 -26.80 -52 -28.80 -104 -3.20 -76.80 10 -121.20 46 -156.40 24.80 -24.40 52.40 -34.80 98.80 -36.80 71.20 -3.20 114 13.20 143.20 55.20 21.20 30.40 28 57.20 28.40 110 l0.40 44 -102.80 1.20 c-111.20 1.20 -110 0.80 -95.60 22.40 10 15.20 28 26.40 42.40 26.40 14.80 0 36.40 -12.80 40 -23.60 2.40 -8 5.60 -8.40 58.80 -8.40 l56.40 0 -2.40 20.40 c-4.40 36.80 -35.20 75.20 -74.40 92.80 -26 12 -112.80 14.40 -142.40 3.60z m106 -216.40 c0 -6.40 -16.80 -24.80 -28.80 -30.80 -16 -8.40 -32.40 -4 -47.20 12.80 -6.40 7.60 -12 15.60 -12 17.60 0 2.40 18.40 4 44 4 24.40 0 44 -1.60 44 -3.60z"/>
  <path d="M3911.20 5780.40 c-39.60 -12.80 -59.60 -41.60 -62.40 -88.40 -4 -71.20 20.40 -105.60 86.40 -121.60 l22.80 -5.60 -49.60 -0.40 -49.60 -0.40 2 -29.60 c3.20 -46.80 24.80 -76.40 67.60 -93.20 13.60 -5.20 30.80 -6.80 75.60 -6.80 51.60 0 60.80 0.80 82 9.20 32.80 13.20 51.60 32.40 57.60 59.60 2.40 12.40 4.40 61.60 4.40 120.80 0 94.80 0.40 100.40 8 108 5.60 5.60 8 13.20 8 26 l0 18 -56.40 0 c-52.80 0 -56.40 -0.40 -58.40 -8 -1.20 -4.40 -2.40 -8 -3.20 -8 -0.40 0 -9.60 4.80 -20.40 10.80 -17.60 10 -24.40 11.20 -61.60 12 -23.20 0.40 -46.80 -0.80 -52.80 -2.40z m96 -88.80 c13.20 -6.40 19.60 -12.80 25.20 -25.20 8.40 -18.40 9.60 -30.40 3.20 -30.40 -18 0 -60.40 14 -69.20 22.80 -12.80 12.80 -13.20 18.80 -0.40 31.20 12 12.40 18.40 12.40 41.20 1.60z m-6.80 -131.60 c11.60 -2.40 25.60 -7.20 31.20 -10.80 l10 -6.40 -11.20 -9.20 c-16 -14 -39.60 -13.20 -54.80 2 -13.20 13.60 -15.60 28.40 -4 28.40 4 0 16.80 -2 28.80 -4z"/>
  <path d="M5505.20 5778.40 c-35.60 -11.20 -58.80 -32.40 -75.60 -68.40 -8 -16.80 -9.60 -26.40 -9.60 -60 0 -33.60 1.60 -43.20 9.60 -60 8.40 -18.40 38.40 -50.80 56 -60.80 7.20 -4 7.20 -5.20 -4 -27.60 -10.40 -21.20 -11.60 -27.60 -11.60 -61.60 0 -33.20 1.20 -40.40 10 -56 21.60 -38.40 60 -54.40 124 -51.20 37.20 2 57.20 9.60 77.60 29.60 20.80 21.20 24.40 32 24.40 77.60 0 49.20 -6.40 65.20 -35.60 90.40 l-18 15.60 16 19.60 c15.20 18.80 15.60 18.80 19.20 10 1.60 -5.20 4.80 -17.20 6.40 -26.40 l2.80 -17.20 48 0 48.40 0 -2.40 29.20 c-2.40 32 -17.20 79.60 -30 97.20 l-8 11.20 33.60 40 c27.20 32.40 33.60 42.40 33.60 53.20 l0 13.20 -61.60 0 -62 0 -8.40 -12 -8.40 -12 -15.20 9.60 c-25.60 16 -54 22.40 -100 22 -23.20 0 -50 -2.40 -59.20 -5.20z m90 -94.40 c9.20 -4 16.80 -9.20 16.80 -10.80 0 -1.60 -12 -18 -26.40 -36 -26 -32.80 -26 -33.20 -36 -26.40 -5.60 3.60 -13.60 13.60 -18 22 -8 15.60 -8 16 -0.40 28.40 8 14 30.40 30.80 40.40 30.80 3.60 0 14 -3.60 23.60 -8z m11.20 -236.80 c5.20 -10 5.20 -11.60 -2.40 -19.20 -9.60 -9.60 -15.20 -10 -24.80 -1.20 -9.20 8.40 -9.20 15.20 1.20 29.60 9.60 13.60 15.60 11.20 26 -9.20z"/>
  <path d="M4250.80 5775.60 c-43.60 -10.40 -46.80 -20.80 -46.80 -149.60 l0 -102 -22 0 -22 0 0 -40 0 -40 22 0 22 0 0 -44 0 -44 54 0 54 0 0 44 0 44 24 0 24 0 0 40 0 40 -24 0 -24 0 0.80 83.20 1.20 82.80 23.20 1.20 22.80 1.20 0 43.60 0 44 -46.80 -0.40 c-26 -0.40 -54 -2 -62.40 -4z"/>
  <path d="M1472 5554 l0 -222 54 0 54 0 -0.80 221.20 -1.20 220.80 -52.80 1.20 -53.20 1.20 0 -222.40z"/>
  <path d="M1804 5554 l0 -222.40 137.20 1.20 c133.20 1.20 137.20 1.60 156.80 10.40 40.80 18.80 58.40 45.60 61.20 94.40 2.40 38.40 -4.40 70.40 -18 86.40 l-10 12 10.80 8.80 c6 4.80 15.20 17.60 20.40 28.80 8 17.20 9.60 26.80 9.60 62.40 0 38 -1.20 44.40 -11.60 66 -19.60 41.20 -48.80 61.20 -100.40 69.60 -14.40 2.40 -77.60 4.40 -140.80 4.40 l-115.20 0 0 -222z m228 114.80 c8.80 -4 16.80 -12.80 21.60 -22.40 6.80 -14 6.80 -16.40 1.20 -28.40 -10 -21.20 -26 -26 -88.40 -26 l-54.40 0 0 42 0 42 53.20 0 c42.40 0 55.60 -1.60 66.80 -7.20z m-8 -179.20 c28.80 -11.60 33.20 -36.80 9.60 -52.40 -8.80 -5.60 -21.60 -7.20 -66.40 -8.40 l-55.20 -1.60 0 34.40 0 34.40 48 0 c34.80 0 52.40 -1.60 64 -6.40z"/>
  <path d="M2216 5608 l0 -168 54 0 54 0 0 168 0 168 -54 0 -54 0 0 -168z"/>
  <path d="M2376 5608 l0 -168 52 0 c50 0 52 0.40 52 8.40 0 8 0 8 11.20 0.40 14.80 -10.80 38.40 -16.80 66 -16.80 l22.80 0 0 53.60 0 53.60 -28 1.60 c-29.60 1.60 -42 7.60 -57.60 28.80 -8 10.40 -8.40 17.20 -9.60 108.80 l-1.20 97.60 -54 0 -53.60 0 0 -168z"/>
  <path d="M3130.80 5773.20 c-1.60 -1.20 -2.80 -101.20 -2.80 -222 l0 -219.20 56 0 56 0 0 80 0 80 70 0 70 0 0 -80 0 -80 56 0 56 0 0 222 0 222 -56 0 -56 0 0 -94 0 -94 -70 0 -70 0 0 94 0 94 -53.20 0 c-29.60 0 -54.80 -1.20 -56 -2.80z"/>
  <path d="M4388 5608 l0 -168 54 0 54 0 0 168 0 168 -54 0 -54 0 0 -168z"/>
  <path d="M4552 5608 l0 -168 50 0 c48 0 50 0.40 50 8.40 l0 8 11.20 -8 c18 -12.40 45.60 -17.60 84 -15.60 52.40 3.20 78.80 17.60 98 53.20 8.40 15.20 8.80 21.60 10 153.20 l1.20 136.80 -54 0 -54.40 0 0 -104 c0 -110.40 -1.60 -121.60 -19.60 -137.60 -17.60 -16 -46 -6 -62.40 22 -7.20 12.40 -8 22 -9.20 116.80 l-1.20 102.80 -52 0 -51.60 0 0 -168z"/>
  <path d="M5964 5762.40 c0 -7.60 30.80 -99.60 68.40 -204.80 37.60 -105.60 71.20 -199.20 74.40 -208.40 l6 -17.20 62.40 0 62.80 0 73.20 207.20 c45.60 129.60 72.80 212.40 72.80 222 l0 15.20 -58.80 -1.20 -59.20 -1.20 -13.60 -42.80 -14 -43.20 -64.80 0 -64.80 0 -14.80 44 -14.80 44 -57.60 0 -57.60 0 0 -13.60z m226.40 -222.40 c-8.80 -28.40 -16.80 -49.20 -17.60 -45.60 -0.80 3.20 -8.40 26.40 -16.80 51.60 l-15.60 46 33.20 0 33.20 0 -16.40 -52z"/>
  <path d="M6408 5608 l0 -168 54 0 54 0 0 168 0 168 -54 0 -54 0 0 -168z"/>
  <path d="M6568 5608 l0 -168 52 0 c50 0 52 0.40 52 8.40 0 8 0 8 11.20 0.40 14.80 -10.80 38.40 -16.80 66 -16.80 l22.80 0 0 53.60 0 53.60 -28 1.60 c-29.60 1.60 -42 7.60 -57.60 28.80 -8 10.40 -8.40 17.20 -9.60 108.80 l-1.20 97.60 -54 0 -53.60 0 0 -168z"/>
  <path d="M2216 5378 l0 -50 54 0 54 0 0 50 0 50 -54 0 -54 0 0 -50z"/>
  <path d="M4388 5378 l0 -50 54 0 54 0 0 50 0 50 -54 0 -54 0 0 -50z"/>
  <path d="M6408 5378 l0 -50 54 0 54 0 0 50 0 50 -54 0 -54 0 0 -50z"/>
  <path d="M1541.20 4976.40 c-11.60 -5.20 -17.20 -16.80 -17.20 -35.20 0 -14 1.20 -16 19.20 -24.80 10.40 -5.60 28.80 -16.40 40.80 -24.40 12 -7.60 37.20 -21.60 56 -30.80 30.40 -14.80 144.40 -86.80 172.80 -108.80 6 -4.80 16.80 -11.20 24.40 -14.40 7.60 -3.20 16.40 -8 19.60 -10.80 2.80 -2.80 12.40 -10 21.60 -16.40 8.80 -6 21.20 -16.40 27.60 -22.80 6.40 -6.80 13.60 -12 16.40 -12 2.80 0 7.60 -2.40 10.40 -5.20 2.80 -2.80 34 -24.80 69.20 -48.40 79.20 -53.20 106.80 -72.80 112 -79.60 2.40 -3.20 9.60 -8.40 16.80 -12 22.40 -12 49.20 -31.20 49.20 -36 0.40 -4.80 48.40 -38.40 72 -50.80 10.40 -5.20 -12.80 -6 -225.20 -4.80 -187.60 0.80 -238.80 0 -246.80 -4.40 -8.40 -4 -10 -8 -10 -22.40 0 -13.20 2 -18.80 7.60 -22 4.40 -2.40 16 -9.20 26 -15.20 10 -6.40 21.20 -11.20 25.20 -11.20 4.40 0 14.40 -3.60 22.40 -7.60 8 -4.40 31.20 -15.20 50.80 -24.40 20 -9.20 43.20 -20 52 -24 8.80 -4 21.60 -8.40 28 -10 6.80 -1.60 14.80 -4.80 18 -8 3.20 -2.80 13.20 -6.40 22 -7.60 8.80 -1.60 19.60 -5.20 24 -8 4.40 -3.20 13.60 -6.40 20.80 -8 6.80 -1.60 13.60 -5.60 14.80 -8.80 1.20 -3.20 5.20 -5.60 9.20 -5.60 4 0 13.60 -3.20 21.20 -7.60 7.60 -4 24 -10.40 36 -14.40 12 -4 24.80 -9.20 28 -12 3.20 -2.40 22.80 -11.60 43.60 -19.60 20.80 -8.40 41.60 -17.60 46 -20.80 4.40 -3.20 12.80 -5.60 18.80 -5.60 6 0 13.20 -3.20 16 -6.80 3.20 -3.60 22 -14 41.60 -23.20 20 -9.20 53.20 -25.20 74 -35.60 20.80 -10 40 -18.40 42.80 -18.40 2.40 0 11.60 -4.40 19.60 -10 8 -5.60 18 -10 22.40 -10 4.40 0 16 -4.80 26.40 -10.80 l18.80 -11.20 -122 -2.80 c-67.20 -1.20 -136.40 -4.40 -154 -7.20 -17.60 -2.40 -53.60 -6 -80 -7.60 -26.40 -2 -66 -6.40 -88 -10 -22 -3.20 -55.20 -6.40 -74 -6.40 -21.20 0 -36.40 -2 -39.20 -4.80 -7.60 -7.60 -6 -40.80 2.40 -50.80 6.40 -8 52.40 -24 98.80 -34 11.20 -2.40 22 -5.60 24 -7.20 2.40 -1.60 16.80 -5.60 32 -9.20 15.20 -3.20 29.20 -7.60 31.60 -9.60 2.40 -2 14.40 -4.40 26.40 -6 12 -1.60 24.80 -5.60 28 -8.40 3.20 -3.20 15.20 -7.60 26 -10.40 11.20 -2.80 25.60 -7.20 32.80 -10 6.80 -3.20 16.80 -5.60 22 -5.60 5.20 0 16.40 -3.60 24.80 -7.60 8.40 -4.40 20.80 -9.20 27.60 -10.40 7.20 -1.60 26.80 -9.60 43.60 -18.40 17.20 -8.40 33.20 -15.60 35.20 -15.60 9.60 0 43.60 -18.40 76.40 -40.40 18.80 -13.20 36 -23.60 38.40 -23.60 2 0 14.40 -8 27.60 -18 12.80 -9.60 34 -25.60 46.80 -34.80 12.80 -9.60 29.20 -22 36.40 -28 7.60 -6.40 14.40 -11.20 15.60 -11.20 1.20 0 8.40 -5.60 15.60 -12.40 7.20 -6.80 18.80 -14.40 25.20 -17.20 6.80 -3.20 17.20 -11.20 23.60 -18 10.40 -10.80 10.80 -12.40 4 -12.40 -8.80 0 -59.60 14 -71.60 19.60 -7.20 3.60 -51.20 16 -110 31.20 -12 2.80 -39.20 10.80 -60 17.20 -66.80 20.40 -135.60 37.60 -176.80 44.40 -15.20 2.40 -27.20 6.40 -27.20 8.80 0 5.60 -74.80 0.80 -82.40 -5.20 -2.80 -2.80 -5.60 -11.60 -5.60 -19.60 0 -15.60 11.20 -27.60 31.20 -34.40 5.20 -1.60 24 -11.20 42 -22 36.80 -21.60 68 -38.40 120.80 -66.40 20 -10 50.40 -27.20 68 -37.60 31.60 -18.40 155.60 -99.60 164.80 -107.60 2.80 -2.40 6.40 -4.40 8.40 -4.40 2 0 10.80 -6.40 19.20 -14.40 8.80 -8 22.40 -20 31.20 -26.80 8.40 -7.20 17.60 -15.20 20.40 -17.60 3.20 -2.80 7.20 -5.20 9.60 -5.20 2.40 0 4.40 -1.60 4.40 -4 0 -2 2 -4 4.80 -4 2.40 0 10 -4.80 16.40 -10.80 6.40 -6.40 18.40 -17.60 26.80 -25.20 8 -7.60 22.80 -20.40 32.40 -28 9.60 -7.60 24 -20.80 32.40 -28.80 8 -8.40 15.60 -15.20 17.20 -15.20 1.20 0 6 -3.20 10.40 -7.20 4 -4 20.40 -17.20 36.40 -29.20 30 -22.80 57.60 -48 67.60 -61.60 16.40 -23.60 328.40 -306.40 360.40 -326.80 14 -9.20 41.60 -9.60 44.80 -0.80 1.20 3.60 2.40 14.40 2.40 24.80 0 22 -8.40 35.60 -37.60 60 -11.20 9.60 -37.60 32.40 -58.40 50.80 -20.80 18.40 -39.20 33.60 -40.80 34 -1.60 0 -19.60 16.40 -40 36 -20.40 20 -38.80 36 -40.40 36 -2 0 -26 22.40 -53.20 50 -27.20 27.60 -50.80 50 -52 50 -2.80 0 -41.20 35.60 -74.40 69.20 -12.40 12.40 -24 22.80 -25.60 22.80 -1.20 0 -18 14 -36.80 31.20 -78.40 71.60 -179.20 153.20 -215.20 174 -13.20 8 -26.80 17.60 -29.60 21.20 -7.20 8 -50.40 37.60 -55.60 37.60 -2 0 -4.40 1.60 -5.20 3.20 -1.60 4 -60.80 44.80 -64.80 44.80 -1.20 0 -15.60 7.60 -31.60 16.40 -16 9.20 -35.20 20 -42.80 24.40 -14 8 -23.20 15.20 -19.60 15.20 5.20 0 46.80 -13.20 58 -18.40 11.60 -5.20 85.60 -25.20 167.60 -45.60 17.60 -4 54.40 -13.20 82 -20.40 30.80 -7.60 65.20 -13.20 89.60 -14.40 l39.60 -2.40 -2 24 c-1.60 16 -5.60 29.20 -12.40 39.60 -11.20 17.20 -43.60 49.60 -49.60 49.60 -2.40 0 -7.20 3.60 -11.20 8 -4 4.40 -9.60 8 -12.80 8 -2.80 0 -12 6 -20 13.20 -15.60 13.60 -65.60 50.80 -125.20 94 -18.80 13.20 -36.80 26.80 -40.40 30 -3.60 3.20 -18 12.40 -32 20.40 -14 7.60 -38 23.20 -53.60 34.40 -15.20 10.80 -30 20 -32.40 20 -2.80 0 -10 2.40 -16.40 5.60 -6 2.80 -17.60 8 -25.20 11.60 -7.60 3.20 -26 11.60 -40.40 18.40 -14.40 6.80 -29.60 12.40 -34 12.40 -4.40 0 -11.20 2.40 -15.60 5.60 -4.40 2.80 -17.60 7.60 -29.60 10 -12 2.40 -23.60 6 -26 8 -2.40 2 -12.40 4.40 -22.40 6 -9.60 1.60 -23.20 6 -30 10.40 -6.80 4.40 -20.40 8.80 -30 10.40 -10 1.20 -22 5.20 -26.80 8 -4.80 3.20 -14.80 5.60 -22 5.60 -7.20 0 -15.60 1.60 -18.80 3.60 -6.80 4.40 2.80 5.60 81.60 12.40 28.80 2.40 67.20 6 86 8.40 29.20 3.60 210.80 2.80 358 -1.60 l32 -0.80 1.20 15.60 c1.20 14 -0.40 17.20 -18.40 34 -18 17.20 -28 22 -84.80 43.60 -10 3.60 -18.80 8 -20 9.20 -5.20 5.60 -61.60 35.60 -67.20 35.60 -4 0 -14.80 5.60 -24.80 12 -10 6.40 -20.80 12 -24 12 -3.20 0 -14.80 4.40 -26 10 -10.80 5.20 -28.80 13.60 -40 18.40 -10.80 5.20 -20.80 10.40 -22 12 -1.20 1.60 -12.40 6.80 -24.80 11.60 -12.40 4.40 -26.80 11.60 -32 15.60 -5.20 3.60 -15.60 9.20 -23.20 12.40 -7.60 2.80 -25.20 10.40 -38.40 16.40 -13.60 6.40 -26.80 11.60 -29.60 11.60 -2.80 0 -19.20 7.20 -36.80 16 -17.60 8.80 -34.40 16 -37.20 16 -2.80 0 -11.60 4.40 -19.60 10 -8 5.60 -16.80 10 -19.60 10 -2.80 0 -13.20 4.40 -23.60 10 -10.40 5.60 -21.20 10 -24.40 10 -3.20 0 -8 2.40 -10.40 5.60 -2.40 2.80 -11.60 6.40 -20.40 8 -8.80 1.20 -21.60 4.80 -28.80 8 -7.20 3.20 -24 9.60 -37.20 14.80 -13.20 4.80 -28.40 12.40 -34 16.80 -10 7.60 -8.40 7.60 220 6.40 l230 -1.60 1.20 17.20 c1.60 19.20 -4.80 27.60 -32 44.40 -8.40 4.80 -15.20 10.80 -15.20 12.80 0 2 -4.40 5.60 -10 7.60 -5.20 2 -23.20 10 -40 18 -16.40 7.60 -32 14 -34 14 -2.40 0 -4 1.60 -4 3.60 0 2 -6 5.60 -12.80 8 -7.20 2.40 -25.60 15.20 -40.40 28.40 -15.20 13.20 -32 26.80 -38 29.60 -6 3.20 -15.20 10 -20.80 15.20 -24.80 22.80 -95.20 71.20 -104 71.20 -2 0 -4 2 -4 4 0 2.40 -2 4 -4.40 4 -2.80 0 -13.60 6.40 -24 14 -10.80 7.60 -20.80 14 -22 14 -1.20 0 -30.40 20.40 -64.80 45.20 -57.20 41.20 -88.40 62.40 -153.60 104 -12.80 8 -24 14.80 -24.80 14.80 -0.80 0 -25.60 14.40 -54.80 32 -58 35.60 -58.40 33.60 4.40 24 12 -2 40.80 -5.60 64 -8.40 23.20 -2.40 43.60 -6.40 45.60 -8 2.40 -2 11.60 -3.60 20.80 -3.60 9.20 0 25.60 -1.60 36.40 -4 10.40 -2 41.60 -7.60 69.20 -12 27.60 -4.40 57.20 -10 66 -12 8.80 -2 45.60 -9.20 82 -16 36.40 -6.80 92 -18.80 124 -26.40 32 -7.60 62 -14.80 66.80 -16 4.80 -0.80 14 -3.60 20 -6.40 6 -2.40 76 -21.20 155.20 -41.20 156.80 -40 210 -55.20 213.60 -61.20 1.20 -2 13.20 -6 26.40 -8.80 13.20 -2.40 31.20 -7.20 40 -10 8.80 -3.20 26.80 -8.40 40 -12.40 13.20 -3.60 25.60 -8.40 27.60 -10.40 2.40 -1.60 7.60 -3.20 12 -3.20 4.80 0 32.80 -8 62.40 -17.60 29.60 -9.60 64.80 -20.80 78 -24.40 13.20 -4 28.40 -9.20 34 -12 19.60 -10 39.20 -18 44.80 -18 3.20 0 7.20 -1.60 9.20 -3.20 2.40 -2 20.40 -9.60 40 -16.80 56 -20.40 106.80 -42.40 172 -74.80 142.40 -70 149.60 -74.40 230 -128 14.40 -9.20 28.40 -17.20 31.20 -17.20 2.40 0 4.80 -1.60 4.80 -4 0 -2 6 -6.40 13.20 -9.60 6.80 -2.80 17.20 -10 22.40 -16 5.60 -5.60 12 -10.40 15.20 -10.40 2.80 0 7.20 -3.60 10 -8 2.80 -4.40 6.40 -8 8 -8 1.60 0 7.60 -4.40 13.60 -10 6 -5.60 12.40 -10 14.40 -10 3.60 0 22 -15.20 40.80 -34.40 4.80 -4.40 11.60 -10 15.20 -12 4 -2 15.20 -11.60 25.20 -21.20 10 -9.60 24.80 -21.60 33.20 -27.20 8 -5.60 16.40 -12.80 18 -15.60 1.60 -3.20 5.60 -5.60 8.80 -5.60 2.80 0 6 -1.60 6.80 -3.20 0.80 -1.60 18.40 -17.60 39.20 -34.80 20.80 -17.20 76.80 -70.40 124 -117.60 47.20 -47.60 102 -100.80 121.60 -118.40 94.80 -84.80 170.80 -155.20 192 -178.40 13.20 -14 49.20 -51.60 80 -83.60 55.60 -57.20 100.80 -108.40 132.40 -150 8.80 -11.60 32.40 -42.40 52.40 -68.40 36.80 -48.40 73.60 -100.40 73.60 -104.40 0 -2.80 40 -69.60 46.40 -77.20 11.60 -14 54.40 -106.40 75.20 -163.20 12.80 -34 24.40 -64.40 26.40 -68 18 -32 35.20 -94 46 -164.80 2.80 -18.80 8 -44.80 12 -58 12.40 -43.60 14 -51.60 20 -112 3.20 -32.80 8.80 -74 12 -91.20 3.20 -17.20 6 -45.20 6 -62.40 0 -16.80 2 -32.80 4.40 -35.20 2.80 -2.80 3.60 -14.80 2 -33.60 -6.40 -74.40 -4.80 -79.60 23.20 -79.60 12.80 0 19.20 2.40 26.40 10 8 8.80 9.60 16 12.80 54.80 3.60 49.20 1.20 82.80 -15.20 211.20 -5.60 42.80 -12 92.40 -14 110 -5.60 45.60 -15.60 87.20 -24 100 -1.20 2.40 -4.40 15.60 -7.20 30 -12.80 68.80 -18.40 92 -32.40 133.20 -20.80 60.80 -42.80 118.40 -50 131.20 -3.20 6 -15.20 32 -26 58 -11.20 26 -26.40 57.20 -34 70 -7.60 12.40 -14 24 -14 25.20 0 3.20 -36 58 -68.40 104.40 -12 17.60 -23.20 35.20 -24.80 39.20 -1.20 3.60 -4.40 6.80 -6.80 6.80 -2 0 -4 2 -4 4.40 0 5.20 -26.80 40 -34.80 44.80 -2.80 1.60 -5.20 6 -5.20 8.80 0 3.20 -2 6 -4 6 -2.40 0 -5.60 3.20 -6.80 6.80 -3.20 8 -1.60 6 -54 69.20 -35.20 42.80 -78 88.40 -187.60 200 -24 24.40 -110.40 105.60 -141.60 132.40 -53.20 46.80 -78 70.80 -154 147.20 -94 94.80 -138.40 136.40 -145.20 136.40 -2.80 0 -11.20 7.20 -18.80 16 -7.60 8.80 -16.40 16 -18.80 16 -2.80 0 -5.20 1.60 -5.20 3.60 0 2 -10.40 11.20 -22.80 20.80 -12.80 9.60 -24.40 19.20 -25.60 20.80 -1.60 2 -6.40 5.60 -10.80 8 -4.80 2.80 -36.80 27.60 -71.60 55.20 -34.80 27.60 -74 57.20 -87.20 66 -23.60 15.60 -28.40 18.80 -66.40 44.80 -20.40 14 -62 36 -165.60 88.80 -66.40 33.60 -80.80 40.40 -134 62 -14.40 6 -36.80 16.40 -50 22.80 -13.20 6.40 -37.60 16.40 -53.60 22 -16.40 6 -34.40 12.80 -40 16 -6 2.80 -14 5.20 -18.40 5.20 -4.80 0 -10 1.60 -12 3.20 -3.60 3.20 -52 19.60 -134 45.60 -14.40 4.40 -33.60 11.60 -42.80 15.60 -9.60 4 -18.80 7.60 -20.80 7.60 -2.40 0 -18 4.40 -35.20 9.60 -29.20 9.20 -99.20 28.80 -217.20 61.20 -27.60 7.60 -53.60 15.20 -58 17.20 -8 3.20 -30.40 8.80 -130 32 -29.60 6.80 -62.80 14.80 -74 18 -40.40 11.60 -66.80 18.40 -83.20 22 -32.80 6.80 -129.20 27.60 -174.80 37.60 -56 12.80 -155.20 28.80 -196 32.40 -39.20 3.60 -108 12.40 -158 20 -47.20 7.60 -176 12 -188.80 6.40z"/>
  <path d="M1426.80 3201.20 c-12.80 -14.40 -8.80 -29.20 14 -52 45.60 -44.40 63.20 -63.60 63.20 -68 0 -2.80 2 -5.20 4 -5.20 2.40 0 4 -2.40 4 -5.20 0 -4.40 25.60 -45.60 31.60 -50.80 1.20 -1.20 18.40 -23.20 38 -48.80 19.60 -26 36.80 -47.20 38.40 -47.20 1.60 0 11.60 -13.20 22.40 -28.80 10.40 -16 30.80 -44 44.80 -62 14 -18.40 24.80 -33.20 24 -33.20 -4 0 -41.60 13.20 -45.20 16 -16 11.60 -129.60 40.80 -298 76.40 -32 6.80 -63.20 14.80 -70 17.60 -20 8.80 -88.80 21.60 -150 28.40 -32 3.60 -64.40 7.20 -72 8 -9.60 1.20 -18 -0.80 -26.80 -6 -12.40 -7.60 -13.20 -9.60 -13.20 -30.40 0 -20.80 0.80 -22.40 15.20 -31.20 8 -5.20 28.40 -15.60 44.80 -23.20 113.20 -50.80 158.80 -81.20 233.20 -156.80 34.80 -35.20 88.40 -98.40 85.60 -101.20 -1.60 -1.60 -46.40 7.20 -72.80 14 -32 8.40 -322.40 23.60 -534 28 -204 4.40 -354.80 2.40 -422 -5.20 -30.80 -3.20 -78 -7.20 -105.20 -8.80 -26.80 -1.60 -52 -4.80 -55.20 -7.60 -4 -2.80 -7.60 -12.80 -8.40 -24.40 l-2 -20 21.20 -4.80 c12 -2.80 36 -8 53.60 -11.60 17.60 -3.60 32.80 -7.60 34 -9.20 1.20 -1.60 18.40 -4 38 -5.20 20 -1.60 49.60 -5.60 66 -8.80 68.80 -14 221.20 -38 243.20 -38 7.20 0 16 -1.60 20 -3.60 3.60 -2 27.60 -6.80 52.80 -10.40 25.20 -3.60 81.20 -13.60 124 -22 42.80 -8.40 105.20 -20 138 -26 64.80 -11.20 180.40 -36 234 -50 7.60 -2 31.20 -7.60 52 -12.40 20.80 -4.80 56 -13.60 78 -19.60 22 -6 48 -12.40 58 -14 28.80 -4.40 193.20 -41.60 202 -45.60 4.40 -2 16 -5.60 26 -8.40 40 -10.40 134 -40.40 202 -64.40 6.80 -2.40 22.80 -7.60 36 -11.20 13.20 -4 32 -10.80 42 -15.20 10 -4.40 36 -14 58 -21.20 80.40 -26 135.20 -50 148 -64 10.40 -11.60 39.20 -11.20 47.60 0.80 8.80 12.40 8.40 44.80 -0.40 53.60 -8.80 8.40 -55.60 30 -91.20 41.60 -15.20 4.80 -29.60 10.40 -32 12 -2 1.60 -14 6 -26 10 -12 4 -32.80 12.40 -46 18.40 -13.20 6 -32.80 13.20 -44 16 -10.80 2.80 -29.60 9.20 -41.60 14.40 -12 5.20 -28.80 10.40 -38 11.60 -9.20 1.60 -18 4 -20.40 5.60 -2 1.60 -8.40 4 -14 5.20 -32.80 6.80 -99.60 26.80 -116 34.80 -3.60 1.60 -14.40 4.40 -24 6 -16.80 2.40 -116.40 25.60 -148 34 -7.60 2 -32 7.20 -54 11.60 -48.80 10 -86 19.60 -91.60 24 -2.40 2 -11.20 4.80 -19.60 6 -8.40 1.60 -33.60 8 -56 14.80 -34.80 10 -100 24.40 -160.80 35.60 -8.80 1.60 -39.20 7.60 -68 13.20 -28.40 5.60 -69.20 13.20 -90 16.40 -20.80 3.20 -46.80 8.80 -58 12 -50 14.40 -130.40 29.20 -209.60 38.40 -63.20 7.20 -188 24.80 -222.40 31.60 -38 7.20 10.40 8.80 189.20 6.40 102.80 -1.20 191.20 -2.80 196.80 -4 5.60 -1.20 51.60 -3.60 102 -6 260 -11.20 331.20 -19.60 424 -50 34 -11.20 53.20 -15.20 84.80 -16.80 48 -2.80 53.20 -0.40 53.20 24.40 0 19.60 -1.20 21.20 -22.80 35.60 -9.20 6 -20 15.60 -24 21.60 -14 22.40 -49.20 64 -58 68.80 -10 5.60 -39.20 41.20 -39.20 48 0 2 -2.40 5.60 -4.80 7.20 -2.80 1.60 -16 14.80 -29.20 29.20 -13.20 14.40 -28.40 28.80 -34 32.40 -5.60 3.60 -20 16 -32 28 -24 23.60 -45.60 40.40 -57.60 44.80 -4 1.60 -6.80 3.60 -6 4.40 2.40 2.40 245.20 -51.60 257.60 -57.20 4.40 -2 31.60 -10.80 60 -20 113.20 -35.60 166.80 -53.20 177.20 -58.80 6 -2.80 12.80 -5.60 14.80 -5.60 2.40 0 12 -5.60 22 -12 18.80 -12.40 38.80 -15.60 47.20 -7.20 2.80 2.80 4.80 14 4.40 24.80 0 18 -2.80 24.80 -24 56.40 -12.80 20 -26.40 42 -29.60 49.20 -3.20 6.80 -8 12.80 -10 12.80 -2.40 0 -4 2.80 -4 6 0 3.60 -2.80 7.20 -6 8.40 -3.20 1.60 -6 4.80 -6 8 0 2.80 -2.40 6.80 -5.60 8.40 -6.40 3.60 -31.60 36 -35.20 45.20 -1.60 3.20 -19.20 26.80 -39.20 52 -20.40 25.20 -42 53.60 -48.40 62.80 -10 14.40 -10.40 16 -3.60 14.40 4.40 -1.20 8 -3.60 8 -5.60 0 -2 2.40 -3.60 5.60 -3.60 3.20 0 23.60 -10 45.20 -22.40 21.60 -12.80 54.40 -30.80 73.20 -40.80 18.80 -10 44 -23.60 56 -30.40 12.40 -6.80 30.80 -16.80 41.60 -22.40 10.40 -5.60 22.40 -13.20 26.40 -16.80 4.40 -4 9.20 -7.20 11.60 -7.20 2 0 4.40 -1.60 5.20 -3.20 1.60 -3.60 121.20 -62.80 135.20 -66.80 17.60 -4.80 49.60 -21.60 62 -32 14 -12.40 58.80 -33.60 90.80 -44 26 -8 62 -6.80 67.60 2.40 5.20 8.40 8.80 37.60 5.60 47.20 -2.80 9.20 -25.20 20.40 -40 20.40 -15.20 0 -54.40 16.40 -79.20 33.20 -12.80 8.40 -33.60 20 -46 25.60 -12.40 5.60 -32.40 14.40 -43.60 19.60 -11.60 5.20 -25.60 10.40 -31.20 12 -5.60 1.20 -10 4 -10 6 0 2.40 -12 9.60 -26.80 16.80 -34 16 -72 37.60 -120.80 68 -20.80 12.80 -56.80 32.40 -80 44 -23.20 11.20 -55.60 28 -71.60 37.60 -16.40 9.60 -30.40 17.20 -31.20 17.20 -1.20 0 -14.40 8 -29.60 18 -15.20 10 -28.80 18 -30 18 -1.20 0 -4.40 2 -7.20 4 -9.20 7.60 -32.80 22 -48.80 29.60 -15.60 7.20 -25.60 12 -67.60 34 -26.80 13.60 -65.60 16.40 -75.60 5.60z"/>
  <path d="M2850.80 2818.40 c-17.60 -10 -30.40 -14 -50 -16 -38 -3.20 -94.40 -3.60 -155.60 0 -48 2.40 -53.20 2 -53.20 -3.60 0 -4 -3.20 -6.80 -7.60 -6.80 -8 0 -12.40 -10 -12.40 -28.40 0 -10 1.60 -10.80 31.20 -15.60 54.40 -8.80 168 -9.60 228 -2 80.40 10 96.80 18.80 96.80 50.80 0 10.40 -1.60 19.20 -3.60 19.20 -2 0 -4.40 3.60 -5.60 8 -1.60 6.80 -5.20 8 -23.60 8 -16.80 -0.40 -26.40 -3.20 -44.40 -13.60z"/>
  <path d="M2389.60 2096 c-5.60 -2.40 -9.20 -8.40 -10.80 -18.80 -5.60 -32 -3.60 -40 10.80 -51.20 14 -10.80 139.20 -74 146.40 -74 2.40 0 14.40 -5.20 27.20 -11.60 12.40 -6 42.80 -19.20 66.80 -28.80 24.40 -9.60 44.80 -18.40 46 -19.60 3.20 -3.20 54.80 -25.20 109.20 -46 29.60 -11.20 40 -14.40 114.80 -36 27.60 -8 54.80 -17.20 60.80 -20.40 5.60 -3.20 13.60 -5.60 17.60 -5.60 3.60 0 16 -2.80 27.20 -6 63.60 -18.40 167.60 -41.60 260.40 -57.60 52.40 -9.20 132.40 -16.80 222 -20.80 53.20 -2 97.60 -6 102 -8.40 10 -5.60 250 -4.80 255.60 0.80 2.40 2.40 21.20 4 42.40 4 50 0 136 6.40 184 14 20.80 3.20 58 8 82 10 24.40 2.40 56.80 6.80 72 10.40 62 13.60 67.20 15.60 74.40 28 7.60 12.80 10 43.60 3.60 47.60 -2 1.20 -4 5.60 -4 10 0 9.20 -7.60 12 -31.60 12 -15.60 0 -20.40 -2 -28.80 -11.60 -10.80 -12.40 -36.40 -18.40 -129.60 -30.80 -26.40 -3.20 -59.60 -7.60 -74 -10 -121.60 -18 -273.60 -23.20 -456 -16 -67.20 2.80 -153.60 8.40 -192 12.80 -67.60 7.20 -193.60 28.80 -210 35.60 -16.40 6.80 -63.60 20 -109.20 30 -77.20 17.60 -209.60 56.40 -232.80 68.40 -14.80 7.60 -56 25.60 -58.80 25.60 -1.60 0 -15.20 5.60 -30.80 12.40 -50.80 22.40 -60 26.40 -82.40 33.60 -23.60 7.60 -74.40 31.20 -104 47.60 -10 5.60 -34 18 -54 27.60 -44 21.20 -52.80 26.40 -67.20 38 -12 9.20 -33.20 11.20 -49.20 4.80z"/>
  <path d="M5377.60 1945.20 c-16.40 -17.60 -12.40 -43.60 12.40 -83.60 23.20 -37.60 77.60 -113.20 97.60 -136 90.80 -102.40 138 -153.60 170.80 -183.60 21.20 -19.60 41.60 -38.80 45.20 -42.40 3.60 -3.60 23.60 -21.20 44.40 -39.20 20.80 -18 47.20 -40.80 58 -50.40 28 -24.40 38.40 -32 81.60 -62.40 21.20 -14.80 43.20 -30.80 49.20 -35.60 9.20 -6.80 20 -9.20 62 -12.40 28.40 -2.40 54.80 -5.60 59.20 -7.60 4.40 -1.60 65.60 -8 136 -14 70.40 -5.60 177.60 -14.80 238 -20 60.40 -5.60 134.40 -11.60 164 -14 29.60 -2.40 57.60 -4.80 62 -5.60 11.60 -1.20 -121.60 -6 -288 -10.40 -79.20 -2 -181.60 -5.20 -228 -6.80 l-84 -2.40 -12.80 -17.60 c-13.60 -18 -16.80 -36 -8.40 -44.40 2.80 -2.80 11.60 -4.80 19.60 -4.80 11.60 0 17.20 2.80 25.20 12.40 5.60 6.80 10.40 13.60 10.40 14.80 0 1.60 63.60 3.20 141.20 4 77.20 0.40 181.20 2.80 230.80 4.80 49.60 2 136.80 5.60 194 7.60 57.20 2 121.60 4.80 143.60 6 21.60 1.20 38.80 1.60 38 0.80 -0.80 -0.80 -24.80 -10 -53.60 -20 -28.40 -10.40 -81.60 -30.80 -118 -44.80 -36.40 -14 -68.40 -25.60 -71.20 -25.60 -2.80 0 -4.80 -1.20 -4.80 -3.20 0 -1.60 -12 -7.20 -26.80 -12.40 -87.20 -30.80 -230 -84 -235.20 -88 -2 -2 -21.20 -9.60 -42 -17.60 -76 -28.40 -150.80 -56 -184 -67.60 -18.80 -6.80 -36 -13.60 -38.40 -15.60 -4 -3.20 -14.80 -7.60 -80.40 -32.40 -12 -4.40 -21.20 -10.40 -21.20 -13.60 0 -3.20 -2.40 -5.60 -5.20 -5.60 -10.40 0 -18.80 -14.40 -19.20 -32.40 0 -13.20 -0.80 -15.60 -3.20 -9.60 -3.20 8 -16.40 53.20 -26.80 92 -7.60 28.40 -41.20 94.80 -69.20 136.80 -24 36.40 -36.40 47.20 -66.80 57.60 -8.80 2.80 -17.20 6.40 -19.60 8 -22 15.60 -275.20 14.80 -292 -0.80 -2 -2 -8.40 -3.60 -14.80 -3.60 -22 0 -51.60 -8.80 -64 -19.20 -13.20 -11.20 -35.20 -53.20 -35.20 -67.60 0 -4.80 -1.60 -10 -4 -11.20 -2 -1.20 -4 -9.20 -4 -17.20 0 -8 -2.40 -30 -5.60 -48.80 -3.20 -18.80 -6.80 -52 -8.40 -74 -2.80 -48.40 -8 -78.80 -16.80 -99.20 -5.60 -13.20 -8 -15.20 -16.80 -13.60 -80.80 14.80 -186 40.80 -214.40 52.80 -24.80 10.80 -40 14 -64 14 -20.80 0 -26.80 -1.60 -40 -11.60 -8.80 -6.40 -18 -10.80 -20.80 -9.60 -10.80 4.40 -25.20 45.60 -31.20 91.20 -1.20 11.20 -5.20 36.40 -8.40 56 -15.20 94.40 -16.80 98 -45.60 98 -14.80 0 -20.80 -1.60 -23.20 -6.80 -6.80 -12.80 -9.20 -46.80 -4.80 -67.20 2.40 -10.80 6 -30.80 8 -44 3.60 -22.80 10.80 -57.60 27.20 -128 14 -61.60 20.40 -66.40 111.60 -88 32.40 -7.60 62.80 -15.60 67.20 -18 8.40 -4 34 -9.20 77.60 -16 14.40 -2.40 36.80 -6.80 50.40 -10 39.20 -8.80 119.60 -21.60 186 -28.80 80.80 -8.80 360.40 -10 410 -2 50.40 8.40 91.20 19.60 125.60 34.80 44.80 19.60 48.80 19.20 106.40 -11.20 6.80 -3.20 32.80 -10.80 58.40 -16.40 40.40 -9.20 56 -10.40 116.80 -10.40 47.20 0 79.60 2 98.80 6 44.80 9.60 44 8.40 44 51.20 0 35.60 -3.60 67.60 -20.40 184.80 -4.40 30.80 -8.40 59.60 -8.80 63.60 -0.80 8.40 8 12.40 81.20 38.40 20.80 7.20 40 14.80 42.40 16.40 4.40 3.60 105.20 42.40 149.60 57.60 32.40 11.60 76.80 28.40 98 37.60 8.80 4 30.40 12.80 48 19.20 68.40 26 149.60 56.80 184 69.20 20 7.60 38.40 15.20 41.20 17.20 2.80 2.40 4.80 14.40 4.80 32.80 l0 28.80 -56.80 4.40 c-31.60 2.40 -97.60 8 -147.20 12.40 -140 12.80 -273.20 24 -330 28.80 -28.40 2 -55.60 5.60 -60 7.60 -4.40 2 -23.20 4.40 -42 5.60 -18.80 1.20 -94 7.60 -167.60 14.40 -98.80 8.80 -135.60 13.20 -142 18 -4.80 3.20 -19.60 13.20 -32.80 22 -13.60 8.80 -32.40 24.80 -41.60 35.20 -25.60 28.80 -41.20 44.80 -44 44.80 -1.60 0 -6.40 3.20 -10.80 7.20 -4.40 3.60 -14.40 11.20 -21.60 16.80 -7.60 5.60 -26 21.60 -41.20 36 -15.20 14.40 -30.80 29.20 -34.80 33.20 -4.40 3.60 -8.80 6.80 -10.40 6.80 -8 0 -157.20 152.40 -157.20 160.40 0 4.80 -22.80 27.60 -27.60 27.60 -2.40 0 -4.40 1.60 -4.40 3.60 0 2 -11.60 15.60 -26 30.40 -14.40 15.20 -26 28.80 -26 30.40 0 2 -2.80 6.80 -6.40 10.80 -11.60 12.80 -73.60 109.20 -73.60 114.80 0 2.80 -5.20 10.80 -11.60 17.60 -16 16.80 -40 17.60 -54.80 1.60z"/>
  <path d="M2919.20 1675.60 c-4 -2 -25.60 -7.20 -48 -11.60 -22.80 -4.40 -62.40 -13.20 -88.40 -20 -78.40 -20 -114 -23.60 -250.80 -25.20 -69.20 -1.20 -128.80 -2.80 -132 -4.40 -9.20 -4 -16.80 -24 -15.20 -42.80 1.20 -16.40 1.20 -16.40 37.20 -35.60 61.60 -32.40 82 -44.40 82 -47.60 0 -4.80 15.20 -10.40 42.80 -16.40 41.60 -9.20 34.80 -14.40 -26.40 -19.60 -30 -2.40 -65.60 -4.40 -78.80 -4.40 -12.80 0 -34.80 -2 -48.80 -4 -39.20 -6.40 -82.80 -12 -128.40 -16 -57.60 -5.20 -72 -15.60 -72.40 -50.80 0 -11.60 2 -13.60 25.20 -24.40 13.60 -6.40 32 -14 40.80 -16.80 8.80 -2.40 30.40 -10 47.60 -16.80 28.80 -11.60 30.80 -12.80 22 -16.40 -5.20 -2 -41.20 -4.40 -79.60 -4.80 -38.40 -0.80 -101.60 -3.20 -140 -5.60 -38.40 -2.40 -107.60 -5.20 -154 -6.40 -106 -2.40 -186.40 -7.20 -192.80 -11.20 -6.80 -4.40 -6.80 -35.60 0 -43.60 7.20 -8.80 29.20 -23.20 36 -23.20 2.80 0 26.40 -10.80 52.40 -24 65.20 -34 114.80 -49.60 226 -71.60 34 -6.80 74 -13.60 89.20 -15.20 14.80 -1.20 27.20 -3.60 27.20 -5.20 0 -4 112.40 -12 222.80 -15.60 111.20 -4 223.20 0.40 256.40 10 12.40 3.60 50 8.80 82.80 11.60 80 7.20 130 14.80 200.80 31.60 32.80 8 81.60 18.80 109.20 24.40 49.60 10.40 114.40 28.40 122 34 2.40 1.60 16.80 6.40 32 11.20 35.20 10.40 129.20 38.40 174 51.60 74.80 21.60 124 38 124 40.80 0 1.60 7.60 5.20 17.20 8 25.60 7.60 142.40 67.20 158.80 81.60 4.40 3.60 23.60 14.80 42.80 25.20 86 45.60 174 120 203.20 171.60 7.60 13.20 18.40 29.20 24.80 36 9.20 10 11.20 15.20 11.20 34 l0 22 -25.20 1.20 c-28.80 1.20 -40.40 -4 -50 -22 -19.20 -37.20 -26.80 -48.80 -43.60 -66.40 -10.40 -10.80 -24 -22.40 -30.80 -26 -6.40 -4 -17.20 -11.20 -23.20 -16.80 -30.40 -27.20 -86 -65.60 -137.20 -94 -18.80 -10.80 -44 -25.60 -56 -33.20 -22 -14 -70.80 -38 -128.80 -62.80 -16.80 -7.60 -51.20 -19.20 -76 -26 -24.80 -6.80 -50.40 -14.80 -57.20 -18 -11.60 -5.20 -72.40 -24 -112 -34.40 -10.80 -2.80 -20.80 -6.40 -22 -8 -2.80 -3.60 -46.40 -16 -128 -36.80 -36.40 -9.60 -70 -19.20 -74.80 -22 -4.80 -2.40 -11.60 -4.80 -15.60 -4.80 -3.60 0 -29.20 -5.60 -57.20 -12.40 -51.20 -12.40 -126.80 -24.80 -193.60 -31.60 -20.40 -2 -49.20 -5.60 -64.80 -7.60 -72 -10 -180 -13.20 -278 -8.80 -154.80 7.20 -208.80 13.20 -304 33.20 -32 6.80 -62.40 12.80 -68 14 -17.60 3.20 -59.20 17.60 -78.40 26.80 l-18.40 8.80 109.20 5.20 c60.40 2.80 152 6.80 203.60 8.40 51.60 2 129.20 7.20 172 11.60 42.80 4.40 85.20 8.40 94.40 8.40 20 0 28.40 8 32 30.80 5.20 34 -3.20 40.80 -57.60 47.20 -37.60 4 -116.80 32 -110 38.40 2 1.60 26.80 4.80 55.20 7.20 28.80 2.40 70 6 92 8.40 22 2.40 57.20 5.60 78 7.60 20.80 2 58.80 6.40 84 10 25.20 3.60 54.80 6.40 65.60 6.40 24.80 0 30 6.40 30.40 37.20 0 32 -8.80 40.80 -38.40 37.60 -24.40 -2.40 -66 7.20 -99.60 23.20 -10.80 5.20 -38.80 16.80 -61.60 25.20 l-42 15.60 78 2 c66.40 2 86.40 4 139.60 15.20 34 6.80 63.60 14.40 66 16.40 2 2 7.60 3.60 12.80 3.60 5.20 0 12.40 1.60 16.40 3.60 8.40 4.40 67.60 19.60 120 30.80 7.20 1.60 8.80 4.40 8.80 18 0 16.40 -5.60 31.20 -13.60 36.40 -6.40 4.40 -39.20 3.60 -47.20 -1.20z"/>
  <path d="M4351.20 1660 c-9.20 -7.20 -11.20 -11.60 -11.20 -26.40 0 -17.20 2 -20 27.60 -46.80 56 -58.80 162 -194.80 155.60 -200.80 -2 -2.40 -44.40 19.20 -68.40 35.20 -24 15.60 -69.60 39.60 -104.40 54.80 -14.80 6.40 -24.80 8.40 -39.20 7.20 -26 -2.80 -31.20 -8 -31.20 -32 0 -23.20 5.20 -32 42 -71.60 20.80 -22 66 -88.80 66 -97.20 0 -1.20 13.60 -25.60 30 -54.40 42 -73.20 51.20 -92.40 84.80 -176 16 -40.80 30.80 -77.60 32.80 -82 10.80 -24.80 16.40 -40 28.40 -76 15.20 -46 48.40 -118.40 60 -130 1.20 -1.20 5.20 -8 9.20 -15.20 4 -7.20 11.60 -17.60 17.20 -23.60 5.20 -5.60 9.60 -12.80 9.60 -15.60 0 -3.20 1.60 -5.60 3.60 -5.60 2 0 5.20 -4 6.80 -8.80 1.60 -5.20 4 -10 5.20 -11.20 1.60 -1.20 12.40 -18 24.40 -37.20 24 -38.40 44.40 -59.60 108 -110.40 23.20 -18.40 48.40 -39.60 56 -46.80 22.40 -20.80 61.60 -39.20 126 -59.60 33.20 -10 69.20 -21.20 80 -24.80 11.20 -3.60 24 -8.80 28.80 -11.60 4.80 -3.20 15.20 -5.60 23.20 -5.60 7.60 0 17.20 -1.60 21.20 -4 3.60 -2 28.40 -8.80 54.80 -14.80 46.80 -10.80 51.20 -11.20 164 -10.80 106.80 0 173.20 3.60 268 14 34 3.60 77.60 14.40 82 20 1.20 1.20 9.20 3.60 18 5.20 22.40 4 46.40 15.60 82.40 38.40 17.20 11.20 33.20 20 35.20 20 2.40 0 4.40 1.60 4.40 3.20 0 2 7.20 6.40 16.40 10.40 8.80 4 20.80 11.60 26.80 17.20 6 5.20 24.40 19.60 40.80 32 50.80 37.20 52 38.80 52 67.60 0 36 -1.20 37.60 -25.60 37.60 -19.60 0 -21.60 -0.80 -35.60 -18 -8.40 -10 -17.60 -18 -20.80 -18 -3.20 0 -8 -3.20 -10.80 -7.20 -6.80 -9.20 -55.60 -39.20 -89.20 -54.80 -6.40 -2.80 -16 -10 -20.80 -15.60 -5.20 -5.60 -12 -10.40 -15.20 -10.40 -3.20 0 -6 -1.60 -6 -3.60 0 -7.20 -33.60 -20.80 -84 -34.40 -28 -7.60 -56.80 -14 -63.60 -14 -6.40 0 -20.40 -2.80 -30.40 -6 -14.80 -5.20 -42.80 -6.40 -151.20 -6.80 -162 -0.40 -197.20 3.60 -308.80 34.80 -13.20 3.60 -29.20 8 -36 10 -34.80 8.80 -84.80 25.60 -90 30 -3.20 2.80 -14.40 7.20 -24.80 10.40 -10.80 2.80 -19.20 6.80 -19.20 8.40 0 1.60 -2 3.20 -4.80 3.20 -5.60 0 -40.40 26 -61.60 46 -8.40 8.40 -22 19.60 -29.60 25.60 -7.60 5.60 -22.40 18.40 -32.80 28 -10.40 9.60 -22.40 19.60 -26.40 22.80 -4 2.80 -12.40 12.80 -18.80 22.40 -6.40 9.60 -24 33.60 -38.80 53.60 -14.80 20 -28.80 41.20 -31.20 47.20 -2 5.60 -5.60 10.40 -8 10.40 -2 0 -4 2.40 -4 5.20 0 3.20 -3.60 8.80 -8 12.80 -4.40 4 -8 10 -8 13.20 0 3.20 -4.40 12 -10 19.20 -5.60 7.20 -10 14.40 -10 16 0 1.60 -2.40 6 -5.60 9.20 -6.40 6.80 -10.80 18.80 -34.40 86.40 -28 80.80 -60 164 -67.60 174 -4 5.60 -12 22.80 -18 38 -12.80 32.40 -53.60 117.20 -60.80 126 -2.40 3.20 -9.20 14.40 -15.20 25.20 l-10.40 18.80 25.20 -12.40 c46 -23.20 90 -56 132.40 -98.80 71.60 -72.40 72 -72.80 87.20 -72.80 30.40 0 35.60 29.60 13.60 74.40 -7.20 15.20 -19.20 41.20 -26.80 57.60 -7.20 16.40 -19.60 39.20 -28 50 -8 11.20 -17.60 25.60 -21.20 32 -3.60 6.80 -9.60 16.40 -13.60 22 -3.60 5.60 -10.40 16 -14.80 23.60 -29.60 48.80 -74.80 112.40 -104 146.40 -90.80 106.40 -95.20 110.40 -121.20 113.20 -14.80 1.20 -21.20 0 -29.60 -7.20z"/>
  <path d="M6003.20 971.60 c-5.20 -2.80 -7.20 -9.20 -7.20 -23.20 0 -26.80 5.60 -30.40 46.80 -30.40 38.80 0 45.20 4.40 45.20 30 0 22.80 -8.80 28 -46.40 28 -17.20 0 -34.80 -2 -38.40 -4.40z"/>
 </g>
 <g fill="#ffffff">
  <path d="M0 3332 l0 -3332 3542 0 3542 0 0 3332 0 3332 -3542 0 -3542 0 0 -3332z m1939.20 3097.60 c51.20 -15.20 85.60 -64.40 86 -123.60 0 -40.80 -15.20 -71.60 -46.40 -91.60 l-10.40 -7.20 14.40 -12.40 c42 -37.20 38.80 -112.80 -6.80 -152 -21.20 -18 -45.60 -26.80 -84 -29.60 -78.40 -5.60 -133.60 37.60 -142.40 112 l-2.80 22.80 38 0 38 0 2.80 -20 c2 -14 6.40 -24 14 -32.80 9.60 -10.80 14.40 -12.80 34.80 -14.40 21.60 -1.60 25.20 -0.40 36.40 8.80 15.20 12.80 22.80 34 19.20 53.20 -5.60 29.60 -18.80 39.60 -58.40 44 l-23.60 2.40 0 29.20 0 29.60 19.20 0 c27.20 0 45.60 6.40 58.80 20 9.60 10 12 16 13.20 37.20 1.20 20.80 0 26.80 -8 38.80 -13.20 20 -32.80 28.80 -56 26.40 -32.40 -3.60 -48 -19.20 -53.60 -54 l-2.80 -16.40 -39.20 0 c-45.60 0 -44 -1.60 -34 40.40 13.20 56.80 49.60 88 112.40 96.80 17.60 2.40 61.20 -1.60 81.20 -7.60z m653.60 0 c40.80 -13.60 75.60 -61.20 82.40 -111.60 11.20 -88 -34.80 -152 -113.60 -157.20 -33.20 -2 -53.20 3.20 -74.40 20 -16.80 12.80 -17.20 12.40 -10.80 -24.40 5.60 -33.20 21.20 -63.20 37.60 -71.20 19.60 -10.40 44.80 -8 58.40 5.20 6.80 6.40 12.80 15.60 14 20.40 2.40 8.80 4 9.20 42.40 9.20 l40.40 0 -2.80 -16.40 c-4 -24 -15.60 -44.40 -36 -62.40 -23.20 -20.40 -50.80 -29.20 -92.40 -29.20 -28.40 0 -36 1.60 -57.20 12 -60 30 -88.80 98 -88.80 208 0 117.60 39.60 188.40 113.20 204 22 4.80 64.40 1.60 87.60 -6.40z m493.60 6 c55.60 -10 91.20 -46 105.60 -107.20 6.40 -28 3.20 -70 -8 -96 -12 -27.20 -44 -57.20 -71.60 -66.40 -33.20 -10.80 -74.40 -6.80 -100.80 9.60 l-20.80 12.80 2.80 -25.20 c2.80 -29.20 19.20 -65.20 34.80 -76.40 13.60 -9.60 43.60 -10.40 57.60 -1.20 6 4 13.20 13.20 16.40 20.80 l5.60 13.60 40.40 0 40.40 0 -2.80 -12.80 c-8.40 -42.80 -39.60 -77.60 -80.80 -89.60 -30.80 -8.80 -85.20 -6.40 -107.20 5.20 -38.80 20.40 -68.80 65.60 -80.40 121.20 -8.80 42.40 -8.80 137.60 0 172 18 68.80 49.20 106 100 118.40 26.40 6.40 39.60 6.40 68.80 1.20z m1512.80 -6.40 c46 -14 80.40 -60 84 -112 2.80 -43.20 -4 -62.80 -30.80 -88.80 l-22.40 -21.60 16.80 -17.20 c20 -20.80 26.80 -42 24 -76.40 -3.20 -42 -24.40 -69.60 -69.20 -90 -16.40 -7.60 -26.40 -9.20 -61.60 -9.20 -38 0 -44 1.20 -65.20 11.60 -39.20 18.80 -66.80 63.60 -66.80 107.20 l0 15.20 36 0 c39.20 0 37.60 1.20 42 -25.60 1.60 -10.40 7.20 -20.40 16.40 -29.60 13.20 -13.20 14.80 -13.60 38.40 -12 21.20 1.60 26 3.60 35.60 14.40 10 11.20 11.60 16.40 11.60 36.80 0 20.40 -1.60 25.60 -10.80 36 -11.60 12.80 -31.60 19.60 -56 20 l-13.20 0 0 29.60 0 29.20 28 2 c16.40 1.20 32 4.80 38 8.80 33.60 22 34.80 79.20 2.40 102.40 -25.60 18 -63.20 14 -82 -8.40 -6.40 -7.60 -11.20 -19.20 -12.80 -31.60 l-2.80 -20 -39.20 0 -39.60 0 0 13.60 c0 24.80 14.80 64 32 83.20 34 38.80 102.40 52 167.20 32.40z m317.60 2.40 c28 -7.20 52 -27.20 66 -55.60 19.60 -38.40 25.60 -67.20 28 -132 4.40 -118.80 -21.60 -192.80 -77.60 -220.40 -16.40 -8 -25.20 -9.60 -63.20 -9.60 -38 0 -46.40 1.20 -62.80 9.20 -57.60 28.40 -82 98.40 -78 220.80 2.40 67.20 8 94.40 26.80 132.40 17.60 34.40 42.80 52.40 84 59.60 19.60 3.60 53.60 1.60 76.80 -4.40z m311.20 2 c73.60 -22 108 -90.40 108 -215.20 0 -87.60 -15.20 -137.60 -52 -172 -27.60 -26 -56.80 -35.60 -102 -33.60 -28.80 1.60 -40 4 -56 12 -24.80 12.80 -51.60 41.20 -63.20 66.40 -11.60 25.60 -14.40 86.80 -5.20 117.60 13.20 45.20 57.60 78.40 110 82.40 32 2 52.40 -3.20 73.60 -20 8 -6.40 14.80 -10 14.80 -8.40 0 1.60 -2 15.60 -4 30.40 -7.20 49.60 -30 78.80 -61.20 78.80 -22.40 0 -35.20 -7.20 -44.80 -25.20 l-8 -14.80 -38.80 0 c-44.40 0 -44.40 0 -33.20 32.40 20.80 58.40 93.60 89.60 162 69.20z m-2956 -211.60 l0 -206 -35.60 0 -35.60 0 -2.40 14 c-3.60 18 -22.40 39.60 -41.60 47.20 -8 3.20 -26.80 7.20 -41.60 8.80 l-27.20 2.80 0 27.60 0 27.60 50 0 50 0 0 142 0 142 42 0 42 0 0 -206z m1204 162 l0 -43.60 23.20 -1.20 22.80 -1.20 1.20 -30.80 1.20 -31.20 -24.40 0 -24 0 0 -130 0 -130.40 -46.40 1.20 -46 1.20 -75.60 124 -75.60 124 -0.40 37.20 0 36.80 82 0 82 0 0 44 0 44 40 0 40 0 0 -44z m288 -162 l0 -206 -35.60 0 -35.60 0 -2.40 14 c-3.60 18 -22.40 39.60 -41.60 47.20 -8 3.20 -26.80 7.20 -41.60 8.80 l-27.20 2.80 0 27.60 0 27.60 50 0 50 0 0 142 0 142 42 0 42 0 0 -206z m556 162 l0 -44 22 0 22 0 0 -32 0 -32 -22 0 -22 0 0 -130 0 -130.40 -46.80 1.20 -46.80 1.20 -75.20 124 -75.20 124 0 36.80 0 37.20 82 0 82 0 0 44 0 44 40 0 40 0 0 -44z m-1444 -118 l0 -38 -82 0 -82 0 0 38 0 38 82 0 82 0 0 -38z m1168 0 l0 -38 -82 0 -82 0 0 38 0 38 82 0 82 0 0 -38z m1073.20 -386.40 c33.60 -9.60 57.60 -30.40 71.20 -60.80 9.60 -20.80 9.60 -21.60 10.80 -193.60 l1.20 -173.20 -40 0 -40.40 0 0 19.20 0 19.20 -19.60 -18.40 c-22.80 -22.40 -48.40 -30.40 -83.60 -26.40 -45.20 5.20 -76.80 28.40 -97.20 71.60 -16 33.60 -20.80 62.40 -18.40 104.80 2.80 50.80 13.60 78 42.80 106.80 28.40 28 54.40 37.20 95.60 34.40 31.20 -2.40 49.60 -10.40 67.60 -30.40 l13.60 -14.80 -2.80 32 c-4 54 -20 74 -61.20 77.20 -28 2 -50.80 -6.40 -57.60 -20.80 -4.40 -10.40 -5.20 -10.40 -48.40 -10.40 l-44 0 2.40 14.80 c10.40 64 110.40 96.80 208 68.80z m-4544 -109.60 c35.60 -7.60 62.40 -22.40 87.20 -48.80 20.80 -22 42.40 -62 46.40 -86.80 l2.40 -14.40 -44 0 -44 0 -2.40 11.20 c-4.40 21.20 -24.80 47.20 -44.40 56.80 -24.80 11.60 -62.80 12 -85.20 0.40 -22 -11.20 -42.80 -35.60 -51.60 -60.80 -11.60 -32.80 -10.40 -117.20 1.60 -147.60 18.40 -47.20 47.20 -68 92.80 -68 42.80 0 67.60 15.60 84 53.20 l8.40 18.80 44 0 44 0 -2.40 -14.80 c-4.40 -24.80 -26 -65.60 -45.60 -85.20 -32.40 -32.40 -76 -48 -134.80 -48 -78.40 0 -132.80 32 -166 97.20 -19.20 37.60 -25.20 66.80 -25.20 122.80 0 70 12.80 113.20 45.60 154 41.60 52 115.60 75.60 189.20 60z m394 -4 c38.40 -11.60 72.40 -45.60 88.80 -88.80 10.80 -28.80 14.80 -79.20 8.40 -110 -10.40 -50 -43.20 -94.40 -82.40 -111.60 -38 -16.80 -106.80 -16.40 -145.20 0.40 -27.60 12 -54 40 -69.20 73.60 -11.60 24.80 -13.60 33.20 -14.80 69.20 -1.60 33.20 0 46 6.80 68.40 14.40 48 49.60 85.60 92 98.80 25.20 7.60 89.60 7.60 115.60 0z m373.20 -6.40 c37.20 -17.60 64.40 -51.20 77.60 -97.20 5.20 -18 6.40 -33.60 5.20 -64.40 -1.60 -34.80 -3.60 -44.40 -14.40 -67.20 -15.60 -33.60 -43.20 -63.20 -69.20 -74.40 -40 -17.20 -107.60 -17.60 -145.60 -0.80 -39.20 17.20 -72 61.60 -82.40 111.60 -10.40 49.60 2.40 114 29.60 149.60 33.20 42.80 64.40 56 130.80 54 39.60 -0.80 49.20 -2.40 68.40 -11.20z m1438.40 1.20 c8.80 -4.80 22 -15.20 28.80 -23.60 l12.40 -15.20 0 21.20 0 20.80 40 0 40 0 0 -210 0 -210 -42 0 -42 0 0 71.20 0 71.60 -16 -15.20 c-16 -15.60 -46.40 -27.60 -68.40 -27.60 -74.40 0 -125.60 57.20 -134 148.80 -7.20 82.80 31.60 155.20 94.40 175.60 18.40 6 68.40 1.60 86.80 -7.60z m969.60 0.40 c32.80 -14.80 63.20 -47.60 71.60 -77.20 l3.60 -12 -43.20 0 c-42.40 0 -43.20 0 -47.60 10.40 -2.80 6 -12.40 13.20 -23.20 18.40 -21.60 9.20 -43.60 7.60 -64 -5.20 -14.40 -8.80 -29.60 -36 -29.60 -52.80 l0 -10.80 105.20 -0.80 104.80 -1.20 -0.80 -32.80 c-0.80 -41.60 -8.80 -69.60 -28 -97.20 -28 -40 -74.40 -59.20 -132 -54.80 -88 6.80 -138 75.20 -132 180.80 4 72.80 34.80 116.80 96.80 139.20 28 10 92.40 8 118.40 -4z m266.40 -3.20 c11.60 -6 24.80 -15.60 30 -20.80 l9.20 -10 4 17.60 4.40 17.20 44.80 1.20 c38 0.80 44.80 0 44.80 -5.20 0 -3.20 -3.60 -9.60 -8 -14 -7.60 -7.60 -8 -13.20 -8 -108 0 -117.20 -2.80 -135.60 -23.60 -156.40 -24 -24 -54 -33.20 -108.40 -33.20 -50 0.40 -70.40 5.60 -94.80 24 -17.20 13.20 -32.40 40 -35.60 62.80 l-2.80 18.80 40.80 0 c38.40 0 40.40 -0.40 40.40 -8.40 0 -4.40 5.20 -13.60 11.60 -20 10.80 -10.40 14 -11.60 39.60 -11.60 34.40 0 48.80 8.80 48.80 30 0 19.20 -11.60 25.60 -58.80 32.40 -68.80 10.40 -92.40 19.60 -112.40 44 -32.80 39.60 -23.60 112.40 17.20 137.60 21.60 13.20 33.20 16 66 14.80 24 -1.20 34.40 -3.60 50.80 -12.80z m1601.20 7.60 c23.60 -6.80 36.40 -14 52.80 -28.80 l11.20 -10 7.60 9.60 c24 30.40 17.60 28 71.60 26.80 l49.20 -1.20 -38 -45.60 -38 -45.60 13.60 -20.40 c14.80 -22.40 27.60 -57.60 32 -87.20 l2.80 -19.20 -36 0 -36 0 -2.80 17.20 c-2.80 17.20 -16 50.80 -19.60 50.80 -1.20 0 -14.80 -15.60 -30.40 -34.80 l-28 -35.20 10.80 -8 c43.20 -31.20 55.20 -51.60 55.20 -94 0 -32.80 -5.20 -46 -24.40 -65.60 -26 -26 -66.80 -35.60 -110.80 -26.40 -72.80 14.80 -100.80 96 -54.80 159.20 6.40 9.20 12 18 12 20 0 1.60 -6 6.40 -12.80 10.80 -23.60 13.60 -52 43.60 -61.60 64 -13.20 27.60 -13.20 68 0 96 16.80 36 40 57.20 75.60 68.40 23.60 7.20 73.20 6.80 98.80 -0.80z m-1268 -29.60 l0 -31.60 -22.80 -1.20 -23.20 -1.20 -1.20 -94.80 -0.80 -95.20 24 0 24 0 0 -28 0 -28 -24 0 -24 0 0 -44 0 -44 -42 0 -42 0 0 44 0 44 -22 0 -22 0 0 28 0 28 22 0 22 0 0 102 c0 83.60 1.20 104.80 6.40 117.60 10.80 27.20 31.60 35.20 90.80 36 l34.80 0.40 0 -32z m-2780.80 -182.80 l0.80 -209.20 -42 0 -42 0 0 210 0 210.40 41.20 -1.20 40.80 -1.20 1.20 -208.80z m480.80 206.40 c51.60 -8.40 80.80 -28.40 100.40 -69.60 9.60 -20 11.60 -29.20 11.60 -54.40 0 -39.60 -13.20 -67.60 -40.80 -86 l-18.40 -12.40 17.60 -14.80 c21.60 -18 31.60 -47.20 28.40 -82.40 -3.60 -40 -23.20 -67.60 -60.80 -84.80 -19.20 -8.80 -24.40 -9.20 -144.80 -10.40 l-125.20 -1.20 0 210 0 210.40 103.20 0 c56.40 0 114.40 -2 128.80 -4.40z m264 -151.60 l0 -156 -42 0 -42 0 0 156 0 156 42 0 42 0 0 -156z m160.80 58.40 c1.20 -91.60 1.60 -98.40 9.60 -108.80 15.60 -21.20 28 -27.20 57.60 -28.80 l28 -1.60 0 -42.40 0 -42 -20 2.40 c-28.80 3.60 -46.80 13.60 -64.40 36 l-15.60 19.60 0 -24.40 0 -24.40 -40 0 -40 0 0 156 0 156 41.60 0 42 0 1.20 -97.60z m755.20 3.60 l0 -94 82 0 82 0 0 94 0 94 44 0 44 0 0 -210 0 -210 -44 0 -44 0 0 80 0 80 -82 0 -82 0 0 -80 0 -80 -44 0 -44 0 0 207.20 c0 114 1.20 208.80 2.80 210 1.20 1.60 21.20 2.80 44 2.80 l41.20 0 0 -94z m1256 -62 l0 -156 -42 0 -42 0 0 156 0 156 42 0 42 0 0 -156z m160.80 53.20 c1.20 -94.80 2 -104.40 9.20 -116.80 13.20 -22.40 27.20 -30.40 54 -30.40 17.60 0 25.20 2 32 8 18.40 16.40 20 27.20 20 138 l0 104 42.40 0 42 0 -1.20 -124.80 c-1.20 -119.20 -1.60 -126 -10 -141.20 -17.20 -32.40 -42.80 -48 -84.80 -52.40 -37.60 -4 -62 3.60 -87.20 28 l-21.20 20.80 0 -21.20 0 -21.20 -38 0 -38 0 0 156 0 156 39.60 0 40 0 1.20 -102.80z m1437.20 58.80 l14.80 -44 76.80 0 76.80 0 14 43.20 13.60 42.80 47.20 1.20 c25.60 0.40 46.80 -0.40 46.80 -2 0 -1.60 -32.80 -96.40 -72.80 -210 l-73.20 -207.20 -50.80 0 -50.40 0 -6 17.20 c-3.20 9.20 -36.80 102.80 -74.40 208.40 -37.60 105.20 -68.40 192 -68.40 192.80 0 0.80 20.40 1.60 45.60 1.60 l45.60 0 14.80 -44z m422 -112 l0 -156 -42 0 -42 0 0 156 0 156 42 0 42 0 0 -156z m160.80 58.40 c1.20 -91.60 1.60 -98.40 9.60 -108.80 15.60 -21.20 28 -27.20 57.60 -28.80 l28 -1.60 0 -42.40 0 -42 -20 2.40 c-28.80 3.60 -46.80 13.60 -64.40 36 l-15.60 19.60 0 -24.40 0 -24.40 -40 0 -40 0 0 156 0 156 41.60 0 42 0 1.20 -97.60z m-4352.80 -288.40 l0 -38 -42 0 -42 0 0 38 0 38 42 0 42 0 0 -38z m2172 0 l0 -38 -42 0 -42 0 0 38 0 38 42 0 42 0 0 -38z m2020 0 l0 -38 -42 0 -42 0 0 38 0 38 42 0 42 0 0 -38z m-4786 -420 c51.20 -8 119.60 -16.40 158 -20 48.80 -4 174.40 -25.20 196 -32.80 3.20 -1.20 10.40 -2.80 16 -3.60 5.60 -0.40 13.60 -2 18 -3.20 6.80 -2 89.20 -20 140.80 -30.40 16.40 -3.60 42.80 -10.40 83.20 -22 11.20 -3.20 44.40 -11.20 74 -18 99.60 -23.20 122 -28.80 130 -32 4.40 -2 32.40 -10 62 -18.40 149.20 -40.80 247.20 -68.80 260 -74.40 5.60 -2.80 10.80 -4.80 12 -5.20 1.20 -0.40 4.80 -1.60 8 -2.80 3.20 -1.60 17.60 -6 32 -10.80 77.20 -24 130.40 -42 134 -45.20 2 -1.60 7.20 -3.20 12 -3.20 4.40 0 12.40 -2.40 18.40 -5.20 5.60 -3.20 23.60 -10 40 -16 16 -5.60 40.40 -15.60 53.60 -22 13.20 -6.40 35.60 -16.80 50 -22.80 53.20 -21.60 67.60 -28.40 134 -62 103.60 -52.80 145.20 -74.80 165.60 -88.80 38 -26 42.80 -29.20 66.40 -44.80 13.20 -8.80 52.40 -38.40 87.20 -66 34.80 -27.60 66.80 -52.40 71.60 -55.20 4.40 -2.40 9.20 -6 10.80 -8 1.20 -1.60 12.80 -11.20 25.60 -20.80 12.40 -9.60 22.80 -18.80 22.80 -20.80 0 -2 2.40 -3.60 5.20 -3.60 2.40 0 11.20 -7.20 18.80 -16 7.60 -8.80 16 -16 18.80 -16 6.80 0 51.20 -41.60 145.20 -136.40 76 -76.40 100.80 -100.40 154 -147.20 31.20 -26.80 117.60 -108 141.60 -132.40 109.60 -111.60 152.40 -157.20 187.60 -200 52.40 -63.20 50.80 -61.20 54 -69.20 1.20 -3.60 4.40 -6.80 6.80 -6.80 2 0 4 -2.80 4 -6 0 -2.80 2.40 -7.20 5.20 -8.80 8 -4.80 34.80 -39.60 34.80 -44.80 0 -2.40 2 -4.40 4 -4.40 2.40 0 5.60 -3.20 6.80 -6.80 1.60 -4 12.80 -21.60 24.80 -39.20 32.40 -46.40 68.40 -101.20 68.40 -104.40 0 -1.20 6.40 -12.80 14 -25.20 7.60 -12.80 22.80 -44 34 -70 10.80 -26 22.80 -52 26 -58 7.20 -12.80 29.20 -70.40 50 -131.20 14 -41.20 19.60 -64.40 32.40 -133.20 2.80 -14.40 6.40 -28.40 8.80 -31.20 2 -2.80 2.80 -6 1.60 -7.60 -1.60 -1.20 -0.80 -4.80 1.20 -7.60 2.40 -2.40 5.20 -8 6 -12 0.80 -4.40 3.60 -14.80 5.60 -23.60 3.60 -14.40 12 -75.60 18.40 -132 1.20 -10.80 4 -30.80 6 -44 12.40 -82.80 16.80 -189.20 8.40 -210.80 -4.40 -11.20 -16.40 -21.60 -24.40 -21.60 -8.40 0.40 -16.40 18.40 -11.60 26.80 6.40 12 7.60 69.60 1.60 80.80 -3.60 7.20 -4 10.80 -0.80 12 2.40 0.80 2.80 3.60 0.80 7.20 -2 3.20 -4.40 17.20 -5.20 31.60 -2 39.20 -2.80 45.60 -5.60 50 -3.60 6 -10.40 54.40 -13.60 96 -2.40 37.20 -9.20 72 -20 110 -3.60 12 -8.80 37.20 -11.60 56 -11.20 74 -28 132 -48 168.40 -3.20 6 -6.40 14 -7.20 18 -0.80 4.40 -4 13.20 -6.40 19.60 -2.80 6.80 -12 30.40 -20.80 53.20 -15.20 40.80 -55.60 125.20 -65.20 136.80 -6.40 7.60 -46.40 74.40 -46.40 77.20 0 4 -36.80 56 -73.60 104.40 -20 26 -43.60 56.80 -52.40 68.40 -31.60 41.60 -76.80 92.80 -132.40 150 -30.80 32 -66.80 69.60 -80 83.60 -21.20 23.20 -97.20 93.60 -192 178.40 -19.60 17.60 -74.40 70.80 -121.60 118.40 -47.20 47.20 -103.20 100.40 -124 117.60 -20.80 17.20 -38.40 33.20 -39.20 34.80 -0.80 1.60 -4 3.20 -6.80 3.20 -3.20 0 -7.20 2.40 -8.80 5.60 -1.60 2.80 -10 10 -18 15.60 -8.40 5.60 -23.20 17.60 -33.20 27.20 -10 9.60 -21.20 19.20 -25.20 21.20 -3.60 2 -10.40 7.60 -15.20 12 -18.80 19.20 -37.20 34.40 -40.80 34.40 -2 0 -8.40 4.40 -14.40 10 -6 5.60 -12 10 -13.60 10 -1.60 0 -5.20 3.60 -8 8 -2.80 4.40 -7.20 8 -10 8 -3.20 0 -9.60 4.80 -15.20 10.40 -5.20 6 -15.60 13.20 -22.40 16 -7.20 3.20 -13.20 7.60 -13.20 9.60 0 2.40 -2.40 4 -4.80 4 -2.80 0 -16.80 8 -31.20 17.20 -80.40 53.60 -87.60 58 -230 128 -65.20 32.40 -116 54.40 -172 74.80 -19.60 7.20 -37.60 14.80 -40 16.80 -2 1.60 -6 3.20 -9.20 3.20 -5.60 0 -25.20 8 -44.80 18 -5.60 2.80 -20.80 8 -34 12 -13.20 3.60 -48.40 14.80 -78 24.40 -29.60 9.60 -57.60 17.60 -62.40 17.60 -4.40 0 -9.60 1.60 -12 3.20 -2 2 -14.40 6.80 -27.60 10.40 -24.40 7.20 -59.20 18 -70 21.60 -3.20 1.20 -8.40 1.60 -11.20 1.20 -3.20 -0.40 -8 1.20 -10.80 3.60 -3.20 2.80 -7.20 3.60 -9.60 2.40 -2 -1.20 -4.40 -0.40 -5.20 1.60 -2 6 -50.80 20.40 -197.20 57.60 -70.40 18 -130.40 34 -132.80 35.60 -2.80 2 -6.80 2.40 -8.80 0.80 -2 -1.20 -5.20 0 -6.40 2.40 -1.60 2 -5.20 3.20 -8.40 2 -2.80 -1.20 -6.40 -0.40 -7.20 1.20 -1.20 2 -10 5.20 -19.20 7.60 -60.80 15.60 -142.40 34 -199.20 44.80 -36.40 6.80 -72.40 14 -80 15.60 -7.60 2 -39.20 7.60 -70 12.40 -30.80 5.20 -58.80 10 -62 11.20 -7.60 2.40 -22 4.80 -42 6.40 -8.80 0.80 -18.80 2.40 -22 3.60 -3.20 1.20 -29.20 5.20 -58 8.80 -28.40 3.60 -80 10 -114 14.40 -34 4.40 -64.80 8.40 -68 8.80 -7.60 1.20 -10.40 -6.40 -3.20 -10 2.80 -1.20 20.40 -9.60 39.20 -18 18.80 -8.80 53.20 -28 77.20 -42.40 23.60 -14.80 44 -26.80 44.80 -26.80 1.20 0 12.40 -6.80 25.20 -14.80 65.20 -41.60 96.40 -62.80 153.60 -104 34.40 -24.80 63.60 -45.20 64.80 -45.20 1.20 0 11.20 -6.40 22 -14 10.40 -7.60 21.20 -14 24 -14 2.40 0 4.40 -1.60 4.40 -4 0 -2 2 -4 4 -4 8.80 0 79.20 -48.40 104 -71.20 5.60 -5.20 14.80 -12 20.80 -15.20 6 -2.80 22.80 -16.40 38 -29.60 14.80 -13.20 33.20 -26 40.40 -28.40 6.80 -2.40 12.80 -6 12.80 -8 0 -2 1.60 -3.60 4 -3.60 2 0 17.60 -6.40 34 -14 16.80 -8 34.80 -16 40 -18 5.60 -2 10 -5.60 10 -7.60 0 -2 6.80 -8 15.20 -12.80 20 -12.40 34 -26.40 32 -32.40 -1.60 -4 -52.40 -4.80 -247.60 -4 -135.20 0.40 -257.60 2 -272.40 3.60 -16.80 1.20 -27.20 0.80 -27.20 -1.60 0 -2.40 12 -7.20 27.20 -10.80 44.80 -11.60 66 -18.40 72.80 -24 3.20 -2.80 16.80 -9.20 30 -14.40 13.20 -4.80 30 -11.20 37.20 -14.40 7.20 -3.20 20 -6.80 28.80 -8 8.80 -1.60 18 -5.20 20.40 -8 2.40 -3.20 7.20 -5.60 10.40 -5.60 3.20 0 14 -4.40 24.40 -10 10.40 -5.60 20.80 -10 23.60 -10 2.80 0 11.60 -4.40 19.60 -10 8 -5.60 16.80 -10 19.60 -10 2.80 0 19.60 -7.20 37.20 -16 17.60 -8.80 34 -16 36.80 -16 2.80 0 16 -5.20 29.60 -11.60 13.20 -6 30.80 -13.60 38.40 -16.40 7.60 -3.20 18 -8.80 23.20 -12.40 5.20 -4 19.60 -11.20 32 -15.60 12.40 -4.80 23.60 -10 24.80 -11.60 1.20 -1.60 11.20 -6.80 22 -12 11.20 -4.80 29.20 -13.20 40 -18.40 11.20 -5.60 22.80 -10 26 -10 3.20 0 14 -5.60 24 -12 10 -6.40 20.80 -12 24.80 -12 5.60 0 62 -30 67.20 -35.60 1.20 -1.20 10 -5.60 20 -9.20 57.20 -21.60 66.80 -26.40 85.20 -44 24.80 -23.20 22.40 -29.60 -8.80 -24.80 -38 5.20 -348.40 4.40 -402.40 -1.60 -103.20 -11.20 -130 -13.60 -179.20 -15.60 -36.80 -1.20 -50.80 -3.20 -49.60 -6.40 0.80 -2.80 15.20 -5.60 37.20 -7.20 19.60 -1.20 42.80 -5.20 51.60 -8.80 8.80 -3.60 22 -6.40 29.20 -6.80 7.20 0 17.20 -2.40 22 -5.60 4.80 -2.80 16.80 -6.80 26.80 -8 9.60 -1.60 23.20 -6 30 -10.40 6.80 -4.40 20.40 -8.80 30 -10.40 10 -1.60 20 -4 22.40 -6 2.40 -2 14 -5.60 26 -8 12 -2.40 25.20 -7.20 29.60 -10 4.40 -3.20 11.20 -5.60 15.60 -5.60 4.40 0 19.60 -5.60 34 -12.40 14.40 -6.80 32.80 -15.20 40.40 -18.40 7.60 -3.60 19.20 -8.80 25.20 -11.60 6.40 -3.20 13.60 -5.60 16.40 -5.60 2.40 0 17.20 -9.20 32.40 -20 15.60 -11.20 39.60 -26.80 53.60 -34.40 14 -8 28.40 -17.20 32 -20.40 3.60 -3.20 21.60 -16.80 40.40 -30 59.60 -43.20 109.60 -80.40 125.20 -94 8 -7.20 17.20 -13.20 20 -13.20 3.20 0 8.80 -3.60 12.80 -8 4 -4.40 8.80 -8 11.20 -8 6 0 38.40 -32 48.80 -48 4.80 -8 10.40 -20.40 12 -27.60 l2.80 -13.60 -27.20 2.40 c-15.20 1.20 -50 8 -77.60 14.80 -172.80 42.40 -225.60 56.40 -230.80 60.80 -2.80 2.40 -5.20 2.80 -5.20 1.20 0 -1.60 -2.80 -0.80 -6 2 -3.20 2.80 -6 3.60 -6 2 0 -1.60 -2.40 -1.20 -4.80 0.80 -2.80 2 -20.40 8 -39.20 13.20 -18.80 4.80 -52 14.40 -74 20.80 -52.40 15.60 -69.60 19.60 -82.80 20.40 -14 0.80 -14.80 -6.80 -1.20 -8.40 5.60 -0.80 10 -3.20 10 -5.20 0 -2 4.80 -3.60 10.40 -3.60 11.20 0 70.40 -28 82.40 -38.80 4 -3.60 7.20 -4.80 7.20 -3.20 0 1.60 3.20 0.40 7.20 -2.80 3.60 -3.60 13.20 -10 20.80 -14.40 7.60 -4.40 26.80 -15.20 42.80 -24.40 16 -8.80 30.40 -16.40 31.60 -16.40 4 0 63.20 -40.80 64.80 -44.80 0.80 -1.60 3.20 -3.20 5.20 -3.20 5.20 0 48.40 -29.60 55.60 -37.60 2.80 -3.60 16.40 -13.20 29.60 -21.20 36 -20.80 136.80 -102.40 215.20 -174 18.80 -17.20 35.60 -31.20 36.80 -31.20 1.60 0 13.20 -10.40 25.60 -22.80 33.20 -33.60 71.60 -69.20 74.40 -69.20 1.20 0 24.80 -22.40 52 -50 27.20 -27.60 51.20 -50 53.20 -50 1.60 0 20 -16 40.40 -36 20.40 -19.60 38.40 -36 40 -36 1.60 -0.40 20 -15.60 40.80 -34 20.80 -18.40 47.20 -41.20 58.40 -50.80 33.20 -27.60 43.60 -47.60 33.60 -63.20 -3.20 -5.20 -5.20 -4.80 -16.40 1.60 -29.60 17.60 -345.20 302.80 -363.20 328.40 -10 13.60 -37.60 39.20 -68 62 -16 12 -33.60 26.40 -38.80 31.60 -5.20 5.20 -9.60 8 -9.60 6.80 0 -1.60 -6.80 4 -15.20 12.40 -8 8.40 -22.80 21.60 -32.40 29.20 -9.60 7.60 -24.40 20.40 -32.40 28 -8.40 7.60 -20.40 18.80 -26.80 25.20 -6.40 6 -14 10.80 -16.80 10.80 -2.80 0 -3.60 2 -2.40 4 1.20 2.40 -0.40 4 -4 4 -3.60 0 -8.80 2.40 -12 5.20 -2.80 2.40 -12 10.40 -20.40 17.60 -8.80 6.80 -22.40 18.80 -31.20 26.80 -8.40 8 -17.20 14.40 -19.20 14.40 -2 0 -5.60 2 -8.40 4.40 -9.20 8 -133.20 89.20 -164.80 107.60 -17.60 10.40 -48 27.60 -68 37.60 -53.20 28 -84 44.80 -121.20 66.80 -18.40 10.80 -37.20 20.80 -42 22 -4.80 1.20 -14 6.40 -20.80 11.60 -10.80 8.80 -11.20 10.40 -6 16 6.80 6.40 60 12 60 6.40 0 -2 12 -5.60 27.20 -8 40 -6.40 134.40 -30.40 182.80 -46.40 11.20 -3.60 30 -8.80 42 -12 24 -5.60 94.40 -25.20 104 -28.80 3.20 -1.60 7.60 -2 9.60 -1.60 1.60 0.40 5.20 -1.20 8 -3.20 2.40 -2 19.60 -7.60 38.40 -12.40 18.80 -4.80 54 -14 78.40 -20.40 24.40 -6.40 45.60 -11.60 47.20 -11.60 5.60 0 2 8.40 -4.40 10.80 -4 1.60 -12.40 8 -18.80 14 -6 6.40 -16.80 14.40 -24 18 -6.80 3.20 -20 13.20 -29.20 21.60 -9.60 8.80 -19.20 15.60 -22 15.60 -2.80 0 -12 6.40 -20.40 14 -8.40 7.60 -16.40 14 -17.60 14 -1.20 0 -8 4.80 -15.60 11.20 -7.20 6 -23.60 18.40 -36.40 28 -12.80 9.20 -34 25.20 -46.80 34.80 -13.20 10 -25.60 18 -27.60 18 -2.40 0 -19.60 10.40 -38.40 23.60 -32.80 22 -66.80 40.40 -76.40 40.40 -2 0 -18 7.20 -35.20 15.60 -16.80 8.80 -36.40 16.80 -43.60 18.40 -6.80 1.20 -19.20 6 -27.60 10.40 -8.40 4 -19.60 7.60 -24.80 7.60 -5.20 0 -15.20 2.40 -22 5.60 -7.20 2.80 -21.60 7.20 -32.80 10 -10.80 2.80 -22.80 7.20 -26 10.40 -3.20 2.80 -16 6.80 -28 8.40 -12 1.60 -24 4 -26.40 6 -2.40 2 -16.40 6.40 -31.60 9.60 -15.20 3.60 -29.60 7.60 -32 9.20 -2 1.60 -12.80 4.80 -24 7.20 -73.20 16 -106 31.60 -106 49.20 0 13.20 8.80 16.40 44 16.40 18.80 0 52 3.20 74 6.40 22 3.60 61.60 8 88 9.60 26.40 2 64.40 6 84 8.80 25.20 3.60 82.40 5.20 191.20 4.80 143.60 -0.40 177.20 2 140 8.80 -8 1.60 -18.40 6 -22.80 10 -4.40 4.40 -13.60 7.60 -21.20 7.60 -7.60 0 -21.20 5.20 -32.40 12 -10.80 6.80 -23.20 12 -27.60 12 -4.40 0 -14.80 4.40 -22.80 10 -8 5.60 -17.20 10 -19.60 10 -2.80 0 -22 8.40 -42.80 18.40 -20.80 10.40 -54 26.40 -74 35.60 -19.60 9.20 -38.40 19.60 -41.60 23.20 -2.80 3.60 -10 6.80 -16 6.80 -6 0 -14.40 2.40 -18.80 5.60 -4.40 3.20 -25.20 12.40 -46 20.80 -20.80 8 -40.40 17.20 -43.60 19.60 -3.20 2.80 -16 8 -28 12 -12 4 -28.40 10.40 -36 14.40 -7.60 4.40 -17.20 7.60 -21.20 7.60 -4 0 -8 2.40 -9.20 5.60 -1.20 3.20 -8 7.20 -14.80 8.80 -7.20 1.60 -16.40 4.80 -20.80 8 -4.40 2.80 -15.20 6.40 -24 8 -8.80 1.20 -18.80 4.80 -22 7.60 -3.20 3.20 -11.20 6.40 -18 8 -6.40 1.60 -19.20 6 -28 10 -8.80 4 -32 14.80 -52 24 -19.60 9.20 -42.80 20 -50.80 24.40 -8 4 -18 7.60 -22.40 7.60 -4 0 -15.20 4.80 -25.20 11.20 -10 6 -21.60 12.80 -26 15.20 -10.40 6 -9.60 14.40 2.40 20.40 8 4.40 56.40 5.20 242 3.60 127.60 -1.20 247.60 -2.40 266.80 -3.20 22 -0.80 35.20 0.40 35.20 2.80 0 2.40 -17.60 10 -38.80 17.60 -22 7.60 -47.20 19.60 -58.80 28 -11.20 8.40 -26.40 18.40 -33.20 22.40 -7.20 4.40 -13.20 10 -13.20 12.40 0 5.20 -26.40 24.40 -49.20 36.40 -7.20 3.60 -14.40 8.80 -16.80 12 -5.20 6.80 -32.80 26.40 -112 79.60 -35.20 23.60 -66.40 45.60 -69.20 48.40 -2.80 2.80 -7.60 5.20 -10.40 5.20 -2.80 0 -10 5.20 -16.40 12 -6.40 6.40 -18.80 16.80 -27.60 22.80 -9.20 6.40 -18.80 13.60 -21.60 16.40 -3.20 2.80 -12 7.60 -19.60 10.80 -7.60 3.20 -18.40 9.60 -24.40 14.40 -28.40 22 -142.40 94 -172.80 108.80 -18.80 9.20 -44 23.20 -56 30.80 -12 8 -30.40 18.80 -40.80 24.40 -10.80 5.20 -19.20 11.20 -19.20 12.80 0 7.60 9.20 19.60 17.20 23.20 12 5.20 116 1.20 164.80 -6.40z m-226.40 -1775.20 c38.40 -19.60 50.80 -26 66.40 -33.20 16 -7.60 39.60 -22 48.80 -29.60 2.80 -2 6 -4 7.20 -4 1.20 0 14.80 -8 30 -18 15.20 -10 28.40 -18 29.60 -18 0.80 0 14.80 -7.60 31.20 -17.20 16 -9.60 46.80 -25.60 68.40 -36 21.20 -10 38.80 -20.40 38.80 -22.80 0 -2.80 2 -4 4.80 -3.20 2.80 1.20 21.20 -8.40 41.20 -20.80 47.20 -29.20 85.60 -50.80 119.20 -66.80 14.80 -7.20 26.80 -14.40 26.80 -16.80 0 -2 4.40 -4.80 10 -6 5.60 -1.60 19.60 -6.80 31.20 -12 11.20 -5.20 31.20 -14 43.60 -19.60 12.40 -5.60 33.20 -17.20 46 -25.60 24 -16.40 62 -32 83.20 -34.80 26.40 -3.60 37.20 -11.20 34 -24.40 -2 -9.60 -3.60 -16 -3.60 -18.80 -0.40 -1.20 -5.60 -3.60 -12 -5.20 -19.60 -4.40 -97.20 26 -122.40 47.60 -12.40 10.80 -44.40 27.60 -62 32.40 -17.20 4.80 -133.60 63.60 -138.80 70 -2.80 3.20 -5.20 4.40 -5.20 2.80 0 -1.60 -3.60 0 -7.60 4 -4.40 4 -16.40 11.60 -26.80 17.20 -10.80 5.60 -29.20 15.60 -41.60 22.40 -12 6.80 -37.20 20.40 -56 30.40 -18.80 10 -51.60 28 -73.20 40.80 -21.60 12.40 -42 22.40 -45.20 22.40 -3.20 0 -5.60 2 -5.60 4 0 2.40 -2.40 4 -4.80 4 -6.40 0 -68.40 40 -82.80 53.20 -12.80 11.60 -32.40 24 -32.40 20.40 0 -2.40 4.80 -8 34 -38.40 8 -8.40 33.60 -40.80 57.20 -72 23.60 -31.60 52.80 -68.80 64.40 -83.20 11.60 -14.40 22 -28.80 23.60 -32 3.60 -9.20 28.80 -41.60 35.20 -45.20 3.20 -1.60 5.60 -5.60 5.60 -8.40 0 -3.20 2.80 -6.40 6 -8 3.20 -1.20 6 -4.80 6 -8.40 0 -3.20 1.60 -6 4 -6 2 0 6.80 -6 10 -12.80 3.20 -7.20 16.80 -29.20 29.60 -49.20 24.40 -36.40 28.40 -49.60 19.20 -57.20 -4 -3.20 -9.60 -1.60 -23.20 7.20 -9.60 6.80 -19.20 12 -21.60 12 -2 0 -8.80 2.80 -14.80 5.60 -6.40 3.20 -37.60 14.40 -70 24.80 -59.60 18.80 -126 40.40 -137.20 44.80 -3.20 1.20 -7.20 2.40 -8.80 2.80 -2 0.80 -4.40 1.60 -6 2 -2 0.40 -4.80 0.80 -6.80 0.40 -1.60 -0.40 -5.20 1.20 -8 3.20 -2.40 2 -21.60 7.20 -42.40 12 -20.80 4.40 -82 18 -136 30.40 -54 12 -111.60 24.80 -128 28 -16.40 3.60 -39.20 8.80 -50.80 12.40 -11.60 3.60 -22.80 5.20 -25.20 3.60 -2.40 -1.60 -6.40 -1.20 -9.20 0.80 -8.40 6.40 -27.60 13.60 -24.80 9.60 3.60 -6.40 62 -32.40 72.40 -32.40 8.80 0 32 -11.20 52.40 -24.80 9.20 -6 17.60 -11.20 19.20 -11.20 4.80 0 32 -22 54 -43.60 12 -12 26.40 -24.40 32 -28 5.60 -3.60 20.80 -18 34 -32.40 13.20 -14.40 26.40 -27.60 29.20 -29.20 2.40 -1.60 4.80 -5.20 4.80 -7.20 0 -6.80 29.20 -42.40 39.20 -48 8.80 -5.20 44 -46.40 58.40 -68.80 4 -6.40 14.80 -16.40 24.80 -22 19.20 -12 24.80 -22 17.20 -31.60 -8.40 -9.60 -59.20 -4 -110.80 13.20 -64.40 20.80 -150.80 36 -226.80 39.60 -28.40 1.20 -57.20 2.80 -64 4 -6.40 0.80 -43.60 2.80 -82 4 -38.40 1.20 -93.20 4 -122 6 -28.40 2 -69.60 4 -90.80 4.40 -21.60 0.80 -39.20 2.40 -39.20 4 0 2 -2.40 2.40 -5.60 1.20 -10.80 -4 -102.40 -3.60 -102.80 0.40 0 2.40 -1.20 1.60 -2.40 -1.60 -2 -4.40 -2.80 -4.40 -5.60 0 -2.40 4 -3.60 4 -3.60 0.80 0 -3.20 -5.60 -4 -18.80 -2.80 -30.80 3.60 -177.20 4 -177.20 0.40 0 -1.60 -31.20 -2.80 -68.80 -2.40 -41.20 0 -73.20 -1.20 -79.20 -4 -8.80 -3.60 -6.80 -4 12 -3.60 26.80 0.40 45.60 -2.40 120 -16.80 60.40 -12 168 -27.60 258.80 -38 29.20 -3.20 66 -8.40 82 -11.60 16 -3.20 36.80 -7.20 46.40 -8.40 9.20 -1.60 16.80 -4 16.80 -5.60 0 -1.60 3.20 -2.80 7.20 -3.20 16 -1.20 36 -5.20 56.80 -10.80 12 -3.60 42 -9.20 66 -12.40 24.40 -3.60 64 -10.80 88 -16 24.40 -5.20 50.40 -10.40 58 -12 89.60 -16.80 186 -40.80 206.80 -50.80 5.20 -2.40 10.40 -3.20 12 -2 1.20 1.60 4.40 1.20 7.20 -1.20 5.60 -4.80 41.20 -14 92 -24.40 22 -4.40 46.40 -9.60 54 -11.60 32.40 -8.80 131.20 -31.60 148 -34 10 -1.60 20 -4.40 22 -6 2.40 -1.60 8.40 -4 14 -5.20 5.60 -1.20 20 -5.60 32.40 -10 12.40 -4.80 26.80 -9.20 32 -10.40 22 -4 50 -12.40 54.80 -16 3.20 -2.40 12 -4.40 20 -4.80 8.40 -0.40 24.80 -5.20 36.80 -10.80 12 -5.20 31.20 -11.60 42 -14.40 11.20 -2.80 30.80 -10 44 -16 13.20 -6 34 -14.40 46 -18.40 12 -4 24 -8.40 26 -10 2.40 -1.60 16.80 -6.80 32 -12 15.60 -4.80 42.80 -16 60.80 -24.80 36.80 -17.20 43.60 -26.80 31.60 -45.20 -8 -12 -14.80 -12.80 -24.40 -2 -12.80 14 -67.60 38 -148 64 -22 7.20 -48 16.80 -58 21.20 -10 4.40 -28.80 11.20 -42 15.20 -13.20 3.60 -29.20 8.80 -36 11.20 -68 24 -162 54 -202 64.40 -10 2.80 -21.60 6.40 -26 8.40 -8.80 4 -173.20 41.20 -202 45.60 -10 1.60 -36 8 -58 14 -22 6 -58 15.20 -80 20 -22 4.80 -46.80 11.20 -55.20 14.40 -8 3.20 -16.40 5.20 -18 4.80 -1.60 -0.40 -11.60 1.20 -22.80 3.60 -79.60 18.80 -136.40 30.40 -188 39.20 -32.80 5.60 -86 15.60 -118 22.40 -82.40 16.80 -172 32 -184.80 31.60 -6 0 -11.60 1.60 -13.20 4 -1.20 2 -9.20 4 -17.20 4 -23.20 0 -173.20 23.20 -244.80 38 -16.40 3.20 -46 7.20 -66 8.80 -19.60 1.20 -36.80 3.60 -38 5.20 -1.20 1.60 -16.40 5.60 -34 9.20 -69.20 14 -74.40 15.60 -71.60 24.40 4.40 14.40 12.40 17.20 62.40 20 27.20 1.60 74.40 5.60 105.20 9.20 45.60 5.20 95.20 6.40 268 5.60 116.80 0 240.80 -2 276 -4.40 35.20 -2 92 -4.80 126 -6 75.20 -3.20 228 -12.80 250 -16 8.80 -1.20 20.40 -3.60 26 -5.60 5.60 -2 17.20 -4.80 26 -6.40 14.80 -2.40 73.60 -15.60 92 -20.80 5.20 -1.20 0 6.40 -14.40 21.20 -12.40 13.20 -33.60 37.60 -47.20 54.80 -25.60 32 -83.20 92 -108.40 112.80 -52.80 44.40 -96.40 70.40 -184 109.60 -47.60 21.60 -60 30.80 -59.20 43.20 1.20 10.80 21.20 26.80 28 22.80 2 -1.20 29.20 -4.80 60.40 -8 60 -6 118 -16 125.20 -22 2.40 -2 5.60 -2.40 6.80 -1.20 1.20 1.20 4.80 0.80 7.60 -0.80 2.80 -2 6 -3.60 7.20 -4 1.20 0 4.80 -1.20 8 -2.40 3.20 -1.20 32 -8 64 -14.80 166.80 -35.20 282 -64.80 298 -76.40 9.20 -6.80 89.60 -29.60 92.80 -26.40 1.60 1.60 -12.80 24.80 -18.80 30.40 -6.80 6.40 -57.20 74.40 -73.60 99.20 -10.80 15.60 -20.80 28.80 -22.40 28.80 -1.60 0 -18.80 21.20 -38.40 47.20 -19.60 25.60 -36.80 47.60 -38 48.80 -6 5.20 -31.60 46.40 -31.60 50.80 0 2.80 -1.60 5.20 -4 5.20 -2 0 -4 2.40 -4 5.20 0 4.80 -21.20 27.60 -62.80 68 -20.40 19.60 -20.80 20.40 -14.40 28 8.80 9.20 26.80 7.20 52.80 -6.40z m1415.20 -370.80 c1.20 -4.40 3.60 -8 5.60 -8 6.40 0 4 -14.40 -3.20 -20.80 -13.60 -12 -36.80 -18.40 -90 -25.20 -58.80 -7.60 -148.40 -6.80 -203.60 2 -26.80 4.40 -30.40 5.60 -28.80 12.40 1.20 4 5.60 7.60 9.60 7.60 4.40 0 7.60 2.80 7.60 6.40 0 6 4.40 6.40 39.20 3.60 56 -4.80 92.40 -5.20 146.80 -1.20 43.60 3.60 50 4.80 72 17.20 28 16 41.60 17.60 44.80 6z m-480 -732.80 c14.40 -11.60 23.20 -16.80 67.20 -38 20 -9.60 44 -22 54 -27.60 29.60 -16.40 80.40 -40 104 -47.60 22.40 -7.20 31.60 -11.20 82.40 -33.60 15.60 -6.80 29.20 -12.40 30.80 -12.40 2.80 0 44 -18 58.80 -25.60 23.20 -12 156 -50.80 234 -68.40 42.80 -9.60 72 -17.60 90 -24.80 3.20 -1.20 8 -2.80 10 -3.20 2.40 0 6.80 -1.60 10 -2.80 3.20 -1.20 35.60 -8 72 -14.80 87.20 -16.40 186.40 -27.60 270 -30.40 37.60 -1.20 81.60 -3.20 98 -4.80 33.60 -2.80 210 -2.40 268 1.20 40.40 2 134.40 11.60 174 17.60 13.20 2 45.60 6.40 72 9.60 93.20 12.40 118.80 18.40 129.60 30.80 5.60 6.40 13.20 11.60 16.80 11.60 11.20 0 19.60 -4.40 19.60 -10.40 0 -3.20 2 -8.80 4.40 -12.80 3.60 -5.60 2.80 -10 -3.20 -20.80 -6 -10.80 -11.60 -14.40 -27.20 -18.40 -48 -12 -78.80 -17.60 -120 -21.60 -24 -2 -61.20 -6.80 -82 -10 -48.40 -7.60 -134 -14 -184.40 -14 -21.60 0 -40 -1.60 -41.20 -3.60 -1.60 -2 -42 -3.60 -92 -4 -48.80 0 -90.80 -0.40 -92.80 -0.80 -2 -0.40 -5.20 0 -7.60 0.40 -2 0.40 -10.40 0.40 -18.80 0 -8 -0.40 -17.60 1.20 -22 3.60 -4 2 -49.60 6 -101.20 8 -89.60 4 -169.60 11.60 -222 20.80 -73.60 12.80 -118.40 22 -172 35.60 -32.80 8 -66.40 16 -74 17.60 -7.60 1.20 -18.40 4.80 -24.40 7.60 -5.60 3.20 -13.60 5.20 -17.60 4.40 -4 -0.80 -12 1.20 -17.60 4.40 -6 3.20 -32.80 12 -60.40 20 -27.60 7.60 -58.40 16.80 -68.80 20 -26.80 8 -88.40 32 -130.40 50.40 -9.20 4 -18 7.20 -19.20 7.20 -1.60 0 -4 1.20 -5.20 3.20 -1.20 2 -22 11.20 -46.40 20.80 -24 9.60 -54.40 22.80 -66.80 28.80 -12.80 6.40 -24.80 11.60 -27.20 11.60 -8 0 -135.60 65.20 -147.60 75.20 -11.20 9.60 -12 12.40 -10 26 2 10.40 5.60 16.40 11.20 18.80 12 4.80 12.80 4.80 25.20 -4.80z m2993.60 -147.60 c6.40 -6.80 11.60 -14.80 11.60 -17.60 0 -5.60 62 -102 73.60 -114.80 3.60 -4 6.40 -8.80 6.40 -10.80 0 -1.60 11.60 -15.20 26 -30.40 14.40 -14.80 26 -28.40 26 -30.40 0 -2 2.40 -3.60 5.60 -3.60 3.20 0 9.20 -5.20 12.80 -11.60 4 -6.80 8.40 -11.20 10.40 -10 1.60 1.20 3.20 -0.40 3.20 -3.20 0 -3.20 9.60 -16.40 20.80 -29.60 26.40 -30 132 -133.60 136.40 -133.60 1.60 0 11.20 -8 20.80 -17.60 10 -9.60 18 -17.20 18 -16.40 0 0.40 7.60 -6.40 17.20 -15.60 9.20 -9.20 22.80 -20.80 30.40 -26.40 7.20 -5.60 17.20 -13.20 21.60 -16.80 4.40 -4 9.20 -7.20 10.80 -7.20 2.80 0 18.40 -16 44 -44.80 9.20 -10.40 28 -26.40 41.60 -35.20 13.20 -8.80 28 -18.80 32.80 -22 6.40 -4.80 43.20 -9.60 142 -18.40 73.60 -6.80 139.20 -12.80 145.60 -14 6.80 -0.80 22.40 -1.60 35.20 -1.20 12.80 0 25.60 -1.60 28 -3.60 2.80 -2 29.20 -6 58.80 -8.40 60.80 -4.80 198 -16.80 332 -28.80 49.60 -4.40 115.60 -10 147.20 -12.40 l56.80 -4.40 0 -16.80 c0 -9.60 -2.40 -18.80 -4.80 -20.80 -2.80 -2 -21.20 -9.60 -41.20 -17.20 -35.60 -12.80 -123.60 -46 -182 -68.40 -46.40 -17.60 -54 -20.40 -54.40 -18.80 0 0.80 -2.80 -0.80 -6 -3.60 -5.60 -4.80 -42.40 -19.20 -87.60 -35.20 -42 -14.40 -140.80 -52.80 -154.80 -60 -7.20 -3.60 -14.80 -5.60 -17.20 -4 -2 1.20 -4 0.80 -4 -1.20 0 -2 -8.40 -6.80 -19.20 -10 -10.40 -3.60 -34 -12 -52.40 -19.20 -31.60 -12 -33.20 -13.20 -30.80 -23.20 5.60 -24.80 18.80 -109.60 22.40 -144.40 2.40 -20.80 5.60 -47.60 8 -59.60 2 -12 4 -34 4 -48.80 0 -22.80 -1.20 -28 -7.60 -31.60 -18.40 -9.60 -66.80 -16 -123.20 -16 -48 0 -66.40 2 -104.80 10.40 -25.60 5.60 -51.60 13.20 -58.40 16.40 -41.60 22 -50 24.80 -72.40 25.60 -19.60 0.80 -29.20 -1.60 -56.80 -13.60 -35.20 -15.60 -75.60 -27.20 -126.80 -35.60 -42.40 -6.80 -302 -7.20 -364 0 -24 2.80 -52.80 6 -64 7.20 -30.80 3.20 -117.20 17.60 -144 23.60 -13.60 3.20 -36 7.60 -50.40 10 -43.60 6.80 -69.20 12 -77.60 16 -4.40 2.40 -34.80 10.40 -67.20 18 -91.20 21.60 -97.60 26.40 -111.60 88 -18 77.60 -26.80 120.80 -27.20 133.20 0 7.20 -1.60 16.40 -4 20.40 -6.40 12 -5.20 52.80 2 64.40 4.40 7.20 17.60 4.40 23.60 -4.80 6.80 -11.20 18.40 -69.20 28.40 -145.20 3.60 -26.80 13.60 -65.60 20.40 -78.40 10 -19.60 32.40 -20.80 55.20 -3.60 21.20 16 39.20 15.60 80.40 -2 21.60 -9.20 117.60 -34 162 -42.40 14.40 -2.40 35.60 -7.20 47.20 -10.40 28 -8 38 -4.80 46 13.60 9.60 21.60 18 73.60 18.40 112.80 0.40 18.80 2.40 36 4.40 38.40 2.40 2.80 4 9.20 3.60 14.40 -0.40 8 1.60 28 6 64.40 0.40 4 2 8.40 3.60 9.60 1.60 1.60 2.80 6.80 2.80 11.20 0 14 22 56 35.20 67.20 12.40 10.40 42 19.20 64.40 19.20 6 0 12.40 1.20 14 3.20 3.20 2.80 13.20 4.40 45.60 6.40 9.20 0.80 18.40 2.40 19.60 4 3.60 3.60 149.20 3.20 149.20 -0.40 0 -2 10 -3.20 22 -3.60 12 0 26 -2 30.80 -4.40 5.20 -2.40 15.60 -6.80 23.20 -9.60 29.60 -11.20 40.80 -21.20 64.80 -57.20 13.20 -20 24.40 -38 24.80 -40.40 0.40 -2 3.60 -8.40 7.20 -14 11.20 -16.40 30.80 -61.20 36.80 -82.40 28 -103.60 27.60 -102.40 43.20 -100.80 12.80 1.20 13.20 1.60 12 18.40 -1.60 18 6.80 32.80 18 32.80 2.80 0 5.20 2.40 5.20 5.60 0 3.20 9.20 9.20 21.20 13.60 65.60 24.80 76.40 29.20 80.40 32.40 2.40 2 19.60 8.80 38.40 15.60 33.20 11.60 108 39.20 184 67.60 20.80 8 40 15.60 42 17.60 5.20 4 148 57.20 235.20 88 14.80 5.20 26.80 10.80 26.80 12.40 0 2 2 3.20 4.80 3.20 2.80 0 34.80 11.60 71.20 25.60 36.40 14.40 86.80 33.20 112 42.40 42.80 15.20 72.40 27.60 102 42.40 10.80 5.20 2.80 5.60 -80 3.20 -50.40 -1.60 -132.40 -4.40 -182 -6.40 -49.60 -2.40 -121.20 -4.40 -159.20 -4.80 -37.60 0 -68.80 -1.60 -68.80 -3.20 0 -3.60 -238 -6 -289.60 -2.80 -16.40 1.20 -28.80 0.40 -30.80 -2.40 -20.40 -26.40 -26.80 -31.60 -32.80 -26.40 -5.60 4.40 -4.80 6.80 6.40 22.40 l12.80 17.60 28 0 c15.60 0.40 80.40 2 144 4.40 64 2 192.40 5.60 286 8 93.60 2.40 183.60 4.80 200 6 16.40 0.80 54 1.60 83.20 2 29.20 0 52.40 1.60 51.20 3.60 -1.20 1.60 -18.80 4.40 -39.20 6 -20.40 1.20 -67.60 5.20 -105.20 8.40 -37.20 3.20 -88.80 8 -114 10 -76.80 6.80 -268 23.20 -374 32 -54.80 4.80 -102.80 9.60 -106 10.80 -3.20 1.20 -15.20 2 -26.80 1.60 -11.20 -0.80 -23.60 0.80 -28 3.20 -4 2 -30 5.60 -58.40 8 -42 3.20 -52.80 5.60 -62 12.40 -6 4.80 -28 20.80 -49.20 35.60 -43.20 30.40 -53.60 38 -81.60 62.40 -10.80 9.60 -37.20 32.40 -58 50.40 -20.80 18 -40.80 35.60 -44.40 39.20 -3.60 3.60 -24 22.80 -45.20 42.40 -32.80 30 -80 81.20 -170.80 183.60 -20 22.80 -74.40 98.40 -96.40 134.40 -24.40 39.60 -26.40 47.60 -13.60 61.20 12.80 13.60 16.40 13.60 30.80 -1.60z m-2462.80 -269.60 c6.80 -6.80 12 -21.60 8.80 -24.80 -0.80 -1.20 -13.20 -4.40 -27.20 -7.20 -26 -5.60 -88.40 -21.20 -99.20 -24.80 -3.20 -1.20 -10 -2.80 -15.20 -3.60 -5.20 -0.40 -11.60 -2.80 -14 -4.80 -2.80 -2.40 -32.80 -10 -66.80 -16.80 -57.20 -12 -70 -13.20 -162 -15.60 l-100 -2.40 30 -14.80 c16.40 -8 45.20 -20 64 -27.20 18.80 -6.80 43.20 -16.80 54 -22 32.40 -15.20 80.80 -27.20 103.20 -24.80 23.20 2 34.80 -6 34.80 -24 -0.40 -18.40 -8.40 -25.20 -30.40 -25.20 -10.80 0 -39.20 -2.80 -63.60 -6.40 -24 -3.20 -61.20 -7.20 -82 -8.40 -20.80 -1.20 -41.60 -4 -45.60 -6 -4 -2.40 -31.20 -4.80 -60 -5.60 -28.80 -0.80 -52.40 -1.60 -52.40 -2 0 0 -24.80 -3.60 -55.60 -7.60 -37.20 -5.20 -58.40 -6.40 -65.20 -3.60 -13.60 5.20 -26 4.40 -24.40 -1.20 2 -5.60 30.40 -16.80 51.60 -20 7.60 -1.20 23.60 -6.80 35.60 -12.40 29.20 -13.60 70.80 -26 96.80 -28.80 26 -2.80 52.40 -10.40 56 -15.60 4 -5.60 -0.40 -22.80 -8 -31.20 -4 -4.80 -12 -7.20 -22.40 -7.20 -9.20 0 -51.60 -4 -94.40 -8.40 -42.80 -4.80 -110.40 -9.20 -150 -9.60 -39.60 -0.80 -96.40 -3.20 -126 -5.60 -29.60 -2.40 -98.80 -5.60 -154 -6.80 -54.80 -1.60 -100.40 -3.20 -101.20 -3.60 -1.20 -1.20 44.40 -23.60 75.20 -37.20 19.60 -8.40 52 -18.80 68 -22 5.60 -1.20 36 -7.20 68 -14 94.80 -20 150 -26 300 -33.20 118.40 -5.60 240.80 -1.20 338 12.40 15.60 2 58 7.60 94.40 12.40 36.40 4.40 85.20 12.40 108 18 22.80 5.60 53.60 12.40 68.80 15.20 14.80 3.20 29.20 7.60 32.40 10 3.20 2.80 7.20 4.40 8.80 4 2 -0.40 4.40 -0.40 5.60 0 1.20 0.40 29.20 8 62 16.40 78.40 20.40 119.60 32.40 122 35.60 1.20 1.60 11.20 5.20 22 8 34.40 9.20 99.60 28.80 110 33.60 5.60 2.40 12 4.40 14 4.80 2.40 0 6 1.20 8 2.80 2.40 1.20 21.60 7.20 42.80 12.80 53.60 14.40 155.20 58.80 199.20 87.20 12 7.60 37.20 22.40 56 33.20 51.20 28.40 106.80 66.80 137.20 94 6 5.60 16.80 12.80 23.20 16.80 6.80 3.60 20.40 15.20 30.80 26 16.80 17.60 24.40 29.20 43.60 66.40 8 15.20 22 23.60 38 22 11.60 -1.20 13.20 -2.40 12.40 -12 -0.40 -6 -5.20 -16 -11.20 -22 -5.60 -6.40 -16.40 -22 -24 -35.20 -29.20 -51.60 -117.20 -126 -203.20 -171.60 -19.20 -10.40 -38.40 -21.60 -42.80 -25.20 -16.40 -14.40 -133.20 -74 -158.80 -81.60 -9.60 -2.80 -17.20 -6.40 -17.20 -8.40 0 -2 -1.60 -2.40 -4 -1.20 -2 1.20 -4 0.40 -4 -2 0 -2.40 -2 -3.20 -4.40 -1.60 -2.40 1.20 -5.60 0.80 -7.20 -1.20 -2.40 -3.60 -32 -13.60 -104.40 -34.40 -44.40 -13.20 -138.40 -40.80 -174 -51.60 -15.20 -4.80 -29.60 -9.60 -32 -11.20 -7.60 -5.60 -72.40 -23.60 -122 -34 -27.60 -5.60 -76.40 -16.40 -109.20 -24.40 -70.80 -16.80 -120.80 -24.40 -200.80 -31.60 -32.80 -2.80 -70.40 -8 -83.20 -11.60 -14 -4 -48.40 -8 -86 -9.60 -62 -2.80 -269.20 1.60 -280.80 5.60 -3.20 1.60 -24 3.20 -46 4.40 -22 0.80 -40.80 3.20 -42 4.80 -1.20 2 -14 4.40 -29.20 6 -14.80 1.60 -54.40 8 -88 14.80 -110.40 22 -160 38 -225.20 71.60 -26 13.20 -49.20 24 -52.40 24 -8.80 0 -36.80 20.40 -39.60 28.80 -1.20 4.40 -0.40 10 2 12.40 5.20 5.20 72.80 9.60 202.40 12.80 48.40 1.20 115.20 4 148 6.40 33.20 2.40 81.60 4 107.60 3.60 53.60 -0.40 130 6.80 137.20 12.80 2.80 2.40 8.40 2.80 12 1.60 6.40 -2.40 6.40 -2 1.20 2.80 -8.80 8 -63.60 31.60 -108 46.80 -52 17.60 -68.80 27.20 -65.60 37.60 2.80 8.40 9.20 14.80 22.80 22.80 3.60 2 25.20 5.60 48 7.60 22.40 2 53.60 5.60 68.80 7.60 60 8 102.40 12.40 168 16.80 37.60 2.80 81.60 6 98 7.20 l30 2.40 -24.80 9.20 c-13.60 5.20 -27.20 11.20 -30 14 -2.80 2.80 -15.20 7.20 -27.20 10 -28 6.80 -44 12.80 -44 16.80 0 3.60 -19.60 14.80 -82 48 -19.60 10.40 -36.40 21.20 -37.20 24 -2 5.20 6.80 24.40 13.20 28.80 2 1.60 10 2.40 16.80 1.20 7.20 -0.80 14 0 14.80 1.60 0.80 1.20 13.60 1.60 28.40 0.40 14.80 -1.20 27.60 -0.80 28.40 0.80 0.80 1.20 40.80 2.80 88.40 3.20 94.80 0.40 131.20 4.40 208.40 24.40 25.60 6.40 65.20 15.20 88 19.60 22.40 4.40 44 9.60 48 11.60 10 6 19.20 5.20 26.40 -1.60z m1442.40 -19.60 c10.80 -8.80 34.80 -35.60 90 -100.40 29.20 -34 74.40 -97.60 104 -146.40 4.40 -7.60 11.20 -18 14.80 -23.60 4 -5.60 10 -15.20 13.60 -22 3.60 -6.40 13.20 -20.80 21.20 -32 8.40 -10.80 20.80 -33.60 28 -50 7.60 -16.40 19.60 -42.40 26.80 -57.60 16 -32 16 -34.80 5.60 -44.40 -9.20 -8 -5.60 -11.20 -82.40 66.80 -47.60 48 -90.40 78.40 -148 105.60 -21.60 10.40 -44.80 22.40 -50.80 26.80 -6.40 4 -12 7.20 -12.80 6.40 -1.20 -1.20 14.40 -28.80 35.20 -61.60 28 -44.80 56.80 -100.80 77.60 -151.60 8 -20 18 -40.80 21.60 -46.40 7.60 -10 40 -94 67.60 -174 23.60 -67.60 28 -79.60 34.40 -86.40 3.20 -3.20 5.60 -7.60 5.60 -9.20 0 -1.60 4.40 -8.80 10 -16 5.60 -7.20 10 -16 10 -19.20 0 -3.20 3.60 -9.20 8 -13.20 4.40 -4 8 -9.60 8 -12.80 0 -2.80 2 -5.20 4 -5.20 2.40 0 6 -4.80 8 -10.40 2.40 -6 16.40 -27.20 31.20 -47.20 14.80 -20 32.40 -44 38.80 -53.60 6.40 -9.60 14.80 -19.60 18.80 -22.40 4 -3.20 16 -13.20 26.40 -22.80 10.40 -9.60 25.20 -22.40 32.80 -28 7.60 -6 21.20 -17.20 29.60 -25.60 21.20 -20 56 -46 61.60 -46 2.80 0 4.80 -1.60 4.80 -4 0 -2 3.20 -4 7.20 -4 4 0 11.20 -2.80 16 -6.40 5.20 -3.60 10.40 -5.20 11.60 -4 1.60 1.20 5.20 0 8.80 -3.20 5.60 -4.80 50.40 -19.60 106.40 -34.80 8.80 -2.40 24 -6.80 34 -9.60 54.80 -16 126.80 -28.40 184 -32 67.20 -4.40 268.40 -0.40 278.80 5.60 4.40 2 17.60 5.20 29.60 6.40 50.40 5.60 155.60 39.60 155.60 50.40 0 2 2.80 3.60 6 3.60 3.20 0 10 4.80 15.20 10.40 4.80 5.60 14.40 12.80 20.80 15.60 33.60 15.60 82.40 45.60 89.20 54.80 2.80 4 7.60 7.20 10.80 7.20 3.20 0 12.40 8 20.80 18 22.40 26.80 37.20 24 37.20 -7.60 0 -14.80 -7.60 -22.80 -52 -55.60 -16.40 -12.40 -34.80 -26.80 -40.80 -32 -6 -5.60 -18 -13.20 -26.80 -17.20 -9.20 -4 -16.40 -8.40 -16.40 -10.40 0 -1.60 -2 -3.20 -4.40 -3.20 -2 0 -18 -8.80 -35.20 -20 -36.80 -23.60 -60.80 -34.80 -83.60 -38.40 -9.20 -1.60 -16.80 -4.40 -16.80 -6.40 0 -2 -1.60 -2.80 -3.60 -1.60 -2 1.20 -9.20 -0.80 -16.80 -4.40 -28 -14 -178 -26.80 -317.60 -26.80 -100 -0.40 -106 0 -152 10.80 -26.40 6.40 -52 13.20 -56.80 15.60 -4.80 2.40 -14.40 4.40 -22 4.80 -7.20 0.40 -16.80 2.80 -21.20 5.20 -8.40 4.40 -12 5.60 -108 35.20 -64.40 20.40 -103.60 38.80 -126 59.60 -7.60 7.20 -29.20 25.20 -48 40.40 -66.40 52.40 -88.80 75.20 -112.80 112 -12.80 19.60 -23.20 38 -23.20 41.20 0 2.80 -1.60 4.40 -3.60 3.20 -2 -1.20 -4.80 2 -6 7.60 -1.60 5.60 -4.40 10 -6.40 10 -2.40 0 -4 2.40 -4 5.60 0 2.80 -4.40 10 -10 16 -5.20 5.60 -8.80 10.40 -7.60 10.40 1.20 0 -1.60 4 -6.40 8.80 -4.40 4.80 -8 10.80 -8 13.60 0 2.80 -1.20 5.60 -2.80 6.40 -10 4 -44.80 79.20 -63.20 135.20 -8.40 25.20 -16.80 48.40 -19.20 51.20 -2 2.40 -2.40 4.80 -1.20 4.80 1.60 0 0.40 4 -2.40 9.20 -2.80 4.80 -5.20 9.60 -5.20 10.80 -0.40 1.20 -2.80 6.40 -5.20 12 -2.40 5.60 -16.40 39.20 -30.40 74.80 -30 74.80 -39.20 93.60 -80.40 165.20 -16.40 28.80 -30 53.20 -30 54.40 0 8.40 -45.20 75.20 -66 97.20 -48.80 52.40 -53.60 68.80 -23.20 78 12.40 4 81.60 -28 132 -60.40 12.80 -8.40 37.60 -22.40 55.20 -31.20 17.60 -9.20 42.40 -22.40 55.20 -29.20 12.40 -7.20 23.60 -12.80 24.80 -12.80 0.80 0 -4 8.40 -11.20 18.40 -7.20 10 -14.80 21.20 -16.80 24.80 -42.80 69.20 -113.60 160.40 -170.40 219.60 -15.20 15.60 -27.60 31.20 -27.60 34.80 0 3.20 4.80 9.60 10.80 14 11.60 9.60 21.20 8.40 37.20 -5.20z m1669.60 -686 c18.80 -20.80 -32.40 -38.40 -56.40 -19.20 -7.60 5.60 -6.40 17.60 2 22.40 12.40 7.60 46.80 5.20 54.40 -3.20z"/>
  <path d="M2508.40 6363.20 c-24.40 -16.40 -30.40 -28.40 -31.60 -62.40 -1.60 -38.40 6 -54.80 31.60 -68 29.60 -15.60 63.20 -4.80 77.20 24.80 16 33.60 11.20 72.80 -11.20 97.20 -10.80 11.60 -16.40 14.40 -32.80 16 -16 1.60 -22 0 -33.20 -7.60z"/>
  <path d="M3028.40 6365.20 c-7.20 -3.60 -18 -13.60 -24 -22.80 -8.80 -13.60 -10.40 -20 -10.40 -46.80 0 -25.20 1.60 -33.20 8.40 -42 14.80 -20 28.80 -27.60 49.60 -27.60 35.20 0 56.80 24 59.20 65.60 3.60 61.20 -36.40 96.40 -82.80 73.60z"/>
  <path d="M4848.40 6366.80 c-26 -13.20 -36.40 -52.40 -36.40 -141.20 0 -112.40 13.60 -145.60 59.60 -145.60 22 0 38.40 14.80 46.40 41.20 8.40 27.60 12 123.20 6.80 168 -2.40 19.20 -8 42.80 -12.40 52.80 -11.60 26.40 -39.60 37.60 -64 24.80z"/>
  <path d="M5154.40 6211.60 c-31.60 -27.60 -27.20 -102.80 7.20 -124 25.20 -15.60 63.20 -6 78.80 19.20 12.40 20 14.80 65.60 4.80 85.20 -10.80 20.80 -30 32 -55.60 32 -18 0 -23.60 -2 -35.20 -12.40z"/>
  <path d="M3297.60 6269.20 c2.40 -6 93.20 -164.40 97.20 -168.80 0.40 -0.80 1.20 38 1.20 86.80 l0 88.80 -50.40 0 c-46 0 -50.40 -0.40 -48 -6.80z"/>
  <path d="M4143.20 6263.20 c4.40 -7.20 25.60 -43.60 46.80 -81.20 21.60 -37.20 41.60 -71.60 44.80 -76 4.40 -6.80 5.20 5.60 5.20 81.20 l0 88.80 -52.40 0 -52.40 0 8 -12.80z"/>
  <path d="M5024 5688.80 c-33.20 -16.40 -47.20 -62.80 -35.60 -117.60 11.60 -54 71.60 -73.20 108 -35.20 22.80 23.60 30 69.20 17.60 110.40 -12.40 41.60 -53.20 60.80 -90 42.40z"/>
  <path d="M876 5696.80 c-28.40 -14 -42 -48.40 -39.20 -98.80 2.80 -53.20 24 -81.20 63.60 -85.20 25.60 -2.40 36.80 0.80 53.20 15.60 19.60 17.20 28.40 42.40 28 82 -0.40 59.20 -26.80 93.60 -72 93.60 -10.80 0 -26 -3.20 -33.60 -7.20z"/>
  <path d="M1232.40 5697.60 c-30 -15.60 -46 -65.20 -37.60 -115.60 8.40 -49.60 34 -72.40 77.20 -69.20 28 2 44 12.80 56.80 38.40 7.60 15.60 9.20 25.20 9.20 56.80 0 31.60 -1.60 41.20 -9.20 56.80 -13.20 26.40 -28.80 36.80 -58.80 38 -16.80 1.20 -28 -0.40 -37.60 -5.20z"/>
  <path d="M2721.20 5698 c-31.20 -13.60 -48.40 -70 -36 -120.40 8 -32.40 21.60 -51.20 41.20 -57.60 18.40 -6 43.60 -2.80 57.20 7.20 35.60 26 46.40 93.20 22.80 140.80 -14.80 30.40 -53.60 44 -85.20 30z"/>
  <path d="M3618.40 5565.20 c4 -16.80 11.60 -30 23.20 -40.80 14.80 -14 50.80 -16.40 69.60 -4.80 15.60 10 28.80 30.40 28.80 45.60 l0 10.80 -62 0 -62 0 2.40 -10.80z"/>
  <path d="M3954 5702 c-14.40 -14 -14 -40.80 0.40 -55.20 8.80 -9.20 51.20 -22.80 70.40 -22.80 2.80 0 10 -2.80 16.40 -5.60 l10.80 -6 0 24.80 c-0.40 35.20 -10 55.20 -32.80 66.40 -25.20 12 -52.40 11.60 -65.20 -1.60z"/>
  <path d="M5540.80 5696 c-27.20 -16.80 -35.60 -47.20 -21.20 -75.20 7.20 -13.20 29.60 -34.80 39.60 -37.60 3.60 -1.20 76.80 86.80 76.80 92.40 0 3.60 -24 19.20 -37.20 24 -18 6.80 -43.60 5.20 -58 -3.60z"/>
  <path d="M5573.20 5474.40 c-16.80 -21.60 -20.40 -38.80 -11.60 -52.40 12.80 -19.60 38 -22.40 54.40 -6 13.60 13.60 9.60 38 -9.60 59.20 -15.60 17.60 -19.20 17.20 -33.20 -0.80z"/>
  <path d="M1900 5634 l0 -54 66.40 0 c73.60 0 89.20 3.60 99.60 24.40 13.60 26 2.80 64.40 -22 76.40 -11.60 6 -25.20 7.20 -78.80 7.20 l-65.20 0 0 -54z"/>
  <path d="M1900 5462 l0 -46 57.20 0 c83.20 0.40 100.40 6.40 105.60 37.20 3.20 22 -5.20 38.40 -24.40 47.20 -13.60 6 -26.80 7.60 -77.20 7.60 l-61.20 0 0 -46z"/>
  <path d="M6146.80 5525.20 c14 -43.20 26 -79.60 26.80 -80.40 1.60 -1.20 42.80 124.80 48.40 148.40 l2.80 10.80 -52 0 -52 0 26 -78.80z"/>
 </g>
</svg>