<svg height="62.298" viewBox="0 0 199.582 62.298" width="199.582" xmlns="http://www.w3.org/2000/svg"><g fill="#0a0b09"><path d="m82.57 58.107c.375.853 1.23 1.262 2.225 1.262 1.908 0 4.168-1.299 5.113-3.803.94-2.484-.3-3.356-1.636-4.209-.704-.482-1.737-.871-1.209-2.262.376-1.002 1.349-1.521 2.109-1.521 1.351 0 1.766 1.243 1.506 2.67h.668l1.166-3.337h-.666l-.477.722c-.36-.685-1.144-.908-1.984-.908-1.799 0-3.721 1.224-4.582 3.505-.77 2.039.011 2.967 1.135 3.69.876.556 2.191 1.02 1.539 2.745-.434 1.149-1.569 1.854-2.469 1.854-1.723 0-1.848-1.558-1.646-3.246h-.621l-1.456 3.857h.682z"/><path d="m93.736 47.555c1.506 0 1.145.835.563 2.374l-1.682 4.45c-1.457 3.857-.1 4.99 2.616 4.99 2.841 0 4.929-1.67 6.199-5.027l1.308-3.467c.276-.723.659-1.911 1.185-2.559.436-.537.966-.668 1.467-.761l.253-.667c-.629.019-1.28.056-1.905.074-.584-.018-1.161-.055-1.742-.074l-.253.667c.444.056.841.241.907.761.078.574-.435 1.891-.687 2.559l-1.457 3.857c-.848 2.244-2.32 3.43-4.26 3.43-2.221 0-2.152-1.409-1.264-3.764l1.69-4.469c.574-1.521.901-2.429 2.387-2.374l.252-.667c-.969.019-1.947.056-2.915.074-.8-.018-1.609-.055-2.408-.074z"/><path d="m107.65 52.693 1.528-4.043c.35-.928.313-.871 1.136-.908 1.302 0 1.573.926.999 2.447-.758 2.002-1.8 2.504-3.337 2.504zm-3.683 3.467c-.576 1.521-.873 2.392-2.342 2.337l-.252.667c.906-.019 1.742-.056 2.588-.075.938.019 1.872.056 2.812.075l.252-.667c-1.603.055-1.308-.687-.685-2.337l.988-2.615h1.397c1.722 0 4.183-.76 5.142-3.301 1.043-2.763-1.011-3.319-2.844-3.356-.814.019-1.65.056-2.465.074-.824-.037-1.648-.074-2.548-.074l-.252.667c1.512-.055 1.137.853.562 2.374z"/><path d="m117.27 52.693 1.526-4.043c.351-.928.315-.871 1.136-.908 1.302 0 1.574.926 1 2.447-.758 2.002-1.801 2.504-3.336 2.504zm-3.686 3.467c-.574 1.521-.873 2.392-2.342 2.337l-.252.667c.907-.019 1.744-.056 2.589-.075.941.019 1.872.056 2.812.075l.252-.667c-1.604.055-1.307-.687-.684-2.337l.987-2.615h1.398c1.722 0 4.181-.76 5.14-3.301 1.045-2.763-1.009-3.319-2.842-3.356-.814.019-1.651.056-2.464.074-.826-.037-1.65-.074-2.549-.074l-.252.667c1.511-.055 1.136.853.562 2.374z"/><path d="m120.688 59.164c.89-.019 1.773-.056 2.664-.075.925.019 3.735.056 6.537.075l1.447-3.541h-.666c-1.229 2.095-2.213 2.687-3.967 2.687-1.892 0-1.428-1.148-.72-3.021l2.04-5.397c.575-1.521.887-2.392 2.358-2.337l.252-.667c-.954.019-1.932.056-2.885.074-.815-.018-1.607-.055-2.424-.074l-.253.667c1.511-.055 1.152.816.577 2.337l-2.369 6.268c-.574 1.521-.871 2.392-2.34 2.337z"/><path d="m132.914 56.16c-.574 1.521-.857 2.392-2.343 2.337l-.251.667c.86-.019 1.729-.056 2.59-.075.908.019 1.809.056 2.701.075l.254-.667c-1.49.037-1.177-.742-.603-2.263l2.381-6.305c.574-1.521.857-2.392 2.355-2.374l.252-.667c-.906.019-1.851.056-2.774.074-.847-.018-1.672-.055-2.519-.074l-.25.667c1.518-.037 1.143.835.563 2.374z"/><path d="m136.216 59.164c.891-.019 1.774-.056 2.665-.075 2.135.019 4.262.056 6.396.075.176-.5.327-.983.498-1.483.283-.705.575-1.39.856-2.097h-.621c-1.18 2.097-2.1 2.726-3.854 2.726-1.832 0-1.365-1.111-.707-2.855l.821-2.168c1.427 0 1.718.296 1.368 2.002h.621c.272-.76.536-1.539.807-2.3.338-.853.692-1.706 1.03-2.559h-.621c-.713 1.724-1.625 2.003-2.883 2.003l1.296-3.432c.055-.147.364-.963.445-1.056.171-.203 1.165-.203 1.35-.203 1.491 0 2.158.574 1.727 2.41h.668l1.11-3.264c-1.901.019-3.823.056-5.725.074-.877-.018-1.732-.055-2.609-.074l-.253.667c1.51-.055 1.151.816.577 2.337l-2.369 6.268c-.575 1.521-.873 2.392-2.342 2.337z"/><path d="m147.412 58.107c.376.853 1.231 1.262 2.225 1.262 1.908 0 4.167-1.299 5.113-3.803.939-2.484-.299-3.356-1.637-4.209-.703-.482-1.734-.871-1.211-2.262.381-1.002 1.352-1.521 2.114-1.521 1.349 0 1.763 1.243 1.504 2.67h.666l1.17-3.337h-.668l-.475.722c-.362-.685-1.147-.908-1.984-.908-1.801 0-3.721 1.224-4.584 3.505-.772 2.039.011 2.967 1.136 3.69.875.556 2.19 1.02 1.539 2.745-.436 1.149-1.57 1.854-2.469 1.854-1.724 0-1.849-1.558-1.646-3.246h-.621l-1.457 3.857h.684z"/><path d="m153.738 62.298c1.573-.668 3.248-1.984 3.936-3.801.405-1.077.413-2.245-.627-2.245-.775 0-1.481.594-1.824 1.503-.287.76-.073 1.501.581 1.501.278 0 .542-.204.838-.37-.637 1.521-1.683 2.114-2.941 2.893z"/><path d="m165.172 56.16c-.574 1.521-.856 2.392-2.34 2.337l-.253.667c.86-.019 1.728-.056 2.589-.075.908.019 1.809.056 2.702.075l.253-.667c-1.488.037-1.178-.742-.603-2.263l2.382-6.305c.574-1.521.857-2.392 2.356-2.374l.252-.667c-.906.019-1.854.056-2.776.074-.846-.018-1.67-.055-2.517-.074l-.252.667c1.519-.037 1.143.835.562 2.374z"/><path d="m177.656 59.423h.761l3.37-8.919c.233-.612.659-1.743 1.094-2.281.407-.501.932-.575 1.402-.668l.252-.667c-.629.019-1.263.056-1.89.074-.584-.018-1.161-.055-1.743-.074l-.252.667c1.446.074.936 1.429.403 2.837l-1.864 4.934-2.943-8.438c-.596.019-1.183.056-1.781.074-.489-.018-.957-.055-1.445-.074l-.253.667c.819.093.895.427 1.077 1.262l-2.819 7.454c-.497 1.316-.877 2.076-2.221 2.226l-.251.667c.596-.019 1.201-.056 1.797-.075.613.019 1.236.056 1.849.075l.252-.667c-1.461-.075-.914-1.521-.383-2.931l2.164-5.73z"/><path d="m189.998 59.071h.621l1.574-4.172h-.619c-1.016 1.947-2.578 3.579-4.349 3.542-2.453-.037-2.125-2.838-1.166-5.378.89-2.355 2.745-5.415 5.15-5.415 1.598 0 2.116 1.299 1.77 3.078h.683l1.332-3.893h-.669l-.632 1.057c-.568-.835-1.373-1.169-2.492-1.169-3.164 0-6.467 2.744-7.902 6.546-1.41 3.727-.15 6.102 2.924 6.102 1.209 0 2.607-.371 3.885-1.373z"/><path d="m193.322 59.256c.715 0 1.524-.704 1.84-1.538.315-.835-.021-1.466-.705-1.466-.698 0-1.502.65-1.816 1.484-.316.835-.016 1.52.681 1.52"/><path d="m176.836 20.952c0 .74-.592 1.333-1.332 1.481-1.187-.296-2.075-1.777-3.703-1.037-1.926.741-3.703 2.37-3.703 4.74.888.741 2.222 0 2.814 1.037s-.592 1.629-1.185 2.222c-1.778.592-2.222-1.185-3.703-1.037-2.519 1.629-4.741 4.147-4.295 7.406.443 1.926 1.796 2.97 3.703 3.703 4.636 1.786 8.885.445 11.997-2.518 1.481-1.778 3.999-4.148 2.815-6.814-1.186-1.333-3.26-.888-4.74-.74-.889.444-2.075 1.185-2.37 2.222.593.888 4.147-.445 2.665 2.073-.74.741-2.221 1.481-3.404.741-.594-.445-.594-1.48-.297-2.222 1.48-2.37 3.701-4.592 6.812-4.888 3.852 0 8.889 1.333 11.11-2.518.296-.593.888-1.629.296-2.37-1.334-1.333-5.183 3.703-4.443-.296 1.185-.889 2.518-1.778 4.147-1.333.74.444 1.48 1.185 1.332 2.073-.295 2.667-2.516 4.889-4.59 6.074-1.629.592-3.408.888-5.186 1.036.297 6.073-5.332 9.776-10.219 11.85-3.112.593-7.704 1.185-10.369-.888-1.185-1.037-2.074-2.666-1.631-4.445.594-3.85 3.259-6.813 6.518-8.738 1.63-.593.741-2.666 1.926-3.703 1.631-2.074 4.297-4 7.109-4.296.742.149 1.778.296 1.926 1.185"/><path d="m82.416 36.162c.376.853 1.231 1.261 2.225 1.261 1.908 0 4.167-1.298 5.113-3.8.939-2.486-.299-3.357-1.637-4.21-.703-.482-1.734-.872-1.209-2.263.379-1.001 1.35-1.52 2.112-1.52 1.349 0 1.763 1.242 1.503 2.67h.668l1.167-3.338h-.667l-.474.724c-.361-.686-1.147-.909-1.985-.909-1.8 0-3.72 1.223-4.583 3.504-.772 2.04.011 2.968 1.136 3.691.875.557 2.19 1.02 1.539 2.744-.435 1.15-1.57 1.855-2.468 1.855-1.725 0-1.85-1.558-1.647-3.245h-.621l-1.457 3.856h.683z"/><path d="m96.924 32.213 4.626-5.304c.585-.686 1.069-1.223 1.794-1.298l.254-.668c-.612.019-1.247.057-1.861.075-.52-.018-1.018-.056-1.538-.075l-.254.668c.545 0 1.086.13.784.928-.182.482-.893 1.335-1.263 1.779l-2.618 2.986-.283-3.356c-.03-.334-.118-1.169.023-1.539.268-.705 1.031-.761 1.465-.798l.252-.668c-.892.019-1.789.057-2.682.075-.767-.018-1.545-.056-2.315-.075l-.251.668c.721.222.721.427.826 1.261l.527 5.711-.618 1.632c-.632 1.595-.856 2.356-2.386 2.337l-.253.667c.829-.018 1.681-.055 2.511-.074.971.019 1.919.056 2.89.074l.253-.667c-1.575.056-1.242-.742-.64-2.337z"/><path d="m100.41 36.162c.375.853 1.231 1.261 2.224 1.261 1.908 0 4.169-1.298 5.114-3.8.94-2.486-.301-3.357-1.637-4.21-.703-.482-1.736-.872-1.209-2.263.377-1.001 1.35-1.52 2.11-1.52 1.35 0 1.765 1.242 1.506 2.67h.668l1.166-3.338h-.666l-.477.724c-.359-.686-1.145-.909-1.984-.909-1.8 0-3.721 1.223-4.582 3.504-.77 2.04.01 2.968 1.134 3.691.876.557 2.192 1.02 1.539 2.744-.433 1.15-1.57 1.855-2.468 1.855-1.723 0-1.848-1.558-1.647-3.245h-.619l-1.459 3.856h.685z"/><path d="m121.777 24.943h-9.994l-1.425 3.524h.667c.858-1.613 1.86-2.744 3.326-2.596.942.092.923.018.419 1.354l-2.643 6.99c-.621 1.651-.887 2.393-2.449 2.337l-.252.667c.924-.018 1.851-.055 2.774-.074.908.019 1.812.056 2.72.074l.252-.667c-1.604.056-1.293-.686-.67-2.337l2.643-6.99c.521-1.465.433-1.354 1.442-1.354 1.351 0 1.72 1.038 1.286 2.596h.666z"/><path d="m117.754 37.219c.893-.018 1.774-.055 2.666-.074 2.135.019 4.263.056 6.398.074.173-.501.324-.983.498-1.483.282-.705.572-1.391.854-2.096h-.621c-1.18 2.096-2.102 2.727-3.856 2.727-1.831 0-1.363-1.114-.705-2.857l.821-2.169c1.427 0 1.718.297 1.37 2.003h.62c.271-.761.534-1.54.807-2.3.337-.853.69-1.705 1.028-2.558h-.621c-.714 1.724-1.625 2.002-2.882 2.002l1.295-3.43c.057-.149.365-.965.447-1.058.169-.203 1.164-.203 1.35-.203 1.49 0 2.158.575 1.726 2.41h.667l1.111-3.264c-1.902.019-3.825.057-5.725.075-.877-.018-1.732-.056-2.61-.075l-.251.668c1.509-.056 1.15.816.575 2.337l-2.368 6.267c-.575 1.521-.872 2.393-2.34 2.337z"/><path d="m132.881 37.219h.746l6.592-9.271h.031l-2.215 5.86c-.176.463-.474 1.26-.781 1.779-.45.78-1.066.854-1.699.965l-.252.667c.86-.018 1.697-.055 2.511-.074.923.019 1.827.056 2.75.074l.252-.667c-.546-.111-1.109-.185-.97-.965.088-.519.388-1.316.564-1.779l2.198-5.823c.592-1.521.873-2.43 2.357-2.374l.252-.668c-.721.019-1.356.057-1.983.075-.584-.018-1.16-.056-1.742-.075l-6.064 8.66.228-8.66c-.656.019-1.306.057-1.967.075-.551-.018-1.111-.056-1.664-.075l-.252.668c.54.056 1.102.167 1.137.816l-2.791 7.381c-.174.463-.474 1.26-.779 1.779-.451.78-1.068.854-1.699.965l-.253.667c.596-.018 1.186-.055 1.782-.074.645.019 1.268.056 1.912.074l.251-.667c-.444-.055-.923-.185-.96-.742-.037-.519.41-1.706.635-2.3l2.152-5.692h.031z"/><path d="m142.606 36.162c.376.853 1.23 1.261 2.224 1.261 1.908 0 4.168-1.298 5.113-3.8.94-2.486-.298-3.357-1.636-4.21-.703-.482-1.736-.872-1.209-2.263.378-1.001 1.349-1.52 2.11-1.52 1.35 0 1.765 1.242 1.505 2.67h.667l1.169-3.338h-.668l-.475.724c-.361-.686-1.147-.909-1.984-.909-1.801 0-3.722 1.223-4.584 3.504-.772 2.04.013 2.968 1.137 3.691.876.557 2.189 1.02 1.538 2.744-.435 1.15-1.57 1.855-2.468 1.855-1.725 0-1.85-1.558-1.646-3.245h-.622l-1.457 3.856h.684z"/><path d="m88.914 15.127h.621l1.576-4.172h-.621c-1.013 1.946-2.577 3.579-4.347 3.542-2.454-.038-2.126-2.838-1.166-5.378.889-2.355 2.744-5.415 5.15-5.415 1.599 0 2.115 1.298 1.77 3.078h.683l1.332-3.894h-.668l-.633 1.057c-.568-.835-1.373-1.168-2.491-1.168-3.167 0-6.468 2.744-7.905 6.546-1.408 3.727-.147 6.101 2.926 6.101 1.211 0 2.607-.371 3.886-1.372z"/><path d="m100.938 3.63c2.578 0 1.95 3.097 1.011 5.581-.967 2.56-2.599 5.359-5.144 5.359-2.498 0-1.83-3.207-.934-5.581.897-2.374 2.584-5.359 5.067-5.359m-4.456 11.794c3.135 0 6.702-2.374 8.194-6.324s-.235-6.323-3.369-6.323c-3.119 0-6.662 2.355-8.162 6.323-1.479 3.913.217 6.324 3.337 6.324"/><path d="m113.971 3.63c2.576 0 1.949 3.097 1.011 5.581-.966 2.56-2.599 5.359-5.146 5.359-2.498 0-1.828-3.207-.932-5.581.897-2.374 2.584-5.359 5.067-5.359m-4.455 11.794c3.133 0 6.7-2.374 8.192-6.324s-.233-6.323-3.368-6.323c-3.119 0-6.662 2.355-8.162 6.323-1.479 3.913.219 6.324 3.338 6.324"/><path d="m125.402 9.1c1.365-.241 2.92-1.28 3.544-2.93.492-1.298.341-2.299-.485-2.781-.551-.352-1.662-.408-2.393-.446-.843.019-1.698.057-2.543.075-.877-.018-1.732-.056-2.609-.075l-.253.668c1.511-.056 1.151.816.575 2.337l-2.365 6.268c-.577 1.52-.873 2.391-2.344 2.336l-.252.667c.893-.018 1.776-.055 2.666-.073.877.018 1.765.055 2.643.073l.252-.667c-1.51.055-1.167-.816-.593-2.336l.926-2.448c.077 0 .179-.018.255-.018.449-.038.765.889.955 1.742l.797 3.727c.517-.018 1.045-.055 1.564-.073.504.018 1.003.055 1.508.073l.252-.667c-.394-.111-.576-.241-.748-.649-.19-.482-.3-1.094-.424-1.632zm-2.902-.204 1.199-3.171c.097-.259.574-1.52.698-1.725.13-.222.65-.204.822-.204 1.459 0 1.713.891 1.074 2.579-.693 1.835-1.714 2.521-3.203 2.521z"/><path d="m127.277 15.219c.846-.018 1.714-.055 2.559-.073.814.018 1.625.055 2.438.073 1.431.038 3.041-.24 4.591-1.427 1.514-1.168 2.545-2.708 3.188-4.414.722-1.91.834-3.597.09-4.877-.725-1.205-2.002-1.558-3.524-1.558h-4.703l-.252.668c1.512-.056 1.151.816.576 2.337l-2.367 6.268c-.574 1.52-.873 2.391-2.344 2.336zm7.918-10.811c.042-.111.141-.37.231-.445.158-.13.56-.167.685-.167 1.118 0 2.053.353 2.135 1.614.063 1.112-.365 2.614-.836 3.857-.847 2.244-2.158 5.1-4.564 5.1-.559 0-.957-.26-.913-.909.026-.482.516-1.78.727-2.337z"/><path d="m141.354 12.216c-.575 1.52-.856 2.391-2.341 2.336l-.251.667c.859-.018 1.726-.055 2.588-.073.908.018 1.81.055 2.703.073l.251-.667c-1.488.037-1.177-.742-.604-2.262l2.382-6.305c.574-1.521.857-2.392 2.357-2.374l.252-.668c-.908.019-1.853.057-2.775.075-.848-.018-1.671-.056-2.517-.075l-.252.668c1.519-.037 1.144.834.561 2.374z"/><path d="m153.838 15.479h.76l3.371-8.919c.231-.612.658-1.743 1.094-2.281.408-.501.931-.575 1.4-.668l.253-.668c-.626.019-1.263.057-1.891.075-.583-.018-1.157-.056-1.741-.075l-.252.668c1.445.075.935 1.428.402 2.838l-1.864 4.932-2.942-8.438c-.596.019-1.184.057-1.781.075-.491-.018-.958-.056-1.447-.075l-.253.668c.82.093.897.427 1.077 1.261l-2.817 7.455c-.498 1.316-.879 2.077-2.223 2.225l-.252.667c.598-.018 1.202-.055 1.797-.073.616.018 1.238.055 1.852.073l.252-.667c-1.462-.074-.916-1.521-.383-2.93l2.164-5.73z"/><path d="m160.954 10.509 3.071-4.265-.246 4.265zm-.643.928h3.427l-.072 1.057c-.013.278-.055.927-.166 1.224-.303.797-1.111.76-1.605.834l-.252.667c.814-.018 1.65-.055 2.464-.073.924.018 1.84.055 2.766.073l.252-.667c-.352-.055-.721-.148-.888-.445-.171-.371-.13-1.298-.11-1.799l.402-9.531h-.744l-6.408 8.827c-.838 1.149-1.96 2.93-3.24 2.948l-.253.667c.598-.018 1.202-.055 1.798-.073.646.018 1.283.055 1.926.073l.253-.667c-.552-.055-1.246-.111-.902-1.02.189-.501.647-1.094.961-1.557z"/><path d="m180.615 2.943h-9.996l-1.424 3.524h.667c.861-1.613 1.861-2.744 3.326-2.596.942.092.923.018.419 1.354l-2.641 6.991c-.622 1.65-.888 2.391-2.45 2.336l-.252.667c.922-.018 1.851-.055 2.775-.073.908.018 1.811.055 2.719.073l.252-.667c-1.604.055-1.293-.686-.669-2.336l2.641-6.991c.522-1.465.434-1.354 1.443-1.354 1.349 0 1.718 1.038 1.284 2.596h.668z"/><path d="m176.592 15.219c.891-.018 1.775-.055 2.667-.073 2.136.018 4.263.055 6.397.073.172-.5.325-.982.497-1.483.283-.705.574-1.391.855-2.095h-.621c-1.18 2.095-2.102 2.726-3.854 2.726-1.832 0-1.366-1.113-.705-2.856l.819-2.17c1.427 0 1.718.297 1.369 2.003h.621c.271-.761.534-1.539.806-2.3.338-.852.691-1.705 1.03-2.559h-.621c-.714 1.725-1.627 2.003-2.883 2.003l1.297-3.43c.054-.149.363-.965.445-1.058.17-.204 1.162-.204 1.35-.204 1.489 0 2.156.576 1.727 2.411h.667l1.109-3.264c-1.901.019-3.824.057-5.723.075-.878-.018-1.734-.056-2.611-.075l-.253.668c1.511-.056 1.152.816.578 2.337l-2.369 6.268c-.575 1.52-.873 2.391-2.342 2.336z"/><path d="m186.209 15.219c.846-.018 1.715-.055 2.559-.073.816.018 1.624.055 2.44.073 1.429.038 3.038-.24 4.591-1.427 1.512-1.168 2.542-2.708 3.187-4.414.722-1.91.831-3.597.088-4.877-.724-1.205-2.003-1.558-3.524-1.558h-4.7l-.254.668c1.511-.056 1.15.816.576 2.337l-2.368 6.268c-.574 1.52-.872 2.391-2.342 2.336zm7.918-10.811c.044-.111.141-.37.23-.445.159-.13.561-.167.685-.167 1.118 0 2.056.353 2.138 1.614.06 1.112-.367 2.614-.838 3.857-.847 2.244-2.159 5.1-4.565 5.1-.558 0-.957-.26-.912-.909.026-.482.516-1.78.727-2.337z"/><path d="m64.35.097c.288.287.191.767.095 1.054l-26.275.192c-1.248.384-2.495.959-3.55 2.206l-23.495 39.992c-.385 1.15-.193 2.685.671 3.452.479.479 1.342 1.342 1.726.383 7.576-13.234 14.96-25.797 22.826-39.128 2.396-2.493 5.272-4.507 9.013-4.603h24.838c.384.192.288.671.193.959-6.042.288-12.372-.096-18.413.192-3.836.671-4.604 4.603-6.618 7.288l-16.304 27.812c-1.342 2.686-3.26 5.274-4.602 8.056 1.438.288 3.069.095 4.412 0l21.194-36.155c1.918-2.494 4.988-3.932 8.151-4.508 5.851-.096 11.892-.096 17.837 0 .192.192.192.576.098.863-4.7.672-10.645-1.438-14.002 2.11l-2.877 4.699-16.879 29.155c-.865 1.342-1.533 2.59-2.014 3.931l4.004-.168c.287.193.215 1.032.119 1.224l-5.082.287c-2.685 5.371-6.521 10.934-13.043 11.509h-18.221c-.289-.096-.384-.575-.289-.864 3.741-.192 7.77 0 11.508-.192 4.892-1.15 5.85-6.808 8.537-10.357l-.097-.192c-1.342-.191-2.971-.288-4.316.096-2.013 3.836-6.041 6.713-10.453 7.001l-13.042-.096v-.863c3.645-.288 8.248.767 10.262-2.493l2.013-3.453c-.671-.767-1.918-.383-2.685-.862-3.645-1.536-6.137-4.508-6.137-8.728-.097-1.822.479-3.355 1.246-4.795l17.742-29.826c2.493-3.261 6.426-5.178 10.741-5.275z"/></g></svg>