<svg height="686" preserveAspectRatio="xMidYMid meet" viewBox="0 0 1499 686" width="1499" xmlns="http://www.w3.org/2000/svg"><g fill="#fefefe"><path d="m0 492c0-188.3.1-194 1.9-194 1.5 0 1.9 1.1 2.5 7.3 1.2 13.2 5.4 29.6 10.1 39.2 8.5 17.5 20.1 27.7 36.2 31.9 10.8 2.8 23.4 1.4 42.3-4.6 12-3.8 15.9-5.8 33.1-16.9 10.7-6.8 14.8-8.9 17.5-8.9 3.4 0 3.4 0 3.4 4.5 0 2.4-.7 9.2-1.6 15.1-1.3 8.6-1.3 10.8-.3 11.5 1 .6 1.1 2.5.3 8.8-.8 7.1-.7 7.8.6 6.7.8-.7 7.6-6.1 15-12.1s18.1-14.8 23.6-19.7c11.9-10.2 41.4-37.7 41.4-38.5 0-.2 2.2-16.8 5-36.6 2.7-19.9 6.1-45.2 7.5-56.2 1.5-11 2.7-20 2.8-20.1s3.5-1.8 7.6-3.9c9.8-4.9 23.8-18.5 35.4-34.3 4.8-6.6 8.7-12.2 8.7-12.4 0-.3-2.2-.3-5 0l-5 .5v-3.5c0-2.6 1.4-5.4 5.5-11.2 3-4.2 5.2-7.6 4.8-7.6-1.1 0-31.3 9-54.3 16.2-35.6 11.1-62.8 21.3-103.9 39.1l-14.4 6.2-14.6 18.8c-17.3 22.3-17.1 22-13.6 20.7 1.5-.6 4.2-1 6.1-1 3.2 0 3.4.2 3.4 3.2 0 2.4-1.5 5.2-6 11-3.3 4.2-6 7.9-6 8.2 0 .2 8.7-2.4 19.3-6 27.5-9.2 41.9-13.4 46.1-13.4 3.6 0 3.6 0 3.6 4.3 0 3-2.6 35.9-3 37.4-.1.6-15.7 6.4-20.5 7.6-13.2 3.3-27.9 3-35.8-.8-8.1-3.8-17.7-15-17.7-20.7 0-1.7-.5-2.8-1.4-2.8-4.1 0-9.4-29.9-8.2-47 1.5-21.1 7.2-48.8 13.7-65.5 10.5-27.3 29.6-51.3 48-60.4 9.8-4.8 17.1-6.4 25.4-5.5 16.4 1.7 24.2 15.2 26.1 45.5.4 5.4 1 9.9 1.3 9.9s4.7.7 9.6 1.4c5 .8 9 1.3 9.1 1.2 8-11.8 25.4-36.7 32.8-47.1l9.9-14-1.2-5.6c-1.4-7.1-1.4-11.4.1-13.8.9-1.5.9-3.2-.1-7.8-4.1-18.3-16.1-29.8-35.3-33.7-10.2-2.1-16.5-2-28.9.5-40.2 7.9-90.7 35.7-114.7 62.9-34.9 39.7-54 81.6-62.2 136.2-1.1 7.3-2 15.9-2 19.1 0 5-.2 5.7-2 5.7-2 0-2-.7-2-123.5v-123.5h749.5 749.5v343 343h-749.5-749.5zm105 185.1c10.7-3.6 25.1-11.5 35.5-19.3 6.6-5 7.1-5.7 8.6-11.3 1.5-5.8 1.7-6 5.1-6.3s3.5-.3 4.7 5.3c4.4 19.7 20.3 34.5 37 34.5 20.4 0 51.7-21.3 62-42.1 5.7-11.7 7.9-21.3 9.2-40.8.6-9.1 1.4-16.9 1.7-17.2 1.5-1.3 15.9-5.9 18.5-5.9h2.7v10.8c-.1 5.9-.7 21.7-1.6 35.2-.8 13.5-1.7 31.5-2 40l-.6 15.5 4 2.7 3.9 2.7 18.3-6.5c10.1-3.5 18.5-6.5 18.6-6.7.1-.1 1.1-18.8 2.1-41.6 2.1-46 1.7-44.1 9.1-44.1h3.5l-.9 18.8c-.5 10.3-.9 26.8-.9 36.7 0 15.1.3 18.9 1.9 23.5 3.7 10.6 7.8 15.1 16.1 17.6 3.9 1.1 4.1 1.1 10.5-3.4 9-6.3 20.8-15.2 31.6-23.9 7.3-5.8 9.9-7.3 12.6-7.3 3.1 0 3.4.3 5.2 5.3 2.9 8.4 9.2 18.2 14.8 23.1 16.3 14.3 34.6 10.6 56.8-11.4 7.7-7.6 10.4-11 13.3-17 5-10.2 6.7-17.7 6.7-29 0-11.2-1.9-19.5-6-26.2-3.6-5.8-3.7-9.2-.8-17.5 2.1-6 2.3-6.3 5.4-6.3 2.8 0 3.4.5 4.4 3.4 1 3 1.5 3.4 5.7 4 2.5.3 7.7.6 11.4.6h6.9l-.7 10.3c-.5 5.6-.8 20.1-.8 32.2.1 19.3.4 23 2.3 30.2 3 11.7 7.9 23.3 11 26.6 3.3 3.5 9.3 6.7 12.4 6.7 4.6 0 33.9-20 46.5-31.7l5.2-4.8.9-16.1c.6-8.9.8-17.3.5-18.7-.5-2.5-.6-2.5-11 4.4-8.9 5.9-11.1 6.9-14.8 6.9-4.1 0-4.4-.2-5.7-3.7-1.4-4-1.7-34.5-.4-39.6.5-2.3 1.3-2.7 6.5-3.3 5-.5 6.5-1.2 9.2-4 2.4-2.5 4.2-3.4 6.5-3.4 3.7 0 4.4 1.2 4.4 7.7 0 3.7.3 4.4 1.6 3.9.9-.3 5.3-.9 10-1.2l8.4-.7-.6 11.4c-1.2 25.5-3.6 63.1-4.8 73.4-.6 6.1-1 13.4-.8 16.3.4 4.9.6 5.2 3 5.2 8.8 0 26.5-6.4 37.4-13.3l5.6-3.6.6-7.3c.3-4 1-17 1.6-28.8 1.7-33.8 2.9-52.1 3.5-53.1.4-.5 2.4-.9 4.5-.9 3.5 0 4.4.7 11.4 8.2 4.2 4.5 7.8 7.9 8 7.7.2-.3 2.8-8.6 8.2-27.1.4-1.3 1.6-1.8 4-1.8 3 0 3.4.3 3.4 2.8 0 1.9 1 3.5 3.7 5.6 3.1 2.6 4.4 2.9 9.1 2.7l5.4-.3-.5 10.4c-.2 5.7-1 19.5-1.8 30.7-1 16.2-1 22.4 0 30.2 1.4 11.5 4.5 23.1 7.3 27.7 2.2 3.5 9.3 8.2 12.5 8.2 2.4 0 15-8 24.3-15.6 8.6-6.9 12.4-7.4 13.5-1.6 1.3 7.4 4.1 12 9.1 15.2 2.6 1.6 5.6 3 6.7 3 2.6 0 18.5-9.5 27.7-16.5 4.1-3.1 11.4-9.6 16.3-14.3l8.7-8.7v-6.7-6.8h3.5c3.2 0 3.5.3 3.5 2.9 0 5.7 2.9 18.1 6.1 25.8 4.3 10.3 13.6 20.1 21.8 22.8 11.7 3.8 21.1 1.4 37.5-9.5 9-6.1 26.5-20.7 32.3-27.1 1.9-2.2 2.2-4.2 3.3-21.7.6-10.7 1-19.5.8-19.7s-4.5 2.9-9.6 6.9c-17.3 13.8-27 18.9-35.4 18.4-4.7-.3-5.5-.7-7.5-3.7-4.7-7-6.9-21.4-5.8-38.4l.7-11.8 3.7.3 3.6.3 1 12.2 1 12.2 10.5-8.5c5.8-4.7 13.7-11.6 17.5-15.5 6.1-6 7.5-6.9 10.7-6.9s3.7.4 4.3 2.9c.6 2.7.9 2.9 7.3 3.5 3.7.3 8.9.6 11.5.6h4.8l-.7 14.3c-2.2 39.2-1 52.6 6.3 72.7 3.9 10.7 8.2 15.8 15.6 18.3l4.2 1.4 8.5-5.2c13.5-8.2 27.8-18.7 38.3-28.1l3.7-3.4 1.2-18.5c.6-10.2.9-18.8.5-19.1-.3-.3-5.2 2.6-10.8 6.6-9.6 6.5-10.7 7.1-14.9 6.8-4.3-.3-4.6-.5-5.9-4.3-1.7-4.5-2-21.5-.7-33.7l.8-7.8h5.7c5.7 0 5.7 0 10.5-5.5 4-4.7 5.2-5.5 8.2-5.5h3.4v8 7.9l6.6-2.9c3.6-1.7 8-3 9.6-3h3.1l-.6 13.8c-.4 7.5-1.2 22.3-1.8 32.7-2.4 40.2 1 54.9 13.9 60.7l4.4 2 8.1-4.8c15.6-8.9 40.3-26.6 44.7-31.9.7-.8 2.7-1.5 4.5-1.5 2.9 0 3.3.4 3.9 3.3 1.2 6.5 7.5 17.7 12.8 23 8.1 8.1 13.3 10.2 24.8 10.2 8.5 0 10.3-.4 17.1-3.3 10.2-4.4 21-11.6 30.3-20.3 15.7-14.7 22-31.4 23.5-62.3l.6-13.9 8.5-2.9c4.6-1.5 9.7-2.8 11.2-2.8 2.6 0 2.8.3 2.8 4.3 0 5.3-1.6 34.4-3.5 63.2-.9 12.1-1.5 24.5-1.5 27.7 0 5.3.2 5.8 3.9 8.7l3.8 3.1 18.4-6.4c13.2-4.6 18.5-6.9 19-8.2.4-1.1.8-5.5.8-9.9.1-4.4.8-22.4 1.7-40 1.7-35.4 1.5-34.4 8.7-34.5 3 0 3.7.4 3.7 1.9 0 1-.7 13.3-1.6 27.2-2.3 35.8-1.1 48.2 5.4 58.5 2.7 4.5 5.7 6.6 12.1 8.9 3.9 1.3 4 1.3 9.3-2.4 11-7.7 24.7-18.1 35.3-26.8l11-9-.1-6.9c-.1-8.5-5.1-29.7-6.8-28.7-.6.4-3.9 2.9-7.2 5.5-4.8 3.7-7 4.8-9.8 4.8h-3.6v-11.7c0-6.5.5-17.4 1-24.3s1.2-20.9 1.6-31.1l.7-18.6-4.3-4.7c-8.5-9.3-13.7-8.5-33 4.6-8.5 5.8-12.3 7.8-14.7 7.8-3.2 0-3.3-.1-3.3-4.1 0-3.6-.6-4.7-5.5-9.6-5-5-5.9-5.5-8.7-4.9-4.2.8-31.1 14.3-41.8 20.9l-8.5 5.3-.3 5.7-.3 5.7h-3.7c-3.7 0-3.7-.1-5.5-6.1-3.9-13.4-12.3-23.9-22.9-28.9-11.7-5.6-18.6-5-34.6 2.8-18.4 8.9-34.7 23.1-40.7 35.6-4.8 10-8.4 24.7-9.2 37.4l-.6 10.3-10.8 5.5c-7.8 3.8-12 5.4-14.9 5.4-4 0-4 0-4-3.7 0-2.1.7-11 1.5-19.8s1.8-26.8 2.2-40l.6-24.1-3.1-3.6c-4.3-4.8-4.1-7.8.9-15.5 3.8-5.7 4.2-7 4.3-13.1.1-6-.2-7.3-3.5-12.7-2-3.3-6.2-11-9.3-17.2s-6.1-11.5-6.5-11.7c-.9-.6-24 22.7-28.6 28.7-2.4 3.2-2.8 4.8-2.9 10-.1 5.5.4 7.1 4.2 14.2 2.4 4.4 4.8 8.4 5.3 9 .5.5.9 2.8.9 5.1 0 3.2-.4 4.4-1.7 4.8-1 .3-6.3 3.1-11.8 6.1-12 6.7-16.5 7.3-18.5 2.5l-1.2-3h-10.6-10.5l.7-8.7c.3-4.9 1.3-15.3 2.1-23.3 1.7-16.7 1.9-25 .6-25-.5 0-9.4 3.7-19.7 8.3-10.4 4.6-20.3 8.9-22 9.6-2.9 1.1-3.3 1.8-3.8 6.4-.9 7.4-2.6 27.7-2.6 30.8 0 2.5-.4 2.7-5.4 3.1-4.8.4-6.2 1.1-14.4 7.6-6.5 5.1-10 7.2-12 7.2-2.6 0-2.9-.5-4.9-7.2-2.8-9.5-7.3-16.1-13.9-20.5-9.1-6.1-16.9-5.4-31.4 2.5-9.4 5.1-16.5 10.5-25.1 19.1-6 6-8.1 8.9-9.8 13.6-3 7.8-5.8 21.1-6.6 30.5-1 12.2-.5 11.4-13 19.5-8.7 5.7-12.4 7.5-15 7.5-3.1 0-3.5-.3-4.1-3.6-.8-4.3.1-20 2.7-50.4 1.1-12.4 2.2-27.3 2.6-33.2l.6-10.8h-2.9c-10 0-24.8 4.2-36.6 10.2l-7.7 4-.5 5.1c-.3 2.9-1 14.7-1.6 26.2-1.5 29.6-3.1 48.8-4.3 50.3-1.3 1.7-7.6 1.6-8.3-.3-.7-1.7.9-23.2 3.7-49.5 1-10.2 1.9-21.9 1.9-26.1 0-6.8-.3-8-3-11.7-3.1-4.3-7.5-7.2-10.9-7.2-3.2 0-16.1 5.4-32.8 13.5-8.9 4.4-16.4 7.5-18.2 7.5-3.1 0-3.1 0-3.1-5.3 0-5.2 0-5.3-5.1-8.5-10.9-7.2-19.6-7.9-27.5-2.3-5.3 3.7-10.2 4.1-13 1-4.4-4.9-6.3-5.1-15-1.5-10.4 4.3-19 8.7-28.7 14.7-10 6.2-12.9 6.4-15.7.9l-2-4h-10-10v-3.8c0-2.1.7-11.9 1.6-21.7 1.5-17.6 2-30.3 1.1-31.1-.2-.2-10.5 4-22.8 9.3l-22.4 9.8-1.6 19c-.9 10.5-1.7 19.1-1.8 19.1-.1.1-2.4.4-5.1.6-4 .4-6.1 1.4-10.9 5.2-4.1 3.1-6.9 4.6-8.9 4.6-2.7 0-3.3-.6-6-6.5-6.5-13.8-18.7-22.3-30.4-21.2-11.7 1-21.6 8-33.1 23.2-11.8 15.7-15.2 26.5-14.3 45.5.4 6.9.9 15 1.2 18l.5 5.5-6.6 7.8c-5.7 6.6-7.1 7.7-9.9 7.7h-3.2l-2.3-9.7c-1.3-5.4-2.6-10.1-2.8-10.6-.2-.4-3.6 1.8-7.5 4.8-5.3 4.2-7.8 5.5-10.4 5.5-2.7 0-3.5-.5-4-2.5-.3-1.4.1-15.4 1-31.2.9-15.9 1.6-34.1 1.6-40.6 0-13.7-.9-15.8-8.6-20.3-6.9-4-12-2.3-30 10.2-7.2 5-10 6.4-12.8 6.4-3.6 0-3.6 0-3.6-4.4 0-3.9-.5-5-4.4-9-2.5-2.5-5.6-4.8-6.9-5.2-5-1.2-51.9 23.5-53.1 28-.3 1.2-.6 4.2-.6 6.9 0 4.7 0 4.7-3.3 4.7s-3.4-.2-4.6-5.5c-4-17.9-18.7-33-34.2-35.1-16.6-2.3-54.9 21.8-64.4 40.6-2.2 4.4-6.7 18.1-8 24.7-.3 1.7-1.2 9.2-1.8 16.5l-1.2 13.2-12 7.2c-6.6 3.9-16.1 8.7-21.1 10.7-8.3 3.4-10 3.7-18.5 3.7-11.2 0-15.6-1.7-21.3-8-7.4-8.2-11.3-20.4-13.7-42.1-2.1-19.4 1.7-44.2 9.2-59.7 3.4-7 4.8-8.8 8.7-11.3 5.8-3.7 13.5-4.1 17.6-.8 5.8 4.5 9.5 17.7 10 35.3l.2 10 8.7 2.7c4.8 1.5 8.7 2.4 8.7 2 0-1.2 12.5-21.4 17.3-28.1 4.5-6.1 4.7-6.7 4.7-13 0-13.3-5.1-26.3-13.9-35.1-13.3-13.3-35.2-17.2-58.6-10.4-12.9 3.7-22.8 10-33.6 21.3-7.7 8-9.7 10.9-14.4 20.5-6.4 13.2-8.6 19.6-11.6 33.7-2 9.1-2.3 13.5-2.3 33.5-.1 25.6.7 31.7 6 48.5 4 12.5 8.9 21.2 16.7 29.6 7.3 7.9 14.4 12.6 23.8 15.9 6.7 2.3 8.6 2.5 18.9 2.2 9.7-.3 13-.9 21-3.6zm1385.5-75.8c-4.7-6.2-4.7-10.1-.1-13.7 1.9-1.4 3.9-2.6 4.5-2.6s1.1-.7 1.1-1.5-.4-1.5-1-1.5c-.5 0-1-2.2-1-4.8 0-4-.5-5.3-2.8-7.5-2.5-2.4-3.6-2.7-9.5-2.7h-6.7v-3.4c0-3 .4-3.5 4.4-5 5.2-2 11.8-8.7 13.7-13.9.7-2.1 1.7-3.7 2.1-3.7s.8-2.5.8-5.5-.4-5.5-.9-5.5-1.1-1.2-1.4-2.8c-1.1-5.3-4.9-14.3-7.3-17.1-1.5-1.9-2.4-4.1-2.3-6.2 0-2.9.8-4 5-7.2 2.7-2 4.9-4.4 4.9-5.2s-2.8-4.4-6.2-8l-6.3-6.6-4.7 3.3c-2.6 1.8-4.8 3.6-4.8 3.9 0 .4 1.8 2.9 4 5.7 3 3.7 4 5.9 4 8.6 0 2.9-.4 3.6-2 3.6-1.1 0-2 .1-2 .3 0 .1.9 3.1 2 6.5 2.4 7.6 2.7 19 .5 23.1-2.1 4.1-6.6 5.6-17.1 5.6-11 0-12.4-.8-12.4-7.3 0-6.1 2-8.2 7.7-8.2 3.6 0 4.5-.4 5.2-2.2.8-2-.1-3.3-6.2-9.5-6.8-6.8-7.3-7.1-9.7-5.8-10.8 5.6-12.2 24.4-2.9 38.1 3.4 5.1 11.9 12.8 15.9 14.6 2.4 1 3 1.9 3 4.5v3.3h-6.1c-6 0-6.1-.1-12-5.7l-5.9-5.6v12.7 12.7l3.5 4.7c3 3.8 3.5 5.3 3.3 8.6-.3 3.4-.8 4.4-3.8 6.1l-3.5 2 .3 29 .3 29 5.3 7.3 5.3 7.3.7-3.2c.3-1.7.6-4.5.6-6.2v-3l9.8.7c22.4 1.5 21 1 27.7 8.7l6 6.8.3-35.5.2-35.5zm-832.1-167.8c1.4-1.3 3.1-3.6 3.6-5 .9-2.3 1.5-2.5 6.7-2.5 14 0 34.5-6.8 43.9-14.5 5.8-4.7 9.2-4.6 18 .5 18.2 10.7 39.7 11.8 58.3 3 3.5-1.7 7.6-3.9 9.1-5 4.4-3.1 9.2-2.6 14.7 1.7 10.8 8.2 29.4 14.3 44.1 14.3 4.8 0 6.2.3 6.2 1.5 0 2.4 6 8.5 8.4 8.5 1.1 0 4.6-1.3 7.6-2.9 7.5-3.9 22.2-9.3 38.2-14 17.2-5 63.7-16.1 67.6-16.1 1.7 0 12.4 3.1 23.9 7 22.6 7.5 42 12.7 60.8 16.2 17.4 3.2 43.3 3.2 55.7 0 28.5-7.5 46.9-23 49.6-41.9l.7-4.6 54.4.2 54.4.2 3.8-3.7 3.9-3.8v-13-13l-3.2-3.3-3.2-3.3h-62.9-62.9l-3.4-2.9c-9.2-8.2-20.6-11.9-30.6-10.1-12.6 2.3-24.6 11.5-27.1 20.7-1 3.9-1.4 4.3-4.3 4.3-1.8 0-5.5-1.2-8.4-2.7-5.1-2.7-5.2-2.7-14.8-1.5-5.4.7-11.3 1.2-13.3 1.2h-3.6l-.6-5.5c-.8-8.3-6.4-14.5-12.9-14.5-3.6 0-44.3 8.5-57.2 11.9-6.3 1.7-12.6 3.1-13.9 3.1-1.4 0-9.6-2-18.3-4.6-28.3-8.1-54.1-12.4-74.3-12.4-25.6 0-46.8 4.6-61.5 13.5-7.1 4.3-10.6 4.4-15.5.6-5-4-12.4-7.5-21.1-10.2-17.3-5.3-37.3-1.7-53.3 9.7-5.9 4.2-9.3 4.3-15.1.3-14.6-9.8-38.2-14.5-67.6-13.6-24.4.8-36 3-79.7 14.9-8.1 2.2-8.3 2.2-14.5.5-11.1-3.2-44.7-10.6-55.8-12.3-10.5-1.7-10.8-1.7-14.1.2-4.1 2.4-7.9 9.4-7.9 14.6 0 3.6-.2 3.8-3.2 3.8-1.8 0-7.9-.5-13.5-1.2-10.1-1.1-10.2-1.1-15.3 1.5-2.9 1.5-6.5 2.7-8 2.7-2.4 0-3-.6-4.1-3.7-5-15.7-25.4-25.6-41.6-20.5-7 2.2-15.8 7.5-17.4 10.3-.9 1.8-3.4 1.9-64.6 1.9h-63.7l-3.3 3.2-3.3 3.2v13 13l3.7 3.8 3.7 3.8h54.7 54.6l.6 4.5c2.6 19 22.9 35.4 52.2 42.1 10.5 2.5 34.4 2.4 50 0 16.4-2.6 40.4-8.9 63.8-16.7 11.4-3.8 22.1-6.9 23.9-6.9 6.9 0 60.8 13.4 81.8 20.3 7.4 2.4 17.1 6.3 21.5 8.5 9.4 4.8 11.3 5 14.9 1.7zm764.6-57.6c8.3-1 25.4-4.9 39.7-9.1 5.4-1.5 7.3-2.6 7.7-4.2.4-1.1.9-12.6 1.3-25.4l.6-23.3-8.4.8c-21.8 2.1-41.8 0-52.8-5.4-6.6-3.2-16.4-12.8-21-20.6-4-6.8-9.3-21.8-11.7-33.2-3.1-14.9-1.5-46.1 2.9-56.8 1.5-3.4 1.9-3.7 5.5-3.7 2.7 0 4.5.7 5.9 2.3 5.7 6.2 10.4 22.1 12.4 41.8.7 6.8 1.3 12.5 1.4 12.6.5.8 25.1-5.2 35.6-8.6l12.6-4.1-.2-16.8c-.4-23.8-4.5-38.9-14.9-54.7-13.3-19.9-30.3-28.7-55.6-28.8-16.9 0-40.4 6.1-51.1 13.3-8.9 5.9-15.9 21.5-20.2 45.2-2 11.1-2.2 15.4-2.2 45.3 0 36.4.7 42.9 6.4 60.3 10 30.4 26.1 50.9 50.4 63.7 17.9 9.5 33.8 12.2 55.7 9.4zm-217-76.5c21-3.4 37.5-8.6 61.7-19.4 10.4-4.7 14.3-6.9 14.7-8.4.7-2.5.8-49.6.2-49.6-.3 0-6.9 1.6-14.7 3.5-20 4.9-30.5 6.3-32.4 4.5-3.5-3.6-4.9-13.7-4.9-37.5-.1-22.5.5-30 4-50.3l1.7-9.3 10.3-7c5.7-3.8 10.4-7.3 10.4-7.8 0-.4-2-2.2-4.5-4-3.8-2.7-4.5-3.7-4.5-6.6 0-3 .6-3.9 5.1-6.9l5.1-3.4-10.9-7.6c-29.7-20.7-63-34.7-90.3-37.9-7-.9-45.1 10-70.5 20-23.8 9.4-29.1 12.1-31.8 16.2-7 10.6-11.2 22.8-15.2 44.6-3.9 21.4-4.7 33.1-4.3 60.5l.3 25.5 3.2 9.2c4.2 12.1 7.7 18.7 16.3 31.7 6.6 9.9 7.6 10.9 12.8 13.2 10.6 4.7 15.7 5.7 21.5 4.4 9.6-2.3 37.1-11.7 47.6-16.4 9.4-4.2 17.1-5.9 17.1-3.8 0 .5.9 6 2.1 12.3 1.9 10.9 2.2 11.6 6.2 15.8 2.3 2.4 7.8 7.2 12.2 10.8l8 6.5 7-.6c3.8-.4 11.3-1.4 16.5-2.2zm-595.5-49.9c10.6-2.9 29.2-9.1 42.6-14.2l9.6-3.7 1.7-11c2.6-17.5 5.4-43.1 7.6-69.1 1.1-13.2 2.6-28.9 3.3-35l1.2-11 8.5-4.2c11.8-5.8 25.8-10.3 31.9-10.3h5.1v5.9c0 3.3-.4 9.3-1 13.3-.5 4-1.7 16.5-2.5 27.8s-1.9 24.6-2.5 29.5c-1.4 13.3-3 45.6-3.3 65.3l-.3 17.3 5.1-.6c11.9-1.5 30.8-4.8 41.5-7.1 10.2-2.3 35-9 35.7-9.7.2-.3 1.7-15.4 3.3-34.2 1.4-15.7 9.1-94 9.3-94.1.1-.1 5.6-2 12.2-4.4 9.6-3.3 13.9-4.3 21.4-4.7l9.4-.6-.7 12.4c-.3 6.8-1.7 23.9-3.1 37.9-2.9 30.1-3.3 56.8-1 67 2.4 10.2 6.3 19.4 11.6 27.5 5.3 8.2 5.3 8.2 19.3 12.2l8.9 2.6 20.4-8.2c22.8-9.2 50.1-21.2 73.1-32.1l15.2-7.3-.4-23.9c-.3-13.1-.7-24.2-1-24.7s-4.7.4-9.6 2c-17.7 5.7-35.9 10-40.8 9.7-4.6-.3-4.8-.5-7.2-5.3-2.1-4.2-2.5-6.7-2.8-16-.4-10.9 2-46.3 3.8-58 .6-3.3 1.3-18.6 1.6-34l.6-28-3.6-4.2c-2.3-2.7-6.5-5.6-11.1-7.9-6.5-3.2-8.1-3.6-12.2-3.1-7.6.9-41.3 11-59.3 17.7-25.4 9.5-33 12-37.2 12h-3.8v-13.4-13.4l-4.9-3.6c-2.7-2-7.5-4.8-10.7-6.2-5.8-2.5-5.8-2.5-11.8-.9-19.1 5.3-68.1 24.5-90.5 35.4-3.6 1.7-7.7 3.1-9.2 3.1-2.3 0-2.8-.5-3.4-3.6-.3-2-.3-9.1.1-15.8l.6-12.2-11.1-4.3-11.2-4.3-18.2 6.2c-30.9 10.5-64.7 23.6-88.9 34.3l-5.7 2.5.3 23.7c.2 12.9.5 23.7.7 23.9.2.3 5.8-.9 12.4-2.5s16.4-3.2 21.8-3.6l9.7-.6v8.5c0 10.8-4 66.6-8.4 116.8-.8 8.5-1.4 21.9-1.4 29.6v14.1l10.1-2.4c5.6-1.3 14.3-3.5 19.2-4.8zm-251.5-41.5c28.1-5.6 77.3-14.5 94.5-17.1 4.4-.6 8.6-1.5 9.3-1.9 1-.5 31.2-70.9 31.2-72.7 0-.1-1.3-.3-3-.3-2.6 0-3-.3-3-2.9 0-1.6 1.4-6.1 3.1-10.1s2.9-7.3 2.7-7.5c-1.5-1.5-139.1 22.2-140.8 24.2-.4.5-6.9 17-14.5 36.8s-14 36.6-14.2 37.3c-.3.8.4 1.2 2.1 1.2 2.3 0 2.6.4 2.6 3.8 0 2.1-1.1 6.7-2.5 10.1l-2.4 6.3 2.7-.7c1.5-.4 16-3.3 32.2-6.5z"/><path d="m206.9 631.6c-3.8-8.7-5.4-19.2-5.4-35.6.1-15.6 1.3-24.4 4.2-31.2 1.4-3.3 2-3.8 4.9-3.8 2.4 0 3.8.7 4.8 2.3 4.8 7.5 7.5 31.1 5.7 50.2-.7 6.9-1.9 14.7-2.7 17.5-1.5 4.9-1.5 5-5.5 5-3.8 0-4.1-.3-6-4.4z"/><path d="m1204.2 631.2c-6.6-15.2-7-55-.7-67.1 1.3-2.5 2.2-3.1 4.9-3.1 3 0 3.6.5 5.4 4.3 3.8 8 4.7 15.1 4.6 36.7-.1 16.9-.5 21.7-2 27l-1.9 6.5-4.1.3c-4.1.3-4.1.2-6.2-4.6z"/><path d="m1464 640.3c-1.9-.1-5.9-.6-8.8-.9l-5.3-.6.3-9.6.3-9.7 15.3.1c12.2 0 15.6.3 16.3 1.5 1 1.4.5 13.2-.7 17.7-.6 2-1.2 2.2-7.3 2-3.6 0-8.2-.3-10.1-.5z"/><path d="m751.8 379.3c-3.3-1.3-3.8-1.9-3.8-4.8 0-2.7.6-3.5 3.4-4.9 4.5-2.1 19.3-2.2 24.2-.1 3.3 1.3 3.5 1.7 3.2 5.2-.3 3.3-.7 3.9-3.8 5-5.1 1.7-18.7 1.5-23.2-.4z"/><path d="m1123.3 199.8c-5.1-5.5-10.3-23.4-10.3-35.7 0-7.4 2.3-26.7 4.1-34.6 1.8-7.8 5.5-14.4 8.5-15.1 5-1.3 13.2.4 22 4.5l8.7 4.1-.6 9.8c-.4 5.3-1.3 18.7-2.2 29.7-.8 11-1.5 23-1.5 26.7v6.6l-8 2.7c-4.3 1.4-10.3 2.9-13.2 3.2-4.7.4-5.6.2-7.5-1.9z"/></g><g><path d="m1487.5 676.3-9-10-7.5-.7c-4.1-.4-9.8-.9-12.6-1.2l-5.1-.6-.7 7.4c-.4 4.1-1.1 8-1.5 8.7-.9 1.4-4.4-2.2-11.4-12l-4.5-6.4-.4-32.1-.3-32.1 3.4-1.9c1.9-1.1 3.6-2.4 3.8-3s-1.2-3.1-3.2-5.7l-3.5-4.6v-18.8-18.8l8.4 8.4c7 7 8.9 8.4 12.2 8.7l3.9.5-3.3-1.7c-4.6-2.4-12.7-9.8-16.1-14.8-1.5-2.2-3.6-6.5-4.5-9.4-2.1-6.3-2.4-18.9-.5-25 1.5-5.1 6.3-9.7 11.6-11.1l3.7-1 7.8 7.7c8.1 8 9 10 6.8 15.6-.8 2.2-1.5 2.6-5.3 2.6-4.6 0-7.7 2.1-7.7 5.2 0 2.8 3 4.1 9.3 4.2 17.1.3 19.7-8.6 9.9-33.1l-2.1-5.2 3.5 1.5c2 .8 3.9 1.3 4.1 1 .3-.3-2-3.7-5.1-7.6-6.7-8.2-6.8-7.6 3.5-14.6l7-4.8 6 6c3.3 3.2 7.2 7.8 8.6 10.1l2.5 4.3-2.1 2.8c-1.1 1.6-3.7 4.2-5.8 5.7-2.1 1.6-4 3-4.2 3.2-.3.2.5 1.3 1.6 2.6 8.3 9 12 31.5 6.9 42.2-2.6 5.6-9.2 12.1-13.3 13.1-2.5.7-2.5.8-.8 1.5 1.1.4 3.8.8 6.1.8 3.1.1 4.7.8 6.7 2.9 2.4 2.5 2.8 3.8 3.3 12 .4 5.1.2 9.2-.2 9.2-.5 0-2.4 1.3-4.2 2.8l-3.3 2.7 3.5 4.7 3.6 4.7-.2 41.7-.3 41.7zm-3.5-26.1v-3.9l-14.7-.6c-8.2-.4-17.4-1-20.5-1.3l-5.8-.7v3.7 3.6l9.3.1c7.1.1 25.1 1.7 31 2.8.4 0 .7-1.6.7-3.7zm-5.6-14.9c1.4-7.1 1.6-9.9.7-11.2-.7-1-3.9-1.4-13.2-1.5l-12.4-.1-.3 6.7-.3 6.6 5.3.6c19.1 2.1 19.5 2.1 20.2-1.1zm-29.6-27.3c.6 0 1.2-1.1 1.2-2.4s.8-3 1.9-3.7c1-.8 8.6-6.7 17-13.2 12-9.5 15.1-12.4 15.1-14.3 0-2-.5-2.4-3-2.4-2.3 0-3 .5-3 1.9 0 2.1-21.1 20.4-30.2 26.4-3.9 2.5-4.8 3.6-4.8 6 0 2.6.3 2.9 2.3 2.3 1.2-.3 2.8-.6 3.5-.6zm22.9-59.2c5.1-2.2 8.3-4.9 10.3-8.8 2.9-5.7 2.5-6.6-1.3-2.7-1.8 2-5 4-7.2 4.6-5.1 1.4-18.5 1.4-22.2 0l-2.8-1 3.1 3.1c5.2 5.2 14.1 7.4 20.1 4.8zm-23.5-38c-.9-.9-1.5-.9-2.4 0s-.7 1.2 1.2 1.2 2.1-.3 1.2-1.2zm33.8-24.7c0-1.2-2-2.5-2.7-1.8s.6 2.7 1.8 2.7c.5 0 .9-.4.9-.9z"/><path d="m73.5 683.9c-13.5-1.4-25-7.4-35.2-18.3-7.8-8.4-12.7-17.1-16.7-29.6-5.5-17.2-6.1-22.7-6.1-51.5.1-23.2.3-27.1 2.4-36.5 3-14.1 5.2-20.5 11.6-33.7 4.7-9.6 6.7-12.5 14.4-20.5 15.5-16.3 31.3-23.4 53.6-24.5 20.1-1 34.3 3.4 44.6 13.6 9.3 9.4 13.6 21 14 37.6l.2 9.6-4.9 6.7c-3.9 5.5-9.2 13.9-18.1 29.1-.7 1.1-2.9.7-11.8-2.1l-11-3.4-.2-10c-.4-17.5-4.1-30.7-9.9-35.3-3.6-2.8-6.1-2.6-11.6.8-8.5 5.4-15.4 23.7-17.8 46.9-1.6 16 1.4 37.6 7 49.8 8.1 17.8 20.9 22.5 40.4 14.7 5-2 14.5-6.8 21.1-10.7l12-7.2 1.2-13.2c1.4-15.5 1.6-16.9 5-28.2 3.3-11.1 6.1-16.4 11.9-22.9 11.3-12.5 35-27.4 48-30.1 13.4-2.8 26 .7 35.7 9.9 6.4 6 10.3 12.9 13.4 23.1l2.2 7.5.1-5c0-2.7.3-5.9.6-7.1.9-3.3 30.2-19.7 49.5-27.8l6.6-2.8 4.9 3.5c6.7 4.9 9.4 8.7 9.4 13.7 0 2.2.3 4 .6 4s4.7-2.9 9.8-6.4c10.8-7.5 17.4-11.1 23.7-12.7 4.3-1.2 5-1.1 10.2 1.5 3.1 1.5 6.9 4.4 8.6 6.5l3 3.7-.4 15c-.3 8.2-.7 18.5-1 22.9-.2 4.4-.7 13.6-1 20.5s-.8 15.2-1 18.5c-.6 9.4 0 9.5 10.1 1.6 4.9-3.8 9.3-7 9.9-7.1.5-.1 2.4 5.4 4 12.1l3.1 12.2 6.8-7.9c5.6-6.6 6.6-8.3 6.1-10.4-.4-1.4-.9-9.5-1.2-18.1-.4-12.4-.2-16.9 1.1-22 2.4-9.2 6.4-17.3 13.3-26.4 12.7-16.8 21.8-22.6 36.3-23.3 7.9-.4 9.3-.2 14.9 2.3 7.6 3.4 14.2 10.3 18.3 19l3 6.5 5.9-4.7c4.8-3.7 6.9-4.7 10.9-5.1 2.7-.2 5-.5 5.1-.6.1 0 .9-8.6 1.8-19.1l1.6-18.9 14.5-6.4c8-3.5 19.5-8.6 25.7-11.3 6.1-2.7 11.5-4.9 11.8-4.9.6 0-.1 21.8-1 30-.6 5.7-2.5 27.1-2.5 28.8 0 .9 2.7 1.2 10 1.2h10l2 4 2 3.9 8.2-5.1c9.5-5.9 25.8-13.9 34.2-16.8 5.4-1.8 6-1.8 8.9-.4 1.8.9 4.4 2.7 5.8 4.1l2.7 2.5 4.2-3.1c10.3-7.4 23.6-5.8 37.6 4.6 3 2.3 3.1 2.5 2.2 6.4-.6 2.2-.9 4.2-.7 4.4.3.2 6.6-2.7 14.1-6.4 20.2-10.2 34.1-15.4 38.7-14.6 5.3.9 9.6 3.8 12.7 8.5 3.5 5.2 3.7 10.9 1.2 34.5-3 29.5-4.7 52-3.9 52.8 2.6 2.6 4-9.2 6.1-50.8.6-11.5 1.3-23.3 1.6-26.2l.5-5.1 7.7-4c12.7-6.5 24.3-9.6 39.7-10.4l5.9-.3v7c0 6.3-.7 15.4-1.9 27-3.1 28.8-4.9 62.5-3.4 64 .4.3 5.9-2.8 12.3-6.9 12.6-8.2 12.1-7.4 13.1-19.6.8-9.4 3.6-22.7 6.6-30.5 5.1-13.8 31.7-34.3 50.7-39.1 15.7-3.9 30 5.8 35.4 24.2l2.1 7.2 9-7.1c8.1-6.4 9.5-7.1 14.3-7.5 4.9-.4 5.4-.7 5.4-2.8 0-2.8 2-27 2.5-30.4.2-1.4.4-3.2.4-4.1.1-1.1 2.4-2.6 6.4-4.2 3.4-1.4 14.9-6.4 25.6-11.1 10.6-4.8 19.6-8.6 20-8.6 1.3 0-.5 29.4-3.4 55.8l-.5 4.2h10.4 10.4l1.2 3c.7 1.7 1.5 3 1.9 3s5.2-2.5 10.6-5.5c5.5-3 10.8-5.8 11.8-6.1 2.3-.7 2.2-1.6-1.2-7.1-1.5-2.7-4.5-7.9-6.4-11.6-3.5-6.4-3.6-7-2.1-9.2 1.4-2.1 1.4-2.6-.1-5.5l-1.6-3.1 7.5-8.7c8.1-9.5 30.3-31.9 30.9-31.2.2.3 3.2 6.1 6.7 13 7.1 14.2 10.2 19.7 14.2 25.7 2.8 4.1 2.8 4.4 1.3 7.3-1.4 2.7-1.4 3.3-.1 5.2s1.3 2.5-.9 6.7c-1.3 2.5-3.7 6.6-5.4 9l-3 4.5 3 3.3c1.6 1.9 2.9 3.9 2.9 4.6.7 16.3-.4 44-2.6 69.1-.8 9.3-1.2 17.2-.9 17.5s5.7-2 11.9-5.1l11.3-5.6.6-10.4c1.3-21.4 8.4-40.5 18.8-50.9 8.6-8.6 20.3-17 31.1-22.1 11.4-5.6 18-7.2 26.8-6.6 17.1 1.3 31.2 13.8 36.7 32.7 1 3.4 2.1 6.1 2.5 6.1s.8-2.6 1-5.7l.3-5.7 7.5-4.7c10-6.2 28.5-15.7 39.2-20.3l8.8-3.7 4.5 3.1c6.2 4.3 9.9 9.2 10.5 14l.5 4.1 9.5-6.6c10.6-7.4 16.5-10.7 22.6-12.5 6-1.8 12.9.7 18.3 6.5l4.1 4.5v11.2c0 6.2-.5 18.5-1 27.3-1.7 29.1-2.3 47.5-1.5 47.5.4 0 4.7-3.1 9.4-6.8s9.1-7.1 9.7-7.5c1.8-1 10 32.8 8.5 34.7-.8 1-.8 2.1-.1 4 .5 1.5 1 3.4 1 4.2 0 2.2-31.2 27.2-50.1 40.2l-4.7 3.2-5.3-1.6c-8-2.4-12.2-5-15.1-9.7-6.3-10.2-7.7-22.9-5.9-56.9.7-12.8 1.4-25 1.6-27 .4-4 0-4.5-2.6-2.5-1.7 1.3-2.1 5.6-3.4 37.2-.3 7.2-.8 15.7-1 19s-.5 10.8-.6 16.7c-.1 6.7-.6 11.1-1.3 11.6-2.5 2-40.6 14.3-41.8 13.6-.7-.4-3-2-5-3.7l-3.8-2.9v-9.1c0-5.1.4-15.3 1-22.7 1.2-16.6 1.8-26.9 2.5-42.5.3-6.6.8-15.2 1.1-19.2l.5-7.2-8.3 2.8-8.3 2.8-.6 13.9c-1.5 30.9-7.8 47.6-23.5 62.3-35.1 32.8-71.9 32.8-87.3.1-1.7-3.6-3.4-7.9-3.7-9.7l-.6-3.2-7.1 6.1c-9.9 8.3-21.7 16.6-35.4 24.8-12.8 7.7-15.7 8.4-22.8 5.1-5.7-2.6-9-6.6-11.6-14.1-2.2-6-2.3-8.2-2.4-29 0-12.4.3-27.4.7-33.5.4-6 1.1-15.4 1.4-20.8l.7-9.8-7.9 3.7c-12.4 5.7-11.4 6.1-11.4-4.7l-.1-9.4-5.2 5.8c-5.2 5.7-5.3 5.7-10.9 5.7h-5.6l-.8 7.8c-1.7 17.7-.2 31.2 3.6 32 .9.1 7.8-4 15.3-9.2l13.7-9.5v10.2c0 5.6-.5 16.6-1 24.5l-1.1 14.3-3.7 3.3c-10.7 9.7-24.8 20-39.1 28.7l-9.5 5.7-5-1.5c-10.9-3.2-14.2-6.6-18.9-19.3-6.4-17.5-7.2-22.8-7.1-49 0-12.9.3-26.8.7-30.7l.7-7.3-7.3-.1c-3.9-.1-7.6-.2-8.2-.4-.5-.1-2.4-.3-4.2-.3-2.6-.2-3.2-.7-3.8-3.2-.4-1.6-1-3-1.4-3-.3 0-3.3 2.7-6.6 6.1-6.2 6.3-34.3 29.5-34.9 28.8-.2-.2-.7-6.5-1-13.9-.4-7.4-1.1-13.9-1.5-14.3-.5-.5-1.2 3.8-1.5 9.5-1.3 18.9 3.5 36.7 10.2 37.6 2.7.4 13.1-4.3 19.9-8.9 4-2.7 19.8-15 26.7-20.8 1.8-1.6 1.9-1.2 1.3 15.9-.4 9.6-1 21.2-1.3 25.8l-.7 8.2-7.1 6.8c-15.8 15-32.7 27.2-43.4 31.3-7.4 2.8-19.5 3.1-27 .5-6.1-2.1-15-9.7-18.7-16-4-6.8-7.3-16.9-8.9-26.8l-1.4-9.3-.1 7-.1 7-8.7 8.7c-10.7 10.4-20.8 18.3-33 25.4-7.7 4.6-9.9 5.4-14 5.4-9.6 0-16.8-7-18.8-18.2l-.7-3.8-5.7 4.6c-6.6 5.3-18.3 13.5-22.6 15.6-6.2 3.2-17.2-.7-21.3-7.4-4.6-7.6-8.2-26.6-8.2-43.3.1-10.1.5-17.2 2.6-45.8l.7-9.8-5.1.7c-4.7.6-5.3.4-9.1-2.7-3-2.5-4.1-4.1-4.1-6.3 0-1.6-.2-2.7-.5-2.4-.3.2-2.6 7.4-5.1 15.9s-4.7 16.1-5 16.9c-.4 1-3.7-1.9-10.8-9.4-5.8-6.3-10.7-10.7-11.3-10.3-1.6 1-2.1 7.6-4.8 64.7-.3 5.8-.8 13.8-1.1 17.8l-.6 7.3-5.6 3.6c-12 7.7-25.8 12.3-41.5 13.9-5.5.5-6.6.4-6.3-.7 1-2.8 1.4-8.9.6-8.9-.5 0-.6-.8-.4-1.7.9-3.9 3.4-29.5 3.9-40.3.4-6.3.8-12 1-12.7.2-.6.7-9.8 1-20.5.4-10.6.8-19.9 1-20.5.3-.7-.1-1.3-.8-1.3-1.4 0-13 1.8-17.1 2.6l-2.9.6.7-5c.3-2.7.3-5.7 0-6.6-.6-1.5-1.3-1.1-4.8 2.3-3.7 3.5-4.6 4-9 3.9-2.8 0-5.2.6-5.6 1.2-1.1 1.8-2.3 25.2-1.5 29.2 1.3 6.5 2.7 9.8 4.1 9.8.8 0 7.8-4.3 15.5-9.5l14.1-9.6-.6 15.3c-.3 8.3-.9 19.4-1.2 24.6l-.7 9.4-8.4 7.2c-10.7 9-22.3 17.3-34.1 24.3-8.4 5.1-9.6 5.5-13.3 4.9-9.7-1.6-15.4-6.7-19.9-17.8-6.2-15.7-7.2-21.3-7.7-45.3-.2-12.1 0-26.8.4-32.7l.9-10.8h-6.7c-3.6 0-8.7-.3-11.2-.6-4-.6-4.7-1-5.9-4.2l-1.3-3.5-2.3 6.5-2.3 6.6 3 4.9c4.5 7.4 6.1 14.8 6.1 29.3 0 22.4-4.7 34-20 49-5.3 5.2-12.1 11-15.1 12.8-17.8 10.5-34.7 10-47.7-1.4-5.5-4.8-11.8-14.5-14.8-22.9-.9-2.7-1.9-5.2-2-5.4-.2-.2-4.5 3-9.6 7.1-12 9.6-24.6 19.1-33.3 25l-7 4.8-6.1-1.9c-10.3-3.1-14-6.7-17.8-17.6-2.6-7.1-3.1-27.9-1.6-55.8.7-12.5 1-23 .8-23.2-.3-.3-1.2.1-2.1.8-2 1.4-2.2 3.5-3.7 37.2-1.3 30.5-2.1 46.9-2.4 47.2-.4.5-40 14.3-40.8 14.3-.5 0-3-1.6-5.7-3.6l-4.9-3.7.4-13.1c.2-7.2.6-14.4.8-16.1.3-1.6.8-9.1 1.2-16.5.3-7.4.8-14.2.9-15 .2-.8.6-10.2 1-20.7l.7-19.2-7.5 2.7c-4.2 1.5-7.8 3-8 3.2-.3.3-.8 5.8-1.1 12.3-1.7 31.7-7.1 47.3-21.3 61.4-22.5 22.3-48.4 31.5-68 24.1-11.3-4.2-22.2-18.1-25.4-32.3-.7-3-1.5-5.2-1.8-4.9s-1.3 3.1-2.1 6.2c-1.4 5.3-2 6.1-8.5 11-23.5 17.8-46.9 25.5-70 23.1zm22.8-26.8c9.4-2.4 20-7.4 29.2-13.6 3.9-2.6 6.1-4.4 5-4-18.5 6.7-18.4 6.7-29.4 6.3-13.1-.5-19.6-3.1-27.2-11-12.3-12.9-18.3-35.2-18.2-68.3 0-19.1 1.3-29.7 4.9-42.3 7.2-24.9 18.1-36.2 34.9-36.2 15.4.1 23.3 8.4 27.6 29.4 1 5 1.9 11.6 1.9 14.6.1 4.7.3 5.2 1.3 3.6.7-1.1 4.1-6.3 7.6-11.5 3.5-5.3 6.4-10.4 6.3-11.4-.5-8.3-8.7-19.9-17.1-24.1-17.7-9-45.9-4-62.9 10.9-15.3 13.6-25.9 36.3-29.3 63.1-1.8 14.4-.7 36.4 2.5 48.9 6.3 24.5 20.9 42.3 38.2 46.4 6.6 1.5 16.7 1.2 24.7-.8zm370.8-1.4c3-1.4 6.5-3.5 7.9-4.5l2.4-2-4 1c-5.6 1.5-12.5.2-17.2-3.2-4.3-3.1-11.5-15.9-12.8-22.6-.3-1.9-1-3.4-1.4-3.2-1.3.5-10 11.1-10 12.2 0 2.5 6.1 13.7 9.4 17.4 7.7 8.5 15.2 9.9 25.7 4.9zm-255.9-1.9c10.5-5 19-10.9 26.8-18.7 10.7-10.8 15.1-22 17.1-43.4 2.5-26.7-3.8-49.7-15.8-58-8.2-5.7-13.8-6-24.5-1.3-18.1 7.9-36.5 23.8-40.7 35.2-9 23.9-9.3 53.4-.8 73.6 2.1 5.1 9.4 12.7 14.2 15 6.2 2.9 14.3 2.1 23.7-2.4zm705.1.3c6.8-3.4 19.6-12.8 28.7-21l5.5-4.9-9.2 4.5c-8.6 4.3-9.7 4.6-17.5 4.7-7.5.1-8.9-.2-12.4-2.5-4.8-3.2-9.7-11.8-11.9-21-3.3-13.6-3-43.1.7-59.4 1.4-6.4 4.3-12.1 6.7-13.5 3.3-1.7 13.6-1.3 15.3.8 2.7 3.1 4.6 7.7 6.1 14.8l1.4 6.9 6.9-6.7 6.8-6.6-1.8-5.7c-2.2-7-7.5-13.2-12.1-14.1-7.6-1.4-23.2 7.2-36.8 20.4-7.1 7-7.9 8.2-10.1 15.1-3.8 11.9-5 22.2-5 40.6 0 18.6 1.3 26.6 6 35.9 3 6 8.7 12.3 12.9 14.2 4.7 2.2 12.5 1.2 19.8-2.5zm193.7-5.9c8.8-5.7 23.5-16.5 24.5-18.1.3-.5-1.9-.1-5 1-9.5 3.3-14.4 2.3-16.5-3.3-2-5.8-2.3-22.4-.6-39.8.9-9.1 1.9-25.1 2.3-35.5.7-23.5 1-22.9-10.3-18.5-8.3 3.3-29.2 13.5-30.8 15.1-.6.5 1.7.9 6 .9 10.7 0 10.9.3 10.9 20.4 0 8.8-.6 27.9-1.4 42.2-1.6 28.6-.9 37.8 3.1 42.9l2 2.5 3.6-2.1c2.1-1.3 7.5-4.7 12.2-7.7zm96.3 6.8c8.4-3.2 22.2-12.7 29.5-20.3s12.4-17.5 14.9-28.7c2.4-11 2.4-40.2 0-49-3.7-13.5-10-22.2-18.9-26-7-3-12.6-2.3-22.9 2.9-17.3 8.8-31.1 20.5-35.8 30.5-10.3 21.6-11.4 55.9-2.5 76.3 2.7 6.3 10.5 14.4 15.4 16 5 1.7 13.5 1 20.3-1.7zm-825.8-10.9c12.7-9.5 23.5-18.4 23.5-19.3 0-.5-1.7.3-3.7 1.7-3 2-5 2.5-10 2.5-7.1 0-9.6-1.7-11.3-7.9-1.3-4.9-1.1-38.8.4-65.6 1.2-20.5 1.2-22.1-.5-23.9-1.6-1.8-1.8-1.8-6.5.8-2.7 1.5-13.2 8.5-23.4 15.6-14.6 10.3-19.2 13-21.8 13h-3.3l.7-14.4c.5-10.7.4-14.5-.5-15-.7-.5-5 1-9.8 3.3-10 4.8-28.3 15-28.3 15.7 0 .3 1.4.3 3.1-.1 4.8-1.1 9.7.3 11.6 3.1 1.3 2.1 1.6 5.2 1.5 17.7-.1 15.9-1.5 46.5-3.3 70.1-.6 7.6-.8 14.1-.5 14.3.6.6 18.4-5.4 20.2-6.8.7-.6 1.3-7.4 1.7-17.6.3-9.3 1.1-26.9 1.7-39.3l1.1-22.5 4.9-4.5c6.3-5.8 16.7-12 20.2-12 9.5 0 10.4 3.4 8.9 31.5-2.4 43.7-2.5 55.5-.8 61.6.9 3.1 2.8 6.8 4.2 8.3l2.5 2.7 5.7-4.2c3.2-2.4 8.5-6.3 11.8-8.8zm275.9 5.5c4.2-2.4 4.6-3 4.6-6.4 0-4.7 1.6-35.5 3.1-61.9 1.2-19.9 1.3-20.3 4-23.6 6.6-8 16.5-8.8 25.6-2.2 2.2 1.6 2.2 1.6 5.3-8.7 1.7-5.7 3.3-10.9 3.5-11.6.6-1.6-7.1-5.3-9.4-4.5s-9.4 7.8-15.8 15.6c-4.9 5.9-5.9 6.7-9 6.7h-3.5l.2-6.7c.4-9.2.2-10.6-1.3-12.7-1.3-1.8-1.9-1.6-11.1 2.7-9.5 4.5-26.6 14.4-26.6 15.3 0 .3 3.1.2 6.9-.2 6.8-.6 6.9-.6 8.7 2.2 1.7 2.5 1.9 4.8 1.7 20.9-.1 16.3-2.3 56.8-3.9 75.3l-.7 7.3 6.5-2.4c3.6-1.3 8.6-3.6 11.2-5.1zm156 3.9c10.1-6.1 18.1-12.2 26.3-20 7.5-7.3 7.6-7.5 3.5-5.5-3.1 1.5-5.8 2-9.5 1.8-4.9-.3-5.3-.5-7-4-2.6-5.3-3.9-20.2-3.2-35.8.6-13.9 3-45.4 4.1-54.7.3-2.9.4-5.3.2-5.3-1.5 0-12.2 3.6-16.9 5.7l-5.6 2.4-.7 14.7c-.7 14.7-3.1 47.5-4.3 58.6-.5 5.3-1.1 6.4-4.9 10.2-5.4 5.4-11.2 8.4-16.4 8.4-5.8 0-8.5-3.2-10.6-12.8-2.1-9.3-1.7-19.2 2.2-57.6 3.2-31.8 3.3-31.1-6.1-27.2-9.4 3.8-25.6 11.5-30.5 14.4l-4.5 2.7 7.4.6c12.3.9 13 3.5 10.7 35.4-2.7 37.4-2.8 40.9-1.7 48.5 1.3 9.7 4.8 21 6.7 21.7 1.8.7 13.1-7.5 28.4-20.6 9.4-8 12.5-10.1 14.9-10.1 3.4 0 3.6.3 4.6 10.5 1.1 10.2 4.4 21.5 6.3 21.5.5 0 3.4-1.6 6.6-3.5zm504.8-15.6c.4-6.3 1.4-24.4 2.2-40.4l1.4-29 3.4-2.8c13.4-11.3 22.8-15 27.8-10.9 2.2 1.8 2.5 2.9 2.8 9.9.2 4.4-.3 22.6-1.2 40.4-1.7 32.5-1.4 39.5 1.5 45.2 1.7 3.3 4 5.7 5.5 5.7 1.6 0 30.9-21.9 37.4-27.9l4.5-4.2-4.6 2.5c-6.3 3.6-14.9 3.7-18.3.3-5-5-5.6-19.1-3.1-63.7.8-14 1.5-26.7 1.5-28.2 0-3.5-3.1-5.4-6.2-3.7-3.4 1.7-18.6 12-32 21.6-8.8 6.3-12.4 8.3-14.9 8.3h-3.2l.6-13.9c.5-11.4.4-14.1-.8-15.1-1.1-.9-4.2.3-15.6 6-7.8 3.9-16.2 8.5-18.8 10.1l-4.6 2.9 4.5-.6c2.5-.2 5.9-.1 7.5.4 5 1.4 5.8 5.6 5.1 27.2-.6 21.6-3.4 71.1-4.1 75.6l-.5 3.1 10.7-3.7 10.8-3.7zm-746.9 14.6c7.1-4.3 26.9-18.8 28.8-21.2 1.3-1.5 1.2-1.6-.6-.8-1.1.5-4.9 1.1-8.3 1.3-5.6.3-6.7.1-8.9-2-8.5-7.9-10.8-24.2-8.2-59.3 1.5-21.3.4-19.1 10.6-19.8 6.9-.5 9.1-1.1 10.7-2.7l2-2h-10.3-10.4l.6-14.7c.4-8.2 1.1-19.5 1.7-25.2s1-10.5.8-10.6c-.2-.2-4.9 1.8-10.6 4.3-7.5 3.4-10.4 5.2-10.6 6.7-.7 3.3-2.6 29.6-2.6 34.2 0 4.8.1 4.8-10.8 5.7-3.4.3-7.4 1.4-8.9 2.3-2.7 1.8-2.7 1.8 7.2 2.3l10 .5v7.5c0 4.1-.6 14.8-1.4 23.8-1.8 21.1-1 43 1.8 52.7 3.6 12.6 7.7 20.5 10.5 20.5.6 0 3.7-1.6 6.9-3.5zm453-4.5c10.3-7 24.7-17.9 24.7-18.6 0-.2-1.6.4-3.5 1.2-1.9.7-6.1 1.4-9.4 1.4-5.6 0-6.1-.2-8.9-3.6-3.9-4.7-6.8-13.9-7.7-24.1-.7-7.2.6-36.7 2.1-48.9l.5-4.2 8.4-.3c7.1-.3 8.8-.7 10.7-2.6l2.2-2.3h-10.2-10.2v-7.7c0-4.3.7-14.5 1.5-22.8.8-8.2 1.5-16.2 1.5-17.7v-2.6l-10.4 4.6-10.4 4.6-.6 5.1c-.3 2.7-1.1 11.7-1.7 20-.6 8.2-1.5 15.3-2.1 15.6-.5.3-4.3.9-8.5 1.3-5.1.4-8.2 1.2-9.9 2.5l-2.4 1.9 9.9.4c5.5.1 10.2.6 10.6.9.3.4-.1 8.1-.9 17-3.9 41.8-3.1 57.8 3.5 75.2 3.4 8.9 5.3 11.7 7.9 11.7.9 0 6.9-3.6 13.3-8zm-530.6-14.3c4.6-6.2 8.3-16.7 8.3-23.8 0-13-6.1-21-22.7-29.4-16.1-8.2-21.2-15.2-20.1-28 .3-3 .4-5.5.2-5.5-1.1 0-9 14.3-10.6 19.2-2.5 8.1-2.1 19.4 1 25.4 3 5.9 10.5 12.2 21.2 17.9 6.5 3.5 9.9 6 11.6 8.5 4.5 6.8 4.1 21.1-.9 27.7-1.1 1.6.3.6 3.2-2.2 2.9-2.7 6.8-7.2 8.8-9.8zm5.7-85.1 2.7-7-2.8-4c-7.4-10.6-19.3-11.2-30.3-1.7l-3.5 3 6.3.1c9.7 0 17.5 5.2 22 14.6.9 1.9 1.9 3.1 2.2 2.7.4-.5 1.9-3.9 3.4-7.7zm613.1-48.5 5.2-7.3-4.3-7.7c-2.4-4.2-4.7-8.2-5.1-9-.6-1-2.8.8-8.1 6.7l-7.3 8.1 1.7 3.3c.9 1.8 3.5 6.1 5.7 9.6 4.6 7.4 4.4 7.4 12.2-3.7z"/><path d="m205 647.2c-3.8-2-9.3-10.2-11-16.2-3.3-11.6-4.5-22.1-4.4-40.5.2-29.4 3.9-44.5 12.4-50.3 3-2 4.4-2.3 9.7-2s6.8.9 9.4 3.3c4.5 4.3 7.4 10.7 9.9 22 2 8.6 2.3 12.8 2.3 31 0 39.9-5.4 54.5-20.3 54.5-2.5 0-6.1-.8-8-1.8zm10.4-19.4c4.2-14.5 3.9-41-.4-55.1-2.7-8.6-4.2-9.8-6.3-4.9-6 14.1-5.4 45.8 1.3 60.8 1 2.4 2.4 4.4 2.9 4.4.6 0 1.7-2.4 2.5-5.2z"/><path d="m1204 647.9c-6.2-2.5-10.8-10-14.1-23.1-3-12-3.8-45-1.5-59.8 1.8-11.8 5.8-21.2 10.3-24.5 3.9-2.8 12.8-3.2 17.3-.7 4.9 2.7 9.5 10.7 12.1 21.6 2.1 8.2 2.3 11.5 2.3 33.6 0 18.8-.4 26.3-1.7 32.2-3.2 15.2-8.6 21.9-17.6 21.7-2.5 0-5.7-.5-7.1-1zm9.4-22c2.6-9.2 2.8-38.2.3-48.9-.9-4.1-2.6-8.8-3.6-10.4l-1.9-2.9-1.7 3.2c-4.4 8.5-5.8 31.4-3 47.6 1.7 9.6 5.2 18.8 6.9 18.2.6-.2 1.9-3.3 3-6.8z"/><path d="m649 438.6c-1.9-.7-7.3-3.2-12-5.4-13.6-6.5-56-18.6-89.8-25.7l-7.2-1.5-20.8 6.9c-23 7.7-47 14-63.7 16.7-15.7 2.6-45 2.6-56 0-29.3-6.7-49.6-23.1-52.2-42.1l-.6-4.5h-54.6-54.7l-3.7-3.8-3.7-3.8v-16-16l3.3-3.2 3.3-3.2h63.7c57.9 0 63.8-.1 64.4-1.6 1-2.8 11.9-9.1 18.7-10.9 19.4-5.3 41.3 4.5 46.5 20.7l1.2 3.6 4.7-2.4c5.4-2.8 10.3-3.5 16.5-2.4 2.3.4 6.8 1.1 10 1.5l5.7.6v-3.8c0-2.1 1-5.9 2.3-8.3 2.8-5.6 9.3-9.3 14.7-8.5 19.2 3 52.6 10 63.8 13.4l6.3 1.9 10.2-2.9c35.1-10.1 50.9-12.9 77.7-13.6 32.8-.9 55.6 3.5 70.5 13.6l4.5 3.1 4.8-3.4c6.4-4.6 11.4-7 20.2-9.7 10.7-3.4 28.3-3.4 39 0 8.8 2.7 16.1 6.3 21.1 10.2l3.7 2.9 5.8-3.5c15.1-9.1 33.5-13.1 61.9-13.4 24.8-.3 48.7 3.4 79.6 12.3l15.7 4.5 8.8-2.5c10.1-2.8 41.3-9.5 55.2-11.9 8.8-1.5 9.4-1.5 13.6.3 5.7 2.6 8.6 6.8 9.3 13.8l.6 5.6 4.1-.6c2.3-.4 8.4-.9 13.6-1.2 8.9-.6 9.8-.4 14.4 2 2.7 1.5 4.9 2.5 5 2.4.2-.2.8-2.1 1.4-4.4 3.9-13.6 25-23.8 42.4-20.6 7.5 1.4 14.9 4.9 20.5 9.7l4.1 3.5h62.9 62.9l3.2 3.3 3.2 3.3v16 16l-3.8 3.7-3.8 3.7h-54.4l-54.4-.1-.3 2.8c-2 15.8-15.5 30.7-35.2 38.7-14.6 5.9-21.9 7.1-44.1 7.1-17-.1-22.6-.4-32.5-2.3-18.9-3.6-38.3-8.7-60.8-16.2l-20.9-7-25.6 6.1c-39.9 9.5-63.6 16.9-77.7 24.3-8 4.1-13.2 4.2-17.5.1-1.7-1.6-3.3-4-3.6-5.2-.6-2.1-1.2-2.3-6.8-2.3-14.6 0-33.2-6.2-44-14.5-4.8-3.7-5-3.7-7.5-2.1-12.5 8-24.7 11.6-39.6 11.6-15.2 0-26.2-3.3-40.2-12.1-1.8-1.1-2.6-.8-6.5 2.4-9.6 7.9-29.9 14.7-44 14.7-5.5 0-5.8.1-7.3 3.4-2.9 6-9.3 8.6-15.5 6.2zm-5.8-31.6-.4-4h4.3c2.4 0 6.9.7 9.9 1.5 11.5 3.1 28 1 40.7-5.2 6.3-3.1 15.7-11.6 17.3-15.7.8-2.1 1.6-2.6 4.2-2.6 2.7 0 4.1 1 8.1 5.5 8.2 9.4 26.5 16.4 39 14.9 13.2-1.5 24.4-6.9 32.1-15.5 6.1-6.8 9.1-6.8 13.5 0 7.4 11.5 21.9 18.7 40.1 19.8 7.8.5 11.1.2 17.9-1.6 4.7-1.1 9.6-2.1 10.9-2.1 2.3 0 2.4.3 2 4.4l-.5 4.3 4-1.5c2.2-.9 3.5-1.8 2.8-2-.6-.2-1.1-1.8-1.1-3.5 0-2.6.8-3.8 4.3-6.2 4.1-2.9 4.1-3 1.6-3.3-2.3-.3-2.8-.9-3.3-4.5-.9-5.2-8.1-12.6-14.2-14.5-11-3.3-23.4 1.2-28 10.1-1.1 2.1-2.2 2.7-4.8 2.7-4 0-13.6-6-18.3-11.4-3-3.3-3.3-4.3-3.3-9.7 0-5.5.3-6.4 3.1-9 4.1-3.8 11.1-5.8 24.2-6.9 18.3-1.5 39.7 1.3 69.2 9.1 6.6 1.7 13 3.4 14.3 3.7 1.7.3 2.2 1.1 2.2 3.8 0 3.1-.5 3.6-5.2 6-6.9 3.5-17.8 9.8-20.3 11.9-1.1.9.5.2 3.5-1.5 11.2-6.4 28.6-14.3 32.5-14.7 2.7-.3 6.7.5 12.5 2.5 8.3 2.8 8.5 2.9 8.8 6.4.3 3.4.3 3.5-5.5 5.1-9.1 2.5-41.4 13.9-40.9 14.4.2.3 3.7-.5 7.8-1.6 19.6-5.5 55.5-13.2 59.3-12.8 2.2.3 12.6 3.4 23.1 7.1 30.2 10.4 54.9 16.3 78.9 18.6 30.3 2.9 61.3-8.4 70.8-25.8 2.9-5.4 3.4-9.6 2.2-17.9l-.8-5.3h59.2 59.1v-4.5-4.5h-63.6-63.6l-4.7-4.9c-5.4-5.8-13.3-8.7-20.6-7.7-6.2 1-14.4 6.3-16.8 11-2 3.9-2 3.9-.1 7.5 2.7 5 9.1 9.5 15.6 10.9 5.1 1.2 6.1 1.1 11.4-.8 7.9-2.9 13.4-3.6 14.5-1.9.5.8.9 3.7.9 6.5 0 12.6-10.5 18.1-36.5 19.1-22.3.9-43.1-1.9-68-9-7.9-2.2-8-2.3-8.3-5.7l-.3-3.5 22.3-2.8c12.2-1.5 22.6-3.1 23.1-3.6.4-.4-.4-2.2-1.8-4-1.9-2.2-3.5-3.1-5.7-3.1-3.8 0-25 3.3-45.4 7-8.9 1.7-18.2 3-20.8 3s-9.5-1.6-15.6-3.6l-11-3.5v-3.3-3.3l10.3-2.8c5.6-1.5 18.5-4.4 28.7-6.5 11.1-2.3 17.8-4.1 16.8-4.5-2.2-.9-28 4.3-51.1 10.2-12.1 3.1-19.1 4.4-22 4.1-2.3-.3-10.5-2.3-18.2-4.6-32.3-9.6-53.2-12.7-79.5-11.9-14.4.4-19.2.9-27.5 3.1-13.6 3.5-23.2 8.4-28.8 14.6-5.9 6.6-9.2 6.8-13.5 1-7.5-10.3-23.7-18-37.7-18-5.8 0-17.8 3.1-23.8 6.1-4.7 2.5-14.4 11.3-15.2 14-.5 1.4-1.6 1.9-4.6 1.9-2.1 0-3.9-.4-3.9-.9 0-2.1-9.7-10.2-15.7-13-13.7-6.6-29.2-9.3-52-9.2-22.3.1-42.7 3.7-73.8 12.7-8.2 2.4-16.2 4.4-17.7 4.4s-9.6-1.8-18.1-4c-24.8-6.5-53.7-12-53.7-10.4 0 .5 6.5 2.2 14.4 3.7 12.1 2.3 33.6 7.4 39.9 9.3 1.2.4 1.7 1.6 1.7 3.9v3.4l-11.2 3.6c-6.1 1.9-12.9 3.5-15 3.5s-9.8-1.1-17.1-2.4c-20-3.7-45-7.6-49-7.6-2.7 0-4.1.7-6.2 3.1-1.4 1.8-2.2 3.5-1.8 4 .4.4 10.8 2 23.1 3.5l22.3 2.8-.3 3.5c-.3 3.5-.4 3.6-8.3 5.8-35.1 10.1-73.4 12.2-92.2 5.2-9.7-3.7-13.3-9.6-11.9-19.4.7-4.1 1-4.5 3.6-4.5 1.6 0 4.8 1 7.1 2.2 5.3 2.7 12.6 3.4 18.7 1.7 5.4-1.5 14.2-9.5 14.2-12.9 0-7.4-11.5-16-21.5-16-7.1 0-17.4 5.6-19.7 10.6l-1.1 2.4h-60.6c-33.3 0-62.3.3-64.3.6-3.6.6-3.8.8-3.8 4.5v3.9h59.1 59.1l-.7 8.4c-.7 7.6-.5 9 1.5 13.1 3.5 7.3 11.2 14.1 21.5 19 14.4 6.9 20.1 8 41 8 26.3-.1 45.7-4.1 87.3-18 12.3-4.1 23.7-7.5 25.3-7.5 3.9 0 21.9 3.9 45.9 10 10.7 2.7 20.6 5.2 22 5.5 4.5 1-12.5-5.2-30.4-11.1l-17.6-5.9v-3.5-3.6l8.3-2.7c4.6-1.5 9.9-2.7 11.9-2.7 2.5 0 8.7 2.6 20.4 8.4 9.3 4.7 15.7 7.6 14.4 6.6-1.4-1.1-7.3-4.4-13.2-7.5-10.3-5.4-10.8-5.8-10.8-8.9v-3.2l13.8-3.7c31.4-8.4 49.7-11 70.2-9.7 23.4 1.4 31.8 6.7 29.5 18.6-1.2 6.9-15.1 18.4-22.1 18.4-2.3 0-3.3-.7-4.8-3.5-2.4-4.4-8.3-8.4-14.6-10.1-12.1-3.1-27 5.8-27 16.2 0 3.9-.3 4.4-2.2 4.4-2.1.1-2.1.2 1 2.8 2.4 2 3.2 3.5 3.2 6 0 1.8-.5 3.2-1.2 3.3-.7 0 .7.9 3.2 1.9s4.5 1.9 4.5 1.9c0 .1-.1-1.7-.3-3.9z"/><path d="m751.3 391.5c-6.8-1.9-12.7-5.8-15.6-10.4-1.7-2.8-2.2-5.1-2.2-10.7 0-9.7 2.8-14 12.2-18.6 6.4-3.1 7.3-3.3 17.8-3.3 11.9 0 16.9 1.3 23.3 6.2 5.5 4.2 7.2 7.9 7.2 15.9 0 8.5-2 12.2-9.3 17.1-7.8 5.2-22 6.8-33.4 3.8zm19.9-14.5c5.2-1.5 5.6-2.8 1.4-4.5-4.8-2-13.9-1.9-18.4.2l-3.6 1.7 4 1.8c4.4 2 11.1 2.3 16.6.8z"/><path d="m140 400.8c0-1.2 1.3-10.4 2.5-17.5.5-2.7.3-3.2-1-2.7-1.9.8-1.9 1.7.6-15.9 1.2-8.1 1.9-15 1.6-15.3-.2-.3-6.8 3.6-14.5 8.5-17.3 11.1-21.2 13.1-33.2 16.9-30.2 9.7-52.1 8-67.9-5.2-15.1-12.6-23.6-32.7-27.2-64.6-1.8-16.4-.6-68.9 2-85.8 8.7-55.5 27.4-96.5 62.3-136.2 24-27.2 74.5-55 114.7-62.9 30.9-6.2 56.8 2.2 66.1 21.5 4.5 9.1 6.6 23.4 3.9 26.1-.9.9-.9 2.3 0 5.7.6 2.5 1.1 6.5 1.1 9 0 4.2-1 5.9-13.3 23.3-7.3 10.3-17 24.2-21.5 30.9l-8.3 12-12.1-1.8c-6.7-1-12.3-2-12.5-2.2-.2-.1-.6-4.7-.9-10.2-.9-15.8-3.8-27.3-8.8-35.2-10.1-16-35-11.1-56.1 11-20.2 21.2-32.2 47.3-38.9 84.8-4.2 23.2-4.1 36.2.1 55.5 2.9 13 2.7 13 12 .7 4.5-5.9 8-10.8 7.9-11-.2-.1-4.7 1.3-10 3.2s-9.6 3.2-9.6 2.8 8.7-11.9 19.3-25.6l19.2-24.9 13.5-5.9c21.4-9.4 53.1-22.1 70-28.1 21.7-7.7 67.6-21.9 95.8-29.6l7.3-2-3.4 4.7c-9.4 12.9-14.7 20.5-14.4 20.8.1.2 4-.8 8.7-2.1 4.6-1.4 8.5-2.4 8.6-2.2.1.1-5.4 7.9-12.2 17.2-15.4 21.3-28.6 34.6-39.5 40-4.1 2.1-7.5 3.8-7.6 3.9s-1.3 9.1-2.8 20.1c-1.4 11-4.8 36.3-7.5 56.2-2.8 19.8-5 36.4-5 36.6 0 .8-29.4 28.2-41.4 38.6-11.8 10.2-46.2 38.1-47 38.1-.3 0-.6-.6-.6-1.2zm-57.7-58.7c14.4-3.9 21-7.3 48.4-24.8 22-14 27.9-17.3 30.8-17.3 3.4 0 3.5.1 3.5 3.9 0 2.2-.7 9.3-1.6 15.8-2.5 19.6-3.2 24.8-2.9 25.1.5.6 30.9-26.2 42.2-37.3l12.3-12 2-15c1.2-8.2 4.1-30.1 6.5-48.5 2.5-18.4 5-37.5 5.6-42.4l1.2-8.8 9.4-4.6c6.6-3.2 11.6-6.5 16.4-11 3.8-3.6 6.8-6.6 6.6-6.8-.5-.6-45.4 13.8-60.7 19.4-18.4 6.8-35.1 13.5-56.3 22.7-15.1 6.6-18.2 8.3-20.8 11.6l-3 3.8 4.8-1.5c17.3-5.3 26.2-7.4 32.1-7.4 5.6 0 6.7.3 9.2 2.8 3.4 3.4 4.5 10.8 3.6 23.4-.3 4.6-1.3 18.4-2.2 30.8-1 14.3-2.1 23.3-2.9 24.6-1.6 2.5-18.5 9.7-29.3 12.4-10.8 2.8-28.6 2.7-37.5 0-27-8.4-41.2-42.1-39.4-94 1.2-34.8 8.3-67 20.2-91.5 15.7-32.4 38.4-54.5 61.7-60 9.3-2.2 21.5-1.9 28.2.6 14.6 5.4 24.2 22.6 26.2 47 .6 6.3 1 7.9 2.2 7.7.8-.2 9.5-11.7 19.3-25.7 19.5-27.7 18.8-26.2 14.7-34.6-7.9-15.9-26.7-21.1-53.3-14.6-30.8 7.6-59 21.5-85.7 42.3-31.3 24.5-59 70.4-70.8 117.5-11.5 46.2-10.4 99.6 2.7 124.6 6.1 11.6 13.4 18.5 24.1 22.8 6.2 2.5 21.3 2 32.5-1zm50.2-55.8c3.3-.8 9.2-2.8 13.2-4.4 8.1-3.4 7.7-2.4 8.8-19.4.3-4.9.8-11.4 1.1-14.2.3-2.9.3-5.3-.1-5.3-2.1 0-69.2 21.6-70.4 22.6-.2.2.2 1.8 1 3.5 1.8 4.4 11.5 14.1 16.3 16.3 7.6 3.6 18.1 3.9 30.1.9z"/><path d="m1387.7 378.3c-8.4-1.7-14.9-4.2-24.5-9.4-23.3-12.5-39.5-33.2-49.3-63.1-5.8-17.7-6.4-23.7-6.4-63.3 0-33 .2-37 2.2-48.3 4.3-23.7 11.3-39.3 20.2-45.2 5.2-3.5 18.8-8.5 30.6-11.3 12.8-2.9 34.8-2.9 45.8.1 21.2 5.8 36.9 21.3 45.2 44.6 4.8 13.4 8.8 38 6.3 38.8-.6.2-.5 3.9 0 9.8.6 5.2.8 9.8.6 10.2-.9 1.4-26.2 9-37.4 11.3-19.9 4-18 4-18.1-.3-.1-2-.3-4.6-.4-5.8s-.5-5.4-.9-9.4c-1.5-14.8-6.8-31.2-11.9-36.7-2.8-3.1-3.5-2.9-5.4 1.4-4.2 10.3-5.7 36.6-2.8 50.8 2.3 11.2 7.6 26.4 11.6 33.2 4.6 7.8 14.4 17.4 21 20.6 13.1 6.5 30.9 7.7 56.9 4.1l4.6-.6-.2 14.8c-.1 12.3-.5 20.5-1.8 41.8-.1.5-1.9 1.5-4.1 2.3-8.3 2.9-35.3 9.2-43.9 10.3-11.5 1.4-29.3 1.1-37.9-.7zm42.5-36.3c9.5-1.8 27.7-6.4 28.3-7.2.1-.2.5-2 .8-4.2l.6-3.8-5.8.6c-6.9.8-27.2-.9-35.6-3-20.6-5-37.1-21.8-46-46.6-6-17-7.7-28.3-7.7-53.3-.1-47.4 6.7-65.7 23.6-63.1 13.9 2.3 22.6 16.6 27 44.6 1 5.7 1.9 10.6 2 10.8.5.4 11.5-2.4 19.3-4.9 7.2-2.3 7-1.4 2.6-16.9-5-17.6-16.3-33-28.7-39-16.7-8.2-39.1-7.6-62.3 1.6-3.7 1.5-8 3.6-9.6 4.6-5.2 3.7-10.3 16.3-13.9 34.2-1.9 9.6-2.3 14.4-2.3 34.6 0 15.1.5 26 1.3 30.5 5.1 27.7 18.8 52.4 36.4 65.8 10.2 7.7 24.3 14.4 33.8 16 7.5 1.3 26.6.6 36.2-1.3z"/><path d="m1171.5 298.7c-4.4-3.5-9.9-8.4-12.2-10.8-4.1-4.2-4.3-4.8-6.3-16.4-1.2-6.6-2.3-12.1-2.4-12.3-.2-.1-4.9 1.8-10.6 4.4-11.5 5-35 13.1-47.8 16.4l-8.3 2.1-6.9-2.1c-15.3-4.6-17.1-5.8-24.9-17.6-10.6-15.7-15.4-26-18.8-40.3-2.1-9.1-2.1-54.4.2-72.5 3-24.3 8-45.8 13.1-55.9 5.4-10.5 7.1-12.3 15.2-16 22.6-10.3 53.2-20.8 78.1-26.9 12-2.9 12.7-2.9 22.3-1.8 18.8 2.2 43.7 11.2 67.4 24.6 8.7 4.9 26.5 16.7 32.8 21.7l2.8 2.3-7.1 4.7c-3.9 2.6-7.1 4.9-7.1 5.1 0 .3 3.2 2.8 7.1 5.6l7 5.1-3.8 2.8c-2.1 1.5-7.9 5.5-12.9 8.9l-9.1 6.1-1.7 9.3c-3.3 19.4-4.1 27.9-4 47.3 0 20.3 1.5 31.1 4.7 34.2 1.4 1.4 12.1-.5 32.4-5.6 6.7-1.7 12.9-3.1 13.8-3.1 1.4 0 1.5 3 1.3 29.1l-.3 29.2-13 5.9c-31 14-56.1 20.8-83 22.5l-10 .6zm32-31.7c21.1-3.4 35-7.7 58-17.8l9-3.9.3-4.3c.3-3.5.1-4.2-1.2-3.7-4.6 1.8-23.8 4.7-30.8 4.7-7.7 0-8.1-.1-11.3-3.3-6.6-6.6-9.5-23.5-9.5-55.6 0-21.1 1.4-41.2 4.1-58.1 3-19 3.1-19.4 9.4-23.7 3-2.1 5.4-4 5.5-4.3 0-.3-4.7-3.4-10.4-6.8-20.9-12.6-44.7-22.3-62.8-25.7-8.6-1.6-8.7-1.6-19.5 1.1-22.7 5.5-53.7 16.2-73.4 25.2-6.4 3-6.7 3.3-10.2 10.4-7.8 15.8-13.6 47.6-13.9 76.3-.1 11.8.3 16.4 1.7 21.5 3.3 11.8 9.5 24.1 18.7 36.7 3.3 4.5 4.5 5.4 10.3 7.3 5.9 2 7.1 2.1 11.8.9 15.1-3.5 49.7-16.9 62.4-24.1 3.6-2 6.3-2.8 8.5-2.6l3.3.3 1.1 9.1c.6 4.9 1.9 13.4 2.9 18.8l1.8 9.8 8.1 6.9c9.3 8 8.6 7.8 26.1 4.9z"/><path d="m1120 211.8c-7.3-3.8-13-14.1-16.8-30.3-1.3-5.4-1.6-12-1.6-29.5.2-39.2 5.3-60.3 16.4-67.8 3.2-2.2 4.3-2.3 13.5-2 8.7.3 11.1.8 17.8 3.7 4.4 1.9 11 5.4 14.8 7.9 6.7 4.5 6.9 4.8 6.9 8.7 0 2.2-.5 7.2-1.1 11-1.5 10.7-4.7 47.7-6 70-.6 11-1.3 20.3-1.5 20.6-.9 1.5-25.5 8.9-31.4 9.4-5.6.6-7.1.3-11-1.7zm21.1-16.4 7.6-2.5.7-14.7c.6-15 1-19.7 2.6-38.1.6-5.8 1-11.3 1-12.3 0-3.3-19.5-11.6-24.5-10.4-5.8 1.5-10.8 19.5-12 43.1-.6 12.5 4.2 30.3 9.7 36.2 2.4 2.6 3 2.5 14.9-1.3z"/><path d="m577.5 252.8c.4-4.5.8-9.3 1.1-10.5.2-1.2-.1-2.3-.6-2.5-.7-.2-.6-6 .5-17.8 4.6-51.8 9.5-117.1 9.5-125.8v-5.5l-6.9.7c-3.9.4-13.7 2.4-21.9 4.4l-14.9 3.7-.7-12c-.3-6.6-.6-19.1-.6-27.8l.1-15.8 5.7-2.6c24.8-11 58.3-23.9 90.5-34.8l19.8-6.8 12.5 4.8 12.5 4.8-.1 13.6c-.1 7.5-.1 14.6-.1 15.8.1 2.1.2 2.1 6.4-.9 22.4-10.9 65.8-27.9 90.1-35.3l9-2.7 6.7 2.7c3.7 1.4 9.2 4.4 12.3 6.6l5.6 4v13.6 13.5l2.8-.7c1.5-.4 9.5-3.1 17.7-6.2 40.2-14.8 69.1-23.4 78.7-23.6 7.7-.1 19.1 5.4 24.4 11.8l3.7 4.3-.2 21.9c-.1 19.3-1.4 45.1-2.6 49.3-.2.8-.6 4.9-.9 9-.4 4.1-1.1 12.7-1.6 19-1.9 22.8-.8 34.3 3.9 40.2l1.9 2.3 13.2-3.3c7.2-1.8 18.9-5.2 26-7.4 7.2-2.3 13.3-3.8 13.7-3.4 1 .9 3.3 33.7 2.6 35-.7 1-.5 12.3.3 17.4l.5 3.3-16.4 7.8c-23 11.1-47.5 21.9-73.2 32.3l-22 8.9-8-2c-17.6-4.4-18.4-4.9-24.1-13.3-5.6-8.2-9.4-17.4-11.9-28.2-2.4-10.5-2-41.5 1-72.7 1.3-14 2.7-29.6 3.1-34.8l.7-9.4-6.7.7c-4.8.5-28.3 7.4-30.3 9-.1.1-3.9 38-6.8 68.6-.3 3-.8 7.3-1 9.5s-.9 9.9-1.5 17c-.6 7.2-1.2 14.6-1.5 16.5-.2 1.9-.7 6.5-1 10.1l-.6 6.7-10.7 3.1c-16.2 4.6-25.3 6.8-40.7 9.6-16.9 3-36.4 5.4-37 4.5-.5-.8.2-39.8 1-54.5.6-9.9 2.6-35.1 4-49.5.3-3 1-11.8 1.5-19.5.6-7.7 1.6-18.6 2.2-24.2.6-5.7.8-10.6.4-11-1.8-1.8-32.8 9.4-37.5 13.5-2 1.8-3.3 11.9-6.7 52.7-1.7 20.4-4.6 46.7-7 63.1l-1.7 11-9.6 3.7c-22.9 8.8-53.9 17.8-75.9 22.2l-3.3.7zm32.9-36.3c14.6-4.1 40.8-13.3 41.7-14.7.4-.6.9-3.5 1.3-6.6.3-3.2 1.5-13.1 2.5-22.2 1.1-9.1 2.9-27.5 4.1-41 1.9-23 4.8-51.1 5.5-53.6.5-1.8 13.8-8.8 25.5-13.4 12.4-5 21.1-7 30.1-7 8.1 0 11.3 2.1 13 8.3 1.6 5.8 1.4 21.8-.5 36.7-.8 6.9-2 19-2.6 27s-2 24.4-3 36.5c-1.1 12.1-2.2 28.2-2.6 35.8l-.7 13.7 2.9-.5c21.2-3.4 51.9-10.4 55.2-12.4.7-.4 2-9.2 3.2-23.2 4.7-51.1 10.2-103.5 10.9-104.2 1.2-1.2 23.4-9.4 30.4-11.3 3.5-1 10.4-1.7 15.9-1.8 11.1-.1 13.8 1.1 17.3 8 1.8 3.4 2 5.7 1.9 18.4-.1 8-1.4 27.3-2.9 43-3.5 36-4.1 49.8-2.5 57s6.1 17.9 10 23.5c2.7 4 3.8 4.7 10.3 6.6l7.2 2.1 15.5-6.2c21.8-8.8 46.9-19.8 72.3-31.7 9.1-4.3 9.7-4.8 9.7-7.6 0-2.3-.4-2.8-1.7-2.4-28.4 8.4-41.2 10.3-47.1 7.3-3.9-2-8.7-9.2-10.7-16-4.2-14-3.9-39.6 1-88.3 1.4-13.6 2.5-29 2.5-34.3 0-8.7-.2-9.8-2.2-11.7-3-2.7-8.2-5.3-10.7-5.3-4.6 0-35.1 8.9-53.2 15.6-40 14.7-56.7 20.4-59.7 20.4h-3.5l.7-5.7c.3-3.2.9-12.1 1.2-19.8l.6-14-5.1-2.8-5-2.8-15.3 5.2c-28.7 9.6-61 23-86.2 35.6-10 5-13.6 6.3-16.5 6.1l-3.6-.3.3-13c.1-7.1.5-16.7.8-21.1l.6-8.2-5.4-2-5.3-2-17.5 6c-22.4 7.7-41.8 15-64.7 24.5-16.7 6.9-18.3 7.7-18.3 10 0 2.2.3 2.4 2.8 1.9 8.5-1.8 22.5-3.6 27.5-3.6 14.7 0 17 6.8 14.8 44-1.2 20.2-5 71-7.6 100.5-1.9 22.1-1.9 21.8.3 21.1.9-.3 7.5-2.1 14.6-4.1z"/><path d="m320.1 214.8c4.1-10.5 5.9-15.3 5.9-16.2 0-.5-1.8-.6-4-.2l-4 .6 1.9-4.7c1-2.7 8.1-21 15.6-40.8 7.6-19.8 14.1-36.3 14.5-36.8 1.9-2.2 148-27 149.7-25.4.2.2-1.7 5.2-4.1 11.1l-4.5 10.7 4.4-.7c2.5-.3 4.5-.4 4.5-.2 0 1.8-33.2 79.3-34.2 79.8-.7.4-4.9 1.3-9.3 1.9-26.7 4-96.9 17.1-124.2 23.2-7.3 1.6-13.5 2.9-13.8 2.9-.2 0 .5-2.4 1.6-5.2zm57.9-43.3c15.7-3 39.3-7.3 52.5-9.5s24.5-4.6 25.1-5.3c1.5-1.6 19.7-45.8 19.1-46.3-.8-.9-77.3 11.8-104.7 17.4l-8.5 1.7-9.2 24c-5.1 13.1-9.3 24.1-9.3 24.3 0 .3 1.5.2 3.3-.2 1.7-.4 16-3.1 31.7-6.1z"/></g><g fill="#fe0000"><path d="m1484.8 665c-1-1.3-1.8-3.6-1.8-5.1 0-2.2-.5-2.8-3.2-3.2-7.3-1.3-26.6-2.8-31.3-2.5l-5 .3-.3 3.8c-.3 3.2-.6 3.6-1.8 2.6-1.1-.9-1.4-4.3-1.4-15.6 0-12.2.2-14.4 1.4-13.4.7.6 1.6 2.9 2 5l.6 3.8 7.7.7c4.3.4 13.1 1 19.6 1.3l11.7.6.1-2.9c0-1.6.4-3.8.8-4.9.8-1.9.8-1.9 2 .3.8 1.4 1.1 7 .9 16.9-.3 14.4-.3 14.7-2 12.3z"/><path d="m68.6 660.9c-12-2.8-24.6-14-31.6-28.1-6.6-13.6-9.1-25.2-9.7-46-.8-27.6 2.3-45.8 11.2-64.5 10.2-21.5 26.8-35.6 47-39.8 8.4-1.8 23.4-1.9 30.7-.4 12.6 2.7 22.2 11.1 25.8 22.6 2.9 9.3 2.6 11-2.6 18.4-2.5 3.5-6.3 9.4-8.5 13.1-3.5 6-4.2 6.6-6.2 5.9s-2.3-1.8-2.9-9.2c-1.7-21.6-7.9-35.3-18.3-40-10.6-4.9-24.2 1.3-31.9 14.3-15.8 27.1-17.4 83.2-3.1 112.3 7 14.4 18.1 22.4 32.2 23.3 6.2.4 8.8 0 16-2.3 4.7-1.6 12.3-4.7 16.9-7.1 4.7-2.4 8.4-3.7 8.4-3.1 0 .7-.5 2.9-1 4.9-.9 3.2-2.4 4.7-10.8 10.2-18 12-31.6 16.7-48.1 16.5-5.3-.1-11.3-.5-13.5-1z"/><path d="m446.3 659.9c-5.8-2.9-11-8.9-14.8-17.3-5.2-11.2-5.4-10 4-20.9 4.8-5.6 8.7-9.3 8.9-8.5.2.7 1.1 4.2 2 7.8 2.4 9.5 8.4 19.9 13.3 23.4 10.6 7.4 21.8 0 21.6-14.1-.1-8.1-3.1-11.8-14.3-17.8-10.6-5.6-18.2-12-21.2-17.9-3.1-5.9-3.7-21.3-1.3-30.4 3.4-12.3 18.9-32.2 28.4-36.5 6.3-2.8 15.2-2.8 20.9.2 4.2 2.2 9.8 8.7 10.7 12.5.3 1.2-1.6 7.6-4.3 14.4l-4.9 12.3-3.4-6.6c-6.1-11.9-13.5-18.5-20.9-18.5-3.5 0-8.9 4.6-9.1 7.7-.5 6.4-.4 8.2.5 11.3 1.6 5.3 8.1 11 18.9 16.5 17.5 8.9 22.9 16.4 22.9 32.3 0 16.5-7.7 30-24.6 43-11.6 8.9-24.2 11.6-33.3 7.1z"/><path d="m896.7 660.5c-9.1-2.3-16.7-12.5-20.4-27.2-1.3-5.3-1.7-11.3-1.7-26.8-.1-21.5 1.1-31.1 5-43.6 2.2-6.9 3-8.1 10.1-15.1 9.7-9.3 21.5-17.2 30-19.8 7.8-2.4 9-2.4 13.5-.5 6.7 2.7 11.4 10.4 13.3 21.6.6 3.5.4 3.8-8.6 12.2-5.1 4.8-9.6 8.7-10.1 8.7-.4 0-1-1.7-1.3-3.7-2.7-16.5-6.1-23.3-11.7-23.3-4.2 0-6.5 1.6-8.7 5.8-2.4 4.9-3.1 7.8-4.6 19.7-1.6 12.8-1.2 33 .9 41.9 2.2 9.4 7.1 18.2 11.8 21.3 7.8 5.2 20.4 2 36.5-9.2 3.5-2.5 6.6-4.5 6.8-4.5.9 0 .5 5.8-.4 8.3-1.3 3.3-18.5 18.5-28.9 25.4-13.4 8.9-21.8 11.3-31.5 8.8z"/><path d="m1090.1 659.2c-4.5-4.5-5.5-12.6-4.7-38.1.4-11.9.9-23.2 1.3-25.1.3-1.9.6-11.4.7-21.1.1-16.4 0-17.8-1.9-19.9-1.7-1.9-2.7-2.1-8-1.7-3.3.2-6.8.7-7.7 1.2-1.5.6-1.8.1-1.8-3.2 0-3.9.1-4 8.6-8.7 8.6-4.7 25.4-12.2 32.6-14.5s9.7 1.1 9.2 12.4c-.1 3.9-.5 13.1-.9 20.5-.3 7.4-1.3 20.9-2.1 30-2.2 22.7-.9 35.6 3.7 38 2 1.1 8.3-.7 16.1-4.6 2.6-1.3 5-2.4 5.4-2.4s.4 2 .2 4.5c-.6 5-1.3 5.7-16.2 16.7-10.1 7.5-28.4 18.8-30.4 18.8-.8 0-2.6-1.2-4.1-2.8z"/><path d="m1292.5 650.7c.3-6.2.8-12.3 1-13.7s.6-9.5 1-18 .8-16.6 1-18 .6-10.8.9-21c.8-25.8-.4-28.3-11.9-25.3-6.6 1.7-6.5 1.7-6.5-1.7 0-2 .9-3.9 2.5-5.4 2.5-2.3 23.6-13.6 35-18.8l6-2.7 2.4 2.2c2.3 2.2 2.3 2.4 1.7 16l-.7 13.9 6.3-4.6c15.7-11.4 31.8-22.2 37.1-24.9 5.7-3 5.8-3 9.3-1.3l3.6 1.7-.7 18.1c-.4 9.9-.8 19.3-1 20.7s-.7 11.4-1 22.1c-.8 22 .1 29.7 4.1 33.6 3.4 3.5 7.1 3 14.4-1.7 6.8-4.4 7.3-4.3 8.5 1.8.5 2.9.2 3.7-2.6 6.1-6 5-24.4 19.2-32.7 25.2-7.5 5.3-8.6 5.8-11 4.9-4-1.5-5.9-3.7-7.9-8.8-2.1-5.4-2.4-20.8-.8-49.6.6-9.9 1-23.3 1-29.8 0-11.2-.1-12-2.3-13.7-1.9-1.5-2.8-1.7-5-.9-2.8 1.1-17.5 11.4-19.3 13.5-1.1 1.4-2.4 19.9-3.5 48.9-.4 10.5-1 22.1-1.3 25.9l-.6 6.8-13.9 4.9-13.8 4.8z"/><path d="m184.5 659.2c-4.8-2.3-12.1-9.9-14.2-15-8.7-20.8-8.4-55.2.8-79.6 4.3-11.6 23.7-28.2 41.7-35.7 6.8-2.8 8.4-3.1 15.2-2.7 8.5.5 12.4 2.2 17.8 7.6 8.3 8.4 12.1 21.1 12.7 43.2.8 30.2-4.2 47.7-17.5 61.1-7.8 7.7-16.3 13.7-26.8 18.7-6.8 3.3-8.7 3.7-16.7 4-7.1.2-9.8-.1-13-1.6zm35-15.8c6.9-4.5 10.6-21.2 10.6-48.4.1-20.4-2-34-6.6-43-9.7-18.9-24.6-12-29.1 13.5-2.2 12.2-2.2 38-.1 50 2.3 12.5 3.2 15.2 6.9 21.4 5.2 8.6 11.6 10.9 18.3 6.5z"/><path d="m295.6 643.8c.7-9.5 1.5-24.2 1.9-32.8.4-8.5.9-17.1 1.1-19 .8-8.7.4-33.1-.6-35-2-3.8-4.6-4.1-14.2-1.5-2.7.7-2.8.6-2.8-3.2v-4l10.9-6.2c6-3.4 15.8-8.4 21.6-11.2l10.7-5 2.4 2.1c2.1 2.1 2.3 2.8 1.8 11.4-.2 5-.6 11.3-.9 14l-.5 4.9 2.2-1.6c1.3-.8 9.7-6.7 18.8-13.1 15.5-10.9 26.7-17.6 29.5-17.6.7 0 2.4.9 3.9 2.1l2.7 2.1-.6 12.6c-.4 7-.8 14.3-1 16.2-1.2 10.5-1.7 54.8-.6 58.5 2.6 9.5 7.9 10.8 17.8 4.4 3.5-2.3 6.5-4 6.7-3.8s.8 2.3 1.3 4.6l1.1 4.2-5.2 4.5c-2.9 2.5-12.8 10.1-21.9 17-16 12-16.8 12.4-19.9 11.5-8.9-2.5-11.3-14.1-9.4-45.9.3-6.3 1.1-19.8 1.7-30 1.1-20.4.4-25.6-3.7-27.1-2.7-1-12.3 4.5-19.4 11.1l-4.9 4.5-1.1 22.5c-.6 12.4-1.3 29.9-1.7 39-.3 10.2-1 16.9-1.7 17.6-1.1 1.2-23.8 9.4-25.9 9.4-1 0-1-3.7-.1-17.2z"/><path d="m560.9 659.2c-4.1-2-7.7-8.9-11-20.7-2.9-10.5-3.7-35.2-1.8-58.5 1.8-22.2 1.8-25.5-.1-25.6-.8 0-6.8-.2-13.3-.2-6.5-.1-11.6-.6-11.3-1.1.3-.4 3-2.7 5.9-5 4.7-3.5 6.2-4.2 11.8-4.7 11.3-1 10.6-.4 10.8-8.6.1-3.9.4-7.4.5-7.7.2-.3.7-5.5 1-11.6.4-6 .9-11.7 1.2-12.6.3-1.2 27.3-14.3 28-13.5.1 0-.4 6.6-1.1 14.6-.8 8-1.7 20.1-2.1 26.8l-.7 12.1 12.7.3 12.6.3-4.5 5.1-4.5 5.2-8.2.1c-4.5.1-8.4.4-8.7.7-.7.6-1.6 11.6-2.7 32.4-1 19.7 1.6 32.3 8.3 39.3 4.1 4.2 8.2 3.6 18.6-2.6 2.6-1.6 5-2.7 5.3-2.4s.2 2.5-.1 5c-.6 4-1.4 5.1-6.8 9.5-12.2 9.7-24.4 18.2-35.8 24.8-.3.2-2.1-.5-4-1.4z"/><path d="m635 660.3c0-.5.5-5.3 1-10.8 2.1-20.2 4.6-67.2 4.4-81.3-.2-9.5-2-14.9-4.8-13.9-.7.3-4.2.8-7.7 1.2l-6.5.7.4-3.7c.4-3.3 1.2-4.2 6.6-7.7 8-5.1 29.2-15.6 33.3-16.4 4.9-1 6.8 2.8 6.8 13.4v8.3l4-4.8c2.2-2.6 6.7-7.6 10-11.1 7.4-7.7 11.1-8.7 19.3-5.2 2.9 1.2 5.2 2.7 5.2 3.2 0 .6-2.1 8.1-4.7 16.8l-4.7 15.8-5-4.4c-6.8-5.9-10.4-7.1-15.1-4.8-2 .9-4.8 3.2-6.4 5.1-2.7 3.2-2.9 4.1-3.5 16.1-.4 7-.9 16.1-1.1 20.2-.5 7.7-.9 16.5-2.1 39.8l-.7 13.3-5.1 3c-4.9 2.8-19.1 7.9-22.2 7.9-.7 0-1.4-.3-1.4-.7z"/><path d="m802.6 659.7c-2.2-1.6-5.3-12.5-6.2-22-.3-3.9-.9-7.7-1.3-8.3-.4-.7-5.1 2.7-12.1 8.7-14.7 12.7-27.6 21.9-30.6 21.9-3.8 0-5.9-3.1-8.4-12.1-2-7-2.4-10.9-2.4-23.4-.1-14.2 1.1-39.3 2-40.6.2-.4.5-6 .6-12.5.3-16.5-1.1-18.4-13.1-18.4h-5.8v-3.5-3.6l14.1-6.9c14.4-7 28.6-13 31-13 .7 0 2.2 1 3.3 2.3l2.1 2.2-2.3 23c-4.6 45.7-4.9 52.8-2.9 61.6 3.1 13.1 7.2 14.5 18.2 6.1 6.5-4.9 7-6.4 8.6-25.3.9-9.6 1.8-23.1 2.2-30s.8-13.7.9-15 .3-5.4.4-9l.1-6.6 6-2.7c5.9-2.7 22.7-7.3 23.4-6.5.1.2-.1 4-.5 8.4s-1.1 12.3-1.5 17.5c-.3 5.2-.8 9.7-.9 10-.8 1.3-2 30.5-1.7 40.9.3 16.2 2.8 24.1 7.5 24.1 1.2 0 5.5-1.8 9.5-4s7.5-4 7.7-4c.3 0 .3 2.1.2 4.6-.2 4.4-.6 5-8.5 12.5-8.8 8.3-16.4 14.1-27.4 20.8-7.2 4.4-9.4 4.9-12.2 2.8z"/><path d="m1007.5 659.6c-4-1.7-4.7-2.8-8.4-12.3-5.3-13.9-6.4-23.7-5.7-47.7.4-11.5.8-21.2 1-21.5s.7-5.3 1.1-11.1.9-10.8 1.1-11.2c.3-.5-.1-.8-.8-.9-.7 0-2.2-.2-3.3-.4s-6.4-.5-11.8-.6c-5.3-.1-9.9-.4-10.2-.8-.7-1.2 10.1-9 13.1-9.5 1.6-.2 4.9-.5 7.4-.5 2.5-.1 5-.5 5.6-.9s1.4-4.7 1.8-9.7c1.5-20.7 2.6-30.9 3.4-31.3.4-.1 6.6-2.9 13.7-6.1 7.2-3.2 13.1-5.7 13.3-5.6.3.3-1.2 19.6-2.3 29-.2 2.2-.7 8.6-1.1 14.3l-.6 10.2h13.3 13.3l-5.3 5.4-5.3 5.3-8.1.2c-4.5.1-8.2.3-8.3.4-1.1 1-2.9 30.7-2.7 44 .2 16.9 6.3 30.7 13.6 30.7 3.5 0 10.2-2.8 14.7-6 1.5-1.1 3.1-2 3.4-2s.6 2 .6 4.5c0 4.4-.2 4.6-7.6 10.7-8.4 7-26.9 19.9-32.4 22.8-3 1.5-4 1.6-6.5.6z"/><path d="m1183 659.7c-4.9-1.6-12.7-9.7-15.5-16.1-9.1-20.6-7.9-60.3 2.6-82.2 4.8-10.1 18.5-21.7 36.1-30.6 15.1-7.7 28.9-6.2 37.8 3.9 4.7 5.4 7.3 10.6 9.7 19.3 2.5 9.1 2.5 43.9 0 55-2.6 11.3-7.7 21.1-14.9 28.7-7.3 7.5-21.1 17.1-29.5 20.4-6.7 2.6-20.6 3.5-26.3 1.6zm33-15.9c8.3-5.6 11.3-18.9 11.4-48.8 0-18.9-.3-22.6-2.3-30.6-4.9-20-15.2-28.3-24.5-19.7-7.7 7.1-11.1 23.8-10.3 50.8.9 29.2 6.3 45.2 16.7 49.4 3.8 1.5 5.4 1.3 9-1.1z"/><path d="m1484.1 620.9c-.6-1.8-1.1-4-1.1-4.9 0-1.4-1.6-2-8.2-3-9-1.5-29.2-1.9-30.4-.8-.4.4-.9 3.1-1.2 5.9-.4 4.7-.6 5-1.8 3.4-1-1.3-1.4-5-1.4-11.5v-9.7l4.8-3c4.7-3.1 30.2-24 30.2-24.9 0-.2-6.9-.4-15.4-.4h-15.5l-.6 5.5c-.6 4.6-1 5.3-2.1 4.4-1-.9-1.4-4.1-1.4-12.6 0-11.9.8-13.4 3.6-6.8 1.4 3.5 2.9 3.9 20.9 5.2 4.4.3 8.9.6 10 .8s4.4.4 7.3.4l5.2.1v5.4 5.4l-15.1 11.9c-8.4 6.5-16 12.4-17 13.2-1.1.7-1.9 1.7-1.9 2.2s6.8.9 15 .9h15l.1-3.7c0-2.1.4-4.7.8-5.8 1.7-4.3 3.1 2.1 3.1 13.9 0 11.7-.9 14.2-2.9 8.5z"/><path d="m1455.5 551.5c-6.1-2.2-13-10-15-17-2.4-8.2-1.7-21 1.3-25.3 3.5-4.9 5.8-5 10.3-.6 2.1 2 3.6 4 3.4 4.4-.3.4-2.5 1.3-4.9 1.9-8.2 2-11.1 10-6.3 17.2 6.1 9.3 25.5 10.7 33.3 2.4 5.3-5.7 6-12.5 2.5-24.4-.6-1.9-.8-3.7-.5-4 1.9-1.9 7 12 8 21.4 1.6 15.5-6.8 25.5-21.6 25.4-3.6 0-8.3-.6-10.5-1.4z"/><path d="m1099.3 511.4c-2.2-3.2-5.9-9.2-8.2-13.2l-4.3-7.3 2.5-3.2c1.4-1.8 6-7 10.3-11.5l7.9-8.4 5.1 9.4c2.8 5.1 6 10.7 7 12.5l1.9 3.2-5.7 8.3c-3.2 4.6-7.3 10.1-9.1 12.2l-3.4 4z"/><path d="m1476.2 488.5-3.2-4.5 4.2-3 4.3-3.1 2.7 3.3c1.5 1.8 2.8 4 2.8 5 0 1.5-5.3 6.8-6.8 6.8-.4-.1-2.2-2.1-4-4.5z"/><path d="m645.9 416.5c-14.9-7.7-58.9-20.4-99.7-29l-7.3-1.5-18.9 6.5c-55.3 18.8-92.6 24-121.7 17-16.6-4-32.2-14.5-37.3-25-2.3-4.8-3.1-13.3-1.7-18.7l.7-2.8h-59-59.1l.3-7.2.3-7.3 64-.3c49.3-.2 64.1-.5 64.4-1.5.2-.7 2.1-2.8 4.2-4.8 9-8.7 27.1-9.3 37.7-1.2 3.6 2.7 7.2 9.4 6.7 12.2-.2.9-.4 2.6-.4 3.9-.1 3.6-8.8 11.6-14.1 13.1-9.5 2.6-20.2 1.6-26.5-2.5-2.4-1.5-2.5-1.5-2.6.2 0 1.1-.2 2.6-.4 3.5-1 5.5 6.2 11.5 17.5 14.6 7.8 2.1 32.1 2.3 46.9.4 9.6-1.2 39.9-8.5 41.3-9.9.5-.5-9.1-2.1-21.3-3.6s-22.6-2.9-23.1-3.2c-.4-.3-.8-2-.8-3.9 0-4.1 3.9-9.1 7.9-10 3-.6 25.3 2.6 53.4 7.6l16.7 3.1 11.7-3.7c7.7-2.4 11.2-4 10.3-4.5-2.5-1.2-22.2-6-39.4-9.4l-16.1-3.3-.3-3c-.5-5.1 1.4-5.8 12-3.8 17.7 3.1 33.4 6.6 48.4 10.5l15.2 3.9 15-4.4c37.8-11 65.9-14.7 93.7-12.4 26.5 2.3 44.4 9.4 52.9 20.9 1.4 1.9 1.9 2.2 2.4 1 .3-.8 2.7-3.8 5.3-6.6 19.6-20.7 61.7-18.7 78.1 3.6l3 4 4.3-4.8c10.9-12.1 33.5-18.4 65.5-18.4 26.8.1 48.9 3.9 83.4 14.4l9.8 3 15.7-4.1c15.5-4 31.5-7.5 48.4-10.6 10.1-1.9 11.7-1.3 11.7 4v3.2l-7.2 1.2c-9.8 1.6-36.9 7.7-44.3 9.9l-6 1.9 11.8 3.8 11.8 3.8 20.7-3.7c27.8-4.9 38.9-6.6 45.7-6.9 5.3-.2 5.9 0 8.6 3.1 3.2 3.5 4.1 9.8 1.5 10.8-.7.3-11.1 1.7-23.1 3.3-12.1 1.5-21.4 3.1-20.8 3.4 2.2 1.3 31.7 8.5 40.3 9.8 11.5 1.8 38.8 1.8 46.6.1 11.4-2.6 19.4-8.6 19.4-14.6 0-4.3-1.3-4.8-6.2-2.6-13.1 5.8-29.4 2-35.9-8.3-2.6-4.1-2.2-12.1.8-16.3 5.6-7.8 20-11.4 31.9-7.9 4.7 1.3 6.9 2.7 10.5 6.6l4.7 4.9h63.6 63.6v7.5 7.5h-58.9-58.9l1 3.7c.6 2.1.7 6.2.4 9.2-2.2 18.2-21.7 31.6-52 35.7-26.9 3.7-66.8-3.5-114.8-20.7l-13.7-4.9-23.8 5.5c-42.4 9.9-66.5 17.1-82.1 24.7-4.6 2.2-8.5 3.8-8.7 3.6-.3-.3 1.2-3.1 3.3-6.4 2.1-3.2 4.1-6.4 4.4-7 .4-.6-2.1-.3-6 .7-9.5 2.4-18.6 3-26.7 1.8-18.1-2.7-30.8-9.4-37.6-19.9l-3.2-4.9-4.3 4.8c-8.4 9.4-20.2 14.7-34.9 15.7-16.2 1.2-33.2-5-42.4-15.3l-5-5.6-1.1 2.7c-1.6 4.2-10.9 12.8-17.3 15.9-13.3 6.5-33.2 8.7-46.7 5.2-3.4-.9-6.6-1.5-7-1.3-.5.2.9 3 3.1 6.3 5.8 8.8 5.6 9-4.2 4zm-14.4-15.1c-6-5-25.3-16.4-38.7-22.9l-13.7-6.7-8.5 2.8c-4.7 1.6-8.6 3.1-8.6 3.4s9.8 3.8 21.8 7.8c11.9 4 27.8 9.7 35.2 12.7 7.4 2.9 14 5.3 14.5 5.4.6 0-.3-1.1-2-2.5zm276.1-3.5c8.7-3.3 25.1-9.1 36.4-12.9 11.2-3.8 19.8-7.1 19-7.4s-4.8-1.7-8.9-3.1l-7.4-2.5-10 4.5c-12 5.4-29.8 15.6-39.3 22.5-3.8 2.8-6.6 5-6.3 5s7.8-2.7 16.5-6.1zm-275.7-7.6c-.5-5 .4-7.6 3.6-11.2 4.2-4.6 8.6-6.9 16.3-8.3 10.8-2 23.6 2.9 27.7 10.7l1.9 3.4 4.6-2.6c8.8-5 15.6-13.3 14.2-17.2-4-11.5-34.2-14.6-69.7-7.2-9.4 2-36.6 9-37.4 9.7-.1.1 3.7 2.3 8.6 4.7 9.2 4.7 26 15.4 28.3 18.2 1.6 2 2.2 1.9 1.9-.2zm290.5-17.4c9.7-5.1 9.9-5.3 7-6.1-40.8-11.7-70.9-15.5-89-11.3-19.4 4.5-20.5 14.3-2.9 25.7 5.4 3.6 6.1 3.8 7 2.2 6.2-10.7 20.2-15.4 33.9-11.4 7 1.9 14.3 9 15.2 14.7l.6 4.1 9.2-6.3c5-3.4 13.6-8.7 19-11.6zm-145.8 14.6c15.2-6.3 19.1-19.9 8.2-29-5.8-4.9-11.5-6.8-20.8-6.9-7.8-.1-9.2.2-15.3 3.2-18.5 9.1-15.4 27.8 5.6 33.7 6.3 1.8 16.8 1.3 22.3-1z"/><path d="m155.5 352.8c.4-1.2 2.5-16.9 5.6-41.2.5-4.3.8-8 .5-8.3-.2-.2-12.7 7.4-27.8 17-32.4 20.6-41.7 24.7-63.3 27.6-32.3 4.4-51.8-15.7-57-58.6-.3-2.6-.8-6.4-1.1-8.3-.6-4.1-.6-38.5 0-41.5.2-1.1.7-5.6 1.1-10 2.6-29 13.4-65.3 27.1-91 22.3-41.9 50.1-68.9 91.9-89.5 50.8-24.9 91.3-25.5 103.3-1.4 1.1 2.2 2.4 6.3 3 9l.9 5.1-17.9 25.4c-9.9 14-18.2 26-18.7 26.7-.5.9-1.9 1.1-4.8.6l-4-.6-.7-7.8c-3.5-42-28.3-59.3-61.4-42.6-19 9.6-35.9 28.7-48.7 55.1-22 45.4-26.9 117-10.4 151 15 31 40.7 38.3 78.8 22.4 5.5-2.3 10.5-4.7 11.1-5.4 1.4-1.7 1.7-3.2 2.5-15 .4-5.5.9-10.7 1-11.6.7-3.6 2-29.8 1.8-36.3-.2-7.7-2.1-11.4-6.7-13-3.5-1.3-10.2.1-31.7 6.8-9.5 3-17.5 5.3-17.7 5.1s2.6-4.2 6.2-8.8l6.6-8.5 17.7-7.7c37.8-16.5 69.2-27.9 112.2-41 10.1-3 18.6-5.4 18.8-5.1.7.7-7.5 10.2-14.4 16.7-5 4.6-9.9 7.9-16.6 11.1l-9.4 4.6-1.2 8.8c-.6 4.9-3.1 24-5.6 42.4-2.4 18.4-5.4 40.3-6.5 48.5l-2.1 15-6.7 6.8c-12 12.3-53.5 48.7-55.4 48.7-.4 0-.5-.6-.3-1.2z"/><path d="m1397.8 346.8c-26.9-2-52.5-20.8-65.8-48.3-8.1-16.7-11.5-30.3-12.9-51.5-2.1-31.8 2.2-62.9 11.2-80.7 3.1-6 5.7-8 15-11.7 23.8-9.4 51-10.1 68.3-1.6 8.6 4.2 18 14.4 23.3 25.2 4.2 8.4 9.1 25.4 9.1 31.3 0 3.2-.3 3.4-6.2 5.4-6.4 2.1-22.4 6.1-24.4 6.1-.7 0-1.8-4.6-2.8-11.1-3.4-21.7-9.9-36.9-18.3-42-9.8-6.1-16.5-3.1-21.2 9.5-5.4 14.6-7.1 56.1-3.1 77 7.1 36.7 25.5 60.7 51.5 67 8.3 2.1 25.5 3.4 34.3 2.7l7.2-.6-.1 6.1c-.1 3.4-.5 6.7-.9 7.3-.9 1.5-15.5 5.6-29 8.1-12.1 2.2-22.8 2.8-35.2 1.8z"/><path d="m1176.6 266.9c-3.9-3.1-7.8-6.5-8.8-7.5-1.6-1.9-5-18.4-6.3-31.4-.4-3.6-.9-6.9-1.2-7.3-.2-.4-2.8.6-5.6 2.2-13 7.2-43 18.8-62.6 24.1l-8 2.2-8.1-2.7c-7.4-2.5-8.4-3.1-11.8-7.8-9.1-12.5-15.3-24.7-18.8-36.7-1.5-5.3-1.8-9.8-1.7-23.5.1-30.8 5.9-63.8 14-80.3 3.5-7.1 3.8-7.4 10.2-10.4 25.7-11.8 75.9-27.8 87.2-27.8 12.1 0 35.1 7.1 55.4 17 13.8 6.8 33.5 18.4 33.5 19.9 0 .4-3.2 2.9-7 5.6-3.9 2.6-7.5 5.5-8 6.5-.9 1.7-4.4 20.3-5.4 29-2.6 22.2-3.3 52.2-1.5 71 1.2 12.9 4.2 22.5 8.4 26.7 2.9 2.9 3.9 3.3 8.7 3.3 4.4 0 15.2-1.9 32.1-5.7l2.8-.6-.3 7.8-.3 7.8-9 3.9c-27.1 11.9-48.2 17.6-72.8 19.7l-8.1.7zm-29.6-61.3 12.5-4.1.6-7.5c.3-4.1.9-14 1.3-22s.9-15.8 1.1-17.5c.2-1.6.7-6.4 1-10.5.9-11.7 2.4-25.8 3.6-34.4 1-7.5.9-7.9-1.2-9.5-6-4.4-15-9.4-22-12.1-22.1-8.5-31.9-.1-37.1 31.5-2.6 16.1-3 48.7-.6 59 3.7 16.1 9.5 26.6 16.6 30.2 5.4 2.7 7.8 2.4 24.2-3.1z"/><path d="m590.4 219.9c.7-5.6 3-32.4 4.6-53.9.5-6.9 1.2-15 1.4-18 .3-3 .8-9.3 1.1-14s.8-10.5 1-13c1-11.8 2-33.5 1.9-42.5-.1-12-1.8-16.8-7.1-19.3-3.1-1.5-4.3-1.5-15.7.2-6.8.9-14.7 2.3-17.5 3.1l-5.1 1.3v-6.3-6.3l18.3-7.5c23.5-9.8 42.6-16.9 66.4-25l19.2-6.6 6.6 2.6 6.7 2.6-.7 18.1c-.3 9.9-.8 19.3-1.1 20.8-.3 1.4-.1 2.9.5 3.2.5.4 6.8-2.2 13.8-5.8 25.8-12.9 58-26.1 87.7-36.1l16.9-5.6 5.4 2.6c2.9 1.5 5.9 3.3 6.7 4 1.4 1.5 1.3 10.9-.3 30-.4 5-.7 9.1-.6 9.2.1.3 29.7-10.3 56.5-20.1 23.8-8.8 54.2-17.1 58.7-16 4.1 1 8.4 3.3 11.4 6.1 2.6 2.4 2.6 2.5 2.2 14.6-.2 6.7-1.5 23.5-2.8 37.2-5.7 59.6-5.2 77.3 2.8 90.6 1.8 2.9 4.7 6.2 6.6 7.3 3 1.7 4 1.8 10.5.8 5.8-.9 31.8-7.8 37.2-9.9 1.1-.4 1.4.9 1.4 6.4v7l-9.7 4.6c-25.5 11.9-48 21.8-72.6 31.8l-17.2 7-8.5-2.2c-10.1-2.7-12.4-4.8-17.4-15.3-7.4-15.6-8.6-28-5.2-56.4 1.9-15.6 4.8-52.4 4.9-62.2.2-12.7-1.2-17.5-6.5-21.3-3.3-2.5-13.6-2.6-22.5-.3-6.9 1.8-29.2 10.1-30.4 11.3-.4.4-2.4 16.8-4.3 36.3-3.9 39-3.9 38.7-6.1 64.5-.9 9.9-1.8 19.1-2 20.5s-.4 3.3-.4 4.2c-.1 1.2-2.1 2.3-7.2 3.8-10.2 3.1-26.4 6.6-40.4 8.9-17.7 3-18 3-17.9.6.1-1.1.4-9.6.8-19 .4-9.3.9-17.9 1.1-19s.6-5.1.9-9c.3-3.8 1-12.2 1.6-18.5.5-6.3 1.4-17.8 2-25.5s1.8-19.6 2.6-26.5c3.4-28.2.9-39-9.1-39-9.6 0-33.1 8-46.5 15.8l-6.5 3.8-1.1 10c-.6 5.4-1.4 12.8-1.8 16.4s-.9 8.1-1.1 10-.7 7.1-1 11.5c-1 14.8-1.6 20.9-4 42.5-2.8 25.1-4 33.9-4.6 34.4-2.7 2.3-50.4 17.2-61.3 19.2l-3.9.7z"/><path d="m337.1 182.3c0-.5 4.9-13.2 10.7-28.3l10.7-27.5 11.5-2.3c34.2-6.7 109.5-19 110.5-18 .7.7-20.2 51.7-21.9 53.5-.6.7-10.8 2.9-22.6 4.8-23.1 3.9-73.9 13.4-88.5 16.5-10 2.2-10.5 2.3-10.4 1.3z"/></g></svg>