<?xml version="1.0" encoding="utf-8"?>
<!DOCTYPE svg PUBLIC "-//W3C//DTD SVG 1.0//EN" "http://www.w3.org/TR/2001/REC-SVG-20010904/DTD/svg10.dtd">
<svg version="1.0" xmlns="http://www.w3.org/2000/svg" width="1200px" height="256px" viewBox="0 0 1200 256" preserveAspectRatio="xMidYMid meet">
 <g fill="#000000">
  <path d="M1086 251.5 c-1.8 -5.4 -1.1 -6.4 6.3 -8.9 7.7 -2.6 11.2 -5.4 12.8 -10.5 0.6 -2 4.7 -12.5 9 -23.3 l7.8 -19.7 -4 -8.8 c-21.1 -45.7 -43.5 -93.2 -46.9 -99.3 -5.1 -9.3 -7.3 -11.7 -13 -14.4 -4.8 -2.2 -5.1 -3.1 -2.8 -8.8 l1 -2.8 32.9 0 32.8 0 1 3.8 c0.6 2 1.1 4.2 1.1 4.8 0 0.6 -3.9 1.9 -8.6 2.9 -4.7 1 -10 2.8 -11.7 4 -2.9 1.9 -3.2 2.6 -3 6.6 0.1 2.5 2.2 9.9 5.1 17.4 6.2 16.2 25.1 61.7 26.1 62.8 0.8 0.9 21.9 -51.3 25 -61.8 1.1 -3.8 2.5 -10.1 3.1 -13.9 0.9 -5.8 0.8 -7.2 -0.5 -9.2 -1.9 -3 -6 -5.1 -12.5 -6.5 -5.5 -1.2 -5.9 -2 -3.9 -7.8 l1.1 -3.1 26.2 0.2 26.1 0.3 1.1 4.5 1.1 4.5 -4.2 1 c-6 1.6 -10.8 4.9 -13.2 9.2 -1.2 2.1 -10 25.9 -19.7 52.8 -21.2 59.6 -41.7 115.7 -44.4 121.7 -2.4 5.4 -3.7 5.8 -19.2 5.8 l-10.8 0 -1.2 -3.5z"/>
  <path d="M942.7 252.5 c-16.6 -3.3 -26.7 -11.7 -29.6 -24.5 -1.7 -7.8 0.2 -13.5 6.8 -20 5.2 -5.2 15.1 -11 18.7 -11 0.8 0 2.4 0.5 3.5 1.1 1.9 1 1.9 1.2 -1.5 4.9 -8.2 9.1 -6.6 23.6 3.3 30.4 6.5 4.5 11.8 5.8 25.2 6.4 28.1 1 47.9 -7.8 52.5 -23.5 1.7 -5.9 1.2 -11.1 -1.7 -15.8 -4.3 -7.2 -13.1 -9.3 -43.9 -10.5 -24.6 -1 -33.6 -2.4 -39.7 -6.1 -5.2 -3.2 -10.2 -9.9 -11.9 -15.7 -1.6 -5.3 -1.6 -5.4 0.8 -7.9 2.9 -3.2 13.3 -10 21.8 -14.3 l6.4 -3.2 -6.3 -2.3 c-32.1 -11.7 -40.3 -48.5 -16.2 -72.6 15.1 -15.1 39.6 -21.1 61.8 -15.1 7.2 1.9 10.8 2.2 27.8 2.2 l19.5 0 1 2.6 c2.3 6 1.6 6.9 -6.5 8.7 -8.2 1.8 -14.4 4.3 -15.2 6.3 -0.2 0.6 0.7 3.4 2.1 6.1 3.9 7.7 5.2 15.9 3.9 24.2 -3.8 24.6 -23.5 39.6 -54.6 41.7 -11 0.7 -15.2 2.2 -20 7 -2.2 2.2 -2.7 3.5 -2.5 6.2 0.6 7.3 6.1 8.8 38.8 10.2 24.2 1.1 34.2 2.6 42.3 6.3 11.4 5.2 16 12.3 16 24.1 0 22.8 -18.3 42.1 -48.3 51 -15 4.5 -40.1 5.9 -54.3 3.1z m37.5 -122.1 c13.7 -4.6 22.1 -21.8 18.9 -38.8 -3.9 -21 -19.2 -32.5 -36.3 -27.4 -6 1.8 -13 8.6 -16.3 16 -4 8.9 -4.7 23.6 -1.6 31.9 5.9 15.5 20.9 23.3 35.3 18.3z"/>
  <path d="M284 141.3 c-12.2 -28.5 -23.7 -55 -25.5 -58.8 -3.9 -8.6 -8.6 -14.1 -13.7 -16.2 -4.1 -1.6 -4.7 -3.7 -2.8 -8.7 l1 -2.6 30.8 0 30.9 0 1.1 2.5 c1.1 2.5 1.7 7.5 0.8 7.5 -0.2 0 -3.9 0.7 -8.2 1.6 -13.8 2.8 -16.3 5.2 -13.9 12.9 2.5 8.4 33.9 81.5 34.6 80.8 1.5 -1.6 24.9 -76.7 25.5 -81.8 0.6 -4.8 0.4 -5.6 -1.9 -7.9 -1.5 -1.4 -5.2 -3.3 -8.6 -4.2 -6.6 -1.9 -7.3 -3.1 -5.1 -8.8 l1 -2.6 24.4 0 24.4 0 1.1 3.1 c1.8 5.3 1.4 6.5 -2.9 7.8 -5 1.5 -9.6 5.3 -12 10 -1 2.1 -5.5 14 -10 26.7 -11.8 33.1 -25.8 70 -29.1 76.5 -3 6 -7.4 10.4 -12.6 12.6 -6.7 2.8 -5.2 5.4 -29.3 -50.4z"/>
  <path d="M720.2 191 c-17.5 -4.6 -31.5 -15.7 -39.1 -31.1 -5.2 -10.6 -7.1 -19.4 -7.1 -33.6 0 -23.9 7.5 -43 23 -58.4 17.7 -17.6 42.1 -22.6 62.5 -12.9 16.3 7.8 26.5 26.1 28.4 51.3 l0.6 8.7 -44.4 0 -44.4 0 0.7 7.8 c2.5 27.7 15.8 44.9 38.4 49.3 11.3 2.1 31.5 -0.6 43.7 -6 2.4 -1 4.6 -1.7 4.9 -1.3 1.7 1.6 0.4 8.2 -2 11.2 -3.4 4 -20.5 12.4 -30.8 15 -10.3 2.6 -24.4 2.6 -34.4 0z m13.3 -86.4 l27 -4.2 0.3 -4.8 c0.2 -2.9 -0.5 -7.6 -1.8 -11.8 -4.1 -13.6 -15.2 -20.9 -29.4 -19.4 -17.8 1.8 -26.9 13.7 -29.1 38.3 l-0.7 7.2 3.4 -0.5 c1.8 -0.3 15.5 -2.5 30.3 -4.8z"/>
  <path d="M4.2 188.3 c-0.5 -1 -1.2 -3.2 -1.5 -4.9 -0.6 -3.1 -0.5 -3.2 4.1 -4.4 7 -1.7 10.8 -4.5 13.4 -9.8 l2.3 -4.7 0.3 -70.5 c0.2 -51.4 0 -71.2 -0.9 -73.2 -1.6 -3.8 -6.2 -6.4 -14 -7.9 l-6.6 -1.2 0.7 -3.6 c1.6 -7.7 -1.3 -7.1 33.6 -7.1 34.9 0 32.5 -0.5 33.9 7.1 l0.7 3.6 -4.8 1.2 c-6.3 1.6 -9.9 4.3 -12.7 9.4 l-2.2 4.2 -0.3 71.5 c-0.1 39.3 0 72.5 0.3 73.7 0.7 3.1 3.1 4.1 14.8 6.4 5.5 1.1 10.3 2.2 10.5 2.4 0.3 0.2 -0.1 2.5 -0.8 5 l-1.3 4.5 -34.3 0 c-31.7 0 -34.4 -0.1 -35.2 -1.7z"/>
  <path d="M96.4 188.9 c-0.4 -0.6 -1 -2.6 -1.4 -4.4 l-0.7 -3.2 6 -1.7 c7.1 -2 12 -6.3 13.6 -12.1 0.7 -2.6 1.1 -18.3 1.1 -45 0 -37.1 -0.2 -41.3 -1.8 -44.4 -2.5 -5 -5.9 -7 -12.9 -7.7 -6.5 -0.7 -7.3 -1.4 -7.3 -7.4 0 -2.5 0.3 -2.6 11.2 -4.4 6.2 -0.9 15.9 -3.2 21.5 -5 9.4 -3.1 10.3 -3.2 11.7 -1.7 2.2 2.4 3.6 6.8 3.6 11.2 0 2.1 0.2 3.9 0.5 3.9 0.4 0 4.3 -2.2 8.9 -5 4.5 -2.7 11.4 -6.4 15.2 -8.2 6.1 -2.9 7.9 -3.3 14.9 -3.2 26 0.3 42.4 12 46.5 33.4 0.6 3 1 23 1 46.6 0 22.7 0.3 42 0.6 42.9 1 2.4 5.2 4.2 14.4 5.9 4.6 0.9 8.5 1.8 8.7 2 0.2 0.2 -0.2 2.1 -0.9 4.2 l-1.3 3.9 -32.4 0.3 c-18.1 0.1 -32.9 -0.2 -33.4 -0.7 -0.5 -0.5 -1.2 -2.4 -1.6 -4.4 l-0.8 -3.4 5.7 -1.6 c7.9 -2.2 11.6 -5.6 13.6 -12.3 1.3 -4.6 1.5 -10.9 1.2 -41.6 -0.5 -41.3 -0.8 -43.6 -7.9 -51.3 -5.3 -5.8 -11.2 -8 -20.9 -8 -8.3 0.1 -15.4 2.5 -25.5 8.6 l-5.5 3.3 0 47.7 0 47.8 2.5 1.9 c1.4 1.2 6.2 2.7 11.2 3.6 4.7 0.9 8.9 1.8 9.1 2.1 0.3 0.3 0 2.3 -0.7 4.5 l-1.2 4 -32.9 0 c-23.2 0 -33.1 -0.3 -33.6 -1.1z"/>
  <path d="M514.1 186.9 c-1.7 -5 -1.4 -5.6 3.7 -6.9 6.7 -1.7 10.9 -4.6 13.5 -9.4 2.2 -4.1 2.2 -4.6 2.2 -47.1 0 -41.5 -0.1 -43.1 -2.1 -46.5 -2.4 -4.3 -5.5 -5.8 -13.1 -6.8 l-5.8 -0.7 -0.3 -4.7 -0.3 -4.6 5.8 -0.7 c7.8 -0.9 22.2 -4.2 30.5 -7.1 l6.7 -2.3 2 3.2 c1.1 1.8 2.3 5.6 2.7 8.5 0.3 2.8 0.8 5.2 1 5.2 0.2 0 2.9 -1.6 5.9 -3.5 7.6 -4.9 23 -12.3 27.2 -13.1 1.9 -0.4 7.5 -0.1 12.4 0.5 20.8 2.7 32.4 10.9 38 27.1 2.2 6.3 2.3 7.8 2.7 51 0.3 38.1 0.6 44.7 1.9 46.2 1.3 1.5 5.5 2.7 18.1 5.3 3.5 0.7 4.1 2.5 2 7 l-1.1 2.5 -32.8 0 -32.7 0 -1.1 -3.1 c-1.7 -5 -1.4 -5.6 3.7 -6.9 7 -1.7 10.8 -4.5 13.4 -9.8 2.3 -4.6 2.3 -5.1 2.3 -40.2 0 -39 -0.6 -44.6 -5.6 -52.5 -5.5 -8.7 -16.9 -13 -28.8 -10.7 -5.8 1 -17.6 6.3 -23.3 10.3 l-2.8 2 0 45.3 c0 29.6 0.4 46.4 1.1 48.4 1.2 3.6 5.1 5.4 15.5 7.1 l7.2 1.2 -0.8 3.4 c-0.4 1.8 -1 3.8 -1.4 4.4 -0.5 0.8 -10.4 1.1 -33.6 1.1 l-32.8 0 -1.1 -3.1z"/>
  <path d="M806.4 188.9 c-0.4 -0.6 -1 -2.6 -1.4 -4.4 -0.7 -3.2 -0.7 -3.3 3.7 -4.5 2.4 -0.7 6.3 -2.6 8.7 -4.2 7.6 -5 7.6 -4.9 7.6 -52.3 0 -35.9 -0.2 -42 -1.6 -45.5 -2 -4.9 -5.2 -6.8 -13.3 -7.6 -6.3 -0.7 -7.1 -1.5 -7.1 -7.6 0 -2.4 0.4 -2.7 5.3 -3.3 7 -0.8 25.1 -5.3 30.8 -7.6 4.4 -1.7 4.8 -1.7 6.2 -0.1 2.7 3.1 3.5 5.7 4.2 13 l0.8 7.2 5.9 -5.3 c8.7 -7.7 18.6 -14.6 22.8 -15.8 6.2 -1.9 19 2.6 26.6 9.3 3.4 3 3.5 3.4 2.9 7.7 -1.5 10 -8.2 19.9 -15.2 22.2 -4.3 1.4 -5.9 0.8 -6.7 -2.8 -1.1 -4.4 -5.3 -10.1 -8.8 -11.9 -7 -3.6 -17.6 0.3 -23.8 8.8 l-3 4.1 0 42.7 c0 39.7 0.1 42.8 1.8 44.3 1.1 1 6.5 2.4 14.1 3.6 6.8 1.1 12.6 2.2 12.9 2.5 0.3 0.3 0 2.4 -0.7 4.6 l-1.2 4 -35.4 0 c-25 0 -35.6 -0.3 -36.1 -1.1z"/>
 </g>
 <g fill="#118751">
  <path d="M429.6 191.4 c-22.1 -5.3 -39.2 -22.5 -45.3 -45.4 -1.3 -4.8 -1.7 -10.1 -1.7 -20.5 0.1 -12.1 0.5 -15.2 2.8 -22.8 9.3 -30.9 29.9 -49.9 56.6 -52.2 14.8 -1.3 29.8 4.1 38.8 14 8.7 9.5 14.5 25 15.9 42.2 l0.6 8.3 -44.3 0 -44.3 0 0.6 8.8 c1.4 21.4 11 37.4 26.8 44.7 13.8 6.3 29.6 6 50.2 -0.9 l9.8 -3.2 0.5 2.2 c1.2 4.8 -1.5 9.4 -7.8 13.5 -6.4 4.1 -18.1 9 -27.5 11.4 -7.2 1.9 -23.8 1.8 -31.7 -0.1z m9.9 -86.4 c34.6 -5.3 30.9 -3.9 30.1 -11 -1.6 -13.8 -6.7 -22.9 -15.3 -27.1 -4 -2 -6.3 -2.4 -13.3 -2.3 -9.9 0.1 -14.2 1.7 -20.4 7.4 -7.1 6.5 -11.6 19.5 -11.6 33.3 0 4.4 0.2 4.7 2.3 4.2 1.2 -0.3 13.9 -2.3 28.2 -4.5z"/>
 </g>
</svg>