<?xml version="1.0" encoding="UTF-8"?>
<!-- Generated by Pixelmator Pro 3.6.15 -->
<svg width="280" height="77" viewBox="0 0 280 77" xmlns="http://www.w3.org/2000/svg">
    <path id="Path" fill="#fefefe" stroke="none" d="M 279.460022 77 L 0.109985 77 L 0.040009 0.230003 C 0.040009 0.083336 0.116669 0.010002 0.269989 0.010002 L 278.950012 0.010002 C 279.25002 0.010002 279.400024 0.156667 279.400024 0.449997 L 279.460022 77 Z M 74.480011 1.870003 C 74.480011 1.566246 74.233765 1.32 73.929993 1.32 L 1.350006 1.32 C 1.046234 1.32 0.799988 1.566246 0.799988 1.870003 L 0.799988 74.449997 C 0.799988 74.753754 1.046234 75 1.350006 75 L 73.929993 75 C 74.233765 75 74.480011 74.753754 74.480011 74.449997 L 74.480011 1.870003 Z M 233.820007 14.510002 L 232.190002 12.870003 C 232.028564 12.712158 231.959045 12.482742 232.005615 12.261833 C 232.052246 12.040924 232.208557 11.859161 232.419983 11.779999 C 234.440002 11.013331 236.140015 9.863332 237.52002 8.330002 C 239.590027 6.029999 239.419983 3.07 236.02002 2.209999 C 230.429993 0.809998 222.380005 4.230003 225.030029 11.330002 C 225.136678 11.623337 225.043335 11.823336 224.75 11.93 C 222.143351 12.843333 220.196676 14.24 218.909973 16.120003 C 216.809998 19.190002 217.669983 22.279999 221.5 22.989998 C 225.126668 23.670001 228.696676 23.006668 232.210022 21 C 232.509989 20.826665 232.783325 20.863332 233.030029 21.110001 L 234.869995 22.950001 C 235.25 23.330001 235.633341 23.330001 236.02002 22.950001 L 239.289978 19.68 C 239.543315 19.420001 239.519979 19.19 239.219971 18.989998 L 237.630005 17.93 C 237.469421 17.820484 237.366272 17.644848 237.348816 17.451256 C 237.331421 17.25766 237.40155 17.066429 237.539978 16.93 L 239.780029 14.68 C 239.882568 14.579689 239.921814 14.431137 239.882141 14.293251 C 239.842407 14.155361 239.730225 14.050407 239.590027 14.02 L 235.880005 13.200001 C 235.589294 13.138245 235.288757 13.260826 235.119995 13.510002 L 234.48999 14.439999 C 234.296672 14.733334 234.073344 14.756668 233.820007 14.510002 Z M 105.170013 18.25 C 105.219055 18.111309 105.197205 17.957401 105.111511 17.83783 C 105.025818 17.718258 104.887085 17.648121 104.73999 17.650002 L 96.209991 17.650002 C 96.065369 17.650749 95.929199 17.581936 95.843994 17.46505 C 95.75882 17.348164 95.735016 17.197456 95.779999 17.059998 L 100.589996 2.900002 C 100.63501 2.762543 100.611176 2.611839 100.526001 2.494949 C 100.440796 2.378067 100.304626 2.30925 100.160004 2.309998 L 95.170013 2.309998 C 94.978241 2.313278 94.809631 2.437729 94.75 2.620003 L 88.079987 22.220001 C 88.035004 22.357456 88.058807 22.508163 88.144012 22.62505 C 88.229187 22.741936 88.365356 22.810753 88.51001 22.809998 L 103.290009 22.809998 C 103.479126 22.808205 103.646973 22.688332 103.709991 22.510002 L 105.170013 18.25 Z M 114.670013 2.300003 C 114.453217 2.297279 114.259369 2.434586 114.190002 2.639999 L 107.559998 22.139999 C 107.508087 22.293659 107.533936 22.462955 107.629333 22.594124 C 107.724731 22.725296 107.877808 22.802048 108.040009 22.799999 L 112.910004 22.799999 C 113.126801 22.802723 113.320648 22.665413 113.390015 22.459999 L 120.019989 2.959999 C 120.071899 2.806343 120.046082 2.637047 119.950684 2.505875 C 119.855286 2.374702 119.702179 2.297958 119.540009 2.300003 L 114.670013 2.300003 Z M 129.109985 13.639999 C 131.383321 19.053335 132.579997 21.890002 132.700012 22.150002 C 132.893331 22.576668 133.07666 22.793334 133.25 22.799999 L 137.25 22.82 C 137.643331 22.82 137.90333 22.633334 138.029999 22.260002 L 144.579987 2.989998 C 144.726654 2.543332 144.566661 2.32 144.100006 2.32 L 140.529999 2.32 C 140.103343 2.32 139.820007 2.523333 139.679993 2.93 L 135.839996 14.369999 C 135.620005 15.016666 135.343343 15.016666 135.01001 14.369999 C 134.903341 14.176668 134.49 13.216667 133.769989 11.489998 C 131.496653 6.076668 130.299988 3.240003 130.179993 2.980003 C 129.986674 2.553332 129.803345 2.336665 129.630005 2.330002 L 125.630005 2.309998 C 125.236674 2.309998 124.976674 2.496666 124.850006 2.870003 L 118.299988 22.139999 C 118.15332 22.586665 118.313324 22.809998 118.779999 22.809998 L 122.350006 22.809998 C 122.776662 22.809998 123.059998 22.606665 123.200012 22.200001 L 127.040009 10.760002 C 127.26 10.113335 127.539998 10.113335 127.880005 10.760002 C 127.980001 10.953336 128.389994 11.913335 129.109985 13.639999 Z M 142.380005 22.16 C 142.253337 22.533334 142.386668 22.726667 142.779999 22.739998 C 151.880005 23.059998 160.670013 23.809998 164.519989 13.489998 C 169.350006 0.550003 158.920013 2.07 149.579987 2.470001 C 149.233327 2.483332 149.003337 2.653333 148.890015 2.980003 L 142.380005 22.16 Z M 182.730011 18.75 C 182.774689 18.616951 182.753204 18.470566 182.67218 18.355957 C 182.591156 18.241348 182.460327 18.172272 182.320007 18.169998 L 172.73999 18.169998 C 172.59967 18.167732 172.468842 18.098648 172.387817 17.984039 C 172.306793 17.869431 172.285339 17.723053 172.329987 17.59 L 173.410004 14.400002 C 173.47049 14.219765 173.639893 14.098763 173.829987 14.099998 L 182.950012 14.099998 C 183.140106 14.101238 183.309509 13.980236 183.369995 13.799999 L 184.640015 10.050003 C 184.684662 9.916946 184.663208 9.770569 184.582184 9.65596 C 184.50116 9.541351 184.370331 9.472267 184.230011 9.470001 L 175.73999 9.470001 C 175.5979 9.470924 175.464111 9.403168 175.380768 9.288071 C 175.297424 9.172981 175.27478 9.024719 175.320007 8.889999 L 175.890015 7.220001 C 175.94931 7.043228 176.113586 6.923035 176.299988 6.919998 L 185.929993 6.919998 C 186.120117 6.921234 186.28949 6.800232 186.349976 6.620003 L 187.609985 2.889999 C 187.654663 2.75695 187.633179 2.610565 187.552185 2.495956 C 187.471191 2.381348 187.340332 2.312271 187.200012 2.309998 L 171.959991 2.309998 C 171.769897 2.308762 171.600494 2.429764 171.540009 2.610001 L 164.880005 22.220001 C 164.835327 22.35305 164.856812 22.499435 164.937805 22.61404 C 165.018829 22.728649 165.149658 22.797729 165.290009 22.799999 L 181.040009 22.799999 C 181.230103 22.801239 181.399506 22.680237 181.459991 22.5 L 182.730011 18.75 Z M 202.849976 13.459999 C 206.329997 12.333336 208.426676 10.250003 209.140015 7.209999 C 209.960022 3.650002 207.590027 2.660004 204.48999 2.459999 C 200.590007 2.213331 196.540019 2.203331 192.340027 2.43 C 192.166748 2.435211 192.014648 2.551292 191.960022 2.720001 L 185.26001 22.43 C 185.180013 22.676666 185.266683 22.799999 185.52002 22.799999 L 190.75 22.799999 C 190.963338 22.799999 191.103333 22.696665 191.169983 22.489998 L 193.640015 15.239998 C 193.73822 14.948864 193.984497 14.729103 194.289978 14.66 C 195.923319 14.306667 196.956665 14.956668 197.390015 16.610001 C 198.01001 19.01 198.5 20.976667 198.859985 22.510002 C 198.906657 22.709999 199.033325 22.809998 199.23999 22.809998 L 205.02002 22.809998 C 205.093872 22.810951 205.164368 22.779198 205.212585 22.723255 C 205.260803 22.667313 205.281799 22.592911 205.27002 22.52 C 204.563354 18.413334 203.686686 15.59 202.640015 14.049999 C 202.446655 13.763332 202.516642 13.566666 202.849976 13.459999 Z M 115.470001 30.739998 C 116.003326 29.593333 117.036662 29.206668 118.570007 29.580002 C 118.990011 29.68 119.253337 29.843333 119.359985 30.07 C 119.426656 30.209999 119.519999 30.363332 119.640015 30.529999 C 119.766663 30.709999 119.933329 30.799999 120.140015 30.799999 L 124.679993 30.799999 C 125.073324 30.799999 125.293325 30.6 125.339996 30.200001 C 126.059998 23.580002 116.850006 25.099998 113.350006 26.91 C 110.579987 28.349998 107.76001 33.02 111.910004 34.93 C 113.303335 35.57 114.936666 36.073332 116.809998 36.439999 C 117.28894 36.534901 117.680267 36.879269 117.835297 37.342266 C 117.990326 37.805267 117.885254 38.315838 117.559998 38.68 C 116.853333 39.459999 115.716665 39.753333 114.149994 39.560001 C 113.6875 39.500473 113.257904 39.243675 113.028992 38.889889 C 112.800079 38.536102 112.808136 38.141438 113.049988 37.860001 C 113.089986 37.813334 113.059987 37.716667 112.959991 37.57 C 112.866669 37.436666 112.736674 37.369999 112.570007 37.369999 L 107.820007 37.369999 C 107.475281 37.371326 107.184967 37.623222 107.140015 37.959999 C 106.769989 40.439999 107.130005 42.610001 110.040009 43.330002 C 114.970001 44.560001 121.079987 43.169998 123.220001 38.07 C 125.25 33.220001 119.140015 32.43 115.970001 31.740002 C 115.758209 31.693043 115.578888 31.553097 115.481873 31.359066 C 115.384857 31.165035 115.380493 30.937607 115.470001 30.739998 Z M 133.380005 30.739998 C 133.91333 29.593333 134.946665 29.206668 136.480011 29.580002 C 136.899994 29.68 137.16332 29.843333 137.269989 30.07 C 137.33666 30.209999 137.429993 30.366666 137.549988 30.540001 C 137.676656 30.719999 137.846659 30.809998 138.059998 30.809998 L 142.600006 30.82 C 142.993337 30.82 143.213338 30.62 143.26001 30.220001 C 143.98999 23.59 134.769989 25.099998 131.269989 26.900002 C 128.48999 28.34 125.670013 33.009998 129.809998 34.93 C 131.203328 35.57 132.839996 36.073332 134.720001 36.439999 C 135.201141 36.535648 135.593506 36.882999 135.746765 37.348999 C 135.900024 37.815002 135.790436 38.327431 135.459991 38.689999 C 134.753326 39.47 133.613332 39.760001 132.040009 39.560001 C 131.578003 39.500065 131.148956 39.243191 130.920105 38.889538 C 130.691284 38.535885 130.698914 38.141441 130.940002 37.860001 C 130.980001 37.813334 130.950002 37.716667 130.850006 37.57 C 130.763336 37.436666 130.636668 37.369999 130.470001 37.369999 L 125.720001 37.360001 C 125.375275 37.361309 125.084961 37.613209 125.040009 37.950001 C 124.660004 40.43 125.019989 42.599998 127.920013 43.32 C 132.859985 44.560001 138.970001 43.18 141.119995 38.080002 C 143.160004 33.240002 137.049988 32.43 133.880005 31.740002 C 133.668213 31.693043 133.488892 31.553097 133.391876 31.359066 C 133.294861 31.165035 133.290497 30.937607 133.380005 30.739998 Z M 162.250885 27.447098 C 160.913727 25.847855 158.732544 25.06562 156.187164 25.272472 C 153.641785 25.479324 150.940735 26.658325 148.678192 28.550102 C 143.966736 32.489491 142.404633 38.382664 145.189087 41.712898 C 146.526276 43.312141 148.707458 44.094379 151.252838 43.887527 C 153.798218 43.680676 156.499268 42.501678 158.76181 40.609901 C 163.473236 36.670509 165.03537 30.777336 162.250885 27.447098 Z M 169.829987 38.650002 C 169.779999 35.549999 171.709991 28.129997 176.390015 29.68 C 176.75 29.800001 176.959991 30.050001 177.019989 30.43 L 177.160004 31.310001 C 177.213328 31.656668 177.416656 31.803335 177.769989 31.75 L 182.549988 30.989998 C 182.889994 30.936666 183.059998 30.74 183.059998 30.400002 C 183.053324 28.100001 182.099996 26.633334 180.200012 26 C 171.940002 23.239998 164.980011 30.120003 164.410004 38.259998 C 164.200012 41.240002 165.820007 43.139999 168.799988 43.59 C 173.706665 44.330001 177.553335 42.570001 180.339996 38.310001 C 180.431458 38.173294 180.452942 38.001434 180.398102 37.844791 C 180.343292 37.688152 180.218384 37.564472 180.059998 37.509998 L 176.779999 36.400002 C 176.279999 36.226667 175.873332 36.353333 175.559998 36.779999 C 174.190002 38.630001 172.899994 40.360001 170.369995 39.419998 C 170.05014 39.300644 169.835907 38.995167 169.829987 38.650002 Z M 255.219971 30.73 C 255.753337 29.583335 256.786682 29.196668 258.320007 29.57 C 258.740011 29.670001 259.003337 29.833333 259.109985 30.059998 C 259.176676 30.199999 259.27002 30.353334 259.390015 30.52 C 259.516683 30.700001 259.686686 30.790001 259.900024 30.790001 L 264.440002 30.790001 C 264.833354 30.790001 265.053345 30.590001 265.099976 30.190002 C 265.820007 23.559998 256.599976 25.09 253.099976 26.900002 C 250.330017 28.34 247.51001 33.02 251.659973 34.93 C 253.053324 35.57 254.690002 36.07 256.570007 36.43 C 257.052856 36.5228 257.448059 36.869015 257.603516 37.335487 C 257.759033 37.80196 257.650635 38.31604 257.320007 38.68 C 256.613342 39.459999 255.473348 39.753333 253.900024 39.560001 C 253.4375 39.500473 253.007935 39.243675 252.778992 38.889889 C 252.550049 38.536102 252.558105 38.141438 252.799988 37.860001 C 252.839986 37.813334 252.809998 37.716667 252.710022 37.57 C 252.616679 37.436666 252.486674 37.369999 252.320007 37.369999 L 247.570007 37.369999 C 247.225281 37.371342 246.934998 37.623234 246.890015 37.959999 C 246.52002 40.439999 246.880005 42.610001 249.789978 43.330002 C 254.72998 44.560001 260.840027 43.169998 262.97998 38.060001 C 265.01001 33.209999 258.900024 32.419998 255.719971 31.73 C 255.50824 31.683041 255.328857 31.543095 255.231873 31.349064 C 255.134827 31.155037 255.130493 30.927605 255.219971 30.73 Z M 98.959991 40.830002 L 98.850006 42.52 C 98.810008 43.04 99.053335 43.299999 99.579987 43.299999 L 104.01001 43.290001 C 104.450012 43.290001 104.670013 43.070001 104.670013 42.630001 L 104.769989 26.43 C 104.769989 26.050001 104.579997 25.860001 104.200012 25.860001 L 97.929993 25.849998 C 97.623332 25.849998 97.386668 25.973333 97.220001 26.220001 L 86.26001 42.610001 C 86.175964 42.745773 86.170227 42.916378 86.245026 43.055603 C 86.319855 43.194824 86.463409 43.280739 86.619995 43.279999 L 90.899994 43.299999 C 91.419993 43.299999 91.806661 43.073332 92.059998 42.619999 L 93.109985 40.689999 C 93.283325 40.369999 93.549998 40.209999 93.910004 40.209999 L 98.359985 40.189999 C 98.793335 40.189999 98.993337 40.403333 98.959991 40.830002 Z M 188.320007 25.830002 C 188.116577 25.828022 187.934937 25.957176 187.869995 26.150002 L 182.26001 42.669998 C 182.211426 42.81419 182.235657 42.972965 182.325043 43.0961 C 182.414398 43.219231 182.557861 43.291485 182.709991 43.290001 L 187.159973 43.290001 C 187.363464 43.291981 187.545105 43.162823 187.609985 42.970001 L 193.22998 26.450001 C 193.278564 26.305809 193.254333 26.147034 193.164978 26.023903 C 193.075562 25.900768 192.932129 25.828514 192.780029 25.830002 L 188.320007 25.830002 Z M 197.340027 40.419998 C 197.430908 40.282318 197.585022 40.199631 197.75 40.200001 L 202.359985 40.200001 C 202.630615 40.200001 202.849976 40.41938 202.849976 40.689999 L 202.849976 42.799999 C 202.849976 43.070618 203.069397 43.290001 203.340027 43.290001 L 208.179993 43.290001 C 208.450623 43.290001 208.669983 43.070618 208.669983 42.799999 L 208.669983 26.32 C 208.669983 26.049381 208.450623 25.830002 208.179993 25.830002 L 201.669983 25.830002 C 201.505005 25.829628 201.350891 25.912315 201.26001 26.049999 L 190.219971 42.540001 C 190.120544 42.690639 190.111938 42.883774 190.197632 43.042648 C 190.283386 43.201523 190.449463 43.300404 190.630005 43.299999 L 195.159973 43.299999 C 195.325012 43.300369 195.479065 43.217682 195.570007 43.080002 L 197.340027 40.419998 Z M 213.880005 29.41 C 213.837891 29.532501 213.857727 29.667809 213.933228 29.773079 C 214.008667 29.878349 214.130493 29.940556 214.26001 29.940002 L 218.780029 29.940002 C 218.909546 29.939445 219.031311 30.001648 219.106812 30.106922 C 219.182251 30.212193 219.202087 30.347496 219.159973 30.470001 L 214.98999 42.740002 C 214.947876 42.862503 214.967712 42.997807 215.043213 43.103077 C 215.118713 43.208351 215.240479 43.270557 215.369995 43.27 L 219.97998 43.27 C 220.151428 43.270733 220.30426 43.162136 220.359985 43 L 224.700012 30.239998 C 224.755737 30.077866 224.908569 29.969265 225.080017 29.970001 L 230.169983 29.970001 C 230.341431 29.970734 230.494263 29.862137 230.549988 29.700001 L 231.679993 26.370003 C 231.722107 26.247498 231.702271 26.112194 231.62677 26.00692 C 231.551331 25.901649 231.429504 25.839447 231.299988 25.84 L 215.380005 25.84 C 215.208557 25.839264 215.055725 25.947865 215 26.110001 L 213.880005 29.41 Z M 244.51001 39.73 C 244.555664 39.60078 244.535461 39.457394 244.455811 39.34586 C 244.37616 39.234329 244.24707 39.168686 244.109985 39.169998 L 236.01001 39.169998 C 235.872925 39.171314 235.743896 39.105671 235.664185 38.994141 C 235.584534 38.882607 235.564331 38.73922 235.609985 38.610001 L 236.369995 36.380001 C 236.42981 36.210793 236.590515 36.098286 236.77002 36.099998 L 244.409973 36.099998 C 244.589478 36.101715 244.750183 35.989208 244.809998 35.82 L 245.919983 32.549999 C 245.965698 32.42078 245.945435 32.277393 245.865784 32.165859 C 245.786133 32.054329 245.657043 31.988686 245.52002 31.990002 L 238.409973 31.990002 C 238.272949 31.991314 238.14386 31.925671 238.064209 31.81414 C 237.984558 31.702606 237.964294 31.559219 238.01001 31.43 L 238.409973 30.239998 C 238.469788 30.070793 238.630554 29.958282 238.809998 29.959999 L 247.049988 29.959999 C 247.229492 29.961716 247.390198 29.849209 247.450012 29.68 L 248.559998 26.400002 C 248.605713 26.270779 248.585449 26.127392 248.505798 26.015862 C 248.426147 25.904327 248.297058 25.838684 248.159973 25.84 L 234.859985 25.84 C 234.680542 25.838287 234.519836 25.95079 234.460022 26.120003 L 228.830017 42.709999 C 228.784302 42.839222 228.804565 42.982609 228.884216 43.094139 C 228.963867 43.205669 229.092957 43.271313 229.22998 43.27 L 243 43.27 C 243.179443 43.271713 243.34021 43.15921 243.400024 42.990002 L 244.51001 39.73 Z M 277.200012 50.82 C 277.200012 50.593563 277.016418 50.41 276.789978 50.41 L 81.049988 50.41 C 80.823578 50.41 80.640015 50.593563 80.640015 50.82 L 80.640015 74.599998 C 80.640015 74.826439 80.823578 75.010002 81.049988 75.010002 L 276.789978 75.010002 C 277.016418 75.010002 277.200012 74.826439 277.200012 74.599998 L 277.200012 50.82 Z"/>
    <path id="path1" fill="#003396" stroke="none" d="M 74.480011 74.449997 C 74.480011 74.753754 74.233765 75 73.929993 75 L 1.350006 75 C 1.046234 75 0.799988 74.753754 0.799988 74.449997 L 0.799988 1.870003 C 0.799988 1.566246 1.046234 1.32 1.350006 1.32 L 73.929993 1.32 C 74.233765 1.32 74.480011 1.566246 74.480011 1.870003 L 74.480011 74.449997 Z M 13.839996 49.75 L 13.839996 8.270004 C 13.839996 7.933105 13.566895 7.660004 13.230011 7.660004 L 12.880005 7.660004 C 12.705872 7.660019 12.539001 7.728836 12.416809 7.851021 C 12.294617 7.973213 12.227325 8.138557 12.230011 8.309998 C 12.296661 21.976664 12.32666 35.703332 12.320007 49.490002 C 12.320007 51.063333 13.130005 51.713332 14.75 51.439999 C 15.269999 51.353334 16.343333 51.383334 17.970001 51.529999 C 18.323334 51.556666 18.493337 51.746666 18.480011 52.099998 C 18.390015 54.369999 17.470001 57.93 21 57.599998 C 21.693339 57.533333 22.693339 57.523333 24 57.57 C 24.386658 57.583333 24.579987 57.783333 24.579987 58.169998 L 24.579987 62.419998 C 24.579987 63.126923 25.157562 63.699997 25.869995 63.699997 L 30.209991 63.699997 C 30.536672 63.699997 30.700012 63.863332 30.700012 64.190002 L 30.700012 68.279999 C 30.700012 69.152611 31.407379 69.860001 32.279999 69.860001 L 61.619995 69.860001 C 62.039998 69.860001 62.25 69.660001 62.25 69.260002 L 62.25 68.879997 C 62.25 68.587288 62.012726 68.349998 61.720001 68.349998 L 32.559998 68.349998 C 32.373332 68.349998 32.279999 68.256666 32.279999 68.07 L 32.279999 63.970001 C 32.279999 63.803335 32.363332 63.720001 32.529999 63.720001 L 61.559998 63.720001 C 62.08667 63.720001 62.306671 63.46 62.220001 62.939999 L 62.160004 62.549999 C 62.129944 62.341732 61.950409 62.187843 61.73999 62.189999 L 32.480011 62.189999 C 32.339996 62.189999 32.269989 62.119999 32.269989 61.98 L 32.269989 57.77 C 32.269989 57.636667 32.33666 57.57 32.470001 57.57 L 61.709991 57.57 C 62.019287 57.57 62.269989 57.323757 62.269989 57.02 L 62.269989 56.669998 C 62.269989 56.276667 62.073324 56.080002 61.679993 56.080002 L 32.540009 56.080002 C 32.390869 56.080002 32.269989 55.959118 32.269989 55.810001 L 32.269989 51.709999 C 32.269989 51.536667 32.356659 51.450001 32.529999 51.450001 L 61.730011 51.450001 C 62.149994 51.450001 62.32666 51.246667 62.26001 50.84 L 62.209991 50.5 C 62.151581 50.15416 61.855927 49.900753 61.51001 49.900002 L 32.839996 49.900002 C 32.466665 49.900002 32.279999 49.713334 32.279999 49.34 L 32.279999 8.229996 C 32.279999 7.856664 32.093333 7.669998 31.720001 7.669998 L 31.26001 7.669998 C 30.886678 7.669998 30.700012 7.856664 30.700012 8.229996 L 30.700012 49.73 C 30.700012 49.843334 30.643341 49.900002 30.529999 49.900002 L 26.429993 49.900002 C 26.286407 49.900002 26.170013 49.788071 26.170013 49.650002 L 26.170013 8.239998 C 26.170013 7.853335 25.976674 7.660004 25.589996 7.660004 L 25.140015 7.660004 C 24.753337 7.660004 24.559998 7.853335 24.559998 8.239998 L 24.559998 49.650002 C 24.559998 49.816668 24.480001 49.900002 24.320007 49.900002 L 20.25 49.900002 C 20.130005 49.900002 20.070007 49.840001 20.070007 49.720001 L 20.070007 8.400002 C 20.070007 7.926669 19.830007 7.690002 19.350006 7.690002 L 19 7.690002 C 18.599996 7.690002 18.399994 7.890002 18.399994 8.290001 L 18.399994 49.700001 C 18.399994 49.815979 18.301514 49.91 18.179993 49.91 L 14.01001 49.91 C 13.896667 49.91 13.839996 49.856667 13.839996 49.75 Z"/>
    <path id="path2" fill="#808080" stroke="none" d="M 234.48999 14.439999 L 235.119995 13.510002 C 235.288757 13.260826 235.589294 13.138245 235.880005 13.200001 L 239.590027 14.02 C 239.730225 14.050407 239.842407 14.155361 239.882141 14.293251 C 239.921814 14.431137 239.882568 14.579689 239.780029 14.68 L 237.539978 16.93 C 237.40155 17.066429 237.331421 17.25766 237.348816 17.451256 C 237.366272 17.644848 237.469421 17.820484 237.630005 17.93 L 239.219971 18.989998 C 239.519979 19.19 239.543315 19.420001 239.289978 19.68 L 236.02002 22.950001 C 235.633341 23.330001 235.25 23.330001 234.869995 22.950001 L 233.030029 21.110001 C 232.783325 20.863332 232.509989 20.826665 232.210022 21 C 228.696676 23.006668 225.126668 23.670001 221.5 22.989998 C 217.669983 22.279999 216.809998 19.190002 218.909973 16.120003 C 220.196676 14.24 222.143351 12.843333 224.75 11.93 C 225.043335 11.823336 225.136678 11.623337 225.030029 11.330002 C 222.380005 4.230003 230.429993 0.809998 236.02002 2.209999 C 239.419983 3.07 239.590027 6.029999 237.52002 8.330002 C 236.140015 9.863332 234.440002 11.013331 232.419983 11.779999 C 232.208557 11.859161 232.052246 12.040924 232.005615 12.261833 C 231.959045 12.482742 232.028564 12.712158 232.190002 12.870003 L 233.820007 14.510002 C 234.073344 14.756668 234.296672 14.733334 234.48999 14.439999 Z M 230.559998 9.770004 L 233.77002 7.620003 C 233.889709 7.535973 233.920715 7.371941 233.840027 7.25 L 233.570007 6.849998 C 232.90387 5.857559 231.616211 5.553528 230.690002 6.169998 L 230.390015 6.370003 C 229.467773 6.99099 229.25769 8.296059 229.919983 9.290001 L 230.179993 9.690002 C 230.218933 9.751999 230.281372 9.795532 230.353027 9.810616 C 230.424683 9.825699 230.49939 9.811043 230.559998 9.770004 Z M 229.719971 17.5 L 226.830017 14.610001 C 226.66335 14.443334 226.473348 14.416667 226.26001 14.529999 C 225.199992 15.083333 224.423319 15.763334 223.929993 16.57 C 223.64563 17.044636 223.611572 17.628426 223.838867 18.132893 C 224.066223 18.63736 224.526062 18.998604 225.070007 19.099998 C 226.610006 19.386665 228.110006 19.156666 229.570007 18.41 C 230.036682 18.176665 230.08667 17.873332 229.719971 17.5 Z"/>
    <path id="path3" fill="#808080" stroke="none" d="M 105.170013 18.25 L 103.709991 22.510002 C 103.646973 22.688332 103.479126 22.808205 103.290009 22.809998 L 88.51001 22.809998 C 88.365356 22.810753 88.229187 22.741936 88.144012 22.62505 C 88.058807 22.508163 88.035004 22.357456 88.079987 22.220001 L 94.75 2.620003 C 94.809631 2.437729 94.978241 2.313278 95.170013 2.309998 L 100.160004 2.309998 C 100.304626 2.30925 100.440796 2.378067 100.526001 2.494949 C 100.611176 2.611839 100.63501 2.762543 100.589996 2.900002 L 95.779999 17.059998 C 95.735016 17.197456 95.75882 17.348164 95.843994 17.46505 C 95.929199 17.581936 96.065369 17.650749 96.209991 17.650002 L 104.73999 17.650002 C 104.887085 17.648121 105.025818 17.718258 105.111511 17.83783 C 105.197205 17.957401 105.219055 18.111309 105.170013 18.25 Z"/>
    <path id="path4" fill="#808080" stroke="none" d="M 114.670013 2.300003 L 119.540009 2.300003 C 119.702179 2.297958 119.855286 2.374702 119.950684 2.505875 C 120.046082 2.637047 120.071899 2.806343 120.019989 2.959999 L 113.390015 22.459999 C 113.320648 22.665413 113.126801 22.802723 112.910004 22.799999 L 108.040009 22.799999 C 107.877808 22.802048 107.724731 22.725296 107.629333 22.594124 C 107.533936 22.462955 107.508087 22.293659 107.559998 22.139999 L 114.190002 2.639999 C 114.259369 2.434586 114.453217 2.297279 114.670013 2.300003 Z"/>
    <path id="path5" fill="#808080" stroke="none" d="M 133.769989 11.489998 C 134.49 13.216667 134.903341 14.176668 135.01001 14.369999 C 135.343343 15.016666 135.620005 15.016666 135.839996 14.369999 L 139.679993 2.93 C 139.820007 2.523333 140.103343 2.32 140.529999 2.32 L 144.100006 2.32 C 144.566661 2.32 144.726654 2.543332 144.579987 2.989998 L 138.029999 22.260002 C 137.90333 22.633334 137.643331 22.82 137.25 22.82 L 133.25 22.799999 C 133.07666 22.793334 132.893331 22.576668 132.700012 22.150002 C 132.579997 21.890002 131.383321 19.053335 129.109985 13.639999 C 128.389994 11.913335 127.980001 10.953336 127.880005 10.760002 C 127.539998 10.113335 127.26 10.113335 127.040009 10.760002 L 123.200012 22.200001 C 123.059998 22.606665 122.776662 22.809998 122.350006 22.809998 L 118.779999 22.809998 C 118.313324 22.809998 118.15332 22.586665 118.299988 22.139999 L 124.850006 2.870003 C 124.976674 2.496666 125.236674 2.309998 125.630005 2.309998 L 129.630005 2.330002 C 129.803345 2.336665 129.986674 2.553332 130.179993 2.980003 C 130.299988 3.240003 131.496653 6.076668 133.769989 11.489998 Z"/>
    <path id="path6" fill="#808080" stroke="none" d="M 142.380005 22.16 L 148.890015 2.980003 C 149.003337 2.653333 149.233327 2.483332 149.579987 2.470001 C 158.920013 2.07 169.350006 0.550003 164.519989 13.489998 C 160.670013 23.809998 151.880005 23.059998 142.779999 22.739998 C 142.386668 22.726667 142.253337 22.533334 142.380005 22.16 Z M 153.369995 7.190002 L 149.790009 17.73 C 149.758392 17.822464 149.772217 17.924419 149.827332 18.005116 C 149.882446 18.085808 149.972382 18.135796 150.070007 18.139999 C 152.899994 18.309998 155.769989 18.459999 157.459991 15.77 C 158.99999 13.336669 159.633321 10.860001 159.359985 8.339996 C 159.323456 7.982849 159.092651 7.675079 158.76001 7.540001 C 157.093343 6.859998 155.360006 6.689997 153.559998 7.029999 C 153.468628 7.041847 153.393829 7.104836 153.369995 7.190002 Z"/>
    <path id="path7" fill="#808080" stroke="none" d="M 182.730011 18.75 L 181.459991 22.5 C 181.399506 22.680237 181.230103 22.801239 181.040009 22.799999 L 165.290009 22.799999 C 165.149658 22.797729 165.018829 22.728649 164.937805 22.61404 C 164.856812 22.499435 164.835327 22.35305 164.880005 22.220001 L 171.540009 2.610001 C 171.600494 2.429764 171.769897 2.308762 171.959991 2.309998 L 187.200012 2.309998 C 187.340332 2.312271 187.471191 2.381348 187.552185 2.495956 C 187.633179 2.610565 187.654663 2.75695 187.609985 2.889999 L 186.349976 6.620003 C 186.28949 6.800232 186.120117 6.921234 185.929993 6.919998 L 176.299988 6.919998 C 176.113586 6.923035 175.94931 7.043228 175.890015 7.220001 L 175.320007 8.889999 C 175.27478 9.024719 175.297424 9.172981 175.380768 9.288071 C 175.464111 9.403168 175.5979 9.470924 175.73999 9.470001 L 184.230011 9.470001 C 184.370331 9.472267 184.50116 9.541351 184.582184 9.65596 C 184.663208 9.770569 184.684662 9.916946 184.640015 10.050003 L 183.369995 13.799999 C 183.309509 13.980236 183.140106 14.101238 182.950012 14.099998 L 173.829987 14.099998 C 173.639893 14.098763 173.47049 14.219765 173.410004 14.400002 L 172.329987 17.59 C 172.285339 17.723053 172.306793 17.869431 172.387817 17.984039 C 172.468842 18.098648 172.59967 18.167732 172.73999 18.169998 L 182.320007 18.169998 C 182.460327 18.172272 182.591156 18.241348 182.67218 18.355957 C 182.753204 18.470566 182.774689 18.616951 182.730011 18.75 Z"/>
    <path id="path8" fill="#808080" stroke="none" d="M 202.640015 14.049999 C 203.686686 15.59 204.563354 18.413334 205.27002 22.52 C 205.281799 22.592911 205.260803 22.667313 205.212585 22.723255 C 205.164368 22.779198 205.093872 22.810951 205.02002 22.809998 L 199.23999 22.809998 C 199.033325 22.809998 198.906657 22.709999 198.859985 22.510002 C 198.5 20.976667 198.01001 19.01 197.390015 16.610001 C 196.956665 14.956668 195.923319 14.306667 194.289978 14.66 C 193.984497 14.729103 193.73822 14.948864 193.640015 15.239998 L 191.169983 22.489998 C 191.103333 22.696665 190.963338 22.799999 190.75 22.799999 L 185.52002 22.799999 C 185.266683 22.799999 185.180013 22.676666 185.26001 22.43 L 191.960022 2.720001 C 192.014648 2.551292 192.166748 2.435211 192.340027 2.43 C 196.540019 2.203331 200.590007 2.213331 204.48999 2.459999 C 207.590027 2.660004 209.960022 3.650002 209.140015 7.209999 C 208.426676 10.250003 206.329997 12.333336 202.849976 13.459999 C 202.516642 13.566666 202.446655 13.763332 202.640015 14.049999 Z M 196.25 7.489998 L 195.640015 9.300003 C 195.493327 9.726669 195.646647 9.953334 196.099976 9.979996 C 198.786662 10.133331 200.726664 9.963333 201.919983 9.470001 C 202.780009 9.116669 203.060018 8.470001 202.76001 7.529999 C 202.633341 7.143331 202.363342 6.949997 201.950012 6.949997 L 197.01001 6.949997 C 196.630005 6.949997 196.376668 7.129997 196.25 7.489998 Z"/>
    <path id="path9" fill="#fefefe" stroke="none" d="M 230.559998 9.770004 C 230.49939 9.811043 230.424683 9.825699 230.353027 9.810616 C 230.281372 9.795532 230.218933 9.751999 230.179993 9.690002 L 229.919983 9.290001 C 229.25769 8.296059 229.467773 6.99099 230.390015 6.370003 L 230.690002 6.169998 C 231.616211 5.553528 232.90387 5.857559 233.570007 6.849998 L 233.840027 7.25 C 233.920715 7.371941 233.889709 7.535973 233.77002 7.620003 L 230.559998 9.770004 Z"/>
    <path id="path10" fill="#fefefe" stroke="none" d="M 153.369995 7.190002 C 153.393829 7.104836 153.468628 7.041847 153.559998 7.029999 C 155.360006 6.689997 157.093343 6.859998 158.76001 7.540001 C 159.092651 7.675079 159.323456 7.982849 159.359985 8.339996 C 159.633321 10.860001 158.99999 13.336669 157.459991 15.77 C 155.769989 18.459999 152.899994 18.309998 150.070007 18.139999 C 149.972382 18.135796 149.882446 18.085808 149.827332 18.005116 C 149.772217 17.924419 149.758392 17.822464 149.790009 17.73 L 153.369995 7.190002 Z"/>
    <path id="path11" fill="#fefefe" stroke="none" d="M 195.640015 9.300003 L 196.25 7.489998 C 196.376668 7.129997 196.630005 6.949997 197.01001 6.949997 L 201.950012 6.949997 C 202.363342 6.949997 202.633341 7.143331 202.76001 7.529999 C 203.060018 8.470001 202.780009 9.116669 201.919983 9.470001 C 200.726664 9.963333 198.786662 10.133331 196.099976 9.979996 C 195.646647 9.953334 195.493327 9.726669 195.640015 9.300003 Z"/>
    <path id="path12" fill="#fefefe" stroke="none" d="M 13.839996 49.75 C 13.839996 49.856667 13.896667 49.91 14.01001 49.91 L 18.179993 49.91 C 18.301514 49.91 18.399994 49.815979 18.399994 49.700001 L 18.399994 8.290001 C 18.399994 7.890002 18.599996 7.690002 19 7.690002 L 19.350006 7.690002 C 19.830007 7.690002 20.070007 7.926669 20.070007 8.400002 L 20.070007 49.720001 C 20.070007 49.840001 20.130005 49.900002 20.25 49.900002 L 24.320007 49.900002 C 24.480001 49.900002 24.559998 49.816668 24.559998 49.650002 L 24.559998 8.239998 C 24.559998 7.853335 24.753337 7.660004 25.140015 7.660004 L 25.589996 7.660004 C 25.976674 7.660004 26.170013 7.853335 26.170013 8.239998 L 26.170013 49.650002 C 26.170013 49.788071 26.286407 49.900002 26.429993 49.900002 L 30.529999 49.900002 C 30.643341 49.900002 30.700012 49.843334 30.700012 49.73 L 30.700012 8.229996 C 30.700012 7.856664 30.886678 7.669998 31.26001 7.669998 L 31.720001 7.669998 C 32.093333 7.669998 32.279999 7.856664 32.279999 8.229996 L 32.279999 49.34 C 32.279999 49.713334 32.466665 49.900002 32.839996 49.900002 L 61.51001 49.900002 C 61.855927 49.900753 62.151581 50.15416 62.209991 50.5 L 62.26001 50.84 C 62.32666 51.246667 62.149994 51.450001 61.730011 51.450001 L 32.529999 51.450001 C 32.356659 51.450001 32.269989 51.536667 32.269989 51.709999 L 32.269989 55.810001 C 32.269989 55.959118 32.390869 56.080002 32.540009 56.080002 L 61.679993 56.080002 C 62.073324 56.080002 62.269989 56.276667 62.269989 56.669998 L 62.269989 57.02 C 62.269989 57.323757 62.019287 57.57 61.709991 57.57 L 32.470001 57.57 C 32.33666 57.57 32.269989 57.636667 32.269989 57.77 L 32.269989 61.98 C 32.269989 62.119999 32.339996 62.189999 32.480011 62.189999 L 61.73999 62.189999 C 61.950409 62.187843 62.129944 62.341732 62.160004 62.549999 L 62.220001 62.939999 C 62.306671 63.46 62.08667 63.720001 61.559998 63.720001 L 32.529999 63.720001 C 32.363332 63.720001 32.279999 63.803335 32.279999 63.970001 L 32.279999 68.07 C 32.279999 68.256666 32.373332 68.349998 32.559998 68.349998 L 61.720001 68.349998 C 62.012726 68.349998 62.25 68.587288 62.25 68.879997 L 62.25 69.260002 C 62.25 69.660001 62.039998 69.860001 61.619995 69.860001 L 32.279999 69.860001 C 31.407379 69.860001 30.700012 69.152611 30.700012 68.279999 L 30.700012 64.190002 C 30.700012 63.863332 30.536672 63.699997 30.209991 63.699997 L 25.869995 63.699997 C 25.157562 63.699997 24.579987 63.126923 24.579987 62.419998 L 24.579987 58.169998 C 24.579987 57.783333 24.386658 57.583333 24 57.57 C 22.693339 57.523333 21.693339 57.533333 21 57.599998 C 17.470001 57.93 18.390015 54.369999 18.480011 52.099998 C 18.493337 51.746666 18.323334 51.556666 17.970001 51.529999 C 16.343333 51.383334 15.269999 51.353334 14.75 51.439999 C 13.130005 51.713332 12.320007 51.063333 12.320007 49.490002 C 12.32666 35.703332 12.296661 21.976664 12.230011 8.309998 C 12.227325 8.138557 12.294617 7.973213 12.416809 7.851021 C 12.539001 7.728836 12.705872 7.660019 12.880005 7.660004 L 13.230011 7.660004 C 13.566895 7.660004 13.839996 7.933105 13.839996 8.270004 L 13.839996 49.75 Z M 24.586792 51.818199 C 24.587463 51.624939 24.431366 51.467716 24.238098 51.466999 L 20.258087 51.453098 C 20.06485 51.452435 19.907623 51.60854 19.906891 51.8018 L 19.893188 55.721802 C 19.892548 55.915062 20.048645 56.072285 20.241913 56.073002 L 24.221893 56.086899 C 24.415161 56.087563 24.572388 55.931461 24.57309 55.738201 L 24.586792 51.818199 Z M 30.723389 51.793999 C 30.723663 51.61731 30.580688 51.473831 30.403992 51.473499 L 26.444 51.466499 C 26.3591 51.466339 26.277649 51.499916 26.217529 51.559837 C 26.157379 51.619759 26.123535 51.701115 26.123413 51.785999 L 26.116608 55.726002 C 26.116333 55.902691 26.259308 56.046169 26.436005 56.046501 L 30.395996 56.053501 C 30.480896 56.053658 30.562347 56.020084 30.622498 55.960163 C 30.682617 55.900242 30.716461 55.818886 30.716614 55.734001 L 30.723389 51.793999 Z M 30.706512 57.855999 C 30.70636 57.784393 30.677795 57.715767 30.627075 57.665226 C 30.576324 57.614685 30.507599 57.586369 30.436005 57.586498 L 26.395996 57.593498 C 26.324402 57.593632 26.255768 57.622208 26.205231 57.672935 C 26.154694 57.723663 26.126373 57.792393 26.126495 57.863998 L 26.133514 61.924 C 26.133636 61.995609 26.162201 62.064232 26.212921 62.114773 C 26.263672 62.165314 26.332397 62.193634 26.403992 62.193501 L 30.444 62.186501 C 30.515594 62.186367 30.584229 62.157795 30.634766 62.107067 C 30.685303 62.056335 30.713623 61.98761 30.713501 61.916 L 30.706512 57.855999 Z"/>
    <path id="path13" fill="#fefefe" stroke="none" d="M 226.830017 14.610001 L 229.719971 17.5 C 230.08667 17.873332 230.036682 18.176665 229.570007 18.41 C 228.110006 19.156666 226.610006 19.386665 225.070007 19.099998 C 224.526062 18.998604 224.066223 18.63736 223.838867 18.132893 C 223.611572 17.628426 223.64563 17.044636 223.929993 16.57 C 224.423319 15.763334 225.199992 15.083333 226.26001 14.529999 C 226.473348 14.416667 226.66335 14.443334 226.830017 14.610001 Z"/>
    <path id="path14" fill="#808080" stroke="none" d="M 115.470001 30.739998 C 115.380493 30.937607 115.384857 31.165035 115.481873 31.359066 C 115.578888 31.553097 115.758209 31.693043 115.970001 31.740002 C 119.140015 32.43 125.25 33.220001 123.220001 38.07 C 121.079987 43.169998 114.970001 44.560001 110.040009 43.330002 C 107.130005 42.610001 106.769989 40.439999 107.140015 37.959999 C 107.184967 37.623222 107.475281 37.371326 107.820007 37.369999 L 112.570007 37.369999 C 112.736674 37.369999 112.866669 37.436666 112.959991 37.57 C 113.059987 37.716667 113.089986 37.813334 113.049988 37.860001 C 112.808136 38.141438 112.800079 38.536102 113.028992 38.889889 C 113.257904 39.243675 113.6875 39.500473 114.149994 39.560001 C 115.716665 39.753333 116.853333 39.459999 117.559998 38.68 C 117.885254 38.315838 117.990326 37.805267 117.835297 37.342266 C 117.680267 36.879269 117.28894 36.534901 116.809998 36.439999 C 114.936666 36.073332 113.303335 35.57 111.910004 34.93 C 107.76001 33.02 110.579987 28.349998 113.350006 26.91 C 116.850006 25.099998 126.059998 23.580002 125.339996 30.200001 C 125.293325 30.6 125.073324 30.799999 124.679993 30.799999 L 120.140015 30.799999 C 119.933329 30.799999 119.766663 30.709999 119.640015 30.529999 C 119.519999 30.363332 119.426656 30.209999 119.359985 30.07 C 119.253337 29.843333 118.990011 29.68 118.570007 29.580002 C 117.036662 29.206668 116.003326 29.593333 115.470001 30.739998 Z"/>
    <path id="path15" fill="#808080" stroke="none" d="M 133.380005 30.739998 C 133.290497 30.937607 133.294861 31.165035 133.391876 31.359066 C 133.488892 31.553097 133.668213 31.693043 133.880005 31.740002 C 137.049988 32.43 143.160004 33.240002 141.119995 38.080002 C 138.970001 43.18 132.859985 44.560001 127.920013 43.32 C 125.019989 42.599998 124.660004 40.43 125.040009 37.950001 C 125.084961 37.613209 125.375275 37.361309 125.720001 37.360001 L 130.470001 37.369999 C 130.636668 37.369999 130.763336 37.436666 130.850006 37.57 C 130.950002 37.716667 130.980001 37.813334 130.940002 37.860001 C 130.698914 38.141441 130.691284 38.535885 130.920105 38.889538 C 131.148956 39.243191 131.578003 39.500065 132.040009 39.560001 C 133.613332 39.760001 134.753326 39.47 135.459991 38.689999 C 135.790436 38.327431 135.900024 37.815002 135.746765 37.348999 C 135.593506 36.882999 135.201141 36.535648 134.720001 36.439999 C 132.839996 36.073332 131.203328 35.57 129.809998 34.93 C 125.670013 33.009998 128.48999 28.34 131.269989 26.900002 C 134.769989 25.099998 143.98999 23.59 143.26001 30.220001 C 143.213338 30.62 142.993337 30.82 142.600006 30.82 L 138.059998 30.809998 C 137.846659 30.809998 137.676656 30.719999 137.549988 30.540001 C 137.429993 30.366666 137.33666 30.209999 137.269989 30.07 C 137.16332 29.843333 136.899994 29.68 136.480011 29.580002 C 134.946665 29.206668 133.91333 29.593333 133.380005 30.739998 Z"/>
    <path id="path16" fill="#808080" stroke="none" d="M 162.250885 27.447098 C 165.03537 30.777336 163.473236 36.670509 158.76181 40.609901 C 156.499268 42.501678 153.798218 43.680676 151.252838 43.887527 C 148.707458 44.094379 146.526276 43.312141 145.189087 41.712898 C 142.404633 38.382664 143.966736 32.489491 148.678192 28.550102 C 150.940735 26.658325 153.641785 25.479324 156.187164 25.272472 C 158.732544 25.06562 160.913727 25.847855 162.250885 27.447098 Z M 150.746094 39.5947 C 152.392578 40.564548 155.049835 39.105625 156.681213 36.336102 C 158.312592 33.566578 158.300385 30.535187 156.6539 29.5653 C 155.007416 28.595451 152.350189 30.054375 150.718811 32.823898 C 149.087402 35.593422 149.09964 38.624813 150.746094 39.5947 Z"/>
    <path id="path17" fill="#808080" stroke="none" d="M 170.369995 39.419998 C 172.899994 40.360001 174.190002 38.630001 175.559998 36.779999 C 175.873332 36.353333 176.279999 36.226667 176.779999 36.400002 L 180.059998 37.509998 C 180.218384 37.564472 180.343292 37.688152 180.398102 37.844791 C 180.452942 38.001434 180.431458 38.173294 180.339996 38.310001 C 177.553335 42.570001 173.706665 44.330001 168.799988 43.59 C 165.820007 43.139999 164.200012 41.240002 164.410004 38.259998 C 164.980011 30.120003 171.940002 23.239998 180.200012 26 C 182.099996 26.633334 183.053324 28.100001 183.059998 30.400002 C 183.059998 30.74 182.889994 30.936666 182.549988 30.989998 L 177.769989 31.75 C 177.416656 31.803335 177.213328 31.656668 177.160004 31.310001 L 177.019989 30.43 C 176.959991 30.050001 176.75 29.800001 176.390015 29.68 C 171.709991 28.129997 169.779999 35.549999 169.829987 38.650002 C 169.835907 38.995167 170.05014 39.300644 170.369995 39.419998 Z"/>
    <path id="path18" fill="#808080" stroke="none" d="M 255.219971 30.73 C 255.130493 30.927605 255.134827 31.155037 255.231873 31.349064 C 255.328857 31.543095 255.50824 31.683041 255.719971 31.73 C 258.900024 32.419998 265.01001 33.209999 262.97998 38.060001 C 260.840027 43.169998 254.72998 44.560001 249.789978 43.330002 C 246.880005 42.610001 246.52002 40.439999 246.890015 37.959999 C 246.934998 37.623234 247.225281 37.371342 247.570007 37.369999 L 252.320007 37.369999 C 252.486674 37.369999 252.616679 37.436666 252.710022 37.57 C 252.809998 37.716667 252.839986 37.813334 252.799988 37.860001 C 252.558105 38.141438 252.550049 38.536102 252.778992 38.889889 C 253.007935 39.243675 253.4375 39.500473 253.900024 39.560001 C 255.473348 39.753333 256.613342 39.459999 257.320007 38.68 C 257.650635 38.31604 257.759033 37.80196 257.603516 37.335487 C 257.448059 36.869015 257.052856 36.5228 256.570007 36.43 C 254.690002 36.07 253.053324 35.57 251.659973 34.93 C 247.51001 33.02 250.330017 28.34 253.099976 26.900002 C 256.599976 25.09 265.820007 23.559998 265.099976 30.190002 C 265.053345 30.590001 264.833354 30.790001 264.440002 30.790001 L 259.900024 30.790001 C 259.686686 30.790001 259.516683 30.700001 259.390015 30.52 C 259.27002 30.353334 259.176676 30.199999 259.109985 30.059998 C 259.003337 29.833333 258.740011 29.670001 258.320007 29.57 C 256.786682 29.196668 255.753337 29.583335 255.219971 30.73 Z"/>
    <path id="path19" fill="#808080" stroke="none" d="M 98.959991 40.830002 C 98.993337 40.403333 98.793335 40.189999 98.359985 40.189999 L 93.910004 40.209999 C 93.549998 40.209999 93.283325 40.369999 93.109985 40.689999 L 92.059998 42.619999 C 91.806661 43.073332 91.419993 43.299999 90.899994 43.299999 L 86.619995 43.279999 C 86.463409 43.280739 86.319855 43.194824 86.245026 43.055603 C 86.170227 42.916378 86.175964 42.745773 86.26001 42.610001 L 97.220001 26.220001 C 97.386668 25.973333 97.623332 25.849998 97.929993 25.849998 L 104.200012 25.860001 C 104.579997 25.860001 104.769989 26.050001 104.769989 26.43 L 104.670013 42.630001 C 104.670013 43.070001 104.450012 43.290001 104.01001 43.290001 L 99.579987 43.299999 C 99.053335 43.299999 98.810008 43.04 98.850006 42.52 L 98.959991 40.830002 Z M 96.100006 35.560001 C 96.034576 35.660469 96.028809 35.788513 96.0849 35.894466 C 96.140991 36.000423 96.250122 36.067623 96.369995 36.07 L 98.910004 36.049999 C 99.316661 36.049999 99.516663 35.846666 99.51001 35.439999 L 99.48999 30.860001 C 99.483337 30.573334 99.403341 30.550001 99.25 30.790001 L 96.100006 35.560001 Z"/>
    <path id="path20" fill="#808080" stroke="none" d="M 188.320007 25.830002 L 192.780029 25.830002 C 192.932129 25.828514 193.075562 25.900768 193.164978 26.023903 C 193.254333 26.147034 193.278564 26.305809 193.22998 26.450001 L 187.609985 42.970001 C 187.545105 43.162823 187.363464 43.291981 187.159973 43.290001 L 182.709991 43.290001 C 182.557861 43.291485 182.414398 43.219231 182.325043 43.0961 C 182.235657 42.972965 182.211426 42.81419 182.26001 42.669998 L 187.869995 26.150002 C 187.934937 25.957176 188.116577 25.828022 188.320007 25.830002 Z"/>
    <path id="path21" fill="#808080" stroke="none" d="M 197.340027 40.419998 L 195.570007 43.080002 C 195.479065 43.217682 195.325012 43.300369 195.159973 43.299999 L 190.630005 43.299999 C 190.449463 43.300404 190.283386 43.201523 190.197632 43.042648 C 190.111938 42.883774 190.120544 42.690639 190.219971 42.540001 L 201.26001 26.049999 C 201.350891 25.912315 201.505005 25.829628 201.669983 25.830002 L 208.179993 25.830002 C 208.450623 25.830002 208.669983 26.049381 208.669983 26.32 L 208.669983 42.799999 C 208.669983 43.070618 208.450623 43.290001 208.179993 43.290001 L 203.340027 43.290001 C 203.069397 43.290001 202.849976 43.070618 202.849976 42.799999 L 202.849976 40.689999 C 202.849976 40.41938 202.630615 40.200001 202.359985 40.200001 L 197.75 40.200001 C 197.585022 40.199631 197.430908 40.282318 197.340027 40.419998 Z M 200.039978 35.560001 C 199.969055 35.66077 199.960144 35.792686 200.016968 35.902069 C 200.07373 36.011452 200.186768 36.08007 200.309998 36.080002 L 202.869995 36.080002 C 203.276652 36.080002 203.47998 35.873334 203.47998 35.459999 L 203.47998 30.849998 C 203.47998 30.556666 203.399984 30.53 203.23999 30.77 L 200.039978 35.560001 Z"/>
    <path id="path22" fill="#808080" stroke="none" d="M 213.880005 29.41 L 215 26.110001 C 215.055725 25.947865 215.208557 25.839264 215.380005 25.84 L 231.299988 25.84 C 231.429504 25.839447 231.551331 25.901649 231.62677 26.00692 C 231.702271 26.112194 231.722107 26.247498 231.679993 26.370003 L 230.549988 29.700001 C 230.494263 29.862137 230.341431 29.970734 230.169983 29.970001 L 225.080017 29.970001 C 224.908569 29.969265 224.755737 30.077866 224.700012 30.239998 L 220.359985 43 C 220.30426 43.162136 220.151428 43.270733 219.97998 43.27 L 215.369995 43.27 C 215.240479 43.270557 215.118713 43.208351 215.043213 43.103077 C 214.967712 42.997807 214.947876 42.862503 214.98999 42.740002 L 219.159973 30.470001 C 219.202087 30.347496 219.182251 30.212193 219.106812 30.106922 C 219.031311 30.001648 218.909546 29.939445 218.780029 29.940002 L 214.26001 29.940002 C 214.130493 29.940556 214.008667 29.878349 213.933228 29.773079 C 213.857727 29.667809 213.837891 29.532501 213.880005 29.41 Z"/>
    <path id="path23" fill="#808080" stroke="none" d="M 244.51001 39.73 L 243.400024 42.990002 C 243.34021 43.15921 243.179443 43.271713 243 43.27 L 229.22998 43.27 C 229.092957 43.271313 228.963867 43.205669 228.884216 43.094139 C 228.804565 42.982609 228.784302 42.839222 228.830017 42.709999 L 234.460022 26.120003 C 234.519836 25.95079 234.680542 25.838287 234.859985 25.84 L 248.159973 25.84 C 248.297058 25.838684 248.426147 25.904327 248.505798 26.015862 C 248.585449 26.127392 248.605713 26.270779 248.559998 26.400002 L 247.450012 29.68 C 247.390198 29.849209 247.229492 29.961716 247.049988 29.959999 L 238.809998 29.959999 C 238.630554 29.958282 238.469788 30.070793 238.409973 30.239998 L 238.01001 31.43 C 237.964294 31.559219 237.984558 31.702606 238.064209 31.81414 C 238.14386 31.925671 238.272949 31.991314 238.409973 31.990002 L 245.52002 31.990002 C 245.657043 31.988686 245.786133 32.054329 245.865784 32.165859 C 245.945435 32.277393 245.965698 32.42078 245.919983 32.549999 L 244.809998 35.82 C 244.750183 35.989208 244.589478 36.101715 244.409973 36.099998 L 236.77002 36.099998 C 236.590515 36.098286 236.42981 36.210793 236.369995 36.380001 L 235.609985 38.610001 C 235.564331 38.73922 235.584534 38.882607 235.664185 38.994141 C 235.743896 39.105671 235.872925 39.171314 236.01001 39.169998 L 244.109985 39.169998 C 244.24707 39.168686 244.37616 39.234329 244.455811 39.34586 C 244.535461 39.457394 244.555664 39.60078 244.51001 39.73 Z"/>
    <path id="path24" fill="#fefefe" stroke="none" d="M 150.746124 39.594681 C 149.09964 38.624825 149.087372 35.593449 150.71875 32.823917 C 152.350128 30.054386 155.007385 28.595459 156.65387 29.565319 C 158.300354 30.535175 158.312622 33.566551 156.681244 36.336082 C 155.049866 39.105614 152.392609 40.564541 150.746124 39.594681 Z"/>
    <path id="path25" fill="#fefefe" stroke="none" d="M 96.100006 35.560001 L 99.25 30.790001 C 99.403341 30.550001 99.483337 30.573334 99.48999 30.860001 L 99.51001 35.439999 C 99.516663 35.846666 99.316661 36.049999 98.910004 36.049999 L 96.369995 36.07 C 96.250122 36.067623 96.140991 36.000423 96.0849 35.894466 C 96.028809 35.788513 96.034576 35.660469 96.100006 35.560001 Z"/>
    <path id="path26" fill="#fefefe" stroke="none" d="M 200.039978 35.560001 L 203.23999 30.77 C 203.399984 30.53 203.47998 30.556666 203.47998 30.849998 L 203.47998 35.459999 C 203.47998 35.873334 203.276652 36.080002 202.869995 36.080002 L 200.309998 36.080002 C 200.186768 36.08007 200.07373 36.011452 200.016968 35.902069 C 199.960144 35.792686 199.969055 35.66077 200.039978 35.560001 Z"/>
    <path id="path27" fill="#003396" stroke="none" d="M 277.200012 74.599998 C 277.200012 74.826439 277.016418 75.010002 276.789978 75.010002 L 81.049988 75.010002 C 80.823578 75.010002 80.640015 74.826439 80.640015 74.599998 L 80.640015 50.82 C 80.640015 50.593563 80.823578 50.41 81.049988 50.41 L 276.789978 50.41 C 277.016418 50.41 277.200012 50.593563 277.200012 50.82 L 277.200012 74.599998 Z M 97.48999 62.580002 C 97.511261 62.488258 97.489685 62.391819 97.431335 62.317905 C 97.372955 62.243988 97.28418 62.200603 97.190002 62.200001 L 90.519989 62.200001 C 90.424072 62.202484 90.332428 62.160412 90.271759 62.086063 C 90.211121 62.011715 90.188293 61.913467 90.209991 61.82 L 91.089996 57.84 C 91.122406 57.700207 91.24649 57.600922 91.390015 57.599998 L 98.529999 57.599998 C 98.673492 57.599075 98.797607 57.49979 98.829987 57.360001 L 99.029999 56.450001 C 99.05127 56.358257 99.029663 56.261822 98.971313 56.187904 C 98.912964 56.113987 98.824188 56.070606 98.730011 56.07 L 89.970001 56.07 C 89.826508 56.070923 89.702393 56.170208 89.670013 56.310001 L 86.769989 69.489998 C 86.748291 69.583466 86.771118 69.681717 86.831757 69.756065 C 86.892426 69.830414 86.98407 69.872482 87.079987 69.870003 L 96.589996 69.870003 C 96.721405 69.868546 96.837616 69.784393 96.880005 69.660004 L 97.179993 68.760002 C 97.212067 68.665901 97.197083 68.562134 97.139679 68.480965 C 97.082245 68.399803 96.98941 68.351097 96.890015 68.349998 L 89.170013 68.349998 C 89.074066 68.352486 88.982422 68.310417 88.921753 68.236061 C 88.861115 68.161713 88.838287 68.063469 88.859985 67.970001 L 89.75 63.970001 C 89.78241 63.830208 89.906494 63.730927 90.049988 63.730003 L 96.98999 63.730003 C 97.133484 63.72908 97.257599 63.629791 97.290009 63.489998 L 97.48999 62.580002 Z M 103.616211 56.822399 C 103.651215 56.664452 103.62207 56.499054 103.535156 56.362602 C 103.448212 56.226151 103.310638 56.129818 103.15271 56.094799 L 102.644989 55.9823 C 102.316132 55.909424 101.990417 56.116932 101.917511 56.445801 L 99.10379 69.137604 C 99.068787 69.295547 99.097931 69.460945 99.184845 69.597397 C 99.27179 69.733849 99.409363 69.830185 99.567291 69.865196 L 100.075012 69.977699 C 100.40387 70.050575 100.729584 69.843071 100.80249 69.514198 L 103.616211 56.822399 Z M 139.467804 56.509499 C 139.327606 56.090519 138.785156 55.894333 138.256195 56.071301 C 138.002136 56.156292 137.785248 56.317745 137.653229 56.520138 C 137.52121 56.72253 137.484863 56.94928 137.552185 57.150501 C 137.692383 57.569481 138.234833 57.765667 138.763794 57.588699 C 139.017853 57.503708 139.234741 57.342255 139.366791 57.139862 C 139.49881 56.937469 139.535156 56.71072 139.467804 56.509499 Z M 164.03479 56.806099 C 164.072998 56.635273 164.041748 56.456272 163.947968 56.308475 C 163.854187 56.160679 163.705536 56.05619 163.534698 56.018002 L 163.124786 55.926399 C 162.953979 55.88821 162.774963 55.919441 162.627167 56.013229 C 162.47937 56.107018 162.374878 56.255672 162.3367 56.426498 L 159.505188 69.093903 C 159.46701 69.264725 159.49823 69.443726 159.592041 69.591522 C 159.685822 69.739319 159.834473 69.843811 160.00531 69.882004 L 160.415192 69.973602 C 160.586029 70.011795 160.765015 69.98056 160.912811 69.886772 C 161.060608 69.792984 161.1651 69.644325 161.203308 69.473503 L 164.03479 56.806099 Z M 179.48999 65.489998 C 178.290009 69.349998 171.549988 69.389999 171.369995 64.540001 C 171.263326 61.833333 172.16333 59.85 174.070007 58.59 C 176.630005 56.883333 178.703339 57.283333 180.290009 59.790001 C 180.456675 60.043332 180.686676 60.193333 180.980011 60.240002 C 181.226674 60.28 181.446676 60.23 181.640015 60.09 C 181.888031 59.913181 181.990204 59.598507 181.890015 59.32 C 181.410014 57.966667 180.773346 57.113333 179.980011 56.759998 C 168.529999 51.619999 165.410004 72.620003 176.75 69.690002 C 179.043335 69.09667 180.556671 67.653336 181.290009 65.360001 C 181.430003 64.940002 181.276662 64.730003 180.829987 64.730003 L 180.519989 64.730003 C 180.044708 64.730598 179.626556 65.039146 179.48999 65.489998 Z M 127.380005 58.740002 L 127.779999 56.91 C 127.886668 56.429999 127.703339 56.256666 127.230011 56.389999 C 126.176666 56.683334 125.666667 57.560001 125.700012 59.02 C 125.713338 59.386667 125.539998 59.6 125.179993 59.66 L 124.73999 59.73 C 124.253337 59.803333 124.08667 60.073334 124.23999 60.540001 C 124.299988 60.706668 124.439992 60.886668 124.660004 61.080002 C 124.986664 61.366666 125.103333 61.719999 125.01001 62.139999 L 123.619995 68.489998 C 123.539998 68.84333 123.65333 69.119998 123.959991 69.32 C 124.746674 69.839999 125.646678 69.986666 126.660004 69.760002 C 127.046661 69.68 127.176656 69.453334 127.049988 69.080002 C 126.976664 68.853333 126.59667 68.523331 125.910004 68.089996 C 125.589996 67.889999 125.469991 67.606667 125.549988 67.239998 L 126.75 61.77 C 126.821503 61.44603 127.088013 61.199409 127.420013 61.150002 L 128.209991 61.029999 C 128.556671 60.976667 128.713338 60.716667 128.679993 60.25 C 128.666667 60.029999 128.343333 59.759998 127.709991 59.439999 C 127.416656 59.293334 127.306661 59.060001 127.380005 58.740002 Z M 207.719971 58.77 L 208.109985 56.939999 C 208.216675 56.46 208.033346 56.286667 207.559998 56.419998 C 206.506653 56.719999 205.99998 57.6 206.039978 59.060001 C 206.053324 59.426668 205.880005 59.640001 205.52002 59.700001 L 205.080017 59.77 C 204.593323 59.85 204.426656 60.12 204.580017 60.580002 C 204.639994 60.746668 204.779989 60.926668 205 61.119999 C 205.32666 61.406666 205.446655 61.76 205.359985 62.18 L 203.97998 68.540001 C 203.899984 68.893333 204.016663 69.170001 204.330017 69.370003 C 205.116679 69.890002 206.016683 70.036667 207.030029 69.809998 C 207.416667 69.723333 207.546651 69.493334 207.419983 69.120003 C 207.346659 68.893333 206.963338 68.566666 206.27002 68.139999 C 205.949992 67.939997 205.829976 67.656665 205.909973 67.290001 L 207.099976 61.810001 C 207.171509 61.48605 207.438049 61.239429 207.77002 61.189999 L 208.559998 61.060001 C 208.906677 61.006667 209.060018 60.746666 209.02002 60.279999 C 209.006673 60.06 208.683329 59.790001 208.049988 59.470001 C 207.756653 59.329999 207.646647 59.096666 207.719971 58.77 Z M 239.450012 58.73 L 239.849976 56.889999 C 239.956665 56.409999 239.769999 56.239999 239.289978 56.380001 C 238.236674 56.673333 237.730021 57.553333 237.77002 59.02 C 237.783325 59.386667 237.609985 59.6 237.25 59.66 L 236.809998 59.73 C 236.323344 59.803333 236.156677 60.073334 236.309998 60.540001 C 236.370015 60.706668 236.513346 60.886668 236.73999 61.080002 C 237.06665 61.366666 237.183329 61.719999 237.090027 62.139999 L 235.719971 68.510002 C 235.639974 68.863335 235.753316 69.139999 236.059998 69.339996 C 236.853333 69.860001 237.756673 70.003334 238.77002 69.769997 C 239.156657 69.69 239.286641 69.463333 239.159973 69.089996 C 239.08665 68.863332 238.703328 68.533333 238.01001 68.099998 C 237.690023 67.900002 237.570028 67.616669 237.650024 67.25 L 238.830017 61.77 C 238.897827 61.442146 239.1651 61.1908 239.5 61.139999 L 240.289978 61.02 C 240.636658 60.966666 240.793335 60.706666 240.76001 60.240002 C 240.746663 60.02 240.423319 59.75 239.789978 59.43 C 239.490011 59.283333 239.376689 59.049999 239.450012 58.73 Z M 132.23999 60.34 C 132 59.84 131.686666 59.586667 131.299988 59.580002 C 130.953328 59.566668 130.743337 59.730001 130.670013 60.07 L 128.709991 69.120003 C 128.59667 69.620003 128.796672 69.870003 129.309998 69.870003 L 129.720001 69.870003 C 130.181458 69.865326 130.571289 69.526352 130.640015 69.07 C 131.119995 65.980003 131.339996 61.830002 135.230011 60.98 C 135.683339 60.886667 135.930003 60.633334 135.970001 60.220001 C 135.996674 59.853333 135.830007 59.659999 135.470001 59.639999 C 134.330007 59.56 133.496674 59.823334 132.970001 60.43 C 132.872589 60.545158 132.723694 60.60392 132.575562 60.585655 C 132.427429 60.567394 132.300751 60.474659 132.23999 60.34 Z M 138.663605 60.482101 C 138.757782 60.067421 138.497986 59.654903 138.083313 59.560699 L 137.927307 59.5252 C 137.728149 59.479942 137.519165 59.515659 137.346344 59.624489 C 137.173553 59.733318 137.051025 59.906345 137.005798 60.105499 L 134.97641 69.037903 C 134.882233 69.452583 135.142029 69.865097 135.556702 69.959297 L 135.712708 69.994797 C 135.911865 70.040054 136.120819 70.004341 136.29364 69.895508 C 136.466461 69.786682 136.588959 69.613655 136.634186 69.414497 L 138.663605 60.482101 Z M 196.919983 60.169998 C 196.766663 59.909999 196.626668 59.746666 196.5 59.68 C 195.84668 59.326668 195.430013 59.543335 195.25 60.330002 L 193.280029 69.129997 C 193.166667 69.643333 193.373332 69.900002 193.900024 69.900002 L 194.27002 69.900002 C 194.661438 69.899704 195.001526 69.625977 195.090027 69.239998 L 196.200012 64.18 C 196.540019 62.646667 197.480021 61.733334 199.02002 61.439999 C 199.393351 61.366667 199.59668 61.326668 199.630005 61.32 C 201.143351 61.046666 201.726685 61.656667 201.380005 63.150002 L 199.98999 69.209999 C 199.950806 69.386665 199.993408 69.571587 200.105957 69.713272 C 200.218567 69.854958 200.389038 69.938271 200.570007 69.940002 L 200.950012 69.940002 C 201.363342 69.940002 201.619995 69.74 201.719971 69.339996 C 202.22998 67.370003 203.719971 62.77 202.960022 61 C 202.119995 59.060001 199.429993 59.360001 197.789978 60.389999 C 197.646484 60.48027 197.47229 60.507828 197.307922 60.466263 C 197.143555 60.424702 197.003357 60.317638 196.919983 60.169998 Z M 212.640015 60.32 C 212.393351 59.813334 212.076681 59.553335 211.690002 59.540001 C 211.33665 59.526667 211.123311 59.693334 211.049988 60.040001 L 209.039978 69.190002 C 208.926656 69.696665 209.130005 69.949997 209.650024 69.949997 L 210.059998 69.949997 C 210.527466 69.950943 210.926208 69.611626 211 69.150002 C 211.48999 66.019997 211.719971 61.82 215.659973 60.970001 C 216.119975 60.876668 216.369975 60.620001 216.409973 60.200001 C 216.436666 59.833335 216.269999 59.636668 215.909973 59.610001 C 214.756653 59.530001 213.909993 59.796668 213.369995 60.41 C 213.274109 60.522968 213.127808 60.580082 212.980713 60.561951 C 212.833679 60.543819 212.705566 60.452877 212.640015 60.32 Z M 255.090027 60.330002 C 254.843323 59.830002 254.526652 59.573335 254.140015 59.560001 C 253.793335 59.546668 253.583333 59.713334 253.51001 60.060001 L 251.530029 69.160004 C 251.416667 69.660004 251.619995 69.910004 252.140015 69.910004 L 252.539978 69.910004 C 253.007507 69.910942 253.406189 69.571625 253.47998 69.110001 C 253.960022 66 254.179993 61.830002 258.090027 60.970001 C 258.550028 60.876668 258.800028 60.623334 258.840027 60.209999 C 258.866679 59.843333 258.700012 59.646666 258.340027 59.619999 C 257.193339 59.546665 256.353333 59.813332 255.820007 60.419998 C 255.722595 60.535141 255.573669 60.593887 255.425598 60.575626 C 255.277466 60.557362 255.150757 60.464642 255.090027 60.330002 Z M 106.209991 65.290001 L 111.209991 65.290001 C 112.503326 65.290001 113.049998 64.650002 112.850006 63.370003 L 112.670013 62.259998 C 112.42333 60.679999 111.503326 59.816666 109.910004 59.669998 C 106.736664 59.37 104.733327 60.756668 103.899994 63.830002 C 102.100006 70.540001 109.410004 72.07 112.209991 66.699997 C 112.42333 66.29333 112.296661 66.096664 111.829987 66.110001 C 111.176666 66.123332 110.656667 66.339999 110.269989 66.760002 C 108.629995 68.56 107.149994 68.82 105.829987 67.540001 C 105.641571 67.358398 105.515472 67.120262 105.470001 66.860001 L 105.380005 66.260002 C 105.280009 65.613335 105.556671 65.290001 106.209991 65.290001 Z M 120.440002 61.48 C 120.753337 61.78 121.17334 62.263334 121.700012 62.93 C 122.006673 63.323331 122.34667 63.409999 122.720001 63.190002 C 123.013336 63.003334 123.130005 62.736666 123.070007 62.389999 C 122.703328 60.409999 121.40333 59.486665 119.170013 59.619999 C 113.829987 59.939999 112.309998 69.739998 117.670013 69.889999 C 120.170013 69.956665 121.716675 68.983332 122.309998 66.970001 C 122.610006 65.950002 122.330007 65.753334 121.470001 66.379997 C 120.549988 67.040001 118.76001 68.919998 117.320007 68.199997 C 116.486674 67.773331 116.070007 67.096664 116.070007 66.169998 C 116.063334 63.19 117.190002 61.52 119.450012 61.16 C 119.83667 61.1 120.166667 61.206666 120.440002 61.48 Z M 145.559998 61.490002 C 145.873332 61.796668 146.289998 62.283334 146.809998 62.950001 C 147.116659 63.343334 147.456655 63.43 147.829987 63.209999 C 148.129995 63.029999 148.25 62.766665 148.190002 62.419998 C 147.829997 60.433332 146.529999 59.503333 144.290009 59.630001 C 138.950012 59.93 137.390015 69.730003 142.76001 69.900002 C 145.26001 69.979998 146.810008 69.013331 147.410004 67 C 147.716665 65.980001 147.436666 65.780001 146.570007 66.400002 C 145.649994 67.059998 143.850006 68.940002 142.410004 68.209999 C 141.57667 67.783333 141.16334 67.103333 141.170013 66.169998 C 141.170013 63.19 142.303345 61.523333 144.570007 61.169998 C 144.956665 61.110001 145.286662 61.216668 145.559998 61.490002 Z M 155.899994 69.459999 L 157.040009 69.949997 C 157.32667 70.069997 157.486664 69.90333 157.519989 69.449997 C 157.566661 68.916667 157.863332 66.853335 158.410004 63.260002 C 159.170013 58.310001 152.140015 58.790001 150.679993 61.82 C 150.159993 62.893333 150.42333 63.143333 151.470001 62.57 L 153.320007 61.549999 C 153.372833 61.52356 153.427002 61.50663 153.480011 61.5 C 155.460012 61.126666 156.570007 61.403333 156.809998 62.330002 C 156.949992 62.883336 156.746663 63.243337 156.200012 63.410004 C 153.350006 64.269997 147.769989 62.900002 149.51001 68.449997 C 149.605774 68.770325 149.824371 69.042671 150.119995 69.209999 C 151.579997 70.043332 153.193329 70.12 154.959991 69.440002 C 155.273326 69.320002 155.58666 69.326668 155.899994 69.459999 Z M 185.187073 69.619499 C 186.267029 70.157974 187.558044 70.162399 188.776123 69.631798 C 189.994141 69.101204 191.039429 68.079048 191.682007 66.790199 C 192.324585 65.501381 192.511841 64.051453 192.202576 62.759384 C 191.893311 61.467312 191.112854 60.438942 190.032898 59.900501 C 188.952942 59.362026 187.661926 59.357601 186.443909 59.888199 C 185.225891 60.418797 184.180573 61.440956 183.537994 62.729801 C 182.895416 64.018616 182.70816 65.468544 183.017426 66.76062 C 183.326691 68.052689 184.107147 69.081055 185.187073 69.619499 Z M 222.400024 69.449997 L 223.539978 69.93 C 223.82664 70.043332 223.986654 69.873332 224.02002 69.419998 C 224.060018 68.893331 224.340007 66.833331 224.859985 63.239998 C 225.590027 58.290001 218.570007 58.82 217.130005 61.849998 C 216.623332 62.923332 216.889994 63.169999 217.929993 62.59 L 219.77002 61.560001 C 219.822815 61.533497 219.877014 61.516567 219.929993 61.509998 C 221.903341 61.123333 223.013346 61.393333 223.26001 62.32 C 223.406657 62.873334 223.206645 63.233335 222.659973 63.400002 C 219.820007 64.279999 214.23999 62.950001 216.01001 68.480003 C 216.108154 68.802025 216.330566 69.074631 216.630005 69.239998 C 218.090007 70.06 219.700012 70.123334 221.460022 69.43 C 221.773336 69.31 222.08667 69.316666 222.400024 69.449997 Z M 232.450012 61.470001 C 232.769999 61.776667 233.190002 62.26 233.710022 62.919998 C 234.023336 63.306666 234.363322 63.389999 234.72998 63.169998 C 235.029989 62.983332 235.146667 62.72 235.080017 62.380001 C 234.706685 60.4 233.403341 59.483334 231.169983 59.630001 C 225.849976 59.98 224.390015 69.760002 229.73999 69.879997 C 232.233317 69.933332 233.769979 68.956665 234.349976 66.949997 C 234.643311 65.929998 234.363322 65.733332 233.51001 66.360001 C 232.590027 67.019997 230.820007 68.910004 229.380005 68.199997 C 228.546672 67.779999 228.126668 67.106667 228.119995 66.18 C 228.093343 63.206668 229.206685 61.533334 231.460022 61.16 C 231.846659 61.1 232.176656 61.203334 232.450012 61.470001 Z M 243.507202 69.6157 C 244.57959 70.157402 245.866455 70.165337 247.084717 69.637756 C 248.302979 69.110184 249.352905 68.090309 250.003418 66.802498 C 250.653931 65.514694 250.851807 64.064438 250.553528 62.770771 C 250.255249 61.477108 249.485168 60.446003 248.412781 59.904301 C 247.340393 59.362598 246.053528 59.354664 244.835266 59.88224 C 243.617004 60.409821 242.567139 61.429691 241.916626 62.717499 C 241.266052 64.005302 241.068176 65.455559 241.366455 66.749229 C 241.664795 68.042892 242.434814 69.073997 243.507202 69.6157 Z M 264.090027 67.480003 C 263.190002 68.489998 261.099976 68.82 260.27002 67.480003 C 260.016683 67.073336 259.706685 66.676669 259.340027 66.290001 C 259.180359 66.125702 258.940063 66.068642 258.723633 66.143646 C 258.507202 66.218651 258.35376 66.412163 258.330017 66.639999 C 257.97998 70.129997 263.169983 70.699997 264.849976 69.110001 C 266.103312 67.929998 266.383321 66.769997 265.690002 65.629997 C 264.75 64.080002 262.51001 63.639999 261.400024 62.889999 C 260.726685 62.436666 260.736674 62.023333 261.429993 61.650002 L 261.900024 61.400002 C 262.539998 61.06 263.159993 61.093333 263.76001 61.5 L 265.700012 62.799999 C 265.849731 62.898842 266.043274 62.901623 266.19574 62.807117 C 266.348267 62.712608 266.431885 62.538067 266.409973 62.360001 C 265.799988 58 258.299988 59.029999 259.299988 63.110001 C 259.679993 64.610001 262.049988 65.370003 263.799988 66.150002 C 264.045959 66.261971 264.224976 66.483101 264.282227 66.745644 C 264.339478 67.008179 264.268127 67.280815 264.090027 67.480003 Z"/>
    <path id="path28" fill="#003396" stroke="none" d="M 20.258087 51.453068 L 24.238037 51.466961 C 24.431335 51.467636 24.587494 51.624882 24.586823 51.81818 L 24.573151 55.738155 C 24.572479 55.931454 24.415222 56.087608 24.221924 56.086933 L 20.241943 56.07304 C 20.048645 56.072365 19.892487 55.915119 19.893158 55.721821 L 19.90686 51.801842 C 19.907532 51.608543 20.064789 51.452393 20.258087 51.453068 Z"/>
    <path id="path29" fill="#003396" stroke="none" d="M 26.444 51.466545 L 30.403992 51.473457 C 30.580719 51.47377 30.723755 51.617287 30.72345 51.794018 L 30.716553 55.734009 C 30.716248 55.910744 30.572723 56.053761 30.395996 56.053452 L 26.436005 56.046539 C 26.259277 56.046234 26.116272 55.902714 26.116577 55.725983 L 26.123444 51.785988 C 26.123749 51.609261 26.267273 51.46624 26.444 51.466545 Z"/>
    <path id="path30" fill="#fefefe" stroke="none" d="M 97.48999 62.580002 L 97.290009 63.489998 C 97.257599 63.629791 97.133484 63.72908 96.98999 63.730003 L 90.049988 63.730003 C 89.906494 63.730927 89.78241 63.830208 89.75 63.970001 L 88.859985 67.970001 C 88.838287 68.063469 88.861115 68.161713 88.921753 68.236061 C 88.982422 68.310417 89.074066 68.352486 89.170013 68.349998 L 96.890015 68.349998 C 96.98941 68.351097 97.082245 68.399803 97.139679 68.480965 C 97.197083 68.562134 97.212067 68.665901 97.179993 68.760002 L 96.880005 69.660004 C 96.837616 69.784393 96.721405 69.868546 96.589996 69.870003 L 87.079987 69.870003 C 86.98407 69.872482 86.892426 69.830414 86.831757 69.756065 C 86.771118 69.681717 86.748291 69.583466 86.769989 69.489998 L 89.670013 56.310001 C 89.702393 56.170208 89.826508 56.070923 89.970001 56.07 L 98.730011 56.07 C 98.824188 56.070606 98.912964 56.113987 98.971313 56.187904 C 99.029663 56.261822 99.05127 56.358257 99.029999 56.450001 L 98.829987 57.360001 C 98.797607 57.49979 98.673492 57.599075 98.529999 57.599998 L 91.390015 57.599998 C 91.24649 57.600922 91.122406 57.700207 91.089996 57.84 L 90.209991 61.82 C 90.188293 61.913467 90.211121 62.011715 90.271759 62.086063 C 90.332428 62.160412 90.424072 62.202484 90.519989 62.200001 L 97.190002 62.200001 C 97.28418 62.200603 97.372955 62.243988 97.431335 62.317905 C 97.489685 62.391819 97.511261 62.488258 97.48999 62.580002 Z"/>
    <path id="path31" fill="#fefefe" stroke="none" d="M 102.64505 55.982262 L 103.15271 56.09481 C 103.481628 56.167725 103.689148 56.493469 103.616241 56.82238 L 100.802521 69.514229 C 100.729614 69.843132 100.40387 70.050659 100.074951 69.977737 L 99.567291 69.865189 C 99.238373 69.792274 99.030853 69.46653 99.10376 69.137619 L 101.91748 56.445774 C 101.990387 56.116867 102.316132 55.909344 102.64505 55.982262 Z"/>
    <path id="path32" fill="#fefefe" stroke="none" d="M 139.467804 56.509521 C 139.608002 56.92852 139.292816 57.411663 138.763855 57.588661 C 138.234863 57.765656 137.692383 57.569473 137.552185 57.150478 C 137.411987 56.731483 137.727173 56.248337 138.256165 56.071342 C 138.785126 55.894348 139.327606 56.090527 139.467804 56.509521 Z"/>
    <path id="path33" fill="#fefefe" stroke="none" d="M 163.124786 55.926384 L 163.534668 56.018005 C 163.890411 56.097519 164.114319 56.450356 164.03479 56.806084 L 161.203308 69.47348 C 161.123779 69.829216 160.770935 70.053131 160.415222 69.973618 L 160.005341 69.881996 C 159.649597 69.802483 159.42569 69.449646 159.505188 69.093918 L 162.3367 56.426514 C 162.416229 56.070786 162.769043 55.84687 163.124786 55.926384 Z"/>
    <path id="path34" fill="#fefefe" stroke="none" d="M 171.369995 64.540001 C 171.549988 69.389999 178.290009 69.349998 179.48999 65.489998 C 179.626556 65.039146 180.044708 64.730598 180.519989 64.730003 L 180.829987 64.730003 C 181.276662 64.730003 181.430003 64.940002 181.290009 65.360001 C 180.556671 67.653336 179.043335 69.09667 176.75 69.690002 C 165.410004 72.620003 168.529999 51.619999 179.980011 56.759998 C 180.773346 57.113333 181.410014 57.966667 181.890015 59.32 C 181.990204 59.598507 181.888031 59.913181 181.640015 60.09 C 181.446676 60.23 181.226674 60.28 180.980011 60.240002 C 180.686676 60.193333 180.456675 60.043332 180.290009 59.790001 C 178.703339 57.283333 176.630005 56.883333 174.070007 58.59 C 172.16333 59.85 171.263326 61.833333 171.369995 64.540001 Z"/>
    <path id="path35" fill="#fefefe" stroke="none" d="M 127.709991 59.439999 C 128.343333 59.759998 128.666667 60.029999 128.679993 60.25 C 128.713338 60.716667 128.556671 60.976667 128.209991 61.029999 L 127.420013 61.150002 C 127.088013 61.199409 126.821503 61.44603 126.75 61.77 L 125.549988 67.239998 C 125.469991 67.606667 125.589996 67.889999 125.910004 68.089996 C 126.59667 68.523331 126.976664 68.853333 127.049988 69.080002 C 127.176656 69.453334 127.046661 69.68 126.660004 69.760002 C 125.646678 69.986666 124.746674 69.839999 123.959991 69.32 C 123.65333 69.119998 123.539998 68.84333 123.619995 68.489998 L 125.01001 62.139999 C 125.103333 61.719999 124.986664 61.366666 124.660004 61.080002 C 124.439992 60.886668 124.299988 60.706668 124.23999 60.540001 C 124.08667 60.073334 124.253337 59.803333 124.73999 59.73 L 125.179993 59.66 C 125.539998 59.6 125.713338 59.386667 125.700012 59.02 C 125.666667 57.560001 126.176666 56.683334 127.230011 56.389999 C 127.703339 56.256666 127.886668 56.429999 127.779999 56.91 L 127.380005 58.740002 C 127.306661 59.060001 127.416656 59.293334 127.709991 59.439999 Z"/>
    <path id="path36" fill="#fefefe" stroke="none" d="M 207.719971 58.77 C 207.646647 59.096666 207.756653 59.329999 208.049988 59.470001 C 208.683329 59.790001 209.006673 60.06 209.02002 60.279999 C 209.060018 60.746666 208.906677 61.006667 208.559998 61.060001 L 207.77002 61.189999 C 207.438049 61.239429 207.171509 61.48605 207.099976 61.810001 L 205.909973 67.290001 C 205.829976 67.656665 205.949992 67.939997 206.27002 68.139999 C 206.963338 68.566666 207.346659 68.893333 207.419983 69.120003 C 207.546651 69.493334 207.416667 69.723333 207.030029 69.809998 C 206.016683 70.036667 205.116679 69.890002 204.330017 69.370003 C 204.016663 69.170001 203.899984 68.893333 203.97998 68.540001 L 205.359985 62.18 C 205.446655 61.76 205.32666 61.406666 205 61.119999 C 204.779989 60.926668 204.639994 60.746668 204.580017 60.580002 C 204.426656 60.12 204.593323 59.85 205.080017 59.77 L 205.52002 59.700001 C 205.880005 59.640001 206.053324 59.426668 206.039978 59.060001 C 205.99998 57.6 206.506653 56.719999 207.559998 56.419998 C 208.033346 56.286667 208.216675 56.46 208.109985 56.939999 L 207.719971 58.77 Z"/>
    <path id="path37" fill="#fefefe" stroke="none" d="M 239.450012 58.73 C 239.376689 59.049999 239.490011 59.283333 239.789978 59.43 C 240.423319 59.75 240.746663 60.02 240.76001 60.240002 C 240.793335 60.706666 240.636658 60.966666 240.289978 61.02 L 239.5 61.139999 C 239.1651 61.1908 238.897827 61.442146 238.830017 61.77 L 237.650024 67.25 C 237.570028 67.616669 237.690023 67.900002 238.01001 68.099998 C 238.703328 68.533333 239.08665 68.863332 239.159973 69.089996 C 239.286641 69.463333 239.156657 69.69 238.77002 69.769997 C 237.756673 70.003334 236.853333 69.860001 236.059998 69.339996 C 235.753316 69.139999 235.639974 68.863335 235.719971 68.510002 L 237.090027 62.139999 C 237.183329 61.719999 237.06665 61.366666 236.73999 61.080002 C 236.513346 60.886668 236.370015 60.706668 236.309998 60.540001 C 236.156677 60.073334 236.323344 59.803333 236.809998 59.73 L 237.25 59.66 C 237.609985 59.6 237.783325 59.386667 237.77002 59.02 C 237.730021 57.553333 238.236674 56.673333 239.289978 56.380001 C 239.769999 56.239999 239.956665 56.409999 239.849976 56.889999 L 239.450012 58.73 Z"/>
    <path id="path38" fill="#003396" stroke="none" d="M 26.395996 57.593529 L 30.435974 57.586479 C 30.585114 57.58622 30.706207 57.70689 30.706451 57.856007 L 30.713531 61.916 C 30.713806 62.065117 30.59314 62.186211 30.444 62.18647 L 26.404022 62.193523 C 26.254913 62.193783 26.13382 62.073112 26.133545 61.923996 L 26.126465 57.863998 C 26.12619 57.714882 26.246887 57.593788 26.395996 57.593529 Z"/>
    <path id="path39" fill="#fefefe" stroke="none" d="M 132.23999 60.34 C 132.300751 60.474659 132.427429 60.567394 132.575562 60.585655 C 132.723694 60.60392 132.872589 60.545158 132.970001 60.43 C 133.496674 59.823334 134.330007 59.56 135.470001 59.639999 C 135.830007 59.659999 135.996674 59.853333 135.970001 60.220001 C 135.930003 60.633334 135.683339 60.886667 135.230011 60.98 C 131.339996 61.830002 131.119995 65.980003 130.640015 69.07 C 130.571289 69.526352 130.181458 69.865326 129.720001 69.870003 L 129.309998 69.870003 C 128.796672 69.870003 128.59667 69.620003 128.709991 69.120003 L 130.670013 60.07 C 130.743337 59.730001 130.953328 59.566668 131.299988 59.580002 C 131.686666 59.586667 132 59.84 132.23999 60.34 Z"/>
    <path id="path40" fill="#fefefe" stroke="none" d="M 137.927277 59.525227 L 138.083282 59.560677 C 138.497986 59.654892 138.757782 60.067444 138.663574 60.482132 L 136.634186 69.414497 C 136.539978 69.829193 136.127411 70.088989 135.712738 69.994774 L 135.556702 69.959328 C 135.141998 69.865112 134.882202 69.45256 134.97644 69.037865 L 137.005829 60.105499 C 137.100037 59.690811 137.512573 59.431011 137.927277 59.525227 Z"/>
    <path id="path41" fill="#fefefe" stroke="none" d="M 197.789978 60.389999 C 199.429993 59.360001 202.119995 59.060001 202.960022 61 C 203.719971 62.77 202.22998 67.370003 201.719971 69.339996 C 201.619995 69.74 201.363342 69.940002 200.950012 69.940002 L 200.570007 69.940002 C 200.389038 69.938271 200.218567 69.854958 200.105957 69.713272 C 199.993408 69.571587 199.950806 69.386665 199.98999 69.209999 L 201.380005 63.150002 C 201.726685 61.656667 201.143351 61.046666 199.630005 61.32 C 199.59668 61.326668 199.393351 61.366667 199.02002 61.439999 C 197.480021 61.733334 196.540019 62.646667 196.200012 64.18 L 195.090027 69.239998 C 195.001526 69.625977 194.661438 69.899704 194.27002 69.900002 L 193.900024 69.900002 C 193.373332 69.900002 193.166667 69.643333 193.280029 69.129997 L 195.25 60.330002 C 195.430013 59.543335 195.84668 59.326668 196.5 59.68 C 196.626668 59.746666 196.766663 59.909999 196.919983 60.169998 C 197.003357 60.317638 197.143555 60.424702 197.307922 60.466263 C 197.47229 60.507828 197.646484 60.48027 197.789978 60.389999 Z"/>
    <path id="path42" fill="#fefefe" stroke="none" d="M 213.369995 60.41 C 213.909993 59.796668 214.756653 59.530001 215.909973 59.610001 C 216.269999 59.636668 216.436666 59.833335 216.409973 60.200001 C 216.369975 60.620001 216.119975 60.876668 215.659973 60.970001 C 211.719971 61.82 211.48999 66.019997 211 69.150002 C 210.926208 69.611626 210.527466 69.950943 210.059998 69.949997 L 209.650024 69.949997 C 209.130005 69.949997 208.926656 69.696665 209.039978 69.190002 L 211.049988 60.040001 C 211.123311 59.693334 211.33665 59.526667 211.690002 59.540001 C 212.076681 59.553335 212.393351 59.813334 212.640015 60.32 C 212.705566 60.452877 212.833679 60.543819 212.980713 60.561951 C 213.127808 60.580082 213.274109 60.522968 213.369995 60.41 Z"/>
    <path id="path43" fill="#fefefe" stroke="none" d="M 255.090027 60.330002 C 255.150757 60.464642 255.277466 60.557362 255.425598 60.575626 C 255.573669 60.593887 255.722595 60.535141 255.820007 60.419998 C 256.353333 59.813332 257.193339 59.546665 258.340027 59.619999 C 258.700012 59.646666 258.866679 59.843333 258.840027 60.209999 C 258.800028 60.623334 258.550028 60.876668 258.090027 60.970001 C 254.179993 61.830002 253.960022 66 253.47998 69.110001 C 253.406189 69.571625 253.007507 69.910942 252.539978 69.910004 L 252.140015 69.910004 C 251.619995 69.910004 251.416667 69.660004 251.530029 69.160004 L 253.51001 60.060001 C 253.583333 59.713334 253.793335 59.546668 254.140015 59.560001 C 254.526652 59.573335 254.843323 59.830002 255.090027 60.330002 Z"/>
    <path id="path44" fill="#fefefe" stroke="none" d="M 106.209991 65.290001 C 105.556671 65.290001 105.280009 65.613335 105.380005 66.260002 L 105.470001 66.860001 C 105.515472 67.120262 105.641571 67.358398 105.829987 67.540001 C 107.149994 68.82 108.629995 68.56 110.269989 66.760002 C 110.656667 66.339999 111.176666 66.123332 111.829987 66.110001 C 112.296661 66.096664 112.42333 66.29333 112.209991 66.699997 C 109.410004 72.07 102.100006 70.540001 103.899994 63.830002 C 104.733327 60.756668 106.736664 59.37 109.910004 59.669998 C 111.503326 59.816666 112.42333 60.679999 112.670013 62.259998 L 112.850006 63.370003 C 113.049998 64.650002 112.503326 65.290001 111.209991 65.290001 L 106.209991 65.290001 Z M 106.01001 63.739998 L 111.25 63.68 C 111.332855 63.68 111.399994 63.612846 111.399994 63.529999 L 111.399994 63.440002 C 111.387177 62.259155 110.196747 61.314873 108.73999 61.330002 L 108.480011 61.330002 C 107.779236 61.337204 107.109314 61.569969 106.617859 61.977009 C 106.126404 62.384048 105.85376 62.931957 105.859985 63.5 L 105.859985 63.589996 C 105.859985 63.672844 105.927155 63.739998 106.01001 63.739998 Z"/>
    <path id="path45" fill="#fefefe" stroke="none" d="M 120.440002 61.48 C 120.166667 61.206666 119.83667 61.1 119.450012 61.16 C 117.190002 61.52 116.063334 63.19 116.070007 66.169998 C 116.070007 67.096664 116.486674 67.773331 117.320007 68.199997 C 118.76001 68.919998 120.549988 67.040001 121.470001 66.379997 C 122.330007 65.753334 122.610006 65.950002 122.309998 66.970001 C 121.716675 68.983332 120.170013 69.956665 117.670013 69.889999 C 112.309998 69.739998 113.829987 59.939999 119.170013 59.619999 C 121.40333 59.486665 122.703328 60.409999 123.070007 62.389999 C 123.130005 62.736666 123.013336 63.003334 122.720001 63.190002 C 122.34667 63.409999 122.006673 63.323331 121.700012 62.93 C 121.17334 62.263334 120.753337 61.78 120.440002 61.48 Z"/>
    <path id="path46" fill="#fefefe" stroke="none" d="M 144.570007 61.169998 C 142.303345 61.523333 141.170013 63.19 141.170013 66.169998 C 141.16334 67.103333 141.57667 67.783333 142.410004 68.209999 C 143.850006 68.940002 145.649994 67.059998 146.570007 66.400002 C 147.436666 65.780001 147.716665 65.980001 147.410004 67 C 146.810008 69.013331 145.26001 69.979998 142.76001 69.900002 C 137.390015 69.730003 138.950012 59.93 144.290009 59.630001 C 146.529999 59.503333 147.829997 60.433332 148.190002 62.419998 C 148.25 62.766665 148.129995 63.029999 147.829987 63.209999 C 147.456655 63.43 147.116659 63.343334 146.809998 62.950001 C 146.289998 62.283334 145.873332 61.796668 145.559998 61.490002 C 145.286662 61.216668 144.956665 61.110001 144.570007 61.169998 Z"/>
    <path id="path47" fill="#fefefe" stroke="none" d="M 154.959991 69.440002 C 153.193329 70.12 151.579997 70.043332 150.119995 69.209999 C 149.824371 69.042671 149.605774 68.770325 149.51001 68.449997 C 147.769989 62.900002 153.350006 64.269997 156.200012 63.410004 C 156.746663 63.243337 156.949992 62.883336 156.809998 62.330002 C 156.570007 61.403333 155.460012 61.126666 153.480011 61.5 C 153.427002 61.50663 153.372833 61.52356 153.320007 61.549999 L 151.470001 62.57 C 150.42333 63.143333 150.159993 62.893333 150.679993 61.82 C 152.140015 58.790001 159.170013 58.310001 158.410004 63.260002 C 157.863332 66.853335 157.566661 68.916667 157.519989 69.449997 C 157.486664 69.90333 157.32667 70.069997 157.040009 69.949997 L 155.899994 69.459999 C 155.58666 69.326668 155.273326 69.320002 154.959991 69.440002 Z M 155.459991 64.949997 L 150.959991 65.980003 C 150.733643 66.029823 150.590424 66.253586 150.640015 66.480003 L 150.660004 66.580002 C 150.788971 67.144356 151.15979 67.629112 151.690674 67.927383 C 152.221558 68.225655 152.868927 68.312943 153.48999 68.169998 L 154.130005 68.019997 C 155.419647 67.727455 156.251434 66.542412 155.98999 65.370003 L 155.970001 65.269997 C 155.946228 65.159126 155.878632 65.062584 155.782562 65.002319 C 155.686523 64.942047 155.57019 64.92318 155.459991 64.949997 Z"/>
    <path id="path48" fill="#fefefe" stroke="none" d="M 185.187073 69.619499 C 184.107147 69.081055 183.326691 68.052689 183.017426 66.76062 C 182.70816 65.468544 182.895416 64.018616 183.537994 62.729801 C 184.180573 61.440956 185.225891 60.418797 186.443909 59.888199 C 187.661926 59.357601 188.952942 59.362026 190.032898 59.900501 C 191.112854 60.438942 191.893311 61.467312 192.202576 62.759384 C 192.511841 64.051453 192.324585 65.501381 191.682007 66.790199 C 191.039429 68.079048 189.994141 69.101204 188.776123 69.631798 C 187.558044 70.162399 186.267029 70.157974 185.187073 69.619499 Z M 185.905701 68.0756 C 187.273682 68.772644 189.13678 67.857742 190.067017 66.032097 C 190.997192 64.206459 190.642273 62.161434 189.274292 61.464401 C 187.906311 60.767357 186.043213 61.682262 185.112976 63.507896 C 184.1828 65.333542 184.537689 67.378563 185.905701 68.0756 Z"/>
    <path id="path49" fill="#fefefe" stroke="none" d="M 222.400024 69.449997 C 222.08667 69.316666 221.773336 69.31 221.460022 69.43 C 219.700012 70.123334 218.090007 70.06 216.630005 69.239998 C 216.330566 69.074631 216.108154 68.802025 216.01001 68.480003 C 214.23999 62.950001 219.820007 64.279999 222.659973 63.400002 C 223.206645 63.233335 223.406657 62.873334 223.26001 62.32 C 223.013346 61.393333 221.903341 61.123333 219.929993 61.509998 C 219.877014 61.516567 219.822815 61.533497 219.77002 61.560001 L 217.929993 62.59 C 216.889994 63.169999 216.623332 62.923332 217.130005 61.849998 C 218.570007 58.82 225.590027 58.290001 224.859985 63.239998 C 224.340007 66.833331 224.060018 68.893331 224.02002 69.419998 C 223.986654 69.873332 223.82664 70.043332 223.539978 69.93 L 222.400024 69.449997 Z M 222.150024 64.93 L 217.299988 65.989998 C 217.229309 66.006546 217.168274 66.050865 217.130615 66.112953 C 217.093018 66.175041 217.08197 66.249672 217.099976 66.32 L 217.130005 66.480003 C 217.259338 67.077446 217.630493 67.596756 218.161499 67.923233 C 218.692505 68.249702 219.3396 68.356491 219.960022 68.220001 L 220.669983 68.059998 C 221.289124 67.923813 221.830811 67.556511 222.175842 67.038902 C 222.520935 66.521286 222.641113 65.895782 222.51001 65.300003 L 222.469971 65.139999 C 222.455566 65.069633 222.413696 65.007912 222.353638 64.968498 C 222.293579 64.929092 222.220276 64.91523 222.150024 64.93 Z"/>
    <path id="path50" fill="#fefefe" stroke="none" d="M 232.450012 61.470001 C 232.176656 61.203334 231.846659 61.1 231.460022 61.16 C 229.206685 61.533334 228.093343 63.206668 228.119995 66.18 C 228.126668 67.106667 228.546672 67.779999 229.380005 68.199997 C 230.820007 68.910004 232.590027 67.019997 233.51001 66.360001 C 234.363322 65.733332 234.643311 65.929998 234.349976 66.949997 C 233.769979 68.956665 232.233317 69.933332 229.73999 69.879997 C 224.390015 69.760002 225.849976 59.98 231.169983 59.630001 C 233.403341 59.483334 234.706685 60.4 235.080017 62.380001 C 235.146667 62.72 235.029989 62.983332 234.72998 63.169998 C 234.363322 63.389999 234.023336 63.306666 233.710022 62.919998 C 233.190002 62.26 232.769999 61.776667 232.450012 61.470001 Z"/>
    <path id="path51" fill="#fefefe" stroke="none" d="M 243.507202 69.6157 C 242.434814 69.073997 241.664795 68.042892 241.366455 66.749229 C 241.068176 65.455559 241.266052 64.005302 241.916626 62.717499 C 242.567139 61.429691 243.617004 60.409821 244.835266 59.88224 C 246.053528 59.354664 247.340393 59.362598 248.412781 59.904301 C 249.485168 60.446003 250.255249 61.477108 250.553528 62.770771 C 250.851807 64.064438 250.653931 65.514694 250.003418 66.802498 C 249.352905 68.090309 248.302979 69.110184 247.084717 69.637756 C 245.866455 70.165337 244.57959 70.157402 243.507202 69.6157 Z M 244.297607 68.107803 C 244.959167 68.433334 245.766663 68.393867 246.542419 67.998093 C 247.318237 67.602318 247.998779 66.882645 248.434387 65.997398 C 248.869995 65.112152 249.024963 64.13385 248.865173 63.27771 C 248.705383 62.421566 248.243958 61.757717 247.582397 61.432201 C 246.920837 61.106667 246.113342 61.14613 245.337524 61.541908 C 244.561768 61.937687 243.881165 62.657356 243.445618 63.542603 C 243.01001 64.427849 242.855042 65.406151 243.014832 66.262291 C 243.174622 67.118431 243.636047 67.78228 244.297607 68.107803 Z"/>
    <path id="path52" fill="#fefefe" stroke="none" d="M 264.090027 67.480003 C 264.268127 67.280815 264.339478 67.008179 264.282227 66.745644 C 264.224976 66.483101 264.045959 66.261971 263.799988 66.150002 C 262.049988 65.370003 259.679993 64.610001 259.299988 63.110001 C 258.299988 59.029999 265.799988 58 266.409973 62.360001 C 266.431885 62.538067 266.348267 62.712608 266.19574 62.807117 C 266.043274 62.901623 265.849731 62.898842 265.700012 62.799999 L 263.76001 61.5 C 263.159993 61.093333 262.539998 61.06 261.900024 61.400002 L 261.429993 61.650002 C 260.736674 62.023333 260.726685 62.436666 261.400024 62.889999 C 262.51001 63.639999 264.75 64.080002 265.690002 65.629997 C 266.383321 66.769997 266.103312 67.929998 264.849976 69.110001 C 263.169983 70.699997 257.97998 70.129997 258.330017 66.639999 C 258.35376 66.412163 258.507202 66.218651 258.723633 66.143646 C 258.940063 66.068642 259.180359 66.125702 259.340027 66.290001 C 259.706685 66.676669 260.016683 67.073336 260.27002 67.480003 C 261.099976 68.82 263.190002 68.489998 264.090027 67.480003 Z"/>
    <path id="path53" fill="#003396" stroke="none" d="M 106.01001 63.739998 C 105.927155 63.739998 105.859985 63.672844 105.859985 63.589996 L 105.859985 63.5 C 105.85376 62.931957 106.126404 62.384048 106.617859 61.977009 C 107.109314 61.569969 107.779236 61.337204 108.480011 61.330002 L 108.73999 61.330002 C 110.196747 61.314873 111.387177 62.259155 111.399994 63.440002 L 111.399994 63.529999 C 111.399994 63.612846 111.332855 63.68 111.25 63.68 L 106.01001 63.739998 Z"/>
    <path id="path54" fill="#003396" stroke="none" d="M 185.905701 68.075638 C 184.537689 67.378601 184.1828 65.333557 185.112976 63.507904 C 186.043213 61.682255 187.906311 60.76733 189.274292 61.464367 C 190.642334 62.1614 190.997192 64.206444 190.067017 66.032097 C 189.13678 67.857742 187.273682 68.772667 185.905701 68.075638 Z"/>
    <path id="path55" fill="#003396" stroke="none" d="M 244.297607 68.107803 C 242.919983 67.429932 242.538574 65.386032 243.445618 63.542614 C 244.352722 61.699196 246.204773 60.754333 247.582397 61.432198 C 248.960022 62.110065 249.341431 64.153969 248.434387 65.997383 C 247.527283 67.840805 245.675232 68.785667 244.297607 68.107803 Z"/>
    <path id="path56" fill="#003396" stroke="none" d="M 222.150024 64.93 C 222.220276 64.91523 222.293579 64.929092 222.353638 64.968498 C 222.413696 65.007912 222.455566 65.069633 222.469971 65.139999 L 222.51001 65.300003 C 222.641113 65.895782 222.520935 66.521286 222.175842 67.038902 C 221.830811 67.556511 221.289124 67.923813 220.669983 68.059998 L 219.960022 68.220001 C 219.3396 68.356491 218.692505 68.249702 218.161499 67.923233 C 217.630493 67.596756 217.259338 67.077446 217.130005 66.480003 L 217.099976 66.32 C 217.08197 66.249672 217.093018 66.175041 217.130615 66.112953 C 217.168274 66.050865 217.229309 66.006546 217.299988 65.989998 L 222.150024 64.93 Z"/>
    <path id="path57" fill="#003396" stroke="none" d="M 155.459991 64.949997 C 155.57019 64.92318 155.686523 64.942047 155.782562 65.002319 C 155.878632 65.062584 155.946228 65.159126 155.970001 65.269997 L 155.98999 65.370003 C 156.251434 66.542412 155.419647 67.727455 154.130005 68.019997 L 153.48999 68.169998 C 152.868927 68.312943 152.221558 68.225655 151.690674 67.927383 C 151.15979 67.629112 150.788971 67.144356 150.660004 66.580002 L 150.640015 66.480003 C 150.590424 66.253586 150.733643 66.029823 150.959991 65.980003 L 155.459991 64.949997 Z"/>
</svg>
