<svg height="1588" preserveAspectRatio="xMidYMid meet" viewBox="0 0 4500 1588" width="4500" xmlns="http://www.w3.org/2000/svg"><g fill="#231f1f"><path d="m3472 1557.4c-15-4-23-15.1-23-32.1v-6.3h11.9 11.8l.5 6.3c.3 3.5 1.3 7.7 2.2 9.5 3.4 6.5 15.2 9.3 22.6 5.3 5.4-2.8 8-7.4 8-14 0-11-5.3-16.1-23.3-22.5-24-8.5-31.9-17.9-31.9-37.6 0-9.6.7-13 3.8-19.1 5.7-11.5 17-16.9 35-16.9 14.3 0 22 2.5 29 9.5 5.5 5.5 7.8 10.7 8.9 20.8l.6 5.7h-12-12.1v-3.7c0-5.4-3.5-11.8-7.4-13.7-7-3.3-16.1-1.2-19.6 4.6-2.4 3.9-2.7 12.2-.6 17.2 1.9 4.5 5 6.7 16.3 11.6 19.6 8.4 25.7 11.8 30.5 16.6 6.2 6.1 7.8 11.1 7.8 23.5 0 20.2-8.2 30.9-27.2 35.4-8 1.9-24.6 1.8-31.8-.1z"/><path d="m4126.2 1557.5c-6.9-1.9-8.6-2.9-13.9-7.8-9.7-8.9-12.4-19.1-13-49.7-.7-33.8 2.2-48.7 11.4-59 2.5-2.8 6.8-6.1 10.1-7.7 5.4-2.7 6.3-2.8 20.2-2.8 12.7 0 15.1.3 19.1 2.1 11.2 5.2 17.1 14.5 18.9 30 .5 4.9 1 9.4 1 9.9 0 .6-4.6.9-12.4.7l-12.3-.3-.5-7.2c-.9-13.2-6.6-19.5-16.5-18.4-5.6.6-9.7 4.3-11.8 10.6-3.3 10.1-4.6 41.4-2.4 60.9 1.8 16.8 6.2 23.2 16.1 23.2 9 0 14.3-6.6 15.4-19.2.3-3.4.7-7.8 1-9.5l.5-3.3h12.1 12.1l-.7 7.8c-1.9 21.6-7.6 32.1-20.5 38-4.8 2.2-7.3 2.6-17.1 2.9-7.9.2-13.1-.2-16.8-1.2z"/><path d="m4394 1557.4c-5.9-1.6-12.5-5.1-15.2-8-4.3-4.9-7.1-12.6-7.6-21.6l-.5-8.8h12.2 12.1v5.3c0 10.9 6.3 17.7 16.5 17.7 10.1 0 16.5-6.2 16.5-15.9 0-10.8-5.5-16.2-22.1-22-18.6-6.5-27.9-13.7-31.5-24.4-2.4-7.1-2.4-20.3.1-28.2 2.8-8.9 10.7-16.6 19.9-19.4 9.4-2.9 24.8-2.9 34.1 0 12.6 3.9 20.5 14.7 20.5 28.1v5.8h-11.5-11.5v-2.7c0-9-5-15.3-12.7-16-10.1-1-16.3 4.5-16.3 14.5 0 6.3 1.8 11.1 5.4 13.9 1.4 1.2 7 4 12.3 6.3 25 10.8 31.9 15.3 35.9 23.8 3.8 8 3.5 24.5-.7 34.2-3.7 8.5-12.1 14.7-24.1 17.5-8 1.9-24.6 1.8-31.8-.1z"/><path d="m2407 1504.5v-52.5h-14-14v-10-10h40 40v10 10h-14-14v52.5 52.5h-12-12z"/><path d="m2518 1494.5v-62.5h12 12v24 24h15.5 15.5v-24-24h12.5 12.5v62.5 62.5h-12.5-12.5v-28-28h-15.5-15.5v28 28h-12-12z"/><path d="m2664 1494.5v-62.5h34.5 34.5v10 10h-22.5-22.5v15.5 15.5h21 21v9.5 9.5h-21-21v17.5 17.5h23.5 23.5v10 10h-35.5-35.5z"/><path d="m2796 1494.5v-62.5h25.8c18.1 0 27.4.4 31.5 1.4 15.3 3.6 22.5 14.9 21.5 33.8-.4 6.8-1.1 10-3.3 14.4-2.9 5.9-8.4 10.8-13.5 11.9-4.1.9-4.7 2.3-1.3 3 1.5.3 4.7 1.5 7.1 2.6 3.6 1.6 4.8 2.9 6.9 7.5 2.2 4.9 2.6 7.5 3.4 24.2.8 14.6 1.4 19.5 2.8 22.5l1.8 3.7h-12.9-12.8l-1.1-2.7c-.6-1.6-1.4-11.1-1.8-21.3-.8-19.4-1.5-22.3-6.1-26.5-1.9-1.7-3.9-2.1-13.1-2.3l-10.9-.4v26.6 26.6h-12-12zm46-9.7c5.4-2.8 7.9-6.9 8.7-14.1.9-8.9-2.3-15.9-8.9-19.3-1.8-.9-6-1.4-12.3-1.4h-9.5v18.5 18.5h8.8c7.1 0 9.6-.4 13.2-2.2z"/><path d="m2941.5 1522.3c5.1-19.2 12.5-47.3 16.6-62.5l7.3-27.8h15.2c13.7 0 15.3.2 15.8 1.8.5 1.7 3.4 12.4 22.1 83.2 5.3 20.1 9.8 37.3 10.1 38.3.5 1.6-.5 1.7-12 1.7h-12.5l-1-3.7c-.5-2.1-1.9-8.2-3.1-13.5l-2.2-9.8h-16.9c-19.8 0-17.3-1.9-20.9 15.8l-2.3 11.2h-12.7-12.7zm51.8-12c.3-.8-11.3-56.3-12-57.2-.1-.2-.6-.2-.9.1-.6.6-12.4 54.4-12.4 56.6 0 .9 3.2 1.2 12.4 1.2 6.9 0 12.7-.3 12.9-.7z"/><path d="m3086 1494.4v-62.5l27.3.3 27.2.3 5.7 2.8c12.1 6 17.8 16.8 17.8 34.1 0 14.6-4.2 24.2-13.4 30.3-6.9 4.7-13.4 6.4-27.3 7l-12.3.6v24.8 24.9h-12.5-12.5zm46.7-8c1.5-1.1 3.8-4 5.1-6.5 2-3.7 2.3-5.5 1.9-12-.7-13.7-5.3-17.9-20.1-17.9h-8.6v19.6 19.6l9.4-.4c7.6-.2 10-.7 12.3-2.4z"/><path d="m3250 1532.9v-24.1l-16.1-37.6c-8.9-20.7-16.3-38-16.6-38.4-.2-.5 5.8-.8 13.4-.8h13.8l8 23.6c8 23.4 9.1 26.3 9.8 25.4.2-.3 3.4-9 7.1-19.5 3.8-10.4 7.7-21.4 8.8-24.2l1.9-5.3h13.1c10 0 12.9.3 12.5 1.3-.2.6-7.5 17.7-16.1 37.9l-15.6 36.7v24.6 24.5h-12-12z"/><path d="m3592 1494.5v-62.5h35 35v10 10h-22.5-22.5v15.5 15.5h21 21v9.5 9.5h-21-21v17.5 17.5h23.5 23.5v10 10h-36-36z"/><path d="m3725 1494.5v-62.5h25.8c28.1 0 34.3.8 41.1 5.3 7.9 5.3 12.1 14.4 12.1 26.3 0 16.7-6.4 27-19.1 30.8-2.1.6-1.8.9 2.8 2.5 12.8 4.4 14.4 8.4 15.8 38 .7 14.9 1.5 18.7 4.2 20.9 1.4 1-.8 1.2-12 1.2h-13.7l-1.1-2.7c-.6-1.6-1.4-11.1-1.8-21.3-.8-20.5-1.6-23.5-7.4-27-2.6-1.6-5-2-12.9-2h-9.8v26.5 26.5h-12-12zm46-9.7c6.4-3.3 8.4-7.4 8.5-16.8 0-13.6-5-18-20.9-18h-9.6v18.5 18.5h8.8c7.1 0 9.6-.4 13.2-2.2z"/><path d="m3876.6 1496.3c-7.7-33.5-14.1-61.6-14.4-62.5-.4-1.6.7-1.8 12.6-1.8h13l3.2 16.8c1.7 9.2 4.7 24.4 6.5 33.7 1.8 9.4 4.3 22.7 5.6 29.7 1.3 7.1 2.9 12.8 3.4 12.8.6 0 5-20.4 9.9-45.3 5-24.8 9.2-45.8 9.4-46.4.3-1 3.8-1.3 12.9-1.3 12.5 0 12.5 0 11.9 2.3-.3 1.2-4 17.3-8.2 35.7s-10.4 45.4-13.8 60l-6.2 26.5-15.9.3-16 .2z"/><path d="m4010 1494.5v-62.5h12 12v62.5 62.5h-12-12z"/><path d="m4244 1494.5v-62.5h34.5 34.5v10 10h-22.5-22.5v15.5 15.5h21 21v9.5 9.5h-21-21v17.5 17.5h23.5 23.5v10 10h-35.5-35.5z"/><path d="m955.1 1337c-44.9-5.7-73.7-31.9-86.1-78.4-6.7-25.1-6.4-15-6.7-197.3l-.4-165.3h-47.9-48v-30.8-30.8l43.8-4.3c24-2.3 45.6-4.5 48-4.8l4.2-.6v-60.6-60.6l45.3-8.9c24.8-4.9 46.2-9.2 47.5-9.4l2.2-.4v70.1 70.1h69.5 69.5v4.5c0 4.4.1 4.5 3.3 4.5 5 0 92.8-9 93.8-9.6.5-.3.9-27.3.9-60.7v-60.2l45.3-8.9c24.8-4.9 46-9.1 47-9.4 1.6-.4 1.7 3.4 1.7 69.7v70.1h70 70v35.5 35.5h-70-70.1l.4 161.8c.3 179.3-.1 167.2 6.8 181.8 14.2 30.1 52 32.4 105.2 6.6l11.9-5.8 12.5 25 12.5 25-2.4 1.8c-7.2 5.7-28.2 18.1-41.3 24.4-31.1 14.9-55.8 20.7-88.5 20.8-17.7.1-26.4-1-39.5-5.1-40.5-12.7-64.7-48.5-70.5-104.3-.6-5.8-1-72-1-170.7v-161.3h-118.5-118.5l.3 163.8c.3 181.7-.2 167.4 6.8 181.3 14.3 28.4 50.9 30.4 103.2 5.6 7-3.3 12.9-5.8 13.1-5.6s6.1 11.4 13 24.9l12.5 24.5-14 9.2c-29.3 19.2-58 30.7-88.9 35.8-11.7 1.9-38 2.7-47.9 1.5z"/><path d="m1917.5 1337.4c-29.2-2.3-51.5-6.7-72.9-14.6-86.5-31.7-133.8-111.3-137.2-230.8-1.2-40.1 3.1-75.3 13.3-109 29.3-97 102.3-161 195.1-171 14.9-1.7 55.9-.8 70.1 1.5 64.3 10.2 107.4 40.4 132.7 92.8 21.1 44.1 29.5 111.3 21.3 170.8l-1.2 8.6-68.6.7c-37.7.3-91.8.6-120.1.7-28.3 0-72.2.3-97.4.6l-45.9.6.6 14.6c3.3 85.2 48.9 146.6 116.9 157.6 17.4 2.8 48.9 1.5 72.1-3 35.4-6.8 72.7-21.8 101.1-40.6 5.9-3.9 10.9-6.9 11-6.7 3.9 4.6 32.4 48.4 32 49s-6.2 5.1-13 10.2c-47.5 35.3-103.3 58.9-156.4 66.2-10.4 1.4-43.9 2.5-53.5 1.8zm124.2-335.6c-.6-17.4-3.1-31.9-8.3-47.8-12.1-37.4-35.9-59.7-72-67.6-10.9-2.3-36.6-2.4-48.6 0-17.7 3.4-34.9 10.8-47.8 20.5-8.8 6.6-22.5 21-28.2 29.6-13.4 20.3-23.4 49.1-25.5 73.3l-.6 7.2h115.8 115.8z"/><path d="m2548.5 1336.9c-47.3-3.1-111.8-16.8-158.6-33.6l-9.9-3.5v-83.9-83.9h37.8 37.8l2.2 11.3c10.2 54.3 16.4 86.5 16.9 88.1 1.2 4 29.7 14.9 52.3 20 21.1 4.7 34.2 5.9 59 5.3 17.6-.4 24.9-.9 33.5-2.7 37.4-7.4 63.6-19.9 83.6-39.9 18.4-18.5 27.1-40.6 25.6-65.1-2.2-34.9-22.5-59.4-67.7-81.9-19.3-9.5-32.1-14.6-78.1-31.1-44.7-16-64.9-24-84.6-33.5-68.6-33-103.3-73.1-113.8-131.5-.9-5.2-1.9-17.5-2.2-27.2-2.4-78.6 32.4-138.2 99.7-170.5 45-21.6 102.1-30 164.5-24.3 43.2 4 99.3 15.9 153.4 32.7l11.4 3.5-.6 20.7c-.3 11.3-1.3 46.9-2.2 79.1s-1.8 59.5-2.1 60.8l-.4 2.2h-30.4-30.5l-3.8-12.2c-2.2-6.8-9.5-30-16.4-51.6l-12.4-39.3-8-2.4c-19.7-6-46.2-11.4-66.5-13.5-12.5-1.3-43.4-1.3-54 0-31.9 4-57.6 14.9-75.8 32.4s-26.5 36.6-26.3 61.1c.1 23.1 8.4 41.3 26.9 58.6 20.8 19.6 48 32.9 118.2 57.9 53.5 19 72 26.4 96.1 38.5 27.6 13.9 43.4 24.9 61 42.4 23.3 23.3 35.3 46.3 41.1 78.1 2.7 14.9 2.9 43.8.5 61.6-4.5 32.5-16.1 62.9-33.5 87.4-8.2 11.5-26.7 30.5-38.2 39.1-51 38.4-123.1 56.2-205.5 50.8z"/><path d="m3029.5 1336.9c-48.3-6.6-78.2-36.6-88.3-88.9-1.1-5.8-2.4-11.8-2.8-13.5-.4-1.6-1-78.4-1.3-170.5l-.6-167.5-48.3-.3-48.2-.2.2-30.8.3-30.7 46.9-4.7c25.9-2.6 47.6-5 48.3-5.2 1-.4 1.3-12.2 1.3-60.8v-60.3l44.3-8.8c24.3-4.8 45.6-9 47.2-9.3l3-.6v69.9 69.8l69.8.3 69.7.2v35.5 35.5l-69.7.2-69.8.3v161 161l2.2 8.7c2.8 10.9 5.8 16.9 11.8 23.6 8.8 9.8 21.2 13.8 39.5 12.9 17.1-.9 37-7.1 60.3-18.5l9.9-4.8 12.4 24.8c6.8 13.6 12.4 25 12.4 25.3 0 1.2-24.5 16.4-36.3 22.5-22.9 11.9-47.1 20-69.2 23-11.3 1.5-36.7 2.1-45 .9z"/><path d="m3314.3 1336.9c-65.1-6.3-106.9-42.6-119.2-103.6-5.6-27.5-4.8-59.3 2.1-84.3 14.2-51.7 59.3-84.6 132.4-96.9 27.8-4.7 39.2-5.3 100.7-5.8l58.8-.5-.4-49.2c-.3-47.1-.4-49.4-2.6-57.1-3.9-14.2-9.4-23.9-19.1-33.6-12.3-12.5-24.5-18.6-44.9-22.6-10.1-1.9-41-2.2-58.1-.4-22 2.3-60.6 10.3-63.4 13.1-.6.6-4 16.9-7.6 36.3l-6.6 35.2-30.7.3c-24.2.2-30.7 0-30.7-1 0-.7-.5-11.9-1-24.8-1.8-41.9-3.9-93.5-3.7-93.5 2.7-1 41.2-13 46.2-14.4 37.5-10.7 82-19.5 112.5-22.2 15.3-1.3 61.6-.7 74.5 1.1 42.4 5.8 73.2 18.7 94.1 39.5 15.2 15.2 25.9 34.6 31.1 56.5 4.9 20.8 4.6 11.9 5.2 183l.6 160.5 38.2 9.5 38.3 9.5v26 26l-5.7.3c-36.1 1.4-141.5 4.3-141.9 3.9-.3-.3-4.8-14.8-10-32.4-5.2-17.5-9.7-32.4-9.9-33.1-.3-.8-5.1 2.9-12.2 9.4-42.4 38.4-87.2 60.8-130.5 65.4-10.6 1.1-24.6 1.1-36.5-.1zm63.7-76.5c34.5-6.5 72.6-30.9 103.2-65.9l7.8-8.9v-39.4-39.4l-50.2.5c-52.3.5-63.9 1.3-83.6 5.6-37.9 8.3-57.4 24.6-64.8 54.1-2.6 10.2-2.6 33.4 0 43.5 6.7 26.3 25.1 44.3 51.1 50 8.3 1.9 26.6 1.8 36.5-.1z"/><path d="m4219.5 1337.3c-41.6-1.9-89.6-9.4-121.4-18.9l-5.1-1.5v-70.4-70.5h33 33l.5 2.3c.5 2.5 7.1 54 8.7 68.7.6 5.2 1.6 10.1 2.2 10.8 1.4 1.4 15.7 4.3 34.1 6.8 18.7 2.5 67.8 2.6 82 .1 39.1-6.9 61.6-22.6 70.1-49.1 3.1-9.7 4.4-27.9 2.5-36.6-2.9-13.6-12.3-26-27.2-36-16.6-11.1-30.7-16.9-82.4-34-18.7-6.1-41.4-14.1-50.5-17.7-68.5-26.9-100.1-61.5-106-116.2-3-27.2 1.9-57.5 13-80.9 6.6-13.9 12.6-22.6 22.7-33.2 23.2-24.4 54.4-39.8 95.3-47 24.3-4.3 67.1-3.9 101 1.1 28.6 4.1 75.9 14.6 99.3 21.9l6.7 2.1v6.2c.1 13.2-2.1 108.6-2.6 115.5l-.6 7.2h-30.3c-28.1 0-30.4-.1-30.9-1.7-.2-1-3.7-17.9-7.7-37.5l-7.3-35.8-4.6-1.4c-23.3-7.6-61-11.7-87.9-9.6-39.5 2.9-61.3 16.9-69.7 44.6-2.8 9-2.6 28.9.4 36.9 6.3 17 21.1 30.4 47.5 43 15.3 7.3 22.9 10.2 62.2 23.7 39.8 13.7 55.5 19.7 73 28.3 49.6 24.3 74.1 53 81.1 94.6 2.2 13.2 1.5 39.8-1.5 54-5.9 29.2-18.2 52-39.1 73-41.2 41.4-108.5 61.3-193.5 57.2z"/><path d="m46 1299.7v-28.3l40-9.4 40-9.4v-260.1-260.1l-40-9.4-40-9.4v-26.1-26.1l15.3-.3c8.3-.1 63.8-1.1 123.2-2.1 59.4-1.1 111.5-2 115.8-2h7.7l-.2 28.2-.3 28.1-40.5 9.6-40.5 9.6v260 260h99 98.9l7.1-41c4-22.5 8.3-47.3 9.6-55l2.4-14 33.3-.3 33.2-.2v93 93h-232-232z"/><path d="m530 1302.3v-25.8l41-12 41-12v-178.2-178.2l-3.2-.9c-1.8-.5-20.3-4.9-41-9.7l-37.8-8.8v-25.7-25.7l14.8-.7c8.1-.3 33.4-1.1 56.2-1.6 49.9-1.1 73.9-1.8 92.3-2.6l13.7-.6v216.4 216.3l36 12 36 12v25.7 25.8h-124.5-124.5z"/><path d="m1450 1302.3v-25.8l41-12 41-12v-293.7c0-161.6-.2-293.8-.5-293.8-.4 0-60.3-14-79.2-18.5l-2.3-.5v-26-26h8.8c4.8 0 15-.3 22.7-.5 18-.7 81.4-2.3 115.5-3 14.6-.3 27.7-.8 29.3-1l2.7-.5v331.8 331.8l43 11.9 43 11.9v25.8 25.8h-132.5-132.5z"/><path d="m3682 1302.2v-25.9l40.5-11.8 40.5-11.9-.2-178.4-.3-178.4-26.5-6.3c-14.6-3.4-32.7-7.7-40.2-9.5l-13.8-3.2v-25.8-25.7l12.8-.7c7-.3 29.4-1.1 49.7-1.6 45-1.2 66.2-1.8 82.1-2.6l12.1-.6.6 2.9c.3 1.5 2.2 16.8 4.2 33.8 2 17.1 3.9 31.6 4.1 32.4.3.9 5.3-3.4 14.2-12.2 33.6-33.4 65.4-53.1 100.7-62.3 8.4-2.2 12.9-2.7 27.7-3.1 26.5-.8 50.1 2.2 77.5 9.8l11.3 3.1v8.2c0 4.4-.5 18.7-1 31.6s-1.5 40.5-2.1 61.3l-1.3 37.7h-30.8c-16.9 0-30.8-.2-30.8-.5s-3.1-16.2-7-35.4c-3.8-19.2-7-35.2-7-35.7 0-1.2-20.1.4-31.4 2.6-36.6 7.1-72.8 29.2-100.2 61.3l-9.4 11 .2 143.1.3 143.1 47.8 12 47.7 12v25.7 25.8h-136-136z"/><path d="m578.3 753.9c.3-1.3 3.4-19 6.8-39.2l6.3-36.9-28.3-27.6c-15.6-15.2-28-27.7-27.5-27.9.5-.1 16.9-2.5 36.4-5.3s36.8-5.3 38.4-5.6c2.6-.6 4.2-3.3 20.3-36.1l17.4-35.4 17.5 35.3c9.7 19.4 17.7 35.4 17.9 35.6.3.3 25 4 62.8 9.4l15.9 2.2-6.9 6.5c-3.7 3.6-16.6 16.1-28.5 27.8l-21.8 21.3 6.5 37.9c3.6 20.8 6.5 38.3 6.5 38.9 0 .5-5.7-2-12.7-5.7-7.1-3.7-22.8-12-35-18.4l-22.2-11.7-25.8 13.6c-14.2 7.5-30 15.8-35.2 18.6-8.8 4.7-9.3 4.9-8.8 2.7z"/><path d="m1962.3 669.4c.3-2.1 6.4-38.3 13.7-80.4 7.2-42.1 14.9-86.9 17.1-99.7l3.9-23.2-20.7-20.3c-11.4-11.2-29.5-28.8-40.3-39.3-98.3-95.8-89.6-86.9-86.3-87.8 1.5-.4 20.1-3.2 41.3-6.2 21.2-3.1 64.8-9.4 97-14.1 32.2-4.6 60.4-8.7 62.6-9.1l4.2-.5 10.8-22.2c5.9-12.1 26.9-54.6 46.5-94.4l35.8-72.2 13.4 27.2c48.5 98.6 79.1 160.4 79.6 161 .6.6 35.5 5.8 153.6 22.8 27 3.8 50.2 7.3 51.7 7.8 2.6.7 1.5 1.8-24.5 27.2-15 14.5-43.8 42.6-64.2 62.5-20.3 19.8-41.9 40.8-48 46.7l-10.9 10.6 4.2 24.9c2.3 13.6 10.3 60.1 17.7 103.2 7.4 43.2 13.3 78.6 13.2 78.7-.3.3-6.7-3.1-116-60.5-37.8-19.8-69.3-36.1-69.9-36.1-.7 0-16 7.8-34.2 17.4-18.2 9.5-59.4 31.2-91.6 48.1s-58.9 31-59.4 31.3-.7-1.2-.3-3.4z"/><path d="m877 564.5c0-.8 8.9-52.7 15.4-90l5.4-31-19.1-19c-10.6-10.4-30.6-30.1-44.5-43.6l-25.4-24.6 11.4-1.7c6.2-1 33.8-5 61.3-8.9l50-7.2 2.8-5.5c1.5-3 13.9-28.1 27.6-55.7l24.7-50.3 27.6 56c23.8 48.2 28 56 29.8 56 2.4 0 110.2 15.5 116.3 16.7l3.9.8-27.8 27c-15.3 14.9-35.2 34.2-44.3 43.1l-16.5 16.1 1.2 7.9c.7 4.3 2.8 16.7 4.7 27.4 9.4 54.8 14.5 84.6 14.5 85.8 0 .8-2.8-.3-7.2-2.7-22.9-12.4-101.1-53.1-102.2-53.1-1 0-53.7 27.4-99.3 51.6-5.7 3-10.3 5.2-10.3 4.9z"/><path d="m1345.5 489.9c.3-1.3 4.1-23.5 8.5-49.4 8.9-51.7 13.9-80.8 17.5-101.8l2.4-13.8-23.2-22.7c-12.8-12.5-40-39.1-60.5-59.1s-37.1-36.6-36.9-36.7c.2-.2 31.3-4.9 69.3-10.4 37.9-5.5 74.8-10.9 82.1-12s13.7-2 14.3-2c1 0 58.3-114.5 71.6-142.9 2.4-5.2 4.6-9.2 4.9-9 .2.3 17.1 34.2 37.5 75.4s37.4 75.3 37.8 75.7c.7.6 15.3 2.9 118.1 17.8 26.7 3.9 48.6 7.2 48.8 7.4.3.3-11.3 11.7-115 112.6l-5.8 5.6 4.1 24c6.3 36 10.4 60 15.5 89.9 2.5 14.9 5.7 32.9 6.9 40.2l2.3 13.2-12.1-6.4c-6.7-3.5-40.4-21.3-75.1-39.5l-63-33.2-6.5 3.5c-3.6 1.9-33.7 17.8-67 35.2s-64.2 33.7-68.8 36.2c-7.8 4.3-8.3 4.4-7.7 2.2z"/></g></svg>