<svg viewBox="0 0 2000 600" xmlns="http://www.w3.org/2000/svg"><g fill="none" stroke-width="2"><path d="m1277.53 139.06a.44.44 0 0 0 -.44-.44h-3.66a.44.44 0 0 0 -.44.44v334.64a.44.44 0 0 0 .44.44h3.66a.44.44 0 0 0 .44-.44z" stroke="#9c9c9c"/><path d="m1053.72 283.35c-.83 59.48 60.93 77 108.28 65.89 29.07-6.82 48.06-26.48 48.61-57.27.48-26.4-12.93-43.63-36.88-53.24q-12.99-5.22-26.66-8.31c-12.85-2.91-23.23-4.73-33.78-9.43-6.71-2.99-12.47-8-12.99-15.73-.7-10.45 6.15-17.6 15.53-20.69 18.31-6.03 50.32-1.05 48.75 24.83a.68.68 0 0 0 .68.73h40.57a.52.52 0 0 0 .52-.49c2.11-39.69-31-59.72-65.86-62.5-40.55-3.24-83.46 12.53-83.57 59.86-.11 44.85 38.33 53.58 73.27 61.45q7.62 1.71 16.44 4.79c9.05 3.16 19.5 8.4 20.17 19.45.65 10.61-7.01 17.63-16.71 20.38-18.1 5.14-46.13 2.54-52.21-19.14-.95-3.4-.48-7.64-.75-10.32a.7.7 0 0 0 -.7-.63h-42.33a.38.37-0 0 0 -.38.37" stroke="#9c9c9c"/><path d="m1548.31 147.68q-.66-.55-1.26-.36a.56.55 81.5 0 0 -.39.53l.01 43.49" stroke="#dedee0"/><path d="m1546.67 191.34q-4.25.03-8.67.02-67.25-.16-134.5-.14-2.47 0-5.68.93" stroke="#f3f3f4"/><path d="m1397.82 192.15q-2.39-1.7-4.71 3.39-1.77 3.87-1.8 3.94-25.46 50.07-50.97 100.13-1.12 2.21-1.99 4.35" stroke="#dedee0"/><path d="m1338.35 303.96-.31.43a.66.65 17.4 0 0 .54 1.03l208.17-.02" stroke="#c0c0c2"/><path d="m1546.75 305.4q-.13 20.85.12 41.6.01.8.41 1.52" stroke="#dedee0"/><path d="m1547.28 348.52q-.31.9.5.9 99.87.04 199.73.03.51 0 .59-.89" stroke="#c0c0c2"/><path d="m1748.1 348.56.04-42.58a.53.52-19 0 1 .21-.42q.41-.32.68-.12" stroke="#dedee0"/><path d="m1749.03 305.44 149.3-.02" stroke="#c0c0c2"/><path d="m1898.33 305.42q1.16.66 2.03-1.04.02-.05 54.46-106.61 1.48-2.89 2.96-5.64a.39.38-85.1 0 0 -.46-.55l-3.06 1.04" stroke="#d3d4d6"/><path d="m1954.26 192.62q-3.16-1.47-8.51-1.47-99.04.08-197.64.15" stroke="#f3f3f4"/><path d="m1748.11 191.3q.17-20.29.01-42.27-.01-1.58-1.08-1.38" stroke="#dedee0"/><path d="m1747.04 147.65q-3.12-.51-4.6-.51-94.84-.03-189.68 0-1.52 0-4.45.54" stroke="#f3f3f4"/><path d="m1747.04 147.65q-1.05 1.74-2.44 3.21-10.74 11.27-21.78 22.19" stroke="#d1d2d5"/><path d="m1722.82 173.05-150.7-.23" stroke="#beaa89"/><path d="m1572.12 172.82q-10.49-10.66-21.08-21.61-1.58-1.64-2.73-3.53" stroke="#d1d2d5"/><path d="m1572.12 172.82-.09 41.35" stroke="#a99575"/><path d="m1572.03 214.17q-2.96-1.21-4.1-2.34-7.24-7.14-14.4-14.36-3.28-3.32-6.86-6.13" stroke="#d1d2d5"/><path d="m1748.11 191.3q-11.86 11.86-22.35 22.46-1.82 1.84-3.01 1.15" stroke="#d1d2d5"/><path d="m1722.75 214.91.07-41.86" stroke="#a99575"/><path d="m1722.75 214.91.14 1.15a.64.63-3.6 0 0 .63.55q103.61.17 162.73-.05 1.98-.01 3.53.51" stroke="#beaa89"/><path d="m1889.78 217.07-5.31 9.78" stroke="#9f8a6a"/><path d="m1884.47 226.85q-1.41-2.61-1.36-5.52a.54.54 0 0 0 -.51-.55l-3.14-.14" stroke="#b48332"/><path d="m1879.46 220.64c-18.54-.14-38.76-.8-55.61-.74-24.54.09-38.56-.02-63.8.35q-20.27.3-40.19.08a.94.94 0 0 1 -.93-.94v-41.53a1.08 1.07-0 0 0 -1.08-1.07l-69.67-.09" stroke="#b98b39"/><path d="m1648.18 176.7-71.3.04a.59.58 90 0 0 -.58.59v42.32a.95.95 0 0 1 -.95.95h-133.37a2.5 2.5 0 0 0 -2.2 1.31l-11.15 20.55" stroke="#bd9653"/><path d="m1428.63 242.46q-.87-2.74-.64-5.67" stroke="#b98b39"/><path d="m1427.99 236.79 10.09-20.15" stroke="#a99575"/><path d="m1438.08 216.64h133.16a.78.78 0 0 0 .73-.51q.28-.73.06-1.96" stroke="#beaa89"/><path d="m1438.08 216.64-40.26-24.49" stroke="#d1d2d5"/><path d="m1954.26 192.62-64.48 24.45" stroke="#c7c8cb"/><path d="m1427.99 236.79-14.6 28.49" stroke="#ccb386"/><path d="m1413.39 265.28-7.95 14.98" stroke="#d0be9f"/><path d="m1405.44 280.26q-32.21 12.07-64.69 24.33-1.08.41-2.4-.63" stroke="#9e9fa3"/><path d="m1647.93 248.5-.02 1.5" stroke="#dbad5d"/><path d="m1647.91 250q-83.27.1-166.59.24c-17.83.03-35.9-.28-54.09-3.19a.37.37 0 0 1 -.28-.51l1.68-4.08" stroke="#e0b464"/><path d="m1879.46 220.64 2.52.24a.74.74 0 0 1 .6 1.06l-6.9 14.12a2.35 2.33 84.2 0 1 -.63.78c-9.64 7.53-20.68 8.86-31.67 8.94q-71.29.5-147.85.03-26.48-.17-47.6 2.69" stroke="#d7a243"/><path d="m1647.93 248.5.25-71.8" stroke="#e0b464"/><path d="m1898.33 305.42q-1.42-2.09-4.58-3.95-13.35-7.84-35.86-21.57" stroke="#949599"/><path d="m1857.89 279.9 12.15-24.68" stroke="#c6b495"/><path d="m1870.04 255.22 14.43-28.37" stroke="#bda174"/><path d="m1870.04 255.22q.11-.52.06-.74a.12.11-38.8 0 0 -.22-.02q-.18.41-.24.43a.38.37 87.3 0 1 -.48-.44q.22-.98-.89-.92a.74.73 13.5 0 0 -.6.36l-12.12 21a2.31 2.28 14.9 0 1 -1.99 1.14h-133.85a.93.93 0 0 0 -.93.93v42.34a.84.83 90 0 1 -.83.84l-70.04-.02" stroke="#dbad5d"/><path d="m1647.91 320.12v-70.12" stroke="#d7a243"/><path d="m1647.91 320.12-70.55-.05a.96.96 0 0 1 -.96-.96v-42.27a.86.86 0 0 0 -.86-.86h-162.11a.76.76 0 0 1 -.72-1l2.93-8.87a.51.51 0 0 0 -.45-.67l-1.8-.16" stroke="#e0b464"/><path d="m1857.89 279.9q-66.98-.21-134.14.08-.4 0-.56.4" stroke="#b2a081"/><path d="m1723.19 280.38q-.47.75-.47 1.87.02 18-.04 36-.01 2.12.34 5.26.04.37-.35.52" stroke="#d0be9f"/><path d="m1722.67 324.03q-1.98-.06-3.67-.05-71 .03-142-.07-3.18-.01-4.95.48" stroke="#b2a081"/><path d="m1572.05 324.39-.35-43.38" stroke="#d0be9f"/><path d="m1571.7 281.01q.22-.46.18-.73a.57.56 85.9 0 0 -.56-.49q-80.32.31-160.57-.02-2.58-.01-5.31.49" stroke="#b2a081"/><path d="m1571.7 281.01-24.95 24.39" stroke="#9e9fa3"/><path d="m1749.03 305.44-25.84-25.06" stroke="#9e9fa3"/><path d="m1572.05 324.39q-15.73 16.08-22.74 22.94-.59.58-2.03 1.19" stroke="#9e9fa3"/><path d="m1748.1 348.56q-1.57-.56-2.46-1.45-11.52-11.55-22.97-23.08" stroke="#9e9fa3"/><g stroke="#9c9c9c"><path d="m39.54 348.57a.7.7 0 0 0 .7.7h119.32a.7.7 0 0 0 .7-.7v-36.26a.7.7 0 0 0 -.7-.7h-75.48a.7.7 0 0 1 -.7-.7v-160.45a.7.7 0 0 0 -.7-.7h-42.44a.7.7 0 0 0 -.7.7z"/><path d="m927.25 348.64v-71.51a.68.67 90 0 1 .67-.68h24.33a1.77 1.75 74.8 0 1 1.52.88l41.14 71.27a1.33 1.31-15 0 0 1.14.65h45.75a.59.58-15.9 0 0 .5-.89l-46.04-74.58a.79.79 0 0 1 .43-1.17q33.28-10.72 40.39-45.3 2.66-12.94.52-27.08c-2.86-18.96-13.31-34.17-30.37-42.61-12.3-6.08-26.5-7.95-39.71-7.91q-50.35.14-83.6-.03a.5.49 0 0 0 -.5.49v198.2a.88.88 0 0 0 .88.88h42.34a.61.61 0 0 0 .61-.61"/><path d="m257.97 352.36c46.05-.02 78.75-25.38 78.86-73.86q.09-47.57-.02-128.03a.71.71 0 0 0 -.71-.71h-42.48a.85.85 0 0 0 -.85.79q-.12 1.83-.12 9.45-.01 85.73.05 110.27.03 10.13-.24 12.45c-2.21 18.91-15.12 30.94-34.5 30.94-19.38.01-32.3-12.01-34.52-30.92q-.27-2.32-.25-12.45.05-24.54-.02-110.27 0-7.62-.12-9.45a.85.85 0 0 0 -.85-.79l-42.48.03a.71.71 0 0 0 -.71.71q-.06 80.46.06 128.03c.13 48.48 32.85 73.82 78.9 73.81"/><path d="m369.31 349.16q1.7.21 4.44.2 16.04-.07 88.74-.07 14.54 0 26.86-4.06c24.51-8.08 36.55-29.65 34.78-54.75-1.52-21.54-15.26-38.1-36.38-43.25q-1.19-.29-1.55-.85a1.05.96-24.8 0 1 .61-1.46q21.33-6.96 28.25-26.8c2.98-8.54 3.05-16.94 1.59-26.06q-2.68-16.69-14.16-27.46c-12.62-11.82-30.47-14.92-47.24-14.89q-52.39.12-85.62-.02a.78.78 0 0 0 -.79.78v198.15a.55.54-86.4 0 0 .47.54"/><path d="m546.68 349.15q1.7.21 4.44.2 16.04-.07 88.73-.08 14.54-.01 26.86-4.07c24.5-8.08 36.54-29.65 34.76-54.74-1.52-21.54-15.26-38.1-36.38-43.24q-1.19-.29-1.55-.85a1.05.96-24.8 0 1 .61-1.46q21.33-6.97 28.24-26.8c2.98-8.54 3.05-16.94 1.59-26.06q-2.68-16.69-14.16-27.45c-12.62-11.82-30.47-14.92-47.24-14.88q-52.38.12-85.61-.01a.78.78 0 0 0 -.79.78l.03 198.12a.55.54-86.4 0 0 .47.54"/><path d="m769.59 229.42a.67.67 0 0 1 -.67-.67v-41.29a.67.67 0 0 1 .67-.67h88.4a.67.67 0 0 0 .67-.67v-35.69a.67.67 0 0 0 -.67-.67h-132.21a.67.67 0 0 0 -.67.67v198.17a.67.67 0 0 0 .67.67h133.22a.67.67 0 0 0 .67-.67v-35.75a.67.67 0 0 0 -.67-.67h-89.4a.67.67 0 0 1 -.67-.67v-45.46a.67.67 0 0 1 .67-.67h78.98a.67.67 0 0 0 .67-.67v-34.62a.67.67 0 0 0 -.67-.67z"/><path d="m551.73 422.52q-4.16-4.18-10.38-3.67c-7.77.65-12.12 4.82-12.71 12.68-.63 8.61-.96 23.76 11.19 24.3 4.37.19 8.4.28 11.29-3.26a.56.55-40.8 0 1 .9.06l.67 1.07a1.27 1.26 74.3 0 0 1.08.61h5.05a.6.6 0 0 0 .6-.6v-48.44a.68.68 0 0 0 -.68-.68h-5.56a.66.66 0 0 0 -.66.66v16.94a.46.46 0 0 1 -.79.33"/><path d="m277.3 422.43v-16.78a.49.49 0 0 0 -.49-.49h-5.79a.54.54 0 0 0 -.54.54v47.82a.82.81 90 0 0 .81.82h5.22a.9.9 0 0 0 .9-.92q-.27-12.51.02-19.46.3-7.09 7.2-9.71a2.35 2.34-49.8 0 1 1.29-.11c6.06 1.21 7.01 5.27 6.99 11.57q-.02 8.26-.02 17.84a.76.76 0 0 0 .76.76h5.37a.77.76 0 0 0 .77-.76q.02-20.97-.05-23.29c-.34-10.88-11.87-14.07-20.11-9.24-.57.34-1.26 1.31-1.83 1.68a.32.32 0 0 1 -.5-.27"/><path d="m578.17 405.85a.77.77 0 0 0 -.77-.77h-5.36a.77.77 0 0 0 -.77.77v47.68a.77.77 0 0 0 .77.77h5.36a.77.77 0 0 0 .77-.77z"/><path d="m398.5 406.85a.66.66 0 0 0 -.66-.66h-28.32a.66.66 0 0 0 -.66.66v46.82a.66.66 0 0 0 .66.66h6.06a.66.66 0 0 0 .66-.66v-19.36a.66.66 0 0 1 .66-.66h19.83a.66.66 0 0 0 .66-.66v-4.24a.66.66 0 0 0 -.66-.66h-19.9a.66.66 0 0 1 -.66-.66v-14.85a.66.66 0 0 1 .66-.66h21.01a.66.66 0 0 0 .66-.66z"/><path d="m439.369 410.0021a4.4 3.88 1.2 0 0 -4.3177-3.9712 4.4 3.88 1.2 0 0 -4.4803 3.787 4.4 3.88 1.2 0 0 4.3177 3.9712 4.4 3.88 1.2 0 0 4.4803-3.787"/><path d="m681.17 442.23c-.16-1.19-.23-2.57-.71-4.29q-5.75-20.86-8.29-30.99a.94.94 0 0 0 -.9-.72l-5.75-.15a.8.79 7.9 0 0 -.78.58l-9.74 36.66a.2.19-44.6 0 1 -.38 0l-8.7-36.33a.98.98 0 0 0 -.93-.76l-6.14-.15a.71.71 0 0 0 -.71.9l12.5 46.84a.53.53 0 0 0 .5.4l6.6.17a.84.84 0 0 0 .82-.62q1.79-6.49 9.03-33.65.19-.73 1.04-1.58a.33.32 61.6 0 1 .55.17c.17.76-.03 2.13.29 3.34q3.14 11.83 8.39 31.52a.89.87-6.9 0 0 .84.65l6.02.15a1.44 1.44 0 0 0 1.43-1.07l12.5-47.05a.12.12 0 0 0 -.12-.16l-7.34.26a.28.28 0 0 0 -.26.21q-3.42 14.98-8.15 34.17-.28 1.13-1.01 1.74a.37.37 0 0 1 -.6-.24"/><path d="m804.77 454.3q1.35 0 3.06.06a.6.59.9 0 0 .61-.59v-41.16a.7.7 0 0 1 .7-.7h12.44a.73.73 0 0 0 .73-.73v-4.17a.82.82 0 0 0 -.82-.82q-8.47-.04-16.69.03-8.23-.08-16.7-.04a.82.82 0 0 0 -.81.81l-.01 4.17a.73.73 0 0 0 .73.73l12.44.02a.7.7 0 0 1 .7.7l-.04 41.16a.6.59-.8 0 0 .61.59q1.71-.06 3.05-.06"/><path d="m245.88 454.25q1.35 0 3.05.07a.59.59 0 0 0 .61-.59l.03-41.11a.7.7 0 0 1 .7-.7l12.42.01a.73.73 0 0 0 .73-.73v-4.16a.82.82 0 0 0 -.81-.82q-8.46-.05-16.68.02-8.21-.09-16.67-.06a.82.82 0 0 0 -.82.82v4.16a.73.73 0 0 0 .73.73l12.42.02a.7.7 0 0 1 .7.7l-.07 41.11a.59.59 0 0 0 .61.59q1.7-.06 3.05-.06"/><path d="m906.09 430.44q.3-.36.96-.88c2.87-2.32 4.18-5.29 4.28-9.22.23-9-4.4-14.29-13.56-14.18q-4.04.05-18.69.01a.42.42 0 0 0 -.42.42v46.93a.83.83 0 0 0 .84.83q13.34-.11 19.38-.03 4.64.06 6.65-.79c6.46-2.72 8.48-8.89 6.91-15.47q-.91-3.85-6.21-6.81a.53.52 35.4 0 1 -.14-.81"/><path d="m1000.84 406.12a.71.71 0 0 0 -.72.73l1.14 32.17a.71.71 0 0 0 .69.69l4.1.1a.71.71 0 0 0 .73-.69l.8-32.13a.71.71 0 0 0 -.69-.73z"/><path d="m1400.63 451.75h-37.29a1.77 1.77 0 0 1 -1.77-1.77v-31.07a1.98 1.98 0 0 1 1.98-1.98h35.75a.62.62 0 0 0 .62-.62v-8.08a.56.56 0 0 0 -.56-.56q-30.85-.1-44.32.06c-8.79.11-11.23 6.07-11.41 14.33q-.26 11.9.04 26.44c.19 9.38 5.49 12.7 14.35 12.68q.77 0 42.76-.02a.39.38 0 0 0 .39-.38v-8.5a.54.53-0 0 0 -.54-.53"/><path d="m1446.25 437.07q13.23 0 13.58 0a.38.38 0 0 1 .39.38v23.27a.47.47 0 0 0 .47.47h17.36a.56.55 0 0 0 .56-.55v-52.55a.46.46 0 0 0 -.46-.46h-17.55a.38.37 90 0 0 -.37.38v19.83a.61.61 0 0 1 -.6.61q-1.87.04-13.38.04-11.5 0-13.38-.04a.61.61 0 0 1 -.59-.61l-.01-19.83a.38.37 90 0 0 -.37-.38h-17.55a.46.46 0 0 0 -.46.46l.01 52.55a.56.55-0 0 0 .56.55h17.36a.47.47 0 0 0 .47-.47v-23.27a.38.38 0 0 1 .38-.38q.36 0 13.58 0"/><path d="m1550.9 460.91v-8.84a.29.29 0 0 0 -.29-.29q-20.77.03-35.11.01-2.4 0-4.53-.43a1.4 1.4 0 0 1 -1.12-1.37v-11.37a.55.55 0 0 1 .55-.55h36.51a.59.59 0 0 0 .59-.59v-8.02a.61.6 90 0 0 -.6-.61h-36.5a.56.55 90 0 1 -.55-.56v-9.52a1.84 1.84 0 0 1 1.84-1.84h42.77a1.63 1.62 78.6 0 1 1.5 1q8.98 21.02 14.05 33.02c2.53 5.99 4.22 10.3 10.71 10.26q10.83-.07 13.89.01c4.21.1 7.49-1.09 9.09-4.82q7.96-18.56 20.45-48.35a.29.28-78.4 0 0 -.26-.4h-13.02a.8.8 0 0 0 -.74.5q-12.08 30.1-16.42 41.27-.72 1.87-1.78 2.19a2.16 2.08 70.5 0 1 -2.57-1.28q-9.18-23.02-16.71-42.24a.72.71 79 0 0 -.66-.45q-48.58-.06-69.45.07-4.07.03-7.45 3.18c-2.89 2.71-3.25 7.43-3.27 11.36q-.02 5.47.02 25.5c.01 8.28 3.7 13.1 12.51 13.35q4.8.14 46.31.06a.25.24-90 0 0 .24-.25"/><path d="m1673.45 440.67c7.34-.82 19 2.67 22.62-7.07 1.27-3.39.63-9.05.63-14.59q0-11.33-11.13-11.34-44.61-.06-55.66 0a.33.32 90 0 0 -.32.33v52.63a.55.54-90 0 0 .54.55h16.84a.47.46-90 0 0 .46-.47v-43.36a.78.77 0 0 1 .78-.77h29.28a1.07 1.06-.3 0 1 1.07 1.05q.06 7.25.09 11.69.02 3.08-2.93 3.14-9.09.16-22.77.02a.59.59 0 0 0 -.6.59v6.85a2.22 2.2-70.7 0 0 .82 1.72l23.31 19.07a2.15 2.1 64.1 0 0 1.34.48h23.27a.43.43 0 0 0 .25-.77q-15.93-11.65-18.56-13.81-3.82-3.14-9.42-5.16a.4.4 0 0 1 .09-.78"/><path d="m1772.3657 418.7472a11.24 11.24 0 0 0 -11.2792-11.2007l-42.1797.1473a11.24 11.24 0 0 0 -11.2007 11.2791l.1082 31.0199a11.24 11.24 0 0 0 11.2792 11.2007l42.1797-.1473a11.24 11.24 0 0 0 11.2007-11.2791z"/><path d="m1784.7 460.62a.55.55 0 0 0 .55.55h49.2a.55.55 0 0 0 .55-.55v-8.29a.55.55 0 0 0 -.55-.55h-31.17a.55.55 0 0 1 -.55-.55v-43.05a.55.55 0 0 0 -.55-.55h-16.93a.55.55 0 0 0 -.55.55z"/><path d="m1918.32 417.7v42.82a.65.65 0 0 0 .65.65h16.77a.57.57 0 0 0 .57-.57v-43.2a.46.46 0 0 1 .46-.46h19.83a.26.26 0 0 0 .26-.26v-8.79a.25.24 0 0 0 -.25-.24q-68.98.05-101.14-.06-8.75-.03-11.7 1.65-5.07 2.89-5.1 10.26-.1 24.99.1 30.48c.33 8.74 6.09 11.05 13.99 11.19q1.83.03 44.31-.01a.37.37 0 0 0 .37-.37v-8.63a.36.36 0 0 0 -.36-.36q-32.03-.03-34.83.01-3.44.04-4.51-.4a2.17 2.17 0 0 1 -1.34-1.96l-.18-10.88a.49.49 0 0 1 .49-.5h36.51a.61.61 0 0 0 .61-.61v-7.96a.65.65 0 0 0 -.65-.65h-36.17a.69.68-0 0 1 -.69-.68v-9a2.24 2.24 0 0 1 2.24-2.24h58.99a.77.77 0 0 1 .77.77"/><path d="m317.43 438.43h22.84a.35.35 0 0 0 .35-.33q.35-5.3-.5-9.02c-2.05-8.85-11.67-11.53-19.86-9.59-6.95 1.65-10.17 7.53-10.23 14.72q-.06 6.72.09 7.9 1.66 12.74 12.98 13.63c8.11.64 16.73-1.36 17.66-11.01a.81.8-87.4 0 0 -.8-.88h-4.99a1 1 0 0 0 -.94.66c-1.94 5.32-6.94 8.23-12.11 5.27-3.67-2.1-5.3-6.88-5.05-10.82a.56.56 0 0 1 .56-.53"/><path d="m411.85 421.83v-2.1a.89.89 0 0 0 -.89-.89h-5.3a.62.61 90 0 0 -.61.62v33.96a.87.87 0 0 0 .87.87h4.99a.92.91-0 0 0 .92-.91q.07-16.51.05-17.13c-.27-8.01 4.11-12.78 13.01-11.39a.83.83 0 0 0 .95-.8l.11-4.41a.76.76 0 0 0 -.7-.78q-4.34-.35-8.43.47c-1.57.32-3.44 2.13-4.37 2.8a.38.38 0 0 1 -.6-.31"/><path d="m438.8 419.39a.61.61 0 0 0 -.61-.61h-5.66a.61.61 0 0 0 -.61.61v34.28a.61.61 0 0 0 .61.61h5.66a.61.61 0 0 0 .61-.61z"/><path d="m456.76 438.45 22.83-.04a.35.35 0 0 0 .35-.33q.34-5.3-.51-9.01c-2.06-8.85-11.69-11.51-19.87-9.56-6.95 1.66-10.16 7.54-10.21 14.73q-.05 6.72.1 7.9 1.68 12.73 13 13.61c8.11.62 16.73-1.39 17.64-11.04a.81.8-87.5 0 0 -.8-.88l-4.99.01a1 1 0 0 0 -.94.66c-1.93 5.32-6.92 8.24-12.1 5.29-3.67-2.09-5.31-6.87-5.06-10.81a.56.56 0 0 1 .56-.53"/><path d="m497.48 422.64q-.27-.83.03-2.46a1.15 1.15 0 0 0 -1.13-1.37h-4.8a1.06 1.05 90 0 0 -1.05 1.06v33.63a.81.81 0 0 0 .81.81h5.23a.9.9 0 0 0 .9-.92q-.34-13.35.09-19.81.47-7.02 7.27-9.33a2.27 2.24 41.8 0 1 1.18-.06q6.96 1.49 6.95 8.79-.02 19.36.02 20.66a.67.67 0 0 0 .67.65h5.62a.61.61 0 0 0 .61-.61q-.06-10.33-.04-21.45.02-13.96-13.94-13.28-4.85.23-7.81 3.8a.36.35 55.1 0 1 -.61-.11"/><path d="m602.71 444.8a.45.45 0 0 1 -.85 0l-8.51-25.69a.39.38 80.3 0 0 -.36-.26h-7.14a.16.15-10.2 0 0 -.15.21q10.56 29.12 11.53 31.48c1.7 4.14.49 6.32-1.97 9.51q-1.46 1.88-6.67 1.57a.24.23-88.9 0 0 -.24.24v4.31a.2.2 0 0 0 .16.2q12.26 2.23 16.07-8.52 4.99-14.03 13.87-37.99a.76.76 0 0 0 -.71-1.02h-5.55a1.26 1.24 9 0 0 -1.19.85z"/><path d="m724.64 452.19.5 1.51a.93.92 80.9 0 0 .88.64h4.87a.83.83 0 0 0 .83-.84q-.08-12.93.02-19.02c.13-7.44-1.18-13.02-8.88-14.87q-5.86-1.4-11.1.05c-5.33 1.48-8.09 4.42-8.9 9.89a.64.64 0 0 0 .63.73h5a1.53 1.52-81.1 0 0 1.45-1.06c1.67-5.23 7.74-6.74 12.1-3.68q3.47 2.44 2.71 8.08a.66.65-84.8 0 1 -.68.57q-3.61-.14-10.28-.05c-6.05.07-11.8 2.81-12.29 9.58q-.65 8.89 7.18 11.76a4.32 4.27-33.4 0 0 1.26.25c6.26.29 10.12.45 14.01-3.69a.41.41 0 0 1 .69.15"/><path d="m754.69 444.8a.45.45 0 0 1 -.85 0l-8.51-25.7a.39.38 80.3 0 0 -.36-.26h-7.14a.16.15-10.2 0 0 -.15.21q10.56 29.13 11.53 31.49c1.7 4.14.49 6.32-1.97 9.52q-1.46 1.88-6.67 1.57a.24.23-88.8 0 0 -.24.24v4.31a.2.2 0 0 0 .16.2q12.26 2.23 16.07-8.52 5-14.04 13.88-38.01a.76.76 0 0 0 -.71-1.02h-5.55a1.26 1.24 9 0 0 -1.19.85z"/><path d="m852.3214 432.4831a13.56 13.56 0 0 0 -13.5837-13.5364l-3.76.0066a13.56 13.56 0 0 0 -13.5363 13.5837l.0172 9.8399a13.56 13.56 0 0 0 13.5837 13.5364l3.76-.0066a13.56 13.56 0 0 0 13.5363-13.5837z"/><path d="m953.64 453.67v-34.18a.67.67 0 0 0 -.67-.67h-5.58a.7.7 0 0 0 -.7.71q.2 14.19-.05 21.43c-.4 11.71-15.47 13.5-15.47.04q.01-15.66.06-21.49a.68.67-89.6 0 0 -.67-.69h-5.59a.69.69 0 0 0 -.69.7q.09 10.33.03 21.9c-.04 7.34 2.54 14.19 10.93 14.4 4.12.1 7.43.13 10.24-3.11a.58.58 0 0 1 .93.08l.58.93a1.3 1.28 74.1 0 0 1.1.62h4.88a.67.67 0 0 0 .67-.67"/><path d="m976.34 444.79a.45.45 0 0 1 -.85 0l-8.5-25.68a.39.38 80.3 0 0 -.36-.26h-7.13a.16.15-10.2 0 0 -.15.21q10.55 29.11 11.52 31.47c1.69 4.14.48 6.32-1.97 9.51q-1.46 1.87-6.67 1.56a.24.23-88.8 0 0 -.24.24v4.31a.2.2 0 0 0 .16.2q12.25 2.23 16.06-8.51 4.99-14.02 13.87-37.97a.76.76 0 0 0 -.71-1.02h-5.55a1.26 1.24 9 0 0 -1.19.85z"/><path d="m1008.8628 449.6342a3.89 3.89 0 0 0 -3.8627-3.917l-2.02-.0141a3.89 3.89 0 0 0 -3.917 3.8627l-.0059.84a3.89 3.89 0 0 0 3.8627 3.917l2.02.0141a3.89 3.89 0 0 0 3.917-3.8627z"/><path d="m927.2 187.62.1 52.98a1.01 1.01 0 0 0 1.01 1.01l39.72-.07a26.69 25.73-.1 0 0 26.64-25.78v-3.54a26.69 25.73-.1 0 0 -26.74-25.68l-39.72.07a1.01 1.01 0 0 0 -1.01 1.01"/><path d="m412.78 186.49-.15 43.08a.83.83 0 0 0 .82.83l38.54.14a22.91 20.91.2 0 0 22.98-20.83l.01-2.92a22.91 20.91.2 0 0 -22.83-20.99l-38.54-.14a.83.83 0 0 0 -.83.83"/><path d="m412.83 264.52-.25 47.6a.61.61 0 0 0 .6.62l42.15.22a24.26 22.77.3 0 0 24.38-22.64l.02-3.28a24.26 22.77.3 0 0 -24.14-22.9l-42.15-.22a.61.61 0 0 0 -.61.6"/><path d="m589.96 186.71.15 43.02a.87.87 0 0 0 .87.87l38.52-.14a22.87 20.91-.2 0 0 22.79-20.99l-.01-2.94a22.87 20.91-.2 0 0 -22.94-20.83l-38.52.14a.87.87 0 0 0 -.86.87"/><path d="m590.11 265.07-.16 46.6a1.1 1.1 0 0 0 1.1 1.11l41.64.14a24.23 22.59.2 0 0 24.31-22.5l.02-3.62a24.23 22.59.2 0 0 -24.15-22.68l-41.65-.14a1.1 1.1 0 0 0 -1.11 1.09"/><path d="m535.3 437.28c-.02 5.19.27 9.55 5.4 12.23q1.59.83 3.18.84 1.59 0 3.19-.83c5.13-2.65 5.44-7.01 5.45-12.2s-.27-9.55-5.4-12.23q-1.59-.83-3.18-.84-1.59 0-3.19.82c-5.14 2.66-5.44 7.02-5.45 12.21"/><path d="m886.1 412.49-.16 15.16a.64.64 0 0 0 .63.64l9.8.1a7.63 7.6-89.4 0 0 7.68-7.55l.02-1.18a7.63 7.6-89.4 0 0 -7.52-7.7l-9.8-.11a.64.64 0 0 0 -.65.64"/><path d="m886.1 434.5-.14 13.2a.87.87 0 0 0 .86.88l11.2.11a7.53 7.19.6 0 0 7.61-7.11v-.56a7.53 7.19.6 0 0 -7.45-7.27l-11.2-.11a.87.87 0 0 0 -.88.86"/><path d="m1754.34 418.63a2.02 2.02 0 0 0 -2.02-2.02h-24.4a2.02 2.02 0 0 0 -2.02 2.02v31.14a2.02 2.02 0 0 0 2.02 2.02h24.4a2.02 2.02 0 0 0 2.02-2.02z"/><path d="m317.64 433.74 15.52-.14a.61.61 0 0 0 .61-.61l-.01-.21a8.76 8.35 89.5 0 0 -8.42-8.69h-.04a8.76 8.35 89.5 0 0 -8.28 8.83l.01.21a.61.61 0 0 0 .61.61"/><path d="m456.77 433.71 15.92-.06a.45.45 0 0 0 .45-.45l-.01-.18a9.01 8.38 89.8 0 0 -8.41-8.98h-.06a9.01 8.38 89.8 0 0 -8.35 9.04l.01.18a.45.45 0 0 0 .45.45"/><path d="m724.17 438.45q-5.48-.28-9.93.3-4.34.57-5.71 4.47c-1.36 3.89 2.26 7.14 5.73 7.76a2.38 2.37 42.6 0 0 1.01-.04q8.63-2.23 9.65-11.61a.8.79 5.1 0 0 -.75-.88"/><path d="m845.2777 432.3492a7.86 7.86 0 0 0 -7.8325-7.8873l-1.02-.0036a7.86 7.86 0 0 0 -7.8874 7.8325l-.0355 10.18a7.86 7.86 0 0 0 7.8325 7.8873l1.02.0036a7.86 7.86 0 0 0 7.8874-7.8325z"/></g></g><path d="m2000 0v600h-2000v-600zm-722.47 139.06a.44.44 0 0 0 -.44-.44h-3.66a.44.44 0 0 0 -.44.44v334.64a.44.44 0 0 0 .44.44h3.66a.44.44 0 0 0 .44-.44zm-223.81 144.29c-.83 59.48 60.93 77 108.28 65.89 29.07-6.82 48.06-26.48 48.61-57.27.48-26.4-12.93-43.63-36.88-53.24q-12.99-5.22-26.66-8.31c-12.85-2.91-23.23-4.73-33.78-9.43-6.71-2.99-12.47-8-12.99-15.73-.7-10.45 6.15-17.6 15.53-20.69 18.31-6.03 50.32-1.05 48.75 24.83a.68.68 0 0 0 .68.73h40.57a.52.52 0 0 0 .52-.49c2.11-39.69-31-59.72-65.86-62.5-40.55-3.24-83.46 12.53-83.57 59.86-.11 44.85 38.33 53.58 73.27 61.45q7.62 1.71 16.44 4.79c9.05 3.16 19.5 8.4 20.17 19.45.65 10.61-7.01 17.63-16.71 20.38-18.1 5.14-46.13 2.54-52.21-19.14-.95-3.4-.48-7.64-.75-10.32a.7.7 0 0 0 -.7-.63h-42.33a.38.37-0 0 0 -.38.37zm494.59-135.67q-.66-.55-1.26-.36a.56.55 81.5 0 0 -.39.53l.01 43.49q-4.25.03-8.67.02-67.25-.16-134.5-.14-2.47 0-5.68.93-2.39-1.7-4.71 3.39-1.77 3.87-1.8 3.94-25.46 50.07-50.97 100.13-1.12 2.21-1.99 4.35l-.31.43a.66.65 17.4 0 0 .54 1.03l208.17-.02q-.13 20.85.12 41.6.01.8.41 1.52-.31.9.5.9 99.87.04 199.73.03.51 0 .59-.89l.04-42.58a.53.52-19 0 1 .21-.42q.41-.32.68-.12l149.3-.02q1.16.66 2.03-1.04.02-.05 54.46-106.61 1.48-2.89 2.96-5.64a.39.38-85.1 0 0 -.46-.55l-3.06 1.04q-3.16-1.47-8.51-1.47-99.04.08-197.64.15.17-20.29.01-42.27-.01-1.58-1.08-1.38-3.12-.51-4.6-.51-94.84-.03-189.68 0-1.52 0-4.45.54zm-1508.77 200.89a.7.7 0 0 0 .7.7h119.32a.7.7 0 0 0 .7-.7v-36.26a.7.7 0 0 0 -.7-.7h-75.48a.7.7 0 0 1 -.7-.7v-160.45a.7.7 0 0 0 -.7-.7h-42.44a.7.7 0 0 0 -.7.7zm887.71.07v-71.51a.68.67 90 0 1 .67-.68h24.33a1.77 1.75 74.8 0 1 1.52.88l41.14 71.27a1.33 1.31-15 0 0 1.14.65h45.75a.59.58-15.9 0 0 .5-.89l-46.04-74.58a.79.79 0 0 1 .43-1.17q33.28-10.72 40.39-45.3 2.66-12.94.52-27.08c-2.86-18.96-13.31-34.17-30.37-42.61-12.3-6.08-26.5-7.95-39.71-7.91q-50.35.14-83.6-.03a.5.49 0 0 0 -.5.49v198.2a.88.88 0 0 0 .88.88h42.34a.61.61 0 0 0 .61-.61zm-669.28 3.72c46.05-.02 78.75-25.38 78.86-73.86q.09-47.57-.02-128.03a.71.71 0 0 0 -.71-.71h-42.48a.85.85 0 0 0 -.85.79q-.12 1.83-.12 9.45-.01 85.73.05 110.27.03 10.13-.24 12.45c-2.21 18.91-15.12 30.94-34.5 30.94-19.38.01-32.3-12.01-34.52-30.92q-.27-2.32-.25-12.45.05-24.54-.02-110.27 0-7.62-.12-9.45a.85.85 0 0 0 -.85-.79l-42.48.03a.71.71 0 0 0 -.71.71q-.06 80.46.06 128.03c.13 48.48 32.85 73.82 78.9 73.81zm111.34-3.2q1.7.21 4.44.2 16.04-.07 88.74-.07 14.54 0 26.86-4.06c24.51-8.08 36.55-29.65 34.78-54.75-1.52-21.54-15.26-38.1-36.38-43.25q-1.19-.29-1.55-.85a1.05.96-24.8 0 1 .61-1.46q21.33-6.96 28.25-26.8c2.98-8.54 3.05-16.94 1.59-26.06q-2.68-16.69-14.16-27.46c-12.62-11.82-30.47-14.92-47.24-14.89q-52.39.12-85.62-.02a.78.78 0 0 0 -.79.78v198.15a.55.54-86.4 0 0 .47.54zm177.37-.01q1.7.21 4.44.2 16.04-.07 88.73-.08 14.54-.01 26.86-4.07c24.5-8.08 36.54-29.65 34.76-54.74-1.52-21.54-15.26-38.1-36.38-43.24q-1.19-.29-1.55-.85a1.05.96-24.8 0 1 .61-1.46q21.33-6.97 28.24-26.8c2.98-8.54 3.05-16.94 1.59-26.06q-2.68-16.69-14.16-27.45c-12.62-11.82-30.47-14.92-47.24-14.88q-52.38.12-85.61-.01a.78.78 0 0 0 -.79.78l.03 198.12a.55.54-86.4 0 0 .47.54zm222.91-119.73a.67.67 0 0 1 -.67-.67v-41.29a.67.67 0 0 1 .67-.67h88.4a.67.67 0 0 0 .67-.67v-35.69a.67.67 0 0 0 -.67-.67h-132.21a.67.67 0 0 0 -.67.67v198.17a.67.67 0 0 0 .67.67h133.22a.67.67 0 0 0 .67-.67v-35.75a.67.67 0 0 0 -.67-.67h-89.4a.67.67 0 0 1 -.67-.67v-45.46a.67.67 0 0 1 .67-.67h78.98a.67.67 0 0 0 .67-.67v-34.62a.67.67 0 0 0 -.67-.67zm-217.86 193.1q-4.16-4.18-10.38-3.67c-7.77.65-12.12 4.82-12.71 12.68-.63 8.61-.96 23.76 11.19 24.3 4.37.19 8.4.28 11.29-3.26a.56.55-40.8 0 1 .9.06l.67 1.07a1.27 1.26 74.3 0 0 1.08.61h5.05a.6.6 0 0 0 .6-.6v-48.44a.68.68 0 0 0 -.68-.68h-5.56a.66.66 0 0 0 -.66.66v16.94a.46.46 0 0 1 -.79.33zm-274.43-.09v-16.78a.49.49 0 0 0 -.49-.49h-5.79a.54.54 0 0 0 -.54.54v47.82a.82.81 90 0 0 .81.82h5.22a.9.9 0 0 0 .9-.92q-.27-12.51.02-19.46.3-7.09 7.2-9.71a2.35 2.34-49.8 0 1 1.29-.11c6.06 1.21 7.01 5.27 6.99 11.57q-.02 8.26-.02 17.84a.76.76 0 0 0 .76.76h5.37a.77.76 0 0 0 .77-.76q.02-20.97-.05-23.29c-.34-10.88-11.87-14.07-20.11-9.24-.57.34-1.26 1.31-1.83 1.68a.32.32 0 0 1 -.5-.27zm300.87-16.58a.77.77 0 0 0 -.77-.77h-5.36a.77.77 0 0 0 -.77.77v47.68a.77.77 0 0 0 .77.77h5.36a.77.77 0 0 0 .77-.77zm-179.67 1a.66.66 0 0 0 -.66-.66h-28.32a.66.66 0 0 0 -.66.66v46.82a.66.66 0 0 0 .66.66h6.06a.66.66 0 0 0 .66-.66v-19.36a.66.66 0 0 1 .66-.66h19.83a.66.66 0 0 0 .66-.66v-4.24a.66.66 0 0 0 -.66-.66h-19.9a.66.66 0 0 1 -.66-.66v-14.85a.66.66 0 0 1 .66-.66h21.01a.66.66 0 0 0 .66-.66zm40.869 3.1521a4.4 3.88 1.2 0 0 -4.3177-3.9712 4.4 3.88 1.2 0 0 -4.4803 3.787 4.4 3.88 1.2 0 0 4.3177 3.9712 4.4 3.88 1.2 0 0 4.4803-3.787zm241.801 32.2279c-.16-1.19-.23-2.57-.71-4.29q-5.75-20.86-8.29-30.99a.94.94 0 0 0 -.9-.72l-5.75-.15a.8.79 7.9 0 0 -.78.58l-9.74 36.66a.2.19-44.6 0 1 -.38 0l-8.7-36.33a.98.98 0 0 0 -.93-.76l-6.14-.15a.71.71 0 0 0 -.71.9l12.5 46.84a.53.53 0 0 0 .5.4l6.6.17a.84.84 0 0 0 .82-.62q1.79-6.49 9.03-33.65.19-.73 1.04-1.58a.33.32 61.6 0 1 .55.17c.17.76-.03 2.13.29 3.34q3.14 11.83 8.39 31.52a.89.87-6.9 0 0 .84.65l6.02.15a1.44 1.44 0 0 0 1.43-1.07l12.5-47.05a.12.12 0 0 0 -.12-.16l-7.34.26a.28.28 0 0 0 -.26.21q-3.42 14.98-8.15 34.17-.28 1.13-1.01 1.74a.37.37 0 0 1 -.6-.24zm123.6 12.07q1.35 0 3.06.06a.6.59.9 0 0 .61-.59v-41.16a.7.7 0 0 1 .7-.7h12.44a.73.73 0 0 0 .73-.73v-4.17a.82.82 0 0 0 -.82-.82q-8.47-.04-16.69.03-8.23-.08-16.7-.04a.82.82 0 0 0 -.81.81l-.01 4.17a.73.73 0 0 0 .73.73l12.44.02a.7.7 0 0 1 .7.7l-.04 41.16a.6.59-.8 0 0 .61.59q1.71-.06 3.05-.06zm-558.89-.05q1.35 0 3.05.07a.59.59 0 0 0 .61-.59l.03-41.11a.7.7 0 0 1 .7-.7l12.42.01a.73.73 0 0 0 .73-.73v-4.16a.82.82 0 0 0 -.81-.82q-8.46-.05-16.68.02-8.21-.09-16.67-.06a.82.82 0 0 0 -.82.82v4.16a.73.73 0 0 0 .73.73l12.42.02a.7.7 0 0 1 .7.7l-.07 41.11a.59.59 0 0 0 .61.59q1.7-.06 3.05-.06zm660.21-23.81q.3-.36.96-.88c2.87-2.32 4.18-5.29 4.28-9.22.23-9-4.4-14.29-13.56-14.18q-4.04.05-18.69.01a.42.42 0 0 0 -.42.42v46.93a.83.83 0 0 0 .84.83q13.34-.11 19.38-.03 4.64.06 6.65-.79c6.46-2.72 8.48-8.89 6.91-15.47q-.91-3.85-6.21-6.81a.53.52 35.4 0 1 -.14-.81zm94.75-24.32a.71.71 0 0 0 -.72.73l1.14 32.17a.71.71 0 0 0 .69.69l4.1.1a.71.71 0 0 0 .73-.69l.8-32.13a.71.71 0 0 0 -.69-.73zm399.79 45.63h-37.29a1.77 1.77 0 0 1 -1.77-1.77v-31.07a1.98 1.98 0 0 1 1.98-1.98h35.75a.62.62 0 0 0 .62-.62v-8.08a.56.56 0 0 0 -.56-.56q-30.85-.1-44.32.06c-8.79.11-11.23 6.07-11.41 14.33q-.26 11.9.04 26.44c.19 9.38 5.49 12.7 14.35 12.68q.77 0 42.76-.02a.39.38 0 0 0 .39-.38v-8.5a.54.53-0 0 0 -.54-.53zm45.62-14.68q13.23 0 13.58 0a.38.38 0 0 1 .39.38v23.27a.47.47 0 0 0 .47.47h17.36a.56.55 0 0 0 .56-.55v-52.55a.46.46 0 0 0 -.46-.46h-17.55a.38.37 90 0 0 -.37.38v19.83a.61.61 0 0 1 -.6.61q-1.87.04-13.38.04-11.5 0-13.38-.04a.61.61 0 0 1 -.59-.61l-.01-19.83a.38.37 90 0 0 -.37-.38h-17.55a.46.46 0 0 0 -.46.46l.01 52.55a.56.55-0 0 0 .56.55h17.36a.47.47 0 0 0 .47-.47v-23.27a.38.38 0 0 1 .38-.38q.36 0 13.58 0zm104.65 23.84v-8.84a.29.29 0 0 0 -.29-.29q-20.77.03-35.11.01-2.4 0-4.53-.43a1.4 1.4 0 0 1 -1.12-1.37v-11.37a.55.55 0 0 1 .55-.55h36.51a.59.59 0 0 0 .59-.59v-8.02a.61.6 90 0 0 -.6-.61h-36.5a.56.55 90 0 1 -.55-.56v-9.52a1.84 1.84 0 0 1 1.84-1.84h42.77a1.63 1.62 78.6 0 1 1.5 1q8.98 21.02 14.05 33.02c2.53 5.99 4.22 10.3 10.71 10.26q10.83-.07 13.89.01c4.21.1 7.49-1.09 9.09-4.82q7.96-18.56 20.45-48.35a.29.28-78.4 0 0 -.26-.4h-13.02a.8.8 0 0 0 -.74.5q-12.08 30.1-16.42 41.27-.72 1.87-1.78 2.19a2.16 2.08 70.5 0 1 -2.57-1.28q-9.18-23.02-16.71-42.24a.72.71 79 0 0 -.66-.45q-48.58-.06-69.45.07-4.07.03-7.45 3.18c-2.89 2.71-3.25 7.43-3.27 11.36q-.02 5.47.02 25.5c.01 8.28 3.7 13.1 12.51 13.35q4.8.14 46.31.06a.25.24-90 0 0 .24-.25zm122.55-20.24c7.34-.82 19 2.67 22.62-7.07 1.27-3.39.63-9.05.63-14.59q0-11.33-11.13-11.34-44.61-.06-55.66 0a.33.32 90 0 0 -.32.33v52.63a.55.54-90 0 0 .54.55h16.84a.47.46-90 0 0 .46-.47v-43.36a.78.77 0 0 1 .78-.77h29.28a1.07 1.06-.3 0 1 1.07 1.05q.06 7.25.09 11.69.02 3.08-2.93 3.14-9.09.16-22.77.02a.59.59 0 0 0 -.6.59v6.85a2.22 2.2-70.7 0 0 .82 1.72l23.31 19.07a2.15 2.1 64.1 0 0 1.34.48h23.27a.43.43 0 0 0 .25-.77q-15.93-11.65-18.56-13.81-3.82-3.14-9.42-5.16a.4.4 0 0 1 .09-.78zm98.9157-21.9228a11.24 11.24 0 0 0 -11.2792-11.2007l-42.1797.1473a11.24 11.24 0 0 0 -11.2007 11.2791l.1082 31.0199a11.24 11.24 0 0 0 11.2792 11.2007l42.1797-.1473a11.24 11.24 0 0 0 11.2007-11.2791zm12.3343 41.8728a.55.55 0 0 0 .55.55h49.2a.55.55 0 0 0 .55-.55v-8.29a.55.55 0 0 0 -.55-.55h-31.17a.55.55 0 0 1 -.55-.55v-43.05a.55.55 0 0 0 -.55-.55h-16.93a.55.55 0 0 0 -.55.55zm133.62-42.92v42.82a.65.65 0 0 0 .65.65h16.77a.57.57 0 0 0 .57-.57v-43.2a.46.46 0 0 1 .46-.46h19.83a.26.26 0 0 0 .26-.26v-8.79a.25.24 0 0 0 -.25-.24q-68.98.05-101.14-.06-8.75-.03-11.7 1.65-5.07 2.89-5.1 10.26-.1 24.99.1 30.48c.33 8.74 6.09 11.05 13.99 11.19q1.83.03 44.31-.01a.37.37 0 0 0 .37-.37v-8.63a.36.36 0 0 0 -.36-.36q-32.03-.03-34.83.01-3.44.04-4.51-.4a2.17 2.17 0 0 1 -1.34-1.96l-.18-10.88a.49.49 0 0 1 .49-.5h36.51a.61.61 0 0 0 .61-.61v-7.96a.65.65 0 0 0 -.65-.65h-36.17a.69.68-0 0 1 -.69-.68v-9a2.24 2.24 0 0 1 2.24-2.24h58.99a.77.77 0 0 1 .77.77zm-1600.89 20.73h22.84a.35.35 0 0 0 .35-.33q.35-5.3-.5-9.02c-2.05-8.85-11.67-11.53-19.86-9.59-6.95 1.65-10.17 7.53-10.23 14.72q-.06 6.72.09 7.9 1.66 12.74 12.98 13.63c8.11.64 16.73-1.36 17.66-11.01a.81.8-87.4 0 0 -.8-.88h-4.99a1 1 0 0 0 -.94.66c-1.94 5.32-6.94 8.23-12.11 5.27-3.67-2.1-5.3-6.88-5.05-10.82a.56.56 0 0 1 .56-.53zm94.42-16.6v-2.1a.89.89 0 0 0 -.89-.89h-5.3a.62.61 90 0 0 -.61.62v33.96a.87.87 0 0 0 .87.87h4.99a.92.91-0 0 0 .92-.91q.07-16.51.05-17.13c-.27-8.01 4.11-12.78 13.01-11.39a.83.83 0 0 0 .95-.8l.11-4.41a.76.76 0 0 0 -.7-.78q-4.34-.35-8.43.47c-1.57.32-3.44 2.13-4.37 2.8a.38.38 0 0 1 -.6-.31zm26.95-2.44a.61.61 0 0 0 -.61-.61h-5.66a.61.61 0 0 0 -.61.61v34.28a.61.61 0 0 0 .61.61h5.66a.61.61 0 0 0 .61-.61zm17.96 19.06 22.83-.04a.35.35 0 0 0 .35-.33q.34-5.3-.51-9.01c-2.06-8.85-11.69-11.51-19.87-9.56-6.95 1.66-10.16 7.54-10.21 14.73q-.05 6.72.1 7.9 1.68 12.73 13 13.61c8.11.62 16.73-1.39 17.64-11.04a.81.8-87.5 0 0 -.8-.88l-4.99.01a1 1 0 0 0 -.94.66c-1.93 5.32-6.92 8.24-12.1 5.29-3.67-2.09-5.31-6.87-5.06-10.81a.56.56 0 0 1 .56-.53zm40.72-15.81q-.27-.83.03-2.46a1.15 1.15 0 0 0 -1.13-1.37h-4.8a1.06 1.05 90 0 0 -1.05 1.06v33.63a.81.81 0 0 0 .81.81h5.23a.9.9 0 0 0 .9-.92q-.34-13.35.09-19.81.47-7.02 7.27-9.33a2.27 2.24 41.8 0 1 1.18-.06q6.96 1.49 6.95 8.79-.02 19.36.02 20.66a.67.67 0 0 0 .67.65h5.62a.61.61 0 0 0 .61-.61q-.06-10.33-.04-21.45.02-13.96-13.94-13.28-4.85.23-7.81 3.8a.36.35 55.1 0 1 -.61-.11zm105.23 22.16a.45.45 0 0 1 -.85 0l-8.51-25.69a.39.38 80.3 0 0 -.36-.26h-7.14a.16.15-10.2 0 0 -.15.21q10.56 29.12 11.53 31.48c1.7 4.14.49 6.32-1.97 9.51q-1.46 1.88-6.67 1.57a.24.23-88.9 0 0 -.24.24v4.31a.2.2 0 0 0 .16.2q12.26 2.23 16.07-8.52 4.99-14.03 13.87-37.99a.76.76 0 0 0 -.71-1.02h-5.55a1.26 1.24 9 0 0 -1.19.85zm121.93 7.39.5 1.51a.93.92 80.9 0 0 .88.64h4.87a.83.83 0 0 0 .83-.84q-.08-12.93.02-19.02c.13-7.44-1.18-13.02-8.88-14.87q-5.86-1.4-11.1.05c-5.33 1.48-8.09 4.42-8.9 9.89a.64.64 0 0 0 .63.73h5a1.53 1.52-81.1 0 0 1.45-1.06c1.67-5.23 7.74-6.74 12.1-3.68q3.47 2.44 2.71 8.08a.66.65-84.8 0 1 -.68.57q-3.61-.14-10.28-.05c-6.05.07-11.8 2.81-12.29 9.58q-.65 8.89 7.18 11.76a4.32 4.27-33.4 0 0 1.26.25c6.26.29 10.12.45 14.01-3.69a.41.41 0 0 1 .69.15zm30.05-7.39a.45.45 0 0 1 -.85 0l-8.51-25.7a.39.38 80.3 0 0 -.36-.26h-7.14a.16.15-10.2 0 0 -.15.21q10.56 29.13 11.53 31.49c1.7 4.14.49 6.32-1.97 9.52q-1.46 1.88-6.67 1.57a.24.23-88.8 0 0 -.24.24v4.31a.2.2 0 0 0 .16.2q12.26 2.23 16.07-8.52 5-14.04 13.88-38.01a.76.76 0 0 0 -.71-1.02h-5.55a1.26 1.24 9 0 0 -1.19.85zm97.6314-12.3169a13.56 13.56 0 0 0 -13.5837-13.5364l-3.76.0066a13.56 13.56 0 0 0 -13.5363 13.5837l.0172 9.8399a13.56 13.56 0 0 0 13.5837 13.5364l3.76-.0066a13.56 13.56 0 0 0 13.5363-13.5837zm101.3186 21.1869v-34.18a.67.67 0 0 0 -.67-.67h-5.58a.7.7 0 0 0 -.7.71q.2 14.19-.05 21.43c-.4 11.71-15.47 13.5-15.47.04q.01-15.66.06-21.49a.68.67-89.6 0 0 -.67-.69h-5.59a.69.69 0 0 0 -.69.7q.09 10.33.03 21.9c-.04 7.34 2.54 14.19 10.93 14.4 4.12.1 7.43.13 10.24-3.11a.58.58 0 0 1 .93.08l.58.93a1.3 1.28 74.1 0 0 1.1.62h4.88a.67.67 0 0 0 .67-.67zm22.7-8.88a.45.45 0 0 1 -.85 0l-8.5-25.68a.39.38 80.3 0 0 -.36-.26h-7.13a.16.15-10.2 0 0 -.15.21q10.55 29.11 11.52 31.47c1.69 4.14.48 6.32-1.97 9.51q-1.46 1.87-6.67 1.56a.24.23-88.8 0 0 -.24.24v4.31a.2.2 0 0 0 .16.2q12.25 2.23 16.06-8.51 4.99-14.02 13.87-37.97a.76.76 0 0 0 -.71-1.02h-5.55a1.26 1.24 9 0 0 -1.19.85zm32.5228 4.8442a3.89 3.89 0 0 0 -3.8627-3.917l-2.02-.0141a3.89 3.89 0 0 0 -3.917 3.8627l-.0059.84a3.89 3.89 0 0 0 3.8627 3.917l2.02.0141a3.89 3.89 0 0 0 3.917-3.8627z" fill="#fff"/><rect fill="#383838" height="335.52" rx=".44" width="4.54" x="1272.99" y="138.62"/><path d="m1053.72 283.35a.38.37-0 0 1 .38-.37h42.33a.7.7 0 0 1 .7.63c.27 2.68-.2 6.92.75 10.32 6.08 21.68 34.11 24.28 52.21 19.14 9.7-2.75 17.36-9.77 16.71-20.38-.67-11.05-11.12-16.29-20.17-19.45q-8.82-3.08-16.44-4.79c-34.94-7.87-73.38-16.6-73.27-61.45.11-47.33 43.02-63.1 83.57-59.86 34.86 2.78 67.97 22.81 65.86 62.5a.52.52 0 0 1 -.52.49h-40.57a.68.68 0 0 1 -.68-.73c1.57-25.88-30.44-30.86-48.75-24.83-9.38 3.09-16.23 10.24-15.53 20.69.52 7.73 6.28 12.74 12.99 15.73 10.55 4.7 20.93 6.52 33.78 9.43q13.67 3.09 26.66 8.31c23.95 9.61 37.36 26.84 36.88 53.24-.55 30.79-19.54 50.45-48.61 57.27-47.35 11.11-109.11-6.41-108.28-65.89z" fill="#383838"/><path d="m1747.04 147.65q-1.05 1.74-2.44 3.21-10.74 11.27-21.78 22.19l-150.7-.23q-10.49-10.66-21.08-21.61-1.58-1.64-2.73-3.53 2.93-.54 4.45-.54 94.84-.03 189.68 0 1.48 0 4.6.51z" fill="#e6e7e9"/><path d="m1548.31 147.68q1.15 1.89 2.73 3.53 10.59 10.95 21.08 21.61l-.09 41.35q-2.96-1.21-4.1-2.34-7.24-7.14-14.4-14.36-3.28-3.32-6.86-6.13l-.01-43.49a.56.55 81.5 0 1 .39-.53q.6-.19 1.26.36z" fill="#bcbdc1"/><path d="m1748.11 191.3q-11.86 11.86-22.35 22.46-1.82 1.84-3.01 1.15l.07-41.86q11.04-10.92 21.78-22.19 1.39-1.47 2.44-3.21 1.07-.2 1.08 1.38.16 21.98-.01 42.27z" fill="#bcbdc1"/><path d="m39.54 348.57v-198.11a.7.7 0 0 1 .7-.7h42.44a.7.7 0 0 1 .7.7v160.45a.7.7 0 0 0 .7.7h75.48a.7.7 0 0 1 .7.7v36.26a.7.7 0 0 1 -.7.7h-119.32a.7.7 0 0 1 -.7-.7z" fill="#383838"/><path d="m927.25 348.64a.61.61 0 0 1 -.61.61h-42.34a.88.88 0 0 1 -.88-.88v-198.2a.5.49-0 0 1 .5-.49q33.25.17 83.6.03c13.21-.04 27.41 1.83 39.71 7.91 17.06 8.44 27.51 23.65 30.37 42.61q2.14 14.14-.52 27.08-7.11 34.58-40.39 45.3a.79.79 0 0 0 -.43 1.17l46.04 74.58a.59.58-15.9 0 1 -.5.89h-45.75a1.33 1.31-15 0 1 -1.14-.65l-41.14-71.27a1.77 1.75 74.8 0 0 -1.52-.88h-24.33a.68.67 90 0 0 -.67.68zm-.05-161.02.1 52.98a1.01 1.01 0 0 0 1.01 1.01l39.72-.07a26.69 25.73-.1 0 0 26.64-25.78v-3.54a26.69 25.73-.1 0 0 -26.74-25.68l-39.72.07a1.01 1.01 0 0 0 -1.01 1.01z" fill="#383838"/><path d="m257.96 313.66c19.38 0 32.29-12.03 34.5-30.94q.27-2.32.24-12.45-.06-24.54-.05-110.27 0-7.62.12-9.45a.85.85 0 0 1 .85-.79h42.48a.71.71 0 0 1 .71.71q.11 80.46.02 128.03c-.11 48.48-32.81 73.84-78.86 73.86-46.05.01-78.77-25.33-78.9-73.81q-.12-47.57-.06-128.03a.71.71 0 0 1 .71-.71l42.48-.03a.85.85 0 0 1 .85.79q.12 1.83.12 9.45.07 85.73.02 110.27-.02 10.13.25 12.45c2.22 18.91 15.14 30.93 34.52 30.92z" fill="#383838"/><path d="m369.31 349.16a.55.54-86.4 0 1 -.47-.54v-198.15a.78.78 0 0 1 .79-.78q33.23.14 85.62.02c16.77-.03 34.62 3.07 47.24 14.89q11.48 10.77 14.16 27.46c1.46 9.12 1.39 17.52-1.59 26.06q-6.92 19.84-28.25 26.8a1.05.96-24.8 0 0 -.61 1.46q.36.56 1.55.85c21.12 5.15 34.86 21.71 36.38 43.25 1.77 25.1-10.27 46.67-34.78 54.75q-12.32 4.06-26.86 4.06-72.7 0-88.74.07-2.74.01-4.44-.2zm43.47-162.67-.15 43.08a.83.83 0 0 0 .82.83l38.54.14a22.91 20.91.2 0 0 22.98-20.83l.01-2.92a22.91 20.91.2 0 0 -22.83-20.99l-38.54-.14a.83.83 0 0 0 -.83.83zm.05 78.03-.25 47.6a.61.61 0 0 0 .6.62l42.15.22a24.26 22.77.3 0 0 24.38-22.64l.02-3.28a24.26 22.77.3 0 0 -24.14-22.9l-42.15-.22a.61.61 0 0 0 -.61.6z" fill="#383838"/><path d="m546.68 349.15a.55.54-86.4 0 1 -.47-.54l-.03-198.12a.78.78 0 0 1 .79-.78q33.23.13 85.61.01c16.77-.04 34.62 3.06 47.24 14.88q11.48 10.76 14.16 27.45c1.46 9.12 1.39 17.52-1.59 26.06q-6.91 19.83-28.24 26.8a1.05.96-24.8 0 0 -.61 1.46q.36.56 1.55.85c21.12 5.14 34.86 21.7 36.38 43.24 1.78 25.09-10.26 46.66-34.76 54.74q-12.32 4.06-26.86 4.07-72.69.01-88.73.08-2.74.01-4.44-.2zm43.28-162.44.15 43.02a.87.87 0 0 0 .87.87l38.52-.14a22.87 20.91-.2 0 0 22.79-20.99l-.01-2.94a22.87 20.91-.2 0 0 -22.94-20.83l-38.52.14a.87.87 0 0 0 -.86.87zm.15 78.36-.16 46.6a1.1 1.1 0 0 0 1.1 1.11l41.64.14a24.23 22.59.2 0 0 24.31-22.5l.02-3.62a24.23 22.59.2 0 0 -24.15-22.68l-41.65-.14a1.1 1.1 0 0 0 -1.11 1.09z" fill="#383838"/><path d="m769.59 229.42h78.99a.67.67 0 0 1 .67.67v34.62a.67.67 0 0 1 -.67.67h-78.98a.67.67 0 0 0 -.67.67v45.46a.67.67 0 0 0 .67.67h89.4a.67.67 0 0 1 .67.67v35.75a.67.67 0 0 1 -.67.67h-133.22a.67.67 0 0 1 -.67-.67v-198.17a.67.67 0 0 1 .67-.67h132.21a.67.67 0 0 1 .67.67v35.69a.67.67 0 0 1 -.67.67h-88.4a.67.67 0 0 0 -.67.67v41.29a.67.67 0 0 0 .67.67z" fill="#383838"/><path d="m1722.82 173.05-.07 41.86.14 1.15a.64.63-3.6 0 0 .63.55q103.61.17 162.73-.05 1.98-.01 3.53.51l-5.31 9.78q-1.41-2.61-1.36-5.52a.54.54 0 0 0 -.51-.55l-3.14-.14c-18.54-.14-38.76-.8-55.61-.74-24.54.09-38.56-.02-63.8.35q-20.27.3-40.19.08a.94.94 0 0 1 -.93-.94v-41.53a1.08 1.07-0 0 0 -1.08-1.07l-69.67-.09-71.3.04a.59.58 90 0 0 -.58.59v42.32a.95.95 0 0 1 -.95.95h-133.37a2.5 2.5 0 0 0 -2.2 1.31l-11.15 20.55q-.87-2.74-.64-5.67l10.09-20.15h133.16a.78.78 0 0 0 .73-.51q.28-.73.06-1.96l.09-41.35z" fill="#966c28"/><path d="m1879.46 220.64 2.52.24a.74.74 0 0 1 .6 1.06l-6.9 14.12a2.35 2.33 84.2 0 1 -.63.78c-9.64 7.53-20.68 8.86-31.67 8.94q-71.29.5-147.85.03-26.48-.17-47.6 2.69l.25-71.8 69.67.09a1.08 1.07 0 0 1 1.08 1.07v41.53a.94.94 0 0 0 .93.94q19.92.22 40.19-.08c25.24-.37 39.26-.26 63.8-.35 16.85-.06 37.07.6 55.61.74z" fill="#dba94a"/><path d="m1648.18 176.7-.25 71.8-.02 1.5q-83.27.1-166.59.24c-17.83.03-35.9-.28-54.09-3.19a.37.37 0 0 1 -.28-.51l1.68-4.08 11.15-20.55a2.5 2.5 0 0 1 2.2-1.31h133.37a.95.95 0 0 0 .95-.95v-42.32a.59.58 90 0 1 .58-.59z" fill="#e4bf7d"/><path d="m412.78 186.49a.83.83 0 0 1 .83-.83l38.54.14a22.91 20.91.2 0 1 22.83 20.99l-.01 2.92a22.91 20.91.2 0 1 -22.98 20.83l-38.54-.14a.83.83 0 0 1 -.82-.83z" fill="#fff"/><path d="m589.96 186.71a.87.87 0 0 1 .86-.87l38.52-.14a22.87 20.91-.2 0 1 22.94 20.83l.01 2.94a22.87 20.91-.2 0 1 -22.79 20.99l-38.52.14a.87.87 0 0 1 -.87-.87z" fill="#fff"/><path d="m927.2 187.62a1.01 1.01 0 0 1 1.01-1.01l39.72-.07a26.69 25.73-.1 0 1 26.74 25.68v3.54a26.69 25.73-.1 0 1 -26.64 25.78l-39.72.07a1.01 1.01 0 0 1 -1.01-1.01z" fill="#fff"/><path d="m1954.26 192.62-64.48 24.45q-1.55-.52-3.53-.51-59.12.22-162.73.05a.64.63-3.6 0 1 -.63-.55l-.14-1.15q1.19.69 3.01-1.15 10.49-10.6 22.35-22.46 98.6-.07 197.64-.15 5.35 0 8.51 1.47z" fill="#e6e7e9"/><path d="m1546.67 191.34q3.58 2.81 6.86 6.13 7.16 7.22 14.4 14.36 1.14 1.13 4.1 2.34.22 1.23-.06 1.96a.78.78 0 0 1 -.73.51h-133.16l-40.26-24.49q3.21-.93 5.68-.93 67.25-.02 134.5.14 4.42.01 8.67-.02z" fill="#e6e7e9"/><path d="m1397.82 192.15 40.26 24.49-10.09 20.15-14.6 28.49-7.95 14.98q-32.21 12.07-64.69 24.33-1.08.41-2.4-.63.87-2.14 1.99-4.35 25.51-50.06 50.97-100.13.03-.07 1.8-3.94 2.32-5.09 4.71-3.39z" fill="#bcbdc1"/><path d="m1898.33 305.42q-1.42-2.09-4.58-3.95-13.35-7.84-35.86-21.57l12.15-24.68 14.43-28.37 5.31-9.78 64.48-24.45 3.06-1.04a.39.38-85.1 0 1 .46.55q-1.48 2.75-2.96 5.64-54.44 106.56-54.46 106.61-.87 1.7-2.03 1.04z" fill="#a7a8ac"/><path d="m1884.47 226.85-14.43 28.37q.11-.52.06-.74a.12.11-38.8 0 0 -.22-.02q-.18.41-.24.43a.38.37 87.3 0 1 -.48-.44q.22-.98-.89-.92a.74.73 13.5 0 0 -.6.36l-12.12 21a2.31 2.28 14.9 0 1 -1.99 1.14h-133.85a.93.93 0 0 0 -.93.93v42.34a.84.83 90 0 1 -.83.84l-70.04-.02v-70.12l.02-1.5q21.12-2.86 47.6-2.69 76.56.47 147.85-.03c10.99-.08 22.03-1.41 31.67-8.94a2.35 2.33 84.2 0 0 .63-.78l6.9-14.12a.74.74 0 0 0 -.6-1.06l-2.52-.24 3.14.14a.54.54 0 0 1 .51.55q-.05 2.91 1.36 5.52z" fill="#d29a3c"/><path d="m1427.99 236.79q-.23 2.93.64 5.67l-1.68 4.08a.37.37 0 0 0 .28.51c18.19 2.91 36.26 3.22 54.09 3.19q83.32-.14 166.59-.24v70.12l-70.55-.05a.96.96 0 0 1 -.96-.96v-42.27a.86.86 0 0 0 -.86-.86h-162.11a.76.76 0 0 1 -.72-1l2.93-8.87a.51.51 0 0 0 -.45-.67l-1.8-.16z" fill="#dba94a"/><path d="m1870.04 255.22-12.15 24.68q-66.98-.21-134.14.08-.4 0-.56.4-.47.75-.47 1.87.02 18-.04 36-.01 2.12.34 5.26.04.37-.35.52-1.98-.06-3.67-.05-71 .03-142-.07-3.18-.01-4.95.48l-.35-43.38q.22-.46.18-.73a.57.56 85.9 0 0 -.56-.49q-80.32.31-160.57-.02-2.58-.01-5.31.49l7.95-14.98 1.8.16a.51.51 0 0 1 .45.67l-2.93 8.87a.76.76 0 0 0 .72 1h162.11a.86.86 0 0 1 .86.86v42.27a.96.96 0 0 0 .96.96l70.55.05 70.04.02a.84.83-90 0 0 .83-.84v-42.34a.93.93 0 0 1 .93-.93h133.85a2.31 2.28 14.9 0 0 1.99-1.14l12.12-21a.74.73 13.5 0 1 .6-.36q1.11-.06.89.92a.38.37 87.3 0 0 .48.44q.06-.02.24-.43a.12.11-38.8 0 1 .22.02q.05.22-.06.74z" fill="#e4bf7d"/><path d="m412.83 264.52a.61.61 0 0 1 .61-.6l42.15.22a24.26 22.77.3 0 1 24.14 22.9l-.02 3.28a24.26 22.77.3 0 1 -24.38 22.64l-42.15-.22a.61.61 0 0 1 -.6-.62z" fill="#fff"/><path d="m590.11 265.07a1.1 1.1 0 0 1 1.11-1.09l41.65.14a24.23 22.59.2 0 1 24.15 22.68l-.02 3.62a24.23 22.59.2 0 1 -24.31 22.5l-41.64-.14a1.1 1.1 0 0 1 -1.1-1.11z" fill="#fff"/><path d="m1571.7 281.01-24.95 24.39-208.17.02a.66.65 17.4 0 1 -.54-1.03l.31-.43q1.32 1.04 2.4.63 32.48-12.26 64.69-24.33 2.73-.5 5.31-.49 80.25.33 160.57.02a.57.56 85.9 0 1 .56.49q.04.27-.18.73z" fill="#808185"/><path d="m1857.89 279.9q22.51 13.73 35.86 21.57 3.16 1.86 4.58 3.95l-149.3.02-25.84-25.06q.16-.4.56-.4 67.16-.29 134.14-.08z" fill="#808185"/><path d="m1723.19 280.38 25.84 25.06q-.27-.2-.68.12a.53.52-19 0 0 -.21.42l-.04 42.58q-1.57-.56-2.46-1.45-11.52-11.55-22.97-23.08.39-.15.35-.52-.35-3.14-.34-5.26.06-18 .04-36 0-1.12.47-1.87z" fill="#bcbdc1"/><path d="m1571.7 281.01.35 43.38q-15.73 16.08-22.74 22.94-.59.58-2.03 1.19-.4-.72-.41-1.52-.25-20.75-.12-41.6z" fill="#bcbdc1"/><path d="m1722.67 324.03q11.45 11.53 22.97 23.08.89.89 2.46 1.45-.08.89-.59.89-99.86.01-199.73-.03-.81 0-.5-.9 1.44-.61 2.03-1.19 7.01-6.86 22.74-22.94 1.77-.49 4.95-.48 71 .1 142 .07 1.69-.01 3.67.05z" fill="#808185"/><g fill="#383838"><path d="m551.73 422.52a.46.46 0 0 0 .79-.33v-16.94a.66.66 0 0 1 .66-.66h5.56a.68.68 0 0 1 .68.68v48.44a.6.6 0 0 1 -.6.6h-5.05a1.27 1.26 74.3 0 1 -1.08-.61l-.67-1.07a.56.55-40.8 0 0 -.9-.06c-2.89 3.54-6.92 3.45-11.29 3.26-12.15-.54-11.82-15.69-11.19-24.3.59-7.86 4.94-12.03 12.71-12.68q6.22-.51 10.38 3.67zm-16.43 14.76c-.02 5.19.27 9.55 5.4 12.23q1.59.83 3.18.84 1.59 0 3.19-.83c5.13-2.65 5.44-7.01 5.45-12.2s-.27-9.55-5.4-12.23q-1.59-.83-3.18-.84-1.59 0-3.19.82c-5.14 2.66-5.44 7.02-5.45 12.21z"/><path d="m277.8 422.7c.57-.37 1.26-1.34 1.83-1.68 8.24-4.83 19.77-1.64 20.11 9.24q.07 2.32.05 23.29a.77.76 0 0 1 -.77.76h-5.37a.76.76 0 0 1 -.76-.76q0-9.58.02-17.84c.02-6.3-.93-10.36-6.99-11.57a2.35 2.34-49.8 0 0 -1.29.11q-6.9 2.62-7.2 9.71-.29 6.95-.02 19.46a.9.9 0 0 1 -.9.92h-5.22a.82.81-90 0 1 -.81-.82v-47.82a.54.54 0 0 1 .54-.54h5.79a.49.49 0 0 1 .49.49v16.78a.32.32 0 0 0 .5.27z"/><rect height="49.22" rx=".77" width="6.9" x="571.27" y="405.08"/><path d="m398.5 406.85v4.41a.66.66 0 0 1 -.66.66h-21.01a.66.66 0 0 0 -.66.66v14.85a.66.66 0 0 0 .66.66h19.9a.66.66 0 0 1 .66.66v4.24a.66.66 0 0 1 -.66.66h-19.83a.66.66 0 0 0 -.66.66v19.36a.66.66 0 0 1 -.66.66h-6.06a.66.66 0 0 1 -.66-.66v-46.82a.66.66 0 0 1 .66-.66h28.32a.66.66 0 0 1 .66.66z"/><ellipse rx="4.4" ry="3.88" transform="matrix(.99978068 .02094242 -.02094242 .99978068 434.97 409.91)"/><path d="m681.77 442.47q.73-.61 1.01-1.74 4.73-19.19 8.15-34.17a.28.28 0 0 1 .26-.21l7.34-.26a.12.12 0 0 1 .12.16l-12.5 47.05a1.44 1.44 0 0 1 -1.43 1.07l-6.02-.15a.89.87-6.9 0 1 -.84-.65q-5.25-19.69-8.39-31.52c-.32-1.21-.12-2.58-.29-3.34a.33.32 61.6 0 0 -.55-.17q-.85.85-1.04 1.58-7.24 27.16-9.03 33.65a.84.84 0 0 1 -.82.62l-6.6-.17a.53.53 0 0 1 -.5-.4l-12.5-46.84a.71.71 0 0 1 .71-.9l6.14.15a.98.98 0 0 1 .93.76l8.7 36.33a.2.19-44.6 0 0 .38 0l9.74-36.66a.8.79 7.9 0 1 .78-.58l5.75.15a.94.94 0 0 1 .9.72q2.54 10.13 8.29 30.99c.48 1.72.55 3.1.71 4.29a.37.37 0 0 0 .6.24z"/><path d="m804.8 406.22q8.22-.07 16.69-.03a.82.82 0 0 1 .82.82v4.17a.73.73 0 0 1 -.73.73h-12.44a.7.7 0 0 0 -.7.7v41.16a.6.59.9 0 1 -.61.59q-1.71-.06-3.06-.06-1.34 0-3.05.06a.6.59-.8 0 1 -.61-.59l.04-41.16a.7.7 0 0 0 -.7-.7l-12.44-.02a.73.73 0 0 1 -.73-.73l.01-4.17a.82.82 0 0 1 .81-.81q8.47-.04 16.7.04z"/><path d="m245.88 454.25q-1.35 0-3.05.06a.59.59 0 0 1 -.61-.59l.07-41.11a.7.7 0 0 0 -.7-.7l-12.42-.02a.73.73 0 0 1 -.73-.73v-4.16a.82.82 0 0 1 .82-.82q8.46-.03 16.67.06 8.22-.07 16.68-.02a.82.82 0 0 1 .81.82v4.16a.73.73 0 0 1 -.73.73l-12.42-.01a.7.7 0 0 0 -.7.7l-.03 41.11a.59.59 0 0 1 -.61.59q-1.7-.07-3.05-.07z"/><path d="m906.23 431.25q5.3 2.96 6.21 6.81c1.57 6.58-.45 12.75-6.91 15.47q-2.01.85-6.65.79-6.04-.08-19.38.03a.83.83 0 0 1 -.84-.83v-46.93a.42.42 0 0 1 .42-.42q14.65.04 18.69-.01c9.16-.11 13.79 5.18 13.56 14.18-.1 3.93-1.41 6.9-4.28 9.22q-.66.52-.96.88a.53.52 35.4 0 0 .14.81zm-20.13-18.76-.16 15.16a.64.64 0 0 0 .63.64l9.8.1a7.63 7.6-89.4 0 0 7.68-7.55l.02-1.18a7.63 7.6-89.4 0 0 -7.52-7.7l-9.8-.11a.64.64 0 0 0 -.65.64zm0 22.01-.14 13.2a.87.87 0 0 0 .86.88l11.2.11a7.53 7.19.6 0 0 7.61-7.11v-.56a7.53 7.19.6 0 0 -7.45-7.27l-11.2-.11a.87.87 0 0 0 -.88.86z"/><path d="m1000.84 406.12 6.05.14a.71.71 0 0 1 .69.73l-.8 32.13a.71.71 0 0 1 -.73.69l-4.1-.1a.71.71 0 0 1 -.69-.69l-1.14-32.17a.71.71 0 0 1 .72-.73z"/><path d="m1400.63 451.75a.54.53 0 0 1 .54.53v8.5a.39.38 0 0 1 -.39.38q-41.99.02-42.76.02c-8.86.02-14.16-3.3-14.35-12.68q-.3-14.54-.04-26.44c.18-8.26 2.62-14.22 11.41-14.33q13.47-.16 44.32-.06a.56.56 0 0 1 .56.56v8.08a.62.62 0 0 1 -.62.62h-35.75a1.98 1.98 0 0 0 -1.98 1.98v31.07a1.77 1.77 0 0 0 1.77 1.77z"/><path d="m1446.25 428.49q11.51 0 13.38-.04a.61.61 0 0 0 .6-.61v-19.83a.38.37-90 0 1 .37-.38h17.55a.46.46 0 0 1 .46.46v52.55a.56.55-0 0 1 -.56.55h-17.36a.47.47 0 0 1 -.47-.47v-23.27a.38.38 0 0 0 -.39-.38q-.35 0-13.58 0-13.22 0-13.58 0a.38.38 0 0 0 -.38.38v23.27a.47.47 0 0 1 -.47.47h-17.36a.56.55-0 0 1 -.56-.55l-.01-52.55a.46.46 0 0 1 .46-.46h17.55a.38.37 90 0 1 .37.38l.01 19.83a.61.61 0 0 0 .59.61q1.88.04 13.38.04z"/><path d="m1550.66 461.16q-41.51.08-46.31-.06c-8.81-.25-12.5-5.07-12.51-13.35q-.04-20.03-.02-25.5c.02-3.93.38-8.65 3.27-11.36q3.38-3.15 7.45-3.18 20.87-.13 69.45-.07a.72.71 79 0 1 .66.45q7.53 19.22 16.71 42.24a2.16 2.08 70.5 0 0 2.57 1.28q1.06-.32 1.78-2.19 4.34-11.17 16.42-41.27a.8.8 0 0 1 .74-.5h13.02a.29.28-78.4 0 1 .26.4q-12.49 29.79-20.45 48.35c-1.6 3.73-4.88 4.92-9.09 4.82q-3.06-.08-13.89-.01c-6.49.04-8.18-4.27-10.71-10.26q-5.07-12-14.05-33.02a1.63 1.62 78.6 0 0 -1.5-1h-42.77a1.84 1.84 0 0 0 -1.84 1.84v9.52a.56.55 90 0 0 .55.56h36.5a.61.6 90 0 1 .6.61v8.02a.59.59 0 0 1 -.59.59h-36.51a.55.55 0 0 0 -.55.55v11.37a1.4 1.4 0 0 0 1.12 1.37q2.13.43 4.53.43 14.34.02 35.11-.01a.29.29 0 0 1 .29.29v8.84a.25.24-90 0 1 -.24.25z"/><path d="m1673.45 440.67a.4.4 0 0 0 -.09.78q5.6 2.02 9.42 5.16 2.63 2.16 18.56 13.81a.43.43 0 0 1 -.25.77h-23.27a2.15 2.1 64.1 0 1 -1.34-.48l-23.31-19.07a2.22 2.2-70.7 0 1 -.82-1.72v-6.85a.59.59 0 0 1 .6-.59q13.68.14 22.77-.02 2.95-.06 2.93-3.14-.03-4.44-.09-11.69a1.07 1.06-.3 0 0 -1.07-1.05h-29.28a.78.77 0 0 0 -.78.77v43.36a.47.46-90 0 1 -.46.47h-16.84a.55.54 90 0 1 -.54-.55v-52.63a.33.32-90 0 1 .32-.33q11.05-.06 55.66 0 11.13.01 11.13 11.34c0 5.54.64 11.2-.63 14.59-3.62 9.74-15.28 6.25-22.62 7.07z"/><path d="m1772.4739 449.7671a11.24 11.24 0 0 1 -11.2007 11.2791l-42.1797.1473a11.24 11.24 0 0 1 -11.2792-11.2007l-.1082-31.0199a11.24 11.24 0 0 1 11.2007-11.2791l42.1797-.1473a11.24 11.24 0 0 1 11.2792 11.2007zm-18.1339-31.1371a2.02 2.02 0 0 0 -2.02-2.02h-24.4a2.02 2.02 0 0 0 -2.02 2.02v31.14a2.02 2.02 0 0 0 2.02 2.02h24.4a2.02 2.02 0 0 0 2.02-2.02z"/><path d="m1784.7 460.62v-52.44a.55.55 0 0 1 .55-.55h16.93a.55.55 0 0 1 .55.55v43.05a.55.55 0 0 0 .55.55h31.17a.55.55 0 0 1 .55.55v8.29a.55.55 0 0 1 -.55.55h-49.2a.55.55 0 0 1 -.55-.55z"/><path d="m1917.55 416.93h-58.99a2.24 2.24 0 0 0 -2.24 2.24v9a.69.68-0 0 0 .69.68h36.17a.65.65 0 0 1 .65.65v7.96a.61.61 0 0 1 -.61.61h-36.51a.49.49 0 0 0 -.49.5l.18 10.88a2.17 2.17 0 0 0 1.34 1.96q1.07.44 4.51.4 2.8-.04 34.83-.01a.36.36 0 0 1 .36.36v8.63a.37.37 0 0 1 -.37.37q-42.48.04-44.31.01c-7.9-.14-13.66-2.45-13.99-11.19q-.2-5.49-.1-30.48.03-7.37 5.1-10.26 2.95-1.68 11.7-1.65 32.16.11 101.14.06a.25.24 0 0 1 .25.24v8.79a.26.26 0 0 1 -.26.26h-19.83a.46.46 0 0 0 -.46.46v43.2a.57.57 0 0 1 -.57.57h-16.77a.65.65 0 0 1 -.65-.65v-42.82a.77.77 0 0 0 -.77-.77z"/></g><path d="m886.1 412.49a.64.64 0 0 1 .65-.64l9.8.11a7.63 7.6-89.4 0 1 7.52 7.7l-.02 1.18a7.63 7.6-89.4 0 1 -7.68 7.55l-9.8-.1a.64.64 0 0 1 -.63-.64z" fill="#fff"/><rect fill="#fff" height="35.18" rx="2.02" width="28.44" x="1725.9" y="416.61"/><path d="m316.87 438.96c-.25 3.94 1.38 8.72 5.05 10.82 5.17 2.96 10.17.05 12.11-5.27a1 1 0 0 1 .94-.66h4.99a.81.8-87.4 0 1 .8.88c-.93 9.65-9.55 11.65-17.66 11.01q-11.32-.89-12.98-13.63-.15-1.18-.09-7.9c.06-7.19 3.28-13.07 10.23-14.72 8.19-1.94 17.81.74 19.86 9.59q.85 3.72.5 9.02a.35.35 0 0 1 -.35.33h-22.84a.56.56 0 0 0 -.56.53zm.77-5.22 15.52-.14a.61.61 0 0 0 .61-.61l-.01-.21a8.76 8.35 89.5 0 0 -8.42-8.69h-.04a8.76 8.35 89.5 0 0 -8.28 8.83l.01.21a.61.61 0 0 0 .61.61z" fill="#383838"/><path d="m412.45 422.14c.93-.67 2.8-2.48 4.37-2.8q4.09-.82 8.43-.47a.76.76 0 0 1 .7.78l-.11 4.41a.83.83 0 0 1 -.95.8c-8.9-1.39-13.28 3.38-13.01 11.39q.02.62-.05 17.13a.92.91 0 0 1 -.92.91h-4.99a.87.87 0 0 1 -.87-.87v-33.96a.62.61 90 0 1 .61-.62h5.3a.89.89 0 0 1 .89.89v2.1a.38.38 0 0 0 .6.31z" fill="#383838"/><rect fill="#383838" height="35.5" rx=".61" width="6.88" x="431.92" y="418.78"/><path d="m456.76 438.45a.56.56 0 0 0 -.56.53c-.25 3.94 1.39 8.72 5.06 10.81 5.18 2.95 10.17.03 12.1-5.29a1 1 0 0 1 .94-.66l4.99-.01a.81.8-87.5 0 1 .8.88c-.91 9.65-9.53 11.66-17.64 11.04q-11.32-.88-13-13.61-.15-1.18-.1-7.9c.05-7.19 3.26-13.07 10.21-14.73 8.18-1.95 17.81.71 19.87 9.56q.85 3.71.51 9.01a.35.35 0 0 1 -.35.33zm.01-4.74 15.92-.06a.45.45 0 0 0 .45-.45l-.01-.18a9.01 8.38 89.8 0 0 -8.41-8.98h-.06a9.01 8.38 89.8 0 0 -8.35 9.04l.01.18a.45.45 0 0 0 .45.45z" fill="#383838"/><path d="m497.48 422.64a.36.35 55.1 0 0 .61.11q2.96-3.57 7.81-3.8 13.96-.68 13.94 13.28-.02 11.12.04 21.45a.61.61 0 0 1 -.61.61h-5.62a.67.67 0 0 1 -.67-.65q-.04-1.3-.02-20.66.01-7.3-6.95-8.79a2.27 2.24 41.8 0 0 -1.18.06q-6.8 2.31-7.27 9.33-.43 6.46-.09 19.81a.9.9 0 0 1 -.9.92h-5.23a.81.81 0 0 1 -.81-.81v-33.63a1.06 1.05-90 0 1 1.05-1.06h4.8a1.15 1.15 0 0 1 1.13 1.37q-.3 1.63-.03 2.46z" fill="#383838"/><path d="m602.71 444.8 8.29-25.11a1.26 1.24 9 0 1 1.19-.85h5.55a.76.76 0 0 1 .71 1.02q-8.88 23.96-13.87 37.99-3.81 10.75-16.07 8.52a.2.2 0 0 1 -.16-.2v-4.31a.24.23-88.9 0 1 .24-.24q5.21.31 6.67-1.57c2.46-3.19 3.67-5.37 1.97-9.51q-.97-2.36-11.53-31.48a.16.15-10.2 0 1 .15-.21h7.14a.39.38 80.3 0 1 .36.26l8.51 25.69a.45.45 0 0 0 .85 0z" fill="#383838"/><path d="m724.64 452.19a.41.41 0 0 0 -.69-.15c-3.89 4.14-7.75 3.98-14.01 3.69a4.32 4.27-33.4 0 1 -1.26-.25q-7.83-2.87-7.18-11.76c.49-6.77 6.24-9.51 12.29-9.58q6.67-.09 10.28.05a.66.65-84.8 0 0 .68-.57q.76-5.64-2.71-8.08c-4.36-3.06-10.43-1.55-12.1 3.68a1.53 1.52-81.1 0 1 -1.45 1.06h-5a.64.64 0 0 1 -.63-.73c.81-5.47 3.57-8.41 8.9-9.89q5.24-1.45 11.1-.05c7.7 1.85 9.01 7.43 8.88 14.87q-.1 6.09-.02 19.02a.83.83 0 0 1 -.83.84h-4.87a.93.92 80.9 0 1 -.88-.64zm-.47-13.74q-5.48-.28-9.93.3-4.34.57-5.71 4.47c-1.36 3.89 2.26 7.14 5.73 7.76a2.38 2.37 42.6 0 0 1.01-.04q8.63-2.23 9.65-11.61a.8.79 5.1 0 0 -.75-.88z" fill="#383838"/><path d="m754.69 444.8 8.3-25.12a1.26 1.24 9 0 1 1.19-.85h5.55a.76.76 0 0 1 .71 1.02q-8.88 23.97-13.88 38.01-3.81 10.75-16.07 8.52a.2.2 0 0 1 -.16-.2v-4.31a.24.23-88.8 0 1 .24-.24q5.21.31 6.67-1.57c2.46-3.2 3.67-5.38 1.97-9.52q-.97-2.36-11.53-31.49a.16.15-10.2 0 1 .15-.21h7.14a.39.38 80.3 0 1 .36.26l8.51 25.7a.45.45 0 0 0 .85 0z" fill="#383838"/><path d="m852.3386 442.323a13.56 13.56 0 0 1 -13.5363 13.5837l-3.76.0066a13.56 13.56 0 0 1 -13.5837-13.5364l-.0172-9.8399a13.56 13.56 0 0 1 13.5363-13.5837l3.76-.0066a13.56 13.56 0 0 1 13.5837 13.5364zm-7.0609-9.9738a7.86 7.86 0 0 0 -7.8325-7.8873l-1.02-.0036a7.86 7.86 0 0 0 -7.8874 7.8325l-.0355 10.18a7.86 7.86 0 0 0 7.8325 7.8873l1.02.0036a7.86 7.86 0 0 0 7.8874-7.8325z" fill="#383838"/><path d="m952.97 454.34h-4.88a1.3 1.28 74.1 0 1 -1.1-.62l-.58-.93a.58.58 0 0 0 -.93-.08c-2.81 3.24-6.12 3.21-10.24 3.11-8.39-.21-10.97-7.06-10.93-14.4q.06-11.57-.03-21.9a.69.69 0 0 1 .69-.7h5.59a.68.67-89.6 0 1 .67.69q-.05 5.83-.06 21.49c0 13.46 15.07 11.67 15.47-.04q.25-7.24.05-21.43a.7.7 0 0 1 .7-.71h5.58a.67.67 0 0 1 .67.67v34.18a.67.67 0 0 1 -.67.67z" fill="#383838"/><path d="m976.34 444.79 8.29-25.09a1.26 1.24 9 0 1 1.19-.85h5.55a.76.76 0 0 1 .71 1.02q-8.88 23.95-13.87 37.97-3.81 10.74-16.06 8.51a.2.2 0 0 1 -.16-.2v-4.31a.24.23-88.8 0 1 .24-.24q5.21.31 6.67-1.56c2.45-3.19 3.66-5.37 1.97-9.51q-.97-2.36-11.52-31.47a.16.15-10.2 0 1 .15-.21h7.13a.39.38 80.3 0 1 .36.26l8.5 25.68a.45.45 0 0 0 .85 0z" fill="#383838"/><path d="m456.77 433.71a.45.45 0 0 1 -.45-.45l-.01-.18a9.01 8.38 89.8 0 1 8.35-9.04h.06a9.01 8.38 89.8 0 1 8.41 8.98l.01.18a.45.45 0 0 1 -.45.45z" fill="#fff"/><path d="m317.64 433.74a.61.61 0 0 1 -.61-.61l-.01-.21a8.76 8.35 89.5 0 1 8.28-8.83h.04a8.76 8.35 89.5 0 1 8.42 8.69l.01.21a.61.61 0 0 1 -.61.61z" fill="#fff"/><path d="m543.94 424.25q1.59.01 3.18.84c5.13 2.68 5.41 7.04 5.4 12.23s-.32 9.55-5.45 12.2q-1.6.83-3.19.83-1.59-.01-3.18-.84c-5.13-2.68-5.42-7.04-5.4-12.23.01-5.19.31-9.55 5.45-12.21q1.6-.82 3.19-.82z" fill="#fff"/><rect fill="#fff" height="25.9" rx="7.86" transform="matrix(.99999391 .00349065 -.00349065 .99999391 836.89 437.41)" width="16.74" x="-8.37" y="-12.95"/><path d="m886.1 434.5a.87.87 0 0 1 .88-.86l11.2.11a7.53 7.19.6 0 1 7.45 7.27v.56a7.53 7.19.6 0 1 -7.61 7.11l-11.2-.11a.87.87 0 0 1 -.86-.88z" fill="#fff"/><path d="m724.17 438.45a.8.79 5.1 0 1 .75.88q-1.02 9.38-9.65 11.61a2.38 2.37 42.6 0 1 -1.01.04c-3.47-.62-7.09-3.87-5.73-7.76q1.37-3.9 5.71-4.47 4.45-.58 9.93-.3z" fill="#fff"/><rect fill="#383838" height="8.62" rx="3.89" transform="matrix(.99997563 .00698126 -.00698126 .99997563 1003.96 450.02)" width="9.8" x="-4.9" y="-4.31"/></svg>