<svg xmlns="http://www.w3.org/2000/svg" id="Layer_1" data-name="Layer 1" viewBox="0 0 1280 769"><defs><style>.cls-1{fill:#083bbb;}.cls-2{fill:#ed1e18;}</style></defs><title>medical staffing</title><path class="cls-1" d="M452.3,487.37H343.53l9.77-135.91h20S362.45,447.36,452.3,487.37Z"></path><path class="cls-1" d="M354.42,340.84h20.33S385.94,250,473.4,201.15H364Z"></path><path class="cls-1" d="M461.45,340.84h44.24l18.45-85.33S468.31,273.17,461.45,340.84Z"></path><path class="cls-1" d="M534.52,430.93,525.06,304l-8.39,47.74h-56S456.11,426.82,534.52,430.93Z"></path><path class="cls-1" d="M543.67,392.34l-9.15-140s62.84-19.22,94.27,35.08l17.08-86.34h22.88L640.5,348.41l-52.9-9.15L574.79,274Z"></path><path class="cls-1" d="M549.77,429l23.8-100.68,5.18,22.88,60.72.16-26.14,136h-23l18.91-98S589.33,420,549.77,429Z"></path><polygon class="cls-2" points="725.5 304.17 742.59 195.56 822.82 195.56 725.5 304.17"></polygon><polygon class="cls-2" points="690.41 486.51 799.23 486.51 712.59 365.49 690.41 486.51"></polygon><polygon class="cls-2" points="921.36 486.92 898.18 486.92 793.08 345.51 929.75 196.32 936.47 196.32 921.36 486.92"></polygon><path class="cls-1" d="M290.25,511h17.29l-5.89,60.42H289.73l4.19-46-24.35,46h-7.73L254,525l-12.42,46.39H229.47L245.36,511h17l6.83,39.26Z"></path><path class="cls-1" d="M358.84,521.47H335.77L333.17,536h20.46l-1.84,10.37h-20.5l-2.61,14.48h23.07l-1.88,10.54H314.59L325.44,511h35.28Z"></path><path class="cls-1" d="M362.38,571.43,373.23,511h21.52q12.13,0,18.45,6.2t6.33,17a46.81,46.81,0,0,1-.6,7.49,43.24,43.24,0,0,1-1.9,7.44,39.09,39.09,0,0,1-3.25,7,30.92,30.92,0,0,1-4.78,6.11,29.94,29.94,0,0,1-14.44,8.06,40.22,40.22,0,0,1-9.84,1.15Zm14-10.54h8.88a20.89,20.89,0,0,0,8.39-1.63,18.09,18.09,0,0,0,6.22-4.31,24.63,24.63,0,0,0,4.08-6.19,31.24,31.24,0,0,0,2.34-7.1,37.39,37.39,0,0,0,.71-7.26q0-12.93-13.88-12.93h-9.7Z"></path><path class="cls-1" d="M425,571.43,435.8,511h12.08L437,571.43Z"></path><path class="cls-1" d="M480.22,572.27q-12.23,0-19.59-6.8t-7.36-18.39a38.65,38.65,0,0,1,1.6-11A36.11,36.11,0,0,1,459.63,526a38.12,38.12,0,0,1,7.52-8.21,33,33,0,0,1,10.2-5.56,38.15,38.15,0,0,1,12.48-2q10.34,0,17.34,5a21.64,21.64,0,0,1,8.88,13.43l-11.7,3.32a12.83,12.83,0,0,0-5.13-8,16.68,16.68,0,0,0-9.86-2.81,23.09,23.09,0,0,0-10,2.18,22.82,22.82,0,0,0-7.68,5.78,27.79,27.79,0,0,0-4.83,8.12,25.37,25.37,0,0,0-1.75,9.24q0,7,4.27,11t11.28,4a23.17,23.17,0,0,0,11.7-3.1,22.73,22.73,0,0,0,8.5-8.44l10.67,4.82a34,34,0,0,1-13.15,13A36.79,36.79,0,0,1,480.22,572.27Z"></path><path class="cls-1" d="M559.57,571.43l-2.26-12.76H531.17l-6.88,12.76H511.74L545.18,511H560l11.88,60.42Zm-23-22.76h19l-4.74-26.4Z"></path><path class="cls-1" d="M594.59,560.89h19.48l-1.88,10.54H580.5L591.35,511h12.08Z"></path><path class="cls-1" d="M665.87,572.27a32.94,32.94,0,0,1-12.1-2.08,18.83,18.83,0,0,1-8.4-6.13,15.28,15.28,0,0,1-3.07-9.51l12.72-2a10,10,0,0,0,3.25,7.36q3,2.67,8.33,2.67a13.26,13.26,0,0,0,8.2-2.41,7.3,7.3,0,0,0,3.2-6,6.54,6.54,0,0,0-.66-3,7.11,7.11,0,0,0-1.69-2.22,10.92,10.92,0,0,0-2.64-1.68,30.73,30.73,0,0,0-3.19-1.31c-1-.34-2.25-.73-3.65-1.15l-.21-.06-.19,0-.2-.07c-1.65-.5-3-1-4.1-1.34s-2.33-.92-3.75-1.58a15.43,15.43,0,0,1-3.51-2.12,19.74,19.74,0,0,1-2.64-2.68,10.15,10.15,0,0,1-1.9-3.61,15.61,15.61,0,0,1-.62-4.58A16.18,16.18,0,0,1,652.1,519a19.54,19.54,0,0,1,8.31-6.55,29.3,29.3,0,0,1,11.78-2.29,34.58,34.58,0,0,1,8.23.95,27,27,0,0,1,7.09,2.81,14.79,14.79,0,0,1,5.18,5,14.46,14.46,0,0,1,2.1,7.29l-11.88,2.09c0-2.91-1-5.05-2.92-6.42a12.23,12.23,0,0,0-7.33-2.06,14.24,14.24,0,0,0-8.18,2.25,6.59,6.59,0,0,0-3.3,5.56,5.75,5.75,0,0,0,.34,2,7.18,7.18,0,0,0,.77,1.57,4.86,4.86,0,0,0,1.4,1.32c.66.45,1.21.8,1.67,1a14.48,14.48,0,0,0,2.18.91c1,.35,1.75.6,2.26.75l2.61.78c1.45.42,2.68.8,3.69,1.13s2.2.79,3.57,1.35a24.3,24.3,0,0,1,3.46,1.7,21.28,21.28,0,0,1,2.9,2.16,11.61,11.61,0,0,1,2.39,2.79,15.34,15.34,0,0,1,1.5,3.49,14.85,14.85,0,0,1,.6,4.3,16.86,16.86,0,0,1-3.27,10.33,20.19,20.19,0,0,1-8.82,6.67A33,33,0,0,1,665.87,572.27Z"></path><path class="cls-1" d="M744.37,511l-1.88,10.46H727.72l-9,50h-12l9-50H700.89L702.77,511Z"></path><path class="cls-1" d="M778.45,571.43l-2.26-12.76H750.05l-6.87,12.76H730.62L764.06,511h14.78l11.87,60.42Zm-23-22.76h19l-4.74-26.4Z"></path><path class="cls-1" d="M844.18,521.47H820.57L817.92,536h20.5l-1.84,10.37H816l-4.53,25H799.38L810.23,511h35.83Z"></path><path class="cls-1" d="M890.35,521.47H866.73L864.09,536h20.5l-1.84,10.37H862.21l-4.53,25H845.55L856.4,511h35.83Z"></path><path class="cls-1" d="M891.72,571.43,902.57,511h12.08l-10.84,60.42Z"></path><path class="cls-1" d="M971.93,511h12l-10.85,60.42H959.46l-20.29-44.25-8,44.25h-12L930,511h13.58l20.46,44Z"></path><path class="cls-1" d="M1050.24,540H1021l-2.41,0v9.71h17.54c-2.12,8.4-9.66,13.33-19.09,13a15.27,15.27,0,0,1-14.81-13.23c-1.25-8.65.85-16.46,6.93-22.89,9.76-10.33,25.14-8.64,29.5,4.37.09.26.55.4,1.16.82l10.51-2.89c-1.62-8-5.64-13.52-12.59-16.92-18.44-9-41.63,3.4-47.21,25.3-2.11,8.27-1.84,17.53,3,24.83,5.11,7.7,14.13,11.19,23.13,11.32,9.29.13,17.67-4,24.06-10.62a36.57,36.57,0,0,0,7.38-10.94C1048.44,551,1051.46,540,1050.24,540Z"></path><path class="cls-1" d="M1050.3,528.91l-11.45,3.16a14.8,14.8,0,0,0-.87-2.78l4.56.26Z"></path></svg>