<?xml version="1.0" encoding="UTF-8"?>
<!-- Generated by Pixelmator Pro 3.7.1 -->
<svg width="1193" height="328" viewBox="0 0 1193 328" xmlns="http://www.w3.org/2000/svg">
    <path id="Path-copy-28" fill="#1a1919" stroke="none" d="M 527.837891 229.676636 L 529.400391 236.155884 C 524.971191 243.205811 521.137939 248.959961 517.912964 253.405884 C 514.683716 257.855835 511.387939 261.95166 508.025391 265.705811 C 504.662964 269.459961 501.796265 272.251709 499.429565 274.084961 C 497.062866 275.930786 494.929565 277.084961 493.037964 277.57666 C 488.525391 278.730835 484.417114 277.95166 480.729614 275.251709 C 477.02124 272.535034 474.512939 268.455811 473.187866 263.018311 C 471.675415 256.76416 471.400391 250.251709 472.383789 243.484985 C 473.358765 236.722534 475.346191 229.480835 478.32959 221.780884 C 481.317139 214.060059 485.262939 205.26416 490.183716 195.368286 C 493.846191 188.047485 495.57959 184.01001 495.39624 183.26001 C 495.296265 182.82251 495.046265 182.484985 494.675415 182.247559 C 494.283691 182.022461 493.917114 181.943359 493.550415 182.030884 C 492.387939 182.339111 489.45874 185.872559 484.77124 192.664185 C 480.067139 199.44751 474.283691 209.13916 467.39624 221.726685 C 460.508789 234.330811 453.358765 249.055786 445.921265 265.910034 C 445.496216 266.818359 444.179565 269.868286 441.975464 275.051636 C 439.76709 280.230835 438.154541 283.651611 437.129639 285.314209 C 436.112915 286.964111 435.112915 287.922485 434.137939 288.168335 C 432.429565 288.614136 430.512939 287.222534 428.417114 284.01001 C 426.308716 280.789185 424.76709 277.180786 423.800415 273.176636 C 423.20459 270.734985 423.346313 267.910034 424.217041 264.69751 C 425.087891 261.476685 427.246216 255.564209 430.683716 246.94751 C 434.125366 238.318359 436.946289 231.068359 439.150391 225.180786 C 441.346191 219.297485 443.625366 212.276611 445.975464 204.097534 C 447.64209 198.414185 448.804565 193.935059 449.45874 190.643311 C 450.117065 187.351685 450.171265 184.57666 449.629639 182.330811 C 449.150391 180.380859 448.375366 179.555786 447.279541 179.830811 C 444.95874 180.439209 441.371216 184.726685 436.512939 192.705811 C 431.658691 200.709961 426.033691 212.168335 419.654541 227.089111 C 413.27124 242.005859 406.95874 259.01416 400.712891 278.097534 C 398.725464 284.580811 397.26709 288.972534 396.337891 291.276611 C 395.400391 293.580811 394.07959 294.94751 392.383789 295.38501 C 390.250366 295.922485 387.683716 294.114136 384.692139 289.926636 C 381.70874 285.739136 379.858765 282.20166 379.154541 279.32666 C 378.933716 278.38501 379.050415 277.26001 379.504639 275.95166 C 384.883789 262.880859 389.221191 251.830811 392.537964 242.797485 C 395.846191 233.772461 398.679565 225.301636 401.02124 217.355835 C 403.367065 209.414185 404.912964 202.964111 405.662964 198.030884 C 406.39624 193.080811 406.462891 189.32251 405.837891 186.76001 C 405.179565 184.068359 403.667114 183.035034 401.287964 183.643311 C 399.337891 184.13916 396.32959 186.272461 392.258789 190.039185 C 388.187866 193.810059 383.108765 198.830811 377.025391 205.109985 C 370.942139 211.393311 366.02124 216.251709 362.262939 219.70166 C 358.504639 223.160034 355.558716 225.160034 353.429565 225.714111 C 351.412964 226.234985 350.125366 225.32666 349.567139 223.01001 C 349.246216 221.689209 348.937866 218.564209 348.654541 213.622559 C 348.354614 208.680786 348.425415 205.122559 348.875366 202.95166 C 349.542114 200.114136 352.01709 195.959961 356.292114 190.489136 C 360.558716 185.005859 362.971191 182.193359 363.51709 182.055786 C 364.004639 181.926636 364.300415 182.093384 364.408691 182.518311 C 364.467041 182.768311 364.317139 183.205811 363.946289 183.834961 C 361.950439 186.543335 360.500366 188.709961 359.600464 190.334961 C 358.700439 191.955811 358.287964 193.597534 358.358765 195.230835 C 367.850464 185.493286 376.558716 177.69751 384.492065 171.843384 C 392.425415 165.989136 398.100464 162.630859 401.51709 161.755859 C 403.221191 161.314209 405.121216 162.068359 407.212891 164.026611 C 409.308716 165.989136 411.26709 168.376709 413.087891 171.189209 C 414.900391 174.026611 415.917114 175.872559 416.125366 176.747559 C 416.900391 179.94751 417.025391 183.922485 416.492065 188.664185 C 415.967041 193.426636 415.042114 199.026611 413.733765 205.472534 C 412.412964 211.926636 410.787964 219.989136 408.862915 229.651611 C 411.012939 224.647461 413.096191 219.997559 415.092041 215.69751 C 417.092041 211.397461 419.100464 207.193359 421.112915 203.080811 C 423.125366 198.976685 425.175415 194.834961 427.26709 190.643311 C 430.096191 184.939209 433.450439 179.305786 437.346191 173.755859 C 441.246216 168.209961 445.012939 163.518311 448.654541 159.69751 C 452.292114 155.872559 454.867065 153.76416 456.39624 153.372559 C 458.52124 152.830811 460.729614 153.551636 462.979614 155.518311 C 465.246216 157.505859 466.70874 159.868286 467.371216 162.630859 C 467.821289 164.439209 467.496216 168.209961 466.433716 173.930786 C 465.362915 179.660034 463.567139 187.097534 461.067139 196.247559 C 458.554565 205.38501 455.179565 217.226685 450.933716 231.734985 C 456.042114 222.380859 461.375366 212.747559 466.933716 202.818359 C 472.483765 192.880859 476.64209 185.609985 479.400391 180.976685 C 482.167114 176.347534 484.529541 172.751709 486.500366 170.189209 C 489.212891 166.70166 491.89624 163.001709 494.537964 159.101685 C 497.187866 155.205811 499.26709 152.126709 500.792114 149.880859 C 502.321289 147.630859 503.729614 145.839111 505.033691 144.501709 C 506.32959 143.176636 507.612915 142.343384 508.89209 142.01416 C 510.479614 141.618286 512.933716 142.976685 516.246216 146.118286 C 519.571289 149.255859 521.358765 151.359985 521.617065 152.418335 C 521.937866 153.730835 521.596191 155.484985 520.604614 157.660034 C 519.617065 159.847534 517.467041 163.989136 514.150391 170.080811 C 508.075439 181.343384 503.121216 192.397461 499.283691 203.243286 C 495.442139 214.097534 492.883789 223.76416 491.600464 232.230835 C 490.325439 240.70166 490.221191 247.160034 491.292114 251.601685 C 491.971191 254.351685 492.95874 256.222534 494.262939 257.214111 C 495.571289 258.218384 497.292114 258.435059 499.429565 257.88916 C 501.379639 257.393311 503.108765 256.543335 504.596191 255.368286 C 506.092041 254.19751 507.687866 252.643311 509.400391 250.747559 C 511.112915 248.855835 512.729614 247.039185 514.250366 245.314209 C 516.433716 243.097534 518.537964 240.785034 520.575439 238.368286 C 522.621216 235.95166 524.192139 234.047485 525.308716 232.668335 C 526.425415 231.285034 527.275391 230.289185 527.837891 229.676636"/>
    <path id="Path-copy-27" fill="#1a1919" stroke="none" d="M 553.477051 178.944214 C 551.952026 179.339966 550.356201 179.119141 548.697876 178.277466 C 547.039551 177.444214 545.981201 176.11499 545.543701 174.306641 C 544.872925 171.544189 545.4104 168.152466 547.1521 164.123291 C 548.897949 160.085815 551.131226 157.714966 553.877075 157.015015 C 555.706299 156.544189 557.368774 156.731689 558.868774 157.581665 C 560.372925 158.42334 561.389526 159.948364 561.922974 162.131714 C 562.568726 164.823364 562.043701 168.11499 560.322876 172.006714 C 558.618774 175.894165 556.331299 178.219116 553.477051 178.944214 M 569.872925 219.310791 L 571.5271 226.160889 C 567.518799 235.494141 563.435425 242.806641 559.28125 248.094116 C 555.127075 253.381714 551.243774 256.477539 547.647949 257.406616 C 542.6521 258.67749 538.28125 256.944214 534.539551 252.181641 C 530.789551 247.431641 528.143799 241.86499 526.59375 235.477539 C 526.002075 233.040039 525.689575 230.648315 525.631226 228.306641 C 525.577026 225.960815 525.71875 223.969116 526.043701 222.36499 C 526.356201 220.756714 527.060425 218.185791 528.135376 214.640015 C 533.443726 198.606689 539.689575 189.656616 546.881226 187.823364 C 550.59375 186.86084 552.810425 187.856689 553.53125 190.80249 C 554.014526 192.79834 553.572876 196.23584 552.197876 201.106689 C 550.822876 205.977539 549.40625 209.564941 547.956299 211.86499 C 543.931274 218.477539 541.352051 223.023315 540.247925 225.506714 C 539.135376 227.981689 538.893799 230.535889 539.5354 233.165039 C 540.077026 235.419189 541.352051 237.077515 543.368774 238.169189 C 545.381226 239.23999 547.693726 239.448364 550.314575 238.769165 C 553.189575 238.035889 556.072876 236.152466 558.989624 233.11499 C 561.9104 230.073364 565.539551 225.469116 569.872925 219.310791"/>
    <path id="Path-copy-26" fill="#1a1919" stroke="none" d="M 585.80127 212.338745 C 590.751221 208.74292 594.792969 204.822144 597.901245 200.563721 C 601.001221 196.30957 603.134644 192.463745 604.263794 189.017944 C 605.413696 185.563721 605.813721 183.159546 605.476196 181.780396 C 605.12207 180.338745 604.30957 179.784546 603.038696 180.109619 C 601.93457 180.392944 600.322144 181.572144 598.213745 183.642944 C 596.092896 185.705444 594.047119 188.226196 592.080444 191.18457 C 590.11377 194.155396 588.501221 197.463745 587.255371 201.109619 C 586.005371 204.755371 585.509644 208.484619 585.80127 212.338745 M 586.37207 218.672119 L 586.938721 221.017944 C 587.834595 224.722046 589.409546 227.359619 591.67627 228.984619 C 593.951294 230.584595 596.522095 231.017944 599.380371 230.292969 C 602.36377 229.530396 605.292969 228.009644 608.126221 225.755371 C 610.984619 223.505371 613.709595 220.776245 616.30127 217.580444 C 618.897095 214.397095 621.98877 210.205444 625.584595 205.034546 L 626.980469 210.763794 C 622.159546 221.038696 617.276245 229.213745 612.342896 235.297119 C 607.401245 241.37207 601.842896 245.217896 595.62207 246.80127 C 590.197144 248.197144 585.37207 247.134644 581.159546 243.630371 C 576.942871 240.130371 573.92627 234.61792 572.097046 227.105469 C 570.505371 220.542969 570.55957 214.197144 572.24292 208.084595 C 573.92627 201.967896 577.438721 195.072144 582.763794 187.397095 C 586.409546 182.142944 590.255371 177.897095 594.330444 174.663696 C 598.397095 171.42627 602.226196 169.351196 605.838745 168.43042 C 608.697144 167.697144 611.11792 167.788696 613.130371 168.701294 C 615.130371 169.62207 616.459595 171.42627 617.11792 174.11377 C 618.072144 178.05127 617.588745 182.342896 615.67627 186.984619 C 613.759644 191.638794 610.334595 196.634644 605.388794 201.98877 C 600.422119 207.347046 594.097046 212.909546 586.37207 218.672119"/>
    <path id="Path-copy-25" fill="#1a1919" stroke="none" d="M 654.803345 185.09668 L 649.828369 171.813354 C 647.111694 177.16333 641.078369 187.650879 631.728394 203.263306 C 635.578369 203.142456 638.34082 203.59668 640.011719 204.630005 C 641.686646 205.66333 644.228394 207.842529 647.632446 211.150879 C 651.34082 208.338379 653.95752 205.134155 655.432495 201.530029 C 656.924194 197.921631 657.032471 193.488281 655.753296 188.242554 C 655.603394 187.613281 655.444946 187.055054 655.299194 186.563354 C 655.14502 186.067505 654.974121 185.579956 654.803345 185.09668 M 624.178345 208.184204 L 623.636719 205.934204 C 635.228394 184.888306 643.14917 170.192505 647.415894 161.863281 C 646.882446 153.825806 649.182495 149.155029 654.307495 147.842529 C 655.58252 147.509155 657.045044 147.525879 658.694946 147.905029 L 659.674194 149.550781 C 659.611694 150.371704 659.749146 151.459106 660.078369 152.829956 C 660.365845 154.025879 661.344971 156.121704 663.007446 159.117554 C 664.678345 162.109131 666.02002 164.638306 667.040894 166.700806 C 668.061646 168.771606 668.907471 171.184204 669.565796 173.930054 C 670.578369 178.063354 670.619995 182.246704 669.703369 186.509155 C 668.803345 190.759155 667.036621 195.075806 664.407471 199.430054 C 661.757446 203.796631 658.14917 208.484131 653.532471 213.530029 C 655.819946 213.342529 657.615845 213.084106 658.886719 212.763306 C 661.382446 212.113281 663.924194 210.78833 666.515869 208.767456 C 669.094971 206.72583 671.64502 204.259155 674.136719 201.329956 C 676.619995 198.392456 679.46582 194.700806 682.657471 190.217529 L 684.182495 196.505005 C 678.265869 206.329956 672.728394 214.046631 667.557495 219.655029 C 662.374146 225.267456 657.565796 228.642456 653.111694 229.79248 C 647.390869 231.250854 641.478394 230.10498 635.386719 226.34668 C 631.790894 224.088379 629.303345 221.65918 627.936646 219.084106 C 626.578369 216.517456 625.307495 212.884155 624.178345 208.184204"/>
    <path id="Path-copy-24" fill="#1a1919" stroke="none" d="M 775.775024 102.664551 L 776.716675 106.506226 C 784.25415 99.193726 789.779175 92.0979 793.25415 85.227051 C 796.733276 78.356201 798.06665 73.260376 797.266724 69.947876 C 796.583374 67.131226 794.866699 66.077026 792.125 66.772949 C 789.62085 67.414551 786.820801 69.743774 783.716675 73.764526 C 780.62085 77.7854 778.229126 82.447876 776.574951 87.752075 C 774.929199 93.064575 774.654175 98.03125 775.775024 102.664551 M 770.24585 133.885376 C 766.508301 138.235474 763.329224 142.697876 760.729126 147.2854 C 758.12085 151.885376 756.212524 156.177124 755.020874 160.172974 C 753.8125 164.168701 753.508301 167.322876 754.05835 169.635376 C 755.1875 174.268799 757.791626 176.056274 761.875 175.014526 C 764.866699 174.252075 768.662476 172.189575 773.291626 168.84375 C 777.920776 165.497925 782.320801 161.231201 786.50415 156.039551 C 782.279175 150.3479 776.854126 142.960449 770.24585 133.885376 M 772.6875 197.960449 C 768.349976 199.060425 763.849976 198.764526 759.162476 197.03125 C 754.462524 195.318726 750.3125 192.327026 746.69165 188.068726 C 743.0625 183.822876 740.520874 178.685425 739.05835 172.681274 C 737.12085 164.672974 738.324951 156.622925 742.675049 148.5271 C 747.025024 140.435425 754.216675 131.71875 764.24585 122.368774 C 762.679199 118.581299 761.69165 115.872925 761.304199 114.247925 C 759.770874 107.927124 759.62085 101.6521 760.862549 95.418701 C 762.104126 89.189575 764.329224 83.581299 767.520874 78.610474 C 770.712524 73.643799 774.37085 69.514526 778.49585 66.227051 C 782.616699 62.947876 786.783325 60.764526 790.979126 59.689575 C 795.862549 58.443726 800.091675 58.639526 803.666626 60.2854 C 807.233276 61.931274 809.491699 64.6604 810.408325 68.46875 C 811.637451 73.539551 811.474976 78.40625 809.912476 83.056274 C 808.362549 87.710449 805.99585 92.114624 802.833374 96.289551 C 799.662476 100.452026 795.658325 105.0979 790.820801 110.227051 C 785.974976 115.352051 783.0625 118.543701 782.074951 119.797974 C 785.9375 127.177124 790.849976 134.489624 796.824951 141.735474 C 801.383301 136.510376 804.841675 131.993774 807.212524 128.15625 C 809.599976 124.327026 811.533325 120.856201 813.045776 117.743774 C 814.550049 114.635376 815.666626 112.981201 816.408325 112.793701 C 816.954224 112.6521 817.574951 113.2229 818.279175 114.506226 C 818.983276 115.7854 819.520874 117.243774 819.920776 118.868774 C 820.841675 122.689575 821.045776 126.452026 820.533325 130.181274 C 820.00415 133.9021 818.920776 137.764526 817.266724 141.7771 C 815.62085 145.797974 813.44165 150.177124 810.704224 154.922974 L 818.37085 160.135376 C 818.795776 159.497925 819.291626 158.602051 819.862549 157.4646 C 820.425049 156.314575 820.87915 155.522949 821.233276 155.072876 C 821.574951 154.622925 821.983276 154.327026 822.479126 154.202026 C 823.079224 154.047974 823.616699 154.172974 824.06665 154.59375 C 824.525024 155.006226 824.833374 155.522949 824.991699 156.1521 C 825.604126 158.71875 824.883301 163.4729 822.820801 170.414551 C 820.74585 177.356201 818.55835 181.127075 816.237549 181.7229 C 815.008301 182.03125 813.704224 181.822876 812.291626 181.0896 C 810.883301 180.352051 809.079224 179.056274 806.887451 177.189575 C 804.679199 175.327026 802.875 173.743774 801.454224 172.443726 C 795.779175 179.747925 790.574951 185.572876 785.829224 189.9021 C 781.087524 194.252075 776.704224 196.931274 772.6875 197.960449"/>
    <path id="Path-copy-23" fill="#1a1919" stroke="none" d="M 975.25 118.061646 C 973.029175 115.569946 970.112549 113.561646 966.5 112.02832 C 962.900024 110.490845 959.012451 109.507446 954.858276 109.08252 C 950.708374 108.64502 946.479126 108.615845 942.170776 108.986694 C 929.408325 110.265869 916.904175 109.115845 904.704224 105.52832 C 903.675049 105.261719 902.445801 104.440796 901.020874 103.08667 C 899.583374 101.728394 898.68335 100.286621 898.320801 98.790894 C 896.983276 93.27832 896.537476 87.532471 896.99585 81.52832 C 897.462524 75.536621 898.704224 70.607544 900.741699 66.765869 C 903.99585 60.420044 911.016724 53.803345 921.8125 46.911621 C 932.599976 40.032471 945.341675 34.70752 960.029175 30.940796 C 968.80835 28.694946 975.758301 27.64917 980.87915 27.790771 C 985.987549 27.953369 988.908325 29.46582 989.604126 32.34082 C 990.75 37.032471 990.99585 40.824219 990.375 43.70752 C 989.741699 46.59082 988.8125 48.64502 987.583374 49.844971 C 986.366699 51.057495 984.125 52.853394 980.87915 55.20752 C 977.37085 57.569946 974.375 59.857544 971.912476 62.09082 C 969.4375 64.324219 967.366699 66.382446 965.695801 68.27417 C 964.025024 70.165894 962.93335 71.174194 962.449951 71.295044 C 961.837524 71.453369 961.462524 71.282471 961.345825 70.786621 C 961.083374 69.71167 961.779175 67.83252 963.420776 65.115845 C 965.074951 62.40332 967.266724 59.828369 970.045776 57.386719 C 972.954224 54.71582 974.345825 53.128296 974.233276 52.628296 C 974.037476 51.824219 972.079224 51.878296 968.358276 52.83667 C 957.083374 55.719971 946.900024 59.428345 937.841675 63.936646 C 928.770874 68.45752 921.887451 73.115845 917.199951 77.90332 C 912.487549 82.699219 910.570801 86.844971 911.420776 90.349121 C 911.949951 92.540894 913.479126 93.795044 915.974976 94.115845 C 918.479126 94.440796 923.904175 94.665894 932.212524 94.790894 C 940.533325 94.920044 948.104126 95.574219 954.93335 96.753296 C 964.704224 98.361694 972.233276 100.724121 977.529175 103.819946 C 982.80835 106.924194 986.074951 111.061646 987.337524 116.261719 C 988.204224 119.819946 988.237549 123.619995 987.445801 127.64917 C 986.62915 131.678345 984.983276 135.607544 982.474976 139.440796 C 979.974976 143.261719 976.862549 146.694946 973.12915 149.70752 C 969.912476 152.194946 965.733276 154.824219 960.612549 157.599121 C 955.49585 160.374146 949.829224 162.96582 943.666626 165.374146 C 937.483276 167.795044 931.50415 169.736694 925.704224 171.219971 C 915.041626 173.95752 906.216675 175.124146 899.224976 174.71582 C 892.220825 174.319946 888.220825 172.02002 887.204224 167.828369 C 886.758301 165.949219 887.137451 162.749146 888.366699 158.21167 C 889.591675 153.674194 891.537476 150.33667 894.19165 148.194946 C 896.545776 146.45752 898.93335 145.203369 901.337524 144.420044 C 903.737549 143.640869 905.020874 143.628296 905.199951 144.382446 C 905.24585 144.565796 905.199951 144.77832 905.0625 145.011719 C 904.929199 145.244995 904.75415 145.453369 904.545776 145.640869 C 904.329224 145.83667 904.112549 146.02002 903.908325 146.203369 C 902.80835 147.011719 901.904175 147.661621 901.216675 148.136719 C 900.525024 148.611694 899.983276 149.057495 899.595825 149.45752 C 899.199951 149.853394 899.074951 150.303345 899.19165 150.799194 C 899.508301 152.119995 905.979126 151.15332 918.595825 147.924194 C 929.55835 145.111694 938.458374 142.407471 945.279175 139.795044 C 952.083374 137.186646 957.912476 134.124146 962.758301 130.632446 C 967.604126 127.128296 971.770874 122.936646 975.25 118.061646"/>
    <path id="Path-copy-22" fill="#1a1919" stroke="none" d="M 1036.029175 73.479614 C 1031.741699 77.908691 1028.087524 81.850464 1025.112549 85.304565 C 1022.133301 88.758789 1019.704224 92.096191 1017.841675 95.33374 C 1015.970825 98.571289 1014.929199 101.617065 1014.699951 104.467041 C 1014.883301 111.862915 1015.041626 115.842041 1015.179199 116.404541 C 1016.19165 120.533691 1019.49585 121.879639 1025.095825 120.446289 C 1027.720825 119.762939 1031.541626 116.337891 1036.56665 110.125366 C 1034.837524 107.45874 1033.625 104.76709 1032.970825 102.07959 C 1032.016724 98.133789 1031.81665 93.917114 1032.420776 89.404541 C 1033.012451 84.904541 1034.216675 79.596191 1036.029175 73.479614 M 1060.858276 93.337891 L 1062.383301 99.621216 C 1059.270874 104.412964 1056.645874 107.742065 1054.520874 109.621216 C 1052.37915 111.500366 1048.99585 112.89209 1044.362549 113.817139 C 1038.770874 125.475464 1032.970825 132.07959 1026.9375 133.625366 C 1023.520874 134.504639 1020.12915 134.14624 1016.766724 132.550415 C 1013.404175 130.950439 1010.404175 128.358765 1007.74585 124.783691 C 1005.099976 121.217041 1003.175049 116.95459 1001.966675 112.012939 C 1001.008301 108.008789 1001.220825 103.233765 1002.62085 97.687866 C 1004.033325 92.14209 1006.279175 86.742065 1009.37085 81.45874 C 1012.454224 76.179565 1016.033325 71.637939 1020.099976 67.837891 C 1024.162476 64.050415 1028.204224 61.633789 1032.233276 60.604614 C 1035.087524 59.862915 1037.466675 59.742065 1039.324951 60.221191 C 1041.1875 60.70874 1042.324951 61.762939 1042.712524 63.400391 C 1043.020874 64.64624 1042.662476 66.258789 1041.658325 68.254639 C 1044.099976 68.158691 1045.883301 68.587891 1047.016724 69.525391 C 1048.150024 70.462891 1049.095825 72.45459 1049.837524 75.529541 C 1050.56665 78.525391 1050.795776 82.492065 1050.533325 87.408691 C 1050.283325 92.32959 1049.44165 97.104614 1048.033325 101.70874 L 1050.087524 102.979614 L 1051.462524 102.629639 C 1052.5 102.362915 1053.458374 101.83374 1054.329224 101.046265 C 1055.204224 100.258789 1055.962524 99.462891 1056.608276 98.662964 C 1057.266724 97.871216 1058.679199 96.092041 1060.858276 93.337891"/>
    <path id="Path-copy-21" fill="#1a1919" stroke="none" d="M 1116.729614 61.182861 C 1108.979614 76.199585 1105.687866 86.10791 1106.858765 90.932861 C 1107.504639 93.620361 1108.89624 94.691284 1111.037964 94.145386 C 1112.796265 93.687134 1114.871216 92.149536 1117.246216 89.512085 C 1119.617065 86.882935 1123.221191 82.349609 1128.07959 75.92041 L 1129.64624 82.395386 C 1123.112915 93.378784 1118.008789 101.399536 1114.321289 106.462036 C 1110.612915 111.528809 1107.308716 114.437134 1104.39209 115.182861 C 1099.39624 116.470459 1096.075439 113.72876 1094.425415 106.966309 C 1093.946289 104.970459 1093.77124 102.924561 1093.912964 100.824585 C 1094.054565 98.72876 1094.400391 96.491211 1094.946289 94.124634 C 1095.512939 91.753784 1096.412964 88.337036 1097.658691 83.862061 C 1098.912964 79.391235 1100.362915 74.316284 1102.029541 68.641235 C 1098.992065 71.341309 1095.504639 76.057861 1091.567139 82.787109 C 1088.975464 87.032959 1086.854614 90.98291 1085.217041 94.624634 C 1083.57959 98.270386 1081.854614 102.303711 1080.046265 106.716309 C 1078.237915 111.137085 1076.862915 114.141235 1075.929565 115.749634 C 1074.975464 117.345459 1073.875366 118.316284 1072.596191 118.645386 C 1070.637939 119.149536 1068.337891 117.512085 1065.679565 113.741211 C 1063.012939 109.966309 1061.008789 105.29541 1059.658691 99.73291 C 1058.825439 96.287109 1058.542114 93.495361 1058.837891 91.366211 C 1059.125366 89.22876 1059.975464 86.091309 1061.362915 81.949585 C 1063.95874 74.237061 1066.408691 68.432861 1068.696289 64.566284 C 1070.987915 60.687134 1073.542114 58.391235 1076.354614 57.67041 C 1078.296265 57.174561 1079.950439 57.116211 1081.308716 57.499634 C 1082.658691 57.882935 1083.51709 58.79541 1083.867065 60.23291 C 1084.012939 60.85791 1083.987915 61.562134 1083.792114 62.345459 C 1083.592041 63.128784 1083.33374 63.85376 1083.012939 64.54126 C 1082.700439 65.212036 1082.004639 66.553711 1080.929565 68.557861 C 1073.950439 81.974609 1070.862915 90.307861 1071.667114 93.562134 C 1072.100464 95.382935 1072.887939 96.132935 1074.058716 95.837036 C 1074.783691 95.649536 1075.908691 94.087036 1077.429565 91.137085 C 1078.95459 88.191284 1080.879639 84.341309 1083.27124 79.574585 C 1085.637939 74.812134 1088.58374 69.716309 1092.087891 64.307861 C 1095.596191 58.887085 1099.77124 53.462036 1104.604614 48.04126 C 1107.27124 44.903809 1109.662964 43.053711 1111.800415 42.507935 C 1112.77124 42.257935 1114.075439 43.391235 1115.687866 45.895386 C 1117.300415 48.41626 1118.446289 51.074585 1119.121216 53.887085 C 1119.462891 55.270386 1118.658691 57.695435 1116.729614 61.182861"/>
    <path id="Path-copy-20" fill="#1a1919" stroke="none" d="M 1159.255005 55.87085 L 1154.29248 42.587524 C 1151.563354 47.94165 1145.53833 58.429199 1136.180054 74.041626 C 1140.03418 73.925049 1142.800781 74.375 1144.47168 75.404175 C 1146.146606 76.445801 1148.688354 78.612549 1152.079956 81.93335 C 1155.800781 79.12085 1158.405029 75.912476 1159.892456 72.30835 C 1161.388306 68.699951 1161.492554 64.266724 1160.209106 59.020874 C 1160.063354 58.391724 1159.91333 57.833374 1159.763306 57.333374 C 1159.609131 56.845825 1159.442505 56.354126 1159.255005 55.87085 M 1128.638306 78.966675 L 1128.092529 76.712524 C 1139.696655 55.666626 1147.609131 40.974976 1151.871704 32.645874 C 1151.342529 24.599976 1153.642456 19.925049 1158.763306 18.612549 C 1160.03833 18.283325 1161.505005 18.30835 1163.150879 18.6875 L 1164.130005 20.333374 C 1164.067505 21.141724 1164.204956 22.24585 1164.53833 23.612549 C 1164.834106 24.804199 1165.805054 26.900024 1167.47583 29.891724 C 1169.134155 32.891724 1170.47583 35.420776 1171.500854 37.487549 C 1172.513306 39.550049 1173.363281 41.958374 1174.021606 44.704224 C 1175.03418 48.841675 1175.067505 53.033325 1174.15918 57.287476 C 1173.255005 61.541626 1171.484131 65.854126 1168.85498 70.216675 C 1166.22168 74.574951 1162.60498 79.275024 1158.005005 84.304199 C 1160.28418 84.12085 1162.071655 83.862549 1163.338379 83.537476 C 1165.85083 82.891724 1168.384155 81.56665 1170.97168 79.545776 C 1173.555054 77.512451 1176.10498 75.033325 1178.588379 72.112549 C 1181.075806 69.175049 1183.925781 65.470825 1187.117554 61 L 1188.638306 67.291626 C 1182.734131 77.112549 1177.188354 84.820801 1172.013306 90.43335 C 1166.834106 96.050049 1162.021606 99.425049 1157.571655 100.56665 C 1151.84668 102.033325 1145.934204 100.891724 1139.84668 97.125 C 1136.250854 94.862549 1133.771606 92.4375 1132.40918 89.866699 C 1131.025879 87.295776 1129.767456 83.662476 1128.638306 78.966675"/>
    <path id="Path-copy-19" fill="#1a1919" stroke="none" d="M 699.460815 249.659546 L 699.973389 261.030396 L 698.656616 261.030396 C 698.398315 259.022095 698.05249 257.592896 697.61499 256.73877 C 696.894165 255.351196 695.931641 254.334595 694.73999 253.68042 C 693.535889 253.022095 691.960815 252.697144 690.019165 252.697144 L 683.36499 252.697144 L 683.36499 289.730469 C 683.36499 292.705444 683.681641 294.563721 684.30249 295.30127 C 685.181641 296.30957 686.54834 296.813721 688.385864 296.813721 L 690.019165 296.813721 L 690.019165 298.134644 L 670.002441 298.134644 L 670.002441 296.813721 L 671.669189 296.813721 C 673.665039 296.813721 675.081665 296.188721 675.915039 294.947144 C 676.42334 294.192871 676.67749 292.455444 676.67749 289.730469 L 676.67749 252.697144 L 671.002441 252.697144 C 668.806641 252.697144 667.23584 252.86377 666.306641 253.201294 C 665.098389 253.651245 664.064941 254.522095 663.202515 255.813721 C 662.339966 257.088745 661.831665 258.834595 661.67334 261.030396 L 660.352539 261.030396 L 660.910889 249.659546 Z"/>
    <path id="Path-copy-18" fill="#1a1919" stroke="none" d="M 714.837524 273.214966 C 715.287476 273.214966 715.666626 273.219116 715.987549 273.227539 C 716.320801 273.252441 716.583374 273.252441 716.804199 273.252441 C 721.295776 273.252441 724.69165 272.252441 726.991699 270.252441 C 729.266724 268.248291 730.412476 265.694214 730.412476 262.602539 C 730.412476 259.581665 729.491699 257.11499 727.641724 255.227539 C 725.795776 253.323364 723.354126 252.377441 720.30835 252.377441 C 718.974976 252.377441 717.150024 252.61084 714.837524 253.056641 Z M 748.37915 298.131714 L 735.779175 298.131714 L 719.791626 275.469116 C 718.612549 275.523315 717.645874 275.544189 716.895874 275.544189 C 716.591675 275.544189 716.275024 275.544189 715.925049 275.531616 C 715.583374 275.510864 715.220825 275.494141 714.837524 275.469116 L 714.837524 289.55249 C 714.837524 292.602539 715.170776 294.498291 715.824951 295.23999 C 716.708374 296.285889 718.020874 296.814941 719.791626 296.814941 L 721.641724 296.814941 L 721.641724 298.131714 L 701.408325 298.131714 L 701.408325 296.814941 L 703.170776 296.814941 C 705.19165 296.814941 706.604126 296.148315 707.458374 294.80249 C 707.945801 294.069214 708.19165 292.319214 708.19165 289.55249 L 708.19165 258.23999 C 708.19165 255.189941 707.87085 253.285889 707.224976 252.560791 C 706.30835 251.506714 704.966675 250.98584 703.170776 250.98584 L 701.408325 250.98584 L 701.408325 249.660889 L 718.612549 249.660889 C 723.62085 249.660889 727.31665 250.027466 729.704224 250.781616 C 732.087524 251.535889 734.095825 252.92334 735.758301 254.931641 C 737.420776 256.944214 738.241699 259.344116 738.241699 262.135864 C 738.241699 265.11084 737.30835 267.698364 735.412476 269.894165 C 733.516724 272.085815 730.587524 273.635864 726.612549 274.531616 L 736.366699 288.439941 C 738.599976 291.635864 740.508301 293.760864 742.116699 294.80249 C 743.716675 295.852539 745.804199 296.523315 748.37915 296.814941 Z"/>
    <path id="Path-copy-17" fill="#1a1919" stroke="none" d="M 780.413696 250.986206 L 780.413696 249.661255 L 797.147095 249.661255 L 797.147095 250.986206 L 795.355469 250.986206 C 793.513794 250.986206 792.076294 251.777954 791.076294 253.37793 C 790.597046 254.123779 790.355469 255.827881 790.355469 258.519531 L 790.355469 278.182129 C 790.355469 283.048706 789.888794 286.81958 788.938721 289.494629 C 788.005371 292.173706 786.159546 294.482056 783.409546 296.398804 C 780.655396 298.31543 776.909546 299.273804 772.167969 299.273804 C 767.017944 299.273804 763.105469 298.365479 760.438721 296.523804 C 757.772095 294.69458 755.86377 292.219604 754.759644 289.119629 C 754.017944 287.00293 753.642944 283.027954 753.642944 277.182129 L 753.642944 258.240356 C 753.642944 255.25293 753.24292 253.298706 752.442871 252.37793 C 751.638794 251.44873 750.351196 250.986206 748.563721 250.986206 L 746.780396 250.986206 L 746.780396 249.661255 L 767.18457 249.661255 L 767.18457 250.986206 L 765.384644 250.986206 C 763.43042 250.986206 762.038696 251.607056 761.201294 252.873779 C 760.61377 253.732056 760.330444 255.527954 760.330444 258.240356 L 760.330444 279.357056 C 760.330444 281.248779 760.501221 283.402954 760.834595 285.836304 C 761.172119 288.26123 761.776245 290.161255 762.667969 291.523804 C 763.547119 292.87793 764.817871 293.994629 766.476196 294.873779 C 768.134644 295.75293 770.18042 296.19873 772.588745 296.19873 C 775.67627 296.19873 778.43457 295.50708 780.876221 294.12793 C 783.317871 292.740356 784.984619 290.977905 785.880371 288.81958 C 786.763794 286.665405 787.213745 283.01123 787.213745 277.852905 L 787.213745 258.240356 C 787.213745 255.215454 786.884644 253.32373 786.24292 252.561279 C 785.330444 251.50708 783.99292 250.986206 782.209595 250.986206 Z"/>
    <path id="Path-copy-16" fill="#1a1919" stroke="none" d="M 839.703369 248.548706 L 840.790894 265.023804 L 839.703369 265.023804 C 838.27002 260.094604 836.20752 256.544556 833.540894 254.373779 C 830.874146 252.207031 827.674194 251.123779 823.932495 251.123779 C 820.795044 251.123779 817.96582 251.94043 815.432495 253.56543 C 812.89502 255.202881 810.907471 257.807129 809.46167 261.38623 C 808.007446 264.952881 807.286621 269.407104 807.286621 274.711304 C 807.286621 279.102905 807.969971 282.898804 809.33252 286.123779 C 810.70752 289.340454 812.765869 291.807129 815.515869 293.519531 C 818.261719 295.240479 821.40332 296.098755 824.944946 296.098755 C 827.999146 296.098755 830.71167 295.419556 833.053345 294.077881 C 835.39917 292.732056 837.974121 290.048706 840.790894 286.044556 L 841.861694 286.765381 C 839.490845 291.06958 836.728394 294.236206 833.578369 296.232056 C 830.415894 298.232056 826.670044 299.236206 822.324219 299.236206 C 814.499146 299.236206 808.440796 296.25708 804.15332 290.302856 C 800.944946 285.869629 799.33667 280.652954 799.33667 274.644531 C 799.33667 269.811279 800.39917 265.365356 802.511719 261.307129 C 804.619995 257.26123 807.52002 254.123779 811.236694 251.894531 C 814.936646 249.665405 818.982544 248.548706 823.378296 248.548706 C 826.782471 248.548706 830.14502 249.411255 833.474121 251.123779 C 834.440796 251.648804 835.140869 251.907104 835.561646 251.907104 C 836.190796 251.907104 836.728394 251.686279 837.194946 251.240356 C 837.803345 250.582031 838.228394 249.69873 838.482544 248.548706 Z"/>
    <path id="Path-copy-15" fill="#1a1919" stroke="none" d="M 864.29248 271.253784 L 881.709106 289.012085 C 884.559204 291.949585 886.992554 293.941284 889.017456 295.007935 C 891.03418 296.074585 893.063354 296.662109 895.075806 296.816284 L 895.075806 298.132935 L 872.613281 298.132935 L 872.613281 296.816284 C 873.963379 296.816284 874.934204 296.578735 875.521606 296.112061 C 876.121704 295.645386 876.41333 295.128784 876.41333 294.562134 C 876.41333 293.98291 876.296631 293.470459 876.084106 293.024536 C 875.859131 292.566284 875.142456 291.724609 873.91333 290.47876 L 857.60083 273.937134 L 857.60083 289.553711 C 857.60083 292.003784 857.759155 293.628784 858.063354 294.41626 C 858.296631 295.007935 858.775879 295.524536 859.517456 295.949585 C 860.525879 296.520386 861.571655 296.816284 862.696655 296.816284 L 864.29248 296.816284 L 864.29248 298.132935 L 844.16748 298.132935 L 844.16748 296.816284 L 845.838379 296.816284 C 847.79248 296.816284 849.196655 296.220459 850.088379 295.057861 C 850.638306 294.29126 850.921631 292.453735 850.921631 289.553711 L 850.921631 258.241211 C 850.921631 255.782959 850.767456 254.149536 850.47583 253.345459 C 850.238281 252.762085 849.763306 252.262085 849.046631 251.837036 C 848.017456 251.262085 846.942505 250.987061 845.838379 250.987061 L 844.16748 250.987061 L 844.16748 249.657959 L 864.29248 249.657959 L 864.29248 250.987061 L 862.696655 250.987061 C 861.60083 250.987061 860.550781 251.257935 859.517456 251.807861 C 858.805054 252.182861 858.300781 252.762085 858.021606 253.516235 C 857.746704 254.287109 857.60083 255.85376 857.60083 258.241211 L 857.60083 273.070435 C 858.075806 272.620361 859.66333 271.10791 862.371704 268.532959 C 869.275879 262.049561 873.438354 257.720459 874.871704 255.562134 C 875.500854 254.599609 875.821655 253.770386 875.821655 253.057861 C 875.821655 252.512085 875.575806 252.028809 875.092529 251.60791 C 874.60498 251.191284 873.775879 250.987061 872.613281 250.987061 L 871.53418 250.987061 L 871.53418 249.657959 L 888.884155 249.657959 L 888.884155 250.987061 C 887.859131 251.007935 886.930054 251.141235 886.09668 251.407959 C 885.263306 251.67041 884.22998 252.178711 883.025879 252.937134 C 881.821655 253.678711 880.338379 254.882935 878.575806 256.566284 C 878.063354 257.028809 875.696655 259.47876 871.496704 263.878784 Z"/>
    <path id="Path-copy-14" fill="#1a1919" stroke="none" d="M 915.354126 296.81543 L 915.354126 298.13208 L 895.125 298.13208 L 895.125 296.81543 L 896.795776 296.81543 C 898.741699 296.81543 900.158325 296.219604 901.045776 295.057129 C 901.595825 294.294556 901.87085 292.452881 901.87085 289.552856 L 901.87085 258.240356 C 901.87085 255.782104 901.729126 254.161255 901.420776 253.37793 C 901.195801 252.777954 900.712524 252.265381 899.991699 251.836304 C 898.974976 251.26123 897.904175 250.986206 896.795776 250.986206 L 895.125 250.986206 L 895.125 249.661255 L 915.354126 249.661255 L 915.354126 250.986206 L 913.645874 250.986206 C 911.724976 250.986206 910.31665 251.56543 909.4375 252.727905 C 908.845825 253.494629 908.5625 255.332031 908.5625 258.240356 L 908.5625 289.552856 C 908.5625 292.00708 908.708374 293.62793 909.016724 294.415405 C 909.25 295.00708 909.733276 295.523804 910.483276 295.94873 C 911.470825 296.523804 912.529175 296.81543 913.645874 296.81543 Z"/>
    <path id="Path-copy-13" fill="#1a1919" stroke="none" d="M 917.510864 249.659546 L 930.323364 249.659546 L 959.198364 286.009644 L 959.198364 258.05957 C 959.198364 255.080444 958.86499 253.222046 958.223389 252.48877 C 957.352539 251.484619 956.010864 250.984619 954.144165 250.984619 L 952.502441 250.984619 L 952.502441 249.659546 L 968.944214 249.659546 L 968.944214 250.984619 L 967.277466 250.984619 C 965.273315 250.984619 963.86084 251.601196 963.027466 252.847046 C 962.510864 253.601196 962.256714 255.351196 962.256714 258.05957 L 962.256714 298.913696 L 960.998291 298.913696 L 929.873291 259.888794 L 929.873291 289.730469 C 929.873291 292.705444 930.181641 294.563721 930.810791 295.30127 C 931.689941 296.30957 933.05249 296.813721 934.890015 296.813721 L 936.560791 296.813721 L 936.560791 298.134644 L 920.11499 298.134644 L 920.11499 296.813721 L 921.760864 296.813721 C 923.781616 296.813721 925.206665 296.188721 926.04834 294.947144 C 926.556641 294.192871 926.806641 292.455444 926.806641 289.730469 L 926.806641 256.022095 C 925.431641 254.376221 924.402466 253.284546 923.694214 252.763794 C 922.981689 252.24292 921.948364 251.759644 920.569214 251.30127 C 919.898315 251.088745 918.873291 250.984619 917.510864 250.984619 Z"/>
    <path id="Path-copy-12" fill="#1a1919" stroke="none" d="M 1012.587524 248.548706 L 1013.804199 263.848755 L 1012.587524 263.848755 C 1011.362549 260.036255 1009.770874 257.161255 1007.8125 255.236206 C 1005.012451 252.452881 1001.391724 251.057129 996.991699 251.057129 C 990.970825 251.057129 986.400024 253.494629 983.270874 258.373779 C 980.633301 262.50708 979.329224 267.411255 979.329224 273.107056 C 979.329224 277.740356 980.199951 281.952881 981.945801 285.765381 C 983.6875 289.577881 985.949951 292.373779 988.783325 294.140381 C 991.604126 295.915405 994.5 296.81543 997.474976 296.81543 C 999.216675 296.81543 1000.887451 296.582031 1002.520874 296.12793 C 1004.150024 295.677856 1005.720825 295.00708 1007.224976 294.123779 L 1007.224976 280.119629 C 1007.224976 277.686279 1007.045776 276.090454 1006.6875 275.340454 C 1006.324951 274.582031 1005.758301 274.019531 1005.016724 273.62793 C 1004.258301 273.227905 1002.93335 273.032104 1001.033325 273.032104 L 1001.033325 271.677856 L 1019.30835 271.677856 L 1019.30835 273.032104 L 1018.429199 273.032104 C 1016.62915 273.032104 1015.37915 273.661255 1014.712524 274.898804 C 1014.24585 275.782104 1014.025024 277.515381 1014.025024 280.119629 L 1014.025024 294.94873 C 1011.345825 296.423706 1008.708374 297.51123 1006.112549 298.207031 C 1003.516724 298.898804 1000.616699 299.236206 997.4375 299.236206 C 988.31665 299.236206 981.37915 296.232056 976.641724 290.223755 C 973.095825 285.727905 971.320801 280.532104 971.320801 274.644531 C 971.320801 270.38623 972.31665 266.286255 974.31665 262.38208 C 976.6875 257.744629 979.9375 254.161255 984.0625 251.661255 C 987.525024 249.590454 991.612549 248.548706 996.324951 248.548706 C 998.045776 248.548706 999.612549 248.686279 1001.008301 248.973755 C 1002.416626 249.265381 1004.404175 249.898804 1006.983276 250.87793 C 1008.287476 251.37793 1009.145874 251.623779 1009.587524 251.623779 C 1010.025024 251.623779 1010.416626 251.415405 1010.729126 251.00293 C 1011.037476 250.582031 1011.237549 249.773804 1011.30835 248.548706 Z"/>
    <path id="Path-copy-11" fill="#1a1919" stroke="none" d="M 1023.012085 310.320435 L 1023.012085 308.745361 C 1025.395386 307.937134 1027.245361 306.687134 1028.566284 304.966309 C 1029.874634 303.274536 1030.537109 301.466309 1030.537109 299.566284 C 1030.537109 299.116211 1030.424561 298.72876 1030.216309 298.42041 C 1030.062134 298.207886 1029.891235 298.091309 1029.72876 298.091309 C 1029.48291 298.091309 1028.91626 298.332886 1028.057861 298.812134 C 1027.637085 299.032959 1027.203735 299.132935 1026.737061 299.132935 C 1025.60376 299.132935 1024.695435 298.787109 1024.020386 298.091309 C 1023.345459 297.407959 1023.012085 296.449585 1023.012085 295.241211 C 1023.012085 294.070435 1023.445435 293.070435 1024.307861 292.23291 C 1025.182861 291.399536 1026.249634 290.97876 1027.499634 290.97876 C 1029.04541 290.97876 1030.399536 291.662109 1031.595459 293.037109 C 1032.803711 294.41626 1033.378784 296.220459 1033.378784 298.491211 C 1033.378784 300.945435 1032.557861 303.22876 1030.895386 305.337036 C 1029.224609 307.441284 1026.616211 309.112061 1023.012085 310.320435"/>
    <path id="Path-copy-10" fill="#1a1919" stroke="none" d="M 1093.723389 284.722534 L 1094.873291 284.972534 L 1090.844116 298.13501 L 1054.265015 298.13501 L 1054.265015 296.814209 L 1056.04834 296.814209 C 1058.035889 296.814209 1059.469116 296.147461 1060.327515 294.801636 C 1060.823364 294.043335 1061.056641 292.280884 1061.056641 289.518311 L 1061.056641 258.243286 C 1061.056641 255.214111 1060.731689 253.32251 1060.081665 252.560059 C 1059.181641 251.505859 1057.835815 250.984985 1056.04834 250.984985 L 1054.265015 250.984985 L 1054.265015 249.660034 L 1075.648315 249.660034 L 1075.648315 250.984985 C 1073.144165 250.955811 1071.385864 251.20166 1070.373291 251.693359 C 1069.373291 252.193359 1068.669189 252.834961 1068.30249 253.593384 C 1067.935791 254.351685 1067.748291 256.180786 1067.748291 259.060059 L 1067.748291 289.518311 C 1067.748291 291.497559 1067.935791 292.859985 1068.30249 293.593384 C 1068.569214 294.089111 1069.015015 294.464111 1069.585815 294.705811 C 1070.169189 294.943359 1071.977539 295.055786 1075.019165 295.055786 L 1078.473389 295.055786 C 1082.094116 295.055786 1084.631714 294.789185 1086.094116 294.234985 C 1087.560791 293.689209 1088.890015 292.705811 1090.11084 291.318359 C 1091.314941 289.935059 1092.506714 287.730835 1093.723389 284.722534"/>
    <path id="Path-copy-9" fill="#1a1919" stroke="none" d="M 1135.71582 284.722534 L 1136.869995 284.972534 L 1132.84082 298.13501 L 1096.261719 298.13501 L 1096.261719 296.814209 L 1098.036621 296.814209 C 1100.032471 296.814209 1101.46582 296.147461 1102.324219 294.801636 C 1102.811646 294.043335 1103.065796 292.280884 1103.065796 289.518311 L 1103.065796 258.243286 C 1103.065796 255.214111 1102.732544 253.32251 1102.08667 252.560059 C 1101.174194 251.505859 1099.83252 250.984985 1098.036621 250.984985 L 1096.261719 250.984985 L 1096.261719 249.660034 L 1117.65332 249.660034 L 1117.65332 250.984985 C 1115.140869 250.955811 1113.382446 251.20166 1112.365845 251.693359 C 1111.361694 252.193359 1110.674194 252.834961 1110.295044 253.593384 C 1109.932495 254.351685 1109.740845 256.180786 1109.740845 259.060059 L 1109.740845 289.518311 C 1109.740845 291.497559 1109.932495 292.859985 1110.295044 293.593384 C 1110.58252 294.089111 1111.011719 294.464111 1111.594971 294.705811 C 1112.170044 294.943359 1113.978394 295.055786 1117.02417 295.055786 L 1120.469971 295.055786 C 1124.09082 295.055786 1126.628296 294.789185 1128.094971 294.234985 C 1129.557495 293.689209 1130.89502 292.705811 1132.099121 291.318359 C 1133.311646 289.935059 1134.515869 287.730835 1135.71582 284.722534"/>
    <path id="Path-copy-8" fill="#1a1919" stroke="none" d="M 1179.782959 248.548706 L 1180.85376 265.023804 L 1179.782959 265.023804 C 1178.332886 260.094604 1176.274536 256.544556 1173.612061 254.373779 C 1170.937134 252.207031 1167.724609 251.123779 1163.995361 251.123779 C 1160.85791 251.123779 1158.028809 251.94043 1155.491211 253.56543 C 1152.970459 255.202881 1150.97876 257.807129 1149.524536 261.38623 C 1148.074585 264.952881 1147.349609 269.407104 1147.349609 274.711304 C 1147.349609 279.102905 1148.037109 282.898804 1149.412109 286.123779 C 1150.770386 289.340454 1152.832886 291.807129 1155.578735 293.519531 C 1158.341309 295.240479 1161.47876 296.098755 1164.999634 296.098755 C 1168.078735 296.098755 1170.787109 295.419556 1173.116211 294.077881 C 1175.462036 292.732056 1178.049561 290.048706 1180.85376 286.044556 L 1181.932861 286.765381 C 1179.566284 291.06958 1176.799561 294.236206 1173.645386 296.232056 C 1170.487061 298.232056 1166.73291 299.236206 1162.391235 299.236206 C 1154.562134 299.236206 1148.512085 296.25708 1144.220459 290.302856 C 1141.007935 285.869629 1139.412109 280.652954 1139.412109 274.644531 C 1139.412109 269.811279 1140.462036 265.365356 1142.574585 261.307129 C 1144.691284 257.26123 1147.60376 254.123779 1151.299561 251.894531 C 1155.007935 249.665405 1159.049561 248.548706 1163.432861 248.548706 C 1166.85791 248.548706 1170.224609 249.411255 1173.537109 251.123779 C 1174.516235 251.648804 1175.207886 251.907104 1175.624634 251.907104 C 1176.249634 251.907104 1176.799561 251.686279 1177.262085 251.240356 C 1177.866211 250.582031 1178.299561 249.69873 1178.557861 248.548706 Z"/>
    <path id="Path-copy-7" fill="#fffffe" fill-rule="evenodd" stroke="none" d="M 330.307922 188.595825 C 326.149597 183.800049 318.241272 182.12915 312.932922 178.662476 C 307.412109 175.054199 302.449585 170.637451 298.124573 165.662476 C 289.703735 155.962524 277.299561 130.112549 276.774597 128.491699 C 274.003723 119.849976 280.832947 117.829224 285.124573 114.929199 C 289.35376 112.079224 293.899597 109.229126 297.637085 105.758301 C 301.10376 102.533325 301.516235 98.716675 303.387085 94.637451 C 307.612061 85.445801 315.932922 76.262451 315.116272 65.508301 C 314.770447 60.945801 305.257935 57.50415 303.337097 56.87915 C 293.253723 53.5625 275.112061 53.291626 264.178772 56.05835 C 258.72876 57.43335 252.770447 61.716675 247.062073 59.204224 C 242.72876 57.291626 238.91626 52.554199 236.10791 48.520874 C 228.424561 37.487549 220.062073 27.145874 208.932922 19.383301 C 201.85376 14.43335 195.153748 11.633301 188.349609 12.19165 C 153.741272 15.06665 125.137085 50.787476 123.012085 50.574951 C 121.378723 50.412476 107.17041 24.837524 98.22876 17.44165 C 95.224609 14.962524 91.399597 9.916626 88.095398 8.270874 C 84.562073 6.520874 60.878723 6.800049 58.928772 10.737549 C 57.474548 13.69165 56.466248 17.929199 55.649597 21.833374 C 51.862061 39.824951 60.332947 58.912476 71.753723 72.487549 C 74.85791 76.18335 84.487061 83.091675 84.399597 88.425049 C 84.307922 93.633301 79.274597 87.987549 77.870422 86.616699 C 74.878723 83.720825 72.341248 81.337524 67.837097 82.762451 C 63.407898 84.145874 19.687073 105.966675 10.457947 113.974976 C 7.912109 116.199951 5.507874 118.829224 4.441223 121.775024 C 1.557922 129.716675 11.020447 189.550049 12.424561 196 C 15.028748 207.987549 41.678711 256.908325 50.257935 267.625 C 59.991272 279.775024 92.382935 313.033325 98.22876 316.625 C 104.370422 320.37915 113.753723 324.074951 120.820435 318.945801 C 125.178772 315.795776 127.137085 308.866699 129.370422 304.116699 C 132.587097 297.237549 153.524597 246.295776 157.924561 242.141724 C 163.48291 236.883301 175.553772 236.966675 182.67041 236.62085 C 193.632935 236.087524 204.599609 236.908325 215.54541 237.37915 C 228.424561 237.925049 241.366272 238.108276 254.04541 240.625 C 261.557922 242.125 268.491272 244.949951 275.270447 247.195801 C 279.324585 248.550049 288.328735 249.229126 292.112061 247.608276 C 295.837097 246.016724 299.132935 242.041626 304.29541 240.491699 C 309.320435 238.979126 315.562073 238.6875 319.35791 236.104126 C 326.212097 231.44165 329.053772 215.412476 330.687073 207.866699 C 331.862061 202.462524 334.35791 193.258301 330.307922 188.595825"/>
    <path id="Path-copy-6" fill="none" stroke="#fffffe" stroke-width="11.345834" stroke-linecap="round" stroke-linejoin="round" d="M 330.307922 188.595825 C 326.149597 183.800049 318.241272 182.12915 312.932922 178.662476 C 307.412109 175.054199 302.449585 170.637451 298.124573 165.662476 C 289.703735 155.962524 277.299561 130.112549 276.774597 128.491699 C 274.003723 119.849976 280.832947 117.829224 285.124573 114.929199 C 289.35376 112.079224 293.899597 109.229126 297.637085 105.758301 C 301.10376 102.533325 301.516235 98.716675 303.387085 94.637451 C 307.612061 85.445801 315.932922 76.262451 315.116272 65.508301 C 314.770447 60.945801 305.257935 57.50415 303.337097 56.87915 C 293.253723 53.5625 275.112061 53.291626 264.178772 56.05835 C 258.72876 57.43335 252.770447 61.716675 247.062073 59.204224 C 242.72876 57.291626 238.91626 52.554199 236.10791 48.520874 C 228.424561 37.487549 220.062073 27.145874 208.932922 19.383301 C 201.85376 14.43335 195.153748 11.633301 188.349609 12.19165 C 153.741272 15.06665 125.137085 50.787476 123.012085 50.574951 C 121.378723 50.412476 107.17041 24.837524 98.22876 17.44165 C 95.224609 14.962524 91.399597 9.916626 88.095398 8.270874 C 84.562073 6.520874 60.878723 6.800049 58.928772 10.737549 C 57.474548 13.69165 56.466248 17.929199 55.649597 21.833374 C 51.862061 39.824951 60.332947 58.912476 71.753723 72.487549 C 74.85791 76.18335 84.487061 83.091675 84.399597 88.425049 C 84.307922 93.633301 79.274597 87.987549 77.870422 86.616699 C 74.878723 83.720825 72.341248 81.337524 67.837097 82.762451 C 63.407898 84.145874 19.687073 105.966675 10.457947 113.974976 C 7.912109 116.199951 5.507874 118.829224 4.441223 121.775024 C 1.557922 129.716675 11.020447 189.550049 12.424561 196 C 15.028748 207.987549 41.678711 256.908325 50.257935 267.625 C 59.991272 279.775024 92.382935 313.033325 98.22876 316.625 C 104.370422 320.37915 113.753723 324.074951 120.820435 318.945801 C 125.178772 315.795776 127.137085 308.866699 129.370422 304.116699 C 132.587097 297.237549 153.524597 246.295776 157.924561 242.141724 C 163.48291 236.883301 175.553772 236.966675 182.67041 236.62085 C 193.632935 236.087524 204.599609 236.908325 215.54541 237.37915 C 228.424561 237.925049 241.366272 238.108276 254.04541 240.625 C 261.557922 242.125 268.491272 244.949951 275.270447 247.195801 C 279.324585 248.550049 288.328735 249.229126 292.112061 247.608276 C 295.837097 246.016724 299.132935 242.041626 304.29541 240.491699 C 309.320435 238.979126 315.562073 238.6875 319.35791 236.104126 C 326.212097 231.44165 329.053772 215.412476 330.687073 207.866699 C 331.862061 202.462524 334.35791 193.258301 330.307922 188.595825 Z"/>
    <path id="Path-copy-5" fill="#1a1919" fill-rule="evenodd" stroke="none" d="M 140.673767 212.834961 C 138.32373 216.314209 143.19043 221.547485 146.015442 222.964111 C 145.465393 218.897461 142.88208 215.69751 140.673767 212.834961 M 162.994568 116.718384 C 161.790405 123.005859 177.732056 122.255859 177.777893 118.910034 C 177.827942 116.155884 168.94873 118.901611 164.907104 115.07251 C 164.161255 114.359985 163.13623 115.964111 162.994568 116.718384 M 178.873779 95.622559 C 177.19873 95.589111 169.31958 96.105835 169.427917 97.547485 C 169.557068 99.193359 178.227905 98.164185 179.423767 98.226685 C 186.911255 98.622559 186.26123 106.876709 191.473755 108.910034 C 189.557068 102.910034 185.665405 95.776611 178.873779 95.622559 M 62.361267 96.172485 C 56.052917 100.459961 48.748779 103.180786 42.640442 107.405884 C 36.998779 111.301636 31.494568 114.505859 29.62793 121.776611 C 28.94458 124.45166 29.536255 127.176636 28.673767 129.589111 C 28.244568 130.785034 27.494568 131.593384 26.894592 132.864136 C 23.715393 139.555786 23.107056 147.276611 20.044556 154.63501 C 19.165405 156.76416 16.019592 157.88501 14.56543 161.347534 C 13.415405 164.089111 14.140442 167.964111 16.76123 168.605835 C 21.552917 169.785034 21.38623 162.026611 23.88208 160.939209 C 28.023743 159.130859 29.598755 164.351685 32.919556 164.776611 C 37.25708 165.314209 42.148743 158.676636 44.69458 156.01001 C 47.94873 152.580811 52.227905 149.589111 55.094604 145.739136 C 58.50293 141.176636 60.644592 137.01416 63.311279 132.45166 C 64.611267 130.239136 67.715393 128.410034 68.515442 126.155884 C 71.186279 118.63916 64.032104 115.122559 65.50708 107.405884 C 66.023743 104.668335 67.494568 102.039185 68.790405 100.418335 C 70.282104 98.543335 74.352905 97.093384 75.086243 94.526611 C 76.015442 91.280884 74.677917 88.351685 71.807068 89.051636 C 68.890442 89.76001 64.94873 94.414185 62.361267 96.172485 M 167.098755 88.914185 C 167.932068 90.868286 172.732056 90.555786 175.177917 90.834961 C 179.157104 91.297485 187.465393 92.397461 187.911255 89.189209 C 188.619568 84.089111 177.19043 82.70166 172.986267 83.168335 C 170.586243 83.439209 165.419556 84.980835 167.098755 88.914185 M 129.857056 69.472534 C 131.807068 70.955811 133.648743 73.397461 135.607056 75.63501 C 137.519592 77.830811 139.027893 80.939209 140.811279 82.343384 C 141.748779 83.084961 143.732056 83.526611 144.652893 82.88916 C 148.023743 80.555786 142.44043 73.26001 141.219604 71.943359 C 139.769592 70.351685 136.94043 68.57251 135.061279 67.147461 C 132.969604 65.564209 129.998779 62.022461 126.840393 63.035034 C 122.57373 64.405884 128.75708 68.643311 129.857056 69.472534 M 281.157104 110.280884 C 292.777893 101.32666 302.077942 88.310059 303.469604 69.88501 C 304.032104 62.51416 301.561218 58.930786 294.707092 58.930786 C 293.244568 58.930786 290.857056 59.039185 291.019592 60.709961 C 291.269592 63.355835 297.157104 60.930786 297.31543 64.547485 C 297.50293 68.843384 284.077942 68.410034 278.69458 67.01416 C 276.165405 66.355835 268.244568 63.69751 269.244568 69.339111 C 269.994568 73.564209 282.540405 70.88501 288.411255 71.118286 C 290.211243 71.189209 292.227905 71.864136 292.38208 73.443359 C 292.790405 77.464233 286.240417 77.555786 286.773743 81.247559 C 287.06543 83.310059 291.598755 83.351685 292.244568 85.489136 C 293.365417 89.151611 289.586243 90.70166 288.411255 93.168335 C 287.661255 94.743286 287.590393 96.526611 287.044617 97.680786 C 285.732056 100.459961 282.365417 103.093384 280.057068 105.351685 C 277.802917 107.559937 274.00708 109.047485 273.62793 112.743286 C 276.648743 114.035034 279.202942 111.785034 281.157104 110.280884 M 65.50708 26.755859 C 64.669617 32.543335 64.81543 44.001709 65.782104 49.484985 C 66.07373 51.172485 69.086243 54.805786 70.157104 55.51001 C 71.523743 56.410034 75.311279 56.980835 76.598755 57.709961 C 79.677917 59.405884 82.369568 64.614136 84.12793 67.830811 C 85.236267 69.864136 85.94873 72.168335 87.81958 73.030884 C 90.148743 74.105835 98.582092 72.068359 99.19043 75.368286 C 99.623779 77.789185 97.286255 79.339111 95.62793 80.568359 C 94.419556 81.459961 91.327942 83.614136 92.477905 86.043335 C 93.294556 87.776611 96.394592 86.664185 97.682068 85.897461 C 99.802917 84.655884 101.69458 81.864136 102.202942 80.155884 C 104.26123 73.122559 99.673767 71.605835 96.036255 69.609985 C 92.19873 67.51001 89.26123 64.676636 87.13623 60.847534 C 85.311279 57.560059 81.182068 51.418335 83.161255 46.334961 C 84.561279 42.772461 88.711243 43.82666 91.244568 45.380859 C 93.894592 46.997559 101.840393 55.968384 100.282104 46.334961 C 99.88623 43.897461 97.75293 39.001709 96.177917 35.793335 C 93.273743 29.918335 86.098755 22.089111 79.336243 20.459961 C 77.598755 20.039185 74.807068 20.255859 73.994568 20.32251 C 70.211243 20.609985 66.07373 22.814209 65.50708 26.755859 M 153.81543 212.968384 C 153.707092 209.747559 152.990417 203.043335 156.01123 203.118286 C 158.494568 203.168335 158.07373 207.480835 158.611267 209.547485 C 159.123779 211.530884 160.657104 212.685059 161.207092 214.20166 C 162.590393 217.968384 162.973755 224.426636 167.786255 223.51001 C 171.119568 222.876709 169.623779 217.522461 172.986267 217.07666 C 178.394592 216.372559 179.782104 225.589111 186.952942 223.647461 C 188.677917 223.180786 189.769592 220.493286 191.88623 220.372559 C 194.25293 220.214111 198.19873 222.768311 201.061279 223.647461 C 204.744568 224.793335 208.994568 223.834961 212.423767 224.734985 C 214.598755 225.314209 216.027893 227.105835 218.036255 227.209961 C 219.473755 227.289185 221.37793 226.343384 223.236267 226.655884 C 226.794556 227.276611 228.148743 230.722534 231.865417 229.397461 C 235.969604 227.943359 230.207092 216.893311 235.427917 217.07666 C 237.115417 217.13916 239.140442 221.155884 240.219604 222.418335 C 241.832092 224.297485 243.973755 225.897461 245.69458 227.07666 C 253.236267 232.218384 270.50708 235.209961 279.236267 228.859985 C 281.56543 227.155884 282.740417 223.605835 285.123718 222.005859 C 289.798767 218.868286 294.398743 217.380859 296.219604 211.880859 C 297.548767 207.843384 295.794556 204.718384 293.344604 202.976685 C 287.219604 198.626709 276.732056 196.722534 272.527893 189.830811 C 271.548767 188.214111 270.844604 185.026611 272.390442 183.939209 C 274.711243 182.32251 278.311279 185.772461 280.607056 187.647461 C 287.677917 193.368286 296.244568 198.272461 302.098755 204.343384 C 303.402893 205.685059 303.898743 207.601685 304.844604 209.130859 C 305.586243 210.32666 308.452881 215.089111 309.773743 215.426636 C 314.69043 216.739136 312.865417 207.343384 315.936279 205.297485 C 318.211243 203.797485 321.786255 205.855835 323.465393 203.664185 C 326.157104 200.164185 321.87793 194.105835 320.31543 192.160034 C 318.369568 189.718384 314.298767 187.255859 310.865417 185.443359 C 303.515442 181.564209 296.923767 178.32251 292.111267 172.035034 C 287.644592 166.193359 283.898743 158.622559 280.057068 151.901611 C 277.023743 146.57666 273.62793 142.093384 270.75293 137.114136 C 269.669556 135.239136 269.465393 133.318359 268.557068 131.226685 C 267.977905 129.872559 266.75293 128.935059 266.232117 127.668335 C 265.152893 125.01416 264.44873 121.935059 263.352905 119.176636 C 262.186279 116.20166 261.13208 113.318359 260.75293 110.280884 C 259.811279 102.797485 262.777893 89.893311 259.661255 83.847534 C 258.219604 81.064209 254.848755 78.730835 251.994568 76.051636 C 246.69458 71.059937 242.32373 64.843384 236.932068 60.160034 C 234.227905 57.82666 230.590393 55.293335 228.44043 52.768311 C 225.69043 49.535034 223.219604 44.968384 220.907104 40.864136 C 218.673767 36.880859 216.923767 31.589111 213.927917 28.401611 C 211.919617 26.26001 208.736267 25.95166 205.57373 24.839111 C 199.419556 22.660034 191.211243 18.414185 183.119568 19.226685 C 179.477905 19.589111 175.290405 23.064209 171.607056 24.839111 C 165.344604 27.876709 158.157104 32.355835 154.090393 38.393311 C 152.332092 41.018311 148.469604 45.830811 149.57373 49.205811 C 151.215393 54.226685 160.290405 50.01001 164.769592 51.672485 C 166.19873 52.20166 167.140442 53.897461 168.19873 54.689209 C 173.107056 58.359985 182.365417 61.82251 185.44873 67.285034 C 186.69458 69.489136 187.182068 71.618286 188.732056 73.310059 C 191.62793 76.459961 195.777893 75.472534 199.548767 77.147461 C 205.719604 79.855835 210.336243 87.480835 212.836243 93.851685 C 215.057068 99.522461 219.932068 107.051636 220.361267 113.968384 C 220.623779 118.097534 220.25293 121.780884 220.50708 125.480835 C 220.923767 131.76416 224.161255 135.830811 225.294556 141.080811 C 226.732056 147.76416 224.544556 153.880859 225.702942 161.489136 C 226.390442 165.959961 230.75293 165.368286 233.919556 167.234985 C 235.807068 168.351685 238.119568 170.959961 239.94458 172.57666 C 242.332092 174.70166 245.032104 176.876709 245.423767 179.972534 C 246.102905 185.364136 246.265442 197.101685 245.148743 202.155884 C 244.286255 206.018311 240.63208 211.739136 237.748779 212.70166 C 233.144592 214.214111 233.111267 210.401611 232.548767 207.080811 C 232.107056 204.480835 230.469604 201.551636 230.082092 198.455811 C 229.223755 191.526611 229.00708 185.468384 222.423767 184.76416 C 214.486267 183.922485 205.719604 186.376709 200.094604 184.080811 C 192.75708 181.07666 192.498779 170.668335 184.215393 168.876709 C 174.990417 166.905884 163.865417 168.147461 156.69458 164.222534 C 149.857056 160.489136 149.207092 150.605835 143.548767 145.472534 C 140.94458 143.105835 137.519592 143.535034 133.969604 141.222534 C 132.173767 140.055786 130.990417 138.047485 129.998779 136.289185 C 128.857056 134.285034 128.140442 130.926636 126.294556 129.859985 C 122.411255 127.618286 116.07373 130.280884 113.427917 130.814209 C 111.361267 131.239136 108.144592 130.593384 106.302917 131.226685 C 100.50708 133.243286 96.777893 144.001709 94.26123 152.318359 C 93.25293 155.626709 93.836243 160.359985 93.432068 163.672485 C 93.019592 167.105835 90.227905 169.422485 89.052917 171.614136 C 87.552917 174.439209 86.552917 181.310059 83.032104 182.301636 C 77.265442 183.922485 79.227905 175.905884 75.498779 175.872559 C 73.615417 175.843384 72.052917 179.82666 70.982056 181.751709 C 68.961243 185.364136 66.682068 187.055786 65.782104 190.789185 C 64.38623 196.518311 63.473755 200.968384 61.119568 205.297485 C 60.373779 206.693359 59.040405 207.530884 58.248779 208.859985 C 57.648743 209.868286 57.37793 211.609985 56.744568 212.422485 C 55.25708 214.301636 53.452942 214.780884 52.498718 217.222534 C 51.19458 220.530884 49.26123 226.755859 50.169556 231.180786 C 50.561218 233.064209 51.81543 235.693359 54.00293 235.560059 C 58.50293 235.297485 57.798767 223.672485 59.19873 219.818359 C 60.75293 215.597534 63.827942 212.714111 65.640442 209.818359 C 66.615417 208.280884 66.727905 205.651611 69.477905 205.843384 C 72.498779 206.068359 71.665405 210.468384 71.665405 214.064209 C 71.665405 222.209961 70.273743 225.726685 68.240417 231.180786 C 67.00708 234.493286 66.344604 237.693359 65.369568 241.310059 C 64.719604 243.714111 62.832092 245.689209 62.082092 248.022461 C 59.494568 256.035034 62.63623 266.493286 66.87793 270.609985 C 68.873718 272.568359 71.44043 273.551636 73.44458 275.268311 C 75.390442 276.935059 77.207092 278.943359 78.786255 281.160034 C 82.652893 286.564209 87.086243 290.88916 91.107056 295.939209 C 93.357056 298.76416 96.836243 301.439209 99.457092 304.568359 C 102.027893 307.630859 105.457092 313.976685 109.31543 314.980835 C 116.365417 316.776611 116.048767 306.214111 117.807068 300.605835 C 118.590393 298.109985 121.023743 296.580811 122.048767 294.851685 C 122.790405 293.597534 122.686279 291.193359 123.286255 289.505859 C 123.844604 287.943359 125.223755 287.051636 125.88623 285.814209 C 126.994568 283.743286 127.865417 280.435059 129.173767 277.739136 C 130.548767 274.88916 132.161255 272.693359 132.869568 269.930786 C 134.452942 263.768311 129.490417 264.439209 126.294556 261.439209 C 129.286255 258.70166 137.161255 258.368286 135.061279 251.989136 C 133.736267 247.968384 128.932068 244.855835 125.611267 241.722534 C 122.115417 238.422485 117.236267 235.693359 117.25708 230.905884 C 126.711243 233.193359 134.452942 240.268311 144.232056 242.685059 C 137.927917 234.518311 126.202942 229.722534 118.223755 221.726685 C 116.544556 220.060059 115.607056 217.530884 113.977905 215.57666 C 112.423767 213.705811 110.44873 212.393311 109.31543 210.501709 C 108.019592 208.339111 106.436279 205.13916 105.490417 202.976685 C 105.169556 202.26001 101.911255 194.930786 104.248779 194.214111 C 106.436279 193.539185 109.177917 198.614136 110.277893 200.101685 C 112.13623 202.605835 114.498779 204.493286 115.894592 206.539185 C 117.13623 208.351685 117.036255 212.26416 119.865417 212.01416 C 120.294556 210.234985 118.207092 209.055786 117.394592 207.63916 C 115.390442 204.07251 114.207092 199.314209 111.782104 195.305786 C 110.786255 193.651611 109.590393 191.57666 108.63623 189.422485 C 108.38208 188.82666 105.436279 183.57666 107.540405 182.847534 C 109.677917 182.109985 111.786255 186.001709 112.744568 187.501709 C 114.207092 189.814209 115.173767 192.051636 116.023743 194.080811 C 118.25293 199.314209 121.869568 201.293335 124.515442 205.435059 C 128.111267 211.047485 130.75708 216.785034 135.88208 220.776611 C 135.936279 217.472534 132.31958 213.614136 134.790405 210.230835 C 135.44043 209.334961 137.519592 209.32251 137.798767 208.314209 C 138.311279 206.459961 136.161255 204.359985 135.607056 203.118286 C 134.915405 201.518311 134.37793 199.230835 134.240417 196.95166 C 134.032104 193.57251 132.982056 184.26416 136.56543 184.489136 C 141.19043 184.785034 136.811279 196.964111 140.265442 197.359985 C 142.052917 197.57251 142.477905 194.69751 144.50708 194.893311 C 149.240417 195.372559 146.56958 206.76001 147.794556 211.468384 C 148.090393 212.593384 149.265442 214.047485 149.57373 214.880859 C 150.802917 218.226685 150.915405 222.739136 154.915405 222.82666 C 155.782104 219.630859 153.957092 216.868286 153.81543 212.968384 M 88.094604 8.268311 C 91.398743 9.914185 95.223755 14.964233 98.227905 17.439209 C 107.169556 24.834961 121.37793 50.414185 123.01123 50.57666 C 125.13623 50.789185 153.740417 15.068359 188.348755 12.189209 C 195.157104 11.630859 201.852905 14.434937 208.932068 19.380859 C 220.061218 27.147461 228.423767 37.489136 236.107056 48.518311 C 238.919556 52.555786 242.727905 57.293335 247.061279 59.205811 C 252.769592 61.714111 258.727905 57.430786 264.182068 56.060059 C 275.115417 53.289185 293.25708 53.564209 303.336243 56.876709 C 305.25708 57.505859 314.769592 60.943359 315.115417 65.51001 C 315.936279 76.26416 307.611267 85.44751 303.38623 94.63916 C 301.519592 98.718384 301.102905 102.535034 297.63623 105.76001 C 293.898743 109.230835 289.352905 112.07666 285.123718 114.930786 C 280.836243 117.830811 274.00708 119.851685 276.777893 128.489136 C 277.302917 130.114136 289.702881 155.964111 298.12793 165.660034 C 302.44873 170.63916 307.415405 175.055786 312.932068 178.664185 C 318.240417 182.130859 326.148743 183.797485 330.307068 188.597534 C 334.357117 193.26001 331.861267 202.464111 330.686279 207.868286 C 329.052917 215.410034 326.211243 231.443359 319.357056 236.105835 C 315.56543 238.689209 309.32373 238.976685 304.298767 240.493286 C 299.13208 242.043335 295.836243 246.018311 292.111267 247.609985 C 288.332092 249.226685 279.32373 248.547485 275.269592 247.19751 C 268.490417 244.95166 261.561279 242.122559 254.044556 240.626709 C 241.365417 238.105835 228.427917 237.922485 215.544556 237.380859 C 204.598755 236.905884 193.63208 236.089111 182.669556 236.622559 C 175.557068 236.968384 163.482056 236.880859 157.923767 242.13916 C 153.523743 246.293335 132.586243 297.239136 129.369568 304.114136 C 127.13623 308.868286 125.177917 315.797485 120.81958 318.94751 C 113.75708 324.07251 104.369568 320.380859 98.227905 316.622559 C 92.38623 313.035034 59.990417 279.772461 50.25708 267.622559 C 41.677917 256.905884 15.027893 207.989136 12.423767 196.001709 C 11.019592 189.551636 1.557068 129.718384 4.44043 121.776611 C 5.50708 118.830811 7.911255 116.20166 10.457092 113.972534 C 19.686218 105.968384 63.407104 84.147461 67.840393 82.76001 C 72.340393 81.339111 74.87793 83.722534 77.869568 86.618286 C 79.277893 87.989136 84.311218 93.63501 84.402893 88.426636 C 84.490417 83.089111 74.857056 76.180786 71.75293 72.484985 C 60.332092 58.914185 51.861267 39.82666 55.648743 21.830811 C 56.465393 17.930786 57.473755 13.693359 58.927917 10.739136 C 60.88208 6.801636 84.56543 6.518311 88.094604 8.268311"/>
    <path id="Path-copy-4" fill="#1a1919" fill-rule="evenodd" stroke="none" d="M 217.486694 56.741699 C 211.869995 56.87915 210.911682 51.008301 207.353333 47.974976 C 204.89917 45.87915 200.77417 44.849976 197.224182 43.591675 C 194.257507 42.554199 188.311646 41.375 188.453308 37.841675 C 188.603333 34.416626 195.307495 34.645874 199.549194 34.966675 C 203.857483 35.300049 211.815857 37.295776 213.382507 39.625 C 215.328308 42.537476 214.828308 47.449951 215.982483 51.262451 C 216.619995 53.37085 218.27417 54.487549 217.486694 56.741699"/>
    <path id="Path-copy-3" fill="#1a1919" fill-rule="evenodd" stroke="none" d="M 266.780396 169.15625 C 251.980408 156.5271 239.876221 141.197876 233.780396 119.860474 C 233.755432 119.747925 233.838745 119.735474 233.922058 119.727051 C 237.263733 120.556274 239.472107 126.002075 242.409607 128.764526 C 243.267944 129.572876 244.61377 130.1604 245.147095 130.814575 C 246.022095 131.9021 246.24292 133.5979 246.92627 134.793701 C 248.313721 137.210449 250.776245 138.831299 252.542908 141.081299 C 258.87207 149.168701 261.534607 159.952026 266.780396 169.15625"/>
    <path id="Path-copy-2" fill="#1a1919" fill-rule="evenodd" stroke="none" d="M 128.897888 207.765015 C 125.356262 203.30249 124.456238 194.627441 122.047913 187.773315 C 120.893738 184.464966 118.447937 179.04834 121.09375 175.589966 C 126.131226 174.80249 124.735413 185.623291 125.481262 190.377441 C 126.356262 196.023315 128.860413 200.935791 129.585388 205.023315 C 129.764587 206.05249 129.860413 207.202515 128.897888 207.765015"/>
    <path id="Path-copy" fill="#1a1919" fill-rule="evenodd" stroke="none" d="M 276.497498 199.82251 C 278.930847 199.364136 283.376648 201.814209 286.222473 203.118286 C 291.030823 205.297485 296.401672 212.993286 285.814148 212.151611 C 283.710022 211.980835 281.480835 210.801636 279.239197 210.230835 C 277.210022 209.722534 273.522522 209.405884 272.668335 208.314209 C 270.380859 205.397461 274.530823 200.20166 276.497498 199.82251"/>
</svg>
