<?xml version="1.0" encoding="utf-8"?>
<!DOCTYPE svg PUBLIC "-//W3C//DTD SVG 1.0//EN" "http://www.w3.org/TR/2001/REC-SVG-20010904/DTD/svg10.dtd">
<svg version="1.0" xmlns="http://www.w3.org/2000/svg" width="967px" height="643px" viewBox="0 0 967 643" preserveAspectRatio="xMidYMid meet">
 <g fill="#010000">
  <path d="M175.5 605.9 c-12.3 -1.3 -19.9 -5 -27.5 -13.6 -9.2 -10.5 -10.2 -18.2 -9.8 -77.8 l0.3 -47 18 0 18 0 0.5 48.1 c0.5 45.6 0.6 48.3 2.4 50.3 2.8 3.1 9.5 2.9 13 -0.4 l2.6 -2.4 0 -46.9 c0 -38.8 0.2 -47.2 1.4 -48.1 0.9 -0.8 5.7 -1.1 14.7 -0.9 l13.4 0.3 0.3 50 c0.2 42.7 0 51.1 -1.3 57.2 -1.7 7.6 -5.2 15.2 -8.8 19.1 -3 3.3 -12.2 9.2 -16 10.3 -5.5 1.6 -14.9 2.4 -21.2 1.8z m15.1 -8.5 c10.9 -3.1 19.3 -11.4 23.1 -22.7 1.5 -4.6 1.8 -11 2.1 -52.4 l0.3 -47.3 -7.5 0 -7.5 0 -0.3 45.4 c-0.3 44.1 -0.4 45.5 -2.4 48.2 -4.1 5.6 -7 6.9 -14.8 6.9 -8.5 0 -11.9 -1.7 -14.4 -7.3 -1.4 -3.2 -1.7 -9.6 -2 -48.4 l-0.4 -44.8 -10.9 0 -10.9 0 0 40.3 c0 43 0.8 55 4.2 63.1 6.4 15.4 24.7 23.9 41.4 19z"/>
  <path d="M451.6 605.9 c-19.1 -2 -34.8 -18.9 -39.1 -42.1 l-0.7 -3.6 15.6 -3.7 c8.6 -2 15.6 -3.8 15.6 -4.1 0 -0.2 -2.3 -1.5 -5 -2.9 -7.4 -3.8 -12.3 -8.7 -15.8 -15.7 -9 -18.7 -5.9 -42.4 7.6 -56.7 15.6 -16.6 47.7 -15.4 61.3 2.4 4.5 6 9.9 17.2 10.2 21.1 0.2 2.7 -0.3 3 -12.3 8 -6.9 2.9 -13.4 5.3 -14.6 5.3 -1.5 0.1 -2.6 -1 -3.9 -4 -2.5 -5.5 -6.4 -8.1 -11.6 -7.7 -4.8 0.3 -7.1 2.7 -5.3 5.6 0.6 1 6.6 3.6 14.5 6.3 17.6 6 18.1 6.2 23 10.6 8.7 7.9 13 18.6 13.2 32.8 0.2 15.4 -4 26.9 -13.1 36 -10.2 10.2 -22.7 14.1 -39.6 12.4z m22.4 -10.5 c7.9 -3.5 17 -13.1 20.1 -21.3 4 -10.6 3.5 -23.8 -1.3 -33.4 -5 -10 -12 -14.6 -31.4 -20.5 -5.5 -1.8 -11.3 -4.1 -12.7 -5.3 -2.5 -1.8 -2.7 -2.7 -2.7 -8.8 0 -6 0.3 -7 2.6 -9.2 2.3 -2.1 3.5 -2.4 10.2 -2.4 8.8 0 13.1 1.8 15.9 6.5 0.9 1.6 2.2 3 2.7 3 2.1 0 14.6 -5.3 14.6 -6.2 0 -2.2 -4.6 -9.5 -8.8 -14 -14.5 -15.5 -38.2 -14.1 -50.6 2.9 -7.2 9.8 -9.8 25.3 -6.1 36.3 4.6 14 11.4 19.4 32.4 26.1 5.7 1.8 11.7 4.3 13.2 5.7 2.6 2.2 2.9 3 2.9 8.8 0 8.5 -2.2 10.9 -10.5 11.9 -11.4 1.5 -21 -2.9 -23.7 -10.7 -0.6 -1.5 -1.4 -2.8 -2 -2.8 -1.3 0 -17.2 4.1 -17.6 4.5 -0.2 0.2 1.4 4.1 3.6 8.7 5.7 12 12.7 18.5 24.7 22.7 5.3 1.9 17.6 0.6 24.5 -2.5z m-7.9 -28.4 c4.8 -2.6 0.4 -8 -8.4 -10.1 -2.8 -0.7 -6.7 -1.8 -8.6 -2.6 -1.8 -0.8 -3.6 -1.2 -3.8 -0.9 -1.1 1.1 4.7 11.2 7.4 12.8 3.1 1.9 10.4 2.4 13.4 0.8z"/>
  <path d="M643.3 605.8 c-17.5 -1.9 -32.8 -18.4 -39.5 -42.4 -1.9 -6.9 -2.2 -10.3 -2.2 -27.9 0 -19 0.2 -20.5 2.8 -29 5.6 -18.3 14.6 -30.9 26 -36.5 22.7 -11.2 47 -1.9 59 22.4 6.7 13.5 8 20.5 8 42.6 0 22.5 -1.4 29.4 -8.4 43.7 -9.9 20.1 -25.6 29.4 -45.7 27.1z m18.9 -10.2 c26.4 -12.5 37.2 -63.7 20.6 -97.6 -16.1 -32.9 -50.2 -33.4 -66.1 -0.9 -13 26.6 -10.8 64.9 5 85.9 11 14.7 26.1 19.4 40.5 12.6z"/>
  <path d="M642.3 575.6 c-7.5 -3.4 -10.3 -14 -10.3 -38.8 0.1 -32.7 4.8 -42.8 19.7 -41.6 4.2 0.4 6 1.1 8.3 3.3 5 4.8 6.2 10.7 6.7 32.1 0.7 26.8 -1.7 39.7 -8 43.9 -3.6 2.3 -12.4 2.9 -16.4 1.1z m12.9 -9.7 c2.9 -3.8 3.8 -8.9 4.4 -24.9 0.9 -22 -1.3 -33.8 -7 -37.5 -1.9 -1.2 -2.9 -1.3 -4.8 -0.4 -6 2.7 -8.3 12.1 -8.3 34.4 0 18.2 1.4 25.4 5.7 29.7 2.7 2.7 7.5 2 10 -1.3z"/>
  <path d="M908.7 605.9 c-18 -2 -31.2 -14.4 -37.6 -35.3 -3.3 -10.9 -4.2 -9.9 13.3 -14.2 l15.5 -3.7 -5.7 -3.4 c-8.3 -5 -12.6 -9.6 -16.3 -17.6 -2.8 -6 -3.3 -8.5 -3.7 -17 -0.8 -16 2.8 -26.9 12.3 -37.4 5.6 -6.3 12.5 -9.8 22.3 -11.4 17.4 -2.8 33 3.8 42.1 18 3.7 5.7 8.2 17.3 7.3 18.8 -0.8 1.3 -25.4 11.3 -27.7 11.3 -0.8 0 -2.4 -2 -3.5 -4.4 -2.6 -5.3 -6.9 -7.9 -12.5 -7.4 -3.6 0.3 -4 0.6 -4.3 3.2 -0.2 1.6 0.2 3.3 1 3.7 0.7 0.5 6.8 2.7 13.6 4.9 6.7 2.2 14.4 5.1 17 6.4 12.2 6.2 19.2 20.4 19.2 38.7 0 19.7 -9.2 35.4 -25.3 43 -5.4 2.5 -8 3.1 -17.7 4.3 -1.4 0.1 -5.6 -0.1 -9.3 -0.5z m22.8 -10.8 c22.7 -11.2 29.3 -42.5 13 -61.9 -3.9 -4.6 -7.7 -6.6 -22.5 -11.6 -16.6 -5.7 -17.6 -6.2 -19.1 -9.7 -1.8 -4.4 -0.6 -12.9 2 -15 2.8 -2.3 9.8 -3.3 15.8 -2.4 3.8 0.5 5.6 1.6 9.2 5.2 l4.5 4.5 7.1 -2.8 c3.8 -1.5 7.2 -2.8 7.3 -3 1.2 -0.9 -6.9 -13.2 -11 -16.9 -13.1 -11.8 -33.4 -11.1 -45.2 1.5 -11.2 12 -14.4 29.2 -8.1 43.6 5 11.3 12.4 16.5 32.6 23 9.5 3.1 11.3 4 13 6.7 2.2 3.7 2.5 10.9 0.6 14.7 -2.4 4.9 -18.2 6.4 -25.7 2.5 -3 -1.5 -8 -7.3 -8 -9.3 0 -0.6 -0.4 -1.3 -0.9 -1.6 -0.9 -0.6 -16.9 2.8 -17.8 3.7 -0.2 0.3 0.8 3.5 2.3 7.2 4.7 11.8 12.7 19.8 23.7 23.7 7.8 2.8 18.9 1.9 27.2 -2.1z m-8.1 -28.7 c0.9 -0.8 1.6 -2 1.6 -2.5 0 -2.3 -4.6 -5 -12.7 -7.5 -4.8 -1.4 -9.2 -2.8 -9.6 -3.1 -1.3 -0.8 0.4 5 2.5 8.5 1.1 1.8 3.2 3.9 4.6 4.7 3.7 2 11.6 1.9 13.6 -0.1z"/>
  <path d="M235.1 603.6 c-0.8 -0.9 -1 -19.8 -0.9 -68.7 l0.3 -67.4 17.5 0 17.5 0 0.3 48.7 0.2 48.8 18.8 0.2 18.7 0.3 0.3 18.9 c0.2 14.5 -0.1 19.1 -1 19.8 -0.7 0.4 -16.9 0.8 -35.9 0.8 -28 0 -34.9 -0.3 -35.8 -1.4z m65.9 -19.1 l0 -12.5 -18.7 -0.2 -18.8 -0.3 -0.3 -48.2 -0.2 -48.3 -11 0 -11 0 0 58.8 c0 32.3 0.3 59.7 0.6 61 l0.6 2.2 29.4 0 29.4 0 0 -12.5z"/>
  <path d="M319.3 604.2 c-1 -0.6 -1.3 -12 -1.5 -49.3 l-0.3 -48.4 -9.5 -0.5 -9.5 -0.5 0 -19 0 -19 36.5 0 36.5 0 0 19 0 19 -9.7 0.3 -9.8 0.3 0 48.8 c0 43.7 -0.2 49 -1.6 49.5 -2.3 0.9 -29.7 0.7 -31.1 -0.2z m25.9 -55.9 l0.3 -48.8 9.5 -0.5 9.5 -0.5 0.3 -11.7 0.3 -11.8 -30.1 0 -30 0 0 12 0 11.9 9.8 0.3 9.7 0.3 0.3 48.8 0.2 48.7 10 0 10 0 0.2 -48.7z"/>
  <path d="M376.2 604.2 c-1 -0.7 -1.2 -15.1 -1 -68.8 l0.3 -67.9 17.5 0 17.5 0 0.3 67.9 c0.2 53.7 0 68.1 -1 68.8 -0.7 0.4 -8.3 0.8 -16.8 0.8 -8.5 0 -16.1 -0.4 -16.8 -0.8z m27.8 -68.2 l0 -61 -11 0 -11 0 0 61 0 61 11 0 11 0 0 -61z"/>
  <path d="M512.2 604.2 c-1 -0.7 -1.2 -15.1 -1 -68.8 l0.3 -67.9 27.5 0 c23.4 0 28.4 0.3 33.2 1.8 11.1 3.4 19.6 12.6 23.9 25.9 3.2 9.9 3.2 25.2 0 34.8 -4.3 12.4 -11.8 21.2 -21 24.6 -2.8 1.1 -9.1 2 -16.1 2.3 l-11.5 0.6 -0.5 23.5 -0.5 23.5 -16.5 0.2 c-9.1 0.2 -17.1 -0.1 -17.8 -0.5z m28 -30.4 l0.3 -23.3 13 -0.5 c11.6 -0.5 13.6 -0.8 18.7 -3.3 25.1 -12.3 24.8 -57.4 -0.5 -68.8 -4.9 -2.3 -6.4 -2.4 -29.4 -2.7 l-24.3 -0.3 0 61 0 61.1 11 0 11 0 0.2 -23.2z"/>
  <path d="M540.2 513.3 l0.3 -15.8 10.6 0 c12 0 15 1 17.4 6 1.9 4.2 2 14.7 0 18.9 -2.6 5.4 -5.9 6.6 -17.9 6.6 l-10.7 0 0.3 -15.7z m17.5 7.7 c4.6 -1.7 6.6 -7.6 4.2 -12.3 -1.7 -3.2 -2.8 -3.7 -9.1 -3.7 l-5.8 0 0 8.5 0 8.5 3.9 0 c2.1 0 5.2 -0.5 6.8 -1z"/>
  <path d="M707.2 604.2 c-1 -0.7 -1.2 -15.1 -1 -68.8 l0.3 -67.9 26.5 -0.3 c14.6 -0.1 29.4 0.2 33 0.7 13.2 2.1 23 10 28.1 22.8 2.1 5.1 2.4 7.4 2.4 19.3 -0.1 16.8 -1.9 22.4 -10.2 30.9 l-5.4 5.6 8.5 28 c6 20.1 8.1 28.3 7.4 29.2 -1.2 1.5 -34.3 1.9 -36.5 0.5 -0.6 -0.4 -4.2 -11.5 -8 -24.7 -5.3 -18.7 -7.2 -24.1 -8.5 -24.3 -1.7 -0.3 -1.8 1.4 -1.8 24.1 0 21.4 -0.2 24.6 -1.6 25.1 -2.3 0.9 -31.7 0.7 -33.2 -0.2z m27.8 -31.2 c0 -27.3 -0.4 -26 8.9 -26 3.6 0 5.6 0.5 6.9 1.8 0.9 1 4.5 11.8 8.2 25 l6.5 23.2 11.2 0 11.2 0 -1.5 -5.1 c-0.9 -2.9 -4.2 -14 -7.5 -24.7 -3.2 -10.7 -5.9 -20.7 -5.9 -22.3 0 -2.3 1.5 -4.4 6.4 -9.2 7.6 -7.4 10 -13.6 10.1 -25.7 0 -14.2 -6 -25.7 -16.5 -31.5 l-5.5 -3 -27.2 -0.3 -27.3 -0.3 0 61 0 61.1 11 0 11 0 0 -24z"/>
  <path d="M735.4 525.7 c-0.2 -0.7 -0.3 -7.8 -0.2 -15.7 l0.3 -14.5 8.5 -0.3 c12.4 -0.5 16.8 0.4 20.2 4 2.6 2.8 2.8 3.6 2.8 11 0 9.6 -1.6 13 -7.2 15.3 -5 2 -23.6 2.1 -24.4 0.2z m22.6 -8.9 c2.5 -2.7 2.7 -8.8 0.3 -11.7 -1.4 -1.7 -3.3 -2.3 -9 -2.8 l-7.3 -0.6 0 8.7 0 8.6 7 0 c5.8 0 7.2 -0.3 9 -2.2z"/>
  <path d="M820.2 603.8 c-0.9 -0.9 -1.2 -13.3 -1.2 -49.5 l0 -48.2 -9.7 -0.3 -9.8 -0.3 -0.3 -18.1 c-0.2 -14.5 0 -18.3 1.1 -19.3 1.1 -0.8 11.2 -1.1 36.8 -0.9 l35.4 0.3 0.3 19.3 0.2 19.2 -9.5 0 -9.5 0 0 48.3 c0 36.2 -0.3 48.6 -1.2 49.5 -0.8 0.8 -5.9 1.2 -16.3 1.2 -10.4 0 -15.5 -0.4 -16.3 -1.2z m25.8 -54.2 c0 -26.1 0.3 -48.1 0.6 -49 0.5 -1.3 2.4 -1.6 10 -1.6 l9.4 0 0 -12 0 -12 -29.5 0 -29.5 0 0 12 0 12 9.5 0 9.5 0 0 49 0 49 10 0 10 0 0 -47.4z"/>
  <path d="M11 535.5 l0 -65.5 17.5 0 c15.8 0 17.6 0.2 18.2 1.8 0.3 0.9 2.3 4.2 4.3 7.2 8.2 12.5 12.8 19.7 15 23.7 1.3 2.3 3 4.5 3.8 4.8 1.8 0.7 4.9 -2 6.9 -6 1.4 -2.8 5.2 -8.8 14.3 -22.5 2 -3 4 -6.3 4.3 -7.2 0.6 -1.6 2.4 -1.8 17.7 -1.8 l17 0 0 65.5 0 65.5 -18 0 -18.1 0 0.1 -30.2 c0 -16.7 0.1 -31.3 0 -32.5 0 -2.7 -2.8 -3.1 -3.7 -0.5 -0.3 0.9 -2.1 3.4 -4 5.5 -1.8 2 -3.3 4.2 -3.3 4.9 0 1.2 -11.2 18.6 -12 18.7 -0.6 0 -10 -14.9 -12.3 -19.5 -0.9 -1.7 -2.3 -3.7 -3.2 -4.4 -1 -0.8 -2.1 -2.5 -2.6 -3.7 -1.1 -2.9 -3.8 -4.1 -5 -2.2 -0.5 0.8 -0.8 15.4 -0.7 32.7 l0.3 31.2 -18.2 0 -18.3 0 0 -65.5z m31 22.5 l0 -37 3.8 0.1 c3.5 0 4 0.4 8.2 7.1 4.9 7.8 13.8 21.5 15.8 24.5 1.4 2.1 0.6 3 8.6 -9.5 6.5 -10.2 10.7 -16.4 12.3 -18 0.7 -0.7 1.3 -1.8 1.3 -2.3 0 -0.5 1.8 -0.9 4 -0.9 l4 0 0 36.5 0 36.5 12.5 0 12.5 0 0 -59.5 0 -59.5 -12 0 -12 0 -7.4 11.3 c-4 6.3 -7.5 11.8 -7.7 12.3 -0.2 0.5 -2.8 4.6 -5.8 9.2 -5 7.5 -5.7 8.2 -8.7 8.2 -2.4 0 -3.8 -0.8 -5.4 -2.7 -2.2 -2.9 -12.1 -18.1 -20 -31 l-4.5 -7.2 -11.6 -0.1 c-9.8 0 -11.8 0.3 -12.3 1.6 -0.8 2.1 -0.8 115.9 0.1 116.7 0.3 0.4 6 0.7 12.5 0.7 l11.8 0 0 -37z"/>
  <path d="M456.5 444.1 c-7.9 -0.9 -21.8 -6.7 -28.6 -12.1 -9.1 -7.2 -15.1 -15.1 -18.3 -24.3 -1.2 -3.4 -2.6 -6.9 -3.1 -7.7 -0.6 -0.9 -1.1 -15.1 -1.3 -33.2 -0.4 -31.6 -0.4 -31.7 -2.5 -32 l-2.2 -0.3 -0.3 -64 c-0.1 -35.2 0 -65.5 0.3 -67.2 0.5 -2.9 1 -3.3 3.8 -3.3 2.9 0.1 3.6 0.8 7.6 7.3 6.1 10 11.8 19.2 16 25.9 2 3.1 6.4 10.3 9.9 16 3.4 5.7 6.7 11 7.2 11.8 0.5 0.8 5.2 8.3 10.3 16.7 l9.3 15.2 12 -19.2 c6.5 -10.5 12.1 -19.6 12.3 -20.2 0.2 -0.5 1.6 -2.8 3.1 -5 1.5 -2.2 4.6 -7.1 7 -11 2.4 -3.8 5.7 -9.2 7.5 -12 4.6 -7.1 8.9 -14.2 12.5 -20.3 2.9 -5.1 3.3 -5.3 6.8 -5 l3.7 0.3 0.5 92.5 0.5 92.5 38.3 0.3 38.2 0.2 0 -144.8 0 -144.8 3.3 -1.2 c4.3 -1.5 53 -1.6 64.2 -0.1 12.6 1.7 22.4 4.7 29.2 9.1 13.5 8.7 22 20.6 25.3 35.5 1.9 8.4 2 13.9 2 129.5 0 135.8 0.2 131 -7.1 144.3 -3.6 6.5 -9.7 13.7 -16.5 19.4 -1.6 1.4 -7.6 4.5 -13.4 7 l-10.5 4.6 -110.5 0.1 c-60.8 0.1 -113.2 -0.2 -116.5 -0.5z"/>
  <path d="M255.5 334 c-1.1 -0.5 -5.7 -2.2 -10.2 -3.9 -14.7 -5.5 -25.2 -14.9 -32.2 -28.7 -2.7 -5.3 -4.4 -10.3 -5.1 -14.9 -0.6 -4.4 -1 -49.3 -0.9 -120 0 -124.2 -0.3 -119.1 6.2 -132.1 6.4 -12.9 21.6 -25.7 34.9 -29.4 6.8 -1.9 10.5 -2 63.3 -2.1 30.8 -0.1 54.2 -0.5 52 -0.9 -2.2 -0.4 24.9 -0.8 60.3 -0.9 42.2 -0.1 64.2 0.2 64.2 0.9 0 0.6 1.9 1 4.3 1 15.3 0 35.9 13 44.7 28.4 6.3 11.1 7.2 15.7 7.7 40.8 0.5 21.1 0.7 22.8 2.4 23.3 2.4 0.8 2.3 2.2 -0.4 6.1 -1.2 1.7 -3.9 5.5 -5.9 8.5 -4.5 6.5 -15.1 21.7 -23.3 33.4 -2 2.8 -5.5 7.9 -8 11.5 -2.5 3.6 -6 8.8 -8 11.5 -1.9 2.8 -4.6 6.6 -5.9 8.5 -1.3 1.9 -5 7.1 -8.1 11.5 -3.1 4.4 -7.5 10.8 -9.8 14.2 -4.1 6.1 -4.3 6.3 -8.7 6.3 -3.7 0 -4.8 -0.4 -6 -2.4 -1.7 -2.7 -7.5 -11.1 -18.4 -26.6 -4.1 -5.8 -10.9 -15.4 -15 -21.5 -4.2 -6 -11.3 -16.2 -15.7 -22.5 -4.4 -6.3 -9.6 -13.7 -11.4 -16.5 -1.9 -2.7 -5.5 -7.9 -8 -11.5 -2.6 -3.6 -5.6 -8 -6.8 -9.7 l-2.2 -3.3 -24 0 c-17.4 0 -24.4 0.3 -25.3 1.2 -0.9 0.9 -1.2 29.2 -1.2 121 l0 119.8 -38.7 -0.1 c-21.4 0 -39.7 -0.4 -40.8 -0.9z m67.5 -128.4 c0 -66.8 0.3 -122.1 0.6 -123 0.5 -1.4 4.6 -1.6 34.9 -1.6 31.2 0 34.5 0.2 36.4 1.8 1.9 1.5 6.9 8.3 21.5 29.7 1.9 2.8 6.5 9.4 10.3 14.7 6 8.5 12.3 17.7 25.3 36.4 11.7 17 16.4 23.4 17.1 23.4 0.5 0 2.4 -2.4 4.3 -5.2 3.4 -5.2 7.7 -11.4 14.7 -21.3 2 -2.7 6.2 -8.8 9.4 -13.5 3.2 -4.7 10.6 -15.2 16.3 -23.5 5.8 -8.2 13.4 -19.1 16.9 -24.2 l6.3 -9.1 0 -17.4 c0 -19 -1.3 -26 -6.5 -35.7 -3.7 -6.6 -12.6 -15.4 -20.5 -20.1 -13 -7.8 -6.3 -7.4 -128.5 -7.8 -111.4 -0.3 -116.2 -0.2 -129.5 3.5 -11.9 3.3 -25.5 14.5 -31.1 25.4 -6.9 13.8 -6.3 2.7 -6.7 125.9 -0.1 67.1 0.1 113.9 0.7 117.6 2.6 17.1 17.4 35.6 33.1 41.5 8.4 3.2 14.4 3.6 45.8 3.8 l29.2 0.1 0 -121.4z"/>
 </g>
 <g fill="#4f0002">
  <path d="M14.7 597.3 c-0.4 -0.3 -0.7 -1.6 -0.7 -2.8 0 -2.2 0.2 -2.2 12.3 -1.7 10.5 0.4 12.5 0.2 13.9 -1.2 3 -2.9 4.8 -2 4.8 2.4 l0 4 -14.8 0 c-8.2 0 -15.2 -0.3 -15.5 -0.7z"/>
  <path d="M97 595.2 l0 -2.9 13 0.5 c11.3 0.4 13 0.3 13.6 -1.2 0.3 -0.9 1.5 -1.6 2.5 -1.6 1.5 0 1.9 0.7 1.9 4 l0 4 -15.5 0 -15.5 0 0 -2.8z"/>
  <path d="M41 568 c0 -15.3 0.1 -16 2 -16 1.9 0 2 0.7 2 16 0 15.3 -0.1 16 -2 16 -1.9 0 -2 -0.7 -2 -16z"/>
  <path d="M124 530.5 l0 -53.5 -2.5 -0.6 c-1.4 -0.3 -2.5 -1.2 -2.5 -1.9 0 -1.6 3.7 -2.6 6.7 -1.9 l2.3 0.6 0 55.4 c0 54.7 0 55.4 -2 55.4 -2 0 -2 -0.7 -2 -53.5z"/>
  <path d="M97 565.5 c0 -14.8 0.1 -15.5 2 -15.5 1.9 0 2 0.7 2 15.5 0 14.8 -0.1 15.5 -2 15.5 -1.9 0 -2 -0.7 -2 -15.5z"/>
  <path d="M90 529.7 c0 -1.5 0.6 -4.5 1.2 -6.7 1.2 -3.7 1.5 -4 5 -4 3.8 0 3.8 0 3.8 4.1 0 2.3 -0.7 4.7 -1.5 5.5 -1.3 1.4 -1.5 1.3 -1.5 -1 0 -1.4 -0.4 -2.6 -1 -2.6 -0.5 0 -1 0.4 -1 0.8 0 0.5 -1.1 2.2 -2.5 3.8 l-2.5 2.9 0 -2.8z"/>
  <path d="M48.4 527.5 c-2.2 -4.1 -3.4 -4.5 -3.4 -0.9 0 2.3 -0.2 2.4 -1.5 1 -0.8 -0.8 -1.5 -3.2 -1.5 -5.5 0 -4 0.1 -4.1 3.3 -4.1 2.8 0 3.6 0.5 5 3.5 1.8 3.7 2.3 9.5 0.9 9.5 -0.5 0 -1.7 -1.6 -2.8 -3.5z"/>
  <path d="M259.8 329.3 c-2.9 -0.7 -2 -3 1.3 -3.7 6.2 -1.2 7.9 -0.8 7.9 1.9 0 2.2 -0.4 2.5 -3.7 2.4 -2.1 -0.1 -4.6 -0.3 -5.5 -0.6z"/>
  <path d="M244 325.6 c-7.1 -2.9 -16.2 -9.7 -19.4 -14.7 l-2.6 -3.9 3 0 c2 0 3 0.5 3 1.5 0 0.8 0.4 1.5 1 1.5 0.5 0 2.5 1.6 4.4 3.5 2 1.9 4 3.5 4.6 3.5 1.5 0 7.1 2.9 8.7 4.5 0.7 0.7 1.8 1.5 2.4 1.7 0.6 0.2 0.9 1.3 0.7 2.5 l-0.3 2.2 -5.5 -2.3z"/>
 </g>
 <g fill="#a00000">
  <path d="M168.5 600.6 c-10.5 -3.3 -18.6 -10.3 -22.3 -19.2 -1.2 -2.8 -2.6 -9.1 -3.2 -14 -1.3 -11.7 -1.3 -95.1 0 -95.6 0.5 -0.1 6.9 -0.2 14.2 0 l13.3 0.3 0 44.7 c0 39.5 0.2 45.1 1.7 48.4 4.3 9.6 16.2 9.8 23.2 0.4 2 -2.7 2.1 -4.1 2.4 -48.1 l0.3 -45.4 10.1 -0.3 c6.7 -0.2 10.2 0.1 10.5 0.8 0.2 0.6 0.3 23.3 0.1 50.5 -0.3 43.5 -0.6 50 -2.1 54.6 -3.8 11.3 -12.2 19.6 -23.1 22.7 -6.4 1.9 -19.5 2 -25.1 0.2z"/>
  <path d="M446.5 600.9 c-11.9 -4.2 -19.1 -10.8 -24.5 -22.4 -2.1 -4.4 -4 -9.6 -4.4 -11.5 l-0.6 -3.6 12.4 -3 12.5 -3.1 1.5 3.7 c3.4 8.4 12 13 20.8 11.1 5.1 -1.2 7.8 -4.1 7.8 -8.6 0 -4.8 -3.9 -7.6 -16.1 -11.4 -16.4 -5.2 -23.7 -9.6 -28.3 -17 -8.8 -14 -7.9 -37.8 2 -51.4 7.5 -10.3 16.7 -14.2 32.3 -13.5 11.6 0.5 17.1 2.9 24.4 10.7 4.3 4.6 10.7 15.8 10.7 18.7 0 1.1 -19.2 9.4 -21.5 9.4 -0.5 0 -2 -1.8 -3.3 -4 -6.1 -10.6 -23.2 -9.8 -23.2 1.1 0 5.1 2.9 7.2 15.4 11.1 14.6 4.5 21.5 7.8 25.8 12.6 7.6 8.4 10.3 17.6 9.6 32.3 -0.7 12.5 -3.1 18.8 -10.8 27.1 -8.4 9.3 -15 12.1 -29 12.5 -5.8 0.1 -11.8 -0.2 -13.5 -0.8z"/>
  <path d="M636.9 600.2 c-16 -6.5 -26.4 -22 -30.5 -45.4 -2.2 -12.3 -1.4 -33.9 1.5 -45.2 4.8 -18.4 15.5 -33 27.4 -37.4 8 -3 20.4 -3 28.4 0 12.2 4.5 24.2 21.3 27.9 38.8 3.3 16 2.9 37.1 -1.2 52.6 -3.9 15.2 -14.5 29.9 -25.2 35 -7.6 3.7 -21.2 4.4 -28.3 1.6z m18.9 -28.9 c6 -3.7 8.6 -17.5 7.9 -40.8 -0.5 -17.9 -2 -24.5 -6.4 -28.7 -3.9 -3.7 -7.4 -4.3 -11.8 -2.2 -7.2 3.4 -10.5 15 -10.5 37.2 0 21.6 3.2 32.7 10.3 35.7 3.5 1.5 6.9 1.1 10.5 -1.2z"/>
  <path d="M901.3 600.2 c-11.5 -4.1 -19.2 -12.1 -24.2 -25.2 -4.6 -11.9 -5 -11.3 8.2 -14.4 13.5 -3.2 13.4 -3.2 14.2 -0.3 1.1 3.6 5.3 8.6 8.8 10.3 3.9 2.1 12.3 2.2 16.2 0.3 4.2 -2 5.4 -6.7 2.8 -11.1 -1.7 -2.9 -3.2 -3.8 -13.8 -7.4 -20.7 -7 -27 -11.5 -32.1 -22.9 -5 -11.3 -4.3 -29 1.8 -40.8 3.1 -6.2 10.3 -13.2 16.1 -15.8 4 -1.7 7.6 -2.4 15.2 -2.7 12.2 -0.5 18.8 1.6 26.3 8.3 4.7 4.2 10.5 13.5 12.2 19.4 l0.8 2.9 -11.1 4.3 c-8.5 3.3 -11.2 4 -11.5 3 -1.1 -3.3 -7.6 -9.1 -11.4 -10.2 -8.2 -2.2 -16 3.1 -14.4 9.6 1 4.1 4 5.9 16.3 9.9 6.5 2.1 14.1 4.9 17 6.3 9.4 4.3 15.6 14.1 17.5 27.3 3.1 20.8 -5.5 39.1 -21.9 47.2 -5.8 2.8 -7.6 3.2 -17.1 3.5 -8.5 0.3 -11.7 0 -15.9 -1.5z"/>
  <path d="M238.7 599.4 c-1.1 -1.2 -0.8 -127.4 0.3 -127.4 0.5 -0.1 6.7 -0.1 13.8 -0.1 l12.7 0 0.5 48.3 0.5 48.3 18.8 0.3 18.7 0.2 0 15.5 0 15.5 -32.3 0 c-17.8 0 -32.7 -0.3 -33 -0.6z"/>
  <path d="M321.8 551.3 l-0.3 -48.8 -9.8 -0.3 -9.8 -0.3 0.3 -14.9 c0.2 -8.3 0.6 -15 1.1 -15 0.4 0 15.1 0 32.7 0 l32.1 0 -0.3 14.8 -0.3 14.7 -9.5 0.5 -9.5 0.5 -0.3 48.8 -0.2 48.7 -13 0 -13 0 -0.2 -48.7z"/>
  <path d="M379.2 535.9 l0.3 -64.1 13.5 0 13.5 0.1 0.3 64.1 0.2 64 -14 0 -14 0 0.2 -64.1z"/>
  <path d="M515 536.2 c0 -35.1 0.2 -64.1 0.4 -64.3 0.2 -0.2 12.5 -0.2 27.3 0.1 25.5 0.5 27.1 0.6 32 2.9 6.6 2.9 11.6 8.4 15.6 16.9 2.6 5.6 3.1 8 3.5 17 0.9 20.7 -5.3 34.4 -18.6 40.9 -5.1 2.5 -7.1 2.8 -18.7 3.3 l-13 0.5 -0.3 23.3 -0.2 23.2 -14 0 -14 0 0 -63.8z m46.1 -11.9 c5.4 -3.2 7.4 -11.3 4.4 -17.8 -2.2 -4.6 -5.4 -5.9 -14.3 -6 l-7.7 0 -0.3 12.8 -0.3 12.7 7.7 0 c5.4 0 8.4 -0.5 10.5 -1.7z"/>
  <path d="M710 536.1 c0 -35.2 0.3 -64.1 0.8 -64.3 0.4 -0.2 14 -0.1 30.2 0.2 l29.5 0.5 5.5 3 c11.3 6.2 16.5 17 16.5 34.5 0 15.3 -1.9 20.7 -10.1 28.7 l-6.3 6.2 8.3 27.6 8.4 27.5 -15.2 0 -15.1 0 -6.4 -22.8 c-3.5 -12.5 -6.8 -23.5 -7.3 -24.4 -1.1 -2.4 -5.4 -3.3 -8.4 -1.9 l-2.4 1.1 0 24 0 24 -14 0 -14 0 0 -63.9z m46.8 -13.6 c4.9 -2 7.2 -5.9 7.2 -12.3 0 -9.2 -6 -12.8 -20 -12 l-5.5 0.3 -0.3 11.4 c-0.1 6.3 0 12.1 0.2 12.8 0.8 1.9 13.5 1.7 18.4 -0.2z"/>
  <path d="M823 551 l0 -49 -9.3 0 c-5.2 0 -9.6 -0.2 -9.8 -0.4 -0.2 -0.2 -0.2 -7 0.1 -15 l0.5 -14.7 32 0 32 0 0.3 15.1 0.3 15 -9.5 0 c-7.6 0 -9.5 0.3 -10 1.6 -0.3 0.9 -0.6 22.9 -0.6 49 l0 47.4 -13 0 -13 0 0 -49z"/>
  <path d="M15.3 595.3 c-1 -0.4 -1.3 -13.3 -1.3 -59.8 0 -32.6 0.3 -60 0.6 -60.9 0.5 -1.4 2.8 -1.6 15.3 -1.6 l14.6 0.1 4.5 7.2 c9.2 15 17.9 28.3 20.2 31 l2.3 2.9 5.5 -8.3 c3 -4.6 5.7 -8.8 5.9 -9.3 0.2 -0.5 3.7 -6 7.7 -12.3 l7.4 -11.3 13.2 0 c7.3 0 13.9 0.4 14.6 0.9 2 1.2 2.3 120.8 0.4 121.6 -2.3 0.9 -26.6 0.5 -28.1 -0.4 -1.2 -0.7 -1.3 -3.2 -0.8 -13.3 0.9 -14.9 -0.3 -59.8 -1.5 -59.8 -0.4 0 -0.8 0.8 -0.8 1.8 0 0.9 -2.1 4.9 -4.6 8.7 -5.9 8.8 -10.2 15.4 -14.8 22.8 -2 3.1 -4 5.7 -4.5 5.7 -0.8 0 -2 -1.6 -10.6 -15 -2.7 -4.1 -5.8 -8.8 -6.9 -10.5 -1.1 -1.6 -3.5 -5.6 -5.2 -8.8 l-3.1 -5.8 -0.6 27.3 c-0.3 15 -0.4 31.6 -0.2 36.8 0.4 8.3 0.3 9.6 -1.3 10.2 -2 0.8 -26.1 0.9 -27.9 0.1z"/>
  <path d="M257.8 328.9 c-6.7 -0.5 -14.8 -3.4 -14.8 -5.1 0 -0.5 -0.4 -0.6 -1 -0.3 -0.5 0.3 -1 0.1 -1 -0.5 0 -0.6 -0.4 -0.8 -1 -0.5 -0.5 0.3 -1 0.1 -1 -0.5 0 -0.6 -0.4 -0.8 -1 -0.5 -0.5 0.3 -1 0.1 -1 -0.5 0 -0.6 -0.4 -0.9 -0.9 -0.5 -0.6 0.3 -4.4 -3 -8.7 -7.2 -8.8 -8.9 -13.9 -18.3 -15.5 -28.7 -0.6 -3.7 -0.8 -51.6 -0.7 -120.6 0.4 -126.6 -0.2 -115.1 6.7 -128.9 5.6 -10.9 19.2 -22.1 31.1 -25.4 13.3 -3.7 18 -3.8 132.5 -3.5 125.5 0.4 118.5 0 131.5 7.8 7.9 4.7 16.8 13.5 20.5 20.1 5.3 9.8 6.4 16.2 6.6 38.4 l0.1 20.3 -6.4 9.4 c-3.6 5.1 -12.7 18.3 -20.4 29.3 -7.7 11 -14.7 21.1 -15.6 22.5 -0.9 1.4 -3.8 5.4 -6.3 9 -2.6 3.6 -6.2 8.8 -8.1 11.5 -10.1 14.9 -13 18.9 -14.1 19.2 -1 0.4 -5.9 -6.2 -20.3 -27.1 -12.2 -17.5 -19.3 -27.8 -25.3 -36.4 -3.8 -5.3 -8.4 -11.9 -10.3 -14.7 -14.6 -21.4 -19.6 -28.2 -21.5 -29.7 -1.9 -1.6 -5.1 -1.8 -33.4 -1.8 -27.6 0 -31.4 0.2 -31.9 1.6 -0.3 0.9 -0.6 56.2 -0.6 123 l0 121.4 -30 0 c-23.3 0 -30 -0.3 -30 -1.2 0 -0.8 -0.3 -0.9 -0.8 -0.3 -0.4 0.6 -3.4 0.8 -7.4 0.4z"/>
 </g>
 <g fill="#ffffff">
  <path d="M527.7 388.3 c-0.4 -0.3 -0.7 -41.9 -0.7 -92.4 0 -58.2 -0.4 -92 -1 -92.4 -0.5 -0.3 -2.3 1.8 -4 4.7 -3.6 6.1 -7.9 13.2 -12.5 20.3 -1.8 2.8 -5.1 8.2 -7.5 12 -2.4 3.9 -5.5 8.8 -7 11 -1.5 2.2 -2.9 4.5 -3.1 5 -0.7 1.8 -25.1 40.9 -26.4 42.3 -1 1.1 -3.2 -1.8 -11.6 -15.4 -5.7 -9.3 -10.8 -17.6 -11.4 -18.5 -2.1 -3.6 -14.2 -23.3 -17.6 -28.7 -2 -3.1 -5.4 -8.6 -7.6 -12.2 -2.2 -3.6 -6.1 -9.8 -8.6 -13.8 l-4.6 -7.4 -0.6 3.4 c-0.3 1.8 -0.5 31.5 -0.3 66.1 l0.3 62.7 -35.7 0 -35.8 0 0 -121.3 c0 -93 0.3 -121.6 1.2 -122.5 0.9 -0.9 8.5 -1.2 28.2 -1.2 l27.1 0 2.2 3.3 c1.2 1.7 4.2 6.1 6.8 9.7 2.5 3.6 6.1 8.8 8 11.5 1.8 2.8 7 10.2 11.4 16.5 4.4 6.3 11.5 16.5 15.7 22.5 4.1 6.1 10.9 15.7 15 21.5 10.9 15.5 16.7 23.9 18.4 26.6 2.3 3.7 4.2 2.9 8.7 -3.9 2.3 -3.4 6.7 -9.8 9.8 -14.2 3.1 -4.4 6.8 -9.6 8.1 -11.5 1.3 -1.9 4 -5.7 5.9 -8.5 2 -2.7 5.5 -7.9 8 -11.5 2.5 -3.6 6 -8.7 8 -11.5 11.6 -16.5 19.8 -28.3 29.1 -41.9 l2.1 -3.1 32.2 0.3 32.1 0.3 0 146.4 0 146.5 -40.8 0 c-22.5 0 -41.2 -0.3 -41.5 -0.7z"/>
 </g>
</svg>