<svg height="632" preserveAspectRatio="xMidYMid meet" viewBox="0 0 822 632" width="822" xmlns="http://www.w3.org/2000/svg"><g fill="#020000"><path d="m157.7 594.1c-10.8-3.6-18.8-10.8-22.8-20.7-2.4-5.9-2.4-6-2.7-54.3-.2-38.8 0-48.6 1-49.2 1.6-1.1 30.9-1.1 32.5-.1.9.6 1.3 11.5 1.5 43.9.3 40.7.4 43.2 2.2 45.2 2.5 2.8 9.4 2.9 12.7.2l2.4-1.9.3-43.3c.2-32.7.6-43.5 1.5-44.1 1.4-.9 23.8-1.1 26.1-.2 1.4.5 1.6 5.4 1.6 44.3 0 24.7-.5 46.4-1 50.1-2.2 13.8-9 22.9-21.6 28.7-5.1 2.4-7.3 2.8-16.9 3-8.7.2-12.2-.1-16.8-1.6zm28.8-8c11.1-4.9 17.5-14 19.5-27.6.5-3.8 1-23.8 1-44.2v-37.3h-7.5-7.4l-.3 41.9-.3 42-2.9 3c-7.3 7.6-22.6 6.5-26.8-1.9-1.6-3.2-1.8-7.5-1.8-44.2v-40.8h-10.5-10.6l.3 43.3c.3 42.3.3 43.3 2.6 48.9 3.4 8.4 11.1 14.9 21.7 18.5 5.5 1.8 17.1 1 23-1.6z"/><path d="m434.1 594.5c-13-4-23.8-17.1-29.2-35.1-1.5-5-2.3-10.8-2.6-21.2-.8-21.4 1.3-32.6 8.9-47.4 8.4-16.2 20.7-23.5 38.3-22.6 22.3 1.2 35.8 17.6 39 47.5l.7 6.2-4.4.5c-2.3.3-9.7.7-16.2.9l-12 .2-1.2-8.3c-1.6-11.2-5.5-15.4-11.3-12.2-5 2.6-8.2 23.1-6.3 40.5 1.3 11.8 3 16.1 7 17.6 5.6 2.1 10-2.5 10.9-11.5.3-3.1 1.1-6 1.7-6.5 1-.8 24.2.3 29.4 1.5 2.3.5 2.4.7 1.7 6.7-1.7 14.7-9 30-17.6 36.8-7 5.5-14.2 7.9-23.9 7.8-4.7 0-10.5-.7-12.9-1.4zm20.6-7.1c6.9-2.3 12.5-6.6 16.8-12.5 3.7-5.1 7.7-14.4 8.8-20.6l.7-3.3h-4.8c-2.6 0-6.4-.3-8.4-.6-2.8-.5-3.9-.3-4.2.7-3.1 11.1-3.9 13-6.7 15.3-2.5 2.2-4.1 2.6-9 2.6-3.4 0-7.3-.7-8.9-1.5-6.3-3.2-9-13.7-9-34.5 0-19.2 2.2-30.1 7.1-34.9 2.8-2.9 3.6-3.1 10.1-3.1 6.6 0 7.2.2 10.3 3.3s5.5 10 5.5 15.9c0 2 .4 2.1 8.6 1.5 4.7-.2 8.7-.7 9-.9.8-.9-3.5-15.7-6.1-20.7-6-11.8-15.8-18.5-27.5-18.6-12.8 0-23.2 7.5-30.2 22.1-7 14.5-9.4 33.6-6.4 50.4 3.7 20.2 13.4 34.1 27.4 39.2 6 2.2 10.9 2.2 16.9.2z"/><path d="m225.2 593.8c-.9-.9-1.2-16-1.2-62 0-59 .1-60.8 1.9-61.8 2.1-1.1 28.8-1.4 31.5-.4 1.4.5 1.6 5.4 1.6 44.5v43.9h17.3c12.1 0 17.7.4 18.5 1.2s1.2 6.1 1.2 17.3-.4 16.5-1.2 17.3c-.9.9-10 1.2-34.8 1.2s-33.9-.3-34.8-1.2zm62.8-17.3v-10.5h-16.4c-9 0-17.1-.3-18-.6-1.4-.5-1.6-5.4-1.6-44.5v-43.9h-10-10v55 55h28 28z"/><path d="m306.3 594.4c-1-.5-1.3-10.4-1.3-45v-44.4h-9.5-9.5v-17.4c0-14.9.2-17.5 1.6-18 2-.8 65.8-.8 67.8 0 1.4.5 1.6 3.1 1.6 18v17.4h-9.5-9.5l-.2 44.8-.3 44.7-15 .2c-8.2.1-15.6-.1-16.2-.3zm24.9-51.6.3-44.3 9.3-.3 9.2-.3v-10.4-10.5h-28.5-28.5v10.5 10.4l9.3.3 9.2.3.3 44.3.2 44.2h9.5 9.5z"/><path d="m361.2 593.8c-.9-.9-1.2-15.4-1.2-62 0-59 .1-60.8 1.9-61.8 2.3-1.2 30-1.4 31.9-.2 1 .7 1.2 13.9 1 62.8l-.3 61.9-16 .3c-11.6.2-16.4-.1-17.3-1zm26.8-61.8v-55h-10-10v55 55h10 10z"/><path d="m495 593.1c-.6-1.3-1-21.9-1-61.5 0-52.7.2-59.6 1.6-61 1.3-1.4 4.9-1.6 23.7-1.6 36.5 0 44.6 1.8 53.6 11.5 7.2 7.9 9.6 15.2 9.5 28.5-.1 13.8-2.4 20.3-10 27.7l-5.3 5.3 8 25.1c4.4 13.8 7.8 25.7 7.5 26.5-.4 1.1-3.7 1.4-17.3 1.4-9.2 0-17.4-.4-18.1-.8-.7-.5-4.3-10.6-7.9-22.5-5.5-17.9-6.9-21.7-8.4-21.7-1.7 0-1.9 1.5-2.1 22.3l-.3 22.2-16.2.3c-15.2.2-16.3.1-17.3-1.7zm27-27.4c0-15.2.3-21.6 1.2-22.5 1.3-1.3 12.6-1.6 14.6-.4.9.6 14.2 41.5 14.2 43.8 0 .2 4.7.4 10.5.4s10.5-.2 10.5-.4-3.1-10.2-7-22.2c-3.8-12-7-23-7-24.4 0-1.9 1.4-3.8 5.3-7.2 2.8-2.4 6.3-6.7 7.7-9.4 2.2-4.3 2.5-6.2 2.5-14.9 0-9.2-.2-10.4-2.9-15.3-3.9-6.9-9-11.5-16-14.1-5.2-1.9-7.7-2.1-29.6-2.1h-24v55 55h10 10z"/><path d="m522.7 523.3c-.4-.3-.7-6.6-.7-13.9 0-12.7.1-13.4 2.2-14.5 2.6-1.4 20.5-.4 24.3 1.3 3.9 1.8 5.8 7 5.3 15-.3 6.4-.7 7.3-3.6 9.9-3.2 2.8-3.4 2.9-15 2.9-6.5 0-12.2-.3-12.5-.7zm21.4-8.2c2.9-2.3 3.1-8.1.4-11.1-1.5-1.6-3-2-8.7-2h-6.8v6.8c0 3.8.3 7.2.7 7.5.3.4 3.2.7 6.4.7 4.1 0 6.3-.5 8-1.9z"/><path d="m593.3 594.3c-1-.4-1.3-13.8-1.3-62.3 0-54.9.2-61.9 1.5-62.4.9-.3 33-.6 71.4-.6 53.9 0 70.1.3 71.5 1.3 1.5 1.1 1.6 3.2 1.4 17.7l-.3 16.5-9.2.3-9.3.3v44.3c0 39.6-.2 44.5-1.6 45-3.1 1.2-29.9.7-31.2-.6-.9-.9-1.2-12.2-1.2-44.9v-43.7l-18.2-.7c-10.1-.3-23.2-.5-29.3-.3l-11 .3v4.5 4.5l16.5.5 16.5.5.3 16.2.2 16.3-16.7.2-16.8.3-.3 5.7-.3 5.8 20.8.2 20.8.3v17.5 17.5l-36.5.2c-20.1.1-37.1-.1-37.7-.4zm67.7-17.8v-10.5l-20.7-.2-20.8-.3v-12.5-12.5l16.8-.3 16.7-.2v-9.5-9.5l-16.7-.2-16.8-.3v-11.5-11.5l20.8-.3 20.7-.2v-10-10h-31-31v55 55h31 31zm50-30.9c0-22.7.3-42.7.6-44.4l.6-3.1 9.2-.3 9.1-.3.3-10.2.3-10.3h-28.6-28.5v10.5 10.5h8.9c7.2 0 9 .3 9.5 1.6.3.9.6 20.9.6 44.5v42.9h9 9z"/><path d="m741.7 594.3c-.4-.3-.7-28.4-.7-62.4 0-55.3.2-61.7 1.6-62.3.9-.3 17.2-.6 36.3-.6 26.3 0 35.1.3 36.4 1.3 1.6 1.1 1.7 3 1.5 17.2l-.3 16-20.7.3-20.8.2v5 5l16.8.2 16.7.3v16 16l-16.7.3-16.8.2v6 6l20.8.2 20.7.3.3 16.9c.2 12.9-.1 17.1-1 17.8-1.5.9-73.2 1.1-74.1.1zm67.3-17.8v-10.5l-20.2-.2-20.3-.3v-12.5-12.5l16.3-.3 16.2-.2v-9.5-9.5l-16.2-.2-16.3-.3v-11.5-11.5l20.3-.3 20.2-.2v-10-10h-30.5-30.5v55 55h30.5 30.5z"/><path d="m12 532v-61h15.9 16l2.3 3.8c4.5 7.5 8.3 13.4 11.5 17.7 1.8 2.4 4.1 6.1 5.2 8.3 2.7 5.2 4.7 6.8 6.6 5.2.8-.7 4.9-6.7 9.1-13.4 8.1-12.9 11.7-18.3 13.4-20.3.8-1 5.4-1.3 16.5-1.3h15.5v61 61h-17-17v-30c0-24.4-.2-30-1.3-30-1.7 0-12.1 14.5-18.3 25.3l-2.1 3.8-2.1-3.3c-1.2-1.8-4.7-7.1-7.8-11.8-3-4.7-6.3-9.7-7.2-11.2-.9-1.6-2.5-2.8-3.4-2.8-1.7 0-1.8 2.1-1.8 30v30h-17-17v-61zm28.3 43.4c.3-6.4.3-20.7 0-31.9-.7-24.1-.5-25.5 4-25.5 2.8.1 3.7.8 7.6 6.6 2.5 3.7 5.3 8.3 6.4 10.3 1 2 2.7 4.5 3.7 5.6s2.5 3.5 3.4 5.3c1 1.8 2.1 3.2 2.6 3s3.3-4.1 6.4-8.8c13.6-20.8 13.7-21.1 17.6-20.8l3.5.3v25c0 13.8.2 28.9.3 33.8l.2 8.7h11 11l-.2-54.7-.3-54.8h-10.5-10.5l-7.5 11.3c-4.1 6.2-9.7 14.6-12.3 18.7-4.6 7.1-5 7.5-8.5 7.5-4.2 0-1.9 2.9-24.1-31-2-3-4-5.8-4.6-6.3-.5-.4-5.5-.6-11-.5l-10 .3-.3 54.8-.2 54.7h10.8 10.9z"/><path d="m407 451c-3-.4-6.4-1.2-7.5-1.8-1.1-.7-4.4-2.1-7.4-3.2-9.5-3.6-22.1-15.3-27.1-25.1-6.3-12.2-8-24.2-8-55.5 0-23.7-.1-24.6-2-25.1-2-.5-2-1.4-2-66.8 0-36.5.3-67 .6-67.9.4-1 1.8-1.6 3.8-1.6 2.3 0 3.5.7 4.7 2.8 1.6 2.7 12.7 20.8 22.9 37.2 2.9 4.7 8.3 13.5 11.9 19.5 3.7 6.1 10 16.3 14.1 22.7l7.3 11.7 15.9-25.7c8.8-14.1 17.8-28.6 20.1-32.2 2.2-3.6 5.6-9.1 7.6-12.3s5-8 6.8-10.8c1.8-2.7 4.2-6.8 5.4-8.9 2-3.6 2.7-4 6.1-4h3.8v90.9c0 50 .3 92.3.6 94l.7 3.1h38.8 38.9v-147.4-147.4l3.1-.6c4.6-.9 59.1-.6 67.4.3 28.1 3.3 48.3 20.7 53.6 46.1 1.7 7.9 1.8 17.4 1.8 131.5.1 119.1 0 123.3-1.9 132-1.2 5.5-3.2 10.9-5 13.8-1.7 2.7-3 5.1-3 5.5-.1 1-10 11-14.7 14.8-2.1 1.7-6.5 4.1-9.8 5.4s-6.5 2.8-7.1 3.2c-3.3 2.4-21.2 2.8-124.9 2.6-60.5 0-112.5-.4-115.5-.8z"/><path d="m205 339.3c-7.7-2.6-18.6-6.8-19-7.3-.3-.3-2.8-2.2-5.6-4.3-7.8-5.6-13.5-12.4-18.2-21.8-3.6-7.1-4.3-9.8-5.2-17.9-1.4-13.8-1.3-227 .1-236.3 1.1-6.8 6.8-20.4 10.1-23.8.7-.8 2.3-2.6 3.4-4.1 5.7-7.4 19.2-16.4 28.4-18.9 7.1-2 240.5-4.8 242.4-2.9.5.5 2.4 1 4 1 5.6 0 17.1 3.7 24.2 7.5 8.9 5 19.3 15.5 23.3 23.8 5.9 12.1 6.3 14.4 6.8 39.5.5 21.9.6 23.2 2.4 23.2 3 0 2.2 3-2.4 9.2-2.3 3.2-8 11.5-12.7 18.4s-9.6 13.9-11 15.6-3.4 4.6-4.5 6.4c-1.1 1.7-4.5 6.7-7.5 11-3 4.2-7.2 10.3-9.3 13.3-2.2 3.1-9.3 13.4-15.9 22.9l-12.1 17.2h-4.1c-3.4 0-4.4-.5-5.8-2.8-.9-1.5-4.3-6.5-7.7-11.2-3.3-4.7-9-12.8-12.6-18s-9.6-13.8-13.3-19.1-13.9-19.9-22.6-32.5c-8.8-12.6-17.5-25-19.4-27.6l-3.4-4.8h-25.4-25.4v122.5 122.5l-40.2-.1c-22.2 0-41-.3-41.8-.6zm67.4-7.3 2.6-1v-124-124h35.8 35.9l1.9 2.2c1.1 1.3 3.2 4.1 4.7 6.3 1.4 2.2 4.7 6.9 7.2 10.5s6.1 8.8 7.9 11.5c1.9 2.8 5.4 7.7 7.7 11 10.5 14.9 12.5 17.9 14.4 20.9 1.1 1.8 3 4.6 4.3 6.2 2.4 3 6.5 8.9 19.6 27.9 6.7 9.7 8.2 11.3 9.3 10.2.8-.8 4.6-6.1 8.6-11.9 4-5.7 19-27.4 33.5-48l26.2-37.6v-17.8c0-20-1.3-26.9-6.9-36.7-6.1-10.7-19.6-21.5-31.7-25.3-5.6-1.8-11.7-1.9-125.4-1.9h-119.5l-6.8 2.3c-20.9 7.3-35.4 25.4-37.8 47.3-.6 5.1-.9 52.1-.7 117.5.3 100.9.5 109.3 2.1 114.1 3.5 10.3 7 16.3 14.7 24.6 8.7 9.5 19.3 14.4 33.5 15.7 12.4 1.1 56 1.1 58.9 0z"/></g><g fill="#950001"><path d="m159.6 590.2c-8.1-2.8-7.1-4.2 2.8-4.2h8.6v3c0 2.7-.3 3-3.2 3-1.8-.1-5.5-.9-8.2-1.8z"/><path d="m173.2 589.4c.3-2.8.5-2.9 5.8-3.2 7.6-.3 10-1 10-2.7 0-1 1-1.5 3-1.5 1.7 0 3-.4 3-1 0-.5 1.7-1 3.8-1l3.7.1-3.5 3.1c-5.1 4.4-12.8 7.7-19.9 8.4l-6.3.7z"/><path d="m437.7 591.3c-3.3-.9-1.5-3.8 2.6-4.1 3.4-.3 3.7-.1 3.7 2.2 0 2.7-1.6 3.1-6.3 1.9z"/><path d="m447 589.8c0-2.2.6-2.6 3.8-3.2 6.5-1 10.2-.7 10.2.9 0 2-3.2 3.5-9 4.2-4.8.6-5 .5-5-1.9z"/><path d="m14.8 589c-.1-.5-.1-26.5.2-57.7l.5-56.8 13-.3c7.2-.1 13.5.1 14 .5.6.5 2.6 3.3 4.6 6.3s7.4 11.2 12 18.3c4.5 7 8.6 12.7 9.1 12.7.4 0 2.9-3.4 5.5-7.5s8.2-12.5 12.3-18.7l7.5-11.3 12.9-.3c7-.1 13.3.2 14 .7.8.7 1 16.2.8 58l-.2 57.1h-13.9c-10.2 0-14-.3-14.4-1.2-.2-.7-.3-15.8-.1-33.5s0-32.4-.4-32.7c-.8-.5-5.5 6.1-16.3 22.7-3.8 5.9-7.4 10.7-7.9 10.7-.4 0-2.1-2.1-3.7-4.6-1.5-2.5-3.7-5.7-4.9-7.2s-3.2-4.7-4.6-7.2-4.3-7.1-6.6-10.4c-4.1-5.8-4.1-5.8-4.8-3-.4 1.5-.4 11.1 0 21.3.3 10.2.3 24.6 0 31.9l-.7 13.2h-13.8c-8.2 0-13.9-.4-14.1-1zm22.2-38.9c0-18.1.3-33.6.6-34.5.4-1.1 1.9-1.6 5-1.6 4 0 4.7.4 7.4 4.2 1.6 2.2 3 4.7 3 5.3 0 .7.7 1.9 1.6 2.6 1.6 1.3 6.7 9.1 9.3 14.1 2.2 4.4 3.7 4 7.5-1.8 2-2.9 3.6-5.6 3.6-5.9s1.7-2.9 3.9-5.8c2.1-2.9 4.2-6.2 4.5-7.3 1.2-3.8 4-5.6 8.7-5.2l4.4.3.3 34.3.2 34.2h9 9l-.2-51.7-.3-51.8-9.1-.3-9.1-.3-8.4 13.1c-4.6 7.2-10 15.7-12 18.8l-3.6 5.7h-5.3-5.4l-3-5.7c-1.7-3.1-4.1-6.7-5.4-8-1.2-1.4-2.2-2.9-2.2-3.5s-2-3.7-4.4-7c-2.4-3.2-4.7-6.9-5.1-8.3-1.3-4.1-3.4-4.9-12.7-5h-8.8v52 52h8.5 8.5z"/><path d="m596 532c0-57.3 0-58 2-58s2 .7 2 58 0 58-2 58-2-.7-2-58z"/><path d="m658 578.5v-11.5h-19-19v-3.5c0-3.6 1.3-4.7 2.4-2 .4 1.3 3.7 1.5 21.1 1.5h20.5v13.5 13.5h-3-3z"/><path d="m424.3 584.4c-1.8-1.3-4.2-3.8-5.3-5.4l-2.1-3h3.6c2.5 0 3.8.5 4.2 1.8.4.9 1.3 2.2 2.1 2.7.7.6 1.2 2.3 1 3.8l-.3 2.7z"/><path d="m465 585.2c0-1.1.3-3.4.6-5.1.6-2.9.9-3.1 5.1-3.1h4.4l-2.1 3c-1.1 1.6-3.4 3.9-5 5-2.9 2.1-3 2.1-3 .2z"/><path d="m809 569c0-1.9-.8-2-20.2-2.2l-20.3-.3-.3-3.7c-.2-2.8.1-3.8 1.1-3.8.8 0 1.7.9 2 2 .5 1.9 1.4 2 21.1 2 22.5 0 21.6-.3 20 5.8-.8 2.7-3.4 2.9-3.4.2z"/><path d="m166 567.1c0-.5-1-1.1-2.2-1.3-2-.3-2.3-1-2.6-5-.4-5.7 1.5-6.5 3.8-1.5.8 1.8 2.9 3.9 4.7 4.7 4.4 2 4.2 4-.2 4-1.9 0-3.5-.4-3.5-.9z"/><path d="m136.6 563.8c-.3-1.3-.6-3.8-.6-5.5 0-2.6.4-3.3 2-3.3 1.8 0 2 .7 2 5.5 0 4-.4 5.5-1.4 5.5-.7 0-1.6-1-2-2.2z"/><path d="m206 557.5c0-1.4-.4-2.5-1-2.5-.7 0-1-14.2-1-40.5v-40.5h3 3v40.8c0 22.4-.3 41.7-.6 43-.9 3-3.4 2.8-3.4-.3z"/><path d="m477.5 551.9c-2.2-.4-6.6-.8-9.7-.8-5.2-.1-5.8-.3-5.8-2.2 0-2 .3-2.1 10.8-1.4 5.9.4 11 .9 11.4 1.1 1 .6-.3 4.4-1.6 4.3-.6-.1-2.9-.5-5.1-1z"/><path d="m157 512.5v-38.5h3 3v38.5 38.5h-3-3z"/><path d="m189 511.5c0-36.8 0-37.5 2-37.5s2 .7 2 37.5 0 37.5-2 37.5-2-.7-2-37.5z"/><path d="m650 530.5v-12.5h3 3v12.5 12.5h-3-3z"/><path d="m406 525.3c0-5.3 1-8.3 2.6-8.3 1 0 1.4 1.6 1.4 6 0 5.3-.2 6-2 6-1.6 0-2-.7-2-3.7z"/><path d="m523 521.5c0-3.6 1.3-4.7 2.4-2 .4 1.1 2.3 1.5 8.1 1.5 6.8 0 7.5.2 7.5 2 0 1.9-.7 2-9 2h-9z"/><path d="m470 516c0-2.9.2-3 4.4-3 5.7 0 7.6.8 7.6 3 0 2-2.7 3-8.2 3-3.6 0-3.8-.2-3.8-3z"/><path d="m689.9 506.5c-.1-.8-.3-1.9-.4-2.5-.1-.5-.3-1.4-.4-2 0-.6-4.1-1-9.7-1-8.4 0-9.5-.2-9-1.6.3-.9.6-2.2.6-3 0-1.1 1.9-1.4 9-1.4 8.3 0 9 .1 9 2 0 1.3.7 2 2 2 1.7 0 2 .7 2 4.5 0 3.3-.4 4.5-1.5 4.5-.8 0-1.6-.7-1.6-1.5z"/><path d="m711 504c0-2.2.5-4 1-4 .6 0 1-1.1 1-2.5 0-2.5.1-2.5 8.5-2.5 7.8 0 8.5-.2 8.5-2 0-1.4.7-2 2.1-2 1.8 0 2 .5 1.7 4.8l-.3 4.7-9.1.3-9.2.3-.6 3.4c-1 5.1-3.6 4.7-3.6-.5z"/><path d="m332.2 499.8.3-4.3 10.3-.3 10.2-.3v3.1 3h-9c-7.1 0-9.2.3-9.6 1.5-1.2 3-2.5 1.4-2.2-2.7z"/><path d="m768 500.9c0-1.7.5-3.9 1-5 1-1.8 2.3-1.9 22-1.9h21v3 3h-20.1c-19.2 0-20.1.1-20.6 2-.9 3.2-3.3 2.4-3.3-1.1z"/><path d="m438 499.5c0-2.4.5-3.5 1.5-3.5.8 0 1.5-.6 1.5-1.4 0-2.8 7.8-3.6 10.4-1.1.8.8 1.9 1.5 2.5 1.5s1.1 1.4 1.1 3.1c0 2.9-.1 3-2.2 1.5-3.4-2.4-9-2-12.2.9l-2.6 2.4z"/><path d="m620.2 498.8.3-4.3 18.8-.3 18.7-.2v-10-10h3 3v13 13h-20.5c-17.4 0-20.7.2-21.1 1.5-1.2 3-2.5 1.4-2.2-2.7z"/><path d="m299.3 501.2-9.3-.3v-2.9-3h9c9.5 0 10.6.5 9.8 4.7-.3 1.6-1.3 1.8-9.5 1.5z"/><path d="m522.7 500.3c-.4-.3-.7-2.1-.7-4 0-3.3.1-3.3 4.5-3.3 3.8 0 4.5.3 4.5 2 0 1.1-.7 2-1.5 2s-2.4.9-3.5 2c-2.2 2.2-2.4 2.3-3.3 1.3z"/><path d="m533.8 497.3c-2.9-.7-2-3 1.3-3.7 6.2-1.2 7.9-.8 7.9 1.9 0 2.2-.4 2.5-3.7 2.4-2.1-.1-4.6-.3-5.5-.6z"/><path d="m546 476c0-1.6.7-2 3.3-2 4.7 0 7.7 1 7.7 2.6 0 1-1.5 1.4-5.5 1.4-4.8 0-5.5-.2-5.5-2z"/><path d="m436 474.6c0-1.4 2.9-2.6 6.8-2.6 1.5 0 2.2.6 2.2 2 0 1.7-.7 2-4.5 2-3.2 0-4.5-.4-4.5-1.4z"/><path d="m446 474c0-1.6.7-2 3.3-2 4.7 0 7.7 1 7.7 2.6 0 1-1.5 1.4-5.5 1.4-4.8 0-5.5-.2-5.5-2z"/><path d="m210.5 335c-14.2-1.3-24.8-6.3-33.5-15.7-7.7-8.3-11.2-14.3-14.7-24.6-1.6-4.8-1.8-13.3-2.1-117.1-.2-67.3.1-115.4.7-120.5 2.4-21.9 16.9-40 37.8-47.3l6.8-2.3h122.5c116.6 0 122.8.1 128.4 1.9 12.1 3.8 25.6 14.6 31.7 25.3 5.8 10.1 6.9 16.4 6.9 39.7v20.8l-26.2 37.6c-28.4 40.5-39.7 56.8-43.1 61.9-2.6 3.8-4.4 4.2-5.6 1.1-.5-1.3-4.6-7.5-9-13.8s-10-14.3-12.3-17.8c-2.4-3.5-5.4-7.7-6.8-9.4s-3.4-4.6-4.5-6.4c-1.9-3-3.9-5.9-14.4-20.9-2.3-3.3-5.8-8.2-7.7-11-1.8-2.7-5.4-7.9-7.9-11.5s-5.8-8.3-7.2-10.5c-6.2-9.3-2.4-8.5-39.5-8.5h-32.8v123.9c0 99.5-.3 124.1-1.3 124.9-1.5 1.2-53.3 1.4-66.2.2z"/></g><path d="m481.8 394.3c0-.5-.2-1.2-.3-1.8-.2-.5-.3-42.5-.4-93.2 0-50.8-.5-92.3-.9-92.3-.5 0-1.8 1.8-3.1 4-1.2 2.1-3.6 6.2-5.4 8.9-1.8 2.8-4.8 7.6-6.8 10.8s-5.4 8.7-7.6 12.3c-2.3 3.6-11.8 19-21.3 34.3-18.8 30.2-17.8 29.2-22.3 21.4-2.2-3.8-18.3-30.1-27.7-45.2-2.1-3.3-7.5-12.1-12-19.5-16-26-16.7-27.1-17.4-25.4-.3.8-.6 30.8-.6 66.5v64.9h-36-36v-124-124h28.4 28.4l3.4 4.8c1.9 2.6 10.6 15 19.4 27.6 8.7 12.6 18.9 27.2 22.6 32.5s9.7 13.9 13.3 19.1 9.3 13.3 12.6 18c3.4 4.7 6.8 9.7 7.7 11.2 1 1.6 2.2 2.8 2.8 2.8 1 0 10.3-13 29.1-40.1 2.1-3 6.3-9.1 9.3-13.3 3-4.3 6.4-9.3 7.5-11 1.1-1.8 3.1-4.6 4.3-6.2 1.3-1.6 6.4-8.7 11.2-15.9 4.9-7.2 10.8-15.6 13.1-18.7l4.1-5.8h32.4 32.4l.2 148c.2 81.4.2 148.5 0 149-.4 1.2-84.1 1.4-84.4.3z" fill="#fefefe"/><g fill="#a00"><path d="m168 590.5c0-.8-.7-1.5-1.5-1.5s-1.5.5-1.5 1c0 .6-.7 1-1.5 1s-1.5-.4-1.5-1c0-.5-.6-.7-1.4-.4-2.3.9-10.1-3.1-15-7.6-2.9-2.7-5.3-6.2-6.8-9.8-2.2-5.6-2.2-6.7-2.6-51.9l-.3-46.3h12 12.1v37c0 30.5.2 37 1.4 37 .9 0 1.5 1.8 1.9 5.3 1 8.2 1.2 8.7 3.8 10.1 6.8 3.5 13.6 2.6 18.3-2.3 3.9-4.1 4.5-10.6 4.6-52.3v-34.8h8.5 8.5v39c0 28.3.3 39 1.1 39s1 2.4.7 7.9c-.4 6.4-1.1 9.3-3.7 14.5-3.3 6.7-8.1 11.3-11.3 10.8-1.2-.2-1.6.2-1.3 1 .6 1.6-4.9 4-7.2 3.1-.8-.3-1.8 0-2.3.7-.6.9-1.2 1-3 0-2-1.1-2.5-1-3.5.4-1.6 2.1-8.5 2.2-8.5.1z"/><path d="m441 591.1c0-.5-.9-.7-2-.4s-3.5 0-5.3-.7c-4.2-1.7-11.6-7.2-11.7-8.6 0-.7-1.1-1.9-2.4-2.8-3-1.9-9-13.8-11.3-22.6-2.6-9.5-2.3-37.4.5-48.1 4.3-16.3 12.4-27.8 23-32.7 5-2.3 6.9-2.6 15.3-2.5 8.1.1 10.4.5 15.1 2.7 6.5 3.1 11.6 8.3 15.3 15.7 3 5.9 6.5 18.6 6.5 23.7 0 3.7.1 3.7-8.2 1.6-2.2-.5-2.8-.3-2.8 1s-1.1 1.6-4.9 1.6c-2.7 0-5.6.3-6.5.6-1.2.5-1.6 0-1.6-1.9 0-8.5-5.5-19.7-9.6-19.7-.8 0-1.4-.4-1.4-.9s-.7-1.1-1.5-1.5c-2.4-.9-10.2 7.6-11.5 12.5-4.4 16.4-3.9 41.3 1.1 51 3.5 6.9 11.3 9 16.8 4.3 2.8-2.3 3.8-4.7 6.7-15.2.3-.9 1.7-1.1 5.1-.8 2.7.3 7.9.8 11.7 1.2l6.9.6-.7 5.4c-1.3 11.3-8.5 25.4-13 25.4-1.7 0-1.8.2-.6 1 1.2.7.9 1.3-1.4 3.2-4.9 4-8.8 5.8-11.3 5.2-1.3-.4-2.3-.2-2.3.4 0 .5-1.1.7-2.5.4-1.5-.2-2.5 0-2.5.7 0 .6-1.9 1.1-4.5 1.1-2.5 0-4.5-.4-4.5-.9z"/><path d="m229 532v-58h13 13v43.9c0 39.1.2 44 1.6 44.5.9.3 9 .6 18 .6h16.4v13.5 13.5h-31-31z"/><path d="m309 546.4v-43.6l-2.2-2.4c-2-2.1-3.2-2.4-9.5-2.4h-7.3v-12-12h31.5 31.5v12 12h-8.5c-8.3 0-8.6.1-9.5 2.6-.6 1.5-1 20.2-1 46v43.4h-12.5-12.5z"/><path d="m365 532v-58h13 13v58 58h-13-13z"/><path d="m499 531.9v-58.1l28.3.4c26.9.4 28.4.5 33.4 2.7 13 5.8 19.7 20.9 17.2 38.6-1.3 9.1-3.7 13.8-10.3 20l-5.4 5 7.9 24.5c4.3 13.5 7.9 24.6 7.9 24.8 0 .1-6.5.2-14.5.2s-14.5-.2-14.5-.4c0-2.3-13.3-43.2-14.2-43.8-1.9-1.2-7.2-1-8.6.4-.9.9-1.2 7.3-1.2 22.5v21.3h-13-13zm41.8-10.8c5.3-1 9-4.3 9.8-8.7 1.3-6.8-2-12.9-7.7-14.1-1.6-.3-2.9-.8-2.9-1.2 0-.3-3.3-.6-7.3-.6h-7.4l-.2 11c-.1 6.1.1 11.8.4 12.8.8 1.9 7.6 2.3 15.3.8z"/><path d="m597 532v-58h32 32v11.5 11.5h-18.5-18.5l-1.1 2.7c-.5 1.4-.8 6-.7 10.2l.3 7.6 15.3.3 15.2.3v12.4 12.4l-15.2.3-15.3.3-.3 8c-.5 13.6-2.2 12.5 19.8 12.5h19v13 13h-32-32z"/><path d="m690 545.9c0-43.2 0-44.1-2-44.6-1.1-.3-2-1.2-2-1.9 0-1.1-1.8-1.4-7.5-1.4h-7.5v-12-12h31.5 31.5v8.9c0 4.9-.3 10.3-.6 12l-.6 3.1h-8.2-8.2l-1.2 3.3c-.9 2.4-1.2 15.3-1.2 46v42.7h-12-12z"/><path d="m745 532v-58h33.5 33.5v11.5 11.5h-19.5c-22.9 0-21.7-.7-21.3 12.3l.3 8.2 16.3.3 16.2.2v12.5 12.5l-16.2.2-16.3.3v10 10l20.3.3 20.2.2v13 13h-33.5-33.5z"/><path d="m17 585.3c0-.7 0-106.4 0-108.5 0-.5 5.1-.8 11.3-.8 11.5 0 17.1 1.3 16.2 3.8-.2.6 0 1.2.5 1.2s.7.6.4 1.4c-.3.7 1 3 2.9 5s3.2 3.6 2.8 3.6c-.3 0 .1.6.9 1.3s1.6 2.1 1.8 3.2 1.6 3.2 3.2 4.7c1.5 1.4 2.6 2.9 2.3 3.2-.4.3.2.6 1.3.6 1.2 0 1.5.3.7.8s-.5 1.9 1.1 4.7c3.4 5.9 6 5.5 10.5-1.7 2-3.1 7.4-11.6 12-18.8l8.4-13.1 12.1.3 12.1.3.3 54.8.2 54.7h-12-12l-.2-34.2c-.3-32.9-.4-34.3-2.2-34.3-2.6 0-6.5 5.3-4.7 6.4.9.6.6 1-1.1 1.5-1.9.5-2 .8-.8 1.6 1.3.8 1.3 1-.2 1-2.6 0-10 10.9-7.5 11.1.7 0 .1.5-1.3 1-1.8.7-2.1 1.2-1.1 1.8.9.6.6 1-1.1 1.5-1.9.5-2 .8-.8 1.6 1.3.8 1.3 1-.2 1-.9 0-2.5 1.4-3.5 3-1.8 3.1-3.3 3.9-3.3 1.8 0-.7-1.4-2.9-3-4.8s-3-3.8-3-4.2c0-1.2-6.7-11.3-8.4-12.7-.9-.7-1.6-1.9-1.6-2.6 0-1.9-5.9-9.5-7.4-9.5-.8 0-1.7.7-2 1.6s-.6 16.4-.6 34.5v32.9h-11.5c-6.3 0-11.5-.3-11.5-.7z"/></g></svg>