<?xml version="1.0" encoding="UTF-8"?>
<!DOCTYPE svg PUBLIC "-//W3C//DTD SVG 1.1//EN" "http://www.w3.org/Graphics/SVG/1.1/DTD/svg11.dtd">
<svg version="1.1" xmlns="http://www.w3.org/2000/svg" xmlns:xlink="http://www.w3.org/1999/xlink" x="0" y="0" width="800" height="400" viewBox="0, 0, 800, 400">
  <g id="Layer_1">
    <g id="Layer-1">
      <path d="M44.438,52.246 C150.171,124.842 287.471,124.846 404.255,79.079 C538.396,123.267 656.971,117.488 754.905,53.413 L754.597,368.171 C746.605,368.009 710.422,368.009 699.367,367.88 L91.784,367.88 C74.258,368.017 54.829,368.017 44.438,367.85 L44.438,52.246 z" fill="#ED1C24"/>
      <path d="M61.458,94.365 L61.458,216.24 L93.75,216.24" fill-opacity="0" stroke="#231F20" stroke-width="5.208"/>
      <path d="M97.917,190.19 L111.459,216.232 L131.25,216.232" fill-opacity="0" stroke="#231F20" stroke-width="5.208"/>
      <path d="M123.958,155.897 L143.751,126.728" fill-opacity="0" stroke="#231F20" stroke-width="5.208"/>
      <path d="M196.875,141.231 L196.875,195.398 C198.959,208.94 206.25,216.232 216.667,216.232 L281.25,216.232" fill-opacity="0" stroke="#231F20" stroke-width="5.208"/>
      <path d="M260.417,144.438 L260.417,178.813" fill-opacity="0" stroke="#231F20" stroke-width="5.208"/>
      <path d="M319.792,132.898 L319.792,216.232 L351.042,216.232" fill-opacity="0" stroke="#231F20" stroke-width="5.208"/>
      <path d="M365.625,195.398 L376.042,216.232 L409.375,216.232" fill-opacity="0" stroke="#231F20" stroke-width="5.208"/>
      <path d="M366.784,148.055 L378.242,148.055 C383.45,147.014 381.13,152.28 382.292,157.98" fill-opacity="0" stroke="#231F20" stroke-width="5.208"/>
      <path d="M441.667,126.306 L441.667,215.89 L476.042,215.89" fill-opacity="0" stroke="#231F20" stroke-width="5.208"/>
      <path d="M523.956,166.312 L537.5,167.354" fill-opacity="0" stroke="#231F20" stroke-width="5.208"/>
      <path d="M489.584,198.604 L512.5,198.604" fill-opacity="0" stroke="#231F20" stroke-width="5.208"/>
      <path d="M563.542,146.098 L563.542,215.89 L592.709,215.89" fill-opacity="0" stroke="#231F20" stroke-width="5.208"/>
      <path d="M627.084,133.948 L627.084,216.24 L655.209,216.24" fill-opacity="0" stroke="#231F20" stroke-width="5.208"/>
      <path d="M692.709,107.979 L692.709,139.229" fill-opacity="0" stroke="#231F20" stroke-width="5.208"/>
      <path d="M672.917,184.981 L696.876,216.232 L721.876,216.232" fill-opacity="0" stroke="#231F20" stroke-width="5.208"/>
      <path d="M145.834,187.073 L145.834,216.24 L170.834,216.24" fill-opacity="0" stroke="#231F20" stroke-width="5.208"/>
      <path d="M68.292,93.762 L68.292,208.217 L99.884,208.217 L99.884,175.591 L114.901,208.737 L134.58,208.737 L153.742,177.146 L153.742,208.217 L183.263,208.217 L183.263,131.05 C174.976,131.571 156.33,128.979 151.671,127.941 L130.438,159.016 L104.542,108.262 C93.667,110.341 72.955,99.458 68.292,93.762" fill="#FFFFFF"/>
      <path d="M205.013,135.201 L205.013,191.126 C205.013,202.001 212.763,208.214 221.067,208.214 L282.697,208.214 C293.051,208.214 297.197,196.822 297.197,186.984 L297.197,128.984 C289.426,134.159 273.888,134.159 267.676,135.193 L267.676,167.822 C267.676,172.48 265.084,177.659 252.659,177.659 C240.734,177.659 239.192,174.034 239.192,168.339 L239.192,134.168 L205.013,135.201 z" fill="#FFFFFF"/>
      <path d="M449.446,116.032 L449.446,208.732 L483.109,208.732 L483.109,190.603 L518.321,190.603 L518.321,165.232 L483.109,165.232 L483.109,153.32 C501.234,157.978 526.092,159.532 543.18,157.978 L543.18,130.016 C522.984,133.641 463.946,119.657 449.446,116.032" fill="#FFFFFF"/>
      <path d="M571.663,131.568 L571.663,209.251 L603.771,209.251 L603.771,126.909 C592.901,131.051 578.913,132.605 571.663,131.568" fill="#FFFFFF"/>
      <path d="M635.351,121.725 L635.351,209.25 L665.388,209.25 L665.388,162.641 L700.605,208.733 L729.605,208.733 L729.605,91.687 C723.909,97.904 703.709,101.012 699.567,101.012 L699.567,141.925 L673.671,114.996 C666.421,118.621 645.709,122.762 635.351,121.725" fill="#FFFFFF"/>
      <path d="M381.134,157.487 L358.821,157.487 L358.821,142.446 C358.821,142.446 367.117,139.858 377.984,136.746 C394.796,131.937 390.93,156.946 381.134,157.487 M423.559,137.783 C423.559,127.425 412.163,108.266 398.7,104.121 C392.246,102.137 388.342,102.05 382.125,104.121 C375.913,106.191 339.659,120.691 327.746,122.246 L327.746,208.737 L359.342,208.737 L359.342,180.25 L369.18,180.25 L381.609,208.737 L419.934,208.737 L404.396,178.179 C422.005,166.783 423.559,148.141 423.559,137.783" fill="#FFFFFF"/>
      <path d="M193.111,340.513 L185.186,319.446 L194.849,319.446 L198.861,334.159 L203.153,319.446 L210.562,319.446 L214.903,334.159 L218.678,319.446 L228.374,319.446 L220.416,340.513 L210.657,340.513 L206.741,326.896 L202.762,340.513 L193.111,340.513 z" fill="#FFFFFF"/>
      <path d="M230.588,319.446 L239.567,319.446 L239.567,340.513 L230.588,340.513 z" fill="#FFFFFF"/>
      <path d="M265.532,328.288 C265.386,326.988 264.877,325.996 264.011,325.313 C263.144,324.63 261.961,324.288 260.457,324.288 C258.532,324.288 257.065,324.775 256.044,325.759 C255.027,326.734 254.515,328.142 254.515,329.984 C254.515,331.821 255.027,333.221 256.044,334.188 C257.065,335.155 258.532,335.638 260.457,335.638 C261.844,335.638 262.965,335.35 263.815,334.78 C264.665,334.205 265.227,333.35 265.498,332.217 L275.857,332.217 C275.386,335.138 273.848,337.338 271.24,338.825 C268.636,340.321 265.04,341.063 260.457,341.063 C255.307,341.063 251.419,340.134 248.798,338.267 C246.177,336.4 244.869,333.642 244.869,329.984 C244.869,326.317 246.177,323.555 248.798,321.688 C251.419,319.825 255.307,318.888 260.457,318.888 C265.261,318.888 268.977,319.7 271.607,321.317 C274.24,322.938 275.636,325.259 275.79,328.288 L265.532,328.288 z" fill="#FFFFFF"/>
      <path d="M280.792,340.513 L280.792,319.446 L289.772,319.446 L289.772,326.738 L300.013,326.738 L300.013,319.446 L308.992,319.446 L308.992,340.513 L300.013,340.513 L300.013,331.992 L289.772,331.992 L289.772,340.513 L280.792,340.513 z" fill="#FFFFFF"/>
      <path d="M315.671,319.446 L324.65,319.446 L324.65,340.513 L315.671,340.513 z" fill="#FFFFFF"/>
      <path d="M337.2,340.513 L337.2,324.792 L328.821,324.792 L328.821,319.446 L354.588,319.446 L354.588,324.792 L346.175,324.792 L346.175,340.513 L337.2,340.513 z" fill="#FFFFFF"/>
      <path d="M366.017,333.242 L371.767,333.242 L368.975,325.838 L366.017,333.242 z M353.455,340.509 L363.496,319.442 L374.884,319.442 L384.25,340.509 L374.525,340.509 L373.755,338.442 L363.905,338.442 L363.071,340.509 L353.455,340.509 z" fill="#FFFFFF"/>
      <path d="M388.413,340.513 L388.413,333.775 L396.825,333.775 L396.825,338.234 C396.825,339.455 396.675,340.392 396.388,341.03 C396.096,341.671 395.6,342.238 394.9,342.734 C394.23,343.205 393.446,343.638 392.546,344.03 C391.646,344.421 390.625,344.763 389.48,345.055 L388.771,342.375 C389.496,342.159 390.017,341.905 390.338,341.617 C390.663,341.325 390.83,340.955 390.842,340.513 L388.413,340.513 z" fill="#FFFFFF"/>
      <path d="M421.367,340.513 L421.367,319.446 L430.342,319.446 L430.342,326.738 L438.6,319.446 L450.725,319.446 L441.059,327.067 L451.675,340.513 L440.509,340.513 L434.259,331.967 L430.342,334.859 L430.342,340.513 L421.367,340.513 z" fill="#FFFFFF"/>
      <path d="M463.421,333.242 L469.167,333.242 L466.38,325.838 L463.421,333.242 z M450.855,340.509 L460.9,319.442 L472.288,319.442 L481.655,340.509 L471.925,340.509 L471.155,338.442 L461.305,338.442 L460.475,340.509 L450.855,340.509 z" fill="#FFFFFF"/>
      <path d="M484.859,340.513 L484.859,319.446 L495.48,319.446 L504.426,331.579 L504.426,319.446 L513.117,319.446 L513.117,340.513 L503.046,340.513 L493.317,328.175 L493.317,340.513 L484.859,340.513 z" fill="#FFFFFF"/>
      <path d="M518.359,334.1 L529.226,334.088 C529.313,334.659 529.705,335.096 530.405,335.405 C531.105,335.713 532.059,335.867 533.271,335.867 C534.48,335.867 535.388,335.746 535.988,335.492 C536.588,335.238 536.888,334.863 536.888,334.363 C536.888,333.913 536.63,333.555 536.109,333.284 C535.584,333.013 534.78,332.813 533.696,332.692 L526.988,331.934 C524.209,331.634 522.117,330.955 520.713,329.9 C519.313,328.846 518.609,327.434 518.609,325.671 C518.609,323.317 519.667,321.6 521.796,320.517 C523.921,319.434 527.305,318.892 531.955,318.892 C536.78,318.892 540.367,319.434 542.717,320.517 C545.067,321.6 546.338,323.284 546.526,325.571 L536.092,325.571 C535.976,324.905 535.538,324.409 534.771,324.071 C534.013,323.734 532.942,323.563 531.563,323.563 C530.563,323.563 529.771,323.692 529.201,323.942 C528.626,324.192 528.338,324.53 528.338,324.963 C528.338,325.359 528.555,325.663 529.005,325.871 C529.446,326.079 530.367,326.271 531.767,326.454 L539.946,327.509 C542.505,327.842 544.413,328.517 545.68,329.538 C546.938,330.559 547.576,331.934 547.576,333.663 C547.576,336.242 546.309,338.138 543.784,339.342 C541.255,340.55 537.271,341.15 531.83,341.15 C527.505,341.15 524.184,340.546 521.876,339.33 C519.559,338.113 518.388,336.371 518.359,334.1" fill="#FFFFFF"/>
      <path d="M561.913,333.242 L567.659,333.242 L564.871,325.838 L561.913,333.242 z M549.346,340.509 L559.392,319.442 L570.78,319.442 L580.146,340.509 L570.417,340.509 L569.646,338.442 L559.796,338.442 L558.967,340.509 L549.346,340.509 z" fill="#FFFFFF"/>
      <path d="M581.942,334.1 L592.809,334.088 C592.896,334.659 593.288,335.096 593.988,335.405 C594.688,335.713 595.642,335.867 596.855,335.867 C598.063,335.867 598.971,335.746 599.571,335.492 C600.171,335.238 600.471,334.863 600.471,334.363 C600.471,333.913 600.213,333.555 599.692,333.284 C599.167,333.013 598.363,332.813 597.28,332.692 L590.571,331.934 C587.792,331.634 585.701,330.955 584.296,329.9 C582.896,328.846 582.192,327.434 582.192,325.671 C582.192,323.317 583.251,321.6 585.38,320.517 C587.505,319.434 590.888,318.892 595.538,318.892 C600.363,318.892 603.951,319.434 606.301,320.517 C608.651,321.6 609.921,323.284 610.109,325.571 L599.676,325.571 C599.559,324.905 599.121,324.409 598.355,324.071 C597.596,323.734 596.526,323.563 595.146,323.563 C594.146,323.563 593.355,323.692 592.784,323.942 C592.209,324.192 591.921,324.53 591.921,324.963 C591.921,325.359 592.138,325.663 592.588,325.871 C593.03,326.079 593.951,326.271 595.351,326.454 L603.53,327.509 C606.088,327.842 607.996,328.517 609.263,329.538 C610.521,330.559 611.159,331.934 611.159,333.663 C611.159,336.242 609.892,338.138 607.367,339.342 C604.838,340.55 600.855,341.15 595.413,341.15 C591.088,341.15 587.767,340.546 585.459,339.33 C583.142,338.113 581.971,336.371 581.942,334.1" fill="#FFFFFF"/>
      <path d="M26.66,20.133 C137.681,101.442 281.844,108.892 404.469,57.633 C545.319,107.125 669.819,93.284 772.648,21.521 L772.327,386.33 C767.252,386.388 717.115,386.484 714.361,386.484 L76.402,386.417 C70.81,386.425 32.389,386.284 26.66,386.363 L26.66,20.133 z" fill-opacity="0" stroke="#231F20" stroke-width="10.417"/>
      <path d="M292.155,241.992 L315.238,241.992 L315.238,296.15 L292.155,296.15 z" fill="#231F20"/>
      <path d="M348.75,296.151 L348.75,241.993 L376.063,241.993 L399.063,273.193 L399.063,241.993 L421.421,241.993 L421.421,296.151 L395.521,296.151 L370.505,264.439 L370.505,296.151 L348.75,296.151 z" fill="#231F20"/>
      <path d="M496.517,264.73 C496.138,261.384 494.838,258.839 492.609,257.08 C490.375,255.322 487.33,254.443 483.463,254.443 C478.521,254.443 474.742,255.697 472.125,258.214 C469.509,260.726 468.196,264.355 468.196,269.093 C468.196,273.805 469.509,277.401 472.125,279.893 C474.742,282.38 478.521,283.626 483.463,283.626 C487.038,283.626 489.913,282.889 492.1,281.414 C494.292,279.934 495.734,277.743 496.434,274.839 L523.063,274.839 C521.855,282.334 517.901,287.997 511.196,291.83 C504.496,295.664 495.25,297.585 483.463,297.585 C470.221,297.585 460.234,295.184 453.492,290.384 C446.755,285.589 443.38,278.493 443.38,269.093 C443.38,259.668 446.755,252.555 453.492,247.759 C460.234,242.959 470.221,240.559 483.463,240.559 C495.817,240.559 505.38,242.643 512.146,246.805 C518.913,250.968 522.496,256.943 522.901,264.73 L496.517,264.73 z" fill="#231F20"/>
    </g>
  </g>
</svg>
