<?xml version="1.0" encoding="UTF-8"?>
<!-- Generated by Pixelmator Pro 3.7.1 -->
<svg width="416" height="191" viewBox="0 0 416 191" xmlns="http://www.w3.org/2000/svg">
    <g id="Group">
        <path id="Path" fill="none" stroke="#91a0b0" stroke-width="2" d="M 99.5 68.829987 C 98.493327 69.149994 97.219991 69.226664 95.679993 69.059998 C 95.528137 69.045837 95.37738 69.095367 95.265015 69.19635 C 95.152588 69.297302 95.08905 69.440308 95.090027 69.589996 L 95.090027 109.429993 C 95.090332 109.689423 95.275085 109.911957 95.530029 109.959991 L 98.549988 110.529999"/>
        <path id="path1" fill="none" stroke="#9daab8" stroke-width="2" d="M 98.549988 110.529999 C 97.476664 111.443329 96 111.883331 94.119995 111.850006 C 88.513346 111.763336 75.52002 111.736664 55.140015 111.769989 C 54.852783 111.769989 54.619995 112.002808 54.619995 112.290009 L 54.619995 115.290009 C 54.619995 115.726318 54.973694 116.079987 55.409973 116.079987 C 76.536641 116.206655 90.103312 116.149994 96.109985 115.910004 C 99.33667 115.776662 101.440002 113.899994 102.419983 110.279999"/>
        <path id="path2" fill="none" stroke="#91a0b0" stroke-width="2" d="M 102.419983 110.279999 C 106.466654 109.99999 110.786662 109.849986 115.380005 109.829987 C 122.429993 109.790009 127.880005 106.420013 128.789978 99.01001 C 129.389994 94.143331 127.796672 90.606659 124.01001 88.399994 C 123.886597 88.32608 123.80719 88.196533 123.79718 88.05304 C 123.787231 87.909546 123.848022 87.770264 123.960022 87.679993 C 127.026672 85.266663 128.166667 81.899994 127.380005 77.579987 C 126.159973 70.850006 120.369995 69.019989 114.25 69.100006 C 110.343343 69.15333 106.526672 69.123332 102.799988 69.01001"/>
        <path id="path3" fill="none" stroke="#9daab8" stroke-width="2" d="M 102.799988 69.01001 C 102.933329 49.25 102.876668 29.57666 102.630005 9.98999 C 102.563354 4.463338 99.83669 1.660014 94.450012 1.580017 C 86.769999 1.466675 60.26 1.466675 14.920013 1.580017 C 10.233348 1.593343 7.17334 1.993337 5.73999 2.779999 C 3.08667 4.233348 1.76001 6.906677 1.76001 10.799988 C 1.740011 64.15332 1.696676 95.856659 1.630005 105.910004 C 1.600006 109.920013 3.859985 115.899994 8.75 115.920013 C 14.136658 115.940013 17.979991 116.020009 20.279999 116.160004 C 20.435211 116.171112 20.588043 116.116028 20.701843 116.007904 C 20.815674 115.89978 20.880219 115.748383 20.880005 115.589996 L 20.880005 112.23999 C 20.880005 111.980438 20.669586 111.769989 20.410004 111.769989 C 18.029999 111.796661 15.906667 111.823334 14.040009 111.850006 C 9.51001 111.910004 5.320007 112.320007 5.290009 107.220001 C 5.190013 90.066661 5.160014 58.283325 5.200012 11.869995 C 5.200012 5.130005 8 5.410004 13.809998 5.440002 C 37.190002 5.553324 64.25 5.579997 94.98999 5.52002 C 97.940002 5.51001 99.450012 8.700012 99.460022 11.25 C 99.533346 30.343343 99.546672 49.536672 99.5 68.829987"/>
        <path id="path4" fill="none" stroke="#2f4a69" stroke-width="2" d="M 102.799988 69.01001 C 101.793315 68.703328 100.693319 68.643321 99.5 68.829987"/>
        <path id="path5" fill="none" stroke="#2f4a69" stroke-width="2" d="M 102.419983 110.279999 C 101.299988 110.893341 100.009989 110.976674 98.549988 110.529999"/>
        <path id="path6" fill="none" stroke="#9daab8" stroke-width="2" d="M 60.159973 29.070007 L 60.159973 35.929993 C 60.159363 36.475616 59.869751 36.978638 59.400024 37.25 C 58.213338 37.92334 57.053324 38.92334 55.919983 40.25 C 55.582581 40.651581 55.088379 40.891418 54.559998 40.910004 C 51.493347 41.029999 47.533346 41.026662 42.679993 40.899994 C 36.429993 40.73999 33.070007 46.980011 33.070007 52.519989 C 33.070007 56.299998 33.053335 58.223338 33.019989 58.290009 C 32.891602 58.532928 32.90036 58.825104 33.043121 59.061707 C 33.185883 59.298279 33.442169 59.445313 33.720001 59.450012 L 41.090027 59.579987 C 41.435547 59.585358 41.768799 59.450775 42.015076 59.20639 C 42.261353 58.962006 42.400024 58.628265 42.400024 58.279999 L 42.400024 53.350006 C 42.400024 52.112885 43.402893 51.109985 44.640015 51.109985 L 54.789978 51.109985 C 55.19281 51.109589 55.577759 51.267914 55.859985 51.549988 C 60.52002 56.23999 66.119995 57.640015 70.880005 52.279999 C 71.07605 52.051575 71.364563 51.920105 71.669983 51.920013 L 81 51.920013 C 81.463928 51.920013 81.840027 51.548401 81.840027 51.089996 L 81.840027 40.679993 C 81.840027 40.199524 81.4505 39.809998 80.969971 39.809998 L 72 39.809998 C 71.681091 39.809784 71.370422 39.712036 71.109985 39.529999 C 69.970011 38.709991 69.023356 37.779989 68.27002 36.73999 C 67.932068 36.278748 67.749939 35.721802 67.75 35.149994 L 67.75 29.200012 C 67.748108 28.814209 67.948486 28.455597 68.278015 28.255005 C 68.607605 28.054382 69.018188 28.041138 69.359985 28.220001 C 70.466675 28.799998 71.773356 29.313334 73.280029 29.76001 C 76.440002 30.690002 79.26001 28.559998 78.950012 25.23999 C 78.629985 21.76001 76.846639 20.236674 73.599976 20.669983 C 71.929993 20.890015 70.890015 21.809998 69.650024 22.619995 C 69.417542 22.772827 69.132263 22.822937 68.861633 22.758606 C 68.590942 22.694244 68.358826 22.521088 68.219971 22.279999 L 67.419983 20.890015 C 67.325745 20.734528 67.158813 20.639709 66.97998 20.640015 L 61.070007 20.640015 C 60.672607 20.640198 60.330505 20.915588 60.25 21.299988 C 60.109985 21.953328 59.859985 22.41333 59.5 22.679993 C 59.17218 22.921875 58.731812 22.945496 58.380005 22.73999 C 56.890015 21.859985 55.789978 21.029999 54.130005 20.76001 C 51.390015 20.320007 49.626689 21.396667 48.840027 23.98999 C 47.549988 28.25 51.210022 30.859985 54.869995 29.529999 C 56.48999 28.943329 57.843323 28.486664 58.929993 28.160004 C 59.218567 28.070984 59.532288 28.124481 59.775024 28.304077 C 60.017761 28.483704 60.160706 28.768005 60.159973 29.070007"/>
        <path id="path7" fill="none" stroke="#9daab8" stroke-width="2" d="M 91.390015 56.369995 L 91.549988 34.830017 C 91.549988 34.66983 91.420166 34.539978 91.26001 34.539978 L 87.799988 34.51001 C 86.624695 34.501495 85.494446 34.92981 84.657959 35.700623 C 83.821472 36.471497 83.347351 37.521667 83.340027 38.619995 L 83.23999 52.459991 C 83.224548 54.745728 85.194153 56.612396 87.640015 56.630005 L 91.099976 56.660004 C 91.260193 56.660004 91.390015 56.530151 91.390015 56.369995"/>
        <path id="path8" fill="none" stroke="#9daab8" stroke-width="2" d="M 44.118774 62.106415 C 44.121887 61.854431 44.02478 61.611572 43.848755 61.431244 C 43.672791 61.250885 43.432373 61.147858 43.18042 61.144806 L 32.621185 61.015808 C 32.096588 61.009399 31.666138 61.429504 31.659698 61.954102 L 31.581207 68.373596 C 31.578094 68.625549 31.675232 68.868439 31.851227 69.048767 C 32.027222 69.229095 32.267639 69.332153 32.519592 69.335205 L 43.078796 69.464203 C 43.603394 69.470581 44.033875 69.050507 44.040283 68.525909 L 44.118774 62.106415"/>
        <path id="path9" fill="none" stroke="#91a0b0" stroke-width="2" d="M 329.950012 69.309998 C 329.950012 69.055939 329.74408 68.850006 329.48999 68.850006 L 321.909973 68.850006 C 321.655945 68.850006 321.450012 69.055939 321.450012 69.309998 L 321.450012 76.190002 C 321.450012 76.444061 321.655945 76.649994 321.909973 76.649994 L 329.48999 76.649994 C 329.74408 76.649994 329.950012 76.444061 329.950012 76.190002 L 329.950012 69.309998"/>
        <path id="path10" fill="none" stroke="#91a0b0" stroke-width="2" d="M 74.25 110.059998 C 76.476685 110.059998 77.806681 110.043335 78.23999 110.01001 C 78.55542 109.988983 78.800415 109.730865 78.799988 109.420013 L 78.799988 77.279999 C 78.799988 77.031464 79.001465 76.829987 79.25 76.829987 L 90.309998 76.829987 C 90.619263 76.829987 90.869995 76.579285 90.869995 76.269989 L 90.869995 69.649994 C 90.869995 69.346252 90.623779 69.100006 90.320007 69.100006 C 85.026672 69.08666 79.666667 69.08666 74.23999 69.100006 C 68.819987 69.093333 63.463318 69.096659 58.169983 69.109985 C 57.866272 69.109985 57.619995 69.356232 57.619995 69.660004 L 57.619995 76.279999 C 57.619995 76.589294 57.870728 76.839996 58.179993 76.839996 L 69.23999 76.829987 C 69.488525 76.829987 69.690002 77.031464 69.690002 77.279999 L 69.710022 109.420013 C 69.704163 109.734711 69.950623 109.998749 70.27002 110.019989 C 70.703328 110.046661 72.029989 110.059998 74.25 110.059998"/>
        <path id="path11" fill="none" stroke="#91a0b0" stroke-width="2" d="M 160.940002 95.480011 C 169.359985 95.76001 180.859985 96.519989 182.340027 85.299988 C 183.700012 74.933329 179.380005 69.573334 169.380005 69.220001 C 164.539998 69.046661 158.57666 69.026662 151.48999 69.160004 C 151.306152 69.165405 151.159912 69.316071 151.159973 69.5 L 151.159973 109.529999 C 151.159973 109.778534 151.36145 109.980011 151.609985 109.980011 L 159.700012 109.98999 C 159.931946 109.98999 160.119995 109.801971 160.119995 109.570007 L 160.119995 96.279999 C 160.119934 96.062531 160.207336 95.85434 160.362 95.70343 C 160.516724 95.552521 160.725403 95.471832 160.940002 95.480011"/>
        <path id="path12" fill="none" stroke="#91a0b0" stroke-width="2" d="M 196.890015 69.559998 C 196.890015 69.300415 196.679565 69.089996 196.419983 69.089996 L 188.960022 69.089996 C 188.700439 69.089996 188.48999 69.300415 188.48999 69.559998 L 188.48999 109.519989 C 188.48999 109.779572 188.700439 109.98999 188.960022 109.98999 L 196.419983 109.98999 C 196.679565 109.98999 196.890015 109.779572 196.890015 109.519989 L 196.890015 69.559998"/>
        <path id="path13" fill="none" stroke="#91a0b0" stroke-width="2" d="M 295.419983 81.790009 L 295.419983 69.529999 C 295.419983 69.320129 295.245361 69.149994 295.030029 69.149994 L 287.5 69.149994 C 287.262512 69.149994 287.070007 69.342529 287.070007 69.579987 L 287.070007 109.380005 C 287.070007 109.722412 287.343079 110 287.679993 110 L 294.700012 110 C 294.987183 110 295.219971 109.762726 295.219971 109.470001 L 295.219971 107.98999 C 295.219604 107.842804 295.308838 107.710175 295.445374 107.655121 C 295.581909 107.600067 295.738159 107.633698 295.840027 107.73999 C 298.273336 110.23999 301.58667 111.193329 305.780029 110.600006 C 314.849976 109.309998 317.299988 99.339996 316.369995 91.519989 C 315.73999 86.140015 313.080017 81.029999 307.919983 79.549988 C 303.273336 78.216654 299.273336 79.036662 295.919983 82.01001 C 295.832336 82.08844 295.706848 82.108398 295.599182 82.061005 C 295.491455 82.013611 295.421387 81.907654 295.419983 81.790009"/>
        <path id="path14" fill="none" stroke="#9daab8" stroke-width="2" d="M 37.720001 135.619995 C 47.099976 135.630005 52.599976 125.929993 52.369995 117.779999 C 52.263346 114.033335 51.703349 110.456665 50.690002 107.049988 C 48.47998 99.619995 45.809998 91.910004 42.159973 84.869995 C 40.213318 81.130005 38.856659 78.406677 38.089996 76.700012 C 38.078217 76.672943 38.060516 76.651703 38.040009 76.640015 C 37.953339 76.593343 37.860006 76.570007 37.76001 76.570007 C 37.666667 76.570007 37.57666 76.593343 37.48999 76.640015 C 37.469482 76.651733 37.451782 76.672974 37.440002 76.700012 C 36.666667 78.406677 35.303335 81.126668 33.350006 84.859985 C 29.690002 91.899994 27.01001 99.600006 24.790009 107.029999 C 23.770009 110.436676 23.206675 114.013346 23.100006 117.76001 C 22.850006 125.910004 28.339996 135.609985 37.720001 135.619995"/>
        <path id="path15" fill="none" stroke="#91a0b0" stroke-width="2" d="M 245.359985 82.23999 L 245.359985 80.320007 C 245.359985 79.944458 245.055542 79.640015 244.679993 79.640015 L 237.929993 79.640015 C 237.521301 79.640015 237.190002 79.971313 237.190002 80.380005 L 237.190002 109.480011 C 237.190002 109.761658 237.418335 109.98999 237.700012 109.98999 L 245.210022 109.98999 C 245.486145 109.98999 245.710022 109.766144 245.710022 109.48999 L 245.710022 90.820007 C 245.710999 88.525604 247.459717 86.612 249.73999 86.410004 L 250.119995 86.369995 C 251.272644 86.269135 252.414734 86.657593 253.26825 87.440826 C 254.121826 88.22403 254.608582 89.33017 254.609985 90.48999 L 254.609985 109.480011 C 254.609985 109.767181 254.842834 110 255.130005 110 L 262.570007 110 C 262.851685 110 263.080017 109.771667 263.080017 109.48999 C 263.066671 103.763326 263.073324 98.109996 263.099976 92.529999 C 263.113322 90.603343 263.623332 88.973348 264.630005 87.640015 C 264.872314 87.312439 265.192627 87.054108 265.559998 86.890015 C 268.76001 85.470001 271.700012 86.869995 271.820007 90.390015 C 271.940002 93.856669 271.966675 100.213328 271.900024 109.459991 C 271.900024 109.75824 272.141785 110 272.440002 110 L 280 110 C 280.276123 110 280.5 109.776154 280.5 109.5 C 280.593343 100.626668 280.590007 93.470001 280.48999 88.029999 C 280.299988 78 267.890015 76.399994 262.23999 82.829987 C 262.150085 82.93219 262.018799 82.98822 261.882813 82.982391 C 261.746826 82.976563 261.620789 82.909515 261.539978 82.799988 C 259.780009 80.386658 257.573344 79.119995 254.919983 79 C 250.766663 78.813334 247.753337 79.953339 245.880005 82.420013 C 245.803955 82.519012 245.673096 82.558289 245.555115 82.517426 C 245.437134 82.476593 245.358521 82.364838 245.359985 82.23999"/>
        <path id="path16" fill="none" stroke="#91a0b0" stroke-width="2" d="M 345.530029 81.790009 L 345.539978 80.279999 C 345.539978 79.921021 345.244507 79.630005 344.880005 79.630005 L 338.169983 79.609985 C 337.750244 79.609985 337.409973 79.950256 337.409973 80.369995 L 337.340027 109.649994 C 337.340027 109.843292 337.501221 109.999969 337.700012 110 L 345.440002 110.019989 C 345.633301 110.019989 345.789978 109.863312 345.789978 109.670013 C 345.829976 100.523346 345.849976 95.506673 345.849976 94.619995 C 345.820007 90.339996 346.950012 85.790009 351.900024 86.089996 C 355.01001 86.269989 356.299988 88.420013 356.330017 91.390015 C 356.363342 95.723348 356.360006 101.75001 356.320007 109.470001 C 356.320007 109.779266 356.57074 110.029999 356.880005 110.029999 L 364.359985 110.049988 C 364.659912 110.050049 364.904541 109.809845 364.909973 109.51001 C 364.969991 100.083333 364.963338 93.629995 364.890015 90.149994 C 364.809998 86.170013 363.849976 81.859985 360.210022 80.26001 C 354.889994 77.920003 350.223328 78.529999 346.210022 82.089996 C 346.09314 82.204773 345.918152 82.236694 345.76825 82.170563 C 345.618408 82.104462 345.524048 81.953674 345.530029 81.790009"/>
        <path id="path17" fill="none" stroke="#91a0b0" stroke-width="2" d="M 390.539978 107.559998 C 390.390015 111.869995 389.469971 115.149994 384.830017 115.519989 C 381.883321 115.753326 380.149984 114.993327 379.630005 113.23999 C 379.523926 112.888733 379.202698 112.648804 378.840027 112.649994 L 370.940002 112.649994 C 370.730652 112.649445 370.531982 112.742615 370.397034 112.904541 C 370.262085 113.066498 370.20459 113.280731 370.23999 113.48999 C 370.753337 116.509989 371.976664 118.57666 373.909973 119.690002 C 378.203308 122.156677 383.426656 122.786672 389.580017 121.579987 C 397.539978 120.019989 398.869995 114.089996 398.869995 107.019989 C 398.869995 89.339996 398.880005 80.426666 398.900024 80.279999 C 398.926208 80.110352 398.877197 79.937714 398.765808 79.807098 C 398.654419 79.676514 398.491638 79.600891 398.320007 79.600006 L 391.429993 79.579987 C 391.054443 79.579987 390.75 79.88446 390.75 80.26001 L 390.75 82.040009 C 390.754761 82.184814 390.667175 82.316742 390.53186 82.368591 C 390.396606 82.420471 390.243286 82.38089 390.150024 82.269989 C 387.66333 79.456655 384.293315 78.399994 380.039978 79.100006 C 366.929993 81.269989 365.919983 104.829987 377.200012 109.179993 C 381.813334 110.953328 386.099996 110.329997 390.059998 107.309998 C 390.152344 107.240631 390.276306 107.230438 390.378723 107.283783 C 390.481201 107.337158 390.543884 107.44458 390.539978 107.559998"/>
        <path id="path18" fill="none" stroke="#91a0b0" stroke-width="2" d="M 222.51001 107.799988 L 222.51001 109.309998 C 222.51001 109.668976 222.805481 109.959991 223.169983 109.959991 L 229.859985 109.959991 C 230.279724 109.959991 230.619995 109.619751 230.619995 109.200012 L 230.619995 79.980011 C 230.619995 79.786713 230.458801 79.630005 230.26001 79.630005 L 222.539978 79.630005 C 222.34668 79.630005 222.190002 79.786713 222.190002 79.980011 C 222.169983 89.106679 222.16331 94.113342 222.169983 95 C 222.210022 99.269989 221.090027 103.809998 216.150024 103.529999 C 213.039978 103.350006 211.75 101.209991 211.719971 98.25 C 211.67334 93.92334 211.660014 87.910004 211.679993 80.209991 C 211.679993 79.900726 211.42926 79.649994 211.119995 79.649994 L 203.659973 79.649994 C 203.360107 79.649963 203.115479 79.890167 203.109985 80.190002 C 203.07666 89.596659 203.099996 96.033325 203.179993 99.5 C 203.27002 103.480011 204.22998 107.769989 207.869995 109.359985 C 213.18335 111.686666 217.840027 111.066671 221.840027 107.5 C 221.957642 107.392365 222.127991 107.364868 222.273499 107.430023 C 222.419006 107.495178 222.511963 107.640564 222.51001 107.799988"/>
        <path id="path19" fill="none" stroke="#91a0b0" stroke-width="2" d="M 329.940002 80.029999 C 329.940002 79.792511 329.747498 79.600006 329.51001 79.600006 L 321.869995 79.600006 C 321.632507 79.600006 321.440002 79.792511 321.440002 80.029999 L 321.440002 109.570007 C 321.440002 109.807495 321.632507 110 321.869995 110 L 329.51001 110 C 329.747498 110 329.940002 109.807495 329.940002 109.570007 L 329.940002 80.029999"/>
        <path id="path20" fill="none" stroke="#91a0b0" stroke-width="2" d="M 409.48999 110.679993 C 409.01001 113.353333 407.580017 115.029999 405.200012 115.709991 C 405.046509 115.757782 404.941406 115.899231 404.940002 116.059998 L 404.940002 119.359985 C 404.938782 119.418732 404.964783 119.474792 405.010986 119.513306 C 405.05719 119.551819 405.119019 119.568909 405.179993 119.559998 C 407.833313 119.053324 409.996643 117.893321 411.669983 116.079987 C 414.679993 112.820007 414.070007 104.420013 413.950012 101.600006 C 413.939331 101.39798 413.772278 101.239716 413.570007 101.23999 L 405.26001 101.23999 C 405.072205 101.23999 404.919983 101.396698 404.919983 101.589996 L 404.919983 109.350006 C 404.919983 109.708984 405.210999 110 405.570007 110 L 408.929993 110 C 409.098511 109.999847 409.258179 110.0755 409.366211 110.206696 C 409.474304 110.337891 409.519592 110.511169 409.48999 110.679993"/>
        <path id="path21" fill="none" stroke="#91a0b0" stroke-width="2" d="M 155.859985 173.679993 C 155.68988 173.679474 155.541382 173.795013 155.5 173.959991 C 152.97998 183.779999 140.859985 183.309998 138.27002 173.920013 C 136.419983 167.179993 137.710022 153.26001 147.950012 154.309998 C 152.043355 154.730001 154.556681 156.933339 155.48999 160.920013 C 155.5177 161.041687 155.625244 161.12851 155.75 161.130005 L 164.549988 161.130005 C 164.603455 161.13031 164.65448 161.108154 164.68927 161.069519 C 164.72406 161.030853 164.739014 160.979736 164.72998 160.929993 C 163.22998 150.600006 155.75 145.950012 145.719971 146.410004 C 138.126668 146.763336 132.886678 150.463338 130 157.51001 C 127.599976 163.369995 127.650024 172.589996 130 178.220001 C 133.390015 186.350006 140.390015 189.579987 148.919983 189.029999 C 157.539978 188.470001 163.309998 182.399994 164.570007 173.959991 C 164.578613 173.888672 164.556152 173.817078 164.508301 173.763489 C 164.460449 173.7099 164.391846 173.679474 164.320007 173.679993 L 155.859985 173.679993"/>
        <path id="path22" fill="none" stroke="#91a0b0" stroke-width="2" d="M 69.98999 179.440002 L 69.969971 147.920013 C 69.969971 147.467133 69.602844 147.100006 69.150024 147.100006 L 61.77002 147.109985 C 61.326538 147.115417 60.969971 147.472015 60.969971 147.910004 L 60.940002 187.059998 C 60.940002 187.562592 61.347412 187.970001 61.849976 187.970001 L 89.119995 188 C 89.341858 188.000031 89.554504 187.911194 89.710449 187.753387 C 89.866394 187.595551 89.952698 187.381866 89.950012 187.160004 L 89.929993 180.920013 C 89.929993 180.483704 89.576294 180.130005 89.140015 180.130005 L 70.719971 180.160004 C 70.316833 180.160004 69.98999 179.837646 69.98999 179.440002"/>
        <path id="path23" fill="none" stroke="#91a0b0" stroke-width="2" d="M 123.940002 180.859985 C 123.940002 180.473389 123.626587 180.160004 123.23999 180.160004 L 104.679993 180.160004 C 104.293396 180.160004 103.97998 179.846588 103.97998 179.459991 L 103.97998 147.799988 C 103.97998 147.413391 103.666626 147.100006 103.280029 147.100006 L 95.650024 147.100006 C 95.263428 147.100006 94.950012 147.413391 94.950012 147.799988 L 94.950012 187.290009 C 94.950012 187.676605 95.263428 187.98999 95.650024 187.98999 L 123.23999 187.98999 C 123.626587 187.98999 123.940002 187.676605 123.940002 187.290009 L 123.940002 180.859985"/>
        <path id="path24" fill="none" stroke="#9daab8" stroke-width="2" d="M 63.950012 40.160004 C 65.216654 40.186676 66.639974 40.58667 68.219971 41.359985 C 68.315125 41.401123 68.426025 41.370239 68.486267 41.285919 C 68.546509 41.201599 68.539734 41.08667 68.469971 41.01001 C 66.996663 39.543335 65.503337 38.793335 63.98999 38.76001 C 62.476644 38.720011 60.946655 39.393341 59.400024 40.779999 C 59.315918 40.850342 59.296448 40.971802 59.354309 41.06488 C 59.41217 41.157959 59.529724 41.194244 59.630005 41.149994 C 61.25 40.456655 62.690002 40.126658 63.950012 40.160004"/>
        <path id="path25" fill="none" stroke="#9daab8" stroke-width="2" d="M 34.179504 63.583405 C 34.180084 63.47467 34.137451 63.370148 34.060974 63.292847 C 33.984497 63.215546 33.880432 63.171783 33.771698 63.171204 L 33.311707 63.168793 C 33.202942 63.168213 33.098419 63.210876 33.021118 63.287354 C 32.943787 63.363861 32.900055 63.467957 32.899506 63.576691 L 32.880493 67.216614 C 32.879913 67.325348 32.922546 67.429871 32.999023 67.507172 C 33.0755 67.584473 33.179565 67.628204 33.2883 67.628815 L 33.748291 67.631195 C 33.857056 67.631775 33.961578 67.589142 34.03891 67.512634 C 34.116211 67.436127 34.159943 67.332062 34.160492 67.223297 L 34.179504 63.583405"/>
        <path id="path26" fill="none" stroke="#91a0b0" stroke-width="2" d="M 103.719971 77.149994 L 103.76001 84.589996 C 103.76001 84.816437 103.943542 85 104.169983 85 L 113.599976 84.950012 C 115.000854 84.942566 116.342163 84.545349 117.328674 83.845764 C 118.315186 83.14621 118.866028 82.20163 118.859985 81.220001 L 118.859985 80.359985 C 118.847473 78.317291 116.475037 76.674469 113.559998 76.690002 L 104.130005 76.73999 C 103.903564 76.73999 103.719971 76.923553 103.719971 77.149994"/>
        <path id="path27" fill="none" stroke="#91a0b0" stroke-width="2" d="M 103.710022 92.890015 L 103.77002 101.829987 C 103.772644 101.983826 103.836243 102.13031 103.946899 102.237213 C 104.057556 102.344116 104.206177 102.402679 104.359985 102.399994 L 114.190002 102.329987 C 117.242249 102.305664 119.699463 100.139343 119.679993 97.48999 L 119.679993 96.98999 C 119.670715 95.716217 119.078491 94.498871 118.033813 93.606049 C 116.989075 92.713257 115.577515 92.218231 114.109985 92.230011 L 104.280029 92.299988 C 104.12616 92.302643 103.979675 92.366272 103.872803 92.476929 C 103.765869 92.587585 103.707336 92.736176 103.710022 92.890015"/>
        <path id="path28" fill="none" stroke="#91a0b0" stroke-width="2" d="M 160.090027 77.130005 L 160.150024 87.570007 C 160.155396 87.781464 160.32843 87.950073 160.539978 87.950012 L 168.02002 87.910004 C 171.084167 87.892181 173.555176 85.62262 173.539978 82.839996 L 173.539978 81.700012 C 173.532776 80.362885 172.940674 79.08374 171.894165 78.144104 C 170.847656 77.204498 169.432434 76.681396 167.960022 76.690002 L 160.47998 76.730011 C 160.374817 76.72998 160.274048 76.77243 160.200623 76.847748 C 160.127197 76.923065 160.08728 77.024841 160.090027 77.130005"/>
        <path id="path29" fill="none" stroke="#91a0b0" stroke-width="2" d="M 301.413818 86.250305 C 299.732361 86.264954 298.127869 87.198761 296.953186 88.846283 C 295.778564 90.493774 295.130005 92.720032 295.150208 95.035309 C 295.17041 97.350586 295.857727 99.565186 297.060974 101.191956 C 298.26416 102.818726 299.884766 103.724396 301.566223 103.709686 C 303.24762 103.695038 304.852112 102.76123 306.026794 101.113739 C 307.201416 99.466217 307.850037 97.23996 307.829773 94.924713 C 307.809631 92.609436 307.122314 90.394806 305.919067 88.768036 C 304.71582 87.141266 303.095215 86.235596 301.413818 86.250305"/>
        <path id="path30" fill="none" stroke="#9daab8" stroke-width="2" d="M 27.519989 121.649994 C 28.293325 128.07667 31.973328 131.300008 38.559998 131.320007 C 38.813934 131.319153 39.025696 131.131866 39.058167 130.879333 C 39.090698 130.62677 38.934204 130.384796 38.690002 130.309998 C 35.650004 129.476664 32.973338 127.950002 30.660004 125.730011 C 30.487732 125.570984 30.339233 125.381989 30.220001 125.170013 L 28.079987 121.459991 C 28.010315 121.331573 27.858276 121.272003 27.71991 121.31897 C 27.581543 121.365906 27.497131 121.505707 27.519989 121.649994"/>
        <path id="path31" fill="none" stroke="#91a0b0" stroke-width="2" d="M 384.34082 86.2901 C 382.680542 86.295898 381.09137 87.18222 379.922852 88.75412 C 378.754395 90.326019 378.102234 92.454712 378.109985 94.671906 C 378.12616 99.288971 380.941895 103.022003 384.39917 103.009888 C 386.059448 103.00412 387.648621 102.117767 388.817139 100.545898 C 389.985657 98.973999 390.637756 96.845306 390.630005 94.628113 C 390.613831 90.011047 387.798096 86.277985 384.34082 86.2901"/>
    </g>
    <path id="path32" fill="#3b5471" stroke="none" d="M 102.799988 69.01001 C 101.793315 68.703328 100.693319 68.643321 99.5 68.829987 C 99.546672 49.536672 99.533346 30.343343 99.460022 11.25 C 99.450012 8.700012 97.940002 5.51001 94.98999 5.52002 C 64.25 5.579997 37.190002 5.553324 13.809998 5.440002 C 8 5.410004 5.200012 5.130005 5.200012 11.869995 C 5.160014 58.283325 5.190013 90.066661 5.290009 107.220001 C 5.320007 112.320007 9.51001 111.910004 14.040009 111.850006 C 15.906667 111.823334 18.029999 111.796661 20.410004 111.769989 C 20.669586 111.769989 20.880005 111.980438 20.880005 112.23999 L 20.880005 115.589996 C 20.880219 115.748383 20.815674 115.89978 20.701843 116.007904 C 20.588043 116.116028 20.435211 116.171112 20.279999 116.160004 C 17.979991 116.020009 14.136658 115.940013 8.75 115.920013 C 3.859985 115.899994 1.600006 109.920013 1.630005 105.910004 C 1.696676 95.856659 1.740011 64.15332 1.76001 10.799988 C 1.76001 6.906677 3.08667 4.233348 5.73999 2.779999 C 7.17334 1.993337 10.233348 1.593343 14.920013 1.580017 C 60.26 1.466675 86.769999 1.466675 94.450012 1.580017 C 99.83669 1.660014 102.563354 4.463338 102.630005 9.98999 C 102.876668 29.57666 102.933329 49.25 102.799988 69.01001 Z"/>
    <path id="path33" fill="#3b5471" stroke="none" d="M 60.159973 29.070007 C 60.160706 28.768005 60.017761 28.483704 59.775024 28.304077 C 59.532288 28.124481 59.218567 28.070984 58.929993 28.160004 C 57.843323 28.486664 56.48999 28.943329 54.869995 29.529999 C 51.210022 30.859985 47.549988 28.25 48.840027 23.98999 C 49.626689 21.396667 51.390015 20.320007 54.130005 20.76001 C 55.789978 21.029999 56.890015 21.859985 58.380005 22.73999 C 58.731812 22.945496 59.17218 22.921875 59.5 22.679993 C 59.859985 22.41333 60.109985 21.953328 60.25 21.299988 C 60.330505 20.915588 60.672607 20.640198 61.070007 20.640015 L 66.97998 20.640015 C 67.158813 20.639709 67.325745 20.734528 67.419983 20.890015 L 68.219971 22.279999 C 68.358826 22.521088 68.590942 22.694244 68.861633 22.758606 C 69.132263 22.822937 69.417542 22.772827 69.650024 22.619995 C 70.890015 21.809998 71.929993 20.890015 73.599976 20.669983 C 76.846639 20.236674 78.629985 21.76001 78.950012 25.23999 C 79.26001 28.559998 76.440002 30.690002 73.280029 29.76001 C 71.773356 29.313334 70.466675 28.799998 69.359985 28.220001 C 69.018188 28.041138 68.607605 28.054382 68.278015 28.255005 C 67.948486 28.455597 67.748108 28.814209 67.75 29.200012 L 67.75 35.149994 C 67.749939 35.721802 67.932068 36.278748 68.27002 36.73999 C 69.023356 37.779989 69.970011 38.709991 71.109985 39.529999 C 71.370422 39.712036 71.681091 39.809784 72 39.809998 L 80.969971 39.809998 C 81.4505 39.809998 81.840027 40.199524 81.840027 40.679993 L 81.840027 51.089996 C 81.840027 51.548401 81.463928 51.920013 81 51.920013 L 71.669983 51.920013 C 71.364563 51.920105 71.07605 52.051575 70.880005 52.279999 C 66.119995 57.640015 60.52002 56.23999 55.859985 51.549988 C 55.577759 51.267914 55.19281 51.109589 54.789978 51.109985 L 44.640015 51.109985 C 43.402893 51.109985 42.400024 52.112885 42.400024 53.350006 L 42.400024 58.279999 C 42.400024 58.628265 42.261353 58.962006 42.015076 59.20639 C 41.768799 59.450775 41.435547 59.585358 41.090027 59.579987 L 33.720001 59.450012 C 33.442169 59.445313 33.185883 59.298279 33.043121 59.061707 C 32.90036 58.825104 32.891602 58.532928 33.019989 58.290009 C 33.053335 58.223338 33.070007 56.299998 33.070007 52.519989 C 33.070007 46.980011 36.429993 40.73999 42.679993 40.899994 C 47.533346 41.026662 51.493347 41.029999 54.559998 40.910004 C 55.088379 40.891418 55.582581 40.651581 55.919983 40.25 C 57.053324 38.92334 58.213338 37.92334 59.400024 37.25 C 59.869751 36.978638 60.159363 36.475616 60.159973 35.929993 L 60.159973 29.070007 Z M 63.950012 40.160004 C 65.216654 40.186676 66.639974 40.58667 68.219971 41.359985 C 68.315125 41.401123 68.426025 41.370239 68.486267 41.285919 C 68.546509 41.201599 68.539734 41.08667 68.469971 41.01001 C 66.996663 39.543335 65.503337 38.793335 63.98999 38.76001 C 62.476644 38.720011 60.946655 39.393341 59.400024 40.779999 C 59.315918 40.850342 59.296448 40.971802 59.354309 41.06488 C 59.41217 41.157959 59.529724 41.194244 59.630005 41.149994 C 61.25 40.456655 62.690002 40.126658 63.950012 40.160004 Z"/>
    <path id="path34" fill="#3b5471" stroke="none" d="M 91.390015 56.369995 C 91.390015 56.530151 91.260193 56.660004 91.099976 56.660004 L 87.640015 56.630005 C 85.194153 56.612396 83.224548 54.745728 83.23999 52.459991 L 83.340027 38.619995 C 83.347351 37.521667 83.821472 36.471497 84.657959 35.700623 C 85.494446 34.92981 86.624695 34.501495 87.799988 34.51001 L 91.26001 34.539978 C 91.420166 34.539978 91.549988 34.66983 91.549988 34.830017 L 91.390015 56.369995 Z"/>
    <path id="path35" fill="#ffffff" stroke="none" d="M 63.98999 38.76001 C 65.503337 38.793335 66.996663 39.543335 68.469971 41.01001 C 68.539734 41.08667 68.546509 41.201599 68.486267 41.285919 C 68.426025 41.370239 68.315125 41.401123 68.219971 41.359985 C 66.639974 40.58667 65.216654 40.186676 63.950012 40.160004 C 62.690002 40.126658 61.25 40.456655 59.630005 41.149994 C 59.529724 41.194244 59.41217 41.157959 59.354309 41.06488 C 59.296448 40.971802 59.315918 40.850342 59.400024 40.779999 C 60.946655 39.393341 62.476644 38.720011 63.98999 38.76001 Z"/>
    <path id="path36" fill="#3b5471" stroke="none" d="M 44.040283 68.525909 C 44.033875 69.050507 43.603394 69.470581 43.078796 69.464203 L 32.519592 69.335205 C 32.267639 69.332153 32.027222 69.229095 31.851227 69.048767 C 31.675232 68.868439 31.578094 68.625549 31.581207 68.373596 L 31.659698 61.954102 C 31.666138 61.429504 32.096588 61.009399 32.621185 61.015808 L 43.18042 61.144806 C 43.432373 61.147858 43.672791 61.250885 43.848755 61.431244 C 44.02478 61.611572 44.121887 61.854431 44.118774 62.106415 L 44.040283 68.525909 Z M 34.179504 63.583405 C 34.180084 63.47467 34.137451 63.370148 34.060974 63.292847 C 33.984497 63.215546 33.880432 63.171783 33.771698 63.171204 L 33.311707 63.168793 C 33.202942 63.168213 33.098419 63.210876 33.021118 63.287354 C 32.943787 63.363861 32.900055 63.467957 32.899506 63.576691 L 32.880493 67.216614 C 32.879913 67.325348 32.922546 67.429871 32.999023 67.507172 C 33.0755 67.584473 33.179565 67.628204 33.2883 67.628815 L 33.748291 67.631195 C 33.857056 67.631775 33.961578 67.589142 34.03891 67.512634 C 34.116211 67.436127 34.159943 67.332062 34.160492 67.223297 L 34.179504 63.583405 Z"/>
    <path id="path37" fill="#ffffff" stroke="none" d="M 33.311676 63.168823 L 33.771667 63.171234 C 33.998108 63.172424 34.180695 63.356934 34.179535 63.583374 L 34.160461 67.223328 C 34.159271 67.449768 33.974762 67.632355 33.748322 67.631165 L 33.28833 67.628754 C 33.06189 67.627594 32.879303 67.443054 32.880493 67.216614 L 32.899536 63.57666 C 32.900726 63.35025 33.085236 63.167633 33.311676 63.168823 Z"/>
    <path id="path38" fill="#234061" stroke="none" d="M 102.799988 69.01001 C 106.526672 69.123332 110.343343 69.15333 114.25 69.100006 C 120.369995 69.019989 126.159973 70.850006 127.380005 77.579987 C 128.166667 81.899994 127.026672 85.266663 123.960022 87.679993 C 123.848022 87.770264 123.787231 87.909546 123.79718 88.05304 C 123.80719 88.196533 123.886597 88.32608 124.01001 88.399994 C 127.796672 90.606659 129.389994 94.143331 128.789978 99.01001 C 127.880005 106.420013 122.429993 109.790009 115.380005 109.829987 C 110.786662 109.849986 106.466654 109.99999 102.419983 110.279999 C 101.299988 110.893341 100.009989 110.976674 98.549988 110.529999 L 95.530029 109.959991 C 95.275085 109.911957 95.090332 109.689423 95.090027 109.429993 L 95.090027 69.589996 C 95.08905 69.440308 95.152588 69.297302 95.265015 69.19635 C 95.37738 69.095367 95.528137 69.045837 95.679993 69.059998 C 97.219991 69.226664 98.493327 69.149994 99.5 68.829987 C 100.693319 68.643321 101.793315 68.703328 102.799988 69.01001 Z M 103.719971 77.149994 L 103.76001 84.589996 C 103.76001 84.816437 103.943542 85 104.169983 85 L 113.599976 84.950012 C 115.000854 84.942566 116.342163 84.545349 117.328674 83.845764 C 118.315186 83.14621 118.866028 82.20163 118.859985 81.220001 L 118.859985 80.359985 C 118.847473 78.317291 116.475037 76.674469 113.559998 76.690002 L 104.130005 76.73999 C 103.903564 76.73999 103.719971 76.923553 103.719971 77.149994 Z M 103.710022 92.890015 L 103.77002 101.829987 C 103.772644 101.983826 103.836243 102.13031 103.946899 102.237213 C 104.057556 102.344116 104.206177 102.402679 104.359985 102.399994 L 114.190002 102.329987 C 117.242249 102.305664 119.699463 100.139343 119.679993 97.48999 L 119.679993 96.98999 C 119.670715 95.716217 119.078491 94.498871 118.033813 93.606049 C 116.989075 92.713257 115.577515 92.218231 114.109985 92.230011 L 104.280029 92.299988 C 104.12616 92.302643 103.979675 92.366272 103.872803 92.476929 C 103.765869 92.587585 103.707336 92.736176 103.710022 92.890015 Z"/>
    <path id="path39" fill="#234061" stroke="none" d="M 321.909973 68.850006 L 329.48999 68.850006 C 329.74408 68.850006 329.950012 69.055939 329.950012 69.309998 L 329.950012 76.190002 C 329.950012 76.444061 329.74408 76.649994 329.48999 76.649994 L 321.909973 76.649994 C 321.655945 76.649994 321.450012 76.444061 321.450012 76.190002 L 321.450012 69.309998 C 321.450012 69.055939 321.655945 68.850006 321.909973 68.850006 Z"/>
    <path id="path40" fill="#234061" stroke="none" d="M 74.23999 69.100006 C 79.666667 69.08666 85.026672 69.08666 90.320007 69.100006 C 90.623779 69.100006 90.869995 69.346252 90.869995 69.649994 L 90.869995 76.269989 C 90.869995 76.579285 90.619263 76.829987 90.309998 76.829987 L 79.25 76.829987 C 79.001465 76.829987 78.799988 77.031464 78.799988 77.279999 L 78.799988 109.420013 C 78.800415 109.730865 78.55542 109.988983 78.23999 110.01001 C 77.806681 110.043335 76.476685 110.059998 74.25 110.059998 C 72.029989 110.059998 70.703328 110.046661 70.27002 110.019989 C 69.950623 109.998749 69.704163 109.734711 69.710022 109.420013 L 69.690002 77.279999 C 69.690002 77.031464 69.488525 76.829987 69.23999 76.829987 L 58.179993 76.839996 C 57.870728 76.839996 57.619995 76.589294 57.619995 76.279999 L 57.619995 69.660004 C 57.619995 69.356232 57.866272 69.109985 58.169983 69.109985 C 63.463318 69.096659 68.819987 69.093333 74.23999 69.100006 Z"/>
    <path id="path41" fill="#234061" stroke="none" d="M 160.119995 96.279999 L 160.119995 109.570007 C 160.119995 109.801971 159.931946 109.98999 159.700012 109.98999 L 151.609985 109.980011 C 151.36145 109.980011 151.159973 109.778534 151.159973 109.529999 L 151.159973 69.5 C 151.159912 69.316071 151.306152 69.165405 151.48999 69.160004 C 158.57666 69.026662 164.539998 69.046661 169.380005 69.220001 C 179.380005 69.573334 183.700012 74.933329 182.340027 85.299988 C 180.859985 96.519989 169.359985 95.76001 160.940002 95.480011 C 160.725403 95.471832 160.516724 95.552521 160.362 95.70343 C 160.207336 95.85434 160.119934 96.062531 160.119995 96.279999 Z M 160.090027 77.130005 L 160.150024 87.570007 C 160.155396 87.781464 160.32843 87.950073 160.539978 87.950012 L 168.02002 87.910004 C 171.084167 87.892181 173.555176 85.62262 173.539978 82.839996 L 173.539978 81.700012 C 173.532776 80.362885 172.940674 79.08374 171.894165 78.144104 C 170.847656 77.204498 169.432434 76.681396 167.960022 76.690002 L 160.47998 76.730011 C 160.374817 76.72998 160.274048 76.77243 160.200623 76.847748 C 160.127197 76.923065 160.08728 77.024841 160.090027 77.130005 Z"/>
    <path id="path42" fill="#234061" stroke="none" d="M 188.960022 69.089996 L 196.419983 69.089996 C 196.679565 69.089996 196.890015 69.300415 196.890015 69.559998 L 196.890015 109.519989 C 196.890015 109.779572 196.679565 109.98999 196.419983 109.98999 L 188.960022 109.98999 C 188.700439 109.98999 188.48999 109.779572 188.48999 109.519989 L 188.48999 69.559998 C 188.48999 69.300415 188.700439 69.089996 188.960022 69.089996 Z"/>
    <path id="path43" fill="#234061" stroke="none" d="M 295.919983 82.01001 C 299.273336 79.036662 303.273336 78.216654 307.919983 79.549988 C 313.080017 81.029999 315.73999 86.140015 316.369995 91.519989 C 317.299988 99.339996 314.849976 109.309998 305.780029 110.600006 C 301.58667 111.193329 298.273336 110.23999 295.840027 107.73999 C 295.738159 107.633698 295.581909 107.600067 295.445374 107.655121 C 295.308838 107.710175 295.219604 107.842804 295.219971 107.98999 L 295.219971 109.470001 C 295.219971 109.762726 294.987183 110 294.700012 110 L 287.679993 110 C 287.343079 110 287.070007 109.722412 287.070007 109.380005 L 287.070007 69.579987 C 287.070007 69.342529 287.262512 69.149994 287.5 69.149994 L 295.030029 69.149994 C 295.245361 69.149994 295.419983 69.320129 295.419983 69.529999 L 295.419983 81.790009 C 295.421387 81.907654 295.491455 82.013611 295.599182 82.061005 C 295.706848 82.108398 295.832336 82.08844 295.919983 82.01001 Z M 301.413818 86.250305 C 299.732361 86.264954 298.127869 87.198761 296.953186 88.846283 C 295.778564 90.493774 295.130005 92.720032 295.150208 95.035309 C 295.17041 97.350586 295.857727 99.565186 297.060974 101.191956 C 298.26416 102.818726 299.884766 103.724396 301.566223 103.709686 C 303.24762 103.695038 304.852112 102.76123 306.026794 101.113739 C 307.201416 99.466217 307.850037 97.23996 307.829773 94.924713 C 307.809631 92.609436 307.122314 90.394806 305.919067 88.768036 C 304.71582 87.141266 303.095215 86.235596 301.413818 86.250305 Z"/>
    <path id="path44" fill="#3b5471" stroke="none" d="M 37.76001 76.570007 C 37.860006 76.570007 37.953339 76.593343 38.040009 76.640015 C 38.060516 76.651703 38.078217 76.672943 38.089996 76.700012 C 38.856659 78.406677 40.213318 81.130005 42.159973 84.869995 C 45.809998 91.910004 48.47998 99.619995 50.690002 107.049988 C 51.703349 110.456665 52.263346 114.033335 52.369995 117.779999 C 52.599976 125.929993 47.099976 135.630005 37.720001 135.619995 C 28.339996 135.609985 22.850006 125.910004 23.100006 117.76001 C 23.206675 114.013346 23.770009 110.436676 24.790009 107.029999 C 27.01001 99.600006 29.690002 91.899994 33.350006 84.859985 C 35.303335 81.126668 36.666667 78.406677 37.440002 76.700012 C 37.451782 76.672974 37.469482 76.651733 37.48999 76.640015 C 37.57666 76.593343 37.666667 76.570007 37.76001 76.570007 Z M 27.519989 121.649994 C 28.293325 128.07667 31.973328 131.300008 38.559998 131.320007 C 38.813934 131.319153 39.025696 131.131866 39.058167 130.879333 C 39.090698 130.62677 38.934204 130.384796 38.690002 130.309998 C 35.650004 129.476664 32.973338 127.950002 30.660004 125.730011 C 30.487732 125.570984 30.339233 125.381989 30.220001 125.170013 L 28.079987 121.459991 C 28.010315 121.331573 27.858276 121.272003 27.71991 121.31897 C 27.581543 121.365906 27.497131 121.505707 27.519989 121.649994 Z"/>
    <path id="path45" fill="#234061" stroke="none" d="M 245.880005 82.420013 C 247.753337 79.953339 250.766663 78.813334 254.919983 79 C 257.573344 79.119995 259.780009 80.386658 261.539978 82.799988 C 261.620789 82.909515 261.746826 82.976563 261.882813 82.982391 C 262.018799 82.98822 262.150085 82.93219 262.23999 82.829987 C 267.890015 76.399994 280.299988 78 280.48999 88.029999 C 280.590007 93.470001 280.593343 100.626668 280.5 109.5 C 280.5 109.776154 280.276123 110 280 110 L 272.440002 110 C 272.141785 110 271.900024 109.75824 271.900024 109.459991 C 271.966675 100.213328 271.940002 93.856669 271.820007 90.390015 C 271.700012 86.869995 268.76001 85.470001 265.559998 86.890015 C 265.192627 87.054108 264.872314 87.312439 264.630005 87.640015 C 263.623332 88.973348 263.113322 90.603343 263.099976 92.529999 C 263.073324 98.109996 263.066671 103.763326 263.080017 109.48999 C 263.080017 109.771667 262.851685 110 262.570007 110 L 255.130005 110 C 254.842834 110 254.609985 109.767181 254.609985 109.480011 L 254.609985 90.48999 C 254.608582 89.33017 254.121826 88.22403 253.26825 87.440826 C 252.414734 86.657593 251.272644 86.269135 250.119995 86.369995 L 249.73999 86.410004 C 247.459717 86.612 245.710999 88.525604 245.710022 90.820007 L 245.710022 109.48999 C 245.710022 109.766144 245.486145 109.98999 245.210022 109.98999 L 237.700012 109.98999 C 237.418335 109.98999 237.190002 109.761658 237.190002 109.480011 L 237.190002 80.380005 C 237.190002 79.971313 237.521301 79.640015 237.929993 79.640015 L 244.679993 79.640015 C 245.055542 79.640015 245.359985 79.944458 245.359985 80.320007 L 245.359985 82.23999 C 245.358521 82.364838 245.437134 82.476593 245.555115 82.517426 C 245.673096 82.558289 245.803955 82.519012 245.880005 82.420013 Z"/>
    <path id="path46" fill="#234061" stroke="none" d="M 345.530029 81.790009 C 345.524048 81.953674 345.618408 82.104462 345.76825 82.170563 C 345.918152 82.236694 346.09314 82.204773 346.210022 82.089996 C 350.223328 78.529999 354.889994 77.920003 360.210022 80.26001 C 363.849976 81.859985 364.809998 86.170013 364.890015 90.149994 C 364.963338 93.629995 364.969991 100.083333 364.909973 109.51001 C 364.904541 109.809845 364.659912 110.050049 364.359985 110.049988 L 356.880005 110.029999 C 356.57074 110.029999 356.320007 109.779266 356.320007 109.470001 C 356.360006 101.75001 356.363342 95.723348 356.330017 91.390015 C 356.299988 88.420013 355.01001 86.269989 351.900024 86.089996 C 346.950012 85.790009 345.820007 90.339996 345.849976 94.619995 C 345.849976 95.506673 345.829976 100.523346 345.789978 109.670013 C 345.789978 109.863312 345.633301 110.019989 345.440002 110.019989 L 337.700012 110 C 337.501221 109.999969 337.340027 109.843292 337.340027 109.649994 L 337.409973 80.369995 C 337.409973 79.950256 337.750244 79.609985 338.169983 79.609985 L 344.880005 79.630005 C 345.244507 79.630005 345.539978 79.921021 345.539978 80.279999 L 345.530029 81.790009 Z"/>
    <path id="path47" fill="#234061" stroke="none" d="M 390.059998 107.309998 C 386.099996 110.329997 381.813334 110.953328 377.200012 109.179993 C 365.919983 104.829987 366.929993 81.269989 380.039978 79.100006 C 384.293315 78.399994 387.66333 79.456655 390.150024 82.269989 C 390.243286 82.38089 390.396606 82.420471 390.53186 82.368591 C 390.667175 82.316742 390.754761 82.184814 390.75 82.040009 L 390.75 80.26001 C 390.75 79.88446 391.054443 79.579987 391.429993 79.579987 L 398.320007 79.600006 C 398.491638 79.600891 398.654419 79.676514 398.765808 79.807098 C 398.877197 79.937714 398.926208 80.110352 398.900024 80.279999 C 398.880005 80.426666 398.869995 89.339996 398.869995 107.019989 C 398.869995 114.089996 397.539978 120.019989 389.580017 121.579987 C 383.426656 122.786672 378.203308 122.156677 373.909973 119.690002 C 371.976664 118.57666 370.753337 116.509989 370.23999 113.48999 C 370.20459 113.280731 370.262085 113.066498 370.397034 112.904541 C 370.531982 112.742615 370.730652 112.649445 370.940002 112.649994 L 378.840027 112.649994 C 379.202698 112.648804 379.523926 112.888733 379.630005 113.23999 C 380.149984 114.993327 381.883321 115.753326 384.830017 115.519989 C 389.469971 115.149994 390.390015 111.869995 390.539978 107.559998 C 390.543884 107.44458 390.481201 107.337158 390.378723 107.283783 C 390.276306 107.230438 390.152344 107.240631 390.059998 107.309998 Z M 384.34082 86.2901 C 382.680542 86.295898 381.09137 87.18222 379.922852 88.75412 C 378.754395 90.326019 378.102234 92.454712 378.109985 94.671906 C 378.12616 99.288971 380.941895 103.022003 384.39917 103.009888 C 386.059448 103.00412 387.648621 102.117767 388.817139 100.545898 C 389.985657 98.973999 390.637756 96.845306 390.630005 94.628113 C 390.613831 90.011047 387.798096 86.277985 384.34082 86.2901 Z"/>
    <path id="path48" fill="#234061" stroke="none" d="M 221.840027 107.5 C 217.840027 111.066671 213.18335 111.686666 207.869995 109.359985 C 204.22998 107.769989 203.27002 103.480011 203.179993 99.5 C 203.099996 96.033325 203.07666 89.596659 203.109985 80.190002 C 203.115479 79.890167 203.360107 79.649963 203.659973 79.649994 L 211.119995 79.649994 C 211.42926 79.649994 211.679993 79.900726 211.679993 80.209991 C 211.660014 87.910004 211.67334 93.92334 211.719971 98.25 C 211.75 101.209991 213.039978 103.350006 216.150024 103.529999 C 221.090027 103.809998 222.210022 99.269989 222.169983 95 C 222.16331 94.113342 222.169983 89.106679 222.190002 79.980011 C 222.190002 79.786713 222.34668 79.630005 222.539978 79.630005 L 230.26001 79.630005 C 230.458801 79.630005 230.619995 79.786713 230.619995 79.980011 L 230.619995 109.200012 C 230.619995 109.619751 230.279724 109.959991 229.859985 109.959991 L 223.169983 109.959991 C 222.805481 109.959991 222.51001 109.668976 222.51001 109.309998 L 222.51001 107.799988 C 222.511963 107.640564 222.419006 107.495178 222.273499 107.430023 C 222.127991 107.364868 221.957642 107.392365 221.840027 107.5 Z"/>
    <path id="path49" fill="#234061" stroke="none" d="M 321.869995 79.600006 L 329.51001 79.600006 C 329.747498 79.600006 329.940002 79.792511 329.940002 80.029999 L 329.940002 109.570007 C 329.940002 109.807495 329.747498 110 329.51001 110 L 321.869995 110 C 321.632507 110 321.440002 109.807495 321.440002 109.570007 L 321.440002 80.029999 C 321.440002 79.792511 321.632507 79.600006 321.869995 79.600006 Z"/>
    <path id="path50" fill="#234061" stroke="none" d="M 408.929993 110 L 405.570007 110 C 405.210999 110 404.919983 109.708984 404.919983 109.350006 L 404.919983 101.589996 C 404.919983 101.396698 405.072205 101.23999 405.26001 101.23999 L 413.570007 101.23999 C 413.772278 101.239716 413.939331 101.39798 413.950012 101.600006 C 414.070007 104.420013 414.679993 112.820007 411.669983 116.079987 C 409.996643 117.893321 407.833313 119.053324 405.179993 119.559998 C 405.119019 119.568909 405.05719 119.551819 405.010986 119.513306 C 404.964783 119.474792 404.938782 119.418732 404.940002 119.359985 L 404.940002 116.059998 C 404.941406 115.899231 405.046509 115.757782 405.200012 115.709991 C 407.580017 115.029999 409.01001 113.353333 409.48999 110.679993 C 409.519592 110.511169 409.474304 110.337891 409.366211 110.206696 C 409.258179 110.0755 409.098511 109.999847 408.929993 110 Z"/>
    <path id="path51" fill="#3b5471" stroke="none" d="M 102.419983 110.279999 C 101.440002 113.899994 99.33667 115.776662 96.109985 115.910004 C 90.103312 116.149994 76.536641 116.206655 55.409973 116.079987 C 54.973694 116.079987 54.619995 115.726318 54.619995 115.290009 L 54.619995 112.290009 C 54.619995 112.002808 54.852783 111.769989 55.140015 111.769989 C 75.52002 111.736664 88.513346 111.763336 94.119995 111.850006 C 96 111.883331 97.476664 111.443329 98.549988 110.529999 C 100.009989 110.976674 101.299988 110.893341 102.419983 110.279999 Z"/>
    <path id="path52" fill="#ffffff" stroke="none" d="M 28.079987 121.459991 L 30.220001 125.170013 C 30.339233 125.381989 30.487732 125.570984 30.660004 125.730011 C 32.973338 127.950002 35.650004 129.476664 38.690002 130.309998 C 38.934204 130.384796 39.090698 130.62677 39.058167 130.879333 C 39.025696 131.131866 38.813934 131.319153 38.559998 131.320007 C 31.973328 131.300008 28.293325 128.07667 27.519989 121.649994 C 27.497131 121.505707 27.581543 121.365906 27.71991 121.31897 C 27.858276 121.272003 28.010315 121.331573 28.079987 121.459991 Z"/>
    <path id="path53" fill="#234061" stroke="none" d="M 164.570007 173.959991 C 163.309998 182.399994 157.539978 188.470001 148.919983 189.029999 C 140.390015 189.579987 133.390015 186.350006 130 178.220001 C 127.650024 172.589996 127.599976 163.369995 130 157.51001 C 132.886678 150.463338 138.126668 146.763336 145.719971 146.410004 C 155.75 145.950012 163.22998 150.600006 164.72998 160.929993 C 164.739014 160.979736 164.72406 161.030853 164.68927 161.069519 C 164.65448 161.108154 164.603455 161.13031 164.549988 161.130005 L 155.75 161.130005 C 155.625244 161.12851 155.5177 161.041687 155.48999 160.920013 C 154.556681 156.933339 152.043355 154.730001 147.950012 154.309998 C 137.710022 153.26001 136.419983 167.179993 138.27002 173.920013 C 140.859985 183.309998 152.97998 183.779999 155.5 173.959991 C 155.541382 173.795013 155.68988 173.679474 155.859985 173.679993 L 164.320007 173.679993 C 164.391846 173.679474 164.460449 173.7099 164.508301 173.763489 C 164.556152 173.817078 164.578613 173.888672 164.570007 173.959991 Z"/>
    <path id="path54" fill="#234061" stroke="none" d="M 69.98999 179.440002 C 69.98999 179.837646 70.316833 180.160004 70.719971 180.160004 L 89.140015 180.130005 C 89.576294 180.130005 89.929993 180.483704 89.929993 180.920013 L 89.950012 187.160004 C 89.952698 187.381866 89.866394 187.595551 89.710449 187.753387 C 89.554504 187.911194 89.341858 188.000031 89.119995 188 L 61.849976 187.970001 C 61.347412 187.970001 60.940002 187.562592 60.940002 187.059998 L 60.969971 147.910004 C 60.969971 147.472015 61.326538 147.115417 61.77002 147.109985 L 69.150024 147.100006 C 69.602844 147.100006 69.969971 147.467133 69.969971 147.920013 L 69.98999 179.440002 Z"/>
    <path id="path55" fill="#234061" stroke="none" d="M 123.940002 180.859985 L 123.940002 187.290009 C 123.940002 187.676605 123.626587 187.98999 123.23999 187.98999 L 95.650024 187.98999 C 95.263428 187.98999 94.950012 187.676605 94.950012 187.290009 L 94.950012 147.799988 C 94.950012 147.413391 95.263428 147.100006 95.650024 147.100006 L 103.280029 147.100006 C 103.666626 147.100006 103.97998 147.413391 103.97998 147.799988 L 103.97998 179.459991 C 103.97998 179.846588 104.293396 180.160004 104.679993 180.160004 L 123.23999 180.160004 C 123.626587 180.160004 123.940002 180.473389 123.940002 180.859985 Z"/>
</svg>
