<svg viewBox="0 0 512 512" xmlns="http://www.w3.org/2000/svg"><path d="m280.1 44.45c16.2-27.54 45.8-44.45 77.7-44.45h2.2c48.6 0 88 39.4 88 88s-39.4 88-88 88h-72v80h-64v-80h-72c-48.6 0-88-39.4-88-88s39.4-88 88-88h2.2c31.9 0 61.5 16.91 77.7 44.45l24.1 41.01zm-89.6 24.33c-7.6-12.87-21.4-20.78-36.3-20.78h-2.2c-22.1 0-40 17.91-40 40 0 22.1 17.9 40 40 40h73.3zm96.2 59.22h73.3c22.1 0 40-17.9 40-40 0-22.09-17.9-40-40-40h-2.2c-14.9 0-28.7 7.91-36.3 20.78zm-62.7 384v-224h64v224z"/><path d="m152 176h72v80h-192c-17.67 0-32-14.3-32-32v-64c0-17.7 14.33-32 32-32h41.6c14.56 28.5 44.2 48 78.4 48zm328 80h-192v-80h72c34.2 0 63.8-19.5 78.4-48h41.6c17.7 0 32 14.3 32 32v64c0 17.7-14.3 32-32 32zm-448 32h192v224h-144c-26.51 0-48-21.5-48-48zm256 224v-224h192v176c0 26.5-21.5 48-48 48z" opacity=".4"/></svg>