<svg viewBox="0 0 640 512" xmlns="http://www.w3.org/2000/svg"><path d="m269.9 318.3c5.4 12.1 0 26.2-12.2 31.6-12.1 5.4-26.2 0-31.6-12.2l-4.4-9.7h-75.4l-4.4 9.7c-5.4 12.2-19.5 17.6-31.6 12.2-12.16-5.4-17.61-19.5-12.23-31.6l64.03-144c3.8-8.7 12.4-14.3 21.9-14.3s18.1 5.6 21.9 14.3zm-69.5-38.3-16.4-36.9-16.4 36.9zm102.7-96c0-13.3 11.6-24 24.9-24h52c33.1 0 60 26.9 60 60 0 9.2-2.1 17.9-5.8 25.7 13.3 11 21.8 27.7 21.8 46.3 0 33.1-26.9 60-60 60h-68c-13.3 0-24.9-10.7-24.9-24zm48.9 24v24h28c6.6 0 12-5.4 12-12s-5.4-12-12-12zm0 96h44c6.6 0 12-5.4 12-12s-5.4-12-12-12h-44z"/><path d="m576 64c35.3 0 64 28.65 64 64v256c0 35.3-28.7 64-64 64h-512c-35.35 0-64-28.7-64-64v-256c0-35.35 28.65-64 64-64zm0 64h-512v256h512z" opacity=".4"/></svg>