<svg viewBox="0 0 448 512" xmlns="http://www.w3.org/2000/svg"><path d="m70.63 272c-12.5 0-22.63-10.1-22.63-22.6 0-6 2.38-11.8 6.63-16l3.88-3.9c24-24 37.49-56.6 37.49-91.4v-10.1c0-70.69 57.3-128 128-128 70.6 0 127.8 57.1 128 127.6v.8.2 9.5c0 34.8 13.5 67.4 37.5 91.4l3.9 3.9c4.2 4.2 6.6 10 6.6 16 0 12.5-10.1 22.6-22.6 22.6zm57.37-160v48c0 53 42.1 96 96 96 53 0 96-43 96-96v-64h-8c-22.8 0-42.8-11.91-54.1-29.84-17.8 27.5-47.3 45.84-81.9 45.84zm158.7 208c89.1 0 161.3 72.2 161.3 161.3 0 16.9-13.8 30.7-30.7 30.7h-386.58c-16.97 0-30.72-13.8-30.72-30.7 0-89.1 72.21-161.3 161.3-161.3z"/><path d="m312 96h8v64c0 53-43 96-96 96-53.9 0-96-43-96-96v-48h48c34.6 0 64.1-18.34 81.9-45.84 11.3 17.94 31.3 29.84 54.1 29.84z" opacity=".4"/></svg>