<svg viewBox="0 0 576 512" xmlns="http://www.w3.org/2000/svg"><path d="m528 288h-48v80h16c8.836 0 16 7.164 16 16s-7.164 16-16 16h-416c-8.84 0-16-7.2-16-16s7.164-16 16-16h16v-80h-48c-26.51 0-48 21.5-48 48v96c0 26.5 21.49 48 48 48h480c26.51 0 48-21.49 48-48v-96c0-26.5-21.5-48-48-48zm-271.6-5.8c4.4 2.9 9.8 4.9 14.7 4.9.7813 0 1.606-.0187 2.388-.1125 6.531-.625 12.5-3.906 16.53-9.062l88-112c8.188-10.41 6.375-25.5-4.062-33.69-10.38-8.156-25.5-6.344-33.69 4.062l-71.666 93.2025-37-31.7c-10-8.6-25.2-7.5-33.8 2.6-8.6 10-7.5 25.2 2.6 33.8z"/><path d="m432 32h-288c-26.5 0-48 21.49-48 48v320h384v-320c0-26.51-21.5-48-48-48zm-53.1 134.8-88 112c-4.031 5.156-10 8.438-16.53 9.062-.77-.762-1.67-.762-3.27-.762-5.719 0-11.21-2.019-15.58-5.769l-56-48c-9.22-7.731-10.32-22.931-1.72-32.931 8.656-10.06 23.81-11.19 33.84-2.594l36.97 31.69 72.53-92.28c8.188-10.41 23.31-12.22 33.69-4.062 10.47 8.146 12.27 23.246 4.07 33.646z" opacity=".4"/></svg>